<svg xmlns="http://www.w3.org/2000/svg" width="250" height="250" fill="none"><g clip-path="url(#a)"><path fill="#ED1C24" d="M167.597 79.27V20l-59.332 59.27H58.866l-39.52-39.71v129.044a59.668 59.668 0 0 0 4.498 22.781 59.497 59.497 0 0 0 12.846 19.316 59.258 59.258 0 0 0 19.238 12.908 59.097 59.097 0 0 0 22.698 4.534h89.131V79.27h-.16Z"/><path fill="#fff" d="M125.141 99.58H61.963c-13.626 0-24.672 11.086-24.672 24.759v1.822c0 13.674 11.046 24.759 24.673 24.759h63.177c13.626 0 24.673-11.085 24.673-24.759v-1.822c0-13.673-11.047-24.758-24.673-24.758Z"/><path fill="#000" d="M122.044 145.078c10.912 0 19.759-8.877 19.759-19.828 0-10.951-8.847-19.828-19.759-19.828-10.913 0-19.76 8.877-19.76 19.828 0 10.951 8.847 19.828 19.76 19.828Z"/><path fill="#ED1C24" d="M64.687 109.656c3.169 0 6.266.943 8.901 2.709a16.071 16.071 0 0 1 5.9 7.215 16.13 16.13 0 0 1 .913 9.289 16.096 16.096 0 0 1-4.385 8.232 16.012 16.012 0 0 1-8.203 4.4c-3.108.62-6.33.302-9.257-.915a16.035 16.035 0 0 1-7.19-5.922 16.114 16.114 0 0 1-2.7-8.931c0-4.264 1.688-8.354 4.692-11.369a15.992 15.992 0 0 1 11.33-4.708Zm0-3.966a19.76 19.76 0 0 0-11.016 3.321 19.866 19.866 0 0 0-7.322 8.903 19.944 19.944 0 0 0-1.158 11.484 19.901 19.901 0 0 0 5.395 10.194 19.796 19.796 0 0 0 10.13 5.469c3.841.778 7.826.395 11.45-1.1a19.826 19.826 0 0 0 8.912-7.299 19.93 19.93 0 0 0 3.369-11.037 19.97 19.97 0 0 0-5.8-14.024 19.83 19.83 0 0 0-13.96-5.857v-.054Z"/><path fill="#fff" d="M102.444 166.032a2.026 2.026 0 0 0-2.83 0l-6.035 6.056-6.088-6.056a1.986 1.986 0 0 0-1.322-.738 1.976 1.976 0 0 0-2.19 1.743 1.993 1.993 0 0 0 .414 1.46.913.913 0 0 0 .32.322l6.89 6.913v13.504c0 .526.208 1.031.579 1.402.37.372.873.581 1.397.581a2.081 2.081 0 0 0 1.976-1.983v-13.504l6.889-6.913a1.988 1.988 0 0 0 0-2.787ZM12.511 173.642h39.893a1.554 1.554 0 0 0 1.495-1.501 1.494 1.494 0 0 0-1.389-1.5H12.512a1.386 1.386 0 0 0-1.495 1.393 1.502 1.502 0 0 0 1.495 1.608ZM60.094 177.822H4.874a1.502 1.502 0 0 0-1.442 1.5c.014.38.17.74.438 1.009.267.268.626.425 1.005.438h55.22a1.547 1.547 0 0 0 1.495-1.5 1.493 1.493 0 0 0-1.495-1.447ZM52.404 185.003H12.511a1.386 1.386 0 0 0-1.495 1.393 1.505 1.505 0 0 0 .923 1.386c.181.076.376.115.572.115h39.893a1.554 1.554 0 0 0 1.495-1.501 1.494 1.494 0 0 0-1.389-1.5l-.106.107ZM134.807 172.141h40.107a1.493 1.493 0 0 0 1.495-1.5c0-.398-.158-.78-.438-1.061a1.49 1.49 0 0 0-1.057-.44h-40.107a1.5 1.5 0 0 0-1.057 2.562c.28.281.661.439 1.057.439ZM182.497 176.321H127.17a1.492 1.492 0 0 0-1.092.42 1.515 1.515 0 0 0-.456 1.081c.013.394.175.767.452 1.046.278.279.651.441 1.043.454h55.38c.397 0 .777-.158 1.057-.439a1.502 1.502 0 0 0-1.057-2.562ZM174.914 183.502h-40.107a1.5 1.5 0 0 0-1.057 2.562c.28.281.661.439 1.057.439h40.107a1.493 1.493 0 0 0 1.495-1.5c0-.398-.158-.78-.438-1.061a1.49 1.49 0 0 0-1.057-.44Z"/><path fill="#ED1C24" d="M240.494 118.605a20.019 20.019 0 0 0-8.819-10.154 19.91 19.91 0 0 0-13.232-2.26 19.954 19.954 0 0 0-11.67 6.655 20.082 20.082 0 0 0-4.837 12.565 21.52 21.52 0 0 0 1.656 7.931 65.324 65.324 0 0 1 3.184 30.774 65.252 65.252 0 0 1-11.329 28.774 64.962 64.962 0 0 1-23.286 20.278 64.703 64.703 0 0 1-29.984 7.204 66.165 66.165 0 0 1-17.143-2.09 80.938 80.938 0 0 0 47.652 9.817 81.023 81.023 0 0 0 44.689-19.285 81.495 81.495 0 0 0 25.677-41.461 81.728 81.728 0 0 0-2.558-48.748Z"/></g><defs><clipPath id="a"><path fill="#fff" d="M0 0h250v250H0z"/></clipPath></defs></svg>