<svg xmlns="http://www.w3.org/2000/svg" width="250" height="250" fill="none"><path fill="#FFCD00" d="M125.131 135.395a43.194 43.194 0 0 0 39.911-26.672 43.199 43.199 0 0 0-31.496-58.895 43.198 43.198 0 0 0-51.612 42.39 43.18 43.18 0 0 0 43.197 43.177Z"/><path fill="#00ECBB" d="M125.399 156.983h-.144a64.828 64.828 0 0 1-62.803-48.817c-2.169-8.635-9.193-15.948-18.097-15.948H17.293A107.963 107.963 0 0 0 125.255 200.18h.144v-43.197Z"/><path fill="#AF64FF" d="M125.131 156.983h.124a64.807 64.807 0 0 0 62.802-48.817c2.19-8.635 9.214-15.948 18.118-15.948h27.062A107.98 107.98 0 0 1 125.255 200.18h-.124v-43.197Z"/><path fill="#7131FF" d="M201.608 168.552a107.956 107.956 0 0 1-76.344 31.624 107.949 107.949 0 0 1-76.344-31.624l30.534-30.534a64.805 64.805 0 0 0 91.621 0l30.533 30.534Z"/></svg>