<svg xmlns="http://www.w3.org/2000/svg" xmlns:xlink="http://www.w3.org/1999/xlink" viewBox="0 0 250 250"><defs><style>.cls-1{fill:none;}.cls-2{clip-path:url(#clip-path);}.cls-3{fill:#7856ff;}</style><clipPath id="clip-path"><rect class="cls-1" width="250" height="250"/></clipPath></defs><g id="Layer_2" data-name="Layer 2"><g id="Layer_1-2" data-name="Layer 1"><g class="cls-2"><path class="cls-3" d="M76.91,105.86h29.17c-7.28-4.56-10-11-13.67-22.79L81.47,42.51c-5-18.23-9.12-26.89-29.17-26.89H10.39V26.56h5.94c12.28,0,13.67,4.56,17.33,18.23l9.56,35.56C48.22,97.68,56,105.86,77,105.86Z"/><path class="cls-3" d="M144.37,105.86h29.17c21,0,28.23-8.22,33.28-25.51l9.56-35.56c3.66-13.67,5.45-18.23,17.33-18.23h5.94V15.62H198.19c-20.51,0-24.62,8.21-29.18,26.89L158.07,83.07c-3.66,12.29-6.42,18.23-13.7,22.79"/><rect class="cls-3" x="106.08" y="105.86" width="38.28" height="38.28"/><path class="cls-3" d="M10.39,234.38H52.3c20,0,24.16-8.66,29.17-26.89l10.94-40.56c3.66-11.85,6.39-18.23,13.67-22.79H76.91c-20.95,0-28.72,8.22-33.73,25.51l-9.56,35.56c-3.66,13.67-5,18.23-17.33,18.23H10.35v10.94Z"/><path class="cls-3" d="M198.12,234.38h41.46V223.44h-5.94c-11.84,0-13.67-4.56-17.33-18.23l-9.56-35.56c-5-17.33-12.29-25.51-33.28-25.51h-29.1c7.28,4.56,9.94,10.5,13.6,22.79l10.94,40.56c4.56,18.68,8.67,26.89,29.17,26.89Z"/></g></g></g></svg>