<svg xmlns="http://www.w3.org/2000/svg" width="250" height="250" fill="none"><g clip-path="url(#a)"><path fill="#1999E3" d="M245.9 148.4c0 14.7-6.1 28.8-17 38.8-.7.7-1.8.7-2.5 0-4-3.8-8.7-6.8-13.8-8.9-3.1-1.2-8.1-1.9-8.1-6.3 0-.9.3-1.8.7-2.6.1-.1.1-.2.2-.3 4.1-6.1 6.8-13 7.9-20.3v-.1c.3-1.9.5-3.8.5-5.8v.1c-.4-10.9-9.6-19.4-20.5-19-10.3.4-18.6 8.7-19 19 .1 1.9.2 3.8.5 5.8v.1c1.1 7.3 3.8 14.2 7.9 20.3.1.1.1.2.2.3.5.8.7 1.6.7 2.6 0 4.2-4.6 4.8-7.6 6-.9.4-1.4 1.5-1 2.4.1.2.2.4.3.5 1.2 1.4 2.4 2.9 3.6 4.4 3.4 4.5 6.4 9.4 8.8 14.6l.1.1c.1.1.1.2.1.3l.1.2v.4c0 .9-.6 1.6-1.4 1.8h-.4c-.5 0-.9-.2-1.2-.5-10.6-11.3-22.4-20.3-37.4-24.7-.3-.1-.7-.3-1-.5-.2-.1-.4-.2-.6-.4-3.5-2.4-4.1-6.8-2.2-10.4 2.7-5.2 6-9.9 8.2-15.4 5.7-14.1 9.2-31.5-.3-44.8-10.1-14.3-29.8-17.7-44.1-7.6-.2.1-.3.2-.5.4-2.7 2-5.1 4.5-7.1 7.2-9.5 13.3-6 30.7-.3 44.8 2.2 5.5 5.5 10.2 8.2 15.4 1.9 3.6 1.3 8-2.2 10.4l-.6.4c-.3.2-.7.3-1 .5-15 4.4-26.8 13.4-37.4 24.7-.3.3-.8.5-1.3.5H65c-.8-.2-1.4-.9-1.4-1.8v-.4c0-.1 0-.1.1-.2 0-.1.1-.2.1-.3l.1-.1c2.4-5.2 5.3-10.1 8.8-14.6 1.1-1.5 2.3-3 3.6-4.4.7-.7.6-1.9-.1-2.5-.2-.1-.3-.3-.5-.3-3-1.2-7.6-1.8-7.6-6 0-.9.3-1.8.7-2.6.1-.1.1-.2.2-.3 4.1-6.1 6.8-13 7.9-20.3v-.1c.3-1.9.5-3.8.5-5.8v-.1c-.4-10.9-9.5-19.4-20.4-19-10.3.4-18.6 8.7-19 19 .1 1.9.2 3.8.5 5.8v.1c1.1 7.3 3.8 14.2 7.9 20.3.1.1.1.2.2.3.5.8.7 1.6.7 2.6 0 4.4-5.1 5.1-8.1 6.3-5.1 2.1-9.8 5.1-13.8 8.9-.7.7-1.8.7-2.5 0-21.2-19.6-22.7-52.6-3.5-74.1 8.5-9.5 20.2-15.5 32.9-16.9.7-.1 1.2-.5 1.5-1.1C71 54.8 117.2 36.2 157 53.6c18.4 8.1 33.1 23 40.9 41.6.3.6.8 1 1.5 1.1 26.5 2.7 46.5 25.2 46.5 52.1Z"/></g><defs><clipPath id="a"><path fill="#fff" d="M5 47h241v156H5z"/></clipPath></defs></svg>