<svg width="32" height="32" viewBox="0 0 32 32" fill="none" xmlns="http://www.w3.org/2000/svg">
<path d="M13.8819 8.18886C15.794 6.18744 18.9664 6.11477 20.9679 8.02679C21.3419 8.38405 21.6582 8.79713 21.906 9.2512C22.689 8.90109 23.5378 8.72179 24.3956 8.72519C27.8269 8.72519 30.6085 11.5068 30.6085 14.9381C30.6085 18.3693 27.8269 21.1511 24.3956 21.1511C23.9886 21.1502 23.5826 21.1082 23.1842 21.026C22.3869 22.4475 20.8852 23.3291 19.2553 23.3323C18.574 23.3352 17.9015 23.1787 17.2917 22.8748C16.1779 25.4862 13.1582 26.7002 10.5468 25.5865C9.24876 25.0327 8.23543 23.9699 7.74447 22.6471C7.42178 22.7161 7.09266 22.7507 6.76268 22.7498C4.09816 22.7154 1.96596 20.5276 2.00041 17.863C2.02213 16.1731 2.92652 14.6176 4.38446 13.7628C4.07936 13.0655 3.92408 12.3119 3.92869 11.5508C3.92347 8.49032 6.4002 6.00522 9.46045 6.00001C11.1928 5.9971 12.8266 6.80444 13.8769 8.18207" fill="#139CD8"/>
</svg>
