<svg width="26" height="26" viewBox="0 0 26 26" fill="none" xmlns="http://www.w3.org/2000/svg">
<g id="slack">
<path id="vector" d="M23.5002 11.9998C24.8808 11.9998 26 10.8806 26 9.49997C26 8.11938 24.8807 7.00019 23.5001 7.00019C22.1194 7.00019 21 8.11947 21 9.50018V11.9998H23.5002ZM16.5 11.9998C17.8807 11.9998 19 10.8805 19 9.49975V2.50018C19 1.11947 17.8807 0.000183105 16.5 0.000183105C15.1193 0.000183105 14 1.11947 14 2.50018V9.49975C14 10.8805 15.1193 11.9998 16.5 11.9998Z" fill="#2EB67D"/>
<path id="vector_2" d="M2.49979 14.0002C1.11919 14.0002 9.53674e-07 15.1194 9.53674e-07 16.5C9.53674e-07 17.8806 1.1193 18.9998 2.49989 18.9998C3.8806 18.9998 5 17.8805 5 16.4998V14.0002H2.49979ZM9.5 14.0002C8.11929 14.0002 7 15.1195 7 16.5002V23.4998C7 24.8805 8.11929 25.9998 9.5 25.9998C10.8807 25.9998 12 24.8805 12 23.4998V16.5002C12 15.1195 10.8807 14.0002 9.5 14.0002Z" fill="#E01E5A"/>
<path id="vector_3" d="M14.0004 23.5002C14.0004 24.8808 15.1196 26 16.5002 26C17.8808 26 19 24.8807 19 23.5001C19 22.1194 17.8807 21 16.5 21L14.0004 21L14.0004 23.5002ZM14.0004 16.5C14.0004 17.8807 15.1197 19 16.5004 19L23.5 19C24.8807 19 26 17.8807 26 16.5C26 15.1193 24.8807 14 23.5 14L16.5004 14C15.1197 14 14.0004 15.1193 14.0004 16.5Z" fill="#ECB22E"/>
<path id="vector_4" d="M11.9996 2.49979C11.9996 1.11919 10.8804 1.42927e-06 9.49979 1.36892e-06C8.11919 1.30858e-06 7 1.1193 7 2.49989C7 3.88061 8.11929 5 9.5 5L11.9996 5L11.9996 2.49979ZM11.9996 9.5C11.9996 8.11929 10.8803 7 9.49957 7L2.5 7C1.11929 7 1.69631e-07 8.11929 1.09278e-07 9.5C4.89256e-08 10.8807 1.11929 12 2.5 12L9.49957 12C10.8803 12 11.9996 10.8807 11.9996 9.5Z" fill="#36C5F0"/>
</g>
</svg>
