<svg width="718" height="289" viewBox="0 0 718 289" fill="none" xmlns="http://www.w3.org/2000/svg">
<path fill-rule="evenodd" clip-rule="evenodd" d="M717.933 144.172C717.933 223.397 653.955 287.679 574.846 288.172V208.27C591.516 208.032 607.453 201.307 619.258 189.501C631.28 177.479 638.034 161.174 638.034 144.172C638.034 127.171 631.28 110.865 619.258 98.8435C607.453 87.0379 591.516 80.3125 574.846 80.0743V0.171725C653.955 0.66486 717.933 64.9469 717.933 144.172Z" fill="#C7B8FA"/>
<path fill-rule="evenodd" clip-rule="evenodd" d="M574.24 144.172C574.24 223.397 510.263 287.679 431.154 288.172V208.27C447.824 208.032 463.76 201.307 475.566 189.501C487.588 177.479 494.342 161.174 494.342 144.172C494.342 127.171 487.588 110.865 475.566 98.8435C463.76 87.0379 447.824 80.3125 431.154 80.0743V0.171725C510.263 0.664843 574.24 64.9469 574.24 144.172Z" fill="#C7B8FA"/>
<path fill-rule="evenodd" clip-rule="evenodd" d="M431.163 144.172C431.163 223.397 367.186 287.679 288.077 288.172V208.27C304.747 208.032 320.683 201.307 332.489 189.501C344.511 177.479 351.265 161.174 351.265 144.172C351.265 127.171 344.511 110.865 332.489 98.8435C320.683 87.0379 304.747 80.3125 288.077 80.0743V0.171725C367.186 0.66486 431.163 64.9469 431.163 144.172Z" fill="#C7B8FA"/>
<path fill-rule="evenodd" clip-rule="evenodd" d="M90.7683 10.1835C96.6393 7.84352 102.7 5.87851 108.922 4.31801V283.853C102.7 282.293 96.6393 280.328 90.7683 277.988V10.1835ZM288.18 144.086C288.18 223.285 224.283 287.56 145.228 288.171V208.22C161.829 207.926 177.688 201.204 189.449 189.442C201.478 177.413 208.236 161.098 208.236 144.086C208.236 127.074 201.478 110.759 189.449 98.7301C177.688 86.9687 161.829 80.2465 145.228 79.953V0C224.283 0.611458 288.18 64.8866 288.18 144.086ZM61.2695 26.1611C54.8059 30.709 48.733 35.7749 43.1113 41.2983V246.873C48.733 252.397 54.8059 257.462 61.2695 262.01V26.1611ZM0 144.086C0 117.035 7.45396 91.726 20.4199 70.0996V218.072C7.45396 196.445 0 171.136 0 144.086Z" fill="#100024"/>
</svg>
