<svg width="24" height="24" viewBox="0 0 24 24" fill="none" xmlns="http://www.w3.org/2000/svg">
<path d="M11.9998 5.34C13.0547 5.34 13.9098 4.48486 13.9098 3.43C13.9098 2.37513 13.0547 1.52 11.9998 1.52C10.945 1.52 10.0898 2.37513 10.0898 3.43C10.0898 4.48486 10.945 5.34 11.9998 5.34Z" stroke="black" stroke-miterlimit="10"/>
<path d="M9.14014 8.2C9.14014 7.44148 9.44146 6.71403 9.97781 6.17767C10.5142 5.64132 11.2416 5.34 12.0001 5.34C12.7587 5.34 13.4861 5.64132 14.0225 6.17767C14.5588 6.71403 14.8601 7.44148 14.8601 8.2" stroke="black" stroke-miterlimit="10"/>
<path d="M19.64 20.61C20.6948 20.61 21.55 19.7549 21.55 18.7C21.55 17.6451 20.6948 16.79 19.64 16.79C18.5851 16.79 17.73 17.6451 17.73 18.7C17.73 19.7549 18.5851 20.61 19.64 20.61Z" stroke="black" stroke-miterlimit="10"/>
<path d="M16.77 23.48C16.77 22.7188 17.0724 21.9888 17.6106 21.4506C18.1489 20.9124 18.8788 20.61 19.64 20.61C20.3995 20.6126 21.1269 20.9162 21.663 21.4541C22.199 21.9921 22.5 22.7206 22.5 23.48" stroke="black" stroke-miterlimit="10"/>
<path d="M4.3602 20.61C5.41506 20.61 6.2702 19.7549 6.2702 18.7C6.2702 17.6451 5.41506 16.79 4.3602 16.79C3.30533 16.79 2.4502 17.6451 2.4502 18.7C2.4502 19.7549 3.30533 20.61 4.3602 20.61Z" stroke="black" stroke-miterlimit="10"/>
<path d="M1.5 23.48C1.5 22.7206 1.801 21.9921 2.33706 21.4541C2.87313 20.9162 3.60056 20.6126 4.36 20.61C5.12117 20.61 5.85117 20.9124 6.3894 21.4506C6.92763 21.9888 7.23 22.7188 7.23 23.48" stroke="black" stroke-miterlimit="10"/>
<path d="M12 9.16V13.93" stroke="black" stroke-miterlimit="10"/>
<path d="M8.18018 16.8L12.0002 13.93L15.8202 16.8" stroke="black" stroke-miterlimit="10"/>
</svg>
