<svg width="24" height="24" viewBox="0 0 24 24" fill="none" xmlns="http://www.w3.org/2000/svg">
<g >
<g id="align-left">
<path  d="M13.93 11H3.92999C3.73108 11 3.54031 10.921 3.39966 10.7803C3.25901 10.6397 3.17999 10.4489 3.17999 10.25C3.17999 10.0511 3.25901 9.86032 3.39966 9.71967C3.54031 9.57902 3.73108 9.5 3.92999 9.5H13.93C14.1289 9.5 14.3197 9.57902 14.4603 9.71967C14.601 9.86032 14.68 10.0511 14.68 10.25C14.68 10.4489 14.601 10.6397 14.4603 10.7803C14.3197 10.921 14.1289 11 13.93 11V11Z" fill="currentColor"/>
<path  d="M20.07 7H4.06999C3.87108 7 3.68031 6.92098 3.53966 6.78033C3.39901 6.63968 3.31999 6.44891 3.31999 6.25C3.31999 6.05109 3.39901 5.86032 3.53966 5.71967C3.68031 5.57902 3.87108 5.5 4.06999 5.5H20.07C20.2689 5.5 20.4597 5.57902 20.6003 5.71967C20.741 5.86032 20.82 6.05109 20.82 6.25C20.82 6.44891 20.741 6.63968 20.6003 6.78033C20.4597 6.92098 20.2689 7 20.07 7V7Z" fill="currentColor"/>
<path   d="M20.07 15H4.06999C3.87108 15 3.68031 14.921 3.53966 14.7803C3.39901 14.6397 3.31999 14.4489 3.31999 14.25C3.31999 14.0511 3.39901 13.8603 3.53966 13.7197C3.68031 13.579 3.87108 13.5 4.06999 13.5H20.07C20.2689 13.5 20.4597 13.579 20.6003 13.7197C20.741 13.8603 20.82 14.0511 20.82 14.25C20.82 14.4489 20.741 14.6397 20.6003 14.7803C20.4597 14.921 20.2689 15 20.07 15Z" fill="currentColor"/>
<path   d="M13.93 19H3.92999C3.73108 19 3.54031 18.921 3.39966 18.7803C3.25901 18.6397 3.17999 18.4489 3.17999 18.25C3.17999 18.0511 3.25901 17.8603 3.39966 17.7197C3.54031 17.579 3.73108 17.5 3.92999 17.5H13.93C14.1289 17.5 14.3197 17.579 14.4603 17.7197C14.601 17.8603 14.68 18.0511 14.68 18.25C14.68 18.4489 14.601 18.6397 14.4603 18.7803C14.3197 18.921 14.1289 19 13.93 19V19Z" fill="currentColor"/>
</g>
</g>
</svg>
