<svg width="24" height="24" viewBox="0 0 24 24" fill="none" xmlns="http://www.w3.org/2000/svg">
<g >
<g id="align-justify">
<path  d="M20 10.75H4C3.80109 10.75 3.61032 10.671 3.46967 10.5303C3.32902 10.3897 3.25 10.1989 3.25 10C3.25 9.80109 3.32902 9.61032 3.46967 9.46967C3.61032 9.32902 3.80109 9.25 4 9.25H20C20.1989 9.25 20.3897 9.32902 20.5303 9.46967C20.671 9.61032 20.75 9.80109 20.75 10C20.75 10.1989 20.671 10.3897 20.5303 10.5303C20.3897 10.671 20.1989 10.75 20 10.75Z" fill="currentColor"/>
<path  d="M20 6.75H4C3.80109 6.75 3.61032 6.67098 3.46967 6.53033C3.32902 6.38968 3.25 6.19891 3.25 6C3.25 5.80109 3.32902 5.61032 3.46967 5.46967C3.61032 5.32902 3.80109 5.25 4 5.25H20C20.1989 5.25 20.3897 5.32902 20.5303 5.46967C20.671 5.61032 20.75 5.80109 20.75 6C20.75 6.19891 20.671 6.38968 20.5303 6.53033C20.3897 6.67098 20.1989 6.75 20 6.75Z" fill="currentColor"/>
<path   d="M20 14.75H4C3.80109 14.75 3.61032 14.671 3.46967 14.5303C3.32902 14.3897 3.25 14.1989 3.25 14C3.25 13.8011 3.32902 13.6103 3.46967 13.4697C3.61032 13.329 3.80109 13.25 4 13.25H20C20.1989 13.25 20.3897 13.329 20.5303 13.4697C20.671 13.6103 20.75 13.8011 20.75 14C20.75 14.1989 20.671 14.3897 20.5303 14.5303C20.3897 14.671 20.1989 14.75 20 14.75V14.75Z" fill="currentColor"/>
<path   d="M20 18.75H4C3.80109 18.75 3.61032 18.671 3.46967 18.5303C3.32902 18.3897 3.25 18.1989 3.25 18C3.25 17.8011 3.32902 17.6103 3.46967 17.4697C3.61032 17.329 3.80109 17.25 4 17.25H20C20.1989 17.25 20.3897 17.329 20.5303 17.4697C20.671 17.6103 20.75 17.8011 20.75 18C20.75 18.1989 20.671 18.3897 20.5303 18.5303C20.3897 18.671 20.1989 18.75 20 18.75Z" fill="currentColor"/>
</g>
</g>
</svg>
