<svg width="24" height="24" viewBox="0 0 24 24" fill="none" xmlns="http://www.w3.org/2000/svg">
<g >
<g id="align-right">
<path  d="M20 10.75H10C9.80109 10.75 9.61032 10.671 9.46967 10.5303C9.32902 10.3897 9.25 10.1989 9.25 10C9.25 9.80109 9.32902 9.61032 9.46967 9.46967C9.61032 9.32902 9.80109 9.25 10 9.25H20C20.1989 9.25 20.3897 9.32902 20.5303 9.46967C20.671 9.61032 20.75 9.80109 20.75 10C20.75 10.1989 20.671 10.3897 20.5303 10.5303C20.3897 10.671 20.1989 10.75 20 10.75Z" fill="currentColor"/>
<path  d="M20.07 6.75H4.07001C3.8711 6.75 3.68033 6.67098 3.53968 6.53033C3.39903 6.38968 3.32001 6.19891 3.32001 6C3.32001 5.80109 3.39903 5.61032 3.53968 5.46967C3.68033 5.32902 3.8711 5.25 4.07001 5.25H20.07C20.2689 5.25 20.4597 5.32902 20.6003 5.46967C20.741 5.61032 20.82 5.80109 20.82 6C20.82 6.19891 20.741 6.38968 20.6003 6.53033C20.4597 6.67098 20.2689 6.75 20.07 6.75Z" fill="currentColor"/>
<path   d="M20.07 14.75H4.07001C3.8711 14.75 3.68033 14.671 3.53968 14.5303C3.39903 14.3897 3.32001 14.1989 3.32001 14C3.32001 13.8011 3.39903 13.6103 3.53968 13.4697C3.68033 13.329 3.8711 13.25 4.07001 13.25H20.07C20.2689 13.25 20.4597 13.329 20.6003 13.4697C20.741 13.6103 20.82 13.8011 20.82 14C20.82 14.1989 20.741 14.3897 20.6003 14.5303C20.4597 14.671 20.2689 14.75 20.07 14.75V14.75Z" fill="currentColor"/>
<path   d="M20 18.75H10C9.80109 18.75 9.61032 18.671 9.46967 18.5303C9.32902 18.3897 9.25 18.1989 9.25 18C9.25 17.8011 9.32902 17.6103 9.46967 17.4697C9.61032 17.329 9.80109 17.25 10 17.25H20C20.1989 17.25 20.3897 17.329 20.5303 17.4697C20.671 17.6103 20.75 17.8011 20.75 18C20.75 18.1989 20.671 18.3897 20.5303 18.5303C20.3897 18.671 20.1989 18.75 20 18.75Z" fill="currentColor"/>
</g>
</g>
</svg>
