<svg width="24" height="24" viewBox="0 0 24 24" fill="none" xmlns="http://www.w3.org/2000/svg">
<g >
<g id="angle-double-right">
<path  d="M13 16.25C12.9015 16.2505 12.8038 16.2312 12.7128 16.1935C12.6218 16.1557 12.5393 16.1001 12.47 16.03C12.3296 15.8894 12.2507 15.6988 12.2507 15.5C12.2507 15.3012 12.3296 15.1106 12.47 14.97L15.47 11.97L12.47 8.97C12.3999 8.82473 12.3784 8.66071 12.4089 8.50228C12.4393 8.34386 12.5201 8.19948 12.6391 8.09057C12.7581 7.98166 12.909 7.91403 13.0695 7.89772C13.23 7.8814 13.3915 7.91727 13.53 8L17.03 11.5C17.1705 11.6406 17.2494 11.8312 17.2494 12.03C17.2494 12.2288 17.1705 12.4194 17.03 12.56L13.53 16C13.4633 16.0756 13.3819 16.1367 13.2908 16.1797C13.1997 16.2227 13.1007 16.2466 13 16.25V16.25Z" fill="currentColor"/>
<path  d="M7.5 16.25C7.30706 16.2352 7.12757 16.1455 7 16C6.87702 15.8625 6.80902 15.6845 6.80902 15.5C6.80902 15.3155 6.87702 15.1375 7 15L10 12L7 9C6.93316 8.86005 6.91135 8.70281 6.93758 8.54995C6.96381 8.39709 7.03678 8.25612 7.14645 8.14645C7.25612 8.03678 7.39709 7.9638 7.54995 7.93758C7.70282 7.91135 7.86005 7.93316 8 8L11.5 11.5C11.6405 11.6406 11.7193 11.8312 11.7193 12.03C11.7193 12.2288 11.6405 12.4194 11.5 12.56L8 16C7.87243 16.1455 7.69295 16.2352 7.5 16.25V16.25Z" fill="currentColor"/>
</g>
</g>
</svg>
