<svg width="24" height="24" viewBox="0 0 24 24" fill="none" xmlns="http://www.w3.org/2000/svg">
<g >
<g id="angle-double-down">
<path  d="M12 17.25C11.9015 17.2505 11.8038 17.2312 11.7128 17.1935C11.6218 17.1557 11.5393 17.1001 11.47 17.03L8.00003 13.53C7.90864 13.389 7.86722 13.2215 7.88241 13.0542C7.89759 12.8869 7.96851 12.7295 8.08379 12.6073C8.19907 12.4851 8.35203 12.4052 8.51817 12.3803C8.68431 12.3554 8.85399 12.387 9.00003 12.47L12 15.47L15 12.47C15.1461 12.387 15.3158 12.3554 15.4819 12.3803C15.648 12.4052 15.801 12.4851 15.9163 12.6073C16.0315 12.7295 16.1025 12.8869 16.1177 13.0542C16.1328 13.2215 16.0914 13.389 16 13.53L12.53 17C12.4634 17.0756 12.382 17.1367 12.2908 17.1797C12.1997 17.2227 12.1007 17.2466 12 17.25V17.25Z" fill="currentColor"/>
<path  d="M12 11.75C11.9015 11.7505 11.8039 11.7312 11.7128 11.6935C11.6218 11.6557 11.5393 11.6001 11.47 11.53L8.00004 8C7.9332 7.86005 7.91139 7.70281 7.93762 7.54995C7.96385 7.39709 8.03682 7.25612 8.14649 7.14645C8.25616 7.03678 8.39713 6.9638 8.54999 6.93758C8.70286 6.91135 8.86009 6.93316 9.00004 7L12 10L15 7C15.14 6.93316 15.2972 6.91135 15.4501 6.93758C15.603 6.9638 15.7439 7.03678 15.8536 7.14645C15.9633 7.25612 16.0362 7.39709 16.0625 7.54995C16.0887 7.70281 16.0669 7.86005 16 8L12.5 11.5C12.3725 11.6455 12.193 11.7352 12 11.75V11.75Z" fill="currentColor"/>
</g>
</g>
</svg>
