<svg width="24" height="24" viewBox="0 0 24 24" fill="none" xmlns="http://www.w3.org/2000/svg">
<g >
<g id="angle-down">
<path  d="M12 14.5C11.9014 14.5005 11.8038 14.4812 11.7128 14.4435C11.6218 14.4057 11.5392 14.3501 11.47 14.28L7.99997 10.78C7.90858 10.639 7.86716 10.4715 7.88234 10.3042C7.89753 10.1369 7.96845 9.97952 8.08373 9.85732C8.19901 9.73512 8.35197 9.65517 8.51811 9.63027C8.68425 9.60537 8.85393 9.63697 8.99997 9.72L12 12.72L15 9.72C15.146 9.63697 15.3157 9.60537 15.4818 9.63027C15.648 9.65517 15.8009 9.73512 15.9162 9.85732C16.0315 9.97952 16.1024 10.1369 16.1176 10.3042C16.1328 10.4715 16.0914 10.639 16 10.78L12.5 14.28C12.3675 14.4144 12.1886 14.4931 12 14.5V14.5Z" fill="currentColor"/>
</g>
</g>
</svg>
