<svg width="24" height="24" viewBox="0 0 24 24" fill="none" xmlns="http://www.w3.org/2000/svg">
<g >
<g id="angle-left">
<path  d="M13.75 16.25C13.6515 16.2505 13.5538 16.2312 13.4628 16.1935C13.3718 16.1557 13.2892 16.1001 13.22 16.03L9.72 12.53C9.57955 12.3894 9.50066 12.1988 9.50066 12C9.50066 11.8012 9.57955 11.6106 9.72 11.47L13.22 8C13.361 7.90861 13.5285 7.86719 13.6958 7.88238C13.8631 7.89756 14.0205 7.96848 14.1427 8.08376C14.2649 8.19904 14.3448 8.352 14.3697 8.51814C14.3946 8.68428 14.363 8.85396 14.28 9L11.28 12L14.28 15C14.4205 15.1406 14.4993 15.3312 14.4993 15.53C14.4993 15.7287 14.4205 15.9194 14.28 16.06C14.1353 16.1907 13.9448 16.259 13.75 16.25V16.25Z" fill="currentColor"/>
</g>
</g>
</svg>
