<svg width="24" height="24" viewBox="0 0 24 24" fill="none" xmlns="http://www.w3.org/2000/svg">
<g >
<g id="angle-double-left">
<path  d="M11 16.25C10.9014 16.2505 10.8038 16.2312 10.7128 16.1935C10.6218 16.1557 10.5392 16.1001 10.47 16.03L6.99998 12.53C6.85953 12.3894 6.78064 12.1988 6.78064 12C6.78064 11.8012 6.85953 11.6106 6.99998 11.47L10.47 8C10.6109 7.90861 10.7785 7.86719 10.9458 7.88238C11.1131 7.89756 11.2705 7.96848 11.3927 8.08376C11.5149 8.19904 11.5948 8.352 11.6197 8.51814C11.6446 8.68428 11.613 8.85396 11.53 9L8.52998 12L11.53 15C11.6704 15.1406 11.7493 15.3312 11.7493 15.53C11.7493 15.7288 11.6704 15.9194 11.53 16.06C11.3852 16.1907 11.1948 16.259 11 16.25V16.25Z" fill="currentColor"/>
<path  d="M16.5 16.25C16.307 16.2352 16.1275 16.1455 16 16L12.5 12.5C12.3595 12.3594 12.2806 12.1688 12.2806 11.97C12.2806 11.7712 12.3595 11.5806 12.5 11.44L16 8C16.1399 7.93316 16.2972 7.91135 16.45 7.93758C16.6029 7.9638 16.7439 8.03678 16.8535 8.14645C16.9632 8.25612 17.0362 8.39709 17.0624 8.54995C17.0886 8.70281 17.0668 8.86005 17 9L14 12L17 15C17.123 15.1375 17.191 15.3155 17.191 15.5C17.191 15.6845 17.123 15.8625 17 16C16.8724 16.1455 16.6929 16.2352 16.5 16.25Z" fill="currentColor"/>
</g>
</g>
</svg>
