<svg width="24" height="24" viewBox="0 0 24 24" fill="none" xmlns="http://www.w3.org/2000/svg">
<g >
<g id="angle-double-up">
<path  d="M15.5 11.75C15.4015 11.7505 15.3038 11.7312 15.2128 11.6935C15.1218 11.6557 15.0392 11.6001 14.97 11.53L11.97 8.53L8.96999 11.53C8.82472 11.6001 8.6607 11.6216 8.50227 11.5911C8.34385 11.5607 8.19947 11.48 8.09056 11.3609C7.98165 11.2419 7.91402 11.091 7.89771 10.9305C7.88139 10.77 7.91726 10.6085 7.99999 10.47L11.47 7C11.6106 6.85955 11.8012 6.78066 12 6.78066C12.1987 6.78066 12.3894 6.85955 12.53 7L16.03 10.5C16.1704 10.6406 16.2493 10.8312 16.2493 11.03C16.2493 11.2288 16.1704 11.4194 16.03 11.56C15.8853 11.6907 15.6948 11.759 15.5 11.75V11.75Z" fill="currentColor"/>
<path  d="M15.5 17.25C15.307 17.2352 15.1276 17.1455 15 17L12 14L8.99998 17C8.86003 17.0668 8.70279 17.0886 8.54993 17.0624C8.39707 17.0362 8.2561 16.9632 8.14643 16.8536C8.03676 16.7439 7.96379 16.6029 7.93756 16.4501C7.91133 16.2972 7.93314 16.14 7.99998 16L11.5 12.5C11.6406 12.3595 11.8312 12.2807 12.03 12.2807C12.2287 12.2807 12.4194 12.3595 12.56 12.5L16 16C16.123 16.1375 16.191 16.3155 16.191 16.5C16.191 16.6845 16.123 16.8625 16 17C15.8724 17.1455 15.6929 17.2352 15.5 17.25V17.25Z" fill="currentColor"/>
</g>
</g>
</svg>
