<svg width="24" height="24" viewBox="0 0 24 24" fill="none" xmlns="http://www.w3.org/2000/svg">
<g >
<g id="angle-up">
<path  d="M15.5 14.5C15.4015 14.5005 15.3038 14.4812 15.2128 14.4435C15.1218 14.4057 15.0393 14.3501 14.97 14.28L11.97 11.28L8.97001 14.28C8.82473 14.3501 8.66071 14.3716 8.50229 14.3411C8.34387 14.3107 8.19949 14.23 8.09058 14.1109C7.98167 13.9919 7.91404 13.841 7.89772 13.6805C7.88141 13.52 7.91728 13.3585 8.00001 13.22L11.5 9.72C11.6406 9.57955 11.8313 9.50066 12.03 9.50066C12.2288 9.50066 12.4194 9.57955 12.56 9.72L16.06 13.22C16.2005 13.3606 16.2793 13.5512 16.2793 13.75C16.2793 13.9488 16.2005 14.1394 16.06 14.28C15.9873 14.3538 15.8998 14.4116 15.8034 14.4495C15.7069 14.4874 15.6036 14.5046 15.5 14.5Z" fill="currentColor"/>
</g>
</g>
</svg>
