<svg width="24" height="24" viewBox="0 0 24 24" fill="none" xmlns="http://www.w3.org/2000/svg">
<g >
<g id="angle-right">
<path  d="M10.25 16.25C10.1493 16.2466 10.0503 16.2227 9.9592 16.1797C9.86806 16.1367 9.78666 16.0756 9.72 16C9.57955 15.8594 9.50066 15.6688 9.50066 15.47C9.50066 15.2713 9.57955 15.0806 9.72 14.94L12.72 11.94L9.72 8.94C9.66067 8.79599 9.64765 8.63708 9.68275 8.48534C9.71785 8.33359 9.79932 8.19653 9.91585 8.09319C10.0324 7.98986 10.1782 7.92536 10.333 7.90866C10.4879 7.89196 10.6441 7.92388 10.78 8L14.28 11.5C14.4204 11.6406 14.4993 11.8313 14.4993 12.03C14.4993 12.2288 14.4204 12.4194 14.28 12.56L10.78 16C10.7133 16.0756 10.6319 16.1367 10.5408 16.1797C10.4497 16.2227 10.3507 16.2466 10.25 16.25V16.25Z" fill="currentColor"/>
</g>
</g>
</svg>
