<svg width="800" height="600" xmlns="http://www.w3.org/2000/svg">

 <g>
  <title>Layer 1</title>
  <g stroke="null">
   <g stroke="null">
    <path stroke="#000000" d="m339.00171,244.92989c-0.1198,0 -0.22425,0.03941 -0.30679,0.13315c-0.08985,0.09412 -0.1344,0.20355 -0.1344,0.32139l0,10.88371c0,0.11784 0.04456,0.21924 0.1344,0.29767c0.08254,0.07843 0.187,0.11784 0.30679,0.11784l43.99661,0c0.1198,0 0.22425,-0.03941 0.30679,-0.11784c0.08985,-0.07843 0.1344,-0.18021 0.1344,-0.29767l0,-10.88409c0,-0.11784 -0.04456,-0.22727 -0.1344,-0.32139c-0.08254,-0.09374 -0.187,-0.13315 -0.30679,-0.13315l-43.99661,0l0,0.00038zm2.19138,11.7817c-0.08583,0 -0.17202,0.03941 -0.24653,0.11746c-0.06757,0.07843 -0.10482,0.16835 -0.10482,0.25099l0,29.63005c0,0.08264 0.03762,0.17256 0.10482,0.25061c0.07451,0.07882 0.15705,0.10981 0.24653,0.10981l39.61349,0c0.08985,0 0.17239,-0.03099 0.24689,-0.10981c0.06757,-0.07805 0.10482,-0.16452 0.10482,-0.25061l0,-29.63005c0,-0.08647 -0.03762,-0.17256 -0.10482,-0.25099c-0.07451,-0.07805 -0.16034,-0.11746 -0.24689,-0.11746l-39.61349,0l0,0zm13.80055,7.05149l12.01275,0c0.64353,0 1.18955,0.23492 1.63805,0.70553c0.45617,0.47788 0.68042,1.04988 0.68042,1.72366l0,0c0,0.67378 -0.22425,1.25381 -0.68042,1.74738c-0.44887,0.48591 -0.99525,0.73652 -1.63805,0.73652l-12.01275,0c-0.64317,0 -1.18955,-0.25061 -1.63805,-0.73652c-0.45617,-0.49357 -0.68042,-1.07398 -0.68042,-1.74738l0,0c0,-0.67378 0.22425,-1.24578 0.68042,-1.72366c0.4485,-0.47061 0.99452,-0.70553 1.63805,-0.70553l0,0z" stroke-miterlimit="2.6131" stroke-linejoin="round" stroke-linecap="round" stroke-width="6.0092" fill="none"/>
   </g>
  </g>
 </g>
</svg>