<svg width="24" height="24" viewBox="0 0 24 24" fill="none" xmlns="http://www.w3.org/2000/svg">
<g >
<g id="arrow-down-right">
<path  d="M17.7 8.46C17.7 8.26109 17.621 8.07032 17.4803 7.92967C17.3397 7.78902 17.1489 7.71 16.95 7.71C16.7511 7.71 16.5603 7.78902 16.4197 7.92967C16.279 8.07032 16.2 8.26109 16.2 8.46V15.14L7.58002 6.52C7.43784 6.38752 7.2498 6.3154 7.0555 6.31882C6.86119 6.32225 6.67581 6.40096 6.5384 6.53838C6.40098 6.67579 6.32227 6.86118 6.31884 7.05548C6.31541 7.24978 6.38754 7.43782 6.52002 7.58L15.14 16.2H8.46002C8.26111 16.2 8.07034 16.279 7.92969 16.4197C7.78904 16.5603 7.71002 16.7511 7.71002 16.95C7.71002 17.1489 7.78904 17.3397 7.92969 17.4803C8.07034 17.621 8.26111 17.7 8.46002 17.7H17C17.0997 17.6995 17.1983 17.6791 17.29 17.64C17.4085 17.5787 17.5088 17.4873 17.5808 17.3749C17.6527 17.2626 17.6939 17.1333 17.7 17V8.46Z" fill="currentColor"/>
</g>
</g>
</svg>
