<svg width="24" height="24" viewBox="0 0 24 24" fill="none" xmlns="http://www.w3.org/2000/svg">
<g >
<g id="arrow-up-left">
<path  d="M6.29999 15.54C6.29999 15.7389 6.37901 15.9297 6.51966 16.0703C6.66031 16.211 6.85108 16.29 7.04999 16.29C7.2489 16.29 7.43967 16.211 7.58032 16.0703C7.72097 15.9297 7.79999 15.7389 7.79999 15.54V8.86L16.42 17.48C16.4886 17.5537 16.5714 17.6128 16.6634 17.6538C16.7554 17.6948 16.8548 17.7168 16.9555 17.7186C17.0562 17.7204 17.1562 17.7018 17.2496 17.6641C17.343 17.6264 17.4278 17.5703 17.499 17.499C17.5702 17.4278 17.6264 17.343 17.6641 17.2496C17.7018 17.1562 17.7204 17.0562 17.7186 16.9555C17.7168 16.8548 17.6948 16.7555 17.6538 16.6635C17.6128 16.5715 17.5537 16.4887 17.48 16.42L8.85999 7.8H15.54C15.7389 7.8 15.9297 7.72099 16.0703 7.58033C16.211 7.43968 16.29 7.24892 16.29 7.05C16.29 6.85109 16.211 6.66033 16.0703 6.51967C15.9297 6.37902 15.7389 6.3 15.54 6.3H7.04999C6.95029 6.30053 6.85171 6.32093 6.75999 6.36C6.62472 6.41811 6.50924 6.51424 6.42758 6.63673C6.34592 6.75922 6.3016 6.9028 6.29999 7.05V15.54Z" fill="currentColor"/>
</g>
</g>
</svg>
