<svg width="24" height="24" viewBox="0 0 24 24" fill="none" xmlns="http://www.w3.org/2000/svg">
<g >
<g id="arrows-v">
<path  d="M12.29 20.69C12.3793 20.652 12.4607 20.5978 12.53 20.53L16.53 16.53C16.6625 16.3878 16.7346 16.1998 16.7312 16.0055C16.7278 15.8112 16.649 15.6258 16.5116 15.4884C16.3742 15.351 16.1888 15.2723 15.9945 15.2688C15.8002 15.2654 15.6122 15.3375 15.47 15.47L12.75 18.19V5.81L15.47 8.53C15.6122 8.66248 15.8002 8.7346 15.9945 8.73117C16.1888 8.72775 16.3742 8.64903 16.5116 8.51162C16.649 8.37421 16.7278 8.18882 16.7312 7.99452C16.7346 7.80022 16.6625 7.61217 16.53 7.47L12.53 3.47C12.4607 3.40221 12.3793 3.34795 12.29 3.31C12.1985 3.27037 12.0998 3.24992 12 3.24992C11.9003 3.24992 11.8016 3.27037 11.71 3.31C11.6208 3.34795 11.5394 3.40221 11.47 3.47L7.47001 7.47C7.32956 7.61062 7.25067 7.80125 7.25067 8C7.25067 8.19875 7.32956 8.38937 7.47001 8.53C7.61064 8.67045 7.80126 8.74934 8.00001 8.74934C8.19876 8.74934 8.38939 8.67045 8.53001 8.53L11.25 5.81V18.19L8.53001 15.47C8.38939 15.3295 8.19876 15.2507 8.00001 15.2507C7.80126 15.2507 7.61064 15.3295 7.47001 15.47C7.32956 15.6106 7.25067 15.8012 7.25067 16C7.25067 16.1987 7.32956 16.3894 7.47001 16.53L11.47 20.53C11.5394 20.5978 11.6208 20.652 11.71 20.69C11.8016 20.7296 11.9003 20.7501 12 20.7501C12.0998 20.7501 12.1985 20.7296 12.29 20.69V20.69Z" fill="currentColor"/>
</g>
</g>
</svg>
