<svg width="24" height="24" viewBox="0 0 24 24" fill="none" xmlns="http://www.w3.org/2000/svg">
<g >
<g id="arrow-right">
<path  d="M13 18.75C12.9015 18.7505 12.8038 18.7312 12.7128 18.6935C12.6218 18.6557 12.5392 18.6001 12.47 18.53C12.3295 18.3894 12.2507 18.1987 12.2507 18C12.2507 17.8012 12.3295 17.6106 12.47 17.47L17.94 12L12.47 6.53C12.3375 6.38782 12.2654 6.19978 12.2688 6.00548C12.2722 5.81118 12.351 5.62579 12.4884 5.48838C12.6258 5.35096 12.8112 5.27225 13.0055 5.26882C13.1998 5.2654 13.3878 5.33752 13.53 5.47L19.53 11.47C19.6704 11.6106 19.7493 11.8012 19.7493 12C19.7493 12.1987 19.6704 12.3894 19.53 12.53L13.53 18.53C13.4608 18.6001 13.3782 18.6557 13.2872 18.6935C13.1962 18.7312 13.0985 18.7505 13 18.75V18.75Z" fill="currentColor"/>
<path  d="M19 12.75H5C4.80109 12.75 4.61032 12.671 4.46967 12.5303C4.32902 12.3897 4.25 12.1989 4.25 12C4.25 11.8011 4.32902 11.6103 4.46967 11.4697C4.61032 11.329 4.80109 11.25 5 11.25H19C19.1989 11.25 19.3897 11.329 19.5303 11.4697C19.671 11.6103 19.75 11.8011 19.75 12C19.75 12.1989 19.671 12.3897 19.5303 12.5303C19.3897 12.671 19.1989 12.75 19 12.75Z" fill="currentColor"/>
</g>
</g>
</svg>
