<svg width="24" height="24" viewBox="0 0 24 24" fill="none" xmlns="http://www.w3.org/2000/svg">
<g >
<g id="arrow-left">
<path  d="M11 18.75C10.9015 18.7505 10.8038 18.7312 10.7128 18.6935C10.6218 18.6557 10.5392 18.6001 10.47 18.53L4.47 12.53C4.32955 12.3894 4.25066 12.1987 4.25066 12C4.25066 11.8012 4.32955 11.6106 4.47 11.47L10.47 5.47C10.6122 5.33752 10.8002 5.2654 10.9945 5.26882C11.1888 5.27225 11.3742 5.35096 11.5116 5.48838C11.649 5.62579 11.7277 5.81118 11.7312 6.00548C11.7346 6.19978 11.6625 6.38782 11.53 6.53L6.06 12L11.53 17.47C11.6704 17.6106 11.7493 17.8012 11.7493 18C11.7493 18.1987 11.6704 18.3894 11.53 18.53C11.4608 18.6001 11.3782 18.6557 11.2872 18.6935C11.1962 18.7312 11.0985 18.7505 11 18.75V18.75Z" fill="currentColor"/>
<path  d="M19 12.75H5C4.80109 12.75 4.61032 12.671 4.46967 12.5303C4.32902 12.3897 4.25 12.1989 4.25 12C4.25 11.8011 4.32902 11.6103 4.46967 11.4697C4.61032 11.329 4.80109 11.25 5 11.25H19C19.1989 11.25 19.3897 11.329 19.5303 11.4697C19.671 11.6103 19.75 11.8011 19.75 12C19.75 12.1989 19.671 12.3897 19.5303 12.5303C19.3897 12.671 19.1989 12.75 19 12.75Z" fill="currentColor"/>
</g>
</g>
</svg>
