<svg width="24" height="24" viewBox="0 0 24 24" fill="none" xmlns="http://www.w3.org/2000/svg">
<g >
<g id="arrow-up-right">
<path  d="M8.45999 6.3C8.26108 6.3 8.07031 6.37902 7.92966 6.51967C7.78901 6.66033 7.70999 6.85109 7.70999 7.05C7.70999 7.24892 7.78901 7.43968 7.92966 7.58033C8.07031 7.72099 8.26108 7.8 8.45999 7.8H15.14L6.51999 16.42C6.4463 16.4887 6.3872 16.5715 6.34621 16.6635C6.30522 16.7555 6.28317 16.8548 6.2814 16.9555C6.27962 17.0562 6.29815 17.1562 6.33587 17.2496C6.37359 17.343 6.42973 17.4278 6.50095 17.499C6.57217 17.5703 6.657 17.6264 6.75039 17.6641C6.84378 17.7018 6.94381 17.7204 7.04451 17.7186C7.14521 17.7168 7.24453 17.6948 7.33653 17.6538C7.42853 17.6128 7.51133 17.5537 7.57999 17.48L16.2 8.86V15.54C16.2 15.7389 16.279 15.9297 16.4197 16.0703C16.5603 16.211 16.7511 16.29 16.95 16.29C17.1489 16.29 17.3397 16.211 17.4803 16.0703C17.621 15.9297 17.7 15.7389 17.7 15.54V7.05C17.6995 6.95031 17.6791 6.85172 17.64 6.76C17.5856 6.63215 17.4971 6.52166 17.3843 6.44056C17.2714 6.35945 17.1385 6.31084 17 6.3H8.45999Z" fill="currentColor"/>
</g>
</g>
</svg>
