<svg width="24" height="24" viewBox="0 0 24 24" fill="none" xmlns="http://www.w3.org/2000/svg">
<g >
<g id="arrows-h">
<path  d="M20.69 11.71C20.6521 11.6207 20.5978 11.5394 20.53 11.47L16.53 7.47C16.4614 7.39631 16.3786 7.33721 16.2866 7.29622C16.1946 7.25523 16.0952 7.23319 15.9945 7.23141C15.8938 7.22963 15.7938 7.24816 15.7004 7.28588C15.607 7.3236 15.5222 7.37974 15.451 7.45096C15.3798 7.52218 15.3236 7.60701 15.2859 7.7004C15.2482 7.79379 15.2296 7.89382 15.2314 7.99452C15.2332 8.09523 15.2552 8.19454 15.2962 8.28654C15.3372 8.37854 15.3963 8.46134 15.47 8.53L18.19 11.25H5.81001L8.53001 8.53C8.66249 8.38783 8.73462 8.19978 8.73119 8.00548C8.72776 7.81118 8.64905 7.62579 8.51163 7.48838C8.37422 7.35097 8.18884 7.27225 7.99454 7.26883C7.80024 7.2654 7.61219 7.33752 7.47001 7.47L3.47001 11.47C3.40222 11.5394 3.34796 11.6207 3.31001 11.71C3.27038 11.8015 3.24994 11.9002 3.24994 12C3.24994 12.0998 3.27038 12.1985 3.31001 12.29C3.34796 12.3793 3.40222 12.4606 3.47001 12.53L7.47001 16.53C7.61064 16.6705 7.80126 16.7493 8.00001 16.7493C8.19876 16.7493 8.38939 16.6705 8.53001 16.53C8.67046 16.3894 8.74935 16.1988 8.74935 16C8.74935 15.8013 8.67046 15.6106 8.53001 15.47L5.81001 12.75H18.19L15.47 15.47C15.3296 15.6106 15.2507 15.8013 15.2507 16C15.2507 16.1988 15.3296 16.3894 15.47 16.53C15.6106 16.6705 15.8013 16.7493 16 16.7493C16.1988 16.7493 16.3894 16.6705 16.53 16.53L20.53 12.53C20.5978 12.4606 20.6521 12.3793 20.69 12.29C20.7296 12.1985 20.7501 12.0998 20.7501 12C20.7501 11.9002 20.7296 11.8015 20.69 11.71V11.71Z" fill="currentColor"/>
</g>
</g>
</svg>
