<svg width="24" height="24" viewBox="0 0 24 24" fill="none" xmlns="http://www.w3.org/2000/svg">
<g >
<g id="arrow-up">
<path  d="M18 11.75C17.9015 11.7505 17.8038 11.7312 17.7128 11.6935C17.6218 11.6557 17.5393 11.6001 17.47 11.53L12 6.06L6.53003 11.53C6.38785 11.6625 6.19981 11.7346 6.00551 11.7312C5.81121 11.7277 5.62582 11.649 5.48841 11.5116C5.35099 11.3742 5.27228 11.1888 5.26885 10.9945C5.26543 10.8002 5.33755 10.6122 5.47003 10.47L11.47 4.47C11.6107 4.32955 11.8013 4.25066 12 4.25066C12.1988 4.25066 12.3894 4.32955 12.53 4.47L18.53 10.47C18.6705 10.6106 18.7494 10.8012 18.7494 11C18.7494 11.1987 18.6705 11.3894 18.53 11.53C18.4608 11.6001 18.3782 11.6557 18.2872 11.6935C18.1962 11.7312 18.0986 11.7505 18 11.75Z" fill="currentColor"/>
<path  d="M12 19.75C11.8019 19.7474 11.6126 19.6676 11.4725 19.5275C11.3324 19.3874 11.2526 19.1981 11.25 19V5C11.25 4.80109 11.329 4.61032 11.4697 4.46967C11.6103 4.32902 11.8011 4.25 12 4.25C12.1989 4.25 12.3897 4.32902 12.5303 4.46967C12.671 4.61032 12.75 4.80109 12.75 5V19C12.7474 19.1981 12.6676 19.3874 12.5275 19.5275C12.3874 19.6676 12.1981 19.7474 12 19.75V19.75Z" fill="currentColor"/>
</g>
</g>
</svg>
