<svg width="24" height="24" viewBox="0 0 24 24" fill="none" xmlns="http://www.w3.org/2000/svg">
<g >
<g id="arrow-circle-left">
<path  d="M12 21C10.22 21 8.47991 20.4722 6.99987 19.4832C5.51983 18.4943 4.36628 17.0887 3.68509 15.4442C3.0039 13.7996 2.82567 11.99 3.17294 10.2442C3.5202 8.49836 4.37737 6.89471 5.63604 5.63604C6.89472 4.37737 8.49836 3.5202 10.2442 3.17293C11.99 2.82567 13.7996 3.0039 15.4442 3.68508C17.0887 4.36627 18.4943 5.51983 19.4832 6.99987C20.4722 8.47991 21 10.22 21 12C21 14.3869 20.0518 16.6761 18.364 18.364C16.6761 20.0518 14.387 21 12 21V21ZM12 4.5C10.5166 4.5 9.0666 4.93987 7.83323 5.76398C6.59986 6.58809 5.63856 7.75943 5.07091 9.12987C4.50325 10.5003 4.35473 12.0083 4.64411 13.4632C4.9335 14.918 5.64781 16.2544 6.6967 17.3033C7.7456 18.3522 9.08197 19.0665 10.5368 19.3559C11.9917 19.6453 13.4997 19.4968 14.8701 18.9291C16.2406 18.3614 17.4119 17.4001 18.236 16.1668C19.0601 14.9334 19.5 13.4834 19.5 12C19.5 10.0109 18.7098 8.10322 17.3033 6.6967C15.8968 5.29018 13.9891 4.5 12 4.5Z" fill="currentColor"/>
<path  d="M12 16.75C11.9015 16.7505 11.8038 16.7312 11.7128 16.6935C11.6218 16.6557 11.5393 16.6001 11.47 16.53L7.47001 12.53C7.32956 12.3894 7.25067 12.1987 7.25067 12C7.25067 11.8012 7.32956 11.6106 7.47001 11.47L11.47 7.47C11.6122 7.33752 11.8002 7.2654 11.9945 7.26882C12.1888 7.27225 12.3742 7.35096 12.5116 7.48838C12.649 7.62579 12.7278 7.81118 12.7312 8.00548C12.7346 8.19978 12.6625 8.38782 12.53 8.53L9.06001 12L12.53 15.47C12.6705 15.6106 12.7494 15.8012 12.7494 16C12.7494 16.1987 12.6705 16.3894 12.53 16.53C12.4608 16.6001 12.3782 16.6557 12.2872 16.6935C12.1962 16.7312 12.0986 16.7505 12 16.75V16.75Z" fill="currentColor"/>
<path   d="M16 12.75H8C7.80109 12.75 7.61032 12.671 7.46967 12.5303C7.32902 12.3897 7.25 12.1989 7.25 12C7.25 11.8011 7.32902 11.6103 7.46967 11.4697C7.61032 11.329 7.80109 11.25 8 11.25H16C16.1989 11.25 16.3897 11.329 16.5303 11.4697C16.671 11.6103 16.75 11.8011 16.75 12C16.75 12.1989 16.671 12.3897 16.5303 12.5303C16.3897 12.671 16.1989 12.75 16 12.75V12.75Z" fill="currentColor"/>
</g>
</g>
</svg>
