<svg width="24" height="24" viewBox="0 0 24 24" fill="none" xmlns="http://www.w3.org/2000/svg">
<g >
<g id="arrow-down-left">
<path  d="M15.54 17.7C15.7389 17.7 15.9297 17.621 16.0703 17.4803C16.211 17.3397 16.29 17.1489 16.29 16.95C16.29 16.7511 16.211 16.5603 16.0703 16.4197C15.9297 16.279 15.7389 16.2 15.54 16.2H8.85999L17.48 7.58C17.5537 7.51134 17.6128 7.42854 17.6538 7.33654C17.6948 7.24454 17.7168 7.14523 17.7186 7.04452C17.7204 6.94382 17.7018 6.84379 17.6641 6.7504C17.6264 6.65701 17.5702 6.57218 17.499 6.50096C17.4278 6.42974 17.343 6.3736 17.2496 6.33588C17.1562 6.29816 17.0562 6.27963 16.9555 6.28141C16.8548 6.28319 16.7554 6.30523 16.6634 6.34622C16.5714 6.38721 16.4886 6.44631 16.42 6.52L7.79999 15.14V8.46C7.79999 8.26109 7.72097 8.07032 7.58032 7.92967C7.43967 7.78902 7.2489 7.71 7.04999 7.71C6.85108 7.71 6.66031 7.78902 6.51966 7.92967C6.37901 8.07032 6.29999 8.26109 6.29999 8.46V17C6.30051 17.0997 6.32091 17.1983 6.35999 17.29C6.41809 17.4253 6.51423 17.5407 6.63672 17.6224C6.75921 17.7041 6.90278 17.7484 7.04999 17.75L15.54 17.7Z" fill="currentColor"/>
</g>
</g>
</svg>
