<svg width="24" height="24" viewBox="0 0 24 24" fill="none" xmlns="http://www.w3.org/2000/svg">
<g >
<g id="backward">
<g >
<path  d="M20 20C19.8107 20.001 19.6281 19.9295 19.49 19.8L12 12.8C11.9243 12.7298 11.8638 12.6447 11.8225 12.5501C11.7812 12.4554 11.7599 12.3533 11.7599 12.25C11.7599 12.1467 11.7812 12.0446 11.8225 11.9499C11.8638 11.8553 11.9243 11.7702 12 11.7L19.47 4.7C19.577 4.60076 19.7106 4.5349 19.8545 4.51048C19.9984 4.48606 20.1463 4.50416 20.28 4.56254C20.4138 4.62093 20.5276 4.71706 20.6075 4.83917C20.6874 4.96128 20.73 5.10406 20.73 5.25V19.25C20.7292 19.3961 20.6864 19.5389 20.6066 19.6613C20.5268 19.7836 20.4134 19.8804 20.28 19.94C20.191 19.9767 20.0962 19.997 20 20V20ZM13.63 12.25L19.25 17.52V7L13.63 12.25Z" fill="currentColor"/>
</g>
<g >
<path  d="M11.47 20C11.2781 19.9987 11.0933 19.9276 10.95 19.8L3.48998 12.8C3.41425 12.7298 3.35383 12.6447 3.31252 12.5501C3.2712 12.4554 3.24988 12.3533 3.24988 12.25C3.24988 12.1467 3.2712 12.0446 3.31252 11.9499C3.35383 11.8553 3.41425 11.7702 3.48998 11.7L11 4.7C11.1082 4.60202 11.2423 4.53728 11.3863 4.51351C11.5304 4.48974 11.6782 4.50795 11.8121 4.56596C11.9461 4.62397 12.0605 4.71932 12.1417 4.84063C12.2229 4.96193 12.2674 5.10405 12.27 5.25V19.25C12.2696 19.3975 12.2258 19.5416 12.144 19.6644C12.0622 19.7871 11.946 19.883 11.81 19.94C11.7032 19.9873 11.5865 20.0079 11.47 20V20ZM5.09998 12.25L10.72 17.52V7L5.09998 12.25Z" fill="currentColor"/>
</g>
</g>
</g>
</svg>
