<svg width="24" height="24" viewBox="0 0 24 24" fill="none" xmlns="http://www.w3.org/2000/svg">
<g >
<g id="ban">
<path  d="M12 3C10.22 3 8.47991 3.52784 6.99987 4.51677C5.51983 5.50571 4.36627 6.91131 3.68508 8.55585C3.0039 10.2004 2.82567 12.01 3.17293 13.7558C3.5202 15.5016 4.37737 17.1053 5.63604 18.364C6.89471 19.6226 8.49836 20.4798 10.2442 20.8271C11.99 21.1743 13.7996 20.9961 15.4442 20.3149C17.0887 19.6337 18.4943 18.4802 19.4832 17.0001C20.4722 15.5201 21 13.78 21 12C21 9.61305 20.0518 7.32387 18.364 5.63604C16.6761 3.94821 14.3869 3 12 3V3ZM4.5 12C4.49849 10.2704 5.09961 8.59437 6.2 7.26L16.74 17.8C15.6425 18.7001 14.3119 19.2699 12.9031 19.443C11.4943 19.616 10.0653 19.3852 8.78268 18.7774C7.50001 18.1696 6.41645 17.2098 5.65822 16.0099C4.9 14.81 4.49833 13.4194 4.5 12ZM17.8 16.74L7.26 6.2C8.69756 5.02356 10.521 4.42329 12.3763 4.51573C14.2315 4.60817 15.9863 5.38672 17.2998 6.70022C18.6133 8.01372 19.3918 9.76846 19.4843 11.6237C19.5767 13.479 18.9764 15.3024 17.8 16.74V16.74Z" fill="currentColor"/>
</g>
</g>
</svg>
