<svg width="46" height="46" viewBox="0 0 46 46" fill="none" xmlns="http://www.w3.org/2000/svg">
<rect x="3" y="3" width="40" height="40" rx="20" fill="#F2F4F7"/>
<g clip-path="url(#clip0_633_34372)">
<path d="M26.2813 26.2813C29.1334 25.8994 31.3332 23.4565 31.3332 20.4998C31.3332 17.2782 28.7215 14.6665 25.4998 14.6665C22.5432 14.6665 20.1002 16.8662 19.7184 19.7184M26.3332 25.4998C26.3332 28.7215 23.7215 31.3332 20.4998 31.3332C17.2782 31.3332 14.6665 28.7215 14.6665 25.4998C14.6665 22.2782 17.2782 19.6665 20.4998 19.6665C23.7215 19.6665 26.3332 22.2782 26.3332 25.4998Z" stroke="#667085" stroke-width="1.5" stroke-linecap="round" stroke-linejoin="round"/>
</g>
<rect x="3" y="3" width="40" height="40" rx="20" stroke="#F9FAFB" stroke-width="6"/>
<defs>
<clipPath id="clip0_633_34372">
<rect width="20" height="20" fill="white" transform="translate(13 13)"/>
</clipPath>
</defs>
</svg>
