<svg class="svg-icon" style="width: 1.0009765625em; height: 1em;vertical-align: middle;fill: currentColor;overflow: hidden;" viewBox="0 0 1025 1024" version="1.1" xmlns="http://www.w3.org/2000/svg"><path d="M224.992 448c123.712 0 224 100.288 224 224s-100.288 224-224 224-224-100.288-224-224l-0.992-32c0-247.424 200.576-448 448-448l0 128c-85.472 0-165.824 33.28-226.272 93.728-11.648 11.648-22.24 24.032-31.84 37.024 11.424-1.792 23.168-2.752 35.104-2.752zM800.992 448c123.712 0 224 100.288 224 224s-100.288 224-224 224-224-100.288-224-224l-0.992-32c0-247.424 200.576-448 448-448l0 128c-85.472 0-165.824 33.28-226.272 93.728-11.648 11.648-22.24 24.032-31.84 37.024 11.456-1.792 23.168-2.752 35.104-2.752z"  /></svg>