<svg width="24" height="24" viewBox="0 0 24 24" fill="none" xmlns="http://www.w3.org/2000/svg">
<g >
<g id="bolt">
<path  d="M11.09 21.5C11.0107 21.5144 10.9294 21.5144 10.85 21.5C10.6768 21.4477 10.5255 21.3403 10.419 21.1941C10.3125 21.0479 10.2567 20.8709 10.26 20.69V20.58L11.16 14.23H6.82001C6.67366 14.2301 6.53007 14.1901 6.40488 14.1143C6.27969 14.0385 6.1777 13.9298 6.11001 13.8C6.03354 13.6696 5.99323 13.5212 5.99323 13.37C5.99323 13.2188 6.03354 13.0704 6.11001 12.94L8.11001 9.45L12.21 2.93C12.3011 2.77616 12.4417 2.65777 12.6088 2.5942C12.776 2.53062 12.9597 2.52562 13.13 2.58C13.3032 2.63227 13.4545 2.73969 13.561 2.88591C13.6676 3.03213 13.7234 3.20913 13.72 3.39V3.5L12.82 9.85H17.17C17.3164 9.84987 17.46 9.88989 17.5851 9.96571C17.7103 10.0415 17.8123 10.1502 17.88 10.28C17.9565 10.4104 17.9968 10.5588 17.9968 10.71C17.9968 10.8612 17.9565 11.0096 17.88 11.14L15.88 14.63L11.78 21.15C11.7047 21.2626 11.6016 21.354 11.4808 21.4152C11.36 21.4765 11.2254 21.5057 11.09 21.5V21.5ZM7.93001 12.69H11.93C12.0403 12.6913 12.1493 12.7143 12.2507 12.7577C12.3521 12.8012 12.444 12.8641 12.5211 12.9431C12.5981 13.022 12.6589 13.1154 12.6999 13.2178C12.7409 13.3202 12.7613 13.4297 12.76 13.54V13.65L12.17 17.79L14.67 13.79L16.11 11.31H12.11C11.9997 11.3087 11.8907 11.2857 11.7893 11.2422C11.6879 11.1988 11.596 11.1358 11.519 11.0569C11.4419 10.978 11.3811 10.8846 11.3401 10.7822C11.2991 10.6798 11.2787 10.5703 11.28 10.46V10.35L11.87 6.21L9.37001 10.21L7.93001 12.69Z" fill="currentColor"/>
</g>
</g>
</svg>
