<svg width="24" height="24" viewBox="0 0 24 24" fill="none" xmlns="http://www.w3.org/2000/svg">
<g >
<g id="bookmark">
<path  d="M17.75 20.75C17.5974 20.747 17.4487 20.702 17.32 20.62L12 16.91L6.68 20.62C6.56249 20.6915 6.42757 20.7294 6.29 20.7294C6.15243 20.7294 6.01751 20.6915 5.9 20.62C5.78491 20.5607 5.68741 20.4722 5.61722 20.3634C5.54703 20.2546 5.50661 20.1293 5.5 20V6C5.5 5.27065 5.78973 4.57118 6.30546 4.05546C6.82118 3.53973 7.52065 3.25 8.25 3.25H15.75C16.4793 3.25 17.1788 3.53973 17.6945 4.05546C18.2103 4.57118 18.5 5.27065 18.5 6V20C18.5005 20.1362 18.4634 20.2698 18.3929 20.3863C18.3223 20.5027 18.2209 20.5974 18.1 20.66C17.9927 20.7189 17.8724 20.7498 17.75 20.75ZM12 15.25C12.1532 15.2484 12.3033 15.2938 12.43 15.38L17 18.56V6C17 5.66848 16.8683 5.35054 16.6339 5.11612C16.3995 4.8817 16.0815 4.75 15.75 4.75H8.25C7.91848 4.75 7.60054 4.8817 7.36612 5.11612C7.1317 5.35054 7 5.66848 7 6V18.56L11.57 15.38C11.6967 15.2938 11.8468 15.2484 12 15.25V15.25Z" fill="currentColor"/>
</g>
</g>
</svg>
