<svg width="24" height="24" viewBox="0 0 24 24" fill="none" xmlns="http://www.w3.org/2000/svg">
<g >
<g id="book">
<path  d="M19 3.24999H6.75C6.10713 3.23113 5.483 3.46789 5.01439 3.90838C4.54577 4.34888 4.2709 4.95719 4.25 5.59999V18C4.27609 18.7542 4.60027 19.4673 5.15142 19.9829C5.70258 20.4984 6.43571 20.7743 7.19 20.75H19C19.1981 20.7474 19.3874 20.6676 19.5275 20.5275C19.6676 20.3874 19.7474 20.1981 19.75 20V3.99999C19.7474 3.80189 19.6676 3.61262 19.5275 3.47253C19.3874 3.33243 19.1981 3.25258 19 3.24999V3.24999ZM18.25 19.25H7.19C6.83339 19.2747 6.48151 19.157 6.21156 18.9227C5.94161 18.6884 5.77562 18.3565 5.75 18C5.77562 17.6434 5.94161 17.3116 6.21156 17.0773C6.48151 16.8429 6.83339 16.7252 7.19 16.75H18.25V19.25ZM18.25 15.25H7.19C6.68656 15.2505 6.19135 15.3778 5.75 15.62V5.59999C5.7729 5.35588 5.89028 5.13038 6.0771 4.97158C6.26392 4.81279 6.50538 4.73327 6.75 4.74999H18.25V15.25Z" fill="currentColor"/>
<path  d="M8.75 8.75H15.25C15.4489 8.75 15.6397 8.67098 15.7803 8.53033C15.921 8.38968 16 8.19891 16 8C16 7.80109 15.921 7.61032 15.7803 7.46967C15.6397 7.32902 15.4489 7.25 15.25 7.25H8.75C8.55109 7.25 8.36032 7.32902 8.21967 7.46967C8.07902 7.61032 8 7.80109 8 8C8 8.19891 8.07902 8.38968 8.21967 8.53033C8.36032 8.67098 8.55109 8.75 8.75 8.75Z" fill="currentColor"/>
<path   d="M8.75 12.25H15.25C15.4489 12.25 15.6397 12.171 15.7803 12.0303C15.921 11.8897 16 11.6989 16 11.5C16 11.3011 15.921 11.1103 15.7803 10.9697C15.6397 10.829 15.4489 10.75 15.25 10.75H8.75C8.55109 10.75 8.36032 10.829 8.21967 10.9697C8.07902 11.1103 8 11.3011 8 11.5C8 11.6989 8.07902 11.8897 8.21967 12.0303C8.36032 12.171 8.55109 12.25 8.75 12.25Z" fill="currentColor"/>
</g>
</g>
</svg>
