<svg width="24" height="24" viewBox="0 0 24 24" fill="none" xmlns="http://www.w3.org/2000/svg">
<g >
<g id="box">
<path  d="M20.73 16.52C20.73 16.52 20.73 16.45 20.73 16.41V7.58999C20.7296 7.47524 20.7022 7.36218 20.65 7.25999C20.5763 7.10119 20.4488 6.97364 20.29 6.89999L12.29 3.31999C12.1926 3.2758 12.0869 3.25293 11.98 3.25293C11.873 3.25293 11.7674 3.2758 11.67 3.31999L3.66998 6.89999C3.54132 6.96474 3.43252 7.06303 3.35508 7.18448C3.27763 7.30592 3.23441 7.44603 3.22998 7.58999V16.41C3.23746 16.5532 3.28192 16.6921 3.35903 16.813C3.43614 16.9339 3.54327 17.0328 3.66998 17.1L11.67 20.68C11.7668 20.7262 11.8727 20.7501 11.98 20.7501C12.0872 20.7501 12.1932 20.7262 12.29 20.68L20.29 17.1C20.4055 17.0471 20.5061 16.9665 20.5829 16.8653C20.6596 16.7641 20.7102 16.6455 20.73 16.52V16.52ZM4.72998 8.73999L11.23 11.66V18.84L4.72998 15.93V8.73999ZM12.73 11.66L19.23 8.73999V15.93L12.73 18.84V11.66ZM12 4.81999L18.17 7.58999L12 10.35L5.82998 7.58999L12 4.81999Z" fill="currentColor"/>
</g>
</g>
</svg>
