<svg width="24" height="24" viewBox="0 0 24 24" fill="none" xmlns="http://www.w3.org/2000/svg">
<g >
<g id="briefcase">
<path  d="M19 6.25001H15.25V5.00001C15.2141 4.50379 14.9839 4.04175 14.6095 3.71414C14.2351 3.38652 13.7466 3.21975 13.25 3.25001H10.75C10.2534 3.21975 9.76491 3.38652 9.39049 3.71414C9.01607 4.04175 8.78593 4.50379 8.75 5.00001V6.25001H5C4.53668 6.25263 4.09309 6.43785 3.76546 6.76547C3.43784 7.09309 3.25263 7.53669 3.25 8.00001V18C3.25263 18.4633 3.43784 18.9069 3.76546 19.2345C4.09309 19.5622 4.53668 19.7474 5 19.75H19C19.4633 19.7474 19.9069 19.5622 20.2345 19.2345C20.5622 18.9069 20.7474 18.4633 20.75 18V8.00001C20.7474 7.53669 20.5622 7.09309 20.2345 6.76547C19.9069 6.43785 19.4633 6.25263 19 6.25001V6.25001ZM10.25 5.00001C10.25 4.92001 10.44 4.75001 10.75 4.75001H13.25C13.56 4.75001 13.75 4.92001 13.75 5.00001V6.25001H10.25V5.00001ZM5 7.75001H19C19.0663 7.75001 19.1299 7.77635 19.1768 7.82323C19.2237 7.87011 19.25 7.9337 19.25 8.00001V11.25H4.75V8.00001C4.75 7.9337 4.77634 7.87011 4.82322 7.82323C4.87011 7.77635 4.9337 7.75001 5 7.75001ZM8.75 12.75H15.25V14.25H8.75V12.75ZM19 18.25H5C4.9337 18.25 4.87011 18.2237 4.82322 18.1768C4.77634 18.1299 4.75 18.0663 4.75 18V12.75H7.25V15C7.25259 15.1981 7.33244 15.3874 7.47253 15.5275C7.61263 15.6676 7.80189 15.7474 8 15.75H16C16.1981 15.7474 16.3874 15.6676 16.5275 15.5275C16.6676 15.3874 16.7474 15.1981 16.75 15V12.75H19.25V18C19.25 18.0663 19.2237 18.1299 19.1768 18.1768C19.1299 18.2237 19.0663 18.25 19 18.25Z" fill="currentColor"/>
</g>
</g>
</svg>
