<svg width="24" height="24" viewBox="0 0 24 24" fill="none" xmlns="http://www.w3.org/2000/svg">
<g >
<g id="building">
<path  d="M10.5 6H9.5C9.22386 6 9 6.22386 9 6.5V7.5C9 7.77614 9.22386 8 9.5 8H10.5C10.7761 8 11 7.77614 11 7.5V6.5C11 6.22386 10.7761 6 10.5 6Z" fill="currentColor"/>
<path  d="M14.5 6H13.5C13.2239 6 13 6.22386 13 6.5V7.5C13 7.77614 13.2239 8 13.5 8H14.5C14.7761 8 15 7.77614 15 7.5V6.5C15 6.22386 14.7761 6 14.5 6Z" fill="currentColor"/>
<path   d="M10.5 9.5H9.5C9.22386 9.5 9 9.72386 9 10V11C9 11.2761 9.22386 11.5 9.5 11.5H10.5C10.7761 11.5 11 11.2761 11 11V10C11 9.72386 10.7761 9.5 10.5 9.5Z" fill="currentColor"/>
<path   d="M14.5 9.5H13.5C13.2239 9.5 13 9.72386 13 10V11C13 11.2761 13.2239 11.5 13.5 11.5H14.5C14.7761 11.5 15 11.2761 15 11V10C15 9.72386 14.7761 9.5 14.5 9.5Z" fill="currentColor"/>
<path  d="M10.5 13H9.5C9.22386 13 9 13.2239 9 13.5V14.5C9 14.7761 9.22386 15 9.5 15H10.5C10.7761 15 11 14.7761 11 14.5V13.5C11 13.2239 10.7761 13 10.5 13Z" fill="currentColor"/>
<path  d="M14.5 13H13.5C13.2239 13 13 13.2239 13 13.5V14.5C13 14.7761 13.2239 15 13.5 15H14.5C14.7761 15 15 14.7761 15 14.5V13.5C15 13.2239 14.7761 13 14.5 13Z" fill="currentColor"/>
<path  d="M18.25 19.25H17.75V4C17.7474 3.80189 17.6676 3.61263 17.5275 3.47253C17.3874 3.33244 17.1981 3.25259 17 3.25H7C6.80189 3.25259 6.61263 3.33244 6.47253 3.47253C6.33244 3.61263 6.25259 3.80189 6.25 4V19.25H5.75C5.55109 19.25 5.36032 19.329 5.21967 19.4697C5.07902 19.6103 5 19.8011 5 20C5 20.1989 5.07902 20.3897 5.21967 20.5303C5.36032 20.671 5.55109 20.75 5.75 20.75H18.25C18.4489 20.75 18.6397 20.671 18.7803 20.5303C18.921 20.3897 19 20.1989 19 20C19 19.8011 18.921 19.6103 18.7803 19.4697C18.6397 19.329 18.4489 19.25 18.25 19.25ZM16.25 19.25H11V17C11 16.8674 10.9473 16.7402 10.8536 16.6464C10.7598 16.5527 10.6326 16.5 10.5 16.5H9.5C9.36739 16.5 9.24021 16.5527 9.14645 16.6464C9.05268 16.7402 9 16.8674 9 17V19.25H7.75V4.75H16.25V19.25Z" fill="currentColor"/>
</g>
</g>
</svg>
