<svg width="24" height="24" viewBox="0 0 24 24" fill="none" xmlns="http://www.w3.org/2000/svg">
<g >
<g id="calendar-times">
<path  d="M17 4.75H15.75V3.5C15.75 3.30109 15.671 3.11032 15.5303 2.96967C15.3897 2.82902 15.1989 2.75 15 2.75C14.8011 2.75 14.6103 2.82902 14.4697 2.96967C14.329 3.11032 14.25 3.30109 14.25 3.5V4.75H9.75V3.5C9.75 3.30109 9.67098 3.11032 9.53033 2.96967C9.38968 2.82902 9.19891 2.75 9 2.75C8.80109 2.75 8.61032 2.82902 8.46967 2.96967C8.32902 3.11032 8.25 3.30109 8.25 3.5V4.75H7C6.27065 4.75 5.57118 5.03973 5.05546 5.55546C4.53973 6.07118 4.25 6.77065 4.25 7.5V18.5C4.25 19.2293 4.53973 19.9288 5.05546 20.4445C5.57118 20.9603 6.27065 21.25 7 21.25H17C17.7293 21.25 18.4288 20.9603 18.9445 20.4445C19.4603 19.9288 19.75 19.2293 19.75 18.5V7.5C19.75 6.77065 19.4603 6.07118 18.9445 5.55546C18.4288 5.03973 17.7293 4.75 17 4.75V4.75ZM7 6.25H8.25V7.5C8.25 7.69891 8.32902 7.88968 8.46967 8.03033C8.61032 8.17098 8.80109 8.25 9 8.25C9.19891 8.25 9.38968 8.17098 9.53033 8.03033C9.67098 7.88968 9.75 7.69891 9.75 7.5V6.25H14.25V7.5C14.25 7.69891 14.329 7.88968 14.4697 8.03033C14.6103 8.17098 14.8011 8.25 15 8.25C15.1989 8.25 15.3897 8.17098 15.5303 8.03033C15.671 7.88968 15.75 7.69891 15.75 7.5V6.25H17C17.3315 6.25 17.6495 6.3817 17.8839 6.61612C18.1183 6.85054 18.25 7.16848 18.25 7.5V10.25H5.75V7.5C5.75 7.16848 5.8817 6.85054 6.11612 6.61612C6.35054 6.3817 6.66848 6.25 7 6.25ZM17 19.75H7C6.66848 19.75 6.35054 19.6183 6.11612 19.3839C5.8817 19.1495 5.75 18.8315 5.75 18.5V11.75H18.25V18.5C18.25 18.8315 18.1183 19.1495 17.8839 19.3839C17.6495 19.6183 17.3315 19.75 17 19.75Z" fill="currentColor"/>
<path  d="M13.94 14.06C13.8711 13.9892 13.7886 13.933 13.6976 13.8946C13.6066 13.8562 13.5088 13.8364 13.41 13.8364C13.3112 13.8364 13.2134 13.8562 13.1224 13.8946C13.0314 13.933 12.9489 13.9892 12.88 14.06L12 14.94L11.12 14.06C10.9778 13.9275 10.7898 13.8554 10.5955 13.8588C10.4012 13.8622 10.2158 13.941 10.0784 14.0784C9.94096 14.2158 9.86225 14.4012 9.85882 14.5955C9.85539 14.7898 9.92752 14.9778 10.06 15.12L10.94 16L10.06 16.88C9.98924 16.9489 9.933 17.0314 9.89461 17.1224C9.85621 17.2134 9.83643 17.3112 9.83643 17.41C9.83643 17.5088 9.85621 17.6066 9.89461 17.6976C9.933 17.7886 9.98924 17.8711 10.06 17.94C10.1282 18.0115 10.2105 18.068 10.3018 18.1059C10.393 18.1438 10.4912 18.1622 10.59 18.16C10.6885 18.1605 10.7862 18.1412 10.8772 18.1035C10.9682 18.0657 11.0508 18.0101 11.12 17.94L12 17.06L12.88 17.94C12.9492 18.0101 13.0318 18.0657 13.1228 18.1035C13.2138 18.1412 13.3115 18.1605 13.41 18.16C13.5088 18.1622 13.6069 18.1438 13.6982 18.1059C13.7895 18.068 13.8718 18.0115 13.94 17.94C14.0108 17.8711 14.067 17.7886 14.1054 17.6976C14.1438 17.6066 14.1636 17.5088 14.1636 17.41C14.1636 17.3112 14.1438 17.2134 14.1054 17.1224C14.067 17.0314 14.0108 16.9489 13.94 16.88L13.06 16L13.94 15.12C14.0108 15.0511 14.067 14.9686 14.1054 14.8776C14.1438 14.7866 14.1636 14.6888 14.1636 14.59C14.1636 14.4912 14.1438 14.3934 14.1054 14.3024C14.067 14.2114 14.0108 14.1289 13.94 14.06V14.06Z" fill="currentColor"/>
</g>
</g>
</svg>
