<svg viewBox="0 0 16 16" fill="none" xmlns="http://www.w3.org/2000/svg">
<path d="M13.9999 6.66678H2M10.6666 1.3335V4.00014M5.3333 1.3335V4.00014M5.19997 14.6667H10.7999C11.92 14.6667 12.4801 14.6667 12.9079 14.4487C13.2842 14.257 13.5902 13.951 13.7819 13.5747C13.9999 13.1469 13.9999 12.5868 13.9999 11.4667V5.86678C13.9999 4.74669 13.9999 4.18664 13.7819 3.75882C13.5902 3.3825 13.2842 3.07655 12.9079 2.8848C12.4801 2.66682 11.92 2.66682 10.7999 2.66682H5.19997C4.07987 2.66682 3.51983 2.66682 3.09201 2.8848C2.71569 3.07655 2.40973 3.3825 2.21798 3.75882C2 4.18664 2 4.74669 2 5.86678V11.4667C2 12.5868 2 13.1469 2.21798 13.5747C2.40973 13.951 2.71569 14.257 3.09201 14.4487C3.51983 14.6667 4.07987 14.6667 5.19997 14.6667Z" stroke="currentColor" stroke-width="1.33332" stroke-linecap="round" stroke-linejoin="round"/>
</svg>
