<svg width="24" height="24" viewBox="0 0 24 24" fill="none" xmlns="http://www.w3.org/2000/svg">
<g >
<g id="calendar-minus">
<path  d="M17 4.75H15.75V3.5C15.75 3.30109 15.671 3.11032 15.5303 2.96967C15.3897 2.82902 15.1989 2.75 15 2.75C14.8011 2.75 14.6103 2.82902 14.4697 2.96967C14.329 3.11032 14.25 3.30109 14.25 3.5V4.75H9.75V3.5C9.75 3.30109 9.67098 3.11032 9.53033 2.96967C9.38968 2.82902 9.19891 2.75 9 2.75C8.80109 2.75 8.61032 2.82902 8.46967 2.96967C8.32902 3.11032 8.25 3.30109 8.25 3.5V4.75H7C6.27065 4.75 5.57118 5.03973 5.05546 5.55546C4.53973 6.07118 4.25 6.77065 4.25 7.5V18.5C4.25 19.2293 4.53973 19.9288 5.05546 20.4445C5.57118 20.9603 6.27065 21.25 7 21.25H17C17.7293 21.25 18.4288 20.9603 18.9445 20.4445C19.4603 19.9288 19.75 19.2293 19.75 18.5V7.5C19.75 6.77065 19.4603 6.07118 18.9445 5.55546C18.4288 5.03973 17.7293 4.75 17 4.75V4.75ZM7 6.25H8.25V7.5C8.25 7.69891 8.32902 7.88968 8.46967 8.03033C8.61032 8.17098 8.80109 8.25 9 8.25C9.19891 8.25 9.38968 8.17098 9.53033 8.03033C9.67098 7.88968 9.75 7.69891 9.75 7.5V6.25H14.25V7.5C14.25 7.69891 14.329 7.88968 14.4697 8.03033C14.6103 8.17098 14.8011 8.25 15 8.25C15.1989 8.25 15.3897 8.17098 15.5303 8.03033C15.671 7.88968 15.75 7.69891 15.75 7.5V6.25H17C17.3315 6.25 17.6495 6.3817 17.8839 6.61612C18.1183 6.85054 18.25 7.16848 18.25 7.5V10.25H5.75V7.5C5.75 7.16848 5.8817 6.85054 6.11612 6.61612C6.35054 6.3817 6.66848 6.25 7 6.25ZM17 19.75H7C6.66848 19.75 6.35054 19.6183 6.11612 19.3839C5.8817 19.1495 5.75 18.8315 5.75 18.5V11.75H18.25V18.5C18.25 18.8315 18.1183 19.1495 17.8839 19.3839C17.6495 19.6183 17.3315 19.75 17 19.75Z" fill="currentColor"/>
<path  d="M14 15.3H10C9.80109 15.3 9.61032 15.379 9.46967 15.5197C9.32902 15.6603 9.25 15.8511 9.25 16.05C9.25 16.2489 9.32902 16.4397 9.46967 16.5803C9.61032 16.721 9.80109 16.8 10 16.8H14C14.1989 16.8 14.3897 16.721 14.5303 16.5803C14.671 16.4397 14.75 16.2489 14.75 16.05C14.75 15.8511 14.671 15.6603 14.5303 15.5197C14.3897 15.379 14.1989 15.3 14 15.3V15.3Z" fill="currentColor"/>
</g>
</g>
</svg>
