<svg width="24" height="24" viewBox="0 0 24 24" fill="none" xmlns="http://www.w3.org/2000/svg">
<g >
<g id="car">
<path  d="M19.78 9.44L17.94 4.44C17.8238 4.09604 17.6036 3.79671 17.3097 3.5835C17.0159 3.37029 16.663 3.25374 16.3 3.25H7.7C7.3418 3.2508 6.99248 3.36151 6.6992 3.56716C6.40592 3.77281 6.18281 4.06351 6.06 4.4L4.22 9.4C3.92473 9.54131 3.67473 9.76216 3.49808 10.0377C3.32142 10.3133 3.22512 10.6327 3.22 10.96V15.46C3.21426 15.7525 3.28279 16.0417 3.41921 16.3006C3.55562 16.5594 3.75544 16.7794 4 16.94C4 16.94 4 17 4 17V19C4 19.2652 4.10536 19.5196 4.29289 19.7071C4.48043 19.8946 4.73478 20 5 20H6C6.26522 20 6.51957 19.8946 6.70711 19.7071C6.89464 19.5196 7 19.2652 7 19V17.25H17V19C17 19.2652 17.1054 19.5196 17.2929 19.7071C17.4804 19.8946 17.7348 20 18 20H19C19.2652 20 19.5196 19.8946 19.7071 19.7071C19.8946 19.5196 20 19.2652 20 19V17C20 17 20 17 20 16.94C20.2351 16.7808 20.4275 16.5661 20.56 16.315C20.6925 16.0639 20.7612 15.784 20.76 15.5V11C20.7567 10.6748 20.6634 10.3569 20.4904 10.0815C20.3174 9.80616 20.0715 9.58411 19.78 9.44V9.44ZM19.25 15.5C19.25 15.5663 19.2237 15.6299 19.1768 15.6768C19.1299 15.7237 19.0663 15.75 19 15.75H5C4.93369 15.75 4.87011 15.7237 4.82322 15.6768C4.77634 15.6299 4.75 15.5663 4.75 15.5V11C4.75 10.9337 4.77634 10.8701 4.82322 10.8232C4.87011 10.7763 4.93369 10.75 5 10.75H19C19.0663 10.75 19.1299 10.7763 19.1768 10.8232C19.2237 10.8701 19.25 10.9337 19.25 11V15.5ZM7.47 4.91C7.48797 4.86341 7.51949 4.82327 7.56048 4.79475C7.60147 4.76624 7.65007 4.75065 7.7 4.75H16.3C16.3499 4.75065 16.3985 4.76624 16.4395 4.79475C16.4805 4.82327 16.512 4.86341 16.53 4.91L17.93 8.75H6.07L7.47 4.91Z" fill="currentColor"/>
<path  d="M8 14.75C8.82843 14.75 9.5 14.0784 9.5 13.25C9.5 12.4216 8.82843 11.75 8 11.75C7.17157 11.75 6.5 12.4216 6.5 13.25C6.5 14.0784 7.17157 14.75 8 14.75Z" fill="currentColor"/>
<path   d="M16 14.75C16.8284 14.75 17.5 14.0784 17.5 13.25C17.5 12.4216 16.8284 11.75 16 11.75C15.1716 11.75 14.5 12.4216 14.5 13.25C14.5 14.0784 15.1716 14.75 16 14.75Z" fill="currentColor"/>
</g>
</g>
</svg>
