<svg width="24" height="24" viewBox="0 0 24 24" fill="none" xmlns="http://www.w3.org/2000/svg">
<g >
<g id="caret-left">
<g >
<path  d="M16 18.75C15.8376 18.7507 15.6795 18.698 15.55 18.6L7.55 12.6C7.45685 12.5301 7.38125 12.4396 7.32918 12.3354C7.27711 12.2313 7.25 12.1164 7.25 12C7.25 11.8836 7.27711 11.7687 7.32918 11.6646C7.38125 11.5605 7.45685 11.4699 7.55 11.4L15.55 5.40001C15.662 5.31568 15.7954 5.26442 15.935 5.25204C16.0746 5.23967 16.2149 5.26668 16.34 5.33001C16.4629 5.39376 16.566 5.48986 16.6383 5.60793C16.7105 5.72601 16.7492 5.86158 16.75 6.00001V18C16.7492 18.1384 16.7105 18.274 16.6383 18.3921C16.566 18.5102 16.4629 18.6063 16.34 18.67C16.2335 18.7202 16.1177 18.7475 16 18.75V18.75ZM9.25 12L15.25 16.5V7.50001L9.25 12Z" fill="currentColor"/>
</g>
</g>
</g>
</svg>
