<svg width="24" height="24" viewBox="0 0 24 24" fill="none" xmlns="http://www.w3.org/2000/svg">
<g >
<g id="caret-right">
<g >
<path  d="M8 18.75C7.88537 18.7486 7.77256 18.7212 7.67 18.67C7.54453 18.6085 7.43873 18.5132 7.36453 18.3948C7.29032 18.2765 7.25065 18.1397 7.25 18V6C7.25065 5.86028 7.29032 5.72353 7.36453 5.60515C7.43873 5.48677 7.54453 5.39147 7.67 5.33C7.79355 5.26754 7.93214 5.24099 8.07002 5.25336C8.2079 5.26573 8.33955 5.31654 8.45 5.4L16.45 11.4C16.5431 11.4699 16.6187 11.5604 16.6708 11.6646C16.7229 11.7687 16.75 11.8836 16.75 12C16.75 12.1164 16.7229 12.2313 16.6708 12.3354C16.6187 12.4395 16.5431 12.5301 16.45 12.6L8.45 18.6C8.32052 18.698 8.1624 18.7507 8 18.75V18.75ZM8.75 7.5V16.5L14.75 12L8.75 7.5Z" fill="currentColor"/>
</g>
</g>
</g>
</svg>
