<svg width="24" height="24" viewBox="0 0 24 24" fill="none" xmlns="http://www.w3.org/2000/svg">
<g >
<g id="caret-up">
<g >
<path  d="M18 16.75H6.00004C5.86161 16.7492 5.72604 16.7105 5.60796 16.6383C5.48989 16.566 5.39379 16.4629 5.33004 16.34C5.26671 16.2149 5.2397 16.0746 5.25207 15.935C5.26445 15.7954 5.31571 15.662 5.40004 15.55L11.4 7.55001C11.4722 7.46029 11.5636 7.3879 11.6674 7.33816C11.7712 7.28842 11.8849 7.2626 12 7.2626C12.1152 7.2626 12.2288 7.28842 12.3327 7.33816C12.4365 7.3879 12.5279 7.46029 12.6 7.55001L18.6 15.55C18.6844 15.662 18.7356 15.7954 18.748 15.935C18.7604 16.0746 18.7334 16.2149 18.67 16.34C18.6063 16.4629 18.5102 16.566 18.3921 16.6383C18.274 16.7105 18.1385 16.7492 18 16.75ZM7.50004 15.25H16.5L12 9.25001L7.50004 15.25Z" fill="currentColor"/>
</g>
</g>
</g>
</svg>
