<svg width="24" height="24" viewBox="0 0 24 24" fill="none" xmlns="http://www.w3.org/2000/svg">
<g >
<g id="celandar">
<path  d="M17 4.25H15.75V3C15.75 2.80109 15.671 2.61032 15.5303 2.46967C15.3897 2.32902 15.1989 2.25 15 2.25C14.8011 2.25 14.6103 2.32902 14.4697 2.46967C14.329 2.61032 14.25 2.80109 14.25 3V4.25H9.75V3C9.75 2.80109 9.67098 2.61032 9.53033 2.46967C9.38968 2.32902 9.19891 2.25 9 2.25C8.80109 2.25 8.61032 2.32902 8.46967 2.46967C8.32902 2.61032 8.25 2.80109 8.25 3V4.25H7C6.27065 4.25 5.57118 4.53973 5.05546 5.05546C4.53973 5.57118 4.25 6.27065 4.25 7V18C4.25 18.7293 4.53973 19.4288 5.05546 19.9445C5.57118 20.4603 6.27065 20.75 7 20.75H17C17.7293 20.75 18.4288 20.4603 18.9445 19.9445C19.4603 19.4288 19.75 18.7293 19.75 18V7C19.75 6.27065 19.4603 5.57118 18.9445 5.05546C18.4288 4.53973 17.7293 4.25 17 4.25ZM7 5.75H8.25V7C8.25 7.19891 8.32902 7.38968 8.46967 7.53033C8.61032 7.67098 8.80109 7.75 9 7.75C9.19891 7.75 9.38968 7.67098 9.53033 7.53033C9.67098 7.38968 9.75 7.19891 9.75 7V5.75H14.25V7C14.25 7.19891 14.329 7.38968 14.4697 7.53033C14.6103 7.67098 14.8011 7.75 15 7.75C15.1989 7.75 15.3897 7.67098 15.5303 7.53033C15.671 7.38968 15.75 7.19891 15.75 7V5.75H17C17.3315 5.75 17.6495 5.8817 17.8839 6.11612C18.1183 6.35054 18.25 6.66848 18.25 7V9.75H5.75V7C5.75 6.66848 5.8817 6.35054 6.11612 6.11612C6.35054 5.8817 6.66848 5.75 7 5.75V5.75ZM17 19.25H7C6.66848 19.25 6.35054 19.1183 6.11612 18.8839C5.8817 18.6495 5.75 18.3315 5.75 18V11.25H18.25V18C18.25 18.3315 18.1183 18.6495 17.8839 18.8839C17.6495 19.1183 17.3315 19.25 17 19.25Z" fill="currentColor"/>
</g>
</g>
</svg>
