<svg width="24" height="24" viewBox="0 0 24 24" fill="none" xmlns="http://www.w3.org/2000/svg">
<g >
<g id="chart-pie">
<path  d="M13.25 4.79V4.5C13.2474 4.30189 13.1676 4.11263 13.0275 3.97253C12.8874 3.83244 12.6981 3.75259 12.5 3.75C10.9664 3.75888 9.46182 4.16837 8.13528 4.93789C6.80873 5.70741 5.70632 6.81024 4.9373 8.13708C4.16828 9.46391 3.75936 10.9687 3.75106 12.5022C3.74276 14.0358 4.13538 15.5449 4.89 16.88V16.88C4.9565 16.9932 5.05153 17.0869 5.16559 17.1518C5.27965 17.2167 5.40876 17.2506 5.54 17.25C5.66998 17.2497 5.79759 17.2152 5.91 17.15L6.2 17C6.95247 18.0543 7.95749 18.9029 9.12298 19.468C10.2885 20.0332 11.5771 20.2968 12.8709 20.2347C14.1647 20.1726 15.4222 19.7868 16.5283 19.1127C17.6343 18.4386 18.5534 17.4977 19.2015 16.3762C19.8496 15.2547 20.2058 13.9885 20.2376 12.6936C20.2695 11.3987 19.9758 10.1166 19.3835 8.96462C18.7913 7.81267 17.9194 6.82777 16.8478 6.10016C15.7762 5.37256 14.5392 4.92551 13.25 4.8V4.79ZM11.75 5.29V12.07L5.86 15.45C5.40097 14.4024 5.19524 13.2613 5.25949 12.1194C5.32374 10.9774 5.65616 9.86662 6.22982 8.8771C6.80347 7.88758 7.6022 7.04715 8.56127 6.42392C9.52035 5.8007 10.6128 5.41223 11.75 5.29ZM12.5 18.75C11.5292 18.7473 10.5722 18.5192 9.70453 18.0836C8.83686 17.648 8.0822 17.0169 7.5 16.24L12.87 13.15C12.9864 13.0864 13.0833 12.9923 13.1503 12.8778C13.2172 12.7632 13.2517 12.6326 13.25 12.5V6.3C14.8233 6.49998 16.2618 7.2906 17.2739 8.51165C18.2859 9.73269 18.796 11.2928 18.7006 12.8759C18.6053 14.459 17.9116 15.9467 16.7603 17.0374C15.6089 18.1281 14.0859 18.7403 12.5 18.75Z" fill="currentColor"/>
</g>
</g>
</svg>
