<svg width="24" height="24" viewBox="0 0 24 24" fill="none" xmlns="http://www.w3.org/2000/svg">
<g >
<g id="chart-line">
<path  d="M4.5 20.25C4.30189 20.2474 4.11263 20.1676 3.97253 20.0275C3.83244 19.8874 3.75259 19.6981 3.75 19.5V4.5C3.75 4.30109 3.82902 4.11032 3.96967 3.96967C4.11032 3.82902 4.30109 3.75 4.5 3.75C4.69891 3.75 4.88968 3.82902 5.03033 3.96967C5.17098 4.11032 5.25 4.30109 5.25 4.5V19.5C5.24741 19.6981 5.16756 19.8874 5.02747 20.0275C4.88737 20.1676 4.69811 20.2474 4.5 20.25V20.25Z" fill="currentColor"/>
<path  d="M19.5 20.25H4.5C4.30109 20.25 4.11032 20.171 3.96967 20.0303C3.82902 19.8897 3.75 19.6989 3.75 19.5C3.75 19.3011 3.82902 19.1103 3.96967 18.9697C4.11032 18.829 4.30109 18.75 4.5 18.75H19.5C19.6989 18.75 19.8897 18.829 20.0303 18.9697C20.171 19.1103 20.25 19.3011 20.25 19.5C20.25 19.6989 20.171 19.8897 20.0303 20.0303C19.8897 20.171 19.6989 20.25 19.5 20.25Z" fill="currentColor"/>
<path   d="M14 14.75C13.9015 14.7505 13.8038 14.7312 13.7128 14.6935C13.6218 14.6557 13.5392 14.6001 13.47 14.53L11 12.06L8.53 14.53C8.38782 14.6625 8.19978 14.7346 8.00548 14.7312C7.81118 14.7277 7.62579 14.649 7.48838 14.5116C7.35096 14.3742 7.27225 14.1888 7.26882 13.9945C7.2654 13.8002 7.33752 13.6122 7.47 13.47L10.47 10.47C10.6106 10.3295 10.8012 10.2507 11 10.2507C11.1987 10.2507 11.3894 10.3295 11.53 10.47L14 12.94L17.47 9.47C17.6122 9.33752 17.8002 9.2654 17.9945 9.26882C18.1888 9.27225 18.3742 9.35097 18.5116 9.48838C18.649 9.62579 18.7277 9.81118 18.7312 10.0055C18.7346 10.1998 18.6625 10.3878 18.53 10.53L14.53 14.53C14.4608 14.6001 14.3782 14.6557 14.2872 14.6935C14.1962 14.7312 14.0985 14.7505 14 14.75V14.75Z" fill="currentColor"/>
<path   d="M18.5 13.84C18.3019 13.8374 18.1126 13.7576 17.9725 13.6175C17.8324 13.4774 17.7526 13.2881 17.75 13.09V10.25H15C14.8011 10.25 14.6103 10.171 14.4697 10.0303C14.329 9.88968 14.25 9.69891 14.25 9.5C14.25 9.30109 14.329 9.11032 14.4697 8.96967C14.6103 8.82902 14.8011 8.75 15 8.75H18.5C18.6981 8.75259 18.8874 8.83244 19.0275 8.97253C19.1676 9.11263 19.2474 9.30189 19.25 9.5V13.09C19.2474 13.2881 19.1676 13.4774 19.0275 13.6175C18.8874 13.7576 18.6981 13.8374 18.5 13.84V13.84Z" fill="currentColor"/>
</g>
</g>
</svg>
