<svg width="24" height="24" viewBox="0 0 24 24" fill="none" xmlns="http://www.w3.org/2000/svg">
<g >
<g id="check-circle">
<path  d="M10.5 15.25C10.307 15.2352 10.1276 15.1455 9.99998 15L6.99998 12C6.93314 11.86 6.91133 11.7028 6.93756 11.5499C6.96379 11.3971 7.03676 11.2561 7.14643 11.1464C7.2561 11.0368 7.39707 10.9638 7.54993 10.9376C7.70279 10.9113 7.86003 10.9332 7.99998 11L10.47 13.47L19 5C19.1399 4.93316 19.2972 4.91135 19.45 4.93757C19.6029 4.9638 19.7439 5.03677 19.8535 5.14644C19.9632 5.25611 20.0362 5.39708 20.0624 5.54995C20.0886 5.70281 20.0668 5.86004 20 6L11 15C10.8724 15.1455 10.6929 15.2352 10.5 15.25V15.25Z" fill="currentColor"/>
<path  d="M12 21C10.3915 20.9974 8.813 20.5638 7.42891 19.7442C6.04481 18.9247 4.90566 17.7492 4.12999 16.34C3.54037 15.29 3.17596 14.1286 3.05999 12.93C2.87697 11.1721 3.2156 9.39918 4.03363 7.83246C4.85167 6.26574 6.1129 4.97457 7.65999 4.11999C8.71001 3.53038 9.87134 3.16597 11.07 3.04999C12.2641 2.92154 13.4719 3.03722 14.62 3.39C14.7224 3.41047 14.8195 3.45212 14.9049 3.51228C14.9903 3.57245 15.0622 3.6498 15.116 3.73938C15.1698 3.82895 15.2043 3.92878 15.2173 4.03246C15.2302 4.13613 15.2214 4.24137 15.1913 4.34143C15.1612 4.44149 15.1105 4.53415 15.0425 4.61349C14.9745 4.69283 14.8907 4.75708 14.7965 4.80214C14.7022 4.8472 14.5995 4.87206 14.4951 4.87513C14.3907 4.87821 14.2867 4.85943 14.19 4.82C13.2186 4.52792 12.1987 4.43272 11.19 4.53999C10.193 4.64208 9.22694 4.94482 8.34999 5.42999C7.50512 5.8961 6.75813 6.52085 6.14999 7.27C5.52385 8.03315 5.05628 8.91358 4.77467 9.85971C4.49307 10.8058 4.40308 11.7987 4.50999 12.78C4.61208 13.777 4.91482 14.743 5.39999 15.62C5.86609 16.4649 6.49084 17.2119 7.23999 17.82C8.00315 18.4461 8.88357 18.9137 9.8297 19.1953C10.7758 19.4769 11.7686 19.5669 12.75 19.46C13.747 19.3579 14.713 19.0552 15.59 18.57C16.4349 18.1039 17.1818 17.4791 17.79 16.73C18.4161 15.9668 18.8837 15.0864 19.1653 14.1403C19.4469 13.1941 19.5369 12.2013 19.43 11.22C19.4201 11.1169 19.4307 11.0129 19.461 10.9139C19.4914 10.8149 19.5409 10.7228 19.6069 10.6429C19.6728 10.5631 19.7538 10.497 19.8453 10.4485C19.9368 10.3999 20.0369 10.3698 20.14 10.36C20.2431 10.3501 20.3471 10.3607 20.4461 10.391C20.5451 10.4214 20.6372 10.471 20.717 10.5369C20.7969 10.6028 20.863 10.6838 20.9115 10.7753C20.9601 10.8668 20.9901 10.9669 21 11.07C21.1821 12.829 20.842 14.6026 20.0221 16.1694C19.2022 17.7362 17.9389 19.0268 16.39 19.88C15.3288 20.4937 14.1495 20.8755 12.93 21C12.62 21 12.3 21 12 21Z" fill="currentColor"/>
</g>
</g>
</svg>
