<svg width="24" height="24" viewBox="0 0 24 24" fill="none" xmlns="http://www.w3.org/2000/svg">
<g >
<g id="check">
<path  d="M8.99998 18.25C8.89927 18.2466 8.80031 18.2227 8.70918 18.1797C8.61804 18.1367 8.53664 18.0756 8.46998 18L3.46998 13C3.37464 12.9382 3.2946 12.8555 3.23589 12.7583C3.17718 12.661 3.14133 12.5517 3.13106 12.4385C3.12079 12.3253 3.13636 12.2113 3.1766 12.1051C3.21683 11.9988 3.28068 11.9031 3.36333 11.8252C3.44597 11.7472 3.54525 11.689 3.65366 11.655C3.76207 11.621 3.87679 11.6121 3.98915 11.629C4.10152 11.6458 4.20858 11.688 4.30227 11.7522C4.39596 11.8165 4.47382 11.9012 4.52998 12L8.99998 16.44L19.47 6C19.6109 5.90861 19.7785 5.86719 19.9458 5.88238C20.1131 5.89756 20.2705 5.96848 20.3927 6.08376C20.5149 6.19904 20.5948 6.352 20.6197 6.51814C20.6446 6.68428 20.613 6.85396 20.53 7L9.52998 18C9.46331 18.0756 9.38191 18.1367 9.29078 18.1797C9.19964 18.2227 9.10069 18.2466 8.99998 18.25Z" fill="currentColor"/>
</g>
</g>
</svg>
