<svg width="24" height="24" viewBox="0 0 24 24" fill="none" xmlns="http://www.w3.org/2000/svg">
<g >
<g id="chevron-up">
<path  d="M17 15.25C16.9015 15.2505 16.8038 15.2313 16.7128 15.1935C16.6218 15.1557 16.5392 15.1001 16.47 15.03L12 10.56L7.53 15C7.38904 15.0914 7.22148 15.1328 7.05418 15.1176C6.88687 15.1024 6.72951 15.0315 6.60731 14.9163C6.48512 14.801 6.40516 14.648 6.38026 14.4819C6.35536 14.3157 6.38696 14.146 6.46999 14L11.47 9.00001C11.6106 8.85956 11.8012 8.78067 12 8.78067C12.1987 8.78067 12.3894 8.85956 12.53 9.00001L17.53 14C17.6704 14.1406 17.7493 14.3313 17.7493 14.53C17.7493 14.7288 17.6704 14.9194 17.53 15.06C17.3853 15.1907 17.1948 15.259 17 15.25V15.25Z" fill="currentColor"/>
</g>
</g>
</svg>
