<svg width="24" height="24" viewBox="0 0 24 24" fill="none" xmlns="http://www.w3.org/2000/svg">
<g >
<g id="chevron-right">
<path  d="M10 17.75C9.90146 17.7505 9.80382 17.7312 9.7128 17.6935C9.62179 17.6557 9.53924 17.6001 9.47 17.53C9.32955 17.3894 9.25066 17.1987 9.25066 17C9.25066 16.8012 9.32955 16.6106 9.47 16.47L13.94 12L9.47 7.53C9.33752 7.38782 9.26539 7.19978 9.26882 7.00548C9.27225 6.81118 9.35096 6.62579 9.48837 6.48838C9.62579 6.35096 9.81117 6.27225 10.0055 6.26882C10.1998 6.2654 10.3878 6.33752 10.53 6.47L15.53 11.47C15.6704 11.6106 15.7493 11.8012 15.7493 12C15.7493 12.1987 15.6704 12.3894 15.53 12.53L10.53 17.53C10.4608 17.6001 10.3782 17.6557 10.2872 17.6935C10.1962 17.7312 10.0985 17.7505 10 17.75V17.75Z" fill="currentColor"/>
</g>
</g>
</svg>
