<svg width="24" height="24" viewBox="0 0 24 24" fill="none" xmlns="http://www.w3.org/2000/svg">
<g >
<g id="chevron-left">
<path  d="M14 17.75C13.9015 17.7505 13.8038 17.7312 13.7128 17.6935C13.6218 17.6557 13.5393 17.6001 13.47 17.53L8.47001 12.53C8.32956 12.3894 8.25067 12.1987 8.25067 12C8.25067 11.8012 8.32956 11.6106 8.47001 11.47L13.47 6.47C13.6122 6.33752 13.8002 6.2654 13.9945 6.26882C14.1888 6.27225 14.3742 6.35096 14.5116 6.48838C14.649 6.62579 14.7278 6.81118 14.7312 7.00548C14.7346 7.19978 14.6625 7.38782 14.53 7.53L10.06 12L14.53 16.47C14.6705 16.6106 14.7494 16.8012 14.7494 17C14.7494 17.1987 14.6705 17.3894 14.53 17.53C14.4608 17.6001 14.3782 17.6557 14.2872 17.6935C14.1962 17.7312 14.0986 17.7505 14 17.75V17.75Z" fill="currentColor"/>
</g>
</g>
</svg>
