<svg width="24" height="24" viewBox="0 0 24 24" fill="none" xmlns="http://www.w3.org/2000/svg">
<g >
<g id="chevron-circle-down">
<path  d="M12 21C10.22 21 8.47991 20.4722 6.99987 19.4832C5.51983 18.4943 4.36628 17.0887 3.68509 15.4442C3.0039 13.7996 2.82567 11.99 3.17294 10.2442C3.5202 8.49836 4.37737 6.89472 5.63604 5.63604C6.89472 4.37737 8.49836 3.5202 10.2442 3.17294C11.99 2.82567 13.7996 3.0039 15.4442 3.68509C17.0887 4.36628 18.4943 5.51983 19.4832 6.99987C20.4722 8.47991 21 10.22 21 12C21 14.387 20.0518 16.6761 18.364 18.364C16.6761 20.0518 14.387 21 12 21V21ZM12 4.5C10.5166 4.5 9.0666 4.93987 7.83323 5.76398C6.59986 6.58809 5.63856 7.75943 5.07091 9.12988C4.50325 10.5003 4.35473 12.0083 4.64411 13.4632C4.9335 14.918 5.64781 16.2544 6.6967 17.3033C7.7456 18.3522 9.08197 19.0665 10.5368 19.3559C11.9917 19.6453 13.4997 19.4968 14.8701 18.9291C16.2406 18.3614 17.4119 17.4001 18.236 16.1668C19.0601 14.9334 19.5 13.4834 19.5 12C19.5 10.0109 18.7098 8.10323 17.3033 6.6967C15.8968 5.29018 13.9891 4.5 12 4.5Z" fill="currentColor"/>
<path  d="M12 14.75C11.9015 14.7505 11.8038 14.7312 11.7128 14.6935C11.6218 14.6557 11.5393 14.6001 11.47 14.53L7.47003 10.53C7.33755 10.3878 7.26543 10.1998 7.26885 10.0055C7.27228 9.81118 7.35099 9.62579 7.48841 9.48838C7.62582 9.35097 7.81121 9.27225 8.00551 9.26882C8.19981 9.2654 8.38785 9.33752 8.53003 9.47L12 12.94L15.47 9.47C15.6122 9.33752 15.8003 9.2654 15.9946 9.26882C16.1889 9.27225 16.3742 9.35097 16.5117 9.48838C16.6491 9.62579 16.7278 9.81118 16.7312 10.0055C16.7346 10.1998 16.6625 10.3878 16.53 10.53L12.53 14.53C12.4608 14.6001 12.3782 14.6557 12.2872 14.6935C12.1962 14.7312 12.0986 14.7505 12 14.75V14.75Z" fill="currentColor"/>
</g>
</g>
</svg>
