<svg width="24" height="24" viewBox="0 0 24 24" fill="none" xmlns="http://www.w3.org/2000/svg">
<g >
<g id="chevron-down">
<path  d="M12 15.25C11.9015 15.2505 11.8038 15.2313 11.7128 15.1935C11.6218 15.1557 11.5392 15.1001 11.47 15.03L6.47 10.03C6.37028 9.88411 6.32527 9.70768 6.34293 9.53185C6.36059 9.35601 6.43977 9.19205 6.56651 9.06889C6.69326 8.94574 6.85942 8.87129 7.03569 8.85869C7.21196 8.84609 7.38703 8.89614 7.53 9.00001L12 13.44L16.47 9.00001C16.611 8.90862 16.7785 8.8672 16.9458 8.88238C17.1131 8.89757 17.2705 8.96849 17.3927 9.08377C17.5149 9.19905 17.5948 9.35201 17.6197 9.51815C17.6446 9.68428 17.613 9.85397 17.53 10L12.53 15C12.4633 15.0756 12.3819 15.1367 12.2908 15.1797C12.1997 15.2227 12.1007 15.2466 12 15.25V15.25Z" fill="currentColor"/>
</g>
</g>
</svg>
