<svg viewBox="0 0 20 16" fill="none" xmlns="http://www.w3.org/2000/svg">
<path d="M15.5 14.25C15.3011 14.25 15.1103 14.171 14.9697 14.0303C14.829 13.8897 14.75 13.6989 14.75 13.5C14.75 13.3011 14.829 13.1103 14.9697 12.9697C15.1103 12.829 15.3011 12.75 15.5 12.75C17.16 12.75 17.75 11.92 17.75 9.57C17.6777 8.73229 17.3121 7.94697 16.7176 7.35242C16.123 6.75787 15.3377 6.39226 14.5 6.32C14.1594 6.32865 13.8222 6.38935 13.5 6.5C13.4027 6.54069 13.2979 6.56011 13.1925 6.55698C13.0871 6.55384 12.9835 6.52822 12.8889 6.48182C12.7942 6.43542 12.7105 6.36932 12.6434 6.28795C12.5764 6.20657 12.5275 6.11181 12.5 6.01C12.1194 4.82085 11.3275 3.80627 10.2663 3.14834C9.20517 2.49041 7.94427 2.2322 6.70992 2.42007C5.47556 2.60793 4.34857 3.22956 3.5312 4.17339C2.71382 5.11723 2.25958 6.32147 2.25 7.57C2.25 11.01 3.01 12.75 4.5 12.75C4.69891 12.75 4.88968 12.829 5.03033 12.9697C5.17098 13.1103 5.25 13.3011 5.25 13.5C5.25 13.6989 5.17098 13.8897 5.03033 14.0303C4.88968 14.171 4.69891 14.25 4.5 14.25C2 14.25 0.749999 12 0.749999 7.57C0.718762 5.99376 1.24025 4.4563 2.224 3.22433C3.20776 1.99236 4.59171 1.1436 6.13579 0.825279C7.67988 0.50696 9.28668 0.739166 10.6775 1.48162C12.0683 2.22407 13.1553 3.42992 13.75 4.89C14.014 4.84233 14.2818 4.8189 14.55 4.82C15.785 4.89577 16.9496 5.42054 17.8245 6.29545C18.6995 7.17036 19.2242 8.33501 19.3 9.57C19.25 10.85 19.25 14.25 15.5 14.25Z" fill="currentColor"/>
<path d="M12.83 11.65C12.6316 11.6477 12.4417 11.5689 12.3 11.43L10 9.13001L7.7 11.43C7.55782 11.5625 7.36978 11.6346 7.17547 11.6312C6.98117 11.6278 6.79579 11.549 6.65838 11.4116C6.52096 11.2742 6.44225 11.0888 6.43882 10.8945C6.43539 10.7002 6.50752 10.5122 6.64 10.37L9.47 7.54001C9.53894 7.46925 9.62136 7.41301 9.71239 7.37462C9.80341 7.33622 9.9012 7.31644 10 7.31644C10.0988 7.31644 10.1966 7.33622 10.2876 7.37462C10.3786 7.41301 10.4611 7.46925 10.53 7.54001L13.36 10.37C13.5004 10.5106 13.5793 10.7013 13.5793 10.9C13.5793 11.0988 13.5004 11.2894 13.36 11.43C13.2172 11.5672 13.028 11.6457 12.83 11.65Z" fill="currentColor"/>
<path d="M10 15.18C9.80109 15.18 9.61032 15.101 9.46967 14.9603C9.32902 14.8197 9.25 14.6289 9.25 14.43V8.07001C9.25 7.87109 9.32902 7.68033 9.46967 7.53968C9.61032 7.39903 9.80109 7.32001 10 7.32001C10.1989 7.32001 10.3897 7.39903 10.5303 7.53968C10.671 7.68033 10.75 7.87109 10.75 8.07001V14.43C10.75 14.6289 10.671 14.8197 10.5303 14.9603C10.3897 15.101 10.1989 15.18 10 15.18Z" fill="currentColor"/>
</svg>
