<svg width="24" height="24" viewBox="0 0 24 24" fill="none" xmlns="http://www.w3.org/2000/svg">
<g >
<g id="cloud">
<path  d="M16.5 18.75H9.5C8.28168 18.7499 7.0861 18.4201 6.04006 17.7955C4.99402 17.1709 4.13652 16.2749 3.55852 15.2024C2.98052 14.1299 2.70356 12.921 2.75702 11.7038C2.81048 10.4867 3.19237 9.30667 3.86218 8.28899C4.53199 7.27132 5.46474 6.4539 6.56152 5.92343C7.65829 5.39296 8.87819 5.16923 10.0918 5.27595C11.3055 5.38268 12.4676 5.81589 13.455 6.52963C14.4423 7.24338 15.2181 8.21104 15.7 9.33C15.9637 9.27914 16.2315 9.25237 16.5 9.25C17.735 9.32578 18.8996 9.85055 19.7746 10.7255C20.6495 11.6004 21.1742 12.765 21.25 14C21.25 14.6238 21.1271 15.2415 20.8884 15.8177C20.6497 16.394 20.2998 16.9177 19.8588 17.3588C19.4177 17.7998 18.894 18.1497 18.3178 18.3884C17.7415 18.6271 17.1238 18.75 16.5 18.75V18.75ZM9.5 6.75C8.10762 6.75 6.77226 7.30313 5.78769 8.28769C4.80313 9.27226 4.25 10.6076 4.25 12C4.25 13.3924 4.80313 14.7277 5.78769 15.7123C6.77226 16.6969 8.10762 17.25 9.5 17.25H16.5C17.3611 17.2474 18.1863 16.9041 18.7952 16.2952C19.4041 15.6863 19.7474 14.8611 19.75 14C19.6777 13.1623 19.3121 12.377 18.7176 11.7824C18.123 11.1879 17.3377 10.8223 16.5 10.75C16.1585 10.7576 15.8205 10.8218 15.5 10.94C15.3139 11.0146 15.1062 11.0146 14.92 10.94C14.8318 10.8955 14.7535 10.8336 14.6899 10.758C14.6263 10.6823 14.5787 10.5946 14.55 10.5C14.2275 9.4126 13.5609 8.45919 12.6503 7.78299C11.7396 7.10679 10.6342 6.74431 9.5 6.75V6.75Z" fill="currentColor"/>
</g>
</g>
</svg>
