<svg width="24" height="24" viewBox="0 0 24 24" fill="none" xmlns="http://www.w3.org/2000/svg">
<g >
<g id="code">
<path  d="M9.53001 6.47001C9.38939 6.32956 9.19876 6.25067 9.00001 6.25067C8.80126 6.25067 8.61064 6.32956 8.47001 6.47001L3.47001 11.47C3.32956 11.6106 3.25067 11.8013 3.25067 12C3.25067 12.1988 3.32956 12.3894 3.47001 12.53L8.47001 17.53C8.61064 17.6705 8.80126 17.7494 9.00001 17.7494C9.19876 17.7494 9.38939 17.6705 9.53001 17.53C9.67046 17.3894 9.74935 17.1988 9.74935 17C9.74935 16.8013 9.67046 16.6106 9.53001 16.47L5.06001 12L9.53001 7.53001C9.67046 7.38939 9.74935 7.19876 9.74935 7.00001C9.74935 6.80126 9.67046 6.61064 9.53001 6.47001V6.47001Z" fill="currentColor"/>
<path  d="M20.53 11.47L15.53 6.47C15.3878 6.33752 15.1998 6.2654 15.0055 6.26882C14.8112 6.27225 14.6258 6.35096 14.4884 6.48838C14.351 6.62579 14.2723 6.81118 14.2688 7.00548C14.2654 7.19978 14.3375 7.38782 14.47 7.53L18.94 12L14.47 16.47C14.3296 16.6106 14.2507 16.8012 14.2507 17C14.2507 17.1987 14.3296 17.3894 14.47 17.53C14.6106 17.6705 14.8013 17.7493 15 17.7493C15.1988 17.7493 15.3894 17.6705 15.53 17.53L20.53 12.53C20.6705 12.3894 20.7494 12.1987 20.7494 12C20.7494 11.8012 20.6705 11.6106 20.53 11.47Z" fill="currentColor"/>
</g>
</g>
</svg>
