<svg xmlns="http://www.w3.org/2000/svg" viewBox="0 0 24 24" fill="currentColor" ><path d="M12 14.93a2.93 2.93 0 0 1-2.072-5.002A2.93 2.93 0 0 1 14.93 12 2.93 2.93 0 0 1 12 14.93zm0-4.36a1.43 1.43 0 0 0-1.011 2.441A1.43 1.43 0 0 0 13.43 12 1.43 1.43 0 0 0 12 10.57h0zm.06 10.18a2.22 2.22 0 0 1-2.21-2.24.48.48 0 0 0-.29-.42.51.51 0 0 0-.56.09 2.24 2.24 0 0 1-1.56.65 2.26 2.26 0 0 1-1.58-.63 2.22 2.22 0 0 1 0-3.14.5.5 0 0 0 .14-.52.56.56 0 0 0-.48-.28 2.27 2.27 0 0 1-2.26-2.2 2.22 2.22 0 0 1 2.23-2.21.48.48 0 0 0 .42-.29.51.51 0 0 0-.09-.56 2.24 2.24 0 0 1-.65-1.56 2.2 2.2 0 0 1 .63-1.58 2.22 2.22 0 0 1 3.14 0 .58.58 0 0 0 .55.14.6.6 0 0 0 .31-.48A2.27 2.27 0 0 1 12 3.25a2.22 2.22 0 0 1 2.2 2.24.52.52 0 0 0 .28.44.5.5 0 0 0 .52-.11 2.24 2.24 0 0 1 1.56-.65 2.13 2.13 0 0 1 1.58.63 2.22 2.22 0 0 1 0 3.14.58.58 0 0 0-.11.55.6.6 0 0 0 .48.31 2.27 2.27 0 0 1 2.24 2.2 2.22 2.22 0 0 1-2.24 2.2.52.52 0 0 0-.44.28h0a.5.5 0 0 0 .11.52 2.24 2.24 0 0 1 .65 1.56 2.2 2.2 0 0 1-.63 1.58 2.22 2.22 0 0 1-3.14 0 .5.5 0 0 0-.52-.11.56.56 0 0 0-.28.48 2.27 2.27 0 0 1-2.2 2.24zm-2.71-4.21a1.83 1.83 0 0 1 .77.16 2 2 0 0 1 1.23 1.8.74.74 0 0 0 .71.75.76.76 0 0 0 .7-.77 2.06 2.06 0 0 1 1.18-1.85 2 2 0 0 1 2.18.43c.133.133.313.207.5.207a.71.71 0 0 0 .5-.207c.133-.132.207-.312.207-.5a.71.71 0 0 0-.207-.5 2 2 0 0 1-.42-2.18 2 2 0 0 1 1.82-1.18.73.73 0 0 0 .74-.7.75.75 0 0 0-.77-.7 2.1 2.1 0 0 1-1.85-1.22 2.05 2.05 0 0 1 .43-2.2c.066-.066.118-.144.153-.229a.71.71 0 0 0 0-.541c-.035-.086-.088-.164-.153-.229a.71.71 0 0 0-.229-.153c-.085-.035-.178-.054-.271-.054a.7.7 0 0 0-.271.054c-.086.036-.164.088-.229.153a2 2 0 0 1-3.36-1.4.73.73 0 0 0-.7-.74.75.75 0 0 0-.7.77 2.1 2.1 0 0 1-1.22 1.85 2.05 2.05 0 0 1-2.2-.43c-.066-.066-.144-.118-.229-.153s-.178-.054-.271-.054a.7.7 0 0 0-.271.054c-.086.036-.164.088-.229.153a.71.71 0 0 0-.153.229c-.035.085-.054.178-.054.271a.7.7 0 0 0 .054.271c.036.086.088.164.153.229a2 2 0 0 1 .41 2.18 2 2 0 0 1-1.8 1.23.74.74 0 0 0-.75.71.76.76 0 0 0 .77.7 2.06 2.06 0 0 1 1.85 1.18 2 2 0 0 1-.43 2.18c-.066.066-.118.144-.153.229s-.054.178-.054.271a.7.7 0 0 0 .054.271c.036.086.088.164.153.229a.71.71 0 0 0 1 0 2.06 2.06 0 0 1 1.41-.57h0z"/></svg>