<svg viewBox="0 0 16 16" fill="none" xmlns="http://www.w3.org/2000/svg">
<g clip-path="url(#clip0_633_34390)">
<path d="M4.00014 4.00014L5.33346 2.66682M5.33346 2.66682L4.00014 1.3335M5.33346 2.66682H4.00014C2.52739 2.66682 1.3335 3.86071 1.3335 5.33346M12.0001 12.0001L10.6667 13.3334M10.6667 13.3334L12.0001 14.6667M10.6667 13.3334H12.0001C13.4728 13.3334 14.6667 12.1395 14.6667 10.6667M8.94487 8.94487C9.46637 9.19396 10.0503 9.33342 10.6667 9.33342C12.8759 9.33342 14.6667 7.54257 14.6667 5.33346C14.6667 3.12434 12.8759 1.3335 10.6667 1.3335C8.45762 1.3335 6.66678 3.12434 6.66678 5.33346C6.66678 5.94993 6.80623 6.53383 7.05532 7.05533M9.33342 10.6667C9.33342 12.8759 7.54257 14.6667 5.33346 14.6667C3.12434 14.6667 1.3335 12.8759 1.3335 10.6667C1.3335 8.45762 3.12434 6.66678 5.33346 6.66678C7.54257 6.66678 9.33342 8.45762 9.33342 10.6667Z" stroke="currentColor" stroke-width="1.33332" stroke-linecap="round" stroke-linejoin="round"/>
</g>
<defs>
<clipPath id="clip0_633_34390">
<rect width="15.9998" height="15.9998" fill="white"/>
</clipPath>
</defs>
</svg>
