<svg width="24" height="24" viewBox="0 0 24 24" fill="none" xmlns="http://www.w3.org/2000/svg">
<g >
<g id="comments">
<path  d="M4.24999 17.31C4.12892 17.3121 4.00915 17.2848 3.9009 17.2306C3.79266 17.1763 3.69916 17.0966 3.62841 16.9983C3.55766 16.9001 3.51175 16.7861 3.49461 16.6663C3.47747 16.5464 3.48961 16.4242 3.52999 16.31L4.77999 12.19C4.52436 11.4877 4.38913 10.7473 4.37999 10C4.37802 9.1374 4.55154 8.28342 4.88999 7.49C5.30028 6.51283 5.94398 5.65121 6.76468 4.98066C7.58537 4.3101 8.55801 3.85106 9.59735 3.64379C10.6367 3.43651 11.711 3.48732 12.7261 3.79176C13.7413 4.0962 14.6662 4.64498 15.42 5.39C16.0049 5.98422 16.473 6.683 16.8 7.45C17.1322 8.2416 17.3033 9.09149 17.3033 9.95C17.3033 10.8085 17.1322 11.6584 16.8 12.45C16.473 13.217 16.0049 13.9158 15.42 14.51C14.5431 15.3853 13.4337 15.9909 12.2231 16.255C11.0126 16.5191 9.75176 16.4306 8.58999 16L4.46999 17.28C4.39833 17.2998 4.32434 17.3099 4.24999 17.31V17.31ZM10.84 5C10.1769 4.99807 9.52031 5.13074 8.90999 5.39C7.72766 5.88896 6.78244 6.82344 6.26999 8C6.01284 8.6127 5.88039 9.27052 5.88039 9.935C5.88039 10.5995 6.01284 11.2573 6.26999 11.87C6.32957 12.0348 6.32957 12.2152 6.26999 12.38L5.34999 15.38L8.34999 14.46C8.51477 14.4004 8.69521 14.4004 8.85999 14.46C10.0743 14.9643 11.4383 14.97 12.6567 14.4759C13.8752 13.9818 14.85 13.0276 15.37 11.82C15.6626 11.072 15.7707 10.2645 15.6852 9.46589C15.5996 8.66727 15.323 7.901 14.8786 7.23195C14.4342 6.5629 13.8351 6.01075 13.1321 5.62224C12.4292 5.23373 11.6429 5.0203 10.84 5V5Z" fill="currentColor"/>
<path  d="M19.75 20.5C19.677 20.5098 19.603 20.5098 19.53 20.5L15.41 19.25C13.8621 19.8345 12.1484 19.7988 10.6262 19.1504C9.10407 18.502 7.89098 17.291 7.23998 15.77C7.19548 15.68 7.17003 15.5818 7.16521 15.4815C7.16039 15.3812 7.17631 15.281 7.21198 15.1872C7.24764 15.0933 7.30228 15.0078 7.37248 14.936C7.44269 14.8643 7.52694 14.8077 7.61998 14.77C7.71046 14.7284 7.80831 14.7052 7.90783 14.7019C8.00736 14.6985 8.10655 14.715 8.19964 14.7504C8.29272 14.7857 8.37783 14.8393 8.45 14.9079C8.52217 14.9765 8.57995 15.0588 8.61998 15.15C8.85767 15.7165 9.19653 16.2349 9.61998 16.68C10.3211 17.3735 11.2117 17.8441 12.1797 18.0327C13.1476 18.2213 14.1497 18.1195 15.06 17.74C15.2248 17.6804 15.4052 17.6804 15.57 17.74L18.57 18.66L17.65 15.66C17.5904 15.4952 17.5904 15.3148 17.65 15.15C17.9092 14.5397 18.0419 13.8831 18.04 13.22C18.0423 12.5681 17.9154 11.9223 17.6665 11.3198C17.4176 10.7173 17.0517 10.1701 16.59 9.71C16.3877 9.45434 16.1635 9.21678 15.92 9C15.8325 8.94754 15.7567 8.8778 15.6972 8.79505C15.6376 8.7123 15.5955 8.61827 15.5735 8.51871C15.5515 8.41915 15.55 8.31614 15.5692 8.21599C15.5883 8.11585 15.6277 8.02065 15.6849 7.93624C15.7421 7.85182 15.8159 7.77995 15.9018 7.72502C15.9877 7.67009 16.0839 7.63325 16.1845 7.61675C16.2851 7.60026 16.3881 7.60445 16.487 7.62908C16.5859 7.65371 16.6788 7.69826 16.76 7.76C17.1177 7.99091 17.4525 8.25544 17.76 8.55C18.3481 9.14159 18.8166 9.84102 19.14 10.61C19.4792 11.4067 19.6527 12.2641 19.65 13.13C19.6479 13.8975 19.5125 14.6588 19.25 15.38L20.5 19.5C20.5404 19.6142 20.5525 19.7364 20.5354 19.8563C20.5182 19.9761 20.4723 20.0901 20.4016 20.1883C20.3308 20.2866 20.2373 20.3663 20.1291 20.4206C20.0208 20.4748 19.901 20.5021 19.78 20.5H19.75Z" fill="currentColor"/>
</g>
</g>
</svg>
