<svg width="24" height="24" viewBox="0 0 24 24" fill="none" xmlns="http://www.w3.org/2000/svg">
<path d="M7.93018 12C8.05018 7.37 9.10018 1.5 11.9002 1.5C14.3502 1.5 14.7802 6.65 14.9002 10.08" stroke="black" stroke-miterlimit="10"/>
<path d="M15.13 15.0901C15.43 17.2301 15.88 19.3101 15.88 20.5901C15.88 21.8701 16.11 22.5001 13.88 22.5001C12.23 22.5001 9.19998 19.2701 8.22998 15.4001" stroke="black" stroke-miterlimit="10"/>
<path d="M10.8998 13C10.8998 13 7.89983 13 7.89983 17.78C7.89983 22.56 5.80983 19.48 4.89983 17.78C3.89983 15.87 3.89983 12.05 6.89983 12.05C9.89983 12.05 10.8998 13 10.8998 13Z" stroke="black" stroke-miterlimit="10"/>
<path d="M10.8999 13C10.8999 13 13.6399 11.61 15.5599 16C17.4799 20.39 18.4099 16.71 18.6299 14.76C18.8899 12.59 17.3499 9.07001 14.2799 10.3C11.2099 11.53 10.8999 13 10.8999 13Z" stroke="black" stroke-miterlimit="10"/>
<path d="M11 13C11 13 12 16.82 12.91 17.78" stroke="black" stroke-miterlimit="10"/>
</svg>
