<svg width="24" height="24" viewBox="0 0 24 24" fill="none" xmlns="http://www.w3.org/2000/svg">
<path d="M9.61006 12.0302C11.9849 12.0302 13.9101 10.105 13.9101 7.73018C13.9101 5.35535 11.9849 3.43018 9.61006 3.43018C7.23523 3.43018 5.31006 5.35535 5.31006 7.73018C5.31006 10.105 7.23523 12.0302 9.61006 12.0302Z" stroke="#343A40" stroke-miterlimit="10"/>
<path d="M1.5 21.57L2.19 18.11C2.52985 16.3908 3.45489 14.8425 4.80771 13.7285C6.16053 12.6145 7.85755 12.0037 9.61 12C11.3583 12.0069 13.0502 12.6195 14.3976 13.7335C15.745 14.8475 16.6647 16.3941 17 18.11L17.7 21.57" stroke="#343A40" stroke-miterlimit="10"/>
<path d="M12 11.3002C12.6472 11.7347 13.4003 11.9851 14.1787 12.0246C14.9572 12.0642 15.7318 11.8914 16.4197 11.5247C17.1075 11.158 17.6828 10.6112 18.0839 9.94287C18.485 9.2745 18.6969 8.50967 18.6969 7.73018C18.6969 6.95069 18.485 6.18585 18.0839 5.51749C17.6828 4.84912 17.1075 4.30235 16.4197 3.93566C15.7318 3.56898 14.9572 3.39617 14.1787 3.43571C13.4003 3.47526 12.6472 3.72567 12 4.16018" stroke="#343A40" stroke-miterlimit="10"/>
<path d="M22.5 21.5698L21.8 18.0998C21.5912 17.0483 21.1609 16.0532 20.5377 15.1809C19.9145 14.3086 19.1126 13.5791 18.1855 13.0408C17.2584 12.5025 16.2272 12.1678 15.1607 12.059C14.0942 11.9502 13.0167 12.0698 12 12.4098" stroke="#343A40" stroke-miterlimit="10"/>
</svg>
