

<svg width="24" height="24" viewBox="0 0 24 24" fill="none" xmlns="http://www.w3.org/2000/svg">
<g >
<g id="credit-card">
<path  d="M19 5.25H5C4.53668 5.25263 4.09309 5.43784 3.76546 5.76546C3.43784 6.09309 3.25263 6.53668 3.25 7V17C3.25263 17.4633 3.43784 17.9069 3.76546 18.2345C4.09309 18.5622 4.53668 18.7474 5 18.75H19C19.4633 18.7474 19.9069 18.5622 20.2345 18.2345C20.5622 17.9069 20.7474 17.4633 20.75 17V7C20.7474 6.53668 20.5622 6.09309 20.2345 5.76546C19.9069 5.43784 19.4633 5.25263 19 5.25ZM5 6.75H19C19.0663 6.75 19.1299 6.77634 19.1768 6.82322C19.2237 6.87011 19.25 6.9337 19.25 7V9.25H4.75V7C4.75 6.9337 4.77634 6.87011 4.82322 6.82322C4.87011 6.77634 4.9337 6.75 5 6.75ZM19 17.25H5C4.9337 17.25 4.87011 17.2237 4.82322 17.1768C4.77634 17.1299 4.75 17.0663 4.75 17V10.75H19.25V17C19.25 17.0663 19.2237 17.1299 19.1768 17.1768C19.1299 17.2237 19.0663 17.25 19 17.25Z" fill="currentColor"/>
<path  d="M9 13H7C6.73478 13 6.48043 13.1054 6.29289 13.2929C6.10536 13.4804 6 13.7348 6 14C6 14.2652 6.10536 14.5196 6.29289 14.7071C6.48043 14.8946 6.73478 15 7 15H9C9.26522 15 9.51957 14.8946 9.70711 14.7071C9.89464 14.5196 10 14.2652 10 14C10 13.7348 9.89464 13.4804 9.70711 13.2929C9.51957 13.1054 9.26522 13 9 13Z" fill="currentColor"/>
</g>
</g>
</svg>
