<svg width="24" height="24" viewBox="0 0 24 24" fill="none" xmlns="http://www.w3.org/2000/svg">
<path d="M2.4502 20.59H21.5502" stroke="black" stroke-miterlimit="10"/>
<path d="M2.45996 7.22998L4.35996 13.91V20.59H19.64V13.91L21.55 7.22998" stroke="black" stroke-miterlimit="10"/>
<path d="M21.55 7.23001L15.82 10.09L12 5.32001" stroke="black" stroke-miterlimit="10"/>
<path d="M12 5.32001L8.17996 10.09L2.45996 7.23001" stroke="black" stroke-miterlimit="10"/>
<path d="M11.9998 17.72C13.0547 17.72 13.9098 16.4395 13.9098 14.86C13.9098 13.2805 13.0547 12 11.9998 12C10.945 12 10.0898 13.2805 10.0898 14.86C10.0898 16.4395 10.945 17.72 11.9998 17.72Z" stroke="black" stroke-miterlimit="10"/>
<path d="M15.8198 14.86H19.6398" stroke="black" stroke-miterlimit="10"/>
<path d="M8.17986 14.86H4.35986" stroke="black" stroke-miterlimit="10"/>
<path d="M11.9998 5.30997C12.5245 5.30997 12.9498 4.88464 12.9498 4.35997C12.9498 3.8353 12.5245 3.40997 11.9998 3.40997C11.4751 3.40997 11.0498 3.8353 11.0498 4.35997C11.0498 4.88464 11.4751 5.30997 11.9998 5.30997Z" stroke="black" stroke-miterlimit="10"/>
<path d="M2.45 7.22001C2.97467 7.22001 3.4 6.79468 3.4 6.27001C3.4 5.74534 2.97467 5.32001 2.45 5.32001C1.92533 5.32001 1.5 5.74534 1.5 6.27001C1.5 6.79468 1.92533 7.22001 2.45 7.22001Z" stroke="black" stroke-miterlimit="10"/>
<path d="M21.5501 7.22001C22.0748 7.22001 22.5001 6.79468 22.5001 6.27001C22.5001 5.74534 22.0748 5.32001 21.5501 5.32001C21.0254 5.32001 20.6001 5.74534 20.6001 6.27001C20.6001 6.79468 21.0254 7.22001 21.5501 7.22001Z" stroke="black" stroke-miterlimit="10"/>
</svg>
