<svg width="24" height="24" viewBox="0 0 24 24" fill="none" xmlns="http://www.w3.org/2000/svg">
<g clip-path="url(#clip0_1014_6527)">
<path d="M18.7 9.10994H17.7V7.19994C17.7027 5.68184 17.1049 4.22427 16.0371 3.1452C14.9693 2.06614 13.518 1.45314 12 1.43994H11.79C10.8038 1.48221 9.84506 1.77765 9.00614 2.29782C8.16721 2.81799 7.47632 3.54537 6.99998 4.40994L6.86998 4.66994C6.49472 5.4628 6.28381 6.32341 6.24998 7.19994C5.61805 7.19597 4.99161 7.31734 4.4069 7.55703C3.82218 7.79672 3.2908 8.14998 2.84348 8.59636C2.39617 9.04274 2.04181 9.57339 1.8009 10.1576C1.56 10.7418 1.43732 11.368 1.43998 11.9999C1.43472 12.0665 1.43472 12.1334 1.43998 12.1999C1.49146 13.4345 2.01708 14.6017 2.90744 15.4586C3.7978 16.3154 4.9843 16.7959 6.21998 16.7999H18.7C19.2055 16.8004 19.7061 16.7008 20.1729 16.5069C20.6398 16.3129 21.0636 16.0285 21.42 15.6699C22.0688 15.0107 22.4622 14.1424 22.53 13.2199C22.535 13.1333 22.535 13.0465 22.53 12.9599C22.5313 12.4557 22.4333 11.9561 22.2415 11.4897C22.0497 11.0233 21.768 10.5992 21.4123 10.2417C21.0567 9.88421 20.6341 9.60026 20.1687 9.40607C19.7033 9.21188 19.2043 9.11125 18.7 9.10994Z" stroke="black" stroke-miterlimit="10"/>
<path d="M11.9897 16.7899V23.4999" stroke="black" stroke-miterlimit="10"/>
<path d="M4.31982 22.5399H6.22982C6.73904 22.5399 7.2274 22.3376 7.58747 21.9776C7.94754 21.6175 8.14982 21.1291 8.14982 20.6199V16.7899" stroke="black" stroke-miterlimit="10"/>
<path d="M15.8301 16.7899V20.6199C15.8288 20.8716 15.8772 21.121 15.9726 21.3539C16.068 21.5868 16.2085 21.7985 16.386 21.977C16.5635 22.1554 16.7745 22.297 17.0069 22.3936C17.2392 22.4902 17.4884 22.5399 17.7401 22.5399H19.6601" stroke="black" stroke-miterlimit="10"/>
</g>
<defs>
<clipPath id="clip0_1014_6527">
<rect width="24" height="24" fill="white"/>
</clipPath>
</defs>
</svg>
