<svg width="24" height="24" viewBox="0 0 24 24" fill="none" xmlns="http://www.w3.org/2000/svg">
<g >
<g id="database">
<path  d="M19.48 4.54C17.1332 3.44415 14.5887 2.83523 12 2.75C9.41135 2.83523 6.86681 3.44415 4.52 4.54C4.21867 4.68158 3.96428 4.90664 3.78702 5.18847C3.60977 5.47031 3.5171 5.79708 3.52 6.13V17.87C3.5171 18.2029 3.60977 18.5297 3.78702 18.8115C3.96428 19.0934 4.21867 19.3184 4.52 19.46C6.86681 20.5559 9.41135 21.1648 12 21.25C14.5887 21.1648 17.1332 20.5559 19.48 19.46C19.7813 19.3184 20.0357 19.0934 20.213 18.8115C20.3902 18.5297 20.4829 18.2029 20.48 17.87V6.13C20.4829 5.79708 20.3902 5.47031 20.213 5.18847C20.0357 4.90664 19.7813 4.68158 19.48 4.54V4.54ZM19 12.54C16.8088 13.5858 14.4264 14.1712 12 14.26C9.57363 14.1712 7.19123 13.5858 5 12.54V8.68C7.20967 9.65164 9.58702 10.1848 12 10.25C14.413 10.1848 16.7903 9.65164 19 8.68V12.54ZM5.15 5.9C7.29841 4.89285 9.62864 4.33155 12 4.25C14.3743 4.33323 16.7075 4.89442 18.86 5.9C18.9021 5.92191 18.9374 5.95492 18.9621 5.99547C18.9868 6.03601 18.9999 6.08254 19 6.13V7C16.8088 8.0458 14.4264 8.63119 12 8.72C9.57363 8.63119 7.19123 8.0458 5 7V6.1C5.00525 6.05643 5.02187 6.01501 5.0482 5.9799C5.07454 5.9448 5.10964 5.91724 5.15 5.9V5.9ZM18.85 18.1C16.7016 19.1071 14.3714 19.6684 12 19.75C9.62566 19.6668 7.29249 19.1056 5.14 18.1C5.09789 18.0781 5.06259 18.0451 5.03791 18.0045C5.01323 17.964 5.00012 17.9175 5 17.87V14.18C7.20967 15.1516 9.58702 15.6848 12 15.75C14.413 15.6848 16.7903 15.1516 19 14.18V17.87C19.0002 17.9188 18.9861 17.9666 18.9594 18.0074C18.9328 18.0483 18.8947 18.0805 18.85 18.1Z" fill="currentColor"/>
</g>
</g>
</svg>
