<svg width="24" height="24" viewBox="0 0 24 24" fill="none" xmlns="http://www.w3.org/2000/svg">
<g >
<g id="desktop">
<path  d="M19 16.75H5C4.53668 16.7474 4.09309 16.5622 3.76546 16.2345C3.43784 15.9069 3.25263 15.4633 3.25 15V5C3.25263 4.53668 3.43784 4.09309 3.76546 3.76546C4.09309 3.43784 4.53668 3.25263 5 3.25H19C19.4633 3.25263 19.9069 3.43784 20.2345 3.76546C20.5622 4.09309 20.7474 4.53668 20.75 5V15C20.7474 15.4633 20.5622 15.9069 20.2345 16.2345C19.9069 16.5622 19.4633 16.7474 19 16.75V16.75ZM5 4.75C4.9337 4.75 4.87011 4.77634 4.82322 4.82322C4.77634 4.87011 4.75 4.9337 4.75 5V15C4.75 15.0663 4.77634 15.1299 4.82322 15.1768C4.87011 15.2237 4.9337 15.25 5 15.25H19C19.0663 15.25 19.1299 15.2237 19.1768 15.1768C19.2237 15.1299 19.25 15.0663 19.25 15V5C19.25 4.9337 19.2237 4.87011 19.1768 4.82322C19.1299 4.77634 19.0663 4.75 19 4.75H5Z" fill="currentColor"/>
<path  d="M15 20.75H12C11.8019 20.7474 11.6126 20.6676 11.4725 20.5275C11.3324 20.3874 11.2526 20.1981 11.25 20V16C11.25 15.8011 11.329 15.6103 11.4697 15.4697C11.6103 15.329 11.8011 15.25 12 15.25C12.1989 15.25 12.3897 15.329 12.5303 15.4697C12.671 15.6103 12.75 15.8011 12.75 16V19.25H15C15.1989 19.25 15.3897 19.329 15.5303 19.4697C15.671 19.6103 15.75 19.8011 15.75 20C15.75 20.1989 15.671 20.3897 15.5303 20.5303C15.3897 20.671 15.1989 20.75 15 20.75Z" fill="currentColor"/>
<path  d="M12 20.75H9C8.80109 20.75 8.61032 20.671 8.46967 20.5303C8.32902 20.3897 8.25 20.1989 8.25 20C8.25 19.8011 8.32902 19.6103 8.46967 19.4697C8.61032 19.329 8.80109 19.25 9 19.25H12C12.1989 19.25 12.3897 19.329 12.5303 19.4697C12.671 19.6103 12.75 19.8011 12.75 20C12.75 20.1989 12.671 20.3897 12.5303 20.5303C12.3897 20.671 12.1989 20.75 12 20.75Z" fill="currentColor"/>
</g>
</g>
</svg>
