<svg width="24" height="24" viewBox="0 0 24 24" fill="none" xmlns="http://www.w3.org/2000/svg">
<g >
<g id="directions-alt">
<path  d="M12 21.25C11.7623 21.25 11.5269 21.2033 11.3073 21.1123C11.0877 21.0214 10.8881 20.8881 10.72 20.72L3.28 13.28C3.11188 13.1119 2.97853 12.9124 2.88754 12.6928C2.79656 12.4731 2.74973 12.2377 2.74973 12C2.74973 11.7623 2.79656 11.5269 2.88754 11.3073C2.97853 11.0876 3.11188 10.8881 3.28 10.72L10.72 3.28001C11.0656 2.95224 11.5237 2.76953 12 2.76953C12.4763 2.76953 12.9344 2.95224 13.28 3.28001L20.72 10.72C20.8881 10.8881 21.0215 11.0876 21.1125 11.3073C21.2034 11.5269 21.2503 11.7623 21.2503 12C21.2503 12.2377 21.2034 12.4731 21.1125 12.6928C21.0215 12.9124 20.8881 13.1119 20.72 13.28L13.28 20.72C13.1119 20.8881 12.9123 21.0214 12.6927 21.1123C12.4731 21.2033 12.2377 21.25 12 21.25V21.25ZM12 4.25001C11.9605 4.24875 11.9213 4.25616 11.885 4.27171C11.8487 4.28726 11.8163 4.31057 11.79 4.34001L4.34 11.79C4.31156 11.8171 4.28892 11.8497 4.27345 11.8858C4.25798 11.9219 4.25 11.9607 4.25 12C4.25 12.0393 4.25798 12.0782 4.27345 12.1143C4.28892 12.1503 4.31156 12.1829 4.34 12.21L11.79 19.66C11.8127 19.6951 11.8438 19.7239 11.8804 19.7439C11.9171 19.7639 11.9582 19.7744 12 19.7744C12.0418 19.7744 12.0829 19.7639 12.1196 19.7439C12.1562 19.7239 12.1873 19.6951 12.21 19.66L19.66 12.21C19.6884 12.1829 19.7111 12.1503 19.7266 12.1143C19.742 12.0782 19.75 12.0393 19.75 12C19.75 11.9607 19.742 11.9219 19.7266 11.8858C19.7111 11.8497 19.6884 11.8171 19.66 11.79L12.21 4.34001C12.1837 4.31057 12.1513 4.28726 12.115 4.27171C12.0787 4.25616 12.0395 4.24875 12 4.25001Z" fill="currentColor"/>
<path  d="M10.73 14.42C10.6315 14.4205 10.5338 14.4013 10.4428 14.3635C10.3518 14.3257 10.2692 14.2701 10.2 14.2L7.99999 12C7.85954 11.8594 7.78065 11.6688 7.78065 11.47C7.78065 11.2713 7.85954 11.0806 7.99999 10.94L10.2 8.72001C10.3406 8.57956 10.5312 8.50067 10.73 8.50067C10.9287 8.50067 11.1194 8.57956 11.26 8.72001C11.4004 8.86064 11.4793 9.05126 11.4793 9.25001C11.4793 9.44876 11.4004 9.63939 11.26 9.78001L9.56 11.46L11.26 13.14C11.4004 13.2806 11.4793 13.4713 11.4793 13.67C11.4793 13.8688 11.4004 14.0594 11.26 14.2C11.1908 14.2701 11.1082 14.3257 11.0172 14.3635C10.9262 14.4013 10.8285 14.4205 10.73 14.42V14.42Z" fill="currentColor"/>
<path  d="M15.5 15C15.3019 14.9974 15.1126 14.9176 14.9725 14.7775C14.8324 14.6374 14.7526 14.4481 14.75 14.25V12.25H8.5C8.30109 12.25 8.11032 12.171 7.96967 12.0303C7.82902 11.8897 7.75 11.6989 7.75 11.5C7.75 11.3011 7.82902 11.1103 7.96967 10.9697C8.11032 10.829 8.30109 10.75 8.5 10.75H15.5C15.6981 10.7526 15.8874 10.8324 16.0275 10.9725C16.1676 11.1126 16.2474 11.3019 16.25 11.5V14.29C16.2374 14.4811 16.1532 14.6603 16.0141 14.792C15.8751 14.9236 15.6915 14.9979 15.5 15V15Z" fill="currentColor"/>
</g>
</g>
</svg>
