<svg xmlns="http://www.w3.org/2000/svg" viewBox="0 0 24 24" fill="none" ><path d="M14.29 11.6a.82.82 0 0 1-.552.706.82.82 0 0 1-.868-.22.82.82 0 0 1-.149-.883.82.82 0 0 1 .749-.492.85.85 0 0 1 .596.273.85.85 0 0 1 .224.617zm-3.74-.89a.89.89 0 0 0-.87.498.89.89 0 0 0 .146.992.89.89 0 0 0 .977.226.89.89 0 0 0 .568-.827.85.85 0 0 0-.224-.617.85.85 0 0 0-.596-.273h0zM19 5.65V20l-3.71-3.37.42 1.48H6.64a1.64 1.64 0 0 1-1.163-.484A1.64 1.64 0 0 1 5 16.46V5.65A1.65 1.65 0 0 1 6.64 4h10.72A1.65 1.65 0 0 1 19 5.65zm-2.28 7.58a10.73 10.73 0 0 0-1.15-4.66 3.9 3.9 0 0 0-2.25-.84l-.11.13a5.25 5.25 0 0 1 2 1 6.81 6.81 0 0 0-6-.23l-.47.23a5.51 5.51 0 0 1 2.11-1l-.08-.09a3.9 3.9 0 0 0-2.25.84 10.73 10.73 0 0 0-1.15 4.66 2.9 2.9 0 0 0 2.44 1.22l.53-.67A2.5 2.5 0 0 1 9 12.84l.33.2a5.83 5.83 0 0 0 5 .28c.323-.123.631-.28.92-.47a2.55 2.55 0 0 1-1.45 1l.53.65a2.93 2.93 0 0 0 2.45-1.22l-.06-.05z" fill="currentColor"/></svg>