<svg width="24" height="24" viewBox="0 0 24 24" fill="none" xmlns="http://www.w3.org/2000/svg">
<g >
<g id="discord">
<path  d="M14.29 11.6C14.2764 11.7585 14.217 11.9096 14.1191 12.0349C14.0211 12.1603 13.8888 12.2544 13.7383 12.3059C13.5878 12.3574 13.4256 12.3639 13.2714 12.3248C13.1172 12.2857 12.9777 12.2026 12.8699 12.0856C12.7622 11.9686 12.6907 11.8228 12.6643 11.666C12.638 11.5091 12.6578 11.3479 12.7214 11.2021C12.785 11.0563 12.8896 10.9322 13.0225 10.8448C13.1555 10.7574 13.3109 10.7106 13.47 10.71C13.5825 10.7138 13.6932 10.74 13.7955 10.787C13.8978 10.8339 13.9898 10.9007 14.0661 10.9835C14.1424 11.0664 14.2015 11.1635 14.2399 11.2693C14.2783 11.3751 14.2954 11.4875 14.29 11.6ZM10.55 10.71C10.3717 10.6959 10.1932 10.7359 10.038 10.8248C9.88269 10.9136 9.7578 11.0472 9.67958 11.2081C9.60137 11.369 9.57345 11.5497 9.59947 11.7267C9.62549 11.9037 9.70425 12.0687 9.82547 12.2003C9.94668 12.3319 10.1047 12.4238 10.279 12.4642C10.4533 12.5047 10.6357 12.4916 10.8024 12.4268C10.9692 12.362 11.1125 12.2484 11.2137 12.1009C11.315 11.9535 11.3694 11.7789 11.37 11.6C11.3754 11.4875 11.3583 11.3751 11.3199 11.2693C11.2815 11.1635 11.2224 11.0664 11.1461 10.9835C11.0698 10.9007 10.9778 10.8339 10.8755 10.787C10.7732 10.74 10.6625 10.7138 10.55 10.71V10.71ZM19 5.65V20C17 18.22 17.63 18.81 15.29 16.63L15.71 18.11H6.64C6.42379 18.11 6.20971 18.0673 6.01008 17.9842C5.81045 17.9012 5.62921 17.7795 5.4768 17.6261C5.32438 17.4728 5.20378 17.2908 5.12196 17.0907C5.04013 16.8905 4.99868 16.6762 5 16.46V5.65C4.99999 5.21412 5.17246 4.79594 5.47973 4.48679C5.78701 4.17765 6.20413 4.00264 6.64 4H17.36C17.7959 4.00264 18.213 4.17765 18.5203 4.48679C18.8275 4.79594 19 5.21412 19 5.65ZM16.72 13.23C16.6935 11.6098 16.3003 10.0166 15.57 8.57C14.927 8.06029 14.1397 7.76635 13.32 7.73L13.21 7.86C13.9407 8.04585 14.6229 8.38691 15.21 8.86C14.294 8.36567 13.2768 8.0879 12.2367 8.04803C11.1966 8.00816 10.1612 8.20725 9.21 8.63L8.74 8.86C9.36382 8.37976 10.0833 8.03877 10.85 7.86L10.77 7.77C9.95031 7.80635 9.16297 8.10029 8.52 8.61C7.78971 10.0566 7.39654 11.6498 7.37 13.27C7.64544 13.6579 8.01208 13.9721 8.43759 14.1848C8.8631 14.3976 9.33442 14.5024 9.81 14.49L10.34 13.82C9.79475 13.6555 9.322 13.3098 9 12.84L9.33 13.04C10.0903 13.4552 10.9335 13.6958 11.7984 13.7442C12.6633 13.7926 13.5281 13.6477 14.33 13.32C14.6529 13.1975 14.9615 13.0399 15.25 12.85C14.9008 13.345 14.3868 13.6995 13.8 13.85L14.33 14.5C14.8068 14.5114 15.2792 14.4063 15.7062 14.1936C16.1332 13.981 16.5018 13.6674 16.78 13.28L16.72 13.23Z" fill="currentColor"/>
</g>
</g>
</svg>
