<svg width="24" height="24" viewBox="0 0 24 24" fill="none" xmlns="http://www.w3.org/2000/svg">
<path d="M11.9998 20.61C13.0547 20.61 13.9098 19.7548 13.9098 18.7C13.9098 17.6451 13.0547 16.79 11.9998 16.79C10.945 16.79 10.0898 17.6451 10.0898 18.7C10.0898 19.7548 10.945 20.61 11.9998 20.61Z" stroke="black" stroke-miterlimit="10"/>
<path d="M9.14014 23.48C9.14013 22.7205 9.44113 21.9921 9.9772 21.4541C10.5133 20.9162 11.2407 20.6126 12.0001 20.61C12.7596 20.6126 13.487 20.9162 14.0231 21.4541C14.5591 21.9921 14.8601 22.7205 14.8601 23.48" stroke="black" stroke-miterlimit="10"/>
<path d="M19.64 20.61C20.6948 20.61 21.55 19.7548 21.55 18.7C21.55 17.6451 20.6948 16.79 19.64 16.79C18.5851 16.79 17.73 17.6451 17.73 18.7C17.73 19.7548 18.5851 20.61 19.64 20.61Z" stroke="black" stroke-miterlimit="10"/>
<path d="M16.77 23.48C16.77 22.7188 17.0724 21.9888 17.6106 21.4506C18.1489 20.9124 18.8788 20.61 19.64 20.61C20.3995 20.6126 21.1269 20.9162 21.663 21.4541C22.199 21.9921 22.5 22.7205 22.5 23.48" stroke="black" stroke-miterlimit="10"/>
<path d="M4.3602 20.61C5.41506 20.61 6.2702 19.7548 6.2702 18.7C6.2702 17.6451 5.41506 16.79 4.3602 16.79C3.30533 16.79 2.4502 17.6451 2.4502 18.7C2.4502 19.7548 3.30533 20.61 4.3602 20.61Z" stroke="black" stroke-miterlimit="10"/>
<path d="M1.5 23.48C1.5 22.7205 1.801 21.9921 2.33706 21.4541C2.87313 20.9162 3.60056 20.6126 4.36 20.61C5.12117 20.61 5.85117 20.9124 6.3894 21.4506C6.92763 21.9888 7.23 22.7188 7.23 23.48" stroke="black" stroke-miterlimit="10"/>
<path d="M4.35986 13.93V10.11H19.6399V13.93" stroke="black" stroke-miterlimit="10"/>
<path d="M12 13.93V7.25" stroke="black" stroke-miterlimit="10"/>
<path d="M12.0001 7.25003C13.5797 7.25003 14.8601 5.96956 14.8601 4.39003C14.8601 2.81049 13.5797 1.53003 12.0001 1.53003C10.4206 1.53003 9.14014 2.81049 9.14014 4.39003C9.14014 5.96956 10.4206 7.25003 12.0001 7.25003Z" stroke="black" stroke-miterlimit="10"/>
</svg>
