<svg width="24" height="24" viewBox="0 0 24 24" fill="none" xmlns="http://www.w3.org/2000/svg">
<g >
<g id="dollar">
<path  d="M12 20.75C11.8019 20.7474 11.6126 20.6676 11.4725 20.5275C11.3324 20.3874 11.2526 20.1981 11.25 20V4C11.25 3.80109 11.329 3.61032 11.4697 3.46967C11.6103 3.32902 11.8011 3.25 12 3.25C12.1989 3.25 12.3897 3.32902 12.5303 3.46967C12.671 3.61032 12.75 3.80109 12.75 4V20C12.7474 20.1981 12.6676 20.3874 12.5275 20.5275C12.3874 20.6676 12.1981 20.7474 12 20.75V20.75Z" fill="currentColor"/>
<path  d="M13.5 18.75H7C6.80109 18.75 6.61032 18.671 6.46967 18.5303C6.32902 18.3897 6.25 18.1989 6.25 18C6.25 17.8011 6.32902 17.6103 6.46967 17.4697C6.61032 17.329 6.80109 17.25 7 17.25H13.5C14.1615 17.309 14.8199 17.1065 15.3339 16.6859C15.8479 16.2653 16.1768 15.6601 16.25 15C16.1768 14.3399 15.8479 13.7347 15.3339 13.3141C14.8199 12.8936 14.1615 12.6911 13.5 12.75H10.5C9.97449 12.7839 9.44746 12.7137 8.94915 12.5434C8.45085 12.3731 7.99107 12.1061 7.5962 11.7577C7.20134 11.4092 6.87915 10.9863 6.64814 10.5131C6.41712 10.0398 6.28182 9.52565 6.25 9.00001C6.28182 8.47437 6.41712 7.96019 6.64814 7.48697C6.87915 7.01374 7.20134 6.59079 7.5962 6.24238C7.99107 5.89397 8.45085 5.62695 8.94915 5.45666C9.44746 5.28636 9.97449 5.21614 10.5 5.25001H16C16.1989 5.25001 16.3897 5.32903 16.5303 5.46968C16.671 5.61034 16.75 5.8011 16.75 6.00001C16.75 6.19893 16.671 6.38969 16.5303 6.53034C16.3897 6.671 16.1989 6.75001 16 6.75001H10.5C9.83846 6.69106 9.18013 6.89356 8.6661 7.31414C8.15206 7.73471 7.82321 8.3399 7.75 9.00001C7.82321 9.66013 8.15206 10.2653 8.6661 10.6859C9.18013 11.1065 9.83846 11.309 10.5 11.25H13.5C14.0255 11.2161 14.5525 11.2864 15.0508 11.4567C15.5492 11.627 16.0089 11.894 16.4038 12.2424C16.7987 12.5908 17.1208 13.0137 17.3519 13.487C17.5829 13.9602 17.7182 14.4744 17.75 15C17.7182 15.5257 17.5829 16.0398 17.3519 16.5131C17.1208 16.9863 16.7987 17.4092 16.4038 17.7576C16.0089 18.1061 15.5492 18.3731 15.0508 18.5434C14.5525 18.7137 14.0255 18.7839 13.5 18.75Z" fill="currentColor"/>
</g>
</g>
</svg>
