<svg width="24" height="24" viewBox="0 0 24 24" fill="none" xmlns="http://www.w3.org/2000/svg">
<g >
<g id="download">
<path  d="M18.22 20.75H5.78C5.43322 20.7359 5.09262 20.6535 4.77771 20.5075C4.4628 20.3616 4.17975 20.155 3.94476 19.8996C3.70977 19.6442 3.52745 19.3449 3.40824 19.019C3.28903 18.693 3.23525 18.3468 3.25 18V15C3.25 14.8011 3.32902 14.6103 3.46967 14.4697C3.61033 14.329 3.80109 14.25 4 14.25C4.19892 14.25 4.38968 14.329 4.53033 14.4697C4.67099 14.6103 4.75 14.8011 4.75 15V18C4.72419 18.2969 4.81365 18.5924 4.99984 18.8251C5.18602 19.0579 5.45465 19.21 5.75 19.25H18.22C18.5154 19.21 18.784 19.0579 18.9702 18.8251C19.1564 18.5924 19.2458 18.2969 19.22 18V15C19.22 14.8011 19.299 14.6103 19.4397 14.4697C19.5803 14.329 19.7711 14.25 19.97 14.25C20.1689 14.25 20.3597 14.329 20.5003 14.4697C20.641 14.6103 20.72 14.8011 20.72 15V18C20.75 18.6954 20.5041 19.3744 20.0359 19.8894C19.5677 20.4045 18.9151 20.7137 18.22 20.75Z" fill="currentColor"/>
<path  d="M12 15.75C11.9015 15.7505 11.8038 15.7312 11.7128 15.6935C11.6218 15.6557 11.5393 15.6001 11.47 15.53L7.47003 11.53C7.33755 11.3878 7.26543 11.1998 7.26885 11.0055C7.27228 10.8112 7.35099 10.6258 7.48841 10.4884C7.62582 10.351 7.81121 10.2723 8.00551 10.2688C8.19981 10.2654 8.38785 10.3375 8.53003 10.47L12 13.94L15.47 10.47C15.6122 10.3375 15.8003 10.2654 15.9946 10.2688C16.1889 10.2723 16.3742 10.351 16.5117 10.4884C16.6491 10.6258 16.7278 10.8112 16.7312 11.0055C16.7346 11.1998 16.6625 11.3878 16.53 11.53L12.53 15.53C12.4608 15.6001 12.3782 15.6557 12.2872 15.6935C12.1962 15.7312 12.0986 15.7505 12 15.75V15.75Z" fill="currentColor"/>
<path  d="M12 15.75C11.8019 15.7474 11.6126 15.6676 11.4725 15.5275C11.3324 15.3874 11.2526 15.1981 11.25 15V4C11.25 3.80109 11.329 3.61032 11.4697 3.46967C11.6103 3.32902 11.8011 3.25 12 3.25C12.1989 3.25 12.3897 3.32902 12.5303 3.46967C12.671 3.61032 12.75 3.80109 12.75 4V15C12.7474 15.1981 12.6676 15.3874 12.5275 15.5275C12.3874 15.6676 12.1981 15.7474 12 15.75V15.75Z" fill="currentColor"/>
</g>
</g>
</svg>
