<svg width="24" height="24" viewBox="0 0 24 24" fill="none" xmlns="http://www.w3.org/2000/svg">
<g >
<g id="eject">
<g >
<path  d="M19 12.75H5.00001C4.85177 12.7499 4.7069 12.7058 4.58368 12.6234C4.46046 12.541 4.36444 12.4239 4.30773 12.2869C4.25101 12.15 4.23616 11.9993 4.26505 11.8539C4.29393 11.7085 4.36526 11.5749 4.47001 11.47L11.47 4.47001C11.6106 4.32956 11.8013 4.25067 12 4.25067C12.1988 4.25067 12.3894 4.32956 12.53 4.47001L19.53 11.47C19.6348 11.5749 19.7061 11.7085 19.735 11.8539C19.7639 11.9993 19.749 12.15 19.6923 12.2869C19.6356 12.4239 19.5396 12.541 19.4163 12.6234C19.2931 12.7058 19.1483 12.7499 19 12.75V12.75ZM6.81001 11.25H17.19L12 6.06001L6.81001 11.25Z" fill="currentColor"/>
</g>
<path  d="M18 19.75H6C5.53668 19.7474 5.09309 19.5622 4.76546 19.2345C4.43784 18.9069 4.25263 18.4633 4.25 18V16C4.25263 15.5367 4.43784 15.0931 4.76546 14.7655C5.09309 14.4378 5.53668 14.2526 6 14.25H18C18.4633 14.2526 18.9069 14.4378 19.2345 14.7655C19.5622 15.0931 19.7474 15.5367 19.75 16V18C19.7474 18.4633 19.5622 18.9069 19.2345 19.2345C18.9069 19.5622 18.4633 19.7474 18 19.75ZM6 15.75C5.9337 15.75 5.87011 15.7763 5.82322 15.8232C5.77634 15.8701 5.75 15.9337 5.75 16V18C5.75 18.0663 5.77634 18.1299 5.82322 18.1768C5.87011 18.2237 5.9337 18.25 6 18.25H18C18.0663 18.25 18.1299 18.2237 18.1768 18.1768C18.2237 18.1299 18.25 18.0663 18.25 18V16C18.25 15.9337 18.2237 15.8701 18.1768 15.8232C18.1299 15.7763 18.0663 15.75 18 15.75H6Z" fill="currentColor"/>
</g>
</g>
</svg>
