<svg width="24" height="24" viewBox="0 0 24 24" fill="none" xmlns="http://www.w3.org/2000/svg">
<g >
<g id="euro">
<path  d="M13 20.75H12.85C11.1283 20.7123 9.45597 20.1674 8.04257 19.1835C6.62917 18.1996 5.53752 16.8205 4.90438 15.219C4.27125 13.6175 4.12478 11.8647 4.48333 10.1803C4.84188 8.49594 5.6895 6.95481 6.92 5.74999C7.73906 4.94126 8.71316 4.30646 9.78376 3.88371C10.8544 3.46097 11.9994 3.25902 13.15 3.28999C15.3968 3.32199 17.5452 4.21715 19.15 5.78999C19.2905 5.93061 19.3693 6.12124 19.3693 6.31999C19.3693 6.51874 19.2905 6.70936 19.15 6.84999C19.0094 6.99044 18.8188 7.06933 18.62 7.06933C18.4213 7.06933 18.2306 6.99044 18.09 6.84999C17.078 5.8542 15.7963 5.17699 14.4034 4.90215C13.0105 4.62731 11.5676 4.76692 10.2532 5.30368C8.93881 5.84045 7.81067 6.75082 7.00835 7.92214C6.20604 9.09346 5.76477 10.4743 5.73916 11.8938C5.71355 13.3134 6.10471 14.7092 6.86425 15.9088C7.62378 17.1083 8.71835 18.0587 10.0125 18.6426C11.3067 19.2264 12.7436 19.418 14.1455 19.1936C15.5474 18.9692 16.8528 18.3386 17.9 17.38L18.12 17.17C18.2669 17.03 18.4621 16.9519 18.665 16.9519C18.8679 16.9519 19.0631 17.03 19.21 17.17C19.2799 17.2318 19.3367 17.3069 19.3772 17.391C19.4176 17.475 19.4408 17.5663 19.4455 17.6595C19.4501 17.7526 19.4361 17.8458 19.4043 17.9334C19.3724 18.0211 19.3234 18.1015 19.26 18.17L19.21 18.22L18.92 18.5C17.2984 19.9654 15.1856 20.7684 13 20.75Z" fill="currentColor"/>
<path  d="M17 11.25H3C2.80109 11.25 2.61032 11.171 2.46967 11.0303C2.32902 10.8897 2.25 10.6989 2.25 10.5C2.25 10.3011 2.32902 10.1103 2.46967 9.96967C2.61032 9.82902 2.80109 9.75 3 9.75H17C17.1989 9.75 17.3897 9.82902 17.5303 9.96967C17.671 10.1103 17.75 10.3011 17.75 10.5C17.75 10.6989 17.671 10.8897 17.5303 11.0303C17.3897 11.171 17.1989 11.25 17 11.25Z" fill="currentColor"/>
<path  d="M15.5 14.25H3C2.80109 14.25 2.61032 14.171 2.46967 14.0303C2.32902 13.8897 2.25 13.6989 2.25 13.5C2.25 13.3011 2.32902 13.1103 2.46967 12.9697C2.61032 12.829 2.80109 12.75 3 12.75H15.5C15.6989 12.75 15.8897 12.829 16.0303 12.9697C16.171 13.1103 16.25 13.3011 16.25 13.5C16.25 13.6989 16.171 13.8897 16.0303 14.0303C15.8897 14.171 15.6989 14.25 15.5 14.25V14.25Z" fill="currentColor"/>
</g>
</g>
</svg>
