<svg width="24" height="24" viewBox="0 0 24 24" fill="none" xmlns="http://www.w3.org/2000/svg">
<g >
<g id="exclamation-triangle">
<g >
<path  d="M20 18.75H3.99999C3.86894 18.7496 3.74022 18.7153 3.62632 18.6505C3.51243 18.5857 3.41724 18.4925 3.34999 18.38C3.28606 18.2653 3.2525 18.1363 3.2525 18.005C3.2525 17.8737 3.28606 17.7446 3.34999 17.63L11.35 3.63C11.4211 3.52273 11.5177 3.43475 11.6311 3.37388C11.7446 3.31301 11.8713 3.28116 12 3.28116C12.1287 3.28116 12.2554 3.31301 12.3688 3.37388C12.4822 3.43475 12.5788 3.52273 12.65 3.63L20.65 17.63C20.7139 17.7446 20.7475 17.8737 20.7475 18.005C20.7475 18.1363 20.7139 18.2653 20.65 18.38C20.5827 18.4925 20.4875 18.5857 20.3737 18.6505C20.2598 18.7153 20.131 18.7496 20 18.75ZM5.28999 17.25H18.71L12 5.51L5.28999 17.25Z" fill="currentColor"/>
</g>
<path  d="M12 13.25C11.8019 13.2474 11.6126 13.1676 11.4725 13.0275C11.3324 12.8874 11.2526 12.6981 11.25 12.5V9C11.25 8.80109 11.329 8.61032 11.4697 8.46967C11.6103 8.32902 11.8011 8.25 12 8.25C12.1989 8.25 12.3897 8.32902 12.5303 8.46967C12.671 8.61032 12.75 8.80109 12.75 9V12.5C12.7474 12.6981 12.6676 12.8874 12.5275 13.0275C12.3874 13.1676 12.1981 13.2474 12 13.25V13.25Z" fill="currentColor"/>
<path   d="M12 16.25C11.8019 16.2474 11.6126 16.1676 11.4725 16.0275C11.3324 15.8874 11.2526 15.6981 11.25 15.5V15C11.25 14.8011 11.329 14.6103 11.4697 14.4697C11.6103 14.329 11.8011 14.25 12 14.25C12.1989 14.25 12.3897 14.329 12.5303 14.4697C12.671 14.6103 12.75 14.8011 12.75 15V15.5C12.7474 15.6981 12.6676 15.8874 12.5275 16.0275C12.3874 16.1676 12.1981 16.2474 12 16.25V16.25Z" fill="currentColor"/>
</g>
</g>
</svg>
