<svg width="24" height="24" viewBox="0 0 24 24" fill="none" xmlns="http://www.w3.org/2000/svg">
<g >
<g id="eye-slash">
<path  d="M20.69 11.7C20.57 11.44 17.83 5.25 12 5.25C11.4418 5.24942 10.8851 5.30977 10.34 5.43C10.1604 5.48559 10.0083 5.60656 9.91369 5.76899C9.81908 5.93141 9.78892 6.12343 9.82916 6.30704C9.8694 6.49064 9.97712 6.65244 10.131 6.76041C10.2849 6.86837 10.4736 6.91462 10.66 6.89C11.1007 6.79789 11.5497 6.75098 12 6.75C16.18 6.75 18.58 10.85 19.17 12C18.8103 12.7028 18.3886 13.3721 17.91 14C17.824 14.1107 17.7708 14.2433 17.7564 14.3827C17.7419 14.5221 17.7668 14.6627 17.8282 14.7887C17.8897 14.9147 17.9851 15.0209 18.1039 15.0954C18.2226 15.1699 18.3598 15.2096 18.5 15.21C18.6139 15.2096 18.7262 15.1833 18.8285 15.1331C18.9307 15.0828 19.0201 15.01 19.09 14.92C19.7198 14.1202 20.2566 13.2512 20.69 12.33C20.7338 12.2308 20.7564 12.1235 20.7564 12.015C20.7564 11.9065 20.7338 11.7992 20.69 11.7V11.7Z" fill="currentColor"/>
<path  d="M6.53002 5.47C6.38784 5.33752 6.1998 5.2654 6.00549 5.26882C5.81119 5.27225 5.62581 5.35096 5.48839 5.48838C5.35098 5.62579 5.27227 5.81118 5.26884 6.00548C5.26541 6.19978 5.33754 6.38782 5.47002 6.53L6.39002 7.45C5.0873 8.64841 4.03974 10.0973 3.31002 11.71C3.27069 11.8034 3.25043 11.9037 3.25043 12.005C3.25043 12.1063 3.27069 12.2066 3.31002 12.3C3.43002 12.56 6.17002 18.75 12 18.75C13.5593 18.7577 15.0863 18.3055 16.39 17.45L17.47 18.53C17.6106 18.6705 17.8013 18.7493 18 18.7493C18.1988 18.7493 18.3894 18.6705 18.53 18.53C18.6705 18.3894 18.7494 18.1987 18.7494 18C18.7494 17.8012 18.6705 17.6106 18.53 17.47L6.53002 5.47ZM10.36 11.47L12.57 13.69C12.2603 13.7927 11.9285 13.8097 11.6099 13.7393C11.2913 13.6689 10.9976 13.5136 10.76 13.29C10.518 13.0514 10.3512 12.7472 10.2801 12.4149C10.209 12.0826 10.2368 11.7367 10.36 11.42V11.47ZM12 17.25C7.81002 17.25 5.42002 13.14 4.83002 12C5.4827 10.6863 6.37071 9.50342 7.45002 8.51L9.24002 10.3C8.85585 10.9209 8.69266 11.6534 8.77693 12.3787C8.86119 13.1039 9.18796 13.7795 9.70425 14.2958C10.2205 14.8121 10.8961 15.1388 11.6214 15.2231C12.3466 15.3074 13.0791 15.1442 13.7 14.76L15.31 16.37C14.3052 16.954 13.1622 17.2579 12 17.25V17.25Z" fill="currentColor"/>
</g>
</g>
</svg>
