<svg xmlns="http://www.w3.org/2000/svg" viewBox="0 0 24 24" fill="currentColor" ><path d="M20.69 11.7c-.12-.26-2.86-6.45-8.69-6.45a7.67 7.67 0 0 0-1.66.18.75.75 0 0 0 .32 1.46A6.62 6.62 0 0 1 12 6.75c4.18 0 6.58 4.1 7.17 5.25a13.28 13.28 0 0 1-1.26 2 .75.75 0 0 0 .59 1.21.75.75 0 0 0 .59-.29c.63-.8 1.167-1.669 1.6-2.59a.78.78 0 0 0 0-.63h0zM6.53 5.47a.75.75 0 0 0-1.06 1.06l.92.92a13.16 13.16 0 0 0-3.08 4.26.76.76 0 0 0 0 .59c.12.26 2.86 6.45 8.69 6.45a7.93 7.93 0 0 0 4.39-1.3l1.08 1.08a.75.75 0 0 0 1.06 0 .75.75 0 0 0 0-1.06l-12-12zm3.83 6l2.21 2.22a1.81 1.81 0 0 1-1.81-.4 1.74 1.74 0 0 1-.4-1.87v.05zM12 17.25c-4.19 0-6.58-4.11-7.17-5.25a12 12 0 0 1 2.62-3.49l1.79 1.79a3.24 3.24 0 0 0 4.46 4.46l1.61 1.61a6.5 6.5 0 0 1-3.31.88h0z"/></svg>