<svg width="24" height="24" viewBox="0 0 24 24" fill="none" xmlns="http://www.w3.org/2000/svg">
<g >
<g id="facebook">
<path  d="M20 12.05C19.9813 10.5255 19.5273 9.03806 18.6915 7.76292C17.8557 6.48778 16.673 5.47801 15.2826 4.85254C13.8921 4.22707 12.3519 4.01195 10.8433 4.2325C9.33473 4.45305 7.92057 5.1001 6.7674 6.09745C5.61422 7.09479 4.77005 8.40088 4.3343 9.86192C3.89856 11.323 3.88938 12.8781 4.30786 14.3442C4.72634 15.8102 5.55504 17.1262 6.69637 18.1371C7.83769 19.148 9.24412 19.8117 10.75 20.05V14.38H8.75001V12.05H10.75V10.28C10.7037 9.86843 10.7483 9.45172 10.8807 9.05928C11.0131 8.66684 11.23 8.30824 11.5161 8.00879C11.8022 7.70933 12.1505 7.47632 12.5365 7.3262C12.9225 7.17609 13.3368 7.11252 13.75 7.14C14.3498 7.14821 14.9482 7.2017 15.54 7.3V9.3H14.54C14.3676 9.27825 14.1924 9.29553 14.0276 9.35056C13.8627 9.40559 13.7123 9.49696 13.5875 9.61792C13.4627 9.73888 13.3667 9.88634 13.3066 10.0494C13.2464 10.2125 13.2237 10.387 13.24 10.56V12.07H15.46L15.1 14.4H13.25V20C15.1399 19.7011 16.8601 18.7347 18.0985 17.2761C19.3369 15.8175 20.0115 13.9634 20 12.05Z" fill="currentColor"/>
</g>
</g>
</svg>
