<svg width="24" height="24" viewBox="0 0 24 24" fill="none" xmlns="http://www.w3.org/2000/svg">
<g >
<g id="fast-backward">
<g >
<path  d="M20 20C19.8012 19.9998 19.6105 19.9207 19.47 19.78L12.47 12.78C12.3296 12.6394 12.2507 12.4488 12.2507 12.25C12.2507 12.0513 12.3296 11.8606 12.47 11.72L19.47 4.72001C19.5754 4.61502 19.7097 4.54375 19.8557 4.51526C20.0017 4.48677 20.1529 4.50234 20.29 4.56001C20.4268 4.61593 20.5438 4.71154 20.6257 4.83452C20.7077 4.9575 20.751 5.10221 20.75 5.25001V19.25C20.751 19.3978 20.7077 19.5425 20.6257 19.6655C20.5438 19.7885 20.4268 19.8841 20.29 19.94C20.1983 19.9791 20.0997 19.9995 20 20V20ZM14.06 12.25L19.25 17.44V7.06001L14.06 12.25Z" fill="currentColor"/>
</g>
<g >
<path  d="M4 19.5C3.80189 19.4974 3.61263 19.4176 3.47253 19.2775C3.33244 19.1374 3.25259 18.9481 3.25 18.75V4.75C3.25 4.55109 3.32902 4.36032 3.46967 4.21967C3.61032 4.07902 3.80109 4 4 4C4.19891 4 4.38968 4.07902 4.53033 4.21967C4.67098 4.36032 4.75 4.55109 4.75 4.75V18.75C4.74741 18.9481 4.66756 19.1374 4.52747 19.2775C4.38737 19.4176 4.19811 19.4974 4 19.5V19.5Z" fill="currentColor"/>
</g>
<g >
<path  d="M12 20C11.8012 19.9998 11.6105 19.9207 11.47 19.78L4.47001 12.78C4.32956 12.6394 4.25067 12.4488 4.25067 12.25C4.25067 12.0513 4.32956 11.8606 4.47001 11.72L11.47 4.72001C11.5754 4.61502 11.7097 4.54375 11.8557 4.51526C12.0017 4.48677 12.1529 4.50234 12.29 4.56001C12.4268 4.61593 12.5438 4.71154 12.6257 4.83452C12.7077 4.9575 12.751 5.10221 12.75 5.25001V19.25C12.751 19.3978 12.7077 19.5425 12.6257 19.6655C12.5438 19.7885 12.4268 19.8841 12.29 19.94C12.1983 19.9791 12.0997 19.9995 12 20V20ZM6.06001 12.25L11.25 17.44V7.06001L6.06001 12.25Z" fill="currentColor"/>
</g>
</g>
</g>
</svg>
