<svg width="24" height="24" viewBox="0 0 24 24" fill="none" xmlns="http://www.w3.org/2000/svg">
<g >
<g id="fast-forward">
<g >
<path  d="M4.00002 19.75C3.90032 19.7495 3.80174 19.7291 3.71002 19.69C3.5732 19.6341 3.45627 19.5385 3.37428 19.4155C3.2923 19.2925 3.24902 19.1478 3.25002 19V5.00001C3.25015 4.85177 3.2942 4.7069 3.37662 4.58368C3.45904 4.46046 3.57613 4.36444 3.71309 4.30773C3.85006 4.25101 4.00075 4.23616 4.14615 4.26505C4.29155 4.29393 4.42513 4.36526 4.53002 4.47001L11.53 11.47C11.6705 11.6106 11.7494 11.8013 11.7494 12C11.7494 12.1988 11.6705 12.3894 11.53 12.53L4.53002 19.53C4.3895 19.6707 4.19886 19.7498 4.00002 19.75V19.75ZM4.75002 6.81001V17.19L9.94002 12L4.75002 6.81001Z" fill="currentColor"/>
</g>
<g >
<path  d="M20 19.25C19.8019 19.2474 19.6126 19.1676 19.4725 19.0275C19.3324 18.8874 19.2526 18.6981 19.25 18.5V4.5C19.25 4.30109 19.329 4.11032 19.4697 3.96967C19.6103 3.82902 19.8011 3.75 20 3.75C20.1989 3.75 20.3897 3.82902 20.5303 3.96967C20.671 4.11032 20.75 4.30109 20.75 4.5V18.5C20.7474 18.6981 20.6676 18.8874 20.5275 19.0275C20.3874 19.1676 20.1981 19.2474 20 19.25V19.25Z" fill="currentColor"/>
</g>
<g >
<path  d="M12 19.75C11.9003 19.7495 11.8017 19.7291 11.71 19.69C11.5732 19.6341 11.4563 19.5385 11.3743 19.4155C11.2923 19.2925 11.249 19.1478 11.25 19V5.00001C11.2501 4.85177 11.2942 4.7069 11.3766 4.58368C11.459 4.46046 11.5761 4.36444 11.7131 4.30773C11.8501 4.25101 12.0008 4.23616 12.1462 4.26505C12.2916 4.29393 12.4251 4.36526 12.53 4.47001L19.53 11.47C19.6705 11.6106 19.7494 11.8013 19.7494 12C19.7494 12.1988 19.6705 12.3894 19.53 12.53L12.53 19.53C12.3895 19.6707 12.1989 19.7498 12 19.75V19.75ZM12.75 6.81001V17.19L17.94 12L12.75 6.81001Z" fill="currentColor"/>
</g>
</g>
</g>
</svg>
