<svg viewBox="0 0 46 46" fill="none" xmlns="http://www.w3.org/2000/svg">
<rect x="3" y="3" width="40" height="40" rx="20" fill="#F2F4F7"/>
<path d="M24.6668 22.1665H19.6668M21.3335 25.4998H19.6668M26.3335 18.8332H19.6668M29.6668 18.6665V27.3332C29.6668 28.7333 29.6668 29.4334 29.3943 29.9681C29.1547 30.4386 28.7722 30.821 28.3018 31.0607C27.767 31.3332 27.067 31.3332 25.6668 31.3332H20.3335C18.9334 31.3332 18.2333 31.3332 17.6985 31.0607C17.2281 30.821 16.8457 30.4386 16.606 29.9681C16.3335 29.4334 16.3335 28.7333 16.3335 27.3332V18.6665C16.3335 17.2664 16.3335 16.5663 16.606 16.0315C16.8457 15.5611 17.2281 15.1787 17.6985 14.939C18.2333 14.6665 18.9334 14.6665 20.3335 14.6665H25.6668C27.067 14.6665 27.767 14.6665 28.3018 14.939C28.7722 15.1787 29.1547 15.5611 29.3943 16.0315C29.6668 16.5663 29.6668 17.2664 29.6668 18.6665Z" stroke="#667085" stroke-width="1.5" stroke-linecap="round" stroke-linejoin="round"/>
<rect x="3" y="3" width="40" height="40" rx="20" stroke="#F9FAFB" stroke-width="6"/>
</svg>
