<svg viewBox="0 0 46 46" fill="none" xmlns="http://www.w3.org/2000/svg">
<rect x="3" y="3" width="40" height="40" rx="20" fill="#F2F4F7"/>
<path d="M20.5 28.4165H25.5M18.8333 25.4998H27.1667M17.1667 14.6665H28.8333C29.7538 14.6665 30.5 15.4956 30.5 16.5184V29.4813C30.5 30.5041 29.7538 31.3332 28.8333 31.3332H17.1667C16.2462 31.3332 15.5 30.5041 15.5 29.4813V16.5184C15.5 15.4956 16.2462 14.6665 17.1667 14.6665ZM22.998 18.1765C22.4149 17.5272 21.4424 17.3525 20.7118 17.9471C19.9811 18.5416 19.8783 19.5357 20.4521 20.2388C21.0258 20.942 22.998 22.5832 22.998 22.5832C22.998 22.5832 24.9702 20.942 25.5439 20.2388C26.1177 19.5357 26.0274 18.5354 25.2842 17.9471C24.541 17.3588 23.5811 17.5272 22.998 18.1765Z" stroke="#667085" stroke-width="1.5" stroke-linecap="round" stroke-linejoin="round"/>
<rect x="3" y="3" width="40" height="40" rx="20" stroke="#F9FAFB" stroke-width="6"/>
</svg>
