<svg xmlns="http://www.w3.org/2000/svg" viewBox="0 0 24 24" fill="currentColor" ><path d="M18.53 9L13 3.47a.75.75 0 0 0-.53-.22H8A2.75 2.75 0 0 0 5.25 6v12A2.75 2.75 0 0 0 8 20.75h8A2.75 2.75 0 0 0 18.75 18V9.5a.75.75 0 0 0-.22-.5h0zm-5.28-3.19l2.94 2.94h-2.94V5.81zM16 19.25H8A1.25 1.25 0 0 1 6.75 18V6A1.25 1.25 0 0 1 8 4.75h3.75V9.5a.76.76 0 0 0 .75.75h4.75V18A1.25 1.25 0 0 1 16 19.25zm-1.53-7.34a.77.77 0 0 0-1.06.12L12 13.8 10.59 12a.77.77 0 0 0-.236-.188c-.09-.046-.189-.075-.29-.083s-.203.003-.3.034a.77.77 0 0 0-.264.146c-.077.066-.141.146-.188.236s-.075.189-.083.29.003.203.034.3.081.186.146.264L11 15l-1.59 2c-.125.157-.182.356-.16.555a.75.75 0 0 0 .28.505.76.76 0 0 0 .555.16c.199-.022.38-.123.505-.279L12 16.2l1.41 1.8a.77.77 0 0 0 .59.28.75.75 0 0 0 .59-1.28L13 15l1.63-2a.77.77 0 0 0-.16-1.09h0z"/></svg>