<svg width="24" height="24" viewBox="0 0 24 24" fill="none" xmlns="http://www.w3.org/2000/svg">
<g >
<g id="file-excel">
<path  d="M18.53 9L13 3.47C12.8595 3.32931 12.6688 3.25018 12.47 3.25H8C7.27065 3.25 6.57118 3.53973 6.05546 4.05546C5.53973 4.57118 5.25 5.27065 5.25 6V18C5.25 18.7293 5.53973 19.4288 6.05546 19.9445C6.57118 20.4603 7.27065 20.75 8 20.75H16C16.7293 20.75 17.4288 20.4603 17.9445 19.9445C18.4603 19.4288 18.75 18.7293 18.75 18V9.5C18.7421 9.3116 18.6636 9.13309 18.53 9V9ZM13.25 5.81L16.19 8.75H13.25V5.81ZM16 19.25H8C7.66848 19.25 7.35054 19.1183 7.11612 18.8839C6.8817 18.6495 6.75 18.3315 6.75 18V6C6.75 5.66848 6.8817 5.35054 7.11612 5.11612C7.35054 4.8817 7.66848 4.75 8 4.75H11.75V9.5C11.7526 9.69811 11.8324 9.88737 11.9725 10.0275C12.1126 10.1676 12.3019 10.2474 12.5 10.25H17.25V18C17.25 18.3315 17.1183 18.6495 16.8839 18.8839C16.6495 19.1183 16.3315 19.25 16 19.25Z" fill="currentColor"/>
<path  d="M14.47 11.91C14.312 11.7893 14.1134 11.7343 13.9159 11.7567C13.7183 11.7791 13.537 11.877 13.41 12.03L12 13.8L10.59 12C10.5243 11.9225 10.4441 11.8587 10.3537 11.8123C10.2634 11.7658 10.1649 11.7376 10.0636 11.7292C9.96242 11.7209 9.86055 11.7325 9.76384 11.7636C9.66713 11.7946 9.57748 11.8443 9.5 11.91C9.42252 11.9757 9.35873 12.0559 9.31228 12.1462C9.26582 12.2366 9.23761 12.3351 9.22925 12.4364C9.2209 12.5376 9.23256 12.6394 9.26357 12.7361C9.29458 12.8329 9.34434 12.9225 9.41 13L11 15L9.41 17C9.28535 17.1565 9.22796 17.3561 9.25047 17.5548C9.27297 17.7536 9.37352 17.9353 9.53 18.06C9.68648 18.1846 9.88606 18.242 10.0849 18.2195C10.2836 18.197 10.4653 18.0965 10.59 17.94L12 16.2L13.41 18C13.4818 18.087 13.5719 18.1573 13.6738 18.2056C13.7758 18.254 13.8871 18.2794 14 18.28C14.1534 18.2927 14.3069 18.2579 14.4398 18.1804C14.5728 18.1028 14.6786 17.9863 14.743 17.8465C14.8075 17.7068 14.8273 17.5506 14.7999 17.3991C14.7726 17.2477 14.6993 17.1083 14.59 17L13 15L14.63 13C14.6922 12.9184 14.7375 12.8251 14.7632 12.7257C14.7889 12.6264 14.7944 12.5229 14.7795 12.4213C14.7646 12.3197 14.7295 12.2222 14.6764 12.1344C14.6232 12.0466 14.5531 11.9703 14.47 11.91V11.91Z" fill="currentColor"/>
</g>
</g>
</svg>
