<svg width="24" height="24" viewBox="0 0 24 24" fill="none" xmlns="http://www.w3.org/2000/svg">
<g >
<g id="filter">
<path  d="M14 20.5H10C9.80192 20.4974 9.61266 20.4176 9.47256 20.2775C9.33247 20.1374 9.25262 19.9481 9.25003 19.75V12L3.90003 4.69C3.81547 4.58007 3.76398 4.44832 3.75158 4.31018C3.73918 4.17204 3.76639 4.03323 3.83003 3.91C3.89378 3.78712 3.98988 3.68399 4.10795 3.61173C4.22603 3.53947 4.3616 3.50084 4.50003 3.5H19.5C19.6385 3.50084 19.774 3.53947 19.8921 3.61173C20.0102 3.68399 20.1063 3.78712 20.17 3.91C20.2337 4.03323 20.2609 4.17204 20.2485 4.31018C20.2361 4.44832 20.1846 4.58007 20.1 4.69L14.75 12V19.75C14.7474 19.9481 14.6676 20.1374 14.5275 20.2775C14.3874 20.4176 14.1981 20.4974 14 20.5V20.5ZM10.75 19H13.25V11.75C13.2492 11.5907 13.3021 11.4357 13.4 11.31L18 5H6.00003L10.62 11.31C10.718 11.4357 10.7708 11.5907 10.77 11.75L10.75 19Z" fill="currentColor"/>
</g>
</g>
</svg>
