<svg width="24" height="24" viewBox="0 0 24 24" fill="none" xmlns="http://www.w3.org/2000/svg">
<g >
<g id="filter-slash">
<path  d="M20.17 3.91C20.1063 3.78712 20.0102 3.68399 19.8921 3.61173C19.774 3.53947 19.6384 3.50084 19.5 3.5H12.5C12.3011 3.5 12.1103 3.57902 11.9697 3.71967C11.829 3.86032 11.75 4.05109 11.75 4.25C11.75 4.44891 11.829 4.63968 11.9697 4.78033C12.1103 4.92098 12.3011 5 12.5 5H18L16.15 7.56C16.0333 7.71913 15.9846 7.9181 16.0146 8.11314C16.0446 8.30818 16.1509 8.48331 16.31 8.6C16.4691 8.7167 16.6681 8.7654 16.8631 8.73539C17.0582 8.70538 17.2333 8.59913 17.35 8.44L20.1 4.69C20.1846 4.58007 20.2361 4.44832 20.2484 4.31018C20.2608 4.17204 20.2336 4.03323 20.17 3.91V3.91Z" fill="currentColor"/>
<path  d="M8.65003 3.71999C8.65003 3.71999 8.65003 3.71999 8.60003 3.71999C8.54299 3.67079 8.47896 3.63035 8.41003 3.59999C8.33946 3.57288 8.26537 3.55604 8.19003 3.54999H4.50003C4.3616 3.55083 4.22603 3.58946 4.10795 3.66172C3.98988 3.73397 3.89378 3.83711 3.83003 3.95999C3.76639 4.08322 3.73918 4.22203 3.75158 4.36017C3.76398 4.49831 3.81547 4.63005 3.90003 4.73999L9.25003 12V19.75C9.25262 19.9481 9.33247 20.1374 9.47256 20.2775C9.61266 20.4175 9.80192 20.4974 10 20.5H14C14.1981 20.4974 14.3874 20.4175 14.5275 20.2775C14.6676 20.1374 14.7474 19.9481 14.75 19.75V12L14.81 11.91L18.47 15.53C18.5393 15.6001 18.6218 15.6557 18.7128 15.6935C18.8038 15.7312 18.9015 15.7505 19 15.75C19.0986 15.751 19.1965 15.7321 19.2875 15.6943C19.3786 15.6564 19.4611 15.6006 19.53 15.53C19.6705 15.3894 19.7494 15.1987 19.7494 15C19.7494 14.8012 19.6705 14.6106 19.53 14.47L8.65003 3.71999ZM13.4 11.31C13.3021 11.4357 13.2492 11.5906 13.25 11.75V19H10.75V11.75C10.7508 11.5906 10.698 11.4357 10.6 11.31L6.00003 4.99999H7.82003L13.73 10.85L13.4 11.31Z" fill="currentColor"/>
</g>
</g>
</svg>
