<svg width="24" height="24" viewBox="0 0 24 24" fill="none" xmlns="http://www.w3.org/2000/svg">
<g >
<g id="flag">
<path  d="M19.42 4.44999C19.3203 4.38121 19.2053 4.33795 19.085 4.324C18.9647 4.31005 18.8428 4.32584 18.73 4.36999C17.5396 4.87625 16.284 5.21287 15 5.36999C14.1879 5.15278 13.4127 4.81574 12.7 4.36999C11.7794 3.80312 10.7625 3.40995 9.7 3.20999C7.99309 3.36095 6.31266 3.73064 4.7 4.30999C4.55144 4.36017 4.42234 4.45565 4.33086 4.583C4.23938 4.71036 4.19012 4.86319 4.19 5.01999V20C4.19 20.1989 4.26902 20.3897 4.40967 20.5303C4.55032 20.671 4.74109 20.75 4.94 20.75C5.13891 20.75 5.32968 20.671 5.47033 20.5303C5.61098 20.3897 5.69 20.1989 5.69 20V14.15C6.9351 13.6993 8.23195 13.407 9.55 13.28C10.3964 13.4889 11.2057 13.8261 11.95 14.28C12.8201 14.8118 13.7734 15.1938 14.77 15.41H15C16.4483 15.2271 17.8648 14.847 19.21 14.28C19.3514 14.2254 19.4729 14.1294 19.5585 14.0044C19.6442 13.8795 19.6901 13.7315 19.69 13.58V5.06999C19.6975 4.95263 19.6769 4.83517 19.63 4.72735C19.583 4.61952 19.511 4.52445 19.42 4.44999V4.44999ZM18.25 13.08C17.2111 13.5101 16.1172 13.7929 15 13.92C14.1879 13.7028 13.4127 13.3657 12.7 12.92C11.7794 12.3531 10.7625 11.9599 9.7 11.76H9.5C8.21276 11.8759 6.94385 12.1445 5.72 12.56V5.55999C6.9651 5.10929 8.26195 4.81699 9.58 4.68999C10.4264 4.89888 11.2357 5.23612 11.98 5.68999C12.8501 6.22184 13.8034 6.60382 14.8 6.81999C15.9734 6.77397 17.1301 6.52705 18.22 6.08999L18.25 13.08Z" fill="currentColor"/>
</g>
</g>
</svg>
