<svg width="24" height="24" viewBox="0 0 24 24" fill="none" xmlns="http://www.w3.org/2000/svg">
<g >
<g id="flag-fill">
<path  d="M19.42 4.45C19.3203 4.38122 19.2053 4.33796 19.085 4.32401C18.9647 4.31006 18.8428 4.32586 18.73 4.37C17.5425 4.88466 16.2857 5.22161 15 5.37C14.1879 5.15279 13.4127 4.81576 12.7 4.37C11.7802 3.80149 10.763 3.40819 9.7 3.21C8.41 3.09 5.34 4.1 4.7 4.31C4.55144 4.36018 4.42234 4.45566 4.33086 4.58302C4.23938 4.71037 4.19012 4.8632 4.19 5.02V20C4.19 20.1989 4.26902 20.3897 4.40967 20.5303C4.55032 20.671 4.74109 20.75 4.94 20.75C5.13891 20.75 5.32968 20.671 5.47033 20.5303C5.61098 20.3897 5.69 20.1989 5.69 20V14.14C6.93659 13.6982 8.23315 13.4127 9.55 13.29C10.3967 13.4978 11.2062 13.8351 11.95 14.29C12.8201 14.8219 13.7734 15.2038 14.77 15.42H15C16.4474 15.2327 17.8633 14.8527 19.21 14.29C19.3506 14.2343 19.4713 14.1379 19.5568 14.0133C19.6423 13.8886 19.6887 13.7412 19.69 13.59V5.07C19.6975 4.95264 19.6769 4.83518 19.63 4.72736C19.583 4.61953 19.511 4.52446 19.42 4.45V4.45Z" fill="currentColor"/>
</g>
</g>
</svg>
