<svg width="24" height="24" viewBox="0 0 24 24" fill="none" xmlns="http://www.w3.org/2000/svg">
<g >
<g id="folder">
<path  d="M17.5 19.25H6.5C5.77065 19.25 5.07118 18.9603 4.55546 18.4445C4.03973 17.9288 3.75 17.2293 3.75 16.5V7.5C3.75 6.77066 4.03973 6.07118 4.55546 5.55546C5.07118 5.03973 5.77065 4.75 6.5 4.75H9C9.10718 4.74971 9.21323 4.77179 9.31139 4.81484C9.40954 4.85789 9.49762 4.92096 9.57 5L12.34 8.24H17.5C17.862 8.24 18.2204 8.31146 18.5547 8.45029C18.889 8.58911 19.1926 8.79257 19.4481 9.04899C19.7036 9.30541 19.9059 9.60975 20.0435 9.94455C20.1812 10.2794 20.2513 10.638 20.25 11V16.5C20.25 17.2293 19.9603 17.9288 19.4445 18.4445C18.9288 18.9603 18.2293 19.25 17.5 19.25ZM6.5 6.25C6.16848 6.25 5.85054 6.3817 5.61612 6.61612C5.3817 6.85054 5.25 7.16848 5.25 7.5V16.5C5.25 16.8315 5.3817 17.1495 5.61612 17.3839C5.85054 17.6183 6.16848 17.75 6.5 17.75H17.5C17.8315 17.75 18.1495 17.6183 18.3839 17.3839C18.6183 17.1495 18.75 16.8315 18.75 16.5V11C18.75 10.6685 18.6183 10.3505 18.3839 10.1161C18.1495 9.8817 17.8315 9.75 17.5 9.75H12C11.8921 9.74903 11.7856 9.72539 11.6874 9.68059C11.5892 9.6358 11.5015 9.57087 11.43 9.49L8.66 6.25H6.5Z" fill="currentColor"/>
</g>
</g>
</svg>
