<svg width="24" height="24" viewBox="0 0 24 24" fill="none" xmlns="http://www.w3.org/2000/svg">
<g >
<g id="folder-open">
<path  d="M4.25005 18.5H2.75005V7.49999C2.74477 7.14327 2.80997 6.78901 2.94191 6.45755C3.07386 6.12608 3.26996 5.82393 3.51895 5.56843C3.76795 5.31293 4.06495 5.10911 4.3929 4.96866C4.72085 4.82821 5.07331 4.7539 5.43005 4.74999H7.84005C7.949 4.74765 8.05718 4.76876 8.15725 4.81189C8.25733 4.85503 8.34695 4.91918 8.42005 4.99999L11.0901 8.22999H16.0001C16.3619 8.22857 16.7203 8.29962 17.0543 8.43895C17.3882 8.57828 17.6908 8.78307 17.9443 9.04124C18.1979 9.29942 18.3971 9.60574 18.5303 9.94215C18.6636 10.2786 18.7281 10.6383 18.7201 11V11.5H17.2201V11C17.2241 10.8373 17.1955 10.6754 17.1359 10.5239C17.0764 10.3724 16.9872 10.2343 16.8735 10.1179C16.7598 10.0014 16.624 9.90882 16.474 9.84564C16.324 9.78247 16.1628 9.74994 16.0001 9.74999H10.7301C10.621 9.74976 10.5134 9.72544 10.4148 9.67876C10.3163 9.63209 10.2293 9.56421 10.1601 9.47999L7.49005 6.24999H5.43005C5.10821 6.26045 4.80356 6.39772 4.58252 6.63188C4.36147 6.86603 4.24197 7.17809 4.25005 7.49999V18.5Z" fill="currentColor"/>
<path  d="M17.1201 19.25H3.50007C3.37167 19.2489 3.24562 19.2154 3.13371 19.1524C3.02179 19.0895 2.92765 18.9992 2.86007 18.89C2.79609 18.7772 2.76245 18.6497 2.76245 18.52C2.76245 18.3903 2.79609 18.2628 2.86007 18.15L6.24007 11.65C6.30599 11.5297 6.40286 11.4292 6.52065 11.3588C6.63844 11.2885 6.77288 11.2509 6.91007 11.25H20.5001C20.6285 11.2511 20.7545 11.2846 20.8664 11.3476C20.9784 11.4105 21.0725 11.5008 21.1401 11.61C21.2041 11.7228 21.2377 11.8503 21.2377 11.98C21.2377 12.1097 21.2041 12.2372 21.1401 12.35L17.7601 18.85C17.6967 18.966 17.6045 19.0637 17.4924 19.1338C17.3803 19.2038 17.2521 19.2439 17.1201 19.25ZM4.73007 17.75H16.6701L19.2701 12.75H7.33007L4.73007 17.75Z" fill="currentColor"/>
</g>
</g>
</svg>
