<svg width="24" height="24" viewBox="0 0 24 24" fill="none" xmlns="http://www.w3.org/2000/svg">
<path d="M12 22.5C17.799 22.5 22.5 17.799 22.5 12C22.5 6.20101 17.799 1.5 12 1.5C6.20101 1.5 1.5 6.20101 1.5 12C1.5 17.799 6.20101 22.5 12 22.5Z" stroke="black" stroke-miterlimit="10"/>
<path d="M7.22998 7.23H14.86C15.8731 7.23 16.8447 7.63247 17.5611 8.34886C18.2775 9.06524 18.68 10.0369 18.68 11.05C18.6773 12.0614 18.2737 13.0305 17.5576 13.7447C16.8415 14.4589 15.8714 14.86 14.86 14.86H7.22998" stroke="black" stroke-miterlimit="10"/>
<path d="M11.04 18.68L7.22998 14.86L11.04 11.04" stroke="black" stroke-miterlimit="10"/>
</svg>
