<svg width="24" height="24" viewBox="0 0 24 24" fill="none" xmlns="http://www.w3.org/2000/svg">
<g >
<g id="forward">
<g >
<path  d="M4 19.75C3.89707 19.7495 3.79521 19.7291 3.7 19.69C3.56661 19.6304 3.45322 19.5336 3.37341 19.4113C3.2936 19.2889 3.25075 19.1461 3.25 19V5C3.24998 4.85406 3.29254 4.71128 3.37247 4.58917C3.45239 4.46706 3.56621 4.37093 3.69996 4.31254C3.83371 4.25416 3.98159 4.23606 4.12548 4.26048C4.26936 4.2849 4.40299 4.35076 4.51 4.45L11.98 11.45C12.0557 11.5202 12.1161 11.6053 12.1575 11.6999C12.1988 11.7946 12.2201 11.8967 12.2201 12C12.2201 12.1033 12.1988 12.2054 12.1575 12.3001C12.1161 12.3947 12.0557 12.4798 11.98 12.55L4.51 19.55C4.37184 19.6795 4.18933 19.751 4 19.75V19.75ZM4.75 6.75V17.27L10.37 12L4.75 6.75Z" fill="currentColor"/>
</g>
<g >
<path  d="M12.53 19.75C12.4302 19.7503 12.3315 19.7299 12.24 19.69C12.104 19.633 11.9878 19.5371 11.906 19.4144C11.8241 19.2916 11.7803 19.1475 11.78 19V4.99999C11.7826 4.85404 11.8271 4.71192 11.9083 4.59062C11.9895 4.46931 12.1039 4.37396 12.2379 4.31595C12.3718 4.25794 12.5196 4.23973 12.6636 4.2635C12.8077 4.28727 12.9418 4.35202 13.05 4.44999L20.51 11.45C20.5857 11.5202 20.6461 11.6053 20.6875 11.6999C20.7288 11.7946 20.7501 11.8967 20.7501 12C20.7501 12.1033 20.7288 12.2054 20.6875 12.3001C20.6461 12.3947 20.5857 12.4798 20.51 12.55L13.05 19.55C12.9067 19.6776 12.7219 19.7487 12.53 19.75ZM13.28 6.74999V17.27L18.9 12L13.28 6.74999Z" fill="currentColor"/>
</g>
</g>
</g>
</svg>
