<svg width="24" height="24" viewBox="0 0 24 24" fill="none" xmlns="http://www.w3.org/2000/svg">
<path d="M7.2302 6.27V11.52C7.2302 12.1539 6.97839 12.7618 6.53018 13.21C6.08197 13.6582 5.47406 13.91 4.8402 13.91C4.20633 13.91 3.59842 13.6582 3.15021 13.21C2.702 12.7618 2.4502 12.1539 2.4502 11.52L4.3602 6.27H7.2302Z" stroke="black" stroke-miterlimit="10" stroke-linecap="square"/>
<path d="M12.0001 6.27V11.52C12.0212 11.8462 11.9752 12.1733 11.8649 12.481C11.7546 12.7887 11.5824 13.0705 11.3589 13.309C11.1353 13.5475 10.8652 13.7376 10.5653 13.8675C10.2654 13.9975 9.94197 14.0645 9.6151 14.0645C9.28822 14.0645 8.96482 13.9975 8.66489 13.8675C8.36496 13.7376 8.09488 13.5475 7.87134 13.309C7.6478 13.0705 7.47556 12.7887 7.36526 12.481C7.25497 12.1733 7.20897 11.8462 7.2301 11.52V6.27H12.0001Z" stroke="black" stroke-miterlimit="10" stroke-linecap="square"/>
<path d="M16.7701 6.27V11.52C16.7913 11.8462 16.7452 12.1733 16.635 12.481C16.5247 12.7887 16.3524 13.0705 16.1289 13.309C15.9053 13.5475 15.6353 13.7376 15.3353 13.8675C15.0354 13.9975 14.712 14.0645 14.3851 14.0645C14.0582 14.0645 13.7348 13.9975 13.4349 13.8675C13.135 13.7376 12.8649 13.5475 12.6414 13.309C12.4178 13.0705 12.2456 12.7887 12.1353 12.481C12.025 12.1733 11.979 11.8462 12.0001 11.52V6.27H16.7701Z" stroke="black" stroke-miterlimit="10" stroke-linecap="square"/>
<path d="M21.55 11.52C21.55 12.1539 21.2982 12.7618 20.85 13.21C20.4018 13.6582 19.7939 13.91 19.16 13.91C18.5262 13.91 17.9182 13.6582 17.47 13.21C17.0218 12.7618 16.77 12.1539 16.77 11.52V6.27H19.64L21.55 11.52Z" stroke="black" stroke-miterlimit="10" stroke-linecap="square"/>
<path d="M19.6399 13.91V22.5H4.35986V13.91H4.83986C5.15372 13.91 5.46451 13.8482 5.75448 13.7281C6.04444 13.608 6.30792 13.4319 6.52985 13.21C6.75178 12.9881 6.92783 12.7246 7.04794 12.4346C7.16804 12.1446 7.22986 11.8339 7.22986 11.52C7.20873 11.8462 7.25473 12.1733 7.36503 12.481C7.47532 12.7887 7.64757 13.0705 7.8711 13.309C8.09464 13.5475 8.36473 13.7376 8.66466 13.8675C8.96459 13.9975 9.28799 14.0645 9.61486 14.0645C9.94174 14.0645 10.2651 13.9975 10.5651 13.8675C10.865 13.7376 11.1351 13.5475 11.3586 13.309C11.5822 13.0705 11.7544 12.7887 11.8647 12.481C11.975 12.1733 12.021 11.8462 11.9999 11.52C11.9787 11.8462 12.0247 12.1733 12.135 12.481C12.2453 12.7887 12.4176 13.0705 12.6411 13.309C12.8646 13.5475 13.1347 13.7376 13.4347 13.8675C13.7346 13.9975 14.058 14.0645 14.3849 14.0645C14.7117 14.0645 15.0351 13.9975 15.3351 13.8675C15.635 13.7376 15.9051 13.5475 16.1286 13.309C16.3522 13.0705 16.5244 12.7887 16.6347 12.481C16.745 12.1733 16.791 11.8462 16.7699 11.52C16.7699 11.8339 16.8317 12.1446 16.9518 12.4346C17.0719 12.7246 17.2479 12.9881 17.4699 13.21C17.6918 13.4319 17.9553 13.608 18.2452 13.7281C18.5352 13.8482 18.846 13.91 19.1599 13.91H19.6399Z" stroke="black" stroke-miterlimit="10" stroke-linecap="square"/>
<path d="M1.5 22.5H4.36H19.64H22.5" stroke="black" stroke-miterlimit="10" stroke-linecap="square"/>
<path d="M17.72 1.5H6.27002V6.27H17.72V1.5Z" stroke="black" stroke-miterlimit="10" stroke-linecap="square"/>
<path d="M15.8202 17.73H8.18018V22.5H15.8202V17.73Z" stroke="black" stroke-miterlimit="10" stroke-linecap="square"/>
</svg>
