<svg width="24" height="24" viewBox="0 0 24 24" fill="none" xmlns="http://www.w3.org/2000/svg">
<g >
<g id="github">
<path  d="M9.35 16.88C9.35 16.95 9.28 17 9.18 17C9.08 17 9 17 9 16.88C9 16.76 9.08 16.76 9.17 16.76C9.26 16.76 9.35 16.81 9.35 16.88ZM8.35 16.73C8.35 16.8 8.35 16.88 8.49 16.9C8.52581 16.9172 8.56698 16.9195 8.60447 16.9063C8.64197 16.8932 8.67272 16.8658 8.69 16.83C8.69 16.76 8.69 16.69 8.55 16.66C8.41 16.63 8.37 16.66 8.35 16.73ZM9.77 16.68C9.68 16.68 9.62 16.76 9.63 16.84C9.64 16.92 9.72 16.95 9.82 16.93C9.92 16.91 9.97 16.84 9.96 16.77C9.95 16.7 9.87 16.67 9.77 16.68ZM11.9 3.99999C10.8454 3.99006 9.79959 4.1933 8.82544 4.59751C7.85128 5.00172 6.96883 5.59857 6.23104 6.35224C5.49325 7.10591 4.91532 8.00087 4.53194 8.9834C4.14856 9.96594 3.96762 11.0158 4 12.07C3.97208 13.7969 4.48423 15.4894 5.4649 16.9111C6.44557 18.3328 7.84579 19.4127 9.47 20C9.88 20.07 10.03 19.81 10.03 19.6C10.03 19.39 10.03 18.26 10.03 17.6C10.03 17.6 7.77 18.1 7.29 16.6C7.29 16.6 6.93 15.6 6.4 15.39C6.4 15.39 5.66 14.87 6.45 14.88C6.70874 14.9149 6.9557 15.0099 7.17105 15.1576C7.3864 15.3052 7.56414 15.5012 7.69 15.73C7.79463 15.9351 7.94007 16.1166 8.11738 16.2635C8.2947 16.4104 8.50016 16.5195 8.72115 16.5841C8.94215 16.6487 9.17401 16.6675 9.40252 16.6392C9.63103 16.611 9.85136 16.5364 10.05 16.42C10.0878 16.0025 10.2679 15.6107 10.56 15.31C8.76 15.1 6.94 14.84 6.94 11.65C6.92088 11.2896 6.97878 10.9293 7.10982 10.5931C7.24087 10.2568 7.44206 9.95238 7.7 9.69999C7.45664 8.96796 7.48504 8.17279 7.78 7.45999C8.46 7.23999 10.01 8.34999 10.01 8.34999C11.3342 7.97652 12.7358 7.97652 14.06 8.34999C14.06 8.34999 15.61 7.23999 16.29 7.45999C16.5913 8.17139 16.6198 8.96891 16.37 9.69999C16.637 9.9489 16.8489 10.2511 16.9918 10.587C17.1348 10.9228 17.2057 11.285 17.2 11.65C17.2 14.85 15.3 15.1 13.5 15.31C13.6809 15.5129 13.8186 15.7506 13.9045 16.0085C13.9905 16.2664 14.023 16.5391 14 16.81C14 17.93 14 19.31 14 19.58C13.9993 19.6475 14.015 19.7142 14.0456 19.7744C14.0762 19.8346 14.1209 19.8865 14.1759 19.9258C14.2308 19.965 14.2944 19.9905 14.3613 19.9999C14.4282 20.0093 14.4963 20.0025 14.56 19.98C16.1812 19.3978 17.5786 18.321 18.5547 16.9017C19.5308 15.4823 20.0364 13.7922 20 12.07C20.0094 11.0051 19.8061 9.94899 19.402 8.96368C18.9979 7.97837 18.4011 7.08366 17.6467 6.33202C16.8922 5.58038 15.9953 4.98693 15.0085 4.58648C14.0217 4.18603 12.9649 3.98663 11.9 3.99999V3.99999ZM7.14 15.41C7.14 15.41 7.14 15.52 7.14 15.58C7.15115 15.5912 7.16439 15.6001 7.17898 15.6061C7.19357 15.6122 7.2092 15.6153 7.225 15.6153C7.24079 15.6153 7.25643 15.6122 7.27102 15.6061C7.2856 15.6001 7.29885 15.5912 7.31 15.58C7.31 15.58 7.31 15.47 7.31 15.4C7.31 15.33 7.18 15.37 7.14 15.41ZM6.79 15.14C6.79 15.14 6.79 15.24 6.86 15.27C6.86843 15.2804 6.8791 15.2888 6.89121 15.2946C6.90332 15.3004 6.91657 15.3034 6.93 15.3034C6.94342 15.3034 6.95667 15.3004 6.96878 15.2946C6.9809 15.2888 6.99156 15.2804 7 15.27C7 15.27 7 15.17 6.93 15.14C6.86 15.11 6.81 15.11 6.79 15.14ZM7.79 16.32C7.79 16.32 7.79 16.46 7.79 16.53C7.79 16.6 7.96 16.61 8 16.53C8.04 16.45 8 16.39 8 16.32C8 16.25 7.87 16.27 7.83 16.32H7.79ZM7.42 15.83C7.42 15.83 7.42 15.95 7.42 16.03C7.42 16.11 7.56 16.14 7.61 16.11C7.63532 16.0809 7.64927 16.0436 7.64927 16.005C7.64927 15.9664 7.63532 15.9291 7.61 15.9C7.56 15.82 7.48 15.79 7.42 15.83V15.83Z" fill="currentColor"/>
</g>
</g>
</svg>
