<svg width="24" height="24" viewBox="0 0 24 24" fill="none" xmlns="http://www.w3.org/2000/svg">
<g >
<g id="globe">
<path  d="M12 3C10.22 3 8.47991 3.52784 6.99987 4.51677C5.51983 5.50571 4.36628 6.91131 3.68509 8.55585C3.0039 10.2004 2.82567 12.01 3.17294 13.7558C3.5202 15.5016 4.37737 17.1053 5.63604 18.364C6.89472 19.6226 8.49836 20.4798 10.2442 20.8271C11.99 21.1743 13.7996 20.9961 15.4442 20.3149C17.0887 19.6337 18.4943 18.4802 19.4832 17.0001C20.4722 15.5201 21 13.78 21 12C21 9.61305 20.0518 7.32387 18.364 5.63604C16.6761 3.94821 14.387 3 12 3V3ZM19.46 11.25H16.7C16.3507 8.84101 15.332 6.57849 13.76 4.72C15.2678 5.08729 16.625 5.91204 17.6455 7.08115C18.666 8.25025 19.2998 9.70644 19.46 11.25V11.25ZM8.81 12.75H15.19C14.7281 15.1188 13.6247 17.3153 12 19.1C10.3753 17.3153 9.2719 15.1188 8.81 12.75V12.75ZM8.81 11.25C9.2719 8.88119 10.3753 6.68468 12 4.9C13.6247 6.68468 14.7281 8.88119 15.19 11.25H8.81ZM10.24 4.72C8.66798 6.57849 7.64932 8.84101 7.3 11.25H4.54C4.70021 9.70644 5.33403 8.25025 6.35454 7.08115C7.37504 5.91204 8.73225 5.08729 10.24 4.72V4.72ZM4.54 12.72H7.3C7.64932 15.129 8.66798 17.3915 10.24 19.25C8.73666 18.8845 7.38264 18.0642 6.36258 16.901C5.34251 15.7377 4.70606 14.2882 4.54 12.75V12.72ZM13.76 19.25C15.332 17.3915 16.3507 15.129 16.7 12.72H19.46C19.3057 14.2689 18.6745 15.7318 17.6536 16.9067C16.6326 18.0817 15.2722 18.9109 13.76 19.28V19.25Z" fill="currentColor"/>
</g>
</g>
</svg>
