<svg width="24" height="24" viewBox="0 0 24 24" fill="none" xmlns="http://www.w3.org/2000/svg">
<g >
<g id="google">
<path  d="M19.76 10.77L19.67 10.42H12.23V13.58H16.68C16.4317 14.5442 15.8672 15.3974 15.0768 16.0029C14.2863 16.6084 13.3157 16.9313 12.32 16.92C11.0208 16.9093 9.77256 16.4135 8.82001 15.53C8.35176 15.0685 7.97913 14.5191 7.72346 13.9134C7.46778 13.3077 7.33408 12.6575 7.33001 12C7.34513 10.6795 7.86793 9.41541 8.79001 8.46999C9.72911 7.58035 10.9765 7.08929 12.27 7.09999C13.3779 7.10852 14.4446 7.52098 15.27 8.25999L17.47 5.99999C16.02 4.70635 14.1432 3.99407 12.2 3.99999V3.99999C11.131 3.99364 10.0713 4.1979 9.08128 4.60112C8.09126 5.00433 7.19036 5.5986 6.43001 6.34999C4.98371 7.85227 4.16828 9.85179 4.15154 11.9371C4.1348 14.0223 4.91802 16.0347 6.34001 17.56C7.12786 18.3449 8.06423 18.965 9.09442 19.3839C10.1246 19.8028 11.228 20.0123 12.34 20C13.3485 20.0075 14.3479 19.8102 15.2779 19.42C16.2078 19.0298 17.0488 18.4548 17.75 17.73C19.126 16.2171 19.8703 14.2346 19.83 12.19C19.8408 11.7156 19.8174 11.241 19.76 10.77Z" fill="currentColor"/>
</g>
</g>
</svg>
