<svg xmlns="http://www.w3.org/2000/svg" viewBox="0 0 20 21" fill="none" ><path d="M11.167 8c0 .644-.522 1.167-1.167 1.167S8.834 8.645 8.834 8s.522-1.167 1.167-1.167 1.167.522 1.167 1.167zm1.989-.583a1.17 1.17 0 0 1 .708-.544 1.16 1.16 0 0 1 .885.117c.268.155.463.41.544.708a1.16 1.16 0 0 1-.117.885 1.17 1.17 0 0 1-.708.544 1.16 1.16 0 0 1-.885-.117 1.17 1.17 0 0 1-.543-.708c-.08-.298-.038-.617.117-.885h0zm-8.334 0c.155-.268.41-.463.708-.544a1.16 1.16 0 0 1 .885.117c.268.155.463.41.544.708a1.16 1.16 0 0 1-.117.885c-.155.268-.41.463-.708.544a1.16 1.16 0 0 1-.885-.117c-.268-.155-.463-.41-.544-.708a1.16 1.16 0 0 1 .117-.885h0z" stroke="#000"/><path d="M16.928 13.265l.481-.135h0l-.481.135zm-5.178-1.778l-.291-.407-.532.38.507.414.316-.387zm1.03 1.774l.485-.12h0l-.485.12zm3.303.488h-4.167v1h4.167v-1zm.363-.349c.025.091.004.162-.05.223a.42.42 0 0 1-.313.126v1c.411 0 .797-.168 1.058-.459a1.22 1.22 0 0 0 .268-1.16l-.963.271zm-2.697-1.984c.949 0 1.549.299 1.943.67.405.381.63.875.754 1.314l.963-.271c-.153-.544-.45-1.224-1.031-1.772-.593-.558-1.444-.942-2.628-.942v1zm-1.709.478c.383-.273.925-.478 1.709-.478v-1c-.97 0-1.721.257-2.291.664l.581.814zm-.607-.02c.476.388.73.977.861 1.507l.971-.24c-.155-.626-.483-1.457-1.199-2.042l-.632.775zm.861 1.507c.024.096-.001.174-.06.239-.064.071-.177.129-.318.129v1c.796 0 1.577-.682 1.349-1.608l-.971.24zM8.25 11.488l.316.387.507-.414-.532-.38-.291.407zm-5.178 1.778l.481.135-.481-.135zm4.148-.003l.485.12h0l-.485-.12zm-.97-1.846c.784 0 1.327.205 1.709.478l.581-.814c-.57-.407-1.32-.664-2.291-.664v1zm-2.697 1.984c.123-.439.349-.933.754-1.314.394-.37.993-.67 1.943-.67v-1c-1.184 0-2.035.384-2.628.942-.582.548-.878 1.228-1.031 1.772l.963.271zm.363.349a.42.42 0 0 1-.313-.126.22.22 0 0 1-.05-.223l-.963-.271a1.22 1.22 0 0 0 .268 1.16c.261.291.647.459 1.058.459v-1zm4.167 0H3.917v1h4.167v-1zm0 0a.43.43 0 0 1-.318-.129c-.059-.065-.083-.143-.06-.239l-.971-.24c-.228.925.552 1.608 1.349 1.608v-1zm-.378-.368c.131-.53.385-1.119.861-1.507l-.632-.775c-.716.584-1.045 1.415-1.199 2.042l.971.24z" fill="currentColor"/><g stroke="#000"><path d="M10.001 10.917c1.865 0 2.537 1.363 2.78 2.346.132.536-.311.988-.863.988H8.084c-.552 0-.996-.452-.863-.988.243-.983.915-2.346 2.78-2.346z"/><g stroke-linecap="round"><path d="M15.416 18.417h1a1.5 1.5 0 0 0 1.5-1.5v-1m-2.5-13.333h1a1.5 1.5 0 0 1 1.5 1.5v1M4.584 18.417h-1a1.5 1.5 0 0 1-1.5-1.5v-1"/><path d="M4.584 2.584h-1a1.5 1.5 0 0 0-1.5 1.5v1"/></g></g></svg>