<svg width="20" height="21" viewBox="0 0 20 21" fill="none" xmlns="http://www.w3.org/2000/svg">
<path d="M11.1673 8.00016C11.1673 8.6445 10.645 9.16683 10.0007 9.16683C9.35632 9.16683 8.83398 8.6445 8.83398 8.00016C8.83398 7.35583 9.35632 6.8335 10.0007 6.8335C10.645 6.8335 11.1673 7.35583 11.1673 8.00016Z" stroke="currentColor" stroke-linecap="round"/>
<path d="M13.1563 7.41683C13.311 7.14886 13.5658 6.95333 13.8647 6.87325C14.1636 6.79317 14.482 6.83509 14.75 6.9898C15.018 7.14451 15.2135 7.39933 15.2936 7.69821C15.3737 7.99708 15.3317 8.31553 15.177 8.5835C15.0223 8.85146 14.7675 9.04699 14.4686 9.12708C14.1697 9.20716 13.8513 9.16524 13.5833 9.01053C13.3154 8.85582 13.1198 8.60099 13.0398 8.30212C12.9597 8.00324 13.0016 7.68479 13.1563 7.41683L13.1563 7.41683Z" stroke="currentColor"/>
<path d="M4.82232 7.41683C4.97703 7.14886 5.23185 6.95333 5.53073 6.87325C5.8296 6.79317 6.14805 6.83509 6.41602 6.9898C6.68398 7.14451 6.87951 7.39933 6.9596 7.69821C7.03968 7.99708 6.99776 8.31553 6.84305 8.5835C6.68834 8.85146 6.43351 9.04699 6.13464 9.12708C5.83576 9.20716 5.51731 9.16524 5.24935 9.01053C4.98138 8.85582 4.78585 8.60099 4.70577 8.30212C4.62569 8.00324 4.66761 7.68479 4.82232 7.41683L4.82232 7.41683Z" stroke="currentColor"/>
<path d="M16.9279 13.2654L17.4093 13.13V13.13L16.9279 13.2654ZM11.75 11.4877L11.4593 11.0808L10.927 11.4612L11.4338 11.875L11.75 11.4877ZM12.7799 13.262L13.2653 13.1422L13.2653 13.1422L12.7799 13.262ZM16.0833 13.7498H11.9167V14.7498H16.0833V13.7498ZM16.4466 13.4007C16.472 13.4913 16.4506 13.5628 16.3962 13.6235C16.3352 13.6917 16.2248 13.7498 16.0833 13.7498V14.7498C16.4941 14.7498 16.8807 14.5816 17.1413 14.2904C17.4086 13.9919 17.5333 13.5711 17.4093 13.13L16.4466 13.4007ZM13.75 11.4165C14.6993 11.4165 15.2992 11.7159 15.6927 12.0863C16.0975 12.4674 16.3231 12.9614 16.4466 13.4007L17.4093 13.13C17.2564 12.5862 16.9598 11.9058 16.3782 11.3582C15.7852 10.8 14.9343 10.4165 13.75 10.4165V11.4165ZM12.0407 11.8945C12.4233 11.6211 12.9655 11.4165 13.75 11.4165V10.4165C12.7799 10.4165 12.0293 10.6737 11.4593 11.0808L12.0407 11.8945ZM11.4338 11.875C11.9093 12.2632 12.1636 12.8517 12.2944 13.3818L13.2653 13.1422C13.1107 12.5158 12.782 11.6848 12.0662 11.1004L11.4338 11.875ZM12.2944 13.3818C12.3181 13.4778 12.2936 13.5561 12.2347 13.621C12.1703 13.692 12.0579 13.7498 11.9167 13.7498V14.7498C12.713 14.7498 13.4937 14.0675 13.2653 13.1422L12.2944 13.3818Z" fill="currentColor"/>
<path d="M8.25028 11.4877L8.5665 11.875L9.07332 11.4612L8.54093 11.0808L8.25028 11.4877ZM3.07236 13.2653L3.5537 13.4007L3.07236 13.2653ZM7.22039 13.262L7.70583 13.3818V13.3818L7.22039 13.262ZM6.2503 11.4165C7.03477 11.4165 7.57698 11.6211 7.95962 11.8945L8.54093 11.0808C7.97102 10.6737 7.22043 10.4165 6.2503 10.4165V11.4165ZM3.5537 13.4007C3.67719 12.9614 3.90276 12.4674 4.30758 12.0863C4.70109 11.7159 5.30096 11.4165 6.2503 11.4165V10.4165C5.06598 10.4165 4.21507 10.8 3.62213 11.3582C3.04048 11.9058 2.74391 12.5862 2.59102 13.13L3.5537 13.4007ZM3.91698 13.7498C3.77548 13.7498 3.66509 13.6917 3.60408 13.6235C3.5497 13.5628 3.52823 13.4913 3.5537 13.4007L2.59102 13.13C2.46702 13.5711 2.59171 13.9919 2.85894 14.2904C3.11953 14.5816 3.50618 14.7498 3.91698 14.7498V13.7498ZM8.0836 13.7498H3.91698V14.7498H8.0836V13.7498ZM8.0836 13.7498C7.94234 13.7498 7.83001 13.692 7.76552 13.621C7.70665 13.5561 7.68214 13.4778 7.70583 13.3818L6.73495 13.1422C6.50661 14.0676 7.28727 14.7498 8.0836 14.7498V13.7498ZM7.70583 13.3818C7.83663 12.8517 8.09099 12.2632 8.5665 11.875L7.93406 11.1004C7.21825 11.6848 6.88953 12.5158 6.73495 13.1422L7.70583 13.3818Z" fill="currentColor"/>
<path d="M10.0007 10.9165C11.8655 10.9165 12.538 12.2792 12.7805 13.262C12.9128 13.7982 12.4696 14.2498 11.9173 14.2498H8.08399C7.5317 14.2498 7.08846 13.7982 7.22077 13.262C7.4633 12.2792 8.1358 10.9165 10.0007 10.9165Z" stroke="currentColor" stroke-linecap="round"/>
<path d="M15.416 18.4165H16.416C17.2444 18.4165 17.916 17.7449 17.916 16.9165V15.9165" stroke="currentColor" stroke-linecap="round"/>
<path d="M15.416 2.5835H16.416C17.2444 2.5835 17.916 3.25507 17.916 4.0835V5.0835" stroke="currentColor" stroke-linecap="round"/>
<path d="M4.58398 18.4165H3.58398C2.75556 18.4165 2.08398 17.7449 2.08398 16.9165V15.9165" stroke="currentColor" stroke-linecap="round"/>
<path d="M4.58398 2.5835H3.58398C2.75556 2.5835 2.08398 3.25507 2.08398 4.0835V5.0835" stroke="currentColor" stroke-linecap="round"/>
</svg>
