<svg width="24" height="24" viewBox="0 0 24 24" fill="none" xmlns="http://www.w3.org/2000/svg">
<g >
<g id="hashtag">
<path  d="M21 7.25001H18L18.77 4.18C18.8177 3.9864 18.7866 3.78175 18.6835 3.6111C18.5803 3.44044 18.4136 3.31774 18.22 3.27001C18.0264 3.22227 17.8217 3.25339 17.6511 3.35654C17.4804 3.45968 17.3577 3.6264 17.31 3.82001L16.45 7.25001H10L10.77 4.18C10.8177 3.9864 10.7866 3.78175 10.6835 3.6111C10.5803 3.44044 10.4136 3.31774 10.22 3.27001C10.0264 3.22227 9.82175 3.25339 9.65109 3.35654C9.48043 3.45968 9.35774 3.6264 9.31 3.82001L8.41 7.25001H5C4.80109 7.25001 4.61032 7.32902 4.46967 7.46968C4.32902 7.61033 4.25 7.80109 4.25 8.00001C4.25 8.19892 4.32902 8.38968 4.46967 8.53033C4.61032 8.67099 4.80109 8.75001 5 8.75001H8L6.37 15.25H3C2.80109 15.25 2.61032 15.329 2.46967 15.4697C2.32902 15.6103 2.25 15.8011 2.25 16C2.25 16.1989 2.32902 16.3897 2.46967 16.5303C2.61032 16.671 2.80109 16.75 3 16.75H6L5.23 19.82C5.18226 20.0136 5.21339 20.2183 5.31653 20.3889C5.41968 20.5596 5.58639 20.6823 5.78 20.73C5.97361 20.7777 6.17825 20.7466 6.34891 20.6435C6.51957 20.5403 6.64226 20.3736 6.69 20.18L7.55 16.75H14L13.23 19.82C13.1823 20.0136 13.2134 20.2183 13.3165 20.3889C13.4197 20.5596 13.5864 20.6823 13.78 20.73C13.9736 20.7777 14.1783 20.7466 14.3489 20.6435C14.5196 20.5403 14.6423 20.3736 14.69 20.18L15.55 16.75H19C19.1989 16.75 19.3897 16.671 19.5303 16.5303C19.671 16.3897 19.75 16.1989 19.75 16C19.75 15.8011 19.671 15.6103 19.5303 15.4697C19.3897 15.329 19.1989 15.25 19 15.25H16L17.63 8.75001H21C21.1989 8.75001 21.3897 8.67099 21.5303 8.53033C21.671 8.38968 21.75 8.19892 21.75 8.00001C21.75 7.80109 21.671 7.61033 21.5303 7.46968C21.3897 7.32902 21.1989 7.25001 21 7.25001ZM16 8.75001L14.37 15.25H8L9.63 8.75001H16Z" fill="currentColor"/>
</g>
</g>
</svg>
