<svg width="24" height="24" viewBox="0 0 24 24" fill="none" xmlns="http://www.w3.org/2000/svg">
<g >
<g id="heart">
<path  d="M12 19.75C11.8011 19.7498 11.6105 19.6707 11.47 19.53L4.69998 12.74C3.78384 11.8054 3.27069 10.5488 3.27069 9.24C3.27069 7.93123 3.78384 6.67464 4.69998 5.74C5.62827 4.8118 6.88724 4.29035 8.19998 4.29035C9.51271 4.29035 10.7717 4.8118 11.7 5.74L12 6L12.28 5.72C12.739 5.256 13.2857 4.88795 13.8883 4.6373C14.4909 4.38664 15.1373 4.25839 15.79 4.26V4.26C16.4419 4.25708 17.088 4.38376 17.6905 4.63268C18.2931 4.8816 18.8402 5.2478 19.3 5.71V5.71C20.2161 6.64464 20.7293 7.90123 20.7293 9.21C20.7293 10.5188 20.2161 11.7754 19.3 12.71L12.53 19.5C12.4629 19.5751 12.3815 19.636 12.2904 19.6789C12.1993 19.7219 12.1006 19.746 12 19.75V19.75ZM8.20998 5.75C7.75581 5.74669 7.30548 5.83336 6.88497 6.00499C6.46447 6.17662 6.08212 6.42983 5.75998 6.75C5.11085 7.40215 4.74643 8.28485 4.74643 9.205C4.74643 10.1251 5.11085 11.0078 5.75998 11.66L12 17.94L18.23 11.68C18.5526 11.3577 18.8085 10.975 18.9832 10.5538C19.1578 10.1325 19.2477 9.681 19.2477 9.225C19.2477 8.76899 19.1578 8.31746 18.9832 7.89621C18.8085 7.47496 18.5526 7.09227 18.23 6.77V6.77C17.9104 6.44923 17.5299 6.19554 17.1109 6.02381C16.6919 5.85209 16.2428 5.7658 15.79 5.77V5.77C15.3358 5.76669 14.8855 5.85336 14.465 6.02499C14.0445 6.19662 13.6621 6.44983 13.34 6.77L12.53 7.58C12.3869 7.71575 12.1972 7.79143 12 7.79143C11.8028 7.79143 11.613 7.71575 11.47 7.58L10.66 6.77C10.3395 6.44622 9.95788 6.18932 9.5373 6.01423C9.11672 5.83913 8.66555 5.74931 8.20998 5.75V5.75Z" fill="currentColor"/>
</g>
</g>
</svg>
