<svg width="24" height="24" viewBox="0 0 24 24" fill="none" xmlns="http://www.w3.org/2000/svg">
<g>
<g id="id-card">
<path  d="M19 18.75H5C4.53668 18.7474 4.09309 18.5622 3.76546 18.2345C3.43784 17.9069 3.25263 17.4633 3.25 17V7C3.25263 6.53668 3.43784 6.09309 3.76546 5.76546C4.09309 5.43784 4.53668 5.25263 5 5.25H19C19.4633 5.25263 19.9069 5.43784 20.2345 5.76546C20.5622 6.09309 20.7474 6.53668 20.75 7V17C20.7474 17.4633 20.5622 17.9069 20.2345 18.2345C19.9069 18.5622 19.4633 18.7474 19 18.75V18.75ZM5 6.75C4.9337 6.75 4.87011 6.77634 4.82322 6.82322C4.77634 6.87011 4.75 6.9337 4.75 7V17C4.75 17.0663 4.77634 17.1299 4.82322 17.1768C4.87011 17.2237 4.9337 17.25 5 17.25H19C19.0663 17.25 19.1299 17.2237 19.1768 17.1768C19.2237 17.1299 19.25 17.0663 19.25 17V7C19.25 6.9337 19.2237 6.87011 19.1768 6.82322C19.1299 6.77634 19.0663 6.75 19 6.75H5Z" fill="currentColor"/>
<path  d="M9 11.75C8.60444 11.75 8.21776 11.6327 7.88886 11.4129C7.55996 11.1932 7.30362 10.8808 7.15224 10.5154C7.00087 10.1499 6.96126 9.74778 7.03843 9.35982C7.1156 8.97186 7.30608 8.61549 7.58579 8.33579C7.86549 8.05608 8.22186 7.8656 8.60982 7.78843C8.99778 7.71126 9.39991 7.75087 9.76537 7.90224C10.1308 8.05362 10.4432 8.30996 10.6629 8.63886C10.8827 8.96776 11 9.35444 11 9.75C11 10.2804 10.7893 10.7891 10.4142 11.1642C10.0391 11.5393 9.53043 11.75 9 11.75ZM9 9.25C8.90111 9.25 8.80444 9.27933 8.72221 9.33427C8.63999 9.38921 8.5759 9.4673 8.53806 9.55866C8.50022 9.65002 8.49031 9.75056 8.50961 9.84755C8.5289 9.94454 8.57652 10.0336 8.64645 10.1036C8.71637 10.1735 8.80546 10.2211 8.90245 10.2404C8.99944 10.2597 9.09998 10.2498 9.19134 10.2119C9.2827 10.1741 9.36079 10.11 9.41574 10.0278C9.47068 9.94556 9.5 9.84889 9.5 9.75C9.5 9.61739 9.44732 9.49022 9.35355 9.39645C9.25979 9.30268 9.13261 9.25 9 9.25Z" fill="currentColor"/>
<path  d="M12 15.75C11.8019 15.7474 11.6126 15.6676 11.4725 15.5275C11.3324 15.3874 11.2526 15.1981 11.25 15C11.25 14.32 11.08 13.75 9 13.75C6.92 13.75 6.75 14.32 6.75 15C6.75 15.1989 6.67098 15.3897 6.53033 15.5303C6.38968 15.671 6.19891 15.75 6 15.75C5.80109 15.75 5.61032 15.671 5.46967 15.5303C5.32902 15.3897 5.25 15.1989 5.25 15C5.25 12.25 8.07 12.25 9 12.25C9.93 12.25 12.75 12.25 12.75 15C12.7474 15.1981 12.6676 15.3874 12.5275 15.5275C12.3874 15.6676 12.1981 15.7474 12 15.75V15.75Z" fill="currentColor"/>
<path  d="M17 10.75H14C13.8011 10.75 13.6103 10.671 13.4697 10.5303C13.329 10.3897 13.25 10.1989 13.25 10C13.25 9.80109 13.329 9.61032 13.4697 9.46967C13.6103 9.32902 13.8011 9.25 14 9.25H17C17.1989 9.25 17.3897 9.32902 17.5303 9.46967C17.671 9.61032 17.75 9.80109 17.75 10C17.75 10.1989 17.671 10.3897 17.5303 10.5303C17.3897 10.671 17.1989 10.75 17 10.75Z" fill="currentColor"/>
<path  d="M16 13.75H14C13.8011 13.75 13.6103 13.671 13.4697 13.5303C13.329 13.3897 13.25 13.1989 13.25 13C13.25 12.8011 13.329 12.6103 13.4697 12.4697C13.6103 12.329 13.8011 12.25 14 12.25H16C16.1989 12.25 16.3897 12.329 16.5303 12.4697C16.671 12.6103 16.75 12.8011 16.75 13C16.75 13.1989 16.671 13.3897 16.5303 13.5303C16.3897 13.671 16.1989 13.75 16 13.75V13.75Z" fill="currentColor"/>
</g>
</g>
</svg>
