<svg width="24" height="24" viewBox="0 0 24 24" fill="none" xmlns="http://www.w3.org/2000/svg">
<g >
<g id="inbox">
<path  d="M18 20H6C5.63886 20 5.28127 19.9289 4.94762 19.7907C4.61398 19.6525 4.31082 19.4499 4.05546 19.1945C3.8001 18.9392 3.59753 18.636 3.45933 18.3024C3.32113 17.9687 3.25 17.6111 3.25 17.25V11.25C3.25 11.0511 3.32902 10.8603 3.46967 10.7197C3.61032 10.579 3.80109 10.5 4 10.5C4.19891 10.5 4.38968 10.579 4.53033 10.7197C4.67098 10.8603 4.75 11.0511 4.75 11.25V17.25C4.746 17.4167 4.77538 17.5824 4.8364 17.7376C4.89742 17.8927 4.98886 18.0341 5.10534 18.1533C5.22181 18.2726 5.36097 18.3674 5.51461 18.4321C5.66826 18.4967 5.83329 18.53 6 18.53H18C18.3315 18.53 18.6495 18.3983 18.8839 18.1639C19.1183 17.9295 19.25 17.6115 19.25 17.28V11.28C19.25 11.0811 19.329 10.8903 19.4697 10.7497C19.6103 10.609 19.8011 10.53 20 10.53C20.1989 10.53 20.3897 10.609 20.5303 10.7497C20.671 10.8903 20.75 11.0811 20.75 11.28V17.28C20.7421 18.0041 20.4489 18.6959 19.934 19.2052C19.4191 19.7144 18.7242 20 18 20V20Z" fill="currentColor"/>
<path  d="M12 15.25C11.0926 15.2506 10.2159 14.9212 9.53334 14.3232C8.85078 13.7253 8.40889 12.8996 8.29 12H4C3.8654 12.001 3.73301 11.9658 3.61672 11.898C3.50043 11.8302 3.40452 11.7324 3.33907 11.6147C3.27361 11.4971 3.24101 11.3641 3.2447 11.2295C3.24838 11.095 3.28821 10.9639 3.36 10.85L7.09 4.85001C7.24314 4.58216 7.46668 4.36135 7.73639 4.21151C8.0061 4.06168 8.31168 3.98853 8.62 4.00001H15.38C15.7095 4.00092 16.032 4.09539 16.31 4.27242C16.5879 4.44945 16.8099 4.70177 16.95 5.00001L20.64 10.94C20.6906 11.051 20.7134 11.1727 20.7064 11.2944C20.6993 11.4162 20.6627 11.5344 20.5997 11.6389C20.5366 11.7433 20.449 11.8308 20.3445 11.8937C20.2401 11.9566 20.1218 11.9931 20 12H15.71C15.5911 12.8996 15.1492 13.7253 14.4667 14.3232C13.7841 14.9212 12.9074 15.2506 12 15.25ZM5.35 10.53H9C9.19891 10.53 9.38968 10.609 9.53033 10.7497C9.67098 10.8903 9.75 11.0811 9.75 11.28V11.5C9.75 12.0967 9.98705 12.669 10.409 13.091C10.831 13.513 11.4033 13.75 12 13.75C12.5967 13.75 13.169 13.513 13.591 13.091C14.0129 12.669 14.25 12.0967 14.25 11.5V11.28C14.25 11.0811 14.329 10.8903 14.4697 10.7497C14.6103 10.609 14.8011 10.53 15 10.53H18.65L15.65 5.67001C15.57 5.53001 15.49 5.47001 15.39 5.47001H8.62C8.57276 5.47118 8.52666 5.48473 8.4863 5.50929C8.44594 5.53386 8.41274 5.56859 8.39 5.61001L5.35 10.53Z" fill="currentColor"/>
</g>
</g>
</svg>
