<svg width="24" height="24" viewBox="0 0 24 24" fill="none" xmlns="http://www.w3.org/2000/svg">
<path d="M18.6798 12C18.6798 13.3212 18.2881 14.6127 17.554 15.7112C16.82 16.8097 15.7768 17.6659 14.5562 18.1715C13.3355 18.6771 11.9924 18.8094 10.6966 18.5516C9.40083 18.2939 8.21057 17.6577 7.27635 16.7235C6.34214 15.7893 5.70593 14.599 5.44818 13.3032C5.19043 12.0074 5.32272 10.6643 5.82831 9.44367C6.33391 8.22306 7.1901 7.17979 8.28862 6.44578C9.38714 5.71177 10.6786 5.32 11.9998 5.32C12.8789 5.31334 13.7505 5.48158 14.564 5.81493C15.3775 6.14827 16.1165 6.64007 16.7381 7.26169C17.3598 7.88332 17.8516 8.62236 18.1849 9.43582C18.5182 10.2493 18.6865 11.1209 18.6798 12Z" stroke="black" stroke-miterlimit="10" stroke-linecap="square"/>
<path d="M22.5 12C22.5 12.9 21.4 13.64 21.18 14.46C20.96 15.28 21.53 16.51 21.1 17.25C20.67 17.99 19.33 18.1 18.72 18.72C18.11 19.34 18.01 20.66 17.25 21.09C16.49 21.52 15.31 20.95 14.46 21.18C13.61 21.41 12.89 22.5 12 22.5C11.11 22.5 10.37 21.4 9.54 21.18C8.71 20.96 7.54 21.53 6.75 21.09C5.96 20.65 5.9 19.33 5.28 18.72C4.66 18.11 3.34 18 2.9 17.25C2.46 16.5 3.05 15.32 2.82 14.46C2.59 13.6 1.5 12.9 1.5 12C1.5 11.1 2.6 10.36 2.82 9.54C3.04 8.72 2.47 7.54 2.9 6.75C3.33 5.96 4.66 5.9 5.28 5.28C5.9 4.66 6 3.34 6.75 2.9C7.5 2.46 8.68 3.05 9.54 2.82C10.4 2.59 11.1 1.5 12 1.5C12.9 1.5 13.64 2.6 14.46 2.82C15.28 3.04 16.46 2.47 17.25 2.9C18.04 3.33 18.1 4.66 18.72 5.28C19.34 5.9 20.66 6 21.1 6.75C21.54 7.5 20.95 8.68 21.18 9.54C21.41 10.4 22.5 11.1 22.5 12Z" stroke="black" stroke-miterlimit="10" stroke-linecap="square"/>
<path d="M12.0002 7.92L13.1802 10.38L15.8202 10.78L13.9102 12.7L14.3602 15.41L12.0002 14.13L9.64018 15.41L10.0902 12.7L8.18018 10.78L10.8202 10.38L12.0002 7.92Z" fill="black"/>
</svg>
