<svg width="24" height="24" viewBox="0 0 24 24" fill="none" xmlns="http://www.w3.org/2000/svg">
<path d="M6.27989 22.49H13.8399C14.4663 22.4909 15.0866 22.3676 15.665 22.1273C16.2435 21.887 16.7685 21.5344 17.2099 21.09L21.9199 16.38C22.1107 16.1904 22.2613 15.9643 22.3626 15.7151C22.464 15.466 22.5141 15.1989 22.5099 14.93C22.5165 14.5273 22.4014 14.132 22.1796 13.7958C21.9577 13.4596 21.6396 13.1982 21.2668 13.0459C20.894 12.8935 20.4838 12.8572 20.0901 12.9418C19.6963 13.0264 19.3372 13.228 19.0599 13.52L13.9099 18.67H12.9999C13.2771 18.671 13.5512 18.6114 13.8029 18.4953C14.0546 18.3792 14.2778 18.2094 14.457 17.9979C14.6361 17.7864 14.7668 17.5382 14.8399 17.2708C14.9129 17.0034 14.9266 16.7232 14.8799 16.45C14.7843 15.9933 14.5321 15.5844 14.1669 15.294C13.8016 15.0036 13.3464 14.8501 12.8799 14.86H9.13989L8.20989 14.4C7.4121 14.0024 6.51702 13.8419 5.63079 13.9376C4.74456 14.0333 3.90437 14.3812 3.20989 14.94C2.67415 15.3775 2.24398 15.9302 1.95138 16.557C1.65878 17.1837 1.51129 17.8684 1.51989 18.56V18.67" stroke="black" stroke-miterlimit="10"/>
<path d="M12.9499 18.67H8.18994" stroke="black" stroke-miterlimit="10"/>
<path d="M5.33008 1.51001H7.23008C8.49516 1.51001 9.70843 2.01256 10.603 2.90711C11.4975 3.80166 12.0001 5.01493 12.0001 6.28001H10.0901C8.82673 6.27736 7.61603 5.77364 6.72364 4.87938C5.83125 3.98512 5.33008 2.77336 5.33008 1.51001Z" stroke="black" stroke-miterlimit="10"/>
<path d="M13.9102 7.23001H12.0002C12.0002 6.60361 12.1236 5.98333 12.3633 5.40461C12.603 4.82589 12.9543 4.30005 13.3973 3.85711C13.8402 3.41418 14.3661 3.06282 14.9448 2.82311C15.5235 2.58339 16.1438 2.46001 16.7702 2.46001H18.6802C18.6802 3.72509 18.1776 4.93836 17.2831 5.83291C16.3885 6.72746 15.1753 7.23001 13.9102 7.23001Z" stroke="black" stroke-miterlimit="10"/>
<path d="M12 14.86V6.28" stroke="black" stroke-miterlimit="10"/>
</svg>
