<svg viewBox="0 0 131 134" fill="none" xmlns="http://www.w3.org/2000/svg">
<g filter="url(#filter0_d_742_9490)">
<mask id="path-1-inside-1_742_9490" fill="white">
<path d="M6.65685 98.9947C3.53266 95.8706 3.53266 90.8052 6.65685 87.681L88.6812 5.65665C91.8054 2.53246 96.8708 2.53246 99.9949 5.65665L124.037 29.6983C127.161 32.8225 127.161 37.8878 124.037 41.012L42.0122 123.036C38.888 126.161 33.8227 126.161 30.6985 123.036L6.65685 98.9947Z"/>
</mask>
<path d="M6.65685 98.9947C3.53266 95.8706 3.53266 90.8052 6.65685 87.681L88.6812 5.65665C91.8054 2.53246 96.8708 2.53246 99.9949 5.65665L124.037 29.6983C127.161 32.8225 127.161 37.8878 124.037 41.012L42.0122 123.036C38.888 126.161 33.8227 126.161 30.6985 123.036L6.65685 98.9947Z" fill="white" shape-rendering="crispEdges"/>
<g clip-path="url(#clip0_742_9490)">
<path d="M35.9543 87.4783L38.6272 98.1367C38.6874 98.3616 38.8055 98.5668 38.9697 98.7319C39.1338 98.897 39.3384 99.0162 39.5629 99.0777C39.7875 99.1392 40.0242 99.1408 40.2496 99.0824C40.4749 99.024 40.6811 98.9076 40.8475 98.7448L48.8331 90.7592C48.9959 90.5928 49.1123 90.3867 49.1707 90.1613C49.2291 89.9359 49.2275 89.6992 49.166 89.4746C49.1045 89.2501 48.9852 89.0456 48.8202 88.8814C48.6551 88.7172 48.4499 88.5992 48.225 88.5389L37.5665 85.8661C37.344 85.8115 37.1111 85.8153 36.8904 85.877C36.6697 85.9387 36.4686 86.0563 36.3066 86.2183C36.1446 86.3803 36.027 86.5814 35.9653 86.8021C35.9036 87.0228 35.8998 87.2557 35.9543 87.4783V87.4783Z" stroke="black" stroke-linecap="round" stroke-linejoin="round"/>
<path d="M39.1836 89.0957L41.0692 90.9813" stroke="black" stroke-linecap="round" stroke-linejoin="round"/>
<path d="M42.9551 92.8672L42.9598 92.8625" stroke="black" stroke-linecap="round" stroke-linejoin="round"/>
</g>
<path d="M74.008 52.2278L78.5323 56.7522L77.9326 57.3519L73.4082 52.8276L74.008 52.2278ZM80.6019 52.899C80.519 52.8162 80.4237 52.7582 80.316 52.725C80.2083 52.6877 80.0695 52.696 79.8996 52.7499C79.7297 52.7996 79.5122 52.9135 79.247 53.0917C79.0212 53.2388 78.8058 53.361 78.6007 53.4584C78.3977 53.5537 78.205 53.6158 78.0227 53.6448C77.8425 53.6717 77.6726 53.6614 77.5131 53.6137C77.3536 53.5661 77.2044 53.4729 77.0657 53.3341C76.9331 53.2015 76.8367 53.0472 76.7767 52.8711C76.7187 52.6929 76.6979 52.5044 76.7145 52.3055C76.7332 52.1046 76.7932 51.9016 76.8947 51.6965C76.9963 51.4914 77.1413 51.2946 77.3298 51.1061C77.5991 50.8368 77.8767 50.6545 78.1626 50.5592C78.4484 50.4639 78.7219 50.4452 78.9829 50.5032C79.2419 50.5592 79.4677 50.6835 79.6603 50.8761L79.0855 51.451C78.9922 51.3578 78.8742 51.2956 78.7312 51.2645C78.5883 51.2293 78.435 51.2355 78.2713 51.2832C78.1097 51.3288 77.9533 51.4272 77.8021 51.5784C77.6426 51.7379 77.538 51.8922 77.4883 52.0414C77.4385 52.1864 77.4282 52.319 77.4572 52.4391C77.4883 52.5572 77.5452 52.6577 77.6281 52.7406C77.6902 52.8027 77.7565 52.8483 77.827 52.8773C77.8974 52.9021 77.9813 52.9073 78.0787 52.8928C78.174 52.8763 78.29 52.8348 78.4267 52.7685C78.5634 52.7022 78.7281 52.608 78.9208 52.4858C79.2584 52.2724 79.5599 52.1201 79.825 52.029C80.0902 51.9378 80.3295 51.9119 80.5428 51.9513C80.7562 51.9906 80.953 52.1004 81.1332 52.2807C81.2803 52.4277 81.3839 52.5935 81.444 52.7778C81.5061 52.9602 81.5237 53.1538 81.4968 53.3589C81.4699 53.5599 81.4015 53.765 81.2917 53.9742C81.1819 54.1793 81.0286 54.3802 80.8318 54.577C80.5356 54.8733 80.2321 55.0711 79.9214 55.1706C79.6106 55.27 79.3185 55.2886 79.0451 55.2265C78.7716 55.1643 78.5417 55.04 78.3552 54.8536L78.9332 54.2756C79.0989 54.4248 79.2698 54.5045 79.4459 54.5149C79.6199 54.5232 79.7867 54.4869 79.9462 54.4061C80.1037 54.3233 80.2414 54.2228 80.3595 54.1047C80.5169 53.9473 80.6278 53.795 80.692 53.6479C80.7583 53.4988 80.7831 53.36 80.7666 53.2315C80.75 53.1031 80.6951 52.9923 80.6019 52.899ZM83.8895 49.6114C83.8066 49.5285 83.7113 49.4705 83.6036 49.4374C83.4959 49.4001 83.3571 49.4084 83.1872 49.4623C83.0174 49.512 82.7998 49.6259 82.5347 49.8041C82.3089 49.9511 82.0934 50.0734 81.8883 50.1707C81.6853 50.266 81.4927 50.3282 81.3104 50.3572C81.1301 50.3841 80.9603 50.3738 80.8007 50.3261C80.6412 50.2785 80.4921 50.1852 80.3533 50.0464C80.2207 49.9139 80.1244 49.7595 80.0643 49.5834C80.0063 49.4053 79.9856 49.2168 80.0021 49.0179C80.0208 48.8169 80.0809 48.6139 80.1824 48.4088C80.2839 48.2038 80.4289 48.007 80.6174 47.8184C80.8867 47.5491 81.1643 47.3668 81.4502 47.2715C81.7361 47.1762 82.0095 47.1576 82.2705 47.2156C82.5295 47.2715 82.7553 47.3958 82.948 47.5885L82.3731 48.1634C82.2799 48.0701 82.1618 48.008 82.0189 47.9769C81.8759 47.9417 81.7226 47.9479 81.559 47.9956C81.3974 48.0411 81.241 48.1395 81.0897 48.2908C80.9302 48.4503 80.8256 48.6046 80.7759 48.7538C80.7262 48.8988 80.7158 49.0314 80.7448 49.1515C80.7759 49.2696 80.8329 49.3701 80.9157 49.4529C80.9779 49.5151 81.0442 49.5607 81.1146 49.5897C81.185 49.6145 81.2689 49.6197 81.3663 49.6052C81.4616 49.5886 81.5776 49.5472 81.7143 49.4809C81.8511 49.4146 82.0157 49.3203 82.2084 49.1981C82.5461 48.9847 82.8475 48.8325 83.1127 48.7413C83.3778 48.6502 83.6171 48.6243 83.8305 48.6636C84.0438 48.703 84.2406 48.8128 84.4209 48.993C84.568 49.1401 84.6715 49.3058 84.7316 49.4902C84.7938 49.6725 84.8114 49.8662 84.7844 50.0713C84.7575 50.2722 84.6891 50.4773 84.5794 50.6866C84.4696 50.8917 84.3163 51.0926 84.1195 51.2894C83.8232 51.5856 83.5197 51.7835 83.209 51.8829C82.8982 51.9824 82.6061 52.001 82.3327 51.9389C82.0592 51.8767 81.8293 51.7524 81.6429 51.566L82.2208 50.988C82.3866 51.1371 82.5575 51.2169 82.7336 51.2273C82.9076 51.2355 83.0743 51.1993 83.2338 51.1185C83.3913 51.0356 83.529 50.9352 83.6471 50.8171C83.8046 50.6596 83.9154 50.5074 83.9796 50.3603C84.0459 50.2111 84.0708 50.0723 84.0542 49.9439C84.0376 49.8155 83.9827 49.7046 83.8895 49.6114ZM87.3915 46.3393L84.8062 43.754L85.3842 43.176L88.7464 46.5382L88.1964 47.0882L87.3915 46.3393ZM86.7918 45.5221L87.0249 45.2766C87.2486 45.5003 87.4319 45.7313 87.5749 45.9695C87.7178 46.2036 87.8069 46.4419 87.8421 46.6842C87.8773 46.9266 87.8504 47.1711 87.7613 47.4176C87.6702 47.662 87.5045 47.9044 87.2641 48.1447C87.1005 48.3084 86.9265 48.4347 86.7421 48.5238C86.5598 48.6108 86.3703 48.6533 86.1734 48.6512C85.9766 48.6491 85.7716 48.5953 85.5582 48.4896C85.3469 48.3819 85.1294 48.2162 84.9056 47.9924L82.7367 45.8235L83.3115 45.2486L85.4867 47.4238C85.6379 47.575 85.7798 47.6838 85.9124 47.7501C86.045 47.8122 86.1693 47.8433 86.2853 47.8433C86.4013 47.8392 86.507 47.8122 86.6023 47.7625C86.6996 47.7107 86.7877 47.6455 86.8664 47.5667C87.1108 47.3223 87.2579 47.082 87.3076 46.8458C87.3553 46.6076 87.3304 46.3776 87.2331 46.156C87.1357 45.9302 86.9886 45.7189 86.7918 45.5221ZM91.08 44.3288C90.8459 44.5629 90.5942 44.7359 90.3249 44.8478C90.0556 44.9555 89.7801 45.0052 89.4984 44.9969C89.2187 44.9866 88.9432 44.9182 88.6718 44.7918C88.4004 44.6655 88.1466 44.4842 87.9105 44.248L87.78 44.1175C87.5065 43.8441 87.3035 43.5603 87.1709 43.2661C87.0363 42.9699 86.9638 42.6778 86.9534 42.3898C86.943 42.1018 86.9876 41.8315 87.087 41.5788C87.1865 41.326 87.3304 41.1054 87.519 40.9169C87.7593 40.6766 88.0079 40.5109 88.2647 40.4197C88.5237 40.3265 88.7837 40.2985 89.0447 40.3358C89.3036 40.371 89.5605 40.4622 89.8153 40.6093C90.0681 40.7543 90.3125 40.9449 90.5487 41.181L90.8066 41.4389L88.2958 43.9497L87.8266 43.4805L89.7625 41.5446L89.719 41.5011C89.5616 41.3602 89.3855 41.2463 89.1907 41.1593C88.9981 41.0702 88.7992 41.037 88.5941 41.0598C88.389 41.0826 88.1881 41.1924 87.9913 41.3892C87.8608 41.5197 87.7686 41.6678 87.7147 41.8336C87.6588 41.9972 87.6453 42.1723 87.6743 42.3587C87.7033 42.5452 87.7738 42.7378 87.8856 42.9367C87.9975 43.1356 88.1549 43.3365 88.358 43.5395L88.4885 43.6701C88.648 43.8296 88.8199 43.958 89.0043 44.0554C89.1887 44.1486 89.3761 44.2056 89.5667 44.2263C89.7594 44.2449 89.9469 44.2232 90.1292 44.161C90.3135 44.0968 90.4845 43.986 90.6419 43.8285C90.8449 43.6255 90.9754 43.4121 91.0334 43.1884C91.0914 42.9647 91.1039 42.7306 91.0707 42.4861L91.6953 42.4147C91.7326 42.597 91.745 42.7938 91.7326 43.0051C91.7202 43.2164 91.6632 43.4349 91.5617 43.6607C91.4622 43.8845 91.3017 44.1072 91.08 44.3288Z" fill="#1D1D1D"/>
<path d="M5.94975 99.7019C2.43503 96.1871 2.43503 90.4886 5.94975 86.9739L90.0955 2.82822C93.6102 -0.686497 99.3087 -0.686494 102.823 2.82822L97.1665 8.48508C94.4329 5.75141 90.9504 4.80166 89.3883 6.36376L7.36396 88.3881C4.63029 91.1218 4.63029 95.554 7.36396 98.2876L5.94975 99.7019ZM126.865 26.8699C130.38 30.3846 130.38 36.0831 126.865 39.5978L42.7193 123.743C39.2046 127.258 33.5061 127.258 29.9914 123.743L31.4056 122.329C34.1393 125.063 38.5714 125.063 41.3051 122.329L123.329 40.3049C124.892 38.7428 123.942 35.2604 121.208 32.5267L126.865 26.8699ZM42.7193 123.743C39.2046 127.258 33.5061 127.258 29.9914 123.743L5.94975 99.7019C2.43503 96.1871 2.43503 90.4886 5.94975 86.9739L7.36396 88.3881C4.63029 91.1218 4.63029 95.554 7.36396 98.2876L31.4056 122.329C34.1393 125.063 38.5714 125.063 41.3051 122.329L42.7193 123.743ZM90.0955 2.82822C93.6102 -0.686497 99.3087 -0.686494 102.823 2.82822L126.865 26.8699C130.38 30.3846 130.38 36.0831 126.865 39.5978L123.329 40.3049C124.892 38.7428 123.942 35.2604 121.208 32.5267L97.1665 8.48508C94.4329 5.75141 90.9504 4.80166 89.3883 6.36376L90.0955 2.82822Z" fill="#FF8A00" mask="url(#path-1-inside-1_742_9490)"/>
</g>
<defs>
<filter id="filter0_d_742_9490" x="-3" y="0" width="136.693" height="136.693" filterUnits="userSpaceOnUse" color-interpolation-filters="sRGB">
<feFlood flood-opacity="0" result="BackgroundImageFix"/>
<feColorMatrix in="SourceAlpha" type="matrix" values="0 0 0 0 0 0 0 0 0 0 0 0 0 0 0 0 0 0 127 0" result="hardAlpha"/>
<feOffset dy="4"/>
<feGaussianBlur stdDeviation="2"/>
<feComposite in2="hardAlpha" operator="out"/>
<feColorMatrix type="matrix" values="0 0 0 0 0 0 0 0 0 0 0 0 0 0 0 0 0 0 0.25 0"/>
<feBlend mode="normal" in2="BackgroundImageFix" result="effect1_dropShadow_742_9490"/>
<feBlend mode="normal" in="SourceGraphic" in2="effect1_dropShadow_742_9490" result="shape"/>
</filter>
<clipPath id="clip0_742_9490">
<rect width="16" height="16" fill="white" transform="translate(29.2842 90.5098) rotate(-45)"/>
</clipPath>
</defs>
</svg>
