<svg width="24" height="24" viewBox="0 0 24 24" fill="none" xmlns="http://www.w3.org/2000/svg">
<g >
<g id="key">
<path  d="M15 14.75C14.2444 14.7517 13.4959 14.6041 12.7975 14.3158C12.0991 14.0275 11.4644 13.6041 10.93 13.07V13.07C9.98333 12.128 9.39276 10.8867 9.259 9.5579C9.12524 8.22909 9.45659 6.89503 10.1965 5.78322C10.9365 4.6714 12.0392 3.8507 13.3166 3.46105C14.594 3.07141 15.967 3.13696 17.2015 3.64653C18.436 4.1561 19.4555 5.07813 20.0862 6.25538C20.7168 7.43263 20.9196 8.79219 20.6598 10.1022C20.4001 11.4122 19.6939 12.5916 18.6618 13.4392C17.6297 14.2867 16.3355 14.75 15 14.75V14.75ZM15 4.75002C14.1609 4.75207 13.3413 5.00244 12.6443 5.46958C11.9473 5.93671 11.4041 6.59971 11.0833 7.37502C10.7625 8.15032 10.6784 9.00324 10.8415 9.8263C11.0046 10.6493 11.4077 11.4057 12 12C12.4939 12.4956 13.1025 12.8616 13.7718 13.0655C14.4411 13.2694 15.1504 13.3049 15.8367 13.1689C16.523 13.0329 17.1651 12.7295 17.706 12.2857C18.2469 11.842 18.6699 11.2715 18.9375 10.625C19.205 9.9785 19.3087 9.27595 19.2396 8.57972C19.1704 7.88348 18.9303 7.21509 18.5408 6.63389C18.1513 6.05268 17.6243 5.57663 17.0066 5.248C16.3889 4.91937 15.6997 4.74831 15 4.75002V4.75002Z" fill="currentColor"/>
<path  d="M4.5 20.25C4.30706 20.2353 4.12757 20.1455 4 20C3.87702 19.8625 3.80902 19.6845 3.80902 19.5C3.80902 19.3155 3.87702 19.1375 4 19L10.46 12.53C10.6019 12.3895 10.7938 12.311 10.9935 12.312C11.0924 12.3124 11.1903 12.3324 11.2815 12.3706C11.3726 12.4089 11.4554 12.4648 11.525 12.535C11.5946 12.6053 11.6497 12.6886 11.6871 12.7801C11.7245 12.8717 11.7435 12.9697 11.7431 13.0686C11.7426 13.1675 11.7227 13.2653 11.6844 13.3565C11.6461 13.4477 11.5903 13.5304 11.52 13.6L5 20C4.87243 20.1455 4.69295 20.2353 4.5 20.25V20.25Z" fill="currentColor"/>
<path  d="M8.00003 20.75C7.90149 20.7505 7.80385 20.7313 7.71284 20.6935C7.62182 20.6557 7.53927 20.6001 7.47003 20.53L5.47003 18.53C5.33755 18.3879 5.26543 18.1998 5.26885 18.0055C5.27228 17.8112 5.35099 17.6258 5.48841 17.4884C5.62582 17.351 5.81121 17.2723 6.00551 17.2689C6.19981 17.2654 6.38785 17.3375 6.53003 17.47L8.53003 19.47C8.67048 19.6107 8.74937 19.8013 8.74937 20C8.74937 20.1988 8.67048 20.3894 8.53003 20.53C8.46079 20.6001 8.37823 20.6557 8.28722 20.6935C8.19621 20.7313 8.09857 20.7505 8.00003 20.75V20.75Z" fill="currentColor"/>
<path  d="M10 18.75C9.90149 18.7505 9.80385 18.7313 9.71284 18.6935C9.62183 18.6557 9.53928 18.6001 9.47003 18.53L7.47003 16.53C7.39634 16.4614 7.33724 16.3786 7.29625 16.2866C7.25526 16.1946 7.23322 16.0953 7.23144 15.9946C7.22966 15.8939 7.24819 15.7938 7.28591 15.7004C7.32363 15.607 7.37977 15.5222 7.45099 15.451C7.52221 15.3798 7.60705 15.3236 7.70043 15.2859C7.79382 15.2482 7.89385 15.2297 7.99455 15.2314C8.09526 15.2332 8.19457 15.2553 8.28657 15.2963C8.37857 15.3372 8.46137 15.3963 8.53003 15.47L10.53 17.47C10.6705 17.6107 10.7494 17.8013 10.7494 18C10.7494 18.1988 10.6705 18.3894 10.53 18.53C10.4608 18.6001 10.3782 18.6557 10.2872 18.6935C10.1962 18.7313 10.0986 18.7505 10 18.75V18.75Z" fill="currentColor"/>
</g>
</g>
</svg>
