<svg width="24" height="24" viewBox="0 0 24 24" fill="none" xmlns="http://www.w3.org/2000/svg">
<path d="M14.8601 20.66C14.8601 19.9015 14.5588 19.174 14.0225 18.6377C13.4861 18.1013 12.7587 17.8 12.0001 17.8C11.2416 17.8 10.5142 18.1013 9.97781 18.6377C9.44146 19.174 9.14014 19.9015 9.14014 20.66V23.52" stroke="black" stroke-miterlimit="10"/>
<path d="M11.9998 15.89C13.0547 15.89 13.9098 15.0349 13.9098 13.98C13.9098 12.9251 13.0547 12.07 11.9998 12.07C10.945 12.07 10.0898 12.9251 10.0898 13.98C10.0898 15.0349 10.945 15.89 11.9998 15.89Z" stroke="black" stroke-miterlimit="10"/>
<path d="M19.64 17.8C20.6948 17.8 21.55 16.9448 21.55 15.89C21.55 14.8351 20.6948 13.98 19.64 13.98C18.5851 13.98 17.73 14.8351 17.73 15.89C17.73 16.9448 18.5851 17.8 19.64 17.8Z" stroke="black" stroke-miterlimit="10"/>
<path d="M1.5 23.52V22.57C1.5 21.8106 1.801 21.0821 2.33706 20.5441C2.87313 20.0062 3.60056 19.7027 4.36 19.7C5.12117 19.7 5.85117 20.0024 6.3894 20.5406C6.92763 21.0788 7.23 21.8088 7.23 22.57V23.52" stroke="black" stroke-miterlimit="10"/>
<path d="M16.77 23.52V22.57C16.77 21.8088 17.0724 21.0788 17.6106 20.5406C18.1489 20.0024 18.8788 19.7 19.64 19.7C20.3995 19.7027 21.1269 20.0062 21.663 20.5441C22.199 21.0821 22.5 21.8106 22.5 22.57V23.52" stroke="black" stroke-miterlimit="10"/>
<path d="M4.3602 17.8C5.41506 17.8 6.2702 16.9448 6.2702 15.89C6.2702 14.8351 5.41506 13.98 4.3602 13.98C3.30533 13.98 2.4502 14.8351 2.4502 15.89C2.4502 16.9448 3.30533 17.8 4.3602 17.8Z" stroke="black" stroke-miterlimit="10"/>
<path d="M14.8599 20.66V23.52" stroke="black" stroke-miterlimit="10"/>
<path d="M12.0002 3.47998L12.4602 4.41998L13.5102 4.56998L12.7502 5.29998L12.9302 6.33998L12.0002 5.84998L11.0702 6.33998L11.2502 5.29998L10.4902 4.56998L11.5402 4.41998L12.0002 3.47998Z" stroke="black" stroke-miterlimit="10"/>
</svg>
