<svg width="24" height="24" viewBox="0 0 24 24" fill="none" xmlns="http://www.w3.org/2000/svg">
<path d="M12.0002 10.09L13.1802 12.61L15.8202 13.01L13.9102 14.96L14.3602 17.73L12.0002 16.42L9.64018 17.73L10.0902 14.96L8.18018 13.01L10.8202 12.61L12.0002 10.09Z" fill="black"/>
<path d="M15.8202 2.45999H20.5902V22.5H3.41016V2.45999H8.18016" stroke="black" stroke-miterlimit="10"/>
<path d="M15.8202 1.5V3.41C15.8175 3.91575 15.6155 4.40004 15.2578 4.75767C14.9002 5.1153 14.4159 5.31737 13.9102 5.32H10.0902C9.58442 5.31737 9.10013 5.1153 8.7425 4.75767C8.38488 4.40004 8.1828 3.91575 8.18018 3.41V1.5H15.8202Z" stroke="black" stroke-miterlimit="10"/>
</svg>
