<svg xmlns="http://www.w3.org/2000/svg" viewBox="0 0 24 24" fill="currentColor" ><path d="M7.23 18.25a4 4 0 0 1-2.83-1.16 4.23 4.23 0 0 1 .15-5.95l3.76-3.79A4.44 4.44 0 0 1 11.42 6a4 4 0 0 1 2.83 1.2 4.25 4.25 0 0 1-.15 6l-1.26 1.26a.75.75 0 0 1-1.079.019.75.75 0 0 1 .019-1.078L13 12.1a2.73 2.73 0 0 0 .14-3.84 2.77 2.77 0 0 0-3.8.15l-3.73 3.78A2.74 2.74 0 0 0 5.46 16a2.5 2.5 0 0 0 2 .71.74.74 0 0 1 .81.67.75.75 0 0 1-.67.82l-.37.05zm5.35-.25a4 4 0 0 1-2.83-1.2 4.25 4.25 0 0 1 .15-6l1.26-1.26a.75.75 0 0 1 1.079-.019.75.75 0 0 1-.019 1.079L11 11.9a2.73 2.73 0 0 0-.14 3.84 2.77 2.77 0 0 0 3.8-.15l3.77-3.78A2.74 2.74 0 0 0 18.54 8a2.5 2.5 0 0 0-2-.71.74.74 0 0 1-.81-.67.75.75 0 0 1 .67-.82 4 4 0 0 1 3.2 1.11 4.23 4.23 0 0 1-.15 5.95l-3.76 3.79A4.44 4.44 0 0 1 12.58 18h0z"/></svg>