<svg xmlns="http://www.w3.org/2000/svg" viewBox="0 0 24 24" fill="none" ><path d="M18.72 4H5.37a1.31 1.31 0 0 0-.944.341A1.31 1.31 0 0 0 4 5.25v13.38A1.41 1.41 0 0 0 5.37 20h13.35A1.34 1.34 0 0 0 20 18.63V5.25a1.23 1.23 0 0 0-.37-.901A1.23 1.23 0 0 0 18.72 4h0zM9 17.34H6.67v-7.13H9v7.13zM7.89 9.13a1.18 1.18 0 0 1-.879-.348A1.18 1.18 0 0 1 6.67 7.9a1.18 1.18 0 0 1 .348-.889 1.18 1.18 0 0 1 .892-.341 1.18 1.18 0 0 1 .879.348 1.18 1.18 0 0 1 .341.882 1.18 1.18 0 0 1-.348.889 1.18 1.18 0 0 1-.892.341h0zm9.45 8.21H15v-3.9c0-.93-.33-1.57-1.16-1.57a1.25 1.25 0 0 0-1.17.84 1.43 1.43 0 0 0-.08.57v4.06h-2.3v-7.13h2.3v1a2.32 2.32 0 0 1 2.1-1.21c1.51 0 2.65 1 2.65 3.13v4.21z" fill="currentColor"/></svg>