<svg width="24" height="24" viewBox="0 0 24 24" fill="none" xmlns="http://www.w3.org/2000/svg">
<g >
<g id="list">
<path  d="M19 12.75H8C7.80109 12.75 7.61032 12.671 7.46967 12.5303C7.32902 12.3897 7.25 12.1989 7.25 12C7.25 11.8011 7.32902 11.6103 7.46967 11.4697C7.61032 11.329 7.80109 11.25 8 11.25H19C19.1989 11.25 19.3897 11.329 19.5303 11.4697C19.671 11.6103 19.75 11.8011 19.75 12C19.75 12.1989 19.671 12.3897 19.5303 12.5303C19.3897 12.671 19.1989 12.75 19 12.75Z" fill="currentColor"/>
<path  d="M19 8.25H8C7.80109 8.25 7.61032 8.17098 7.46967 8.03033C7.32902 7.88968 7.25 7.69891 7.25 7.5C7.25 7.30109 7.32902 7.11032 7.46967 6.96967C7.61032 6.82902 7.80109 6.75 8 6.75H19C19.1989 6.75 19.3897 6.82902 19.5303 6.96967C19.671 7.11032 19.75 7.30109 19.75 7.5C19.75 7.69891 19.671 7.88968 19.5303 8.03033C19.3897 8.17098 19.1989 8.25 19 8.25Z" fill="currentColor"/>
<path   d="M19 17.25H8C7.80109 17.25 7.61032 17.171 7.46967 17.0303C7.32902 16.8897 7.25 16.6989 7.25 16.5C7.25 16.3011 7.32902 16.1103 7.46967 15.9697C7.61032 15.829 7.80109 15.75 8 15.75H19C19.1989 15.75 19.3897 15.829 19.5303 15.9697C19.671 16.1103 19.75 16.3011 19.75 16.5C19.75 16.6989 19.671 16.8897 19.5303 17.0303C19.3897 17.171 19.1989 17.25 19 17.25Z" fill="currentColor"/>
<path   d="M5 8.50002C4.86999 8.50161 4.74091 8.47783 4.62 8.43002C4.5005 8.37204 4.38948 8.29802 4.29 8.21002C4.19732 8.11658 4.12399 8.00576 4.07423 7.88392C4.02446 7.76209 3.99924 7.63163 4 7.50002C4.00368 7.23525 4.10727 6.98165 4.29 6.79002C4.38387 6.69742 4.49636 6.62583 4.62 6.58002C4.86346 6.48 5.13654 6.48 5.38 6.58002C5.50275 6.62761 5.6149 6.69898 5.71 6.79002C5.89273 6.98165 5.99632 7.23525 6 7.50002C6.00076 7.63163 5.97554 7.76209 5.92577 7.88392C5.87601 8.00576 5.80268 8.11658 5.71 8.21002C5.61052 8.29802 5.49949 8.37204 5.38 8.43002C5.25909 8.47783 5.13001 8.50161 5 8.50002Z" fill="currentColor"/>
<path  d="M5 13C4.86932 12.9984 4.74022 12.9713 4.62 12.92C4.49881 12.8694 4.3872 12.7984 4.29 12.71C4.19732 12.6166 4.12399 12.5058 4.07423 12.3839C4.02446 12.2621 3.99924 12.1316 4 12C4.00368 11.7353 4.10727 11.4817 4.29 11.29C4.3872 11.2017 4.49881 11.1307 4.62 11.08C4.80102 10.9961 5.00301 10.9682 5.2 11L5.38 11.06L5.56 11.15C5.61239 11.1869 5.66248 11.227 5.71 11.27C5.89747 11.4667 6.00142 11.7283 6 12C6 12.2652 5.89464 12.5196 5.70711 12.7071C5.51957 12.8947 5.26522 13 5 13Z" fill="currentColor"/>
<path  d="M5 17.5C4.86999 17.5016 4.74091 17.4778 4.62 17.43C4.50051 17.372 4.38948 17.298 4.29 17.21C4.20167 17.1128 4.13064 17.0012 4.08 16.88C4.02709 16.7603 3.99977 16.6309 3.99977 16.5C3.99977 16.3691 4.02709 16.2397 4.08 16.12C4.13064 15.9988 4.20167 15.8872 4.29 15.79C4.43062 15.6513 4.6092 15.5573 4.80319 15.5199C4.99718 15.4825 5.19789 15.5034 5.38 15.58C5.50275 15.6276 5.6149 15.699 5.71 15.79C5.79833 15.8872 5.86936 15.9988 5.92 16.12C5.97291 16.2397 6.00023 16.3691 6.00023 16.5C6.00023 16.6309 5.97291 16.7603 5.92 16.88C5.86936 17.0012 5.79833 17.1128 5.71 17.21C5.61656 17.3027 5.50574 17.376 5.38391 17.4258C5.26207 17.4756 5.13161 17.5008 5 17.5Z" fill="currentColor"/>
</g>
</g>
</svg>
