<svg width="24" height="24" viewBox="0 0 24 24" fill="none" xmlns="http://www.w3.org/2000/svg">
<path d="M11.9998 11.03C13.0547 11.03 13.9098 10.1749 13.9098 9.12001C13.9098 8.06514 13.0547 7.21001 11.9998 7.21001C10.945 7.21001 10.0898 8.06514 10.0898 9.12001C10.0898 10.1749 10.945 11.03 11.9998 11.03Z" stroke="black" stroke-miterlimit="10"/>
<path d="M7.27983 13.84C6.65908 13.2196 6.16665 12.4831 5.83068 11.6723C5.4947 10.8616 5.32178 9.99259 5.32178 9.115C5.32178 8.23741 5.4947 7.36841 5.83068 6.55768C6.16665 5.74694 6.65908 5.01035 7.27983 4.39" stroke="black" stroke-miterlimit="10"/>
<path d="M16.7202 4.39C17.341 5.01035 17.8334 5.74694 18.1694 6.55768C18.5053 7.36841 18.6783 8.23741 18.6783 9.115C18.6783 9.99259 18.5053 10.8616 18.1694 11.6723C17.8334 12.4831 17.341 13.2196 16.7202 13.84" stroke="black" stroke-miterlimit="10"/>
<path d="M4.58016 16.54C3.60265 15.5663 2.82702 14.4092 2.29777 13.135C1.76853 11.8608 1.49609 10.4947 1.49609 9.115C1.49609 7.73529 1.76853 6.36916 2.29777 5.09499C2.82702 3.82082 3.60265 2.66369 4.58016 1.69" stroke="black" stroke-miterlimit="10"/>
<path d="M19.4199 1.69C20.3974 2.66369 21.1731 3.82082 21.7023 5.09499C22.2316 6.36916 22.504 7.73529 22.504 9.115C22.504 10.4947 22.2316 11.8608 21.7023 13.135C21.1731 14.4092 20.3974 15.5663 19.4199 16.54" stroke="black" stroke-miterlimit="10"/>
<path d="M12.0001 11C12.7587 11 13.4861 11.3013 14.0225 11.8377C14.5588 12.374 14.8601 13.1015 14.8601 13.86C14.8618 16.3692 14.2798 18.8444 13.1601 21.09L12.9501 21.5H11.0501L10.8401 21.09C9.72052 18.8444 9.13852 16.3692 9.14014 13.86C9.14014 13.4844 9.21412 13.1125 9.35784 12.7655C9.50157 12.4185 9.71224 12.1032 9.97781 11.8377C10.2434 11.5721 10.5587 11.3614 10.9057 11.2177C11.2527 11.074 11.6246 11 12.0001 11Z" stroke="black" stroke-miterlimit="10"/>
</svg>
