<svg width="24" height="24" viewBox="0 0 24 24" fill="none" xmlns="http://www.w3.org/2000/svg">
<path d="M6.26986 19.6399C7.32473 19.6399 8.17986 18.7848 8.17986 17.7299C8.17986 16.6751 7.32473 15.8199 6.26986 15.8199C5.215 15.8199 4.35986 16.6751 4.35986 17.7299C4.35986 18.7848 5.215 19.6399 6.26986 19.6399Z" stroke="black" stroke-miterlimit="10"/>
<path d="M17.7298 19.6399C18.7847 19.6399 19.6398 18.7848 19.6398 17.7299C19.6398 16.6751 18.7847 15.8199 17.7298 15.8199C16.675 15.8199 15.8198 16.6751 15.8198 17.7299C15.8198 18.7848 16.675 19.6399 17.7298 19.6399Z" stroke="black" stroke-miterlimit="10"/>
<path d="M4.36 17.73H1.5V4.35999H18.68V8.17999L20.59 12L22.5 13.07V17.73H19.64" stroke="black" stroke-miterlimit="10"/>
<path d="M15.8202 17.73H8.18018" stroke="black" stroke-miterlimit="10"/>
<path d="M20.5899 12.0001H14.8599V8.18005H18.6799" stroke="black" stroke-miterlimit="10"/>
</svg>
