<svg width="24" height="24" viewBox="0 0 24 24" fill="none" xmlns="http://www.w3.org/2000/svg">
<g >
<g id="map">
<path  d="M19.9 4.09001C19.6576 3.92895 19.3789 3.83088 19.089 3.80469C18.7992 3.7785 18.5073 3.82501 18.24 3.94001L14.67 5.47001L9.92 3.47001C9.73338 3.3908 9.53273 3.34998 9.33 3.34998C9.12727 3.34998 8.92661 3.3908 8.74 3.47001L4.38 5.31001C4.04012 5.45784 3.75151 5.70283 3.55046 6.01419C3.3494 6.32556 3.24487 6.68941 3.25 7.06001V18.31C3.24816 18.6262 3.32486 18.938 3.47321 19.2172C3.62157 19.4965 3.83694 19.7345 4.1 19.91C4.3424 20.0711 4.62114 20.1691 4.91099 20.1953C5.20084 20.2215 5.49265 20.175 5.76 20.06L9.33 18.53L14.08 20.53C14.2661 20.6109 14.4671 20.6517 14.67 20.65C14.8727 20.6498 15.0733 20.609 15.26 20.53L19.62 18.66C19.9599 18.5122 20.2485 18.2672 20.4495 17.9558C20.6506 17.6445 20.7551 17.2806 20.75 16.91V5.69001C20.7518 5.3738 20.6751 5.06207 20.5268 4.78281C20.3784 4.50356 20.1631 4.2655 19.9 4.09001V4.09001ZM10.08 5.09001L13.92 6.73001V18.86L10.08 17.22V5.09001ZM5.17 18.68C5.13199 18.702 5.08888 18.7135 5.045 18.7135C5.00111 18.7135 4.958 18.702 4.92 18.68C4.86421 18.641 4.81932 18.5883 4.78957 18.5271C4.75982 18.4658 4.7462 18.398 4.75 18.33V7.06001C4.74877 6.98016 4.77209 6.90186 4.8168 6.83569C4.86151 6.76952 4.92546 6.71867 5 6.69001L8.58 5.14001V17.22L5.17 18.68ZM19.25 16.94C19.2537 17.0165 19.2348 17.0923 19.1957 17.1581C19.1565 17.2239 19.0989 17.2767 19.03 17.31L15.42 18.86V6.78001L18.83 5.32001C18.868 5.29807 18.9111 5.28652 18.955 5.28652C18.9989 5.28652 19.042 5.29807 19.08 5.32001C19.1358 5.35906 19.1807 5.4117 19.2104 5.47295C19.2402 5.5342 19.2538 5.60203 19.25 5.67001V16.94Z" fill="currentColor"/>
</g>
</g>
</svg>
