<svg width="24" height="24" viewBox="0 0 24 24" fill="none" xmlns="http://www.w3.org/2000/svg">
<path d="M1.5 14.89H3.41L8.41 17.76C9.50415 18.3812 10.7418 18.7053 12 18.7" stroke="black" stroke-miterlimit="10"/>
<path d="M19.1602 15.71L20.5902 14.89H22.5002" stroke="black" stroke-miterlimit="10"/>
<path d="M11.9998 18.7C13.2512 18.7018 14.4815 18.3778 15.5698 17.76L17.5698 16.59L13.8898 11.07L11.2398 11.73C10.9809 11.7906 10.7157 11.8208 10.4498 11.82C9.9467 11.8201 9.45042 11.7037 8.99979 11.48C8.74344 11.3538 8.52879 11.1565 8.38143 10.9117C8.23406 10.6669 8.16019 10.3849 8.16862 10.0993C8.17705 9.81368 8.26743 9.53651 8.42898 9.30083C8.59053 9.06514 8.81644 8.88088 9.07979 8.77001L14.1598 6.60001C14.7341 6.35609 15.3601 6.25856 15.9814 6.31616C16.6027 6.37375 17.2001 6.58468 17.7198 6.93001L19.6398 8.20001H22.4998" stroke="black" stroke-miterlimit="10"/>
<path d="M1.5 8.20001H4.36L6.28 6.93001C6.79973 6.58468 7.39706 6.37375 8.01839 6.31616C8.63973 6.25856 9.26565 6.35609 9.84 6.60001L12 7.53001" stroke="black" stroke-miterlimit="10"/>
<path d="M22.5 6.3V16.8" stroke="black" stroke-miterlimit="10"/>
<path d="M1.5 6.3V16.8" stroke="black" stroke-miterlimit="10"/>
</svg>
