<svg viewBox="0 0 142 60" fill="none" xmlns="http://www.w3.org/2000/svg">
<g filter="url(#filter0_d_1050_9590)">
<path d="M5 9.00002L5 43C5 47.4183 8.58172 51 13 51L129 51C133.418 51 137 47.4183 137 43L137 9.00004C137 4.58176 133.418 1.00004 129 1.00004L93.8088 1.00003C90.5916 1.00003 87.6873 2.92725 86.4373 5.8917L86.3464 6.10738C85.0964 9.07183 82.1921 10.9991 78.9749 10.999L62.1399 10.999C58.977 10.999 56.1111 9.13553 54.8279 6.2446L54.6103 5.75443C53.3271 2.8635 50.4612 1 47.2983 1L13 1.00002C8.58172 1.00003 5 4.58175 5 9.00002Z" fill="#FBFBFB"/>
<path d="M5 9.00002L5 43C5 47.4183 8.58172 51 13 51L129 51C133.418 51 137 47.4183 137 43L137 9.00004C137 4.58176 133.418 1.00004 129 1.00004L93.8088 1.00003C90.5916 1.00003 87.6873 2.92725 86.4373 5.8917L86.3464 6.10738C85.0964 9.07183 82.1921 10.9991 78.9749 10.999L62.1399 10.999C58.977 10.999 56.1111 9.13553 54.8279 6.2446L54.6103 5.75443C53.3271 2.8635 50.4612 1 47.2983 1L13 1.00002C8.58172 1.00003 5 4.58175 5 9.00002Z" stroke="#3987A6" stroke-width="0.5"/>
</g>
<path d="M28.9044 28.9037C28.3395 28.9038 27.7872 28.7363 27.3174 28.4225C26.8477 28.1087 26.4815 27.6627 26.2653 27.1408C26.049 26.6189 25.9924 26.0446 26.1025 25.4905C26.2127 24.9364 26.4847 24.4274 26.8841 24.0279C27.2835 23.6284 27.7924 23.3563 28.3465 23.246C28.9005 23.1357 29.4748 23.1922 29.9968 23.4083C30.5187 23.6245 30.9649 23.9905 31.2788 24.4602C31.5927 24.9299 31.7603 25.4821 31.7604 26.047C31.7585 26.804 31.457 27.5293 30.9218 28.0646C30.3866 28.5999 29.6613 28.9016 28.9044 28.9037ZM28.9038 24.3336C28.5649 24.3336 28.2335 24.4342 27.9517 24.6225C27.6699 24.8109 27.4503 25.0786 27.3206 25.3917C27.1909 25.7049 27.1571 26.0495 27.2232 26.3819C27.2894 26.7144 27.4526 27.0197 27.6924 27.2594C27.9321 27.499 28.2375 27.6622 28.5699 27.7283C28.9024 27.7944 29.2469 27.7604 29.5601 27.6306C29.8732 27.5009 30.1409 27.2812 30.3291 26.9993C30.5174 26.7175 30.6179 26.3861 30.6178 26.0472C30.6178 25.5926 30.4372 25.1568 30.1157 24.8354C29.7943 24.514 29.3584 24.3335 28.9038 24.3336Z" fill="black"/>
<path d="M23.5732 34.2361C23.4217 34.2361 23.2764 34.1759 23.1693 34.0688C23.0621 33.9617 23.0019 33.8164 23.0019 33.6649C23.0015 30.0469 27.1374 30.0464 28.9045 30.0461C29.453 30.0461 29.9404 30.046 30.3822 30.0993C30.5325 30.111 30.6721 30.1815 30.7705 30.2957C30.869 30.4098 30.9183 30.5582 30.9079 30.7086C30.8943 30.8595 30.8221 30.9991 30.7067 31.0974C30.5914 31.1956 30.4421 31.2448 30.291 31.2342C29.8796 31.2343 29.4226 31.1886 28.9047 31.1887C24.9591 31.1892 24.1443 32.1795 24.1444 33.6647C24.1455 33.7401 24.1314 33.8148 24.1031 33.8846C24.0747 33.9543 24.0327 34.0177 23.9795 34.071C23.9262 34.1243 23.8628 34.1663 23.7931 34.1947C23.7233 34.223 23.6486 34.2371 23.5732 34.2361Z" fill="black"/>
<path d="M30.5121 34.8138C30.3607 34.8137 30.2155 34.7534 30.1084 34.6463C30.0483 34.589 30.0019 34.5187 29.9729 34.4409C29.9438 34.363 29.9329 34.2796 29.9408 34.1969L30.0625 32.7344C30.0719 32.6 30.1285 32.4732 30.2224 32.3764L34.4264 28.1714C34.7164 27.9026 35.0973 27.7533 35.4927 27.7532C35.8881 27.7532 36.269 27.9024 36.5591 28.1711C36.7022 28.3153 36.8149 28.4865 36.8908 28.6749C36.9667 28.8632 37.0042 29.0649 37.001 29.2679C37.004 29.4551 36.9699 29.641 36.9006 29.8148C36.8314 29.9887 36.7283 30.1472 36.5975 30.281L32.3935 34.486C32.3002 34.5817 32.1761 34.6411 32.0431 34.6537L30.5655 34.7909L30.5121 34.8138ZM31.1822 33.0314L31.1366 33.6103L31.7307 33.5569L35.79 29.4966C35.8379 29.4391 35.8624 29.3656 35.8585 29.2909C35.8582 29.1849 35.8204 29.0823 35.7518 29.0015C35.677 28.9458 35.5861 28.9158 35.4929 28.9158C35.3996 28.9158 35.3088 28.9459 35.2339 29.0015L31.1822 33.0314Z" fill="black"/>
<path d="M87.0107 26.6016H87.8325L89.9287 31.8179L92.0205 26.6016H92.8467L90.2451 33H89.6035L87.0107 26.6016ZM86.7427 26.6016H87.4678L87.5864 30.5039V33H86.7427V26.6016ZM92.3853 26.6016H93.1104V33H92.2666V30.5039L92.3853 26.6016ZM96.4502 33.0879C96.1191 33.0879 95.8188 33.0322 95.5493 32.9209C95.2827 32.8066 95.0527 32.647 94.8594 32.4419C94.6689 32.2368 94.5225 31.9937 94.4199 31.7124C94.3174 31.4312 94.2661 31.1235 94.2661 30.7896V30.605C94.2661 30.2183 94.3232 29.874 94.4375 29.5723C94.5518 29.2676 94.707 29.0098 94.9033 28.7988C95.0996 28.5879 95.3223 28.4282 95.5713 28.3198C95.8203 28.2114 96.0781 28.1572 96.3447 28.1572C96.6846 28.1572 96.9775 28.2158 97.2236 28.333C97.4727 28.4502 97.6763 28.6143 97.8345 28.8252C97.9927 29.0332 98.1099 29.2793 98.186 29.5635C98.2622 29.8447 98.3003 30.1523 98.3003 30.4863V30.8511H94.7495V30.1875H97.4873V30.126C97.4756 29.915 97.4316 29.71 97.3555 29.5107C97.2822 29.3115 97.165 29.1475 97.0039 29.0186C96.8428 28.8896 96.623 28.8252 96.3447 28.8252C96.1602 28.8252 95.9902 28.8647 95.835 28.9438C95.6797 29.02 95.5464 29.1343 95.4351 29.2866C95.3237 29.439 95.2373 29.625 95.1758 29.8447C95.1143 30.0645 95.0835 30.3179 95.0835 30.605V30.7896C95.0835 31.0151 95.1143 31.2275 95.1758 31.4268C95.2402 31.623 95.3325 31.7959 95.4526 31.9453C95.5757 32.0947 95.7236 32.2119 95.8965 32.2969C96.0723 32.3818 96.2715 32.4243 96.4941 32.4243C96.7812 32.4243 97.0244 32.3657 97.2236 32.2485C97.4229 32.1313 97.5972 31.9746 97.7466 31.7783L98.2388 32.1694C98.1362 32.3247 98.0059 32.4727 97.8477 32.6133C97.6895 32.7539 97.4946 32.8682 97.2632 32.9561C97.0347 33.0439 96.7637 33.0879 96.4502 33.0879ZM101.223 33.0879C100.892 33.0879 100.591 33.0322 100.322 32.9209C100.055 32.8066 99.8252 32.647 99.6318 32.4419C99.4414 32.2368 99.2949 31.9937 99.1924 31.7124C99.0898 31.4312 99.0386 31.1235 99.0386 30.7896V30.605C99.0386 30.2183 99.0957 29.874 99.21 29.5723C99.3242 29.2676 99.4795 29.0098 99.6758 28.7988C99.8721 28.5879 100.095 28.4282 100.344 28.3198C100.593 28.2114 100.851 28.1572 101.117 28.1572C101.457 28.1572 101.75 28.2158 101.996 28.333C102.245 28.4502 102.449 28.6143 102.607 28.8252C102.765 29.0332 102.882 29.2793 102.958 29.5635C103.035 29.8447 103.073 30.1523 103.073 30.4863V30.8511H99.522V30.1875H102.26V30.126C102.248 29.915 102.204 29.71 102.128 29.5107C102.055 29.3115 101.938 29.1475 101.776 29.0186C101.615 28.8896 101.396 28.8252 101.117 28.8252C100.933 28.8252 100.763 28.8647 100.607 28.9438C100.452 29.02 100.319 29.1343 100.208 29.2866C100.096 29.439 100.01 29.625 99.9482 29.8447C99.8867 30.0645 99.856 30.3179 99.856 30.605V30.7896C99.856 31.0151 99.8867 31.2275 99.9482 31.4268C100.013 31.623 100.105 31.7959 100.225 31.9453C100.348 32.0947 100.496 32.2119 100.669 32.2969C100.845 32.3818 101.044 32.4243 101.267 32.4243C101.554 32.4243 101.797 32.3657 101.996 32.2485C102.195 32.1313 102.37 31.9746 102.519 31.7783L103.011 32.1694C102.909 32.3247 102.778 32.4727 102.62 32.6133C102.462 32.7539 102.267 32.8682 102.036 32.9561C101.807 33.0439 101.536 33.0879 101.223 33.0879ZM106.013 28.2451V28.8691H103.442V28.2451H106.013ZM104.312 27.0894H105.125V31.8223C105.125 31.9834 105.15 32.105 105.2 32.187C105.25 32.269 105.314 32.3232 105.393 32.3496C105.472 32.376 105.557 32.3892 105.648 32.3892C105.715 32.3892 105.786 32.3833 105.859 32.3716C105.935 32.3569 105.992 32.3452 106.03 32.3364L106.035 33C105.97 33.0205 105.885 33.0396 105.78 33.0571C105.677 33.0776 105.553 33.0879 105.406 33.0879C105.207 33.0879 105.024 33.0483 104.857 32.9692C104.69 32.8901 104.557 32.7583 104.457 32.5737C104.36 32.3862 104.312 32.1343 104.312 31.8179V27.0894ZM107.85 28.2451V33H107.032V28.2451H107.85ZM106.971 26.9839C106.971 26.8521 107.01 26.7407 107.089 26.6499C107.171 26.5591 107.292 26.5137 107.45 26.5137C107.605 26.5137 107.724 26.5591 107.806 26.6499C107.891 26.7407 107.933 26.8521 107.933 26.9839C107.933 27.1099 107.891 27.2183 107.806 27.3091C107.724 27.397 107.605 27.4409 107.45 27.4409C107.292 27.4409 107.171 27.397 107.089 27.3091C107.01 27.2183 106.971 27.1099 106.971 26.9839ZM109.968 29.2603V33H109.155V28.2451H109.924L109.968 29.2603ZM109.774 30.4424L109.436 30.4292C109.439 30.104 109.487 29.8037 109.581 29.5283C109.675 29.25 109.807 29.0083 109.977 28.8032C110.146 28.5981 110.349 28.4399 110.583 28.3286C110.82 28.2144 111.083 28.1572 111.37 28.1572C111.604 28.1572 111.815 28.1895 112.002 28.2539C112.19 28.3154 112.35 28.415 112.481 28.5527C112.616 28.6904 112.719 28.8691 112.789 29.0889C112.859 29.3057 112.895 29.5708 112.895 29.8843V33H112.077V29.8755C112.077 29.6265 112.041 29.4272 111.967 29.2778C111.894 29.1255 111.787 29.0156 111.646 28.9482C111.506 28.8779 111.333 28.8428 111.128 28.8428C110.926 28.8428 110.741 28.8853 110.574 28.9702C110.41 29.0552 110.268 29.1724 110.148 29.3218C110.031 29.4712 109.938 29.6426 109.871 29.8359C109.807 30.0264 109.774 30.2285 109.774 30.4424ZM117.21 28.2451H117.948V32.8989C117.948 33.3179 117.863 33.6753 117.693 33.9712C117.523 34.2671 117.286 34.4912 116.981 34.6436C116.68 34.7988 116.331 34.8765 115.936 34.8765C115.771 34.8765 115.578 34.8501 115.355 34.7974C115.136 34.7476 114.919 34.6611 114.705 34.5381C114.494 34.418 114.317 34.2554 114.173 34.0503L114.6 33.5669C114.799 33.8071 115.007 33.9741 115.224 34.0679C115.443 34.1616 115.66 34.2085 115.874 34.2085C116.132 34.2085 116.354 34.1602 116.542 34.0635C116.729 33.9668 116.875 33.8232 116.977 33.6328C117.083 33.4453 117.135 33.2139 117.135 32.9385V29.291L117.21 28.2451ZM113.936 30.6753V30.583C113.936 30.2197 113.979 29.8901 114.063 29.5942C114.151 29.2954 114.276 29.0391 114.437 28.8252C114.601 28.6113 114.799 28.4473 115.03 28.333C115.262 28.2158 115.522 28.1572 115.812 28.1572C116.111 28.1572 116.372 28.21 116.595 28.3154C116.82 28.418 117.011 28.5688 117.166 28.7681C117.324 28.9644 117.449 29.2017 117.54 29.48C117.63 29.7583 117.693 30.0732 117.729 30.4248V30.8291C117.696 31.1777 117.633 31.4912 117.54 31.7695C117.449 32.0479 117.324 32.2852 117.166 32.4814C117.011 32.6777 116.82 32.8286 116.595 32.9341C116.369 33.0366 116.105 33.0879 115.804 33.0879C115.52 33.0879 115.262 33.0278 115.03 32.9077C114.802 32.7876 114.605 32.6191 114.441 32.4023C114.277 32.1855 114.151 31.9307 114.063 31.6377C113.979 31.3418 113.936 31.021 113.936 30.6753ZM114.749 30.583V30.6753C114.749 30.9126 114.772 31.1353 114.819 31.3433C114.869 31.5513 114.944 31.7344 115.043 31.8926C115.146 32.0508 115.276 32.1753 115.435 32.2661C115.593 32.354 115.782 32.3979 116.001 32.3979C116.271 32.3979 116.494 32.3408 116.669 32.2266C116.845 32.1123 116.984 31.9614 117.087 31.7739C117.192 31.5864 117.274 31.3828 117.333 31.1631V30.104C117.301 29.9429 117.251 29.7876 117.184 29.6382C117.119 29.4858 117.034 29.3511 116.929 29.2339C116.826 29.1138 116.699 29.0186 116.546 28.9482C116.394 28.8779 116.215 28.8428 116.01 28.8428C115.788 28.8428 115.596 28.8896 115.435 28.9834C115.276 29.0742 115.146 29.2002 115.043 29.3613C114.944 29.5195 114.869 29.7041 114.819 29.915C114.772 30.123 114.749 30.3457 114.749 30.583Z" fill="#1D1D1D"/>
<defs>
<filter id="filter0_d_1050_9590" x="0.75" y="0.75" width="140.5" height="58.5" filterUnits="userSpaceOnUse" color-interpolation-filters="sRGB">
<feFlood flood-opacity="0" result="BackgroundImageFix"/>
<feColorMatrix in="SourceAlpha" type="matrix" values="0 0 0 0 0 0 0 0 0 0 0 0 0 0 0 0 0 0 127 0" result="hardAlpha"/>
<feOffset dy="4"/>
<feGaussianBlur stdDeviation="2"/>
<feComposite in2="hardAlpha" operator="out"/>
<feColorMatrix type="matrix" values="0 0 0 0 0 0 0 0 0 0 0 0 0 0 0 0 0 0 0.25 0"/>
<feBlend mode="normal" in2="BackgroundImageFix" result="effect1_dropShadow_1050_9590"/>
<feBlend mode="normal" in="SourceGraphic" in2="effect1_dropShadow_1050_9590" result="shape"/>
</filter>
</defs>
</svg>
