<svg xmlns="http://www.w3.org/2000/svg" xmlns:xlink="http://www.w3.org/1999/xlink" viewBox="0 0 142 60" fill="none" ><g filter="url(#A)"><use xlink:href="#B" fill="#fbfbfb"/><use xlink:href="#B" stroke="#3987a6" stroke-width=".5"/></g><path d="M28.904 28.904c-.565 0-1.117-.167-1.587-.481s-.836-.76-1.052-1.282a2.86 2.86 0 0 1-.163-1.65c.11-.554.382-1.063.782-1.463a2.85 2.85 0 0 1 1.462-.782 2.86 2.86 0 0 1 1.65.162c.522.216.968.582 1.282 1.052s.482 1.022.482 1.587c-.002.757-.303 1.482-.839 2.018s-1.261.837-2.017.839zm-.001-4.57c-.339 0-.67.101-.952.289s-.501.456-.631.769a1.71 1.71 0 0 0 .372 1.867 1.72 1.72 0 0 0 .878.469 1.71 1.71 0 0 0 .99-.098c.313-.13.581-.349.769-.631s.289-.613.289-.952c0-.455-.181-.89-.502-1.212a1.71 1.71 0 0 0-1.212-.502zm-5.33 9.902a.57.57 0 0 1-.571-.571c0-3.618 4.136-3.619 5.903-3.619l1.478.053a.57.57 0 0 1 .526.609.58.58 0 0 1-.617.526c-.411 0-.868-.046-1.386-.046-3.946 0-4.76.991-4.76 2.476.001.075-.013.15-.041.22a.54.54 0 0 1-.124.186c-.054.053-.117.095-.186.124a.55.55 0 0 1-.22.041zm6.939.578a.57.57 0 0 1-.404-.168.55.55 0 0 1-.168-.449l.122-1.462a.57.57 0 0 1 .16-.358l4.204-4.205a1.57 1.57 0 0 1 2.133 0 1.52 1.52 0 0 1 .442 1.097 1.42 1.42 0 0 1-.1.547 1.41 1.41 0 0 1-.303.466l-4.204 4.205c-.093.096-.217.155-.35.168l-1.478.137-.053.023zm.67-1.782l-.046.579.594-.053 4.059-4.06c.048-.058.072-.131.069-.206a.45.45 0 0 0-.107-.289c-.075-.056-.166-.086-.259-.086s-.184.03-.259.086l-4.052 4.03z" fill="currentColor"/><path d="M87.011 26.602h.822l2.096 5.216 2.092-5.216h.826L90.245 33h-.642l-2.593-6.398zm-.268 0h.725l.119 3.902V33h-.844v-6.398zm5.643 0h.725V33h-.844v-2.496l.119-3.902zm4.065 6.486a2.34 2.34 0 0 1-.901-.167 2.04 2.04 0 0 1-.69-.479 2.13 2.13 0 0 1-.439-.729c-.102-.281-.154-.589-.154-.923v-.185c0-.387.057-.731.171-1.033s.269-.562.466-.773.419-.371.668-.479a1.92 1.92 0 0 1 .773-.163c.34 0 .633.059.879.176s.453.281.611.492.275.454.352.738a3.52 3.52 0 0 1 .114.923v.365H94.75v-.664h2.738v-.061a2.03 2.03 0 0 0-.132-.615c-.073-.199-.191-.363-.352-.492s-.381-.193-.659-.193c-.184 0-.355.04-.51.119s-.289.191-.4.343-.198.338-.259.558a2.83 2.83 0 0 0-.092.76v.185a2.15 2.15 0 0 0 .092.637 1.63 1.63 0 0 0 .277.518 1.33 1.33 0 0 0 .444.352c.176.085.375.127.598.127.287 0 .53-.059.73-.176s.374-.274.523-.47l.492.391c-.103.155-.233.303-.391.444s-.353.255-.585.343-.499.132-.813.132zm4.773 0c-.331 0-.632-.056-.901-.167a2.04 2.04 0 0 1-.69-.479 2.13 2.13 0 0 1-.439-.729c-.103-.281-.154-.589-.154-.923v-.185c0-.387.057-.731.171-1.033a2.31 2.31 0 0 1 .466-.773c.196-.211.419-.371.668-.479a1.92 1.92 0 0 1 .773-.163c.34 0 .633.059.879.176a1.6 1.6 0 0 1 .611.492c.158.208.275.454.351.738s.115.589.115.923v.365h-3.551v-.664h2.738v-.061a2.04 2.04 0 0 0-.132-.615 1.1 1.1 0 0 0-.352-.492c-.161-.129-.38-.193-.659-.193a1.11 1.11 0 0 0-.51.119c-.155.076-.288.191-.399.343a1.72 1.72 0 0 0-.26.558 2.83 2.83 0 0 0-.092.76v.185a2.15 2.15 0 0 0 .092.637 1.64 1.64 0 0 0 .277.518c.123.149.271.267.444.352s.375.127.598.127c.287 0 .53-.059.729-.176s.374-.274.523-.47l.492.391a2.26 2.26 0 0 1-.391.444c-.158.141-.353.255-.584.343s-.5.132-.813.132zm4.79-4.843v.624h-2.571v-.624h2.571zm-1.701-1.156h.813v4.733c0 .161.025.283.075.365s.114.136.193.163a.8.8 0 0 0 .255.04 1.34 1.34 0 0 0 .211-.018l.171-.035.005.664a1.93 1.93 0 0 1-.255.057c-.103.02-.227.031-.374.031-.199 0-.382-.04-.549-.119s-.3-.211-.4-.395-.145-.439-.145-.756v-4.728zm3.538 1.156V33h-.818v-4.755h.818zm-.879-1.261a.49.49 0 0 1 .118-.334c.082-.091.203-.136.361-.136s.274.045.356.136a.47.47 0 0 1 .127.334.46.46 0 0 1-.127.325c-.082.088-.201.132-.356.132s-.279-.044-.361-.132a.48.48 0 0 1-.118-.325zm2.997 2.276V33h-.813v-4.755h.769l.044 1.015zm-.194 1.182l-.338-.013c.003-.325.051-.626.145-.901s.226-.52.396-.725.372-.363.606-.475a1.79 1.79 0 0 1 .787-.171c.234 0 .445.032.632.097a1.14 1.14 0 0 1 .479.299c.135.138.238.316.308.536s.106.482.106.795V33h-.818v-3.125c0-.249-.036-.448-.11-.598s-.18-.262-.321-.33-.313-.105-.518-.105-.387.043-.554.127-.306.202-.426.352-.21.321-.277.514a1.89 1.89 0 0 0-.097.607zm7.436-2.197h.738v4.654c0 .419-.085.776-.255 1.072a1.66 1.66 0 0 1-.712.672c-.301.155-.65.233-1.045.233-.165 0-.358-.026-.581-.079a2.35 2.35 0 0 1-.65-.259 1.63 1.63 0 0 1-.532-.488l.427-.483c.199.24.407.407.624.501s.436.141.65.141a1.44 1.44 0 0 0 .668-.145 1.01 1.01 0 0 0 .435-.431c.106-.187.158-.419.158-.694v-3.647l.075-1.046zm-3.274 2.43v-.092c0-.363.043-.693.127-.989s.213-.555.374-.769a1.68 1.68 0 0 1 .593-.492c.232-.117.492-.176.782-.176.299 0 .56.053.783.158s.416.253.571.453.283.434.374.712.153.593.189.945v.404c-.033.349-.096.662-.189.94s-.216.516-.374.712-.346.347-.571.453a1.9 1.9 0 0 1-.791.154c-.284 0-.542-.06-.774-.18s-.425-.289-.589-.505-.29-.472-.378-.765-.127-.617-.127-.962zm.813-.092v.092c0 .237.023.46.07.668s.125.391.224.549.233.283.392.373.347.132.566.132c.27 0 .493-.057.668-.171s.315-.265.418-.453a2.65 2.65 0 0 0 .246-.611v-1.059c-.032-.161-.082-.316-.149-.466s-.15-.287-.255-.404-.23-.215-.383-.286-.331-.105-.536-.105c-.222 0-.414.047-.575.141a1.12 1.12 0 0 0-.392.378c-.099.158-.174.343-.224.554s-.07.431-.07.668z" fill="#1d1d1d"/><defs><filter id="A" x=".75" y=".75" width="140.5" height="58.5" filterUnits="userSpaceOnUse" color-interpolation-filters="sRGB"><feFlood flood-opacity="0" result="A"/><feColorMatrix in="SourceAlpha" values="0 0 0 0 0 0 0 0 0 0 0 0 0 0 0 0 0 0 127 0" result="B"/><feOffset dy="4"/><feGaussianBlur stdDeviation="2"/><feComposite in2="B" operator="out"/><feColorMatrix values="0 0 0 0 0 0 0 0 0 0 0 0 0 0 0 0 0 0 0.25 0"/><feBlend in2="A"/><feBlend in="SourceGraphic"/></filter><path id="B" d="M5 9v34a8 8 0 0 0 8 8h116a8 8 0 0 0 8-8V9a8 8 0 0 0-8-8H93.809a8 8 0 0 0-7.372 4.892l-.091.216a8 8 0 0 1-7.371 4.892H62.14a8 8 0 0 1-7.312-4.754l-.218-.49A8 8 0 0 0 47.298 1H13a8 8 0 0 0-8 8z"/></defs></svg>