<svg width="24" height="24" viewBox="0 0 24 24" fill="none" xmlns="http://www.w3.org/2000/svg">
<path d="M11.9998 12.95C15.0098 12.95 17.4498 10.5099 17.4498 7.49999C17.4498 4.49004 15.0098 2.04999 11.9998 2.04999C8.98985 2.04999 6.5498 4.49004 6.5498 7.49999C6.5498 10.5099 8.98985 12.95 11.9998 12.95Z" stroke="black" stroke-miterlimit="10" stroke-linecap="square"/>
<path d="M2 23C2 20.3478 3.05357 17.8043 4.92893 15.9289C6.8043 14.0536 9.34784 13 12 13C14.6522 13 17.1957 14.0536 19.0711 15.9289C20.9464 17.8043 22 20.3478 22 23" stroke="black" stroke-miterlimit="10"/>
<path d="M9.27004 12.96L12 22.05L7.46004 20.23L8.36004 18.41L6.54004 17.5L7.46004 13.86L9.27004 12.96Z" stroke="black" stroke-miterlimit="10" stroke-linecap="square"/>
<path d="M14.73 12.96L12 22.05L16.55 20.23L15.64 18.41L17.45 17.5L16.55 13.86L14.73 12.96Z" stroke="black" stroke-miterlimit="10" stroke-linecap="square"/>
<path d="M6.70982 14.46C6.12621 14.2382 5.595 13.8977 5.14982 13.46C4.29964 12.6038 3.82168 11.4466 3.81982 10.24C4.17918 10.24 4.53499 10.1691 4.86686 10.0312C5.19874 9.89342 5.50014 9.69143 5.75377 9.43687C6.00741 9.18231 6.20829 8.88017 6.34489 8.5478C6.4815 8.21542 6.55114 7.85935 6.54982 7.5" stroke="black" stroke-miterlimit="10"/>
<path d="M17.45 7.5C17.45 8.22404 17.7377 8.91843 18.2496 9.4304C18.7616 9.94238 19.456 10.23 20.18 10.23C20.1782 11.4366 19.7002 12.5938 18.85 13.45C18.4049 13.8877 17.8736 14.2282 17.29 14.45" stroke="black" stroke-miterlimit="10"/>
<path d="M6.5498 6.59H17.4498" stroke="black" stroke-miterlimit="10"/>
</svg>
