<svg width="15" height="15" viewBox="0 0 15 15" fill="none" xmlns="http://www.w3.org/2000/svg">
<path d="M14.1649 0.83718C14.0138 0.686751 13.8242 0.580999 13.617 0.531549C13.4099 0.482098 13.1931 0.490861 12.9906 0.556876L1.3029 4.4651C1.08614 4.53396 0.894594 4.66567 0.752458 4.84359C0.610322 5.02151 0.52397 5.23767 0.504309 5.46476C0.484648 5.69186 0.53256 5.9197 0.641992 6.11951C0.751425 6.31932 0.91747 6.48214 1.11916 6.5874L5.96838 8.99L8.36503 13.8673C8.46136 14.0582 8.60877 14.2185 8.79076 14.3302C8.97276 14.4419 9.18218 14.5007 9.39559 14.5H9.47548C9.70403 14.4831 9.92224 14.3977 10.1018 14.2549C10.2813 14.112 10.4138 13.9184 10.4821 13.6991L14.4365 2.01445C14.5072 1.81258 14.5191 1.59475 14.471 1.38633C14.4229 1.17791 14.3168 0.987468 14.1649 0.83718ZM1.79821 5.5703L11.9999 2.15861L6.33587 7.83675L1.79821 5.5703ZM9.45151 13.2346L7.18268 8.68567L12.8468 3.00753L9.45151 13.2346Z" fill="white"/>
</svg>
