<svg width="24" height="24" viewBox="0 0 24 24" fill="none" xmlns="http://www.w3.org/2000/svg">
<g >
<g id="mobile">
<path  d="M16 3.25H8C7.53668 3.25263 7.09309 3.43784 6.76546 3.76546C6.43784 4.09309 6.25263 4.53668 6.25 5V19C6.25263 19.4633 6.43784 19.9069 6.76546 20.2345C7.09309 20.5622 7.53668 20.7474 8 20.75H16C16.4633 20.7474 16.9069 20.5622 17.2345 20.2345C17.5622 19.9069 17.7474 19.4633 17.75 19V5C17.7474 4.53668 17.5622 4.09309 17.2345 3.76546C16.9069 3.43784 16.4633 3.25263 16 3.25V3.25ZM16.25 19C16.25 19.0663 16.2237 19.1299 16.1768 19.1768C16.1299 19.2237 16.0663 19.25 16 19.25H8C7.9337 19.25 7.87011 19.2237 7.82322 19.1768C7.77634 19.1299 7.75 19.0663 7.75 19V5C7.75 4.9337 7.77634 4.87011 7.82322 4.82322C7.87011 4.77634 7.9337 4.75 8 4.75H16C16.0663 4.75 16.1299 4.77634 16.1768 4.82322C16.2237 4.87011 16.25 4.9337 16.25 5V19Z" fill="currentColor"/>
<path  d="M12 14.5C11.7033 14.5 11.4133 14.588 11.1666 14.7528C10.92 14.9176 10.7277 15.1519 10.6142 15.426C10.5006 15.7001 10.4709 16.0017 10.5288 16.2926C10.5867 16.5836 10.7296 16.8509 10.9393 17.0607C11.1491 17.2704 11.4164 17.4133 11.7074 17.4712C11.9983 17.5291 12.2999 17.4993 12.574 17.3858C12.8481 17.2723 13.0824 17.08 13.2472 16.8334C13.412 16.5867 13.5 16.2967 13.5 16C13.5 15.6022 13.342 15.2206 13.0607 14.9393C12.7794 14.658 12.3978 14.5 12 14.5Z" fill="currentColor"/>
</g>
</g>
</svg>
