<svg width="24" height="24" viewBox="0 0 24 24" fill="none" xmlns="http://www.w3.org/2000/svg">
<g >
<g id="money-bill">
<path  d="M19 5.25H5C4.53668 5.25263 4.09309 5.43784 3.76546 5.76546C3.43784 6.09309 3.25263 6.53668 3.25 7V17C3.25263 17.4633 3.43784 17.9069 3.76546 18.2345C4.09309 18.5622 4.53668 18.7474 5 18.75H19C19.4633 18.7474 19.9069 18.5622 20.2345 18.2345C20.5622 17.9069 20.7474 17.4633 20.75 17V7C20.7474 6.53668 20.5622 6.09309 20.2345 5.76546C19.9069 5.43784 19.4633 5.25263 19 5.25ZM19.25 7V8.67H19.16H19.04C18.9205 8.68495 18.7995 8.68495 18.68 8.67H18.55C18.4371 8.6473 18.3265 8.61382 18.22 8.57H18.1C17.9572 8.50083 17.8284 8.40591 17.72 8.29C17.5716 8.14355 17.4537 7.96919 17.3731 7.77697C17.2924 7.58475 17.2506 7.37846 17.25 7.17C17.2503 7.03117 17.2705 6.89309 17.31 6.76H19C19.0646 6.75995 19.1267 6.78491 19.1733 6.82965C19.2199 6.8744 19.2474 6.93544 19.25 7ZM5 6.75H6.69C6.72953 6.88309 6.74973 7.02117 6.75 7.16C6.74942 7.36846 6.70759 7.57475 6.62692 7.76697C6.54626 7.95919 6.42835 8.13355 6.28 8.28C6.16902 8.39293 6.04074 8.48745 5.9 8.56H5.77C5.67209 8.60826 5.56765 8.64195 5.46 8.66H5.32C5.20047 8.67495 5.07953 8.67495 4.96 8.66H4.84H4.75V7C4.75 6.9337 4.77634 6.87011 4.82322 6.82322C4.87011 6.77634 4.9337 6.75 5 6.75ZM4.75 17V15.33H4.84H4.96C5.07953 15.315 5.20047 15.315 5.32 15.33H5.45C5.56406 15.3481 5.6751 15.3817 5.78 15.43H5.9C6.04074 15.5025 6.16902 15.5971 6.28 15.71C6.42835 15.8565 6.54626 16.0308 6.62692 16.223C6.70759 16.4153 6.74942 16.6215 6.75 16.83C6.74973 16.9688 6.72953 17.1069 6.69 17.24H5C4.93539 17.2401 4.87327 17.2151 4.82667 17.1703C4.78006 17.1256 4.75258 17.0646 4.75 17ZM8.22 17.25C8.23028 17.1135 8.23028 16.9765 8.22 16.84C8.22375 16.434 8.14503 16.0314 7.98861 15.6567C7.83219 15.2819 7.60132 14.9429 7.31 14.66C7.16278 14.5109 6.99828 14.38 6.82 14.27L6.65 14.16C6.5332 14.0997 6.413 14.0463 6.29 14L6.09 13.92C5.91661 13.869 5.73936 13.8322 5.56 13.81C5.45692 13.7997 5.35308 13.7997 5.25 13.81H4.75V10.22H5H5.17H5.34H5.6C5.73568 10.1969 5.8694 10.1634 6 10.12L6.22 10.05C6.37283 9.99782 6.52019 9.93083 6.66 9.85L6.82 9.76C7.00663 9.63732 7.1808 9.49664 7.34 9.34C7.63132 9.05713 7.86219 8.71806 8.01861 8.34334C8.17503 7.96862 8.25375 7.56604 8.25 7.16C8.26028 7.02353 8.26028 6.88647 8.25 6.75H15.81C15.7997 6.88647 15.7997 7.02353 15.81 7.16C15.8063 7.56604 15.885 7.96862 16.0414 8.34334C16.1978 8.71806 16.4287 9.05713 16.72 9.34C16.8766 9.49958 17.0511 9.64051 17.24 9.76L17.4 9.85C17.5398 9.93083 17.6872 9.99782 17.84 10.05L18.06 10.12C18.1941 10.1606 18.3312 10.1906 18.47 10.21H18.73H18.9H19.07H19.31V13.77H18.81C18.7069 13.7601 18.6031 13.7601 18.5 13.77C18.3206 13.7922 18.1434 13.829 17.97 13.88L17.77 13.96C17.6363 14.0117 17.5061 14.0718 17.38 14.14L17.21 14.25C17.0317 14.36 16.8672 14.4909 16.72 14.64C16.4287 14.9229 16.1978 15.2619 16.0414 15.6367C15.885 16.0114 15.8063 16.414 15.81 16.82C15.7997 16.9565 15.7997 17.0935 15.81 17.23L8.22 17.25ZM19 17.25H17.31C17.2705 17.1169 17.2503 16.9788 17.25 16.84C17.2506 16.6315 17.2924 16.4253 17.3731 16.233C17.4537 16.0408 17.5716 15.8665 17.72 15.72C17.8284 15.6041 17.9572 15.5092 18.1 15.44H18.22C18.327 15.3975 18.4374 15.3641 18.55 15.34H18.68C18.7995 15.325 18.9205 15.325 19.04 15.34H19.16H19.25V17C19.25 17.0663 19.2237 17.1299 19.1768 17.1768C19.1299 17.2237 19.0663 17.25 19 17.25Z" fill="currentColor"/>
<path  d="M12 8.5C11.3078 8.5 10.6311 8.70527 10.0555 9.08986C9.47993 9.47444 9.03133 10.0211 8.76642 10.6606C8.50152 11.3001 8.4322 12.0039 8.56725 12.6828C8.7023 13.3618 9.03564 13.9854 9.52513 14.4749C10.0146 14.9644 10.6383 15.2977 11.3172 15.4327C11.9961 15.5678 12.6999 15.4985 13.3394 15.2336C13.9789 14.9687 14.5256 14.5201 14.9101 13.9445C15.2947 13.3689 15.5 12.6922 15.5 12C15.5 11.0717 15.1313 10.1815 14.4749 9.52513C13.8185 8.86875 12.9283 8.5 12 8.5V8.5ZM12 14C11.6044 14 11.2178 13.8827 10.8889 13.6629C10.56 13.4432 10.3036 13.1308 10.1522 12.7654C10.0009 12.3999 9.96126 11.9978 10.0384 11.6098C10.1156 11.2219 10.3061 10.8655 10.5858 10.5858C10.8655 10.3061 11.2219 10.1156 11.6098 10.0384C11.9978 9.96126 12.3999 10.0009 12.7654 10.1522C13.1308 10.3036 13.4432 10.56 13.6629 10.8889C13.8827 11.2178 14 11.6044 14 12C14 12.5304 13.7893 13.0391 13.4142 13.4142C13.0391 13.7893 12.5304 14 12 14Z" fill="currentColor"/>
</g>
</g>
</svg>
