<svg viewBox="0 0 144 58" fill="none" xmlns="http://www.w3.org/2000/svg">
<g filter="url(#filter0_d_737_8734)">
<rect x="4" width="136" height="50" rx="4" fill="white" shape-rendering="crispEdges"/>
<path d="M4.5 5.99994L4.5 4C4.5 2.067 6.067 0.5 8 0.5L136 0.5C137.933 0.5 139.5 2.067 139.5 4L139.5 6L4.5 5.99994Z" fill="#F4E69C"/>
<path d="M89.6646 26.6016V33H88.812L85.5908 28.0649V33H84.7427V26.6016H85.5908L88.8252 31.5498V26.6016H89.6646ZM90.8291 30.6753V30.5742C90.8291 30.2314 90.8789 29.9136 90.9785 29.6206C91.0781 29.3247 91.2217 29.0684 91.4092 28.8516C91.5967 28.6318 91.8237 28.4619 92.0903 28.3418C92.3569 28.2188 92.6558 28.1572 92.9868 28.1572C93.3208 28.1572 93.6211 28.2188 93.8877 28.3418C94.1572 28.4619 94.3857 28.6318 94.5732 28.8516C94.7637 29.0684 94.9087 29.3247 95.0083 29.6206C95.1079 29.9136 95.1577 30.2314 95.1577 30.5742V30.6753C95.1577 31.0181 95.1079 31.3359 95.0083 31.6289C94.9087 31.9219 94.7637 32.1782 94.5732 32.3979C94.3857 32.6147 94.1587 32.7847 93.8921 32.9077C93.6284 33.0278 93.3296 33.0879 92.9956 33.0879C92.6616 33.0879 92.3613 33.0278 92.0947 32.9077C91.8281 32.7847 91.5996 32.6147 91.4092 32.3979C91.2217 32.1782 91.0781 31.9219 90.9785 31.6289C90.8789 31.3359 90.8291 31.0181 90.8291 30.6753ZM91.6421 30.5742V30.6753C91.6421 30.9126 91.6699 31.1367 91.7256 31.3477C91.7812 31.5557 91.8647 31.7402 91.9761 31.9014C92.0903 32.0625 92.2324 32.1899 92.4023 32.2837C92.5723 32.3745 92.77 32.4199 92.9956 32.4199C93.2183 32.4199 93.4131 32.3745 93.5801 32.2837C93.75 32.1899 93.8906 32.0625 94.002 31.9014C94.1133 31.7402 94.1968 31.5557 94.2524 31.3477C94.311 31.1367 94.3403 30.9126 94.3403 30.6753V30.5742C94.3403 30.3398 94.311 30.1187 94.2524 29.9106C94.1968 29.6997 94.1118 29.5137 93.9976 29.3525C93.8862 29.1885 93.7456 29.0596 93.5757 28.9658C93.4087 28.8721 93.2124 28.8252 92.9868 28.8252C92.7642 28.8252 92.5679 28.8721 92.3979 28.9658C92.231 29.0596 92.0903 29.1885 91.9761 29.3525C91.8647 29.5137 91.7812 29.6997 91.7256 29.9106C91.6699 30.1187 91.6421 30.3398 91.6421 30.5742ZM98.168 28.2451V28.8691H95.5972V28.2451H98.168ZM96.4673 27.0894H97.2803V31.8223C97.2803 31.9834 97.3052 32.105 97.355 32.187C97.4048 32.269 97.4692 32.3232 97.5483 32.3496C97.6274 32.376 97.7124 32.3892 97.8032 32.3892C97.8706 32.3892 97.9409 32.3833 98.0142 32.3716C98.0903 32.3569 98.1475 32.3452 98.1855 32.3364L98.1899 33C98.1255 33.0205 98.0405 33.0396 97.9351 33.0571C97.8325 33.0776 97.708 33.0879 97.5615 33.0879C97.3623 33.0879 97.1792 33.0483 97.0122 32.9692C96.8452 32.8901 96.7119 32.7583 96.6123 32.5737C96.5156 32.3862 96.4673 32.1343 96.4673 31.8179V27.0894ZM101.095 33.0879C100.764 33.0879 100.463 33.0322 100.194 32.9209C99.9272 32.8066 99.6973 32.647 99.5039 32.4419C99.3135 32.2368 99.167 31.9937 99.0645 31.7124C98.9619 31.4312 98.9106 31.1235 98.9106 30.7896V30.605C98.9106 30.2183 98.9678 29.874 99.082 29.5723C99.1963 29.2676 99.3516 29.0098 99.5479 28.7988C99.7441 28.5879 99.9668 28.4282 100.216 28.3198C100.465 28.2114 100.723 28.1572 100.989 28.1572C101.329 28.1572 101.622 28.2158 101.868 28.333C102.117 28.4502 102.321 28.6143 102.479 28.8252C102.637 29.0332 102.754 29.2793 102.831 29.5635C102.907 29.8447 102.945 30.1523 102.945 30.4863V30.8511H99.394V30.1875H102.132V30.126C102.12 29.915 102.076 29.71 102 29.5107C101.927 29.3115 101.81 29.1475 101.648 29.0186C101.487 28.8896 101.268 28.8252 100.989 28.8252C100.805 28.8252 100.635 28.8647 100.479 28.9438C100.324 29.02 100.191 29.1343 100.08 29.2866C99.9683 29.439 99.8818 29.625 99.8203 29.8447C99.7588 30.0645 99.728 30.3179 99.728 30.605V30.7896C99.728 31.0151 99.7588 31.2275 99.8203 31.4268C99.8848 31.623 99.9771 31.7959 100.097 31.9453C100.22 32.0947 100.368 32.2119 100.541 32.2969C100.717 32.3818 100.916 32.4243 101.139 32.4243C101.426 32.4243 101.669 32.3657 101.868 32.2485C102.067 32.1313 102.242 31.9746 102.391 31.7783L102.883 32.1694C102.781 32.3247 102.65 32.4727 102.492 32.6133C102.334 32.7539 102.139 32.8682 101.908 32.9561C101.679 33.0439 101.408 33.0879 101.095 33.0879Z" fill="#1D1D1D"/>
<rect x="4.25" y="0.25" width="135.5" height="49.5" rx="3.75" stroke="#9B9B9B" stroke-width="0.5" shape-rendering="crispEdges"/>
</g>
<defs>
<filter id="filter0_d_737_8734" x="0" y="0" width="144" height="58" filterUnits="userSpaceOnUse" color-interpolation-filters="sRGB">
<feFlood flood-opacity="0" result="BackgroundImageFix"/>
<feColorMatrix in="SourceAlpha" type="matrix" values="0 0 0 0 0 0 0 0 0 0 0 0 0 0 0 0 0 0 127 0" result="hardAlpha"/>
<feOffset dy="4"/>
<feGaussianBlur stdDeviation="2"/>
<feComposite in2="hardAlpha" operator="out"/>
<feColorMatrix type="matrix" values="0 0 0 0 0 0 0 0 0 0 0 0 0 0 0 0 0 0 0.25 0"/>
<feBlend mode="normal" in2="BackgroundImageFix" result="effect1_dropShadow_737_8734"/>
<feBlend mode="normal" in="SourceGraphic" in2="effect1_dropShadow_737_8734" result="shape"/>
</filter>
</defs>
</svg>
