<svg xmlns="http://www.w3.org/2000/svg" width="19" height="18" fill="none" ><path fill-rule="evenodd" d="M5.922.636C6.311.49 6.712.367 7.125.27v17.46c-.412-.097-.814-.22-1.203-.366V.636zM19 9c0 4.947-4.233 8.962-9.47 9v-4.994a4.38 4.38 0 0 0 2.929-1.173c.797-.751 1.245-1.77 1.245-2.833s-.448-2.082-1.245-2.833A4.38 4.38 0 0 0 9.53 4.994V0C14.767.038 19 4.053 19 9zM3.968 1.634a9.49 9.49 0 0 0-1.203.945V15.42a9.49 9.49 0 0 0 1.203.945V1.634zM-.091 9c0-1.69.494-3.271 1.353-4.621v9.243C.403 12.271-.091 10.69-.091 9z" fill="currentColor"/></svg>