<svg width="24" height="24" viewBox="0 0 24 24" fill="none" xmlns="http://www.w3.org/2000/svg">
<path d="M16.79 6.28C16.79 3.64008 14.6499 1.5 12.01 1.5H12C9.36005 1.5 7.21997 3.64008 7.21997 6.28V12.02C7.21997 14.6599 9.36005 16.8 12 16.8H12.01C14.6499 16.8 16.79 14.6599 16.79 12.02" stroke="black" stroke-miterlimit="10"/>
<path d="M15.7224 8.86118H10" stroke="black" stroke-miterlimit="10"/>
<path d="M14.146 6.71506L16.2919 8.86095L14.146 11.0068" stroke="black" stroke-miterlimit="10"/>
<path d="M20.61 12C20.6127 13.1324 20.3919 14.2541 19.9604 15.301C19.5289 16.348 18.8951 17.2995 18.0953 18.1011C17.2955 18.9028 16.3455 19.5388 15.2996 19.9727C14.2536 20.4066 13.1324 20.63 12 20.63C10.8677 20.63 9.74643 20.4066 8.70051 19.9727C7.65459 19.5388 6.70454 18.9028 5.90477 18.1011C5.10499 17.2995 4.4712 16.348 4.03969 15.301C3.60817 14.2541 3.38741 13.1324 3.39004 12" stroke="black" stroke-miterlimit="10"/>
<path d="M12 23.4999V20.6299" stroke="black" stroke-miterlimit="10"/>
</svg>
