<svg width="24" height="24" viewBox="0 0 24 24" fill="none" xmlns="http://www.w3.org/2000/svg">
<path d="M6.26985 22.4999H13.8398C14.4676 22.5005 15.0894 22.3771 15.6694 22.1369C16.2494 21.8966 16.7763 21.5442 17.2198 21.0999L21.9298 16.3899C22.3104 16.0107 22.5248 15.4958 22.5257 14.9585C22.5266 14.4212 22.3141 13.9055 21.9348 13.5249C21.5556 13.1444 21.0407 12.93 20.5034 12.9291C19.9661 12.9281 19.4504 13.1407 19.0698 13.5199L13.9098 18.6799H12.9998C13.2775 18.6795 13.5517 18.6185 13.8034 18.5013C14.0551 18.384 14.2782 18.2133 14.4571 18.001C14.6361 17.7888 14.7666 17.54 14.8396 17.2721C14.9126 17.0043 14.9264 16.7237 14.8798 16.4499C14.7843 15.9932 14.5321 15.5843 14.1668 15.2939C13.8016 15.0036 13.3463 14.8501 12.8798 14.8599H9.13985L8.20985 14.3999C7.41114 14.0037 6.51552 13.8449 5.62926 13.9424C4.74301 14.0399 3.90332 14.3895 3.20985 14.9499C2.66878 15.384 2.23361 15.9355 1.93734 16.5627C1.64107 17.1899 1.49146 17.8763 1.49985 18.5699V18.6799" stroke="black" stroke-miterlimit="10"/>
<path d="M12.9602 18.6801H8.18018" stroke="black" stroke-miterlimit="10"/>
<path d="M12 12.96C15.1646 12.96 17.73 10.3946 17.73 7.23C17.73 4.06541 15.1646 1.5 12 1.5C8.83543 1.5 6.27002 4.06541 6.27002 7.23C6.27002 10.3946 8.83543 12.96 12 12.96Z" stroke="black" stroke-miterlimit="10"/>
<path d="M11.9998 12.96C13.0547 12.96 13.9098 10.3946 13.9098 7.23C13.9098 4.06541 13.0547 1.5 11.9998 1.5C10.945 1.5 10.0898 4.06541 10.0898 7.23C10.0898 10.3946 10.945 12.96 11.9998 12.96Z" stroke="black" stroke-miterlimit="10"/>
<path d="M6.27002 7.22998H17.73" stroke="black" stroke-miterlimit="10"/>
</svg>
