<svg width="24" height="24" viewBox="0 0 24 24" fill="none" xmlns="http://www.w3.org/2000/svg">
<g >
<g id="palette">
<path  d="M12.11 4.25H12C10.1617 4.25805 8.38556 4.91594 6.98558 6.10729C5.5856 7.29864 4.65204 8.94671 4.35 10.76C4.30954 11.0084 4.32441 11.2627 4.39355 11.5047C4.4627 11.7467 4.58441 11.9705 4.75 12.16C4.90315 12.3445 5.09382 12.4944 5.30934 12.5996C5.52486 12.7047 5.7603 12.7628 6 12.77H6.1C6.79923 12.7048 7.50443 12.7801 8.17417 12.9913C8.84391 13.2025 9.46468 13.5455 10 14C10.4668 14.5477 10.8167 15.1851 11.0282 15.8729C11.2397 16.5608 11.3084 17.2846 11.23 18C11.2259 18.2478 11.2778 18.4934 11.3816 18.7185C11.4855 18.9435 11.6388 19.1423 11.83 19.3C12.1427 19.5733 12.5447 19.7227 12.96 19.72C13.0531 19.7299 13.1469 19.7299 13.24 19.72C15.154 19.4107 16.8826 18.3951 18.0846 16.8738C19.2866 15.3524 19.8747 13.4358 19.7328 11.5021C19.5909 9.56844 18.7293 7.75818 17.3182 6.42858C15.907 5.09898 14.0487 4.34663 12.11 4.32V4.25ZM13 18.17C12.9643 18.175 12.928 18.1722 12.8934 18.1619C12.8589 18.1515 12.827 18.1338 12.8 18.11C12.7778 18.0919 12.7599 18.069 12.7478 18.043C12.7357 18.017 12.7296 17.9887 12.73 17.96C12.7889 17.0595 12.6661 16.1563 12.3689 15.3042C12.0717 14.4521 11.6062 13.6685 11 13C10.3346 12.4 9.55506 11.9403 8.70803 11.6482C7.861 11.3561 6.96381 11.2377 6.07 11.3H6C5.97095 11.2973 5.94272 11.2888 5.91697 11.2751C5.89121 11.2613 5.86845 11.2426 5.85 11.22C5.82618 11.193 5.80848 11.1611 5.79812 11.1266C5.78777 11.092 5.785 11.0557 5.79 11.02C6.03194 9.54779 6.78931 8.20952 7.92685 7.24416C9.0644 6.27881 10.5081 5.74923 12 5.75H12.09C13.7063 5.80484 15.2415 6.47144 16.385 7.61499C17.5286 8.75854 18.1952 10.2937 18.25 11.91C18.2635 13.4076 17.7421 14.8609 16.7797 16.0084C15.8173 17.156 14.4771 17.9224 13 18.17V18.17Z" fill="currentColor"/>
<path  d="M9 7.75C8.75277 7.75 8.5111 7.82331 8.30554 7.96066C8.09998 8.09801 7.93976 8.29324 7.84515 8.52165C7.75054 8.75005 7.72579 9.00139 7.77402 9.24386C7.82225 9.48634 7.9413 9.70907 8.11612 9.88388C8.29093 10.0587 8.51366 10.1778 8.75614 10.226C8.99861 10.2742 9.24995 10.2495 9.47836 10.1548C9.70676 10.0602 9.90199 9.90002 10.0393 9.69446C10.1767 9.4889 10.25 9.24723 10.25 9C10.25 8.83585 10.2177 8.6733 10.1548 8.52165C10.092 8.36999 9.99996 8.23219 9.88388 8.11612C9.76781 8.00004 9.63001 7.90797 9.47836 7.84515C9.3267 7.78233 9.16415 7.75 9 7.75ZM9 9.25C8.95056 9.25 8.90222 9.23534 8.86111 9.20787C8.82 9.1804 8.78795 9.14135 8.76903 9.09567C8.75011 9.04999 8.74516 8.99972 8.7548 8.95123C8.76445 8.90273 8.78826 8.85819 8.82322 8.82322C8.85819 8.78826 8.90273 8.76445 8.95123 8.7548C8.99972 8.74516 9.04999 8.75011 9.09567 8.76903C9.14135 8.78795 9.1804 8.82 9.20787 8.86111C9.23534 8.90222 9.25 8.95055 9.25 9C9.25 9.0663 9.22366 9.12989 9.17678 9.17678C9.12989 9.22366 9.0663 9.25 9 9.25Z" fill="currentColor"/>
<path  d="M12 6.5C11.7528 6.5 11.5111 6.57331 11.3055 6.71066C11.1 6.84801 10.9398 7.04324 10.8452 7.27165C10.7505 7.50005 10.7258 7.75139 10.774 7.99386C10.8223 8.23634 10.9413 8.45907 11.1161 8.63388C11.2909 8.8087 11.5137 8.92775 11.7561 8.97598C11.9986 9.02421 12.2499 8.99946 12.4784 8.90485C12.7068 8.81024 12.902 8.65002 13.0393 8.44446C13.1767 8.2389 13.25 7.99723 13.25 7.75C13.25 7.41848 13.1183 7.10054 12.8839 6.86612C12.6495 6.6317 12.3315 6.5 12 6.5V6.5ZM12 8C11.9506 8 11.9022 7.98534 11.8611 7.95787C11.82 7.9304 11.788 7.89135 11.769 7.84567C11.7501 7.79999 11.7452 7.74972 11.7548 7.70123C11.7645 7.65273 11.7883 7.60819 11.8232 7.57322C11.8582 7.53826 11.9027 7.51445 11.9512 7.5048C11.9997 7.49516 12.05 7.50011 12.0957 7.51903C12.1414 7.53795 12.1804 7.57 12.2079 7.61111C12.2353 7.65222 12.25 7.70055 12.25 7.75C12.25 7.8163 12.2237 7.87989 12.1768 7.92678C12.1299 7.97366 12.0663 8 12 8Z" fill="currentColor"/>
<path  d="M15 10.25C15.2472 10.25 15.4889 10.1767 15.6945 10.0393C15.9 9.90199 16.0602 9.70676 16.1549 9.47836C16.2495 9.24995 16.2742 8.99861 16.226 8.75614C16.1777 8.51366 16.0587 8.29093 15.8839 8.11612C15.7091 7.9413 15.4863 7.82225 15.2439 7.77402C15.0014 7.72579 14.7501 7.75054 14.5216 7.84515C14.2932 7.93976 14.098 8.09998 13.9607 8.30554C13.8233 8.5111 13.75 8.75277 13.75 9C13.75 9.16415 13.7823 9.3267 13.8452 9.47836C13.908 9.63001 14 9.76781 14.1161 9.88388C14.2322 9.99996 14.37 10.092 14.5216 10.1548C14.6733 10.2177 14.8358 10.25 15 10.25V10.25ZM15 9.25C14.9506 9.25 14.9022 9.23534 14.8611 9.20787C14.82 9.1804 14.788 9.14135 14.769 9.09567C14.7501 9.04999 14.7452 8.99972 14.7548 8.95123C14.7644 8.90273 14.7883 8.85819 14.8232 8.82322C14.8582 8.78826 14.9027 8.76445 14.9512 8.7548C14.9997 8.74516 15.05 8.75011 15.0957 8.76903C15.1414 8.78795 15.1804 8.82 15.2079 8.86111C15.2353 8.90222 15.25 8.95056 15.25 9C15.25 9.0663 15.2237 9.12989 15.1768 9.17678C15.1299 9.22366 15.0663 9.25 15 9.25Z" fill="currentColor"/>
<path  d="M16.25 10.75C16.0028 10.75 15.7611 10.8233 15.5555 10.9607C15.35 11.098 15.1898 11.2932 15.0952 11.5216C15.0005 11.7501 14.9758 12.0014 15.024 12.2439C15.0723 12.4863 15.1913 12.7091 15.3661 12.8839C15.5409 13.0587 15.7637 13.1778 16.0061 13.226C16.2486 13.2742 16.4999 13.2495 16.7284 13.1548C16.9568 13.0602 17.152 12.9 17.2893 12.6945C17.4267 12.4889 17.5 12.2472 17.5 12C17.5 11.6685 17.3683 11.3505 17.1339 11.1161C16.8995 10.8817 16.5815 10.75 16.25 10.75V10.75ZM16.25 12.25C16.2006 12.25 16.1522 12.2353 16.1111 12.2079C16.07 12.1804 16.038 12.1414 16.019 12.0957C16.0001 12.05 15.9952 11.9997 16.0048 11.9512C16.0145 11.9027 16.0383 11.8582 16.0732 11.8232C16.1082 11.7883 16.1527 11.7644 16.2012 11.7548C16.2497 11.7452 16.3 11.7501 16.3457 11.769C16.3914 11.788 16.4304 11.82 16.4579 11.8611C16.4853 11.9022 16.5 11.9506 16.5 12C16.5 12.0663 16.4737 12.1299 16.4268 12.1768C16.3799 12.2237 16.3163 12.25 16.25 12.25Z" fill="currentColor"/>
<path  d="M15 13.75C14.7528 13.75 14.5111 13.8233 14.3055 13.9607C14.1 14.098 13.9398 14.2932 13.8452 14.5216C13.7505 14.7501 13.7258 15.0014 13.774 15.2439C13.8223 15.4863 13.9413 15.7091 14.1161 15.8839C14.2909 16.0587 14.5137 16.1777 14.7561 16.226C14.9986 16.2742 15.2499 16.2495 15.4784 16.1549C15.7068 16.0602 15.902 15.9 16.0393 15.6945C16.1767 15.4889 16.25 15.2472 16.25 15C16.25 14.6685 16.1183 14.3505 15.8839 14.1161C15.6495 13.8817 15.3315 13.75 15 13.75ZM15 15.25C14.9506 15.25 14.9022 15.2353 14.8611 15.2079C14.82 15.1804 14.788 15.1414 14.769 15.0957C14.7501 15.05 14.7452 14.9997 14.7548 14.9512C14.7645 14.9027 14.7883 14.8582 14.8232 14.8232C14.8582 14.7883 14.9027 14.7644 14.9512 14.7548C14.9997 14.7452 15.05 14.7501 15.0957 14.769C15.1414 14.788 15.1804 14.82 15.2079 14.8611C15.2353 14.9022 15.25 14.9506 15.25 15C15.25 15.0663 15.2237 15.1299 15.1768 15.1768C15.1299 15.2237 15.0663 15.25 15 15.25Z" fill="currentColor"/>
</g>
</g>
</svg>
