<svg viewBox="0 0 24 24" fill="none" xmlns="http://www.w3.org/2000/svg">
<g >
<g id="paperclip">
<path  d="M8.94 20.74C7.45715 20.7457 6.02743 20.1882 4.94001 19.18C4.41043 18.6903 3.98787 18.0964 3.69887 17.4356C3.40987 16.7747 3.26068 16.0613 3.26068 15.34C3.26068 14.6187 3.40987 13.9052 3.69887 13.2444C3.98787 12.5836 4.41043 11.9897 4.94001 11.5L12.5 4.35999C13.2775 3.65026 14.2923 3.25677 15.345 3.25677C16.3977 3.25677 17.4125 3.65026 18.19 4.35999C18.5954 4.73633 18.9204 5.1908 19.1456 5.69606C19.3707 6.20132 19.4913 6.74691 19.5 7.29999C19.5027 7.77796 19.4064 8.25131 19.2171 8.69019C19.0278 9.12908 18.7495 9.52397 18.4 9.84999L10.83 17C10.3732 17.4238 9.77312 17.6593 9.15 17.6593C8.52689 17.6593 7.92679 17.4238 7.47001 17C7.24334 16.7911 7.06243 16.5376 6.93869 16.2553C6.81495 15.973 6.75106 15.6682 6.75106 15.36C6.75106 15.0518 6.81495 14.7469 6.93869 14.4647C7.06243 14.1824 7.24334 13.9288 7.47001 13.72L14.47 7.12999C14.6106 6.98954 14.8013 6.91065 15 6.91065C15.1988 6.91065 15.3894 6.98954 15.53 7.12999C15.6705 7.27061 15.7493 7.46123 15.7493 7.65999C15.7493 7.85874 15.6705 8.04936 15.53 8.18999L8.53 14.78C8.45149 14.8485 8.38856 14.933 8.34544 15.0279C8.30232 15.1228 8.28 15.2258 8.28 15.33C8.28 15.4342 8.30232 15.5372 8.34544 15.6321C8.38856 15.7269 8.45149 15.8115 8.53 15.88C8.71114 16.0349 8.94165 16.1201 9.18001 16.1201C9.41836 16.1201 9.64887 16.0349 9.83001 15.88L17.4 8.74999C17.5926 8.56123 17.745 8.33547 17.8482 8.08629C17.9513 7.83711 18.0029 7.56964 18 7.29999C17.9917 6.95242 17.913 6.61014 17.7686 6.29387C17.6242 5.9776 17.4172 5.69392 17.16 5.45999C16.6663 5.00244 16.0181 4.74822 15.345 4.74822C14.6719 4.74822 14.0237 5.00244 13.53 5.45999L6.00001 12.59C5.61867 12.9394 5.31419 13.3643 5.10588 13.8378C4.89757 14.3112 4.79001 14.8228 4.79001 15.34C4.79001 15.8572 4.89757 16.3688 5.10588 16.8422C5.31419 17.3156 5.61867 17.7405 6.00001 18.09C6.81452 18.8492 7.88656 19.2713 9.00001 19.2713C10.1135 19.2713 11.1855 18.8492 12 18.09L19.49 11C19.559 10.9292 19.6414 10.873 19.7324 10.8346C19.8234 10.7962 19.9212 10.7764 20.02 10.7764C20.1188 10.7764 20.2166 10.7962 20.3076 10.8346C20.3986 10.873 20.4811 10.9292 20.55 11C20.6905 11.1406 20.7693 11.3312 20.7693 11.53C20.7693 11.7287 20.6905 11.9194 20.55 12.06L13 19.18C11.898 20.2033 10.4437 20.7621 8.94 20.74V20.74Z" fill="currentColor"/>
</g>
</g>
</svg>
