<svg width="24" height="24" viewBox="0 0 24 24" fill="none" xmlns="http://www.w3.org/2000/svg">
<path d="M16.7601 6.26001C18.0801 6.26001 19.1501 5.18997 19.1501 3.87001C19.1501 2.55005 18.0801 1.48001 16.7601 1.48001C15.4402 1.48001 14.3701 2.55005 14.3701 3.87001C14.3701 5.18997 15.4402 6.26001 16.7601 6.26001Z" stroke="black" stroke-miterlimit="10"/>
<path d="M20.5902 12C20.5875 10.985 20.1832 10.0124 19.4655 9.29471C18.7478 8.57702 17.7751 8.17265 16.7602 8.17001C15.7452 8.17265 14.7726 8.57702 14.0549 9.29471C13.3372 10.0124 12.9328 10.985 12.9302 12" stroke="black" stroke-miterlimit="10"/>
<path d="M8.15 16.78L11.77 17.69C11.9096 17.7048 12.0504 17.7048 12.19 17.69C12.6409 17.69 13.0733 17.5109 13.3921 17.1921C13.7109 16.8733 13.89 16.4409 13.89 15.99V15.87C13.8856 15.568 13.8008 15.2726 13.6444 15.0143C13.488 14.7559 13.2656 14.5439 13 14.4L9.67 12.76C8.67034 12.2598 7.56782 11.9996 6.45 12C5.67493 11.9984 4.9048 12.1234 4.17 12.37L2.41 13H0.5" stroke="black" stroke-miterlimit="10"/>
<path d="M12 17.74H13.91L20.38 15.89C20.5301 15.8504 20.6847 15.8303 20.84 15.83C21.2804 15.8352 21.7011 16.0132 22.0115 16.3255C22.322 16.6378 22.4974 17.0596 22.5 17.5V17.61C22.5001 17.9346 22.4055 18.2522 22.2279 18.5239C22.0503 18.7957 21.7974 19.0097 21.5 19.14L15 22C14.2688 22.3219 13.4789 22.4887 12.68 22.49C12.2148 22.489 11.7515 22.4319 11.3 22.32L4.3 20.58H0.5" stroke="black" stroke-miterlimit="10"/>
</svg>
