<svg xmlns="http://www.w3.org/2000/svg" viewBox="0 0 24 24" fill="none" ><path d="M9.16 13.41l-.75 4.72c0 .07 0 .09-.11.09H5.68a.43.43 0 0 1-.327-.146.43.43 0 0 1-.103-.344L7.31 4.61A.73.73 0 0 1 8 4c5.35 0 5.8-.13 7.17.41 2.11.82 2.31 2.8 1.55 4.95s-2.55 3.15-4.93 3.18c-1.52 0-2.44-.24-2.65.86l.02.01zm8.64-5.08c-.06-.05-.08-.06-.1 0-.073.404-.176.802-.31 1.19-1.4 4-5.29 3.67-7.19 3.67a.35.35 0 0 0-.142.013c-.046.014-.088.037-.125.068a.35.35 0 0 0-.123.249l-1 6a.38.38 0 0 0 .075.318.38.38 0 0 0 .295.142h2.24a.63.63 0 0 0 .61-.53c0-.19 0 .22.51-3.22.16-.77.5-.69 1-.69 2.49 0 4.44-1 5-4a3.14 3.14 0 0 0-.84-3.27l.1.06z" fill="currentColor"/></svg>