<svg width="24" height="24" viewBox="0 0 24 24" fill="none" xmlns="http://www.w3.org/2000/svg">
<g >
<g id="paypal">
<path  d="M9.16 13.41C9.04 14.08 8.55 17.24 8.41 18.13C8.41 18.2 8.41 18.22 8.3 18.22H5.68C5.61811 18.2206 5.55681 18.2078 5.50031 18.1826C5.4438 18.1573 5.39341 18.1202 5.35259 18.0736C5.31176 18.0271 5.28146 17.9723 5.26376 17.913C5.24605 17.8537 5.24136 17.7913 5.25 17.73L7.31 4.61C7.33743 4.44453 7.421 4.29355 7.54666 4.18246C7.67233 4.07136 7.83241 4.00693 8 4C13.35 4 13.8 3.87 15.17 4.41C17.28 5.23 17.48 7.21 16.72 9.36C15.96 11.51 14.17 12.51 11.79 12.54C10.27 12.54 9.35 12.3 9.14 13.4L9.16 13.41ZM17.8 8.33C17.74 8.28 17.72 8.27 17.7 8.33C17.6274 8.73403 17.5237 9.13187 17.39 9.52C15.99 13.52 12.1 13.19 10.2 13.19C10.1524 13.1845 10.1042 13.1888 10.0584 13.2026C10.0125 13.2164 9.97003 13.2395 9.93347 13.2705C9.89692 13.3014 9.8671 13.3395 9.84586 13.3824C9.82462 13.4253 9.81241 13.4722 9.81 13.52C9.02 18.52 8.81 19.52 8.81 19.52C8.79809 19.5753 8.79868 19.6326 8.81172 19.6876C8.82476 19.7427 8.84992 19.7941 8.88538 19.8382C8.92083 19.8822 8.96568 19.9179 9.01665 19.9424C9.06762 19.9669 9.12343 19.9798 9.18 19.98H11.42C11.5677 19.9772 11.7097 19.9226 11.8212 19.8257C11.9327 19.7288 12.0066 19.5958 12.03 19.45C12.03 19.26 12.03 19.67 12.54 16.23C12.7 15.46 13.04 15.54 13.54 15.54C16.03 15.54 17.98 14.54 18.54 11.54C18.726 10.9715 18.7457 10.3618 18.5969 9.7825C18.4481 9.2032 18.1369 8.67846 17.7 8.27L17.8 8.33Z" fill="currentColor"/>
</g>
</g>
</svg>
