<svg width="24" height="24" viewBox="0 0 24 24" fill="none" xmlns="http://www.w3.org/2000/svg">
<g >
<g id="pencil">
<path  d="M4.20999 20.52C4.11375 20.521 4.01826 20.503 3.92902 20.4669C3.83977 20.4309 3.75854 20.3776 3.68999 20.31C3.61139 20.2324 3.55092 20.1383 3.51288 20.0346C3.47485 19.9309 3.4602 19.82 3.46999 19.71L3.77999 15.87C3.79328 15.6917 3.87156 15.5244 3.99999 15.4L15.06 4.34001C15.6762 3.76292 16.4961 3.45367 17.34 3.48001C18.1784 3.48651 18.9828 3.81187 19.59 4.39001C20.1724 4.98801 20.5073 5.78396 20.5277 6.61843C20.5481 7.4529 20.2524 8.26427 19.7 8.89001L8.62999 20C8.50609 20.1235 8.34386 20.201 8.16999 20.22L4.27999 20.57L4.20999 20.52ZM5.20999 16.26L4.99999 19L7.73999 18.75L18.64 7.83001C18.8525 7.57849 18.9884 7.27124 19.0314 6.94479C19.0745 6.61833 19.0229 6.28637 18.8828 5.98836C18.7428 5.69034 18.5201 5.43879 18.2413 5.2636C17.9625 5.0884 17.6393 4.99691 17.31 5.00001C17.0936 4.98627 16.8766 5.01639 16.6721 5.08856C16.4676 5.16073 16.2798 5.27347 16.12 5.42001V5.42001L5.20999 16.26Z" fill="currentColor"/>
</g>
</g>
</svg>
