<svg width="24" height="24" viewBox="0 0 24 24" fill="none" xmlns="http://www.w3.org/2000/svg">
<g >
<g id="percentage">
<path  d="M7.05 17.7C6.95146 17.7005 6.85382 17.6813 6.76281 17.6435C6.67179 17.6057 6.58924 17.5501 6.52 17.48C6.37955 17.3394 6.30066 17.1488 6.30066 16.95C6.30066 16.7513 6.37955 16.5606 6.52 16.42L16.42 6.52002C16.4887 6.44633 16.5715 6.38723 16.6635 6.34624C16.7555 6.30525 16.8548 6.2832 16.9555 6.28143C17.0562 6.27965 17.1562 6.29818 17.2496 6.3359C17.343 6.37362 17.4278 6.42976 17.499 6.50098C17.5703 6.5722 17.6264 6.65703 17.6641 6.75042C17.7018 6.84381 17.7204 6.94384 17.7186 7.04454C17.7168 7.14525 17.6948 7.24456 17.6538 7.33656C17.6128 7.42856 17.5537 7.51136 17.48 7.58002L7.58 17.48C7.51075 17.5501 7.4282 17.6057 7.33719 17.6435C7.24618 17.6813 7.14854 17.7005 7.05 17.7V17.7Z" fill="currentColor"/>
<path  d="M8.5 10.75C8.05499 10.75 7.61998 10.618 7.24997 10.3708C6.87996 10.1236 6.59157 9.77217 6.42127 9.36104C6.25097 8.9499 6.20642 8.49751 6.29323 8.06105C6.38005 7.62459 6.59434 7.22368 6.90901 6.90901C7.22368 6.59434 7.62459 6.38005 8.06105 6.29323C8.49751 6.20642 8.9499 6.25097 9.36104 6.42127C9.77217 6.59157 10.1236 6.87996 10.3708 7.24997C10.618 7.61998 10.75 8.05499 10.75 8.5C10.75 9.09674 10.5129 9.66903 10.091 10.091C9.66903 10.5129 9.09674 10.75 8.5 10.75ZM8.5 7.75C8.35167 7.75 8.20666 7.79399 8.08332 7.8764C7.95999 7.95881 7.86386 8.07594 7.80709 8.21299C7.75033 8.35003 7.73547 8.50083 7.76441 8.64632C7.79335 8.7918 7.86478 8.92544 7.96967 9.03033C8.07456 9.13522 8.2082 9.20665 8.35368 9.23559C8.49917 9.26453 8.64997 9.24968 8.78701 9.19291C8.92406 9.13614 9.04119 9.04002 9.1236 8.91668C9.20601 8.79334 9.25 8.64834 9.25 8.5C9.24741 8.30189 9.16756 8.11263 9.02747 7.97253C8.88737 7.83244 8.69811 7.75259 8.5 7.75Z" fill="currentColor"/>
<path  d="M15.5 17.75C15.055 17.75 14.62 17.618 14.25 17.3708C13.88 17.1236 13.5916 16.7722 13.4213 16.361C13.251 15.9499 13.2064 15.4975 13.2932 15.061C13.3801 14.6246 13.5943 14.2237 13.909 13.909C14.2237 13.5943 14.6246 13.3801 15.061 13.2932C15.4975 13.2064 15.9499 13.251 16.361 13.4213C16.7722 13.5916 17.1236 13.88 17.3708 14.25C17.618 14.62 17.75 15.055 17.75 15.5C17.75 16.0967 17.5129 16.669 17.091 17.091C16.669 17.5129 16.0967 17.75 15.5 17.75ZM15.5 14.75C15.3517 14.75 15.2067 14.794 15.0833 14.8764C14.96 14.9588 14.8639 15.0759 14.8071 15.213C14.7503 15.35 14.7355 15.5008 14.7644 15.6463C14.7934 15.7918 14.8648 15.9254 14.9697 16.0303C15.0746 16.1352 15.2082 16.2067 15.3537 16.2356C15.4992 16.2645 15.65 16.2497 15.787 16.1929C15.9241 16.1361 16.0412 16.04 16.1236 15.9167C16.206 15.7933 16.25 15.6483 16.25 15.5C16.2474 15.3019 16.1676 15.1126 16.0275 14.9725C15.8874 14.8324 15.6981 14.7526 15.5 14.75V14.75Z" fill="currentColor"/>
</g>
</g>
</svg>
