<svg width="144" height="56" viewBox="0 0 144 56" fill="none" xmlns="http://www.w3.org/2000/svg">
<g filter="url(#filter0_d_1050_9613)">
<path d="M138.742 47.4393L4.5 47.4393L4.5 11.5439L139.499 11.5439L139.452 46.6715V46.6722C139.452 47.1175 139.113 47.4393 138.742 47.4393Z" fill="white" stroke="#88D894"/>
<path d="M18.5 6C18.5 2.96243 20.9624 0.5 24 0.5L134 0.5C137.038 0.5 139.5 2.96243 139.5 6V12.5435L18.5 12.5435V6Z" fill="#E4ECE5" stroke="#88D894"/>
<path d="M4 6C4 2.68629 6.68629 0 10 0L67 0C70.3137 0 73 2.68629 73 6V13.0435L4 13.0435L4 6Z" fill="#88D894"/>
<path d="M81.1025 30.4907H79.3931V29.8008H81.1025C81.4336 29.8008 81.7017 29.748 81.9067 29.6426C82.1118 29.5371 82.2612 29.3906 82.355 29.2031C82.4517 29.0156 82.5 28.8018 82.5 28.5615C82.5 28.3418 82.4517 28.1353 82.355 27.9419C82.2612 27.7485 82.1118 27.5933 81.9067 27.4761C81.7017 27.356 81.4336 27.2959 81.1025 27.2959H79.5908V33H78.7427V26.6016H81.1025C81.5859 26.6016 81.9946 26.6851 82.3286 26.8521C82.6626 27.019 82.916 27.2505 83.0889 27.5464C83.2617 27.8394 83.3481 28.1748 83.3481 28.5527C83.3481 28.9629 83.2617 29.313 83.0889 29.603C82.916 29.8931 82.6626 30.1143 82.3286 30.2666C81.9946 30.416 81.5859 30.4907 81.1025 30.4907ZM85.1104 26.25V33H84.2974V26.25H85.1104ZM84.917 30.4424L84.5786 30.4292C84.5815 30.104 84.6299 29.8037 84.7236 29.5283C84.8174 29.25 84.9492 29.0083 85.1191 28.8032C85.2891 28.5981 85.4912 28.4399 85.7256 28.3286C85.9629 28.2144 86.2251 28.1572 86.5122 28.1572C86.7466 28.1572 86.9575 28.1895 87.145 28.2539C87.3325 28.3154 87.4922 28.415 87.624 28.5527C87.7588 28.6904 87.8613 28.8691 87.9316 29.0889C88.002 29.3057 88.0371 29.5708 88.0371 29.8843V33H87.2197V29.8755C87.2197 29.6265 87.1831 29.4272 87.1099 29.2778C87.0366 29.1255 86.9297 29.0156 86.7891 28.9482C86.6484 28.8779 86.4756 28.8428 86.2705 28.8428C86.0684 28.8428 85.8838 28.8853 85.7168 28.9702C85.5527 29.0552 85.4106 29.1724 85.2905 29.3218C85.1733 29.4712 85.0811 29.6426 85.0137 29.8359C84.9492 30.0264 84.917 30.2285 84.917 30.4424ZM89.0391 30.6753V30.5742C89.0391 30.2314 89.0889 29.9136 89.1885 29.6206C89.2881 29.3247 89.4316 29.0684 89.6191 28.8516C89.8066 28.6318 90.0337 28.4619 90.3003 28.3418C90.5669 28.2188 90.8657 28.1572 91.1968 28.1572C91.5308 28.1572 91.8311 28.2188 92.0977 28.3418C92.3672 28.4619 92.5957 28.6318 92.7832 28.8516C92.9736 29.0684 93.1187 29.3247 93.2183 29.6206C93.3179 29.9136 93.3677 30.2314 93.3677 30.5742V30.6753C93.3677 31.0181 93.3179 31.3359 93.2183 31.6289C93.1187 31.9219 92.9736 32.1782 92.7832 32.3979C92.5957 32.6147 92.3687 32.7847 92.1021 32.9077C91.8384 33.0278 91.5396 33.0879 91.2056 33.0879C90.8716 33.0879 90.5713 33.0278 90.3047 32.9077C90.0381 32.7847 89.8096 32.6147 89.6191 32.3979C89.4316 32.1782 89.2881 31.9219 89.1885 31.6289C89.0889 31.3359 89.0391 31.0181 89.0391 30.6753ZM89.8521 30.5742V30.6753C89.8521 30.9126 89.8799 31.1367 89.9355 31.3477C89.9912 31.5557 90.0747 31.7402 90.186 31.9014C90.3003 32.0625 90.4424 32.1899 90.6123 32.2837C90.7822 32.3745 90.98 32.4199 91.2056 32.4199C91.4282 32.4199 91.623 32.3745 91.79 32.2837C91.96 32.1899 92.1006 32.0625 92.2119 31.9014C92.3232 31.7402 92.4067 31.5557 92.4624 31.3477C92.521 31.1367 92.5503 30.9126 92.5503 30.6753V30.5742C92.5503 30.3398 92.521 30.1187 92.4624 29.9106C92.4067 29.6997 92.3218 29.5137 92.2075 29.3525C92.0962 29.1885 91.9556 29.0596 91.7856 28.9658C91.6187 28.8721 91.4224 28.8252 91.1968 28.8252C90.9741 28.8252 90.7778 28.8721 90.6079 28.9658C90.4409 29.0596 90.3003 29.1885 90.186 29.3525C90.0747 29.5137 89.9912 29.6997 89.9355 29.9106C89.8799 30.1187 89.8521 30.3398 89.8521 30.5742ZM95.2002 29.2603V33H94.3872V28.2451H95.1562L95.2002 29.2603ZM95.0068 30.4424L94.6685 30.4292C94.6714 30.104 94.7197 29.8037 94.8135 29.5283C94.9072 29.25 95.0391 29.0083 95.209 28.8032C95.3789 28.5981 95.5811 28.4399 95.8154 28.3286C96.0527 28.2144 96.3149 28.1572 96.6021 28.1572C96.8364 28.1572 97.0474 28.1895 97.2349 28.2539C97.4224 28.3154 97.582 28.415 97.7139 28.5527C97.8486 28.6904 97.9512 28.8691 98.0215 29.0889C98.0918 29.3057 98.127 29.5708 98.127 29.8843V33H97.3096V29.8755C97.3096 29.6265 97.2729 29.4272 97.1997 29.2778C97.1265 29.1255 97.0195 29.0156 96.8789 28.9482C96.7383 28.8779 96.5654 28.8428 96.3604 28.8428C96.1582 28.8428 95.9736 28.8853 95.8066 28.9702C95.6426 29.0552 95.5005 29.1724 95.3804 29.3218C95.2632 29.4712 95.1709 29.6426 95.1035 29.8359C95.0391 30.0264 95.0068 30.2285 95.0068 30.4424ZM101.335 33.0879C101.004 33.0879 100.704 33.0322 100.434 32.9209C100.167 32.8066 99.9375 32.647 99.7441 32.4419C99.5537 32.2368 99.4072 31.9937 99.3047 31.7124C99.2021 31.4312 99.1509 31.1235 99.1509 30.7896V30.605C99.1509 30.2183 99.208 29.874 99.3223 29.5723C99.4365 29.2676 99.5918 29.0098 99.7881 28.7988C99.9844 28.5879 100.207 28.4282 100.456 28.3198C100.705 28.2114 100.963 28.1572 101.229 28.1572C101.569 28.1572 101.862 28.2158 102.108 28.333C102.357 28.4502 102.561 28.6143 102.719 28.8252C102.877 29.0332 102.995 29.2793 103.071 29.5635C103.147 29.8447 103.185 30.1523 103.185 30.4863V30.8511H99.6343V30.1875H102.372V30.126C102.36 29.915 102.316 29.71 102.24 29.5107C102.167 29.3115 102.05 29.1475 101.889 29.0186C101.728 28.8896 101.508 28.8252 101.229 28.8252C101.045 28.8252 100.875 28.8647 100.72 28.9438C100.564 29.02 100.431 29.1343 100.32 29.2866C100.208 29.439 100.122 29.625 100.061 29.8447C99.999 30.0645 99.9683 30.3179 99.9683 30.605V30.7896C99.9683 31.0151 99.999 31.2275 100.061 31.4268C100.125 31.623 100.217 31.7959 100.337 31.9453C100.46 32.0947 100.608 32.2119 100.781 32.2969C100.957 32.3818 101.156 32.4243 101.379 32.4243C101.666 32.4243 101.909 32.3657 102.108 32.2485C102.308 32.1313 102.482 31.9746 102.631 31.7783L103.124 32.1694C103.021 32.3247 102.891 32.4727 102.732 32.6133C102.574 32.7539 102.379 32.8682 102.148 32.9561C101.919 33.0439 101.648 33.0879 101.335 33.0879ZM108.27 32.4199C108.463 32.4199 108.642 32.3804 108.806 32.3013C108.97 32.2222 109.104 32.1138 109.21 31.9761C109.315 31.8354 109.375 31.6758 109.39 31.4971H110.164C110.149 31.7783 110.054 32.0405 109.878 32.2837C109.705 32.5239 109.478 32.7188 109.197 32.8682C108.916 33.0146 108.606 33.0879 108.27 33.0879C107.912 33.0879 107.6 33.0249 107.333 32.8989C107.07 32.7729 106.85 32.6001 106.674 32.3804C106.501 32.1606 106.371 31.9087 106.283 31.6245C106.198 31.3374 106.156 31.0342 106.156 30.7148V30.5303C106.156 30.2109 106.198 29.9092 106.283 29.625C106.371 29.3379 106.501 29.0845 106.674 28.8647C106.85 28.645 107.07 28.4722 107.333 28.3462C107.6 28.2202 107.912 28.1572 108.27 28.1572C108.642 28.1572 108.967 28.2334 109.245 28.3857C109.523 28.5352 109.742 28.7402 109.9 29.001C110.061 29.2588 110.149 29.5518 110.164 29.8799H109.39C109.375 29.6836 109.32 29.5063 109.223 29.3481C109.129 29.1899 109 29.064 108.836 28.9702C108.675 28.8735 108.486 28.8252 108.27 28.8252C108.021 28.8252 107.811 28.875 107.641 28.9746C107.474 29.0713 107.341 29.2031 107.241 29.3701C107.145 29.5342 107.074 29.7173 107.03 29.9194C106.989 30.1187 106.969 30.3223 106.969 30.5303V30.7148C106.969 30.9229 106.989 31.1279 107.03 31.3301C107.071 31.5322 107.14 31.7153 107.237 31.8794C107.336 32.0435 107.47 32.1753 107.637 32.2749C107.807 32.3716 108.018 32.4199 108.27 32.4199ZM113.881 32.187V29.7393C113.881 29.5518 113.843 29.3892 113.767 29.2515C113.694 29.1108 113.583 29.0024 113.433 28.9263C113.284 28.8501 113.099 28.812 112.879 28.812C112.674 28.812 112.494 28.8472 112.339 28.9175C112.187 28.9878 112.066 29.0801 111.979 29.1943C111.894 29.3086 111.851 29.4316 111.851 29.5635H111.038C111.038 29.3936 111.082 29.2251 111.17 29.0581C111.258 28.8911 111.384 28.7402 111.548 28.6055C111.715 28.4678 111.914 28.3594 112.146 28.2803C112.38 28.1982 112.641 28.1572 112.928 28.1572C113.273 28.1572 113.578 28.2158 113.842 28.333C114.108 28.4502 114.316 28.6274 114.466 28.8647C114.618 29.0991 114.694 29.3936 114.694 29.748V31.9629C114.694 32.1211 114.708 32.2896 114.734 32.4683C114.763 32.647 114.806 32.8008 114.861 32.9297V33H114.013C113.972 32.9062 113.94 32.7817 113.917 32.6265C113.893 32.4683 113.881 32.3218 113.881 32.187ZM114.022 30.1172L114.031 30.6885H113.209C112.978 30.6885 112.771 30.7075 112.589 30.7456C112.408 30.7808 112.255 30.835 112.132 30.9082C112.009 30.9814 111.916 31.0737 111.851 31.1851C111.787 31.2935 111.754 31.4209 111.754 31.5674C111.754 31.7168 111.788 31.853 111.855 31.9761C111.923 32.0991 112.024 32.1973 112.159 32.2705C112.296 32.3408 112.465 32.376 112.664 32.376C112.913 32.376 113.133 32.3232 113.323 32.2178C113.514 32.1123 113.665 31.9834 113.776 31.8311C113.89 31.6787 113.952 31.5308 113.96 31.3872L114.308 31.7783C114.287 31.9014 114.231 32.0376 114.141 32.187C114.05 32.3364 113.928 32.48 113.776 32.6177C113.626 32.7524 113.448 32.8652 113.24 32.9561C113.035 33.0439 112.803 33.0879 112.545 33.0879C112.223 33.0879 111.94 33.0249 111.697 32.8989C111.457 32.7729 111.27 32.6045 111.135 32.3936C111.003 32.1797 110.937 31.9409 110.937 31.6772C110.937 31.4224 110.987 31.1982 111.086 31.0049C111.186 30.8086 111.33 30.646 111.517 30.5171C111.705 30.3853 111.93 30.2856 112.194 30.2183C112.458 30.1509 112.752 30.1172 113.077 30.1172H114.022ZM116.856 26.25V33H116.039V26.25H116.856ZM119.045 26.25V33H118.228V26.25H119.045Z" fill="#1D1D1D"/>
<g clip-path="url(#clip0_1050_9613)">
<path d="M30.4189 34H30.2611C28.4832 33.8066 26.7751 33.2004 25.2731 32.2298C23.8777 31.3411 22.6929 30.1587 21.8014 28.765C20.8286 27.259 20.2223 25.546 20.0312 23.7633C20.0094 23.5507 20.0309 23.3358 20.0946 23.1318C20.1583 22.9277 20.2628 22.7388 20.4017 22.5763C20.5368 22.4117 20.7036 22.2759 20.8922 22.1769C21.0807 22.0779 21.2873 22.0177 21.4995 22H23.2834C23.6697 22.0004 24.0432 22.1389 24.3364 22.3906C24.6295 22.6422 24.8231 22.9904 24.882 23.3722C24.9471 23.8627 25.0692 24.3439 25.2456 24.8062C25.353 25.0967 25.3751 25.4118 25.3095 25.7144C25.2438 26.017 25.0932 26.2947 24.8751 26.5146L24.4566 26.9331C25.1156 27.9734 25.9995 28.8526 27.0432 29.506L27.4617 29.0943C27.6817 28.8763 27.9593 28.7256 28.2619 28.66C28.5646 28.5944 28.8797 28.6165 29.1702 28.7238C29.6329 28.8987 30.114 29.0207 30.6041 29.0875C30.9925 29.1459 31.3462 29.344 31.5988 29.6446C31.8515 29.9453 31.9857 30.3278 31.9763 30.7204V32.3671C31.9763 32.7953 31.8067 33.2061 31.5045 33.5096C31.2023 33.8131 30.7922 33.9845 30.364 33.9863L30.4189 34ZM23.2834 23.0223H21.6436C21.5631 23.0276 21.4845 23.0492 21.4125 23.0858C21.3406 23.1223 21.2768 23.1731 21.225 23.235C21.1747 23.293 21.1365 23.3606 21.113 23.4337C21.0894 23.5068 21.0808 23.5839 21.0878 23.6604C21.2542 25.2774 21.797 26.8329 22.6727 28.2024C23.48 29.4694 24.5549 30.5443 25.822 31.3516C27.1923 32.2366 28.7496 32.7909 30.3708 32.9708C30.4552 32.9756 30.5395 32.9628 30.6187 32.9333C30.6978 32.9038 30.7699 32.8581 30.8305 32.7993C30.9398 32.6873 31.0013 32.5373 31.0021 32.3808V30.741C31.0051 30.5966 30.9552 30.4561 30.8616 30.3461C30.768 30.2361 30.6374 30.1642 30.4943 30.1441C29.9275 30.0679 29.3707 29.9298 28.834 29.7324C28.7282 29.6929 28.6134 29.6841 28.5029 29.7072C28.3924 29.7303 28.2907 29.7842 28.2096 29.8628L27.5235 30.5489C27.4431 30.6272 27.3396 30.6776 27.2284 30.6924C27.1171 30.7072 27.0041 30.6858 26.906 30.6312C25.442 29.8039 24.2302 28.5945 23.4 27.1321C23.3432 27.0346 23.3204 26.921 23.3353 26.8092C23.3502 26.6974 23.402 26.5937 23.4823 26.5146L24.1684 25.8285C24.2471 25.7489 24.3012 25.6484 24.3244 25.5389C24.3475 25.4294 24.3386 25.3156 24.2988 25.211C24.1006 24.6744 23.9626 24.1176 23.8871 23.5506C23.8701 23.4033 23.7989 23.2676 23.6872 23.1699C23.5756 23.0722 23.4316 23.0196 23.2834 23.0223Z" fill="black"/>
</g>
</g>
<defs>
<filter id="filter0_d_1050_9613" x="0" y="0" width="144" height="55.9395" filterUnits="userSpaceOnUse" color-interpolation-filters="sRGB">
<feFlood flood-opacity="0" result="BackgroundImageFix"/>
<feColorMatrix in="SourceAlpha" type="matrix" values="0 0 0 0 0 0 0 0 0 0 0 0 0 0 0 0 0 0 127 0" result="hardAlpha"/>
<feOffset dy="4"/>
<feGaussianBlur stdDeviation="2"/>
<feComposite in2="hardAlpha" operator="out"/>
<feColorMatrix type="matrix" values="0 0 0 0 0 0 0 0 0 0 0 0 0 0 0 0 0 0 0.25 0"/>
<feBlend mode="normal" in2="BackgroundImageFix" result="effect1_dropShadow_1050_9613"/>
<feBlend mode="normal" in="SourceGraphic" in2="effect1_dropShadow_1050_9613" result="shape"/>
</filter>
<clipPath id="clip0_1050_9613">
<rect width="12" height="12" fill="white" transform="translate(20 22)"/>
</clipPath>
</defs>
</svg>
