<svg width="24" height="24" viewBox="0 0 24 24" fill="none" xmlns="http://www.w3.org/2000/svg">
<g clip-path="url(#clip0_1166_9838)">
<path d="M5.18999 12.81C3.50585 10.213 2.45435 7.25714 2.11999 4.17997C2.095 3.90344 2.12787 3.62474 2.21649 3.3616C2.30512 3.09846 2.44756 2.85666 2.63476 2.6516C2.82196 2.44653 3.0498 2.28268 3.30379 2.1705C3.55777 2.05831 3.83233 2.00024 4.10999 1.99997H7.10999C7.5953 1.9952 8.06579 2.16705 8.43376 2.48351C8.80173 2.79996 9.04207 3.23942 9.10999 3.71997C9.23662 4.68004 9.47144 5.6227 9.80999 6.52997C9.94454 6.8879 9.97366 7.27689 9.8939 7.65086C9.81415 8.02482 9.62886 8.36809 9.35999 8.63998L8.08999 9.90997M10.68 13.31C11.6948 14.3257 12.8418 15.2002 14.09 15.91L15.36 14.64C15.6319 14.3711 15.9751 14.1858 16.3491 14.1061C16.7231 14.0263 17.1121 14.0554 17.47 14.19C18.3773 14.5285 19.3199 14.7634 20.28 14.89C20.7605 14.9579 21.2 15.1982 21.5165 15.5662C21.8329 15.9342 22.0048 16.4047 22 16.89V19.89C22.0011 20.1685 21.9441 20.4441 21.8325 20.6993C21.7209 20.9545 21.5573 21.1836 21.3521 21.3718C21.1468 21.5601 20.9046 21.7035 20.6407 21.7927C20.3769 21.8819 20.0974 21.915 19.82 21.89C16.7428 21.5556 13.787 20.5041 11.19 18.82C9.98526 18.055 8.86852 17.1596 7.85999 16.15L10.68 13.31Z" stroke="white" stroke-width="2" stroke-linecap="round" stroke-linejoin="round"/>
<path d="M23 1L1 23" stroke="white" stroke-width="2" stroke-linecap="round" stroke-linejoin="round"/>
</g>
<defs>
<clipPath id="clip0_1166_9838">
<rect width="24" height="24" fill="white"/>
</clipPath>
</defs>
</svg>
