<svg xmlns="http://www.w3.org/2000/svg" viewBox="0 0 144 56" fill="none" ><g filter="url(#A)"><path d="M138.742 47.439H4.5V11.544h134.999l-.047 35.128h0c0 .445-.339.767-.71.767z" fill="#fff" stroke="#88d894"/><path d="M18.5 6A5.5 5.5 0 0 1 24 .5h110a5.5 5.5 0 0 1 5.5 5.5v6.544h-121V6z" fill="#e4ece5" stroke="#88d894"/><path d="M4 6a6 6 0 0 1 6-6h57a6 6 0 0 1 6 6v7.044H4V6z" fill="#88d894"/><path d="M81.103 30.491h-1.709v-.69h1.709c.331 0 .599-.053.804-.158s.355-.252.448-.44a1.38 1.38 0 0 0 .145-.642c0-.22-.048-.426-.145-.62a1.07 1.07 0 0 0-.448-.466c-.205-.12-.473-.18-.804-.18h-1.512V33h-.848v-6.398h2.36c.483 0 .892.083 1.226.25a1.77 1.77 0 0 1 .76.694c.173.293.259.628.259 1.006 0 .41-.086.76-.259 1.05s-.426.511-.76.664-.743.224-1.226.224zm4.008-4.241V33h-.813v-6.75h.813zm-.193 4.192l-.338-.013a2.86 2.86 0 0 1 .145-.901 2.25 2.25 0 0 1 .395-.725 1.76 1.76 0 0 1 .606-.475 1.79 1.79 0 0 1 .787-.171 1.94 1.94 0 0 1 .633.097c.188.061.347.161.479.299a1.33 1.33 0 0 1 .308.536 2.6 2.6 0 0 1 .105.795V33h-.817v-3.125c0-.249-.037-.448-.11-.598s-.18-.262-.321-.33-.314-.105-.519-.105-.387.043-.554.127-.306.202-.426.352a1.77 1.77 0 0 0-.277.514 1.88 1.88 0 0 0-.097.607zm4.122.233v-.101c0-.343.05-.661.149-.954s.243-.552.431-.769a1.92 1.92 0 0 1 .681-.51c.267-.123.565-.185.897-.185s.634.062.901.185a1.91 1.91 0 0 1 .685.51c.19.217.336.473.435.769s.149.611.149.954v.101c0 .343-.05.661-.149.954a2.28 2.28 0 0 1-.435.769c-.187.217-.414.387-.681.51a2.14 2.14 0 0 1-.896.18 2.17 2.17 0 0 1-.901-.18 2.04 2.04 0 0 1-.686-.51 2.32 2.32 0 0 1-.431-.769c-.1-.293-.149-.611-.149-.954zm.813-.101v.101a2.63 2.63 0 0 0 .083.672c.056.208.139.393.251.554a1.27 1.27 0 0 0 .426.382 1.24 1.24 0 0 0 .593.136c.223 0 .417-.045.584-.136s.311-.221.422-.382.195-.346.251-.554.088-.435.088-.672v-.101c0-.234-.029-.456-.088-.664a1.71 1.71 0 0 0-.255-.558 1.21 1.21 0 0 0-.422-.387c-.167-.094-.363-.141-.589-.141a1.2 1.2 0 0 0-.589.141c-.167.094-.308.223-.422.387s-.195.347-.251.558a2.56 2.56 0 0 0-.083.664zM95.2 29.26V33h-.813v-4.755h.769l.044 1.015zm-.193 1.182l-.338-.013c.003-.325.051-.626.145-.901s.226-.52.395-.725a1.76 1.76 0 0 1 .606-.475 1.79 1.79 0 0 1 .787-.171 1.94 1.94 0 0 1 .633.097c.188.061.347.161.479.299s.237.316.308.536.105.482.105.795V33h-.817v-3.125c0-.249-.037-.448-.11-.598s-.18-.262-.321-.33-.314-.105-.519-.105-.387.043-.554.127-.306.202-.426.352a1.77 1.77 0 0 0-.277.514 1.88 1.88 0 0 0-.097.607zm6.328 2.645c-.331 0-.631-.056-.901-.167a2.04 2.04 0 0 1-.69-.479 2.13 2.13 0 0 1-.439-.729c-.103-.281-.154-.589-.154-.923v-.185c0-.387.057-.731.171-1.033a2.31 2.31 0 0 1 .466-.773c.196-.211.419-.371.668-.479a1.92 1.92 0 0 1 .773-.163c.34 0 .633.059.879.176a1.6 1.6 0 0 1 .611.492c.158.208.276.454.352.738a3.53 3.53 0 0 1 .114.923v.365h-3.551v-.664h2.738v-.061a2.04 2.04 0 0 0-.132-.615c-.073-.199-.19-.363-.351-.492s-.381-.193-.66-.193c-.184 0-.354.04-.509.119a1.08 1.08 0 0 0-.4.343c-.112.152-.198.338-.259.558a2.81 2.81 0 0 0-.093.76v.185c0 .226.031.438.093.637s.156.369.276.518.271.267.444.352.375.127.598.127c.287 0 .53-.059.729-.176a1.79 1.79 0 0 0 .523-.47l.493.391a2.27 2.27 0 0 1-.392.444c-.158.141-.353.255-.584.343s-.5.132-.813.132zm6.935-.668a1.22 1.22 0 0 0 .536-.119 1.11 1.11 0 0 0 .404-.325.91.91 0 0 0 .18-.479h.774a1.45 1.45 0 0 1-.286.787c-.173.24-.4.435-.681.584a1.98 1.98 0 0 1-.927.22c-.358 0-.67-.063-.937-.189s-.483-.299-.659-.518-.303-.472-.391-.756a3.19 3.19 0 0 1-.127-.91v-.184c0-.319.042-.621.127-.905a2.31 2.31 0 0 1 .391-.76c.176-.22.396-.392.659-.518s.579-.189.937-.189c.372 0 .697.076.975.229a1.68 1.68 0 0 1 .655.615c.161.258.249.551.264.879h-.774a1.17 1.17 0 0 0-.167-.532c-.094-.158-.223-.284-.387-.378a1.08 1.08 0 0 0-.566-.145c-.249 0-.459.05-.629.149s-.3.229-.4.396-.167.347-.211.549-.061.403-.061.611v.184c0 .208.02.413.061.615s.11.385.207.549.233.296.4.396.381.145.633.145zm5.611-.233v-2.448c0-.187-.038-.35-.114-.488s-.184-.249-.334-.325a1.21 1.21 0 0 0-.554-.114c-.205 0-.385.035-.54.105s-.273.163-.36.277-.128.237-.128.369h-.813c0-.17.044-.338.132-.505a1.48 1.48 0 0 1 .378-.453c.167-.138.366-.246.598-.325s.495-.123.782-.123c.345 0 .65.059.914.176s.474.294.624.532.228.529.228.883v2.215c0 .158.014.327.04.505s.072.333.127.461V33h-.848c-.041-.094-.073-.218-.096-.373s-.036-.305-.036-.44zm.141-2.07l.009.571h-.822c-.231 0-.438.019-.62.057s-.334.089-.457.163-.216.165-.281.277a.74.74 0 0 0-.097.382.84.84 0 0 0 .101.409.74.74 0 0 0 .304.294 1.1 1.1 0 0 0 .505.105c.249 0 .469-.053.659-.158s.342-.234.453-.387.176-.3.184-.444l.348.391c-.021.123-.077.259-.167.409a1.97 1.97 0 0 1-.365.431 1.98 1.98 0 0 1-.536.338 1.75 1.75 0 0 1-.695.132c-.322 0-.605-.063-.848-.189s-.427-.294-.562-.505-.198-.453-.198-.716c0-.255.05-.479.149-.672s.244-.359.431-.488.413-.232.677-.299a3.57 3.57 0 0 1 .883-.101h.945zm2.834-3.867V33h-.817v-6.75h.817zm2.189 0V33h-.817v-6.75h.817z" fill="#1d1d1d"/><g clip-path="url(#B)"><path d="M30.419 34h-.158c-1.778-.193-3.486-.8-4.988-1.77-1.395-.889-2.58-2.071-3.472-3.465a11.47 11.47 0 0 1-1.77-5.002 1.58 1.58 0 0 1 .371-1.187A1.59 1.59 0 0 1 21.5 22h1.784a1.62 1.62 0 0 1 1.599 1.372c.065.491.187.972.364 1.434.107.29.13.606.064.908s-.216.58-.434.8l-.418.418c.659 1.04 1.543 1.919 2.587 2.573l.419-.412c.22-.218.498-.369.8-.434s.618-.044.908.064a6.56 6.56 0 0 0 1.434.364 1.61 1.61 0 0 1 1.372 1.633v1.647a1.62 1.62 0 0 1-1.612 1.619l.055.014zm-7.135-10.978h-1.64c-.081.005-.159.027-.231.063s-.136.087-.187.149a.57.57 0 0 0-.137.425 10.41 10.41 0 0 0 1.585 4.542 10.29 10.29 0 0 0 3.149 3.149c1.37.885 2.928 1.439 4.549 1.619a.61.61 0 0 0 .46-.171c.109-.112.171-.262.172-.419v-1.64a.59.59 0 0 0-.508-.597c-.567-.076-1.124-.214-1.66-.412-.106-.039-.221-.048-.331-.025s-.212.077-.293.156l-.686.686a.52.52 0 0 1-.617.082c-1.464-.827-2.676-2.037-3.506-3.499a.51.51 0 0 1 .082-.617l.686-.686c.079-.08.133-.18.156-.29s.014-.223-.026-.328a7.74 7.74 0 0 1-.412-1.66c-.017-.147-.088-.283-.2-.381s-.256-.15-.404-.148z" fill="currentColor"/></g></g><defs><filter id="A" x="0" y="0" width="144" height="55.94" filterUnits="userSpaceOnUse" color-interpolation-filters="sRGB"><feFlood flood-opacity="0" result="A"/><feColorMatrix in="SourceAlpha" values="0 0 0 0 0 0 0 0 0 0 0 0 0 0 0 0 0 0 127 0" result="B"/><feOffset dy="4"/><feGaussianBlur stdDeviation="2"/><feComposite in2="B" operator="out"/><feColorMatrix values="0 0 0 0 0 0 0 0 0 0 0 0 0 0 0 0 0 0 0.25 0"/><feBlend in2="A"/><feBlend in="SourceGraphic"/></filter><clipPath id="B"><path fill="#fff" transform="translate(20 22)" d="M0 0h12v12H0z"/></clipPath></defs></svg>