<svg width="24" height="24" viewBox="0 0 24 24" fill="none" xmlns="http://www.w3.org/2000/svg">
<g >
<g id="phone">
<path  d="M18.4 20.75H18.17C15.5787 20.4681 13.0892 19.5846 10.9 18.17C8.86615 16.8747 7.13935 15.1513 5.83997 13.12C4.42213 10.925 3.53849 8.42823 3.25997 5.83001C3.22813 5.52011 3.25957 5.20696 3.3524 4.90958C3.44522 4.6122 3.59749 4.33677 3.79997 4.10001C3.99691 3.86008 4.23999 3.66211 4.51483 3.51782C4.78966 3.37354 5.09065 3.28587 5.39997 3.26001H7.99997C8.56309 3.26058 9.10744 3.46248 9.53473 3.82925C9.96201 4.19602 10.2441 4.70349 10.33 5.26001C10.4249 5.97489 10.6028 6.67628 10.86 7.35001C11.0164 7.77339 11.0487 8.23264 10.953 8.67375C10.8574 9.11485 10.6377 9.51947 10.32 9.84001L9.70997 10.45C10.6704 11.9662 11.9587 13.2477 13.48 14.2L14.09 13.6C14.4105 13.2822 14.8151 13.0626 15.2562 12.9669C15.6973 12.8713 16.1566 12.9036 16.58 13.06C17.2545 13.3148 17.9556 13.4926 18.67 13.59C19.236 13.6751 19.7515 13.9638 20.1198 14.402C20.488 14.8402 20.6836 15.3978 20.67 15.97V18.37C20.67 18.9942 20.4227 19.593 19.9823 20.0353C19.5419 20.4776 18.9442 20.7274 18.32 20.73L18.4 20.75ZM7.99997 4.75001H5.60997C5.49262 4.75777 5.37806 4.78924 5.27322 4.84252C5.16837 4.8958 5.07542 4.96979 4.99997 5.06001C4.92655 5.14452 4.87097 5.24302 4.8366 5.34957C4.80223 5.45612 4.78977 5.56852 4.79997 5.68001C5.04246 8.03679 5.83359 10.304 7.10997 12.3C8.28661 14.1467 9.85329 15.7134 11.7 16.89C13.6972 18.1798 15.9669 18.9878 18.33 19.25C18.4529 19.2569 18.5759 19.2383 18.6912 19.1953C18.8065 19.1522 18.9117 19.0857 19 19C19.1592 18.8368 19.2488 18.6181 19.25 18.39V16C19.2545 15.7896 19.1816 15.5848 19.0453 15.4244C18.9089 15.2641 18.7184 15.1593 18.51 15.13C17.6838 15.0189 16.8723 14.8177 16.09 14.53C15.9358 14.4724 15.7685 14.4596 15.6075 14.4933C15.4464 14.5269 15.2982 14.6055 15.18 14.72L14.18 15.72C14.0629 15.8342 13.912 15.9076 13.7499 15.9292C13.5877 15.9508 13.4229 15.9195 13.28 15.84C11.1462 14.6342 9.37994 12.8715 8.16997 10.74C8.08715 10.598 8.05399 10.4324 8.07572 10.2694C8.09745 10.1065 8.17283 9.95538 8.28997 9.84001L9.28997 8.84001C9.40465 8.72403 9.48354 8.57751 9.51723 8.41793C9.55092 8.25835 9.53799 8.09244 9.47997 7.94001C9.19116 7.15799 8.98994 6.34637 8.87997 5.52001C8.85516 5.30528 8.7513 5.10747 8.58862 4.96513C8.42594 4.82278 8.2161 4.7461 7.99997 4.75001V4.75001Z" fill="currentColor"/>
</g>
</g>
</svg>
