<svg width="17" height="18" viewBox="0 0 17 18" fill="none" xmlns="http://www.w3.org/2000/svg">
<path d="M13.7135 12.5415C14.242 12.8645 14.5202 13.231 14.5202 13.604C14.5202 13.977 14.242 14.3435 13.7135 14.6665C13.1851 14.9895 12.425 15.2578 11.5098 15.4443C10.5945 15.6308 9.55623 15.729 8.49935 15.729C7.44247 15.729 6.40422 15.6308 5.48893 15.4443C4.57365 15.2578 3.81359 14.9895 3.28515 14.6665C2.75672 14.3435 2.47852 13.977 2.47852 13.604C2.47852 13.231 2.75672 12.8645 3.28515 12.5415" stroke="#878787" stroke-linecap="round"/>
<path d="M13.8125 7.5835C13.8125 11.0176 10.1837 13.3717 8.92437 14.0853C8.65814 14.2362 8.34186 14.2362 8.07563 14.0853C6.81627 13.3717 3.1875 11.0176 3.1875 7.5835C3.1875 4.396 5.76159 2.271 8.5 2.271C11.3333 2.271 13.8125 4.396 13.8125 7.5835Z" stroke="#878787"/>
<circle cx="8.49935" cy="7.58333" r="2.33333" stroke="#878787"/>
</svg>
