<svg width="24" height="24" viewBox="0 0 24 24" fill="none" xmlns="http://www.w3.org/2000/svg">
<g >
<g id="play">
<g >
<path  d="M8.50002 19.75C8.40032 19.7494 8.30174 19.729 8.21002 19.69C8.0732 19.6341 7.95627 19.5384 7.87428 19.4155C7.7923 19.2925 7.74902 19.1478 7.75002 19V4.99997C7.75543 4.85766 7.80126 4.71983 7.88213 4.6026C7.96301 4.48538 8.07559 4.3936 8.2067 4.33801C8.33782 4.28241 8.48206 4.2653 8.62254 4.28867C8.76303 4.31204 8.89396 4.37493 9.00002 4.46997L16 11.47C16.1405 11.6106 16.2194 11.8012 16.2194 12C16.2194 12.1987 16.1405 12.3893 16 12.53L9.00002 19.53C8.86584 19.6619 8.68797 19.7402 8.50002 19.75ZM9.25002 6.80997V17.19L14.44 12L9.25002 6.80997Z" fill="currentColor"/>
</g>
</g>
</g>
</svg>
