<svg width="24" height="24" viewBox="0 0 24 24" fill="none" xmlns="http://www.w3.org/2000/svg">
<path d="M20.59 6.27002H3.41C2.35514 6.27002 1.5 7.12516 1.5 8.18002V19.63C1.5 20.6849 2.35514 21.54 3.41 21.54H20.59C21.6449 21.54 22.5 20.6849 22.5 19.63V8.18002C22.5 7.12516 21.6449 6.27002 20.59 6.27002Z" stroke="#343A40" stroke-miterlimit="10" stroke-linecap="square"/>
<path d="M13.9099 13H18.6799C19.1853 13.0014 19.686 12.9021 20.1527 12.7082C20.6194 12.5142 21.0428 12.2292 21.3983 11.87C21.7538 11.5108 22.0343 11.0844 22.2235 10.6157C22.4126 10.147 22.5066 9.64535 22.4999 9.13998V8.13998C22.4999 7.63342 22.2987 7.1476 21.9405 6.78941C21.5823 6.43121 21.0965 6.22998 20.5899 6.22998H3.40993C3.1557 6.22992 2.90402 6.28062 2.66965 6.3791C2.43527 6.47758 2.22291 6.62186 2.04502 6.80347C1.86712 6.98509 1.72728 7.2004 1.63368 7.43677C1.54008 7.67313 1.49461 7.92581 1.49993 8.17998V9.17998C1.49861 9.682 1.59652 10.1793 1.78802 10.6434C1.97953 11.1075 2.26086 11.5291 2.61584 11.8841C2.97082 12.2391 3.39246 12.5204 3.85652 12.7119C4.32058 12.9034 4.81791 13.0013 5.31993 13H13.9099Z" stroke="#343A40" stroke-miterlimit="10"/>
<path d="M12 12V13.91" stroke="#343A40" stroke-miterlimit="10" stroke-linecap="square"/>
<path d="M15.8199 6.26996H8.17993L9.13993 2.45996H14.8599L15.8199 6.26996Z" stroke="#343A40" stroke-miterlimit="10" stroke-linecap="square"/>
</svg>
