<svg width="24" height="24" viewBox="0 0 24 24" fill="none" xmlns="http://www.w3.org/2000/svg">
<g >
<g id="pound">
<path  d="M17.54 19.25H8.10001L10.1 16.43C10.1892 16.3042 10.2381 16.1542 10.24 16V12.75H13.49C13.6889 12.75 13.8797 12.671 14.0203 12.5304C14.161 12.3897 14.24 12.1989 14.24 12C14.24 11.8011 14.161 11.6103 14.0203 11.4697C13.8797 11.329 13.6889 11.25 13.49 11.25H10.21V8.00003C10.1878 7.57416 10.2539 7.1483 10.4043 6.74925C10.5547 6.3502 10.786 5.98659 11.0838 5.68131C11.3815 5.37604 11.7393 5.1357 12.1345 4.97542C12.5296 4.81515 12.9537 4.73841 13.38 4.75003C13.8318 4.72087 14.2845 4.78976 14.7072 4.95195C15.1298 5.11414 15.5124 5.36581 15.8287 5.6897C16.145 6.0136 16.3875 6.40205 16.5396 6.82844C16.6918 7.25483 16.7499 7.70907 16.71 8.16003V9.16003C16.71 9.35894 16.789 9.5497 16.9297 9.69036C17.0703 9.83101 17.2611 9.91003 17.46 9.91003C17.6589 9.91003 17.8497 9.83101 17.9903 9.69036C18.131 9.5497 18.21 9.35894 18.21 9.16003V8.16003C18.2515 7.51129 18.1557 6.86109 17.9288 6.25192C17.7018 5.64276 17.3489 5.08835 16.893 4.62492C16.4371 4.16149 15.8886 3.79949 15.2832 3.56257C14.6779 3.32565 14.0293 3.21915 13.38 3.25003C12.7561 3.23588 12.1358 3.34969 11.5575 3.58443C10.9792 3.81918 10.4552 4.16989 10.0176 4.61493C9.58006 5.05998 9.2383 5.58994 9.01341 6.17213C8.78852 6.75432 8.68526 7.3764 8.71001 8.00003V11.25H6.46001C6.26109 11.25 6.07033 11.329 5.92968 11.4697C5.78902 11.6103 5.71001 11.8011 5.71001 12C5.71001 12.1989 5.78902 12.3897 5.92968 12.5304C6.07033 12.671 6.26109 12.75 6.46001 12.75H8.71001V15.75L6.05001 19.57C5.97953 19.6879 5.94231 19.8227 5.94231 19.96C5.94231 20.0974 5.97953 20.2321 6.05001 20.35C6.11257 20.471 6.20729 20.5723 6.32373 20.6429C6.44018 20.7135 6.57384 20.7505 6.71001 20.75H17.54C17.7389 20.75 17.9297 20.671 18.0703 20.5304C18.211 20.3897 18.29 20.1989 18.29 20C18.29 19.8011 18.211 19.6103 18.0703 19.4697C17.9297 19.329 17.7389 19.25 17.54 19.25Z" fill="currentColor"/>
</g>
</g>
</svg>
