<svg width="24" height="24" viewBox="0 0 24 24" fill="none" xmlns="http://www.w3.org/2000/svg">
<g >
<g id="power-off">
<path  d="M12 21C10.2211 20.9984 8.48261 20.4698 7.00402 19.4807C5.52543 18.4917 4.3731 17.0867 3.69256 15.4431C3.01203 13.7995 2.83381 11.9912 3.18042 10.2464C3.52704 8.50159 4.38293 6.89865 5.64001 5.64001C5.70895 5.56926 5.79137 5.51302 5.88239 5.47462C5.97342 5.43622 6.07121 5.41644 6.17001 5.41644C6.2688 5.41644 6.36659 5.43622 6.45762 5.47462C6.54865 5.51302 6.63106 5.56926 6.70001 5.64001C6.84046 5.78064 6.91935 5.97126 6.91935 6.17001C6.91935 6.36876 6.84046 6.55939 6.70001 6.70001C5.96314 7.38663 5.37212 8.21464 4.9622 9.13463C4.55228 10.0546 4.33186 11.0478 4.31409 12.0548C4.29632 13.0618 4.48157 14.0621 4.85878 14.996C5.23599 15.9299 5.79744 16.7782 6.50962 17.4904C7.22181 18.2026 8.07015 18.764 9.00403 19.1412C9.93791 19.5185 10.9382 19.7037 11.9452 19.6859C12.9523 19.6682 13.9454 19.4477 14.8654 19.0378C15.7854 18.6279 16.6134 18.0369 17.3 17.3C17.9978 16.605 18.5516 15.7791 18.9294 14.8696C19.3072 13.9601 19.5017 12.9849 19.5017 12C19.5017 11.0151 19.3072 10.04 18.9294 9.13045C18.5516 8.22094 17.9978 7.39499 17.3 6.70001C17.1596 6.55939 17.0807 6.36876 17.0807 6.17001C17.0807 5.97126 17.1596 5.78064 17.3 5.64001C17.369 5.56926 17.4514 5.51302 17.5424 5.47462C17.6334 5.43622 17.7312 5.41644 17.83 5.41644C17.9288 5.41644 18.0266 5.43622 18.1176 5.47462C18.2086 5.51302 18.2911 5.56926 18.36 5.64001C19.6171 6.89865 20.473 8.50159 20.8196 10.2464C21.1662 11.9912 20.988 13.7995 20.3075 15.4431C19.6269 17.0867 18.4746 18.4917 16.996 19.4807C15.5174 20.4698 13.7789 20.9984 12 21V21Z" fill="currentColor"/>
<path  d="M12 12.75C11.8019 12.7474 11.6126 12.6676 11.4725 12.5275C11.3324 12.3874 11.2526 12.1981 11.25 12V4C11.25 3.80109 11.329 3.61032 11.4697 3.46967C11.6103 3.32902 11.8011 3.25 12 3.25C12.1989 3.25 12.3897 3.32902 12.5303 3.46967C12.671 3.61032 12.75 3.80109 12.75 4V12C12.7474 12.1981 12.6676 12.3874 12.5275 12.5275C12.3874 12.6676 12.1981 12.7474 12 12.75Z" fill="currentColor"/>
</g>
</g>
</svg>
