<svg width="24" height="24" viewBox="0 0 24 24" fill="none" xmlns="http://www.w3.org/2000/svg">
<g >
<g id="prime">
<path  d="M15.36 11.33L14.26 11.08L15.12 12.3V16.09L18.05 13.65V9.5L16.7 9.98L15.36 11.33Z" fill="currentColor"/>
<path  d="M8.51999 11.33L7.16999 9.98L5.82999 9.5V13.65L8.75999 16.09V12.3L9.61999 11.08L8.51999 11.33Z" fill="currentColor"/>
<path   d="M13.16 11.45H10.72L10.11 11.08L9.13 12.55V18.05L9.86 19.14L10.72 20H13.16L14.02 19.14L14.75 18.05V12.55L13.77 11.08L13.16 11.45Z" fill="currentColor"/>
<path   d="M15.12 18.41L16.7 16.82V15.24L15.12 16.58V18.41Z" fill="currentColor"/>
<path  d="M7.17001 16.82L8.76001 18.41V16.58L7.17001 15.24V16.82Z" fill="currentColor"/>
<path  d="M11.08 10.96H11.7V4H10.35L9.38 6.31L4.97 5.95L5.71 9.01L10.96 10.96H11.08Z" fill="currentColor"/>
<path  d="M14.5 6.31L13.53 4H12.18V11H13L18.25 9L19 6L14.5 6.31Z" fill="currentColor"/>
<path d="M17.32 5.71L15.6 4H13.89L14.75 5.95L17.32 5.71Z" fill="currentColor"/>
<path d="M9.98 4H8.27L6.56 5.71L9.13 5.95L9.98 4Z" fill="currentColor"/>
</g>
</g>
</svg>
