<svg width="24" height="24" viewBox="0 0 24 24" fill="none" xmlns="http://www.w3.org/2000/svg">
<path d="M14.8701 14.86H9.14014V18.68H14.8701V14.86Z" stroke="black" stroke-miterlimit="10"/>
<path d="M12 11C12.2586 10.9997 12.5145 11.0519 12.7523 11.1535C12.9901 11.2551 13.2048 11.4039 13.3834 11.5909C13.562 11.7779 13.7008 11.9992 13.7913 12.2414C13.8818 12.4836 13.9222 12.7417 13.91 13V14.91H10.09V13C10.0778 12.7417 10.1182 12.4836 10.2087 12.2414C10.2992 11.9992 10.438 11.7779 10.6166 11.5909C10.7952 11.4039 11.0099 11.2551 11.2477 11.1535C11.4855 11.0519 11.7414 10.9997 12 11Z" stroke="black" stroke-miterlimit="10"/>
<path d="M12 3.41L10.09 1.5H1.50003V20.59C1.4987 20.8412 1.5472 21.0902 1.64272 21.3225C1.73823 21.5548 1.87887 21.7659 2.0565 21.9435C2.23412 22.1212 2.44521 22.2618 2.67754 22.3573C2.90987 22.4528 3.15883 22.5013 3.41003 22.5H20.59C20.8412 22.5013 21.0902 22.4528 21.3225 22.3573C21.5548 22.2618 21.7659 22.1212 21.9436 21.9435C22.1212 21.7659 22.2618 21.5548 22.3573 21.3225C22.4529 21.0902 22.5014 20.8412 22.5 20.59V3.41H12Z" stroke="black" stroke-miterlimit="10"/>
<path d="M1.5 7.22998H22.5" stroke="black" stroke-miterlimit="10"/>
</svg>
