<svg width="24" height="24" viewBox="0 0 24 24" fill="none" xmlns="http://www.w3.org/2000/svg">
<path d="M11.9998 5.32C13.0547 5.32 13.9098 4.46486 13.9098 3.41C13.9098 2.35514 13.0547 1.5 11.9998 1.5C10.945 1.5 10.0898 2.35514 10.0898 3.41C10.0898 4.46486 10.945 5.32 11.9998 5.32Z" stroke="black" stroke-miterlimit="10"/>
<path d="M9.14014 8.18007C9.14014 7.42155 9.44146 6.6941 9.97781 6.15774C10.5142 5.62139 11.2416 5.32007 12.0001 5.32007C12.7587 5.32007 13.4861 5.62139 14.0225 6.15774C14.5588 6.6941 14.8601 7.42155 14.8601 8.18007" stroke="black" stroke-miterlimit="10"/>
<path d="M19.64 16.77C20.6948 16.77 21.55 15.9148 21.55 14.86C21.55 13.8051 20.6948 12.95 19.64 12.95C18.5851 12.95 17.73 13.8051 17.73 14.86C17.73 15.9148 18.5851 16.77 19.64 16.77Z" stroke="black" stroke-miterlimit="10"/>
<path d="M16.77 19.64C16.7687 19.2628 16.842 18.889 16.9858 18.5402C17.1296 18.1914 17.3409 17.8745 17.6077 17.6077C17.8745 17.3409 18.1914 17.1296 18.5402 16.9858C18.889 16.842 19.2628 16.7687 19.64 16.77C20.0165 16.77 20.3892 16.8443 20.7368 16.9887C21.0845 17.133 21.4002 17.3446 21.6659 17.6112C21.9316 17.8779 22.1421 18.1943 22.2852 18.5425C22.4283 18.8906 22.5014 19.2636 22.5 19.64" stroke="black" stroke-miterlimit="10"/>
<path d="M4.3602 16.77C5.41506 16.77 6.2702 15.9148 6.2702 14.86C6.2702 13.8051 5.41506 12.95 4.3602 12.95C3.30533 12.95 2.4502 13.8051 2.4502 14.86C2.4502 15.9148 3.30533 16.77 4.3602 16.77Z" stroke="black" stroke-miterlimit="10"/>
<path d="M1.50002 19.64C1.4987 19.2636 1.57171 18.8906 1.71485 18.5425C1.85798 18.1943 2.06844 17.8779 2.33415 17.6112C2.59985 17.3446 2.91558 17.133 3.26323 16.9887C3.61087 16.8443 3.98359 16.77 4.36002 16.77C4.73728 16.7687 5.11108 16.842 5.45988 16.9858C5.80868 17.1296 6.12559 17.3409 6.39236 17.6077C6.65913 17.8745 6.87048 18.1914 7.01424 18.5402C7.15801 18.889 7.23134 19.2628 7.23002 19.64" stroke="black" stroke-miterlimit="10"/>
<path d="M2.47021 11.3699C2.57535 9.77453 3.08017 8.23125 3.93821 6.88216C4.79624 5.53307 5.97991 4.42153 7.38021 3.6499" stroke="black" stroke-miterlimit="10"/>
<path d="M16.6201 3.6499C18.0204 4.42153 19.2041 5.53307 20.0621 6.88216C20.9202 8.23125 21.425 9.77453 21.5301 11.3699" stroke="black" stroke-miterlimit="10"/>
<path d="M8.39014 21.79C10.7037 22.737 13.2966 22.737 15.6101 21.79" stroke="black" stroke-miterlimit="10"/>
</svg>
