<svg xmlns="http://www.w3.org/2000/svg" viewBox="0 0 24 24" fill="currentColor" ><path d="M12 3a9 9 0 0 0-6.364 15.364A9 9 0 0 0 21 12a9 9 0 0 0-9-9h0zm0 16.5A7.5 7.5 0 0 1 6.697 6.697 7.5 7.5 0 0 1 19.5 12a7.5 7.5 0 0 1-7.5 7.5zM9.7 7.7a3.25 3.25 0 0 0-.95 2.3.75.75 0 1 0 1.5 0 1.74 1.74 0 0 1 .51-1.24 1.8 1.8 0 0 1 2.48 0 1.75 1.75 0 0 1-1.24 3 .76.76 0 0 0-.75.75v1a.75.75 0 1 0 1.5 0v-.34a3.19 3.19 0 0 0 1.55-.86 3.26 3.26 0 0 0 0-4.6 3.34 3.34 0 0 0-4.6-.01h0zm2.3 9.8a1.25 1.25 0 1 0 0-2.5 1.25 1.25 0 1 0 0 2.5z"/></svg>