<svg width="24" height="24" viewBox="0 0 24 24" fill="none" xmlns="http://www.w3.org/2000/svg">
<g >
<g id="question-circle">
<path  d="M12 3C10.22 3 8.47991 3.52784 6.99987 4.51677C5.51983 5.50571 4.36628 6.91131 3.68509 8.55585C3.0039 10.2004 2.82567 12.01 3.17294 13.7558C3.5202 15.5016 4.37737 17.1053 5.63604 18.364C6.89472 19.6226 8.49836 20.4798 10.2442 20.8271C11.99 21.1743 13.7996 20.9961 15.4442 20.3149C17.0887 19.6337 18.4943 18.4802 19.4832 17.0001C20.4722 15.5201 21 13.78 21 12C21 9.61305 20.0518 7.32387 18.364 5.63604C16.6761 3.94821 14.387 3 12 3V3ZM12 19.5C10.5166 19.5 9.0666 19.0601 7.83323 18.236C6.59986 17.4119 5.63856 16.2406 5.07091 14.8701C4.50325 13.4997 4.35473 11.9917 4.64411 10.5368C4.9335 9.08196 5.64781 7.74559 6.6967 6.6967C7.7456 5.64781 9.08197 4.9335 10.5368 4.64411C11.9917 4.35472 13.4997 4.50325 14.8701 5.0709C16.2406 5.63856 17.4119 6.59985 18.236 7.83322C19.0601 9.06659 19.5 10.5166 19.5 12C19.5 13.9891 18.7098 15.8968 17.3033 17.3033C15.8968 18.7098 13.9891 19.5 12 19.5Z" fill="currentColor"/>
<path  d="M9.7 7.69998C9.39833 8.00215 9.15916 8.36081 8.99615 8.75545C8.83314 9.15009 8.7495 9.57299 8.75 9.99998C8.75 10.1989 8.82902 10.3897 8.96967 10.5303C9.11032 10.671 9.30109 10.75 9.5 10.75C9.69891 10.75 9.88968 10.671 10.0303 10.5303C10.171 10.3897 10.25 10.1989 10.25 9.99998C10.2488 9.76983 10.2932 9.54173 10.3808 9.32888C10.4683 9.11603 10.5972 8.92266 10.76 8.75998C11.0946 8.44203 11.5385 8.26474 12 8.26474C12.4615 8.26474 12.9054 8.44203 13.24 8.75998C13.4893 9.00418 13.6598 9.31732 13.7298 9.65919C13.7998 10.0011 13.7659 10.356 13.6326 10.6785C13.4993 11.001 13.2727 11.2763 12.9817 11.469C12.6908 11.6617 12.3489 11.763 12 11.76C11.8019 11.7626 11.6126 11.8424 11.4725 11.9825C11.3324 12.1226 11.2526 12.3119 11.25 12.51V13.51C11.25 13.7089 11.329 13.8997 11.4697 14.0403C11.6103 14.181 11.8011 14.26 12 14.26C12.1989 14.26 12.3897 14.181 12.5303 14.0403C12.671 13.8997 12.75 13.7089 12.75 13.51V13.17C13.3375 13.0355 13.875 12.7373 14.3 12.31C14.9082 11.699 15.2497 10.8721 15.2497 10.01C15.2497 9.1479 14.9082 8.32092 14.3 7.70998C13.6806 7.11917 12.858 6.78873 12.002 6.78687C11.146 6.78501 10.322 7.11187 9.7 7.69998V7.69998Z" fill="currentColor"/>
<path  d="M12 17.5C12.6904 17.5 13.25 16.9404 13.25 16.25C13.25 15.5596 12.6904 15 12 15C11.3096 15 10.75 15.5596 10.75 16.25C10.75 16.9404 11.3096 17.5 12 17.5Z" fill="currentColor"/>
</g>
</g>
</svg>
