<svg width="24" height="24" viewBox="0 0 24 24" fill="none" xmlns="http://www.w3.org/2000/svg">
<path d="M1.47998 23.5V20.63C1.47998 18.8548 2.1845 17.1521 3.43883 15.8959C4.69316 14.6397 6.39476 13.9326 8.16998 13.93H13.91C14.1621 13.93 14.4118 13.9797 14.6447 14.0762C14.8777 14.1726 15.0893 14.3141 15.2676 14.4924C15.4459 14.6706 15.5873 14.8823 15.6838 15.1152C15.7803 15.3482 15.83 15.5979 15.83 15.85C15.8273 16.3575 15.6239 16.8433 15.2641 17.2012C14.9043 17.5591 14.4175 17.76 13.91 17.76H14.91L19.1 13.57C19.4716 13.2066 19.9702 13.0021 20.49 13C21.0204 13 21.5291 13.2107 21.9042 13.5858C22.2793 13.9609 22.49 14.4696 22.49 15C22.4915 15.2656 22.4401 15.5288 22.3388 15.7744C22.2375 16.0199 22.0883 16.2428 21.9 16.43L17.9 20.43C17.1828 21.1447 16.2124 21.5472 15.2 21.55H11C10.7491 21.5552 10.5018 21.6098 10.272 21.7106C10.0423 21.8114 9.83465 21.9565 9.661 22.1376C9.48734 22.3187 9.35106 22.5322 9.25995 22.766C9.16884 22.9997 9.12467 23.2492 9.12998 23.5" stroke="black" stroke-miterlimit="10"/>
<path d="M16.7902 7.03003H7.22021V13.94H16.7902V7.03003Z" stroke="black" stroke-miterlimit="10"/>
<path d="M11.9998 1.5L6.25977 7.03H17.7398L11.9998 1.5Z" stroke="black" stroke-miterlimit="10"/>
<path d="M12.95 11.0701H11.04V13.9401H12.95V11.0701Z" stroke="black" stroke-miterlimit="10"/>
</svg>
