<svg xmlns="http://www.w3.org/2000/svg" viewBox="0 0 24 24" fill="none" ><path d="M10.24 13.6a.8.8 0 0 1-.739-.494.8.8 0 0 1 .173-.872.8.8 0 0 1 .872-.173.8.8 0 0 1 .494.739.8.8 0 0 1-.234.566.8.8 0 0 1-.566.234h0zM20 12a8 8 0 0 1-4.938 7.391 8 8 0 0 1-8.718-1.734 8 8 0 0 1-1.734-8.718A8 8 0 0 1 12 4a8 8 0 0 1 8 8zm-4.27-1.33A1.12 1.12 0 0 0 15 11a5.13 5.13 0 0 0-2.77-.85l.56-2.53 1.79.4a.79.79 0 0 0 .228.565.79.79 0 0 0 .562.235.81.81 0 0 0 .8-.81.79.79 0 0 0-.611-.795.79.79 0 0 0-.899.445l-2-.44a.19.19 0 0 0-.22.14l-.62 2.79a5.18 5.18 0 0 0-2.77.85 1.07 1.07 0 0 0-.841-.323 1.07 1.07 0 0 0-.79.434 1.07 1.07 0 0 0-.179.883 1.07 1.07 0 0 0 .559.706 2.73 2.73 0 0 0 0 .5c0 1.69 1.91 3.07 4.26 3.07s4.26-1.38 4.26-3.07a2.16 2.16 0 0 0-.06-.51 1.07 1.07 0 0 0 .513-1.181 1.07 1.07 0 0 0-.993-.819l-.05-.02zm-2.22 3.75a2.82 2.82 0 0 1-3 0 .2.2 0 0 0-.27 0 .19.19 0 0 0-.062.14.19.19 0 0 0 .062.14 3.17 3.17 0 0 0 3.56 0 .19.19 0 0 0 .062-.14.19.19 0 0 0-.062-.14.2.2 0 0 0-.145-.062.2.2 0 0 0-.145.062h0zm.25-2.42a.8.8 0 0 0-.739.494.8.8 0 0 0 .173.872.8.8 0 0 0 .872.173.8.8 0 0 0 .494-.739.8.8 0 0 0-.8-.8z" fill="currentColor"/></svg>