<svg width="24" height="24" viewBox="0 0 24 24" fill="none" xmlns="http://www.w3.org/2000/svg">
<g >
<g id="refresh">
<path  d="M12 20.75C10.0772 20.75 8.23311 19.9862 6.87348 18.6265C5.51384 17.2669 4.75 15.4228 4.75 13.5C4.75 11.5772 5.51384 9.73311 6.87348 8.37348C8.23311 7.01384 10.0772 6.25 12 6.25H14.5C14.6989 6.25 14.8897 6.32902 15.0303 6.46967C15.171 6.61032 15.25 6.80109 15.25 7C15.25 7.19891 15.171 7.38968 15.0303 7.53033C14.8897 7.67098 14.6989 7.75 14.5 7.75H12C10.8628 7.75 9.75105 8.08723 8.80547 8.71905C7.85989 9.35087 7.1229 10.2489 6.68769 11.2996C6.25249 12.3502 6.13862 13.5064 6.36048 14.6218C6.58235 15.7372 7.12998 16.7617 7.93414 17.5659C8.73829 18.37 9.76284 18.9176 10.8782 19.1395C11.9936 19.3614 13.1498 19.2475 14.2004 18.8123C15.2511 18.3771 16.1491 17.6401 16.781 16.6945C17.4128 15.7489 17.75 14.6372 17.75 13.5C17.75 13.3011 17.829 13.1103 17.9697 12.9697C18.1103 12.829 18.3011 12.75 18.5 12.75C18.6989 12.75 18.8897 12.829 19.0303 12.9697C19.171 13.1103 19.25 13.3011 19.25 13.5C19.2474 15.422 18.4827 17.2645 17.1236 18.6236C15.7645 19.9827 13.922 20.7474 12 20.75Z" fill="currentColor"/>
<path  d="M12 10.75C11.9015 10.7504 11.8039 10.7312 11.7128 10.6934C11.6218 10.6557 11.5393 10.6001 11.47 10.53C11.3296 10.3893 11.2507 10.1987 11.2507 9.99997C11.2507 9.80122 11.3296 9.6106 11.47 9.46997L13.94 6.99997L11.47 4.52997C11.3963 4.46131 11.3372 4.37851 11.2963 4.28651C11.2553 4.19451 11.2332 4.0952 11.2314 3.99449C11.2297 3.89379 11.2482 3.79376 11.2859 3.70037C11.3236 3.60698 11.3798 3.52215 11.451 3.45093C11.5222 3.37971 11.607 3.32357 11.7004 3.28585C11.7938 3.24813 11.8939 3.2296 11.9946 3.23138C12.0953 3.23316 12.1946 3.2552 12.2866 3.29619C12.3786 3.33718 12.4614 3.39628 12.53 3.46997L15.53 6.46997C15.6705 6.6106 15.7494 6.80122 15.7494 6.99997C15.7494 7.19872 15.6705 7.38935 15.53 7.52997L12.53 10.53C12.4608 10.6001 12.3782 10.6557 12.2872 10.6934C12.1962 10.7312 12.0986 10.7504 12 10.75V10.75Z" fill="currentColor"/>
</g>
</g>
</svg>
