<svg width="14" height="14" viewBox="0 0 14 14" fill="none" xmlns="http://www.w3.org/2000/svg">
<path d="M4.69648 10.2423C4.83192 10.2458 4.9653 10.2087 5.07941 10.1356C5.19351 10.0626 5.28309 9.95699 5.33658 9.83251C5.39006 9.70803 5.405 9.57038 5.37945 9.43733C5.3539 9.30428 5.28904 9.18195 5.19326 9.08613L1.65261 5.57258L5.19326 2.05904C5.32012 1.93202 5.39137 1.75984 5.39137 1.58033C5.39137 1.40081 5.32012 1.22863 5.19326 1.10162C5.06624 0.974758 4.89406 0.903503 4.71455 0.903503C4.53503 0.903503 4.36285 0.974758 4.23584 1.10162L0.207449 5.09388C0.0805907 5.22089 0.00933647 5.39307 0.00933647 5.57258C0.00933647 5.7521 0.0805907 5.92428 0.207449 6.05129L4.23584 10.0436C4.295 10.1064 4.36639 10.1564 4.44561 10.1906C4.52483 10.2247 4.61021 10.2423 4.69648 10.2423Z" fill="#666666"/>
<path d="M13.3226 13.0964C13.5015 13.0941 13.6725 13.022 13.799 12.8954C13.9255 12.7689 13.9977 12.5979 14 12.419V5.57256C13.9977 5.39363 13.9255 5.22268 13.799 5.09614C13.6725 4.9696 13.5015 4.89748 13.3226 4.89514H0.67742C0.497757 4.89514 0.325452 4.96651 0.198411 5.09355C0.0713711 5.22059 0 5.3929 0 5.57256C0 5.75222 0.0713711 5.92453 0.198411 6.05157C0.325452 6.17861 0.497757 6.24998 0.67742 6.24998H12.6452V12.419C12.6475 12.5979 12.7196 12.7689 12.8462 12.8954C12.9727 13.022 13.1436 13.0941 13.3226 13.0964Z" fill="#666666"/>
</svg>
