<svg width="24" height="24" viewBox="0 0 24 24" fill="none" xmlns="http://www.w3.org/2000/svg">
<g>
<g id="reply">
<path  d="M14.55 15.59C14.4001 15.5939 14.2524 15.5528 14.1261 15.4719C13.9997 15.3911 13.9005 15.2742 13.8413 15.1364C13.7821 14.9985 13.7656 14.8461 13.7939 14.6988C13.8222 14.5515 13.894 14.4161 14 14.31L17.92 10.42L14 6.53001C13.8596 6.38939 13.7807 6.19876 13.7807 6.00001C13.7807 5.80126 13.8596 5.61064 14 5.47001C14.1406 5.32956 14.3313 5.25067 14.53 5.25067C14.7288 5.25067 14.9194 5.32956 15.06 5.47001L19.52 9.89001C19.6605 10.0306 19.7393 10.2213 19.7393 10.42C19.7393 10.6188 19.6605 10.8094 19.52 10.95L15.06 15.37C14.9945 15.4395 14.9155 15.4949 14.8278 15.5328C14.7401 15.5706 14.6455 15.5901 14.55 15.59V15.59Z" fill="currentColor"/>
<path  d="M5 18.75C4.80189 18.7474 4.61263 18.6675 4.47253 18.5274C4.33244 18.3874 4.25259 18.1981 4.25 18V10.42C4.25259 10.2219 4.33244 10.0326 4.47253 9.89252C4.61263 9.75242 4.80189 9.67257 5 9.66998H19C19.1989 9.66998 19.3897 9.749 19.5303 9.88965C19.671 10.0303 19.75 10.2211 19.75 10.42C19.75 10.6189 19.671 10.8097 19.5303 10.9503C19.3897 11.091 19.1989 11.17 19 11.17H5.75V18C5.74741 18.1981 5.66756 18.3874 5.52747 18.5274C5.38737 18.6675 5.19811 18.7474 5 18.75V18.75Z" fill="currentColor"/>
</g>
</g>
</svg>
