<svg xmlns="http://www.w3.org/2000/svg" viewBox="0 0 14 14" fill="#666" ><path d="M9.304 10.242c-.135.003-.269-.034-.383-.107s-.204-.179-.257-.303-.068-.262-.043-.395a.68.68 0 0 1 .186-.351l3.541-3.514-3.541-3.514c-.127-.127-.198-.299-.198-.479s.071-.352.198-.479.299-.198.479-.198.352.071.479.198l4.028 3.992a.68.68 0 0 1 0 .957l-4.028 3.992c-.059.063-.131.113-.21.147s-.165.052-.251.052h0z"/><path d="M.677 13.096c-.179-.002-.35-.074-.476-.201s-.199-.298-.201-.476V5.573c.002-.179.074-.35.201-.476s.297-.199.476-.201h12.645a.68.68 0 0 1 .677.677.68.68 0 0 1-.677.677H1.355v6.169c-.002.179-.074.35-.201.476s-.297.199-.476.201h0z"/></svg>