<svg xmlns="http://www.w3.org/2000/svg" viewBox="0 0 14 14" fill="#666" ><path d="M4.696 10.242c.135.003.269-.034.383-.107s.204-.179.257-.303.068-.262.043-.395a.68.68 0 0 0-.186-.351L1.653 5.573l3.541-3.514c.127-.127.198-.299.198-.479s-.071-.352-.198-.479-.299-.198-.479-.198-.352.071-.479.198L.207 5.094c-.127.127-.198.299-.198.479s.071.352.198.479l4.028 3.992c.059.063.131.113.21.147s.165.052.251.052z"/><path d="M13.323 13.096c.179-.002.35-.074.476-.201s.199-.298.201-.476V5.573c-.002-.179-.075-.35-.201-.476s-.297-.199-.476-.201H.677c-.18 0-.352.071-.479.198S0 5.393 0 5.573s.071.352.198.479.299.198.479.198h11.968v6.169c.002.179.074.35.201.476s.297.199.476.201z"/></svg>