<svg width="14" height="14" viewBox="0 0 14 14" fill="currentColor" xmlns="http://www.w3.org/2000/svg">
<path d="M9.30352 10.2423C9.16808 10.2458 9.0347 10.2087 8.92059 10.1356C8.80649 10.0626 8.71691 9.95699 8.66342 9.83251C8.60994 9.70803 8.595 9.57038 8.62055 9.43733C8.6461 9.30428 8.71096 9.18195 8.80674 9.08613L12.3474 5.57258L8.80674 2.05904C8.67988 1.93202 8.60863 1.75984 8.60863 1.58033C8.60863 1.40081 8.67988 1.22863 8.80674 1.10162C8.93376 0.974758 9.10594 0.903503 9.28545 0.903503C9.46497 0.903503 9.63715 0.974758 9.76416 1.10162L13.7926 5.09388C13.9194 5.22089 13.9907 5.39307 13.9907 5.57258C13.9907 5.7521 13.9194 5.92428 13.7926 6.05129L9.76416 10.0436C9.705 10.1064 9.63361 10.1564 9.55439 10.1906C9.47517 10.2247 9.38979 10.2423 9.30352 10.2423V10.2423Z" fill="#666666"/>
<path d="M0.677419 13.0964C0.498484 13.0941 0.327535 13.022 0.200998 12.8954C0.074461 12.7689 0.00233932 12.5979 0 12.419V5.57256C0.00233932 5.39363 0.074461 5.22268 0.200998 5.09614C0.327535 4.9696 0.498484 4.89748 0.677419 4.89514H13.3226C13.5022 4.89514 13.6745 4.96651 13.8016 5.09355C13.9286 5.22059 14 5.3929 14 5.57256C14 5.75222 13.9286 5.92453 13.8016 6.05157C13.6745 6.17861 13.5022 6.24998 13.3226 6.24998H1.35484V12.419C1.3525 12.5979 1.28038 12.7689 1.15384 12.8954C1.0273 13.022 0.856355 13.0941 0.677419 13.0964V13.0964Z" fill="#666666"/>
</svg>
