<svg width="24" height="24" viewBox="0 0 24 24" fill="none" xmlns="http://www.w3.org/2000/svg">
<g >
<g id="replay">
<path  d="M12 20.75C10.078 20.7474 8.23546 19.9827 6.8764 18.6236C5.51733 17.2645 4.75265 15.422 4.75 13.5C4.75 13.3011 4.82902 13.1103 4.96967 12.9697C5.11032 12.829 5.30109 12.75 5.5 12.75C5.69891 12.75 5.88968 12.829 6.03033 12.9697C6.17098 13.1103 6.25 13.3011 6.25 13.5C6.25 14.6372 6.58723 15.7489 7.21905 16.6945C7.85087 17.6401 8.74889 18.3771 9.79957 18.8123C10.8502 19.2475 12.0064 19.3614 13.1218 19.1395C14.2372 18.9176 15.2617 18.37 16.0659 17.5659C16.87 16.7617 17.4176 15.7372 17.6395 14.6218C17.8614 13.5064 17.7475 12.3502 17.3123 11.2996C16.8771 10.2489 16.1401 9.35087 15.1945 8.71905C14.2489 8.08723 13.1372 7.75 12 7.75H9.5C9.30109 7.75 9.11032 7.67098 8.96967 7.53033C8.82902 7.38968 8.75 7.19891 8.75 7C8.75 6.80109 8.82902 6.61032 8.96967 6.46967C9.11032 6.32902 9.30109 6.25 9.5 6.25H12C13.9228 6.25 15.7669 7.01384 17.1265 8.37348C18.4862 9.73311 19.25 11.5772 19.25 13.5C19.25 15.4228 18.4862 17.2669 17.1265 18.6265C15.7669 19.9862 13.9228 20.75 12 20.75V20.75Z" fill="currentColor"/>
<path  d="M12 10.75C11.9015 10.7504 11.8038 10.7312 11.7128 10.6934C11.6218 10.6557 11.5392 10.6001 11.47 10.53L8.47 7.52997C8.32955 7.38935 8.25066 7.19872 8.25066 6.99997C8.25066 6.80122 8.32955 6.6106 8.47 6.46997L11.47 3.46997C11.5387 3.39628 11.6215 3.33718 11.7135 3.29619C11.8055 3.2552 11.9048 3.23316 12.0055 3.23138C12.1062 3.2296 12.2062 3.24813 12.2996 3.28585C12.393 3.32357 12.4778 3.37971 12.549 3.45093C12.6203 3.52215 12.6764 3.60698 12.7141 3.70037C12.7518 3.79376 12.7704 3.89379 12.7686 3.99449C12.7668 4.0952 12.7448 4.19451 12.7038 4.28651C12.6628 4.37851 12.6037 4.46131 12.53 4.52997L10.06 6.99997L12.53 9.46997C12.6705 9.6106 12.7493 9.80122 12.7493 9.99997C12.7493 10.1987 12.6705 10.3893 12.53 10.53C12.4608 10.6001 12.3782 10.6557 12.2872 10.6934C12.1962 10.7312 12.0985 10.7504 12 10.75V10.75Z" fill="currentColor"/>
</g>
</g>
</svg>
