<svg xmlns="http://www.w3.org/2000/svg" viewBox="0 0 14 13" fill="#666" ><path d="M7.687 10.242c.135.003.269-.034.383-.107s.204-.179.257-.303.068-.262.043-.395a.67.67 0 0 0-.186-.351L4.643 5.573l3.541-3.514c.127-.127.198-.299.198-.479s-.071-.352-.198-.479-.299-.198-.479-.198-.352.071-.479.198L3.198 5.094c-.127.127-.198.299-.198.479s.071.352.198.479l4.028 3.992a.63.63 0 0 0 .21.147c.079.034.165.052.251.052zm-3 0c.135.003.269-.034.383-.107s.204-.179.257-.303.068-.262.043-.395a.67.67 0 0 0-.186-.351L1.643 5.573l3.541-3.514c.127-.127.198-.299.198-.479s-.071-.352-.198-.479-.299-.198-.479-.198-.352.071-.479.198L.198 5.094C.071 5.221 0 5.393 0 5.573s.071.352.198.479l4.028 3.992a.63.63 0 0 0 .21.147c.079.034.165.052.251.052h0z"/><path d="M13.516 13c.128-.002.25-.073.34-.196s.142-.29.144-.465V5.661c-.002-.175-.053-.341-.144-.465s-.213-.194-.34-.196H4.484a.43.43 0 0 0-.342.194.8.8 0 0 0-.142.467.8.8 0 0 0 .142.467.43.43 0 0 0 .342.194h8.548v6.018c.002.175.053.341.144.465s.212.194.34.196h0z"/></svg>