<svg width="14" height="13" viewBox="0 0 14 13" fill="none" xmlns="http://www.w3.org/2000/svg">
<path d="M7.68672 10.2423C7.82215 10.2458 7.95554 10.2087 8.06964 10.1356C8.18374 10.0626 8.27333 9.95699 8.32681 9.83251C8.3803 9.70803 8.39523 9.57038 8.36968 9.43733C8.34413 9.30428 8.27928 9.18195 8.18349 9.08613L4.64285 5.57258L8.18349 2.05904C8.31035 1.93202 8.3816 1.75984 8.3816 1.58033C8.3816 1.40081 8.31035 1.22863 8.18349 1.10162C8.05647 0.974758 7.8843 0.903503 7.70478 0.903503C7.52526 0.903503 7.35309 0.974758 7.22607 1.10162L3.19768 5.09388C3.07083 5.22089 2.99957 5.39307 2.99957 5.57258C2.99957 5.7521 3.07083 5.92428 3.19768 6.05129L7.22607 10.0436C7.28523 10.1064 7.35662 10.1564 7.43584 10.1906C7.51506 10.2247 7.60044 10.2423 7.68672 10.2423Z" fill="#666666"/>
<path d="M4.68672 10.2423C4.82215 10.2458 4.95554 10.2087 5.06964 10.1356C5.18374 10.0626 5.27333 9.95699 5.32681 9.83251C5.3803 9.70803 5.39523 9.57038 5.36968 9.43733C5.34413 9.30428 5.27928 9.18195 5.18349 9.08613L1.64285 5.57258L5.18349 2.05904C5.31035 1.93202 5.3816 1.75984 5.3816 1.58033C5.3816 1.40081 5.31035 1.22863 5.18349 1.10162C5.05647 0.974758 4.8843 0.903503 4.70478 0.903503C4.52526 0.903503 4.35309 0.974758 4.22607 1.10162L0.197684 5.09388C0.0708253 5.22089 -0.000429225 5.39307 -0.000429225 5.57258C-0.000429225 5.7521 0.0708253 5.92428 0.197684 6.05129L4.22607 10.0436C4.28523 10.1064 4.35662 10.1564 4.43584 10.1906C4.51506 10.2247 4.60044 10.2423 4.68672 10.2423V10.2423Z" fill="#666666"/>
<path d="M13.5161 13C13.6439 12.9977 13.766 12.9274 13.8564 12.8039C13.9468 12.6805 13.9983 12.5138 14 12.3392V5.66079C13.9983 5.48625 13.9468 5.3195 13.8564 5.19607C13.766 5.07263 13.6439 5.00228 13.5161 5H4.48387C4.35554 5 4.23247 5.06962 4.14172 5.19354C4.05098 5.31746 4 5.48554 4 5.66079C4 5.83605 4.05098 6.00412 4.14172 6.12804C4.23247 6.25197 4.35554 6.32159 4.48387 6.32159H13.0323V12.3392C13.0339 12.5138 13.0854 12.6805 13.1758 12.8039C13.2662 12.9274 13.3883 12.9977 13.5161 13V13Z" fill="#666666"/>
</svg>
