<svg width="24" height="24" viewBox="0 0 24 24" fill="none" xmlns="http://www.w3.org/2000/svg">
<path d="M14.8602 16.78C19.0797 16.78 22.5002 13.3595 22.5002 9.14C22.5002 4.92054 19.0797 1.5 14.8602 1.5C10.6408 1.5 7.22021 4.92054 7.22021 9.14C7.22021 13.3595 10.6408 16.78 14.8602 16.78Z" stroke="black" stroke-miterlimit="10"/>
<path d="M1.5 22.5001L9.14 14.8601" stroke="black" stroke-miterlimit="10"/>
<path d="M14.86 11.0401C16.4395 11.0401 17.72 9.7596 17.72 8.18007C17.72 6.60053 16.4395 5.32007 14.86 5.32007C13.2805 5.32007 12 6.60053 12 8.18007C12 9.7596 13.2805 11.0401 14.86 11.0401Z" stroke="black" stroke-miterlimit="10"/>
<path d="M19.5799 15.14C19.4222 14.0015 18.858 12.9586 17.9914 12.2037C17.1247 11.4488 16.0142 11.033 14.8649 11.033C13.7156 11.033 12.6051 11.4488 11.7384 12.2037C10.8718 12.9586 10.3076 14.0015 10.1499 15.14" stroke="black" stroke-miterlimit="10"/>
</svg>
