<svg width="24" height="24" viewBox="0 0 24 24" fill="none" xmlns="http://www.w3.org/2000/svg">
<g >
<g id="save">
<path  d="M17 20.75H7C6.27065 20.75 5.57118 20.4603 5.05546 19.9445C4.53973 19.4288 4.25 18.7293 4.25 18V6C4.25 5.27065 4.53973 4.57118 5.05546 4.05546C5.57118 3.53973 6.27065 3.25 7 3.25H14.5C14.6988 3.25018 14.8895 3.32931 15.03 3.47L19.53 8C19.6707 8.14052 19.7498 8.33115 19.75 8.53V18C19.75 18.7293 19.4603 19.4288 18.9445 19.9445C18.4288 20.4603 17.7293 20.75 17 20.75ZM7 4.75C6.66848 4.75 6.35054 4.8817 6.11612 5.11612C5.8817 5.35054 5.75 5.66848 5.75 6V18C5.75 18.3315 5.8817 18.6495 6.11612 18.8839C6.35054 19.1183 6.66848 19.25 7 19.25H17C17.3315 19.25 17.6495 19.1183 17.8839 18.8839C18.1183 18.6495 18.25 18.3315 18.25 18V8.81L14.19 4.75H7Z" fill="currentColor"/>
<path  d="M16.75 20H15.25V13.75H8.75V20H7.25V13.5C7.25 13.1685 7.3817 12.8505 7.61612 12.6161C7.85054 12.3817 8.16848 12.25 8.5 12.25H15.5C15.8315 12.25 16.1495 12.3817 16.3839 12.6161C16.6183 12.8505 16.75 13.1685 16.75 13.5V20Z" fill="currentColor"/>
<path  d="M12.47 8.75H8.52999C8.36059 8.74869 8.1931 8.71403 8.03709 8.64799C7.88108 8.58195 7.7396 8.48582 7.62074 8.36511C7.50188 8.24439 7.40796 8.10144 7.34435 7.94443C7.28074 7.78741 7.24867 7.61941 7.24999 7.45V4H8.74999V7.25H12.25V4H13.75V7.45C13.7513 7.61941 13.7192 7.78741 13.6556 7.94443C13.592 8.10144 13.4981 8.24439 13.3792 8.36511C13.2604 8.48582 13.1189 8.58195 12.9629 8.64799C12.8069 8.71403 12.6394 8.74869 12.47 8.75Z" fill="currentColor"/>
</g>
</g>
</svg>
