<svg xmlns="http://www.w3.org/2000/svg" viewBox="0 0 24 24" fill="currentColor" ><path d="M17 20.75H7A2.75 2.75 0 0 1 4.25 18V6A2.75 2.75 0 0 1 7 3.25h7.5a.75.75 0 0 1 .53.22L19.53 8a.75.75 0 0 1 .22.53V18A2.75 2.75 0 0 1 17 20.75zm-10-16A1.25 1.25 0 0 0 5.75 6v12A1.25 1.25 0 0 0 7 19.25h10A1.25 1.25 0 0 0 18.25 18V8.81l-4.06-4.06H7z"/><path d="M16.75 20h-1.5v-6.25h-6.5V20h-1.5v-6.5a1.25 1.25 0 0 1 1.25-1.25h7a1.25 1.25 0 0 1 1.25 1.25V20zM12.47 8.75H8.53a1.29 1.29 0 0 1-1.28-1.3V4h1.5v3.25h3.5V4h1.5v3.45a1.29 1.29 0 0 1-1.28 1.3z"/></svg>