<svg width="24" height="24" viewBox="0 0 24 24" fill="none" xmlns="http://www.w3.org/2000/svg">
<g >
<g id="search-minus">
<path  d="M10.77 18.3C9.2807 18.3 7.82485 17.8584 6.58655 17.031C5.34825 16.2036 4.38311 15.0275 3.81318 13.6516C3.24325 12.2757 3.09413 10.7616 3.38468 9.30096C3.67523 7.84029 4.39239 6.49857 5.44548 5.44548C6.49857 4.39239 7.84029 3.67523 9.30096 3.38468C10.7616 3.09413 12.2757 3.24325 13.6516 3.81318C15.0275 4.38311 16.2036 5.34825 17.031 6.58655C17.8584 7.82485 18.3 9.2807 18.3 10.77C18.2973 12.7663 17.5032 14.68 16.0916 16.0916C14.68 17.5032 12.7663 18.2973 10.77 18.3V18.3ZM10.77 4.74999C9.58331 4.74999 8.42327 5.10189 7.43657 5.76118C6.44988 6.42046 5.68084 7.35754 5.22672 8.45389C4.77259 9.55025 4.65377 10.7566 4.88528 11.9205C5.11679 13.0844 5.68824 14.1535 6.52735 14.9926C7.36647 15.8317 8.43556 16.4032 9.59945 16.6347C10.7633 16.8662 11.9697 16.7474 13.0661 16.2933C14.1625 15.8391 15.0995 15.0701 15.7588 14.0834C16.4181 13.0967 16.77 11.9367 16.77 10.75C16.77 9.15869 16.1379 7.63257 15.0126 6.50735C13.8874 5.38213 12.3613 4.74999 10.77 4.74999Z" fill="currentColor"/>
<path  d="M20 20.75C19.9015 20.7504 19.8038 20.7312 19.7128 20.6934C19.6218 20.6557 19.5392 20.6001 19.47 20.53L15.34 16.4C15.2075 16.2578 15.1354 16.0697 15.1388 15.8754C15.1422 15.6811 15.221 15.4958 15.3584 15.3583C15.4958 15.2209 15.6812 15.1422 15.8755 15.1388C16.0698 15.1354 16.2578 15.2075 16.4 15.34L20.53 19.47C20.6704 19.6106 20.7493 19.8012 20.7493 20C20.7493 20.1987 20.6704 20.3893 20.53 20.53C20.4608 20.6001 20.3782 20.6557 20.2872 20.6934C20.1962 20.7312 20.0985 20.7504 20 20.75V20.75Z" fill="currentColor"/>
<path  d="M13.25 11.5H8.25C8.05109 11.5 7.86032 11.421 7.71967 11.2803C7.57902 11.1397 7.5 10.9489 7.5 10.75C7.5 10.5511 7.57902 10.3603 7.71967 10.2197C7.86032 10.079 8.05109 10 8.25 10H13.25C13.4489 10 13.6397 10.079 13.7803 10.2197C13.921 10.3603 14 10.5511 14 10.75C14 10.9489 13.921 11.1397 13.7803 11.2803C13.6397 11.421 13.4489 11.5 13.25 11.5V11.5Z" fill="currentColor"/>
</g>
</g>
</svg>
