<svg width="24" height="24" viewBox="0 0 24 24" fill="none" xmlns="http://www.w3.org/2000/svg">
<g >
<g id="send">
<path  d="M20.33 3.67002C20.1408 3.48219 19.9035 3.35014 19.6442 3.28839C19.3849 3.22665 19.1135 3.23759 18.86 3.32002L4.23 8.20002C3.95867 8.28599 3.71891 8.45045 3.54099 8.67261C3.36307 8.89478 3.25498 9.16468 3.23037 9.44824C3.20576 9.7318 3.26573 10.0163 3.40271 10.2658C3.5397 10.5153 3.74754 10.7186 4 10.85L10.07 13.85L13.07 19.94C13.1906 20.1784 13.3751 20.3785 13.6029 20.518C13.8307 20.6576 14.0929 20.731 14.36 20.73H14.46C14.7461 20.7089 15.0192 20.6023 15.2439 20.424C15.4686 20.2456 15.6345 20.0039 15.72 19.73L20.67 5.14002C20.7584 4.88795 20.7734 4.61596 20.7132 4.35572C20.653 4.09547 20.5201 3.85768 20.33 3.67002V3.67002ZM4.85 9.58002L17.62 5.32002L10.53 12.41L4.85 9.58002ZM14.43 19.15L11.59 13.47L18.68 6.38002L14.43 19.15Z" fill="currentColor"/>
</g>
</g>
</svg>
