<svg width="24" height="24" viewBox="0 0 24 24" fill="none" xmlns="http://www.w3.org/2000/svg">
<path d="M17.72 11.0499C17.72 7.88535 15.1568 5.31995 11.995 5.31995C8.83319 5.31995 6.27002 7.88535 6.27002 11.0499V14.8599C6.27002 18.0245 8.83319 20.5899 11.995 20.5899C15.1568 20.5899 17.72 18.0245 17.72 14.8599V11.0499Z" stroke="black" stroke-miterlimit="10"/>
<path d="M17.73 9.14001H19.64C20.3985 9.14001 21.126 9.44133 21.6623 9.97769C22.1987 10.514 22.5 11.2415 22.5 12V13.91C22.5 14.6685 22.1987 15.396 21.6623 15.9323C21.126 16.4687 20.3985 16.77 19.64 16.77H17.73V9.14001Z" stroke="black" stroke-miterlimit="10"/>
<path d="M6.27002 16.77H4.36002C3.6015 16.77 2.87405 16.4687 2.33769 15.9323C1.80134 15.396 1.50002 14.6685 1.50002 13.91L1.50002 12C1.50002 11.6244 1.574 11.2525 1.71772 10.9055C1.86145 10.5586 2.07212 10.2433 2.33769 9.97769C2.60327 9.71212 2.91855 9.50145 3.26554 9.35772C3.61254 9.214 3.98444 9.14002 4.36002 9.14002H6.27002L6.27002 16.77Z" stroke="black" stroke-miterlimit="10"/>
<path d="M4.35986 9.14C4.35986 7.11375 5.16479 5.17048 6.59757 3.7377C8.03035 2.30493 9.97361 1.5 11.9999 1.5C14.0261 1.5 15.9694 2.30493 17.4022 3.7377C18.8349 5.17048 19.6399 7.11375 19.6399 9.14" stroke="black" stroke-miterlimit="10"/>
<path d="M19.6399 16.77V17.77C19.6372 19.036 19.1324 20.2493 18.2363 21.1435C17.3402 22.0378 16.1259 22.54 14.8599 22.54" stroke="black" stroke-miterlimit="10"/>
</svg>
