<svg width="24" height="24" viewBox="0 0 24 24" fill="none" xmlns="http://www.w3.org/2000/svg">
<g >
<g id="server">
<path  d="M20.5 8.5V5.5C20.5 5.23478 20.3946 4.98043 20.2071 4.79289C20.0196 4.60536 19.7652 4.5 19.5 4.5H4.5C4.23478 4.5 3.98043 4.60536 3.79289 4.79289C3.60536 4.98043 3.5 5.23478 3.5 5.5V8.5C3.5 8.76522 3.60536 9.01957 3.79289 9.20711C3.98043 9.39464 4.23478 9.5 4.5 9.5C4.23478 9.5 3.98043 9.60536 3.79289 9.79289C3.60536 9.98043 3.5 10.2348 3.5 10.5V13.5C3.5 13.7652 3.60536 14.0196 3.79289 14.2071C3.98043 14.3946 4.23478 14.5 4.5 14.5C4.23478 14.5 3.98043 14.6054 3.79289 14.7929C3.60536 14.9804 3.5 15.2348 3.5 15.5V18.5C3.5 18.7652 3.60536 19.0196 3.79289 19.2071C3.98043 19.3946 4.23478 19.5 4.5 19.5H19.5C19.7652 19.5 20.0196 19.3946 20.2071 19.2071C20.3946 19.0196 20.5 18.7652 20.5 18.5V15.5C20.5 15.2348 20.3946 14.9804 20.2071 14.7929C20.0196 14.6054 19.7652 14.5 19.5 14.5C19.7652 14.5 20.0196 14.3946 20.2071 14.2071C20.3946 14.0196 20.5 13.7652 20.5 13.5V10.5C20.5 10.2348 20.3946 9.98043 20.2071 9.79289C20.0196 9.60536 19.7652 9.5 19.5 9.5C19.7652 9.5 20.0196 9.39464 20.2071 9.20711C20.3946 9.01957 20.5 8.76522 20.5 8.5ZM19.5 18.5H4.5V15.5H19.5V18.5ZM19.5 13.5H4.5V10.5H19.5V13.5ZM19.5 8.5H4.5V5.5H19.5V8.5Z" fill="currentColor"/>
<path  d="M6.25 7.75C6.66421 7.75 7 7.41421 7 7C7 6.58579 6.66421 6.25 6.25 6.25C5.83579 6.25 5.5 6.58579 5.5 7C5.5 7.41421 5.83579 7.75 6.25 7.75Z" fill="currentColor"/>
<path  d="M8.75 7.75C9.16421 7.75 9.5 7.41421 9.5 7C9.5 6.58579 9.16421 6.25 8.75 6.25C8.33579 6.25 8 6.58579 8 7C8 7.41421 8.33579 7.75 8.75 7.75Z" fill="currentColor"/>
<path  d="M6.25 12.75C6.66421 12.75 7 12.4142 7 12C7 11.5858 6.66421 11.25 6.25 11.25C5.83579 11.25 5.5 11.5858 5.5 12C5.5 12.4142 5.83579 12.75 6.25 12.75Z" fill="currentColor"/>
<path  d="M8.75 12.75C9.16421 12.75 9.5 12.4142 9.5 12C9.5 11.5858 9.16421 11.25 8.75 11.25C8.33579 11.25 8 11.5858 8 12C8 12.4142 8.33579 12.75 8.75 12.75Z" fill="currentColor"/>
<path  d="M6.25 17.75C6.66421 17.75 7 17.4142 7 17C7 16.5858 6.66421 16.25 6.25 16.25C5.83579 16.25 5.5 16.5858 5.5 17C5.5 17.4142 5.83579 17.75 6.25 17.75Z" fill="currentColor"/>
<path  d="M8.75 17.75C9.16421 17.75 9.5 17.4142 9.5 17C9.5 16.5858 9.16421 16.25 8.75 16.25C8.33579 16.25 8 16.5858 8 17C8 17.4142 8.33579 17.75 8.75 17.75Z" fill="currentColor"/>
</g>
</g>
</svg>
