<svg width="24" height="24" viewBox="0 0 24 24" fill="none" xmlns="http://www.w3.org/2000/svg">
<g >
<g id="share-alt">
<path  d="M17.5 14.25C16.9877 14.2519 16.4831 14.3752 16.0276 14.6099C15.5722 14.8445 15.1789 15.1839 14.88 15.6L9.59 13C9.6931 12.6766 9.74704 12.3395 9.75 12C9.74704 11.6606 9.6931 11.3235 9.59 11L14.88 8.40002C15.3362 9.01888 15.9982 9.45473 16.7469 9.62921C17.4957 9.80369 18.2821 9.70536 18.9649 9.35191C19.6477 8.99845 20.182 8.41305 20.4717 7.70093C20.7615 6.9888 20.7878 6.19667 20.5458 5.46691C20.3038 4.73716 19.8095 4.11764 19.1517 3.71974C18.4938 3.32183 17.7156 3.17162 16.9569 3.29611C16.1982 3.42061 15.5089 3.81164 15.0127 4.39892C14.5165 4.9862 14.2461 5.73121 14.25 6.50002C14.2524 6.66781 14.2691 6.83509 14.3 7.00002L8.83 9.75002C8.53061 9.43293 8.16938 9.18058 7.76862 9.00859C7.36787 8.83659 6.9361 8.74859 6.5 8.75002C5.63805 8.75002 4.8114 9.09243 4.2019 9.70193C3.59241 10.3114 3.25 11.1381 3.25 12C3.25 12.862 3.59241 13.6886 4.2019 14.2981C4.8114 14.9076 5.63805 15.25 6.5 15.25C6.9361 15.2515 7.36787 15.1635 7.76862 14.9915C8.16938 14.8195 8.53061 14.5671 8.83 14.25L14.3 17C14.2685 17.1682 14.2518 17.3389 14.25 17.51C14.25 18.1528 14.4406 18.7812 14.7977 19.3156C15.1548 19.8501 15.6624 20.2666 16.2563 20.5126C16.8501 20.7586 17.5036 20.823 18.134 20.6976C18.7645 20.5722 19.3436 20.2626 19.7981 19.8081C20.2526 19.3536 20.5621 18.7745 20.6876 18.1441C20.813 17.5136 20.7486 16.8602 20.5026 16.2663C20.2566 15.6724 19.8401 15.1649 19.3056 14.8077C18.7711 14.4506 18.1428 14.26 17.5 14.26V14.25ZM17.5 4.75002C17.8461 4.75002 18.1845 4.85266 18.4722 5.04495C18.76 5.23725 18.9843 5.51056 19.1168 5.83033C19.2492 6.1501 19.2839 6.50197 19.2164 6.84143C19.1488 7.1809 18.9822 7.49272 18.7374 7.73746C18.4927 7.9822 18.1809 8.14888 17.8414 8.2164C17.5019 8.28392 17.1501 8.24927 16.8303 8.11681C16.5105 7.98436 16.2372 7.76006 16.0449 7.47227C15.8526 7.18449 15.75 6.84614 15.75 6.50002C15.7526 6.03671 15.9378 5.59311 16.2655 5.26549C16.5931 4.93787 17.0367 4.75265 17.5 4.75002V4.75002ZM6.5 13.75C6.15388 13.75 5.81554 13.6474 5.52775 13.4551C5.23997 13.2628 5.01566 12.9895 4.88321 12.6697C4.75076 12.3499 4.7161 11.9981 4.78363 11.6586C4.85115 11.3192 5.01782 11.0073 5.26256 10.7626C5.50731 10.5178 5.81912 10.3512 6.15859 10.2837C6.49806 10.2161 6.84993 10.2508 7.1697 10.3832C7.48947 10.5157 7.76278 10.74 7.95507 11.0278C8.14736 11.3156 8.25 11.6539 8.25 12C8.24737 12.4633 8.06216 12.9069 7.73454 13.2346C7.40691 13.5622 6.96332 13.7474 6.5 13.75V13.75ZM17.5 19.25C17.1539 19.25 16.8155 19.1474 16.5278 18.9551C16.24 18.7628 16.0157 18.4895 15.8832 18.1697C15.7508 17.85 15.7161 17.4981 15.7836 17.1586C15.8511 16.8192 16.0178 16.5073 16.2626 16.2626C16.5073 16.0178 16.8191 15.8512 17.1586 15.7837C17.4981 15.7161 17.8499 15.7508 18.1697 15.8832C18.4895 16.0157 18.7628 16.24 18.9551 16.5278C19.1474 16.8156 19.25 17.1539 19.25 17.5C19.2474 17.9633 19.0622 18.4069 18.7345 18.7346C18.4069 19.0622 17.9633 19.2474 17.5 19.25Z" fill="currentColor"/>
</g>
</g>
</svg>
