<svg width="24" height="24" viewBox="0 0 24 24" fill="none" xmlns="http://www.w3.org/2000/svg">
<g >
<g id="shield">
<path  d="M12 20.75C11.9045 20.7488 11.8099 20.7319 11.72 20.7C9.00413 19.495 6.73212 17.4724 5.22092 14.9143C3.70971 12.3562 3.03467 9.39015 3.28997 6.42999C3.29871 6.26297 3.36378 6.10384 3.47455 5.97853C3.58533 5.85323 3.73528 5.76915 3.89997 5.73999C6.6038 5.33069 9.23017 4.5148 11.69 3.31999C11.7873 3.2758 11.893 3.25293 12 3.25293C12.1069 3.25293 12.2126 3.2758 12.31 3.31999C14.7698 4.5148 17.3961 5.33069 20.1 5.73999C20.2647 5.76915 20.4146 5.85323 20.5254 5.97853C20.6362 6.10384 20.7012 6.26297 20.71 6.42999C20.9653 9.39015 20.2902 12.3562 18.779 14.9143C17.2678 17.4724 14.9958 19.495 12.28 20.7C12.19 20.7319 12.0954 20.7488 12 20.75V20.75ZM4.75997 7.10999C4.61102 9.61694 5.22247 12.1105 6.5143 14.2641C7.80613 16.4177 9.71812 18.1311 12 19.18C14.2818 18.1311 16.1938 16.4177 17.4856 14.2641C18.7775 12.1105 19.3889 9.61694 19.24 7.10999C16.7325 6.68438 14.2961 5.91373 12 4.81999C9.70386 5.91373 7.26741 6.68438 4.75997 7.10999V7.10999Z" fill="currentColor"/>
</g>
</g>
</svg>
