<svg width="24" height="24" viewBox="0 0 24 24" fill="none" xmlns="http://www.w3.org/2000/svg">
<path d="M12 18.67C10.6357 18.2737 9.437 17.4452 8.58402 16.3091C7.73104 15.173 7.26993 13.7907 7.27002 12.37V7.65002L12 6.27002L16.81 7.65002V12.35C16.8062 13.7836 16.3343 15.1768 15.4661 16.3176C14.5978 17.4584 13.3808 18.2844 12 18.67Z" stroke="black" stroke-miterlimit="10"/>
<path d="M21.5501 12.95C22.0748 12.95 22.5001 12.5247 22.5001 12C22.5001 11.4754 22.0748 11.05 21.5501 11.05C21.0254 11.05 20.6001 11.4754 20.6001 12C20.6001 12.5247 21.0254 12.95 21.5501 12.95Z" stroke="black" stroke-miterlimit="10"/>
<path d="M2.45 12.95C2.97467 12.95 3.4 12.5247 3.4 12C3.4 11.4754 2.97467 11.05 2.45 11.05C1.92533 11.05 1.5 11.4754 1.5 12C1.5 12.5247 1.92533 12.95 2.45 12.95Z" stroke="black" stroke-miterlimit="10"/>
<path d="M21.5501 3.4C22.0748 3.4 22.5001 2.97467 22.5001 2.45C22.5001 1.92533 22.0748 1.5 21.5501 1.5C21.0254 1.5 20.6001 1.92533 20.6001 2.45C20.6001 2.97467 21.0254 3.4 21.5501 3.4Z" stroke="black" stroke-miterlimit="10"/>
<path d="M2.45 3.4C2.97467 3.4 3.4 2.97467 3.4 2.45C3.4 1.92533 2.97467 1.5 2.45 1.5C1.92533 1.5 1.5 1.92533 1.5 2.45C1.5 2.97467 1.92533 3.4 2.45 3.4Z" stroke="black" stroke-miterlimit="10"/>
<path d="M21.5501 22.5C22.0748 22.5 22.5001 22.0746 22.5001 21.55C22.5001 21.0253 22.0748 20.6 21.5501 20.6C21.0254 20.6 20.6001 21.0253 20.6001 21.55C20.6001 22.0746 21.0254 22.5 21.5501 22.5Z" stroke="black" stroke-miterlimit="10"/>
<path d="M2.45 22.5C2.97467 22.5 3.4 22.0746 3.4 21.55C3.4 21.0253 2.97467 20.6 2.45 20.6C1.92533 20.6 1.5 21.0253 1.5 21.55C1.5 22.0746 1.92533 22.5 2.45 22.5Z" stroke="black" stroke-miterlimit="10"/>
<path d="M3.41016 12H7.23016" stroke="black" stroke-miterlimit="10"/>
<path d="M20.59 12H16.77" stroke="black" stroke-miterlimit="10"/>
<path d="M14.8799 7.10996V2.45996H20.5899" stroke="black" stroke-miterlimit="10"/>
<path d="M9.14016 7.22996V2.45996H3.41016" stroke="black" stroke-miterlimit="10"/>
<path d="M9.14016 16.99V21.86H3.41016" stroke="black" stroke-miterlimit="10"/>
<path d="M14.8599 16.97V21.86H20.5899" stroke="black" stroke-miterlimit="10"/>
</svg>
