<svg viewBox="0 0 14 14" fill="none" xmlns="http://www.w3.org/2000/svg">
<path d="M11.3749 6.58344C11.9502 6.58344 12.4165 6.11711 12.4165 5.54186C12.4165 4.96662 11.9501 4.50029 11.3749 4.50029C10.7996 4.50029 10.3332 4.96666 10.3332 5.54195V6.58344H11.3749ZM8.45817 6.58344C9.03347 6.58344 9.49984 6.11707 9.49984 5.54177V2.62529C9.49984 2.04999 9.03347 1.58362 8.45817 1.58362C7.88287 1.58362 7.4165 2.04999 7.4165 2.62528V5.54177C7.4165 6.11707 7.88287 6.58344 8.45817 6.58344Z" fill="#2EB67D"/>
<path d="M2.62483 7.41693C2.04958 7.41693 1.58325 7.88326 1.58325 8.4585C1.58325 9.03375 2.04963 9.50008 2.62487 9.50008C3.20017 9.50008 3.66659 9.03371 3.66659 8.45841V7.41693H2.62483ZM5.54159 7.41693C4.96629 7.41693 4.49992 7.8833 4.49992 8.45859V11.3751C4.49992 11.9504 4.96629 12.4167 5.54159 12.4167C6.11688 12.4167 6.58325 11.9504 6.58325 11.3751V8.45859C6.58325 7.8833 6.11688 7.41693 5.54159 7.41693Z" fill="#E01E5A"/>
<path d="M7.41668 11.3753C7.41668 11.9505 7.88301 12.4169 8.45826 12.4169C9.03351 12.4169 9.49984 11.9505 9.49984 11.3752C9.49984 10.8 9.03347 10.3335 8.45817 10.3335L7.41668 10.3335L7.41668 11.3753ZM7.41668 8.45854C7.41668 9.03383 7.88305 9.5002 8.45835 9.5002L11.3748 9.5002C11.9501 9.5002 12.4165 9.03383 12.4165 8.45854C12.4165 7.88324 11.9501 7.41687 11.3748 7.41687L8.45835 7.41687C7.88305 7.41687 7.41668 7.88324 7.41668 8.45854Z" fill="#ECB22E"/>
<path d="M6.58307 2.62507C6.58307 2.04983 6.11674 1.5835 5.5415 1.5835C4.96625 1.5835 4.49992 2.04987 4.49992 2.62512C4.49992 3.20041 4.96629 3.66683 5.54159 3.66683L6.58307 3.66683L6.58307 2.62507ZM6.58307 5.54183C6.58307 4.96653 6.1167 4.50016 5.54141 4.50016L2.62492 4.50016C2.04962 4.50016 1.58325 4.96653 1.58325 5.54183C1.58325 6.11713 2.04962 6.5835 2.62492 6.5835L5.54141 6.5835C6.1167 6.5835 6.58307 6.11713 6.58307 5.54183Z" fill="#36C5F0"/>
</svg>
