<svg xmlns="http://www.w3.org/2000/svg" viewBox="0 0 24 24" fill="none" ><path d="M7.36 14.11a1.68 1.68 0 0 1-1.037 1.552 1.68 1.68 0 0 1-1.831-.364 1.68 1.68 0 0 1-.364-1.831A1.68 1.68 0 0 1 5.68 12.43h1.68v1.68zm.85 0a1.68 1.68 0 0 1 1.68-1.68 1.68 1.68 0 0 1 1.68 1.68v4.21A1.68 1.68 0 0 1 9.89 20a1.68 1.68 0 0 1-1.68-1.68v-4.21zm1.68-6.75a1.68 1.68 0 0 1-1.552-1.037 1.68 1.68 0 0 1 .364-1.831 1.68 1.68 0 0 1 1.831-.364A1.68 1.68 0 0 1 11.57 5.68v1.68H9.89zm0 .85a1.68 1.68 0 0 1 1.68 1.68 1.68 1.68 0 0 1-1.68 1.68H5.68A1.68 1.68 0 0 1 4 9.89a1.68 1.68 0 0 1 1.68-1.68h4.21zm6.75 1.68a1.68 1.68 0 0 1 1.037-1.552 1.68 1.68 0 0 1 1.831.364 1.68 1.68 0 0 1 .364 1.831 1.68 1.68 0 0 1-1.552 1.037h-1.68V9.89zm-.85 0a1.68 1.68 0 0 1-1.68 1.68 1.68 1.68 0 0 1-1.68-1.68V5.68A1.68 1.68 0 0 1 14.11 4a1.68 1.68 0 0 1 1.68 1.68v4.21zm-1.68 6.75a1.68 1.68 0 0 1 1.552 1.037 1.68 1.68 0 0 1-.364 1.831 1.68 1.68 0 0 1-1.831.364 1.68 1.68 0 0 1-1.037-1.552v-1.68h1.68zm0-.85a1.68 1.68 0 0 1-1.68-1.68 1.68 1.68 0 0 1 1.68-1.68h4.21A1.68 1.68 0 0 1 20 14.11a1.68 1.68 0 0 1-1.68 1.68h-4.21z" fill="currentColor"/></svg>