<svg width="24" height="24" viewBox="0 0 24 24" fill="none" xmlns="http://www.w3.org/2000/svg">
<g >
<g id="sliders-h">
<path  d="M19 8.25H12C11.8011 8.25 11.6103 8.17098 11.4697 8.03033C11.329 7.88968 11.25 7.69891 11.25 7.5C11.25 7.30109 11.329 7.11032 11.4697 6.96967C11.6103 6.82902 11.8011 6.75 12 6.75H19C19.1989 6.75 19.3897 6.82902 19.5303 6.96967C19.671 7.11032 19.75 7.30109 19.75 7.5C19.75 7.69891 19.671 7.88968 19.5303 8.03033C19.3897 8.17098 19.1989 8.25 19 8.25Z" fill="currentColor"/>
<path  d="M10 8.25H5C4.80109 8.25 4.61032 8.17098 4.46967 8.03033C4.32902 7.88968 4.25 7.69891 4.25 7.5C4.25 7.30109 4.32902 7.11032 4.46967 6.96967C4.61032 6.82902 4.80109 6.75 5 6.75H10C10.1989 6.75 10.3897 6.82902 10.5303 6.96967C10.671 7.11032 10.75 7.30109 10.75 7.5C10.75 7.69891 10.671 7.88968 10.5303 8.03033C10.3897 8.17098 10.1989 8.25 10 8.25Z" fill="currentColor"/>
<path  d="M10 9.75C9.80189 9.74741 9.61263 9.66756 9.47253 9.52747C9.33244 9.38737 9.25259 9.19811 9.25 9V6C9.25 5.80109 9.32902 5.61032 9.46967 5.46967C9.61032 5.32902 9.80109 5.25 10 5.25C10.1989 5.25 10.3897 5.32902 10.5303 5.46967C10.671 5.61032 10.75 5.80109 10.75 6V9C10.7474 9.19811 10.6676 9.38737 10.5275 9.52747C10.3874 9.66756 10.1981 9.74741 10 9.75Z" fill="currentColor"/>
<path  d="M19 17.25H12C11.8011 17.25 11.6103 17.171 11.4697 17.0303C11.329 16.8897 11.25 16.6989 11.25 16.5C11.25 16.3011 11.329 16.1103 11.4697 15.9697C11.6103 15.829 11.8011 15.75 12 15.75H19C19.1989 15.75 19.3897 15.829 19.5303 15.9697C19.671 16.1103 19.75 16.3011 19.75 16.5C19.75 16.6989 19.671 16.8897 19.5303 17.0303C19.3897 17.171 19.1989 17.25 19 17.25Z" fill="currentColor"/>
<path  d="M10 17.25H5C4.80109 17.25 4.61032 17.171 4.46967 17.0303C4.32902 16.8897 4.25 16.6989 4.25 16.5C4.25 16.3011 4.32902 16.1103 4.46967 15.9697C4.61032 15.829 4.80109 15.75 5 15.75H10C10.1989 15.75 10.3897 15.829 10.5303 15.9697C10.671 16.1103 10.75 16.3011 10.75 16.5C10.75 16.6989 10.671 16.8897 10.5303 17.0303C10.3897 17.171 10.1989 17.25 10 17.25Z" fill="currentColor"/>
<path  d="M10 18.75C9.80189 18.7474 9.61263 18.6676 9.47253 18.5275C9.33244 18.3874 9.25259 18.1981 9.25 18V15C9.25 14.8011 9.32902 14.6103 9.46967 14.4697C9.61032 14.329 9.80109 14.25 10 14.25C10.1989 14.25 10.3897 14.329 10.5303 14.4697C10.671 14.6103 10.75 14.8011 10.75 15V18C10.7474 18.1981 10.6676 18.3874 10.5275 18.5275C10.3874 18.6676 10.1981 18.7474 10 18.75V18.75Z" fill="currentColor"/>
<path  d="M19 12.75H16C15.8011 12.75 15.6103 12.671 15.4697 12.5303C15.329 12.3897 15.25 12.1989 15.25 12C15.25 11.8011 15.329 11.6103 15.4697 11.4697C15.6103 11.329 15.8011 11.25 16 11.25H19C19.1989 11.25 19.3897 11.329 19.5303 11.4697C19.671 11.6103 19.75 11.8011 19.75 12C19.75 12.1989 19.671 12.3897 19.5303 12.5303C19.3897 12.671 19.1989 12.75 19 12.75Z" fill="currentColor"/>
<path  d="M14 12.75H5C4.80109 12.75 4.61032 12.671 4.46967 12.5303C4.32902 12.3897 4.25 12.1989 4.25 12C4.25 11.8011 4.32902 11.6103 4.46967 11.4697C4.61032 11.329 4.80109 11.25 5 11.25H14C14.1989 11.25 14.3897 11.329 14.5303 11.4697C14.671 11.6103 14.75 11.8011 14.75 12C14.75 12.1989 14.671 12.3897 14.5303 12.5303C14.3897 12.671 14.1989 12.75 14 12.75V12.75Z" fill="currentColor"/>
<path  d="M14 14.25C13.8019 14.2474 13.6126 14.1676 13.4725 14.0275C13.3324 13.8874 13.2526 13.6981 13.25 13.5V10.5C13.25 10.3011 13.329 10.1103 13.4697 9.96967C13.6103 9.82902 13.8011 9.75 14 9.75C14.1989 9.75 14.3897 9.82902 14.5303 9.96967C14.671 10.1103 14.75 10.3011 14.75 10.5V13.5C14.7474 13.6981 14.6676 13.8874 14.5275 14.0275C14.3874 14.1676 14.1981 14.2474 14 14.25Z" fill="currentColor"/>
</g>
</g>
</svg>
