<svg xmlns="http://www.w3.org/2000/svg" viewBox="0 0 24 24" fill="currentColor" ><path d="M16.5 19.75a.76.76 0 0 1-.75-.75v-7a.75.75 0 1 1 1.5 0v7a.76.76 0 0 1-.75.75h0zm0-9a.76.76 0 0 1-.75-.75V5a.75.75 0 1 1 1.5 0v5a.76.76 0 0 1-.75.75h0z"/><path d="M18 10.75h-3a.75.75 0 1 1 0-1.5h3a.75.75 0 1 1 0 1.5zm-10.5 9a.76.76 0 0 1-.75-.75v-7a.75.75 0 1 1 1.5 0v7a.76.76 0 0 1-.75.75h0zm0-9a.76.76 0 0 1-.75-.75V5a.75.75 0 1 1 1.5 0v5a.76.76 0 0 1-.75.75h0z"/><path d="M9 10.75H6a.75.75 0 1 1 0-1.5h3a.75.75 0 1 1 0 1.5zm3 9a.76.76 0 0 1-.75-.75v-3a.75.75 0 1 1 1.5 0v3a.76.76 0 0 1-.75.75h0zm0-5a.76.76 0 0 1-.75-.75V5a.75.75 0 1 1 1.5 0v9a.76.76 0 0 1-.75.75h0z"/><path d="M13.5 14.75h-3a.75.75 0 0 1-.75-.75.75.75 0 0 1 .75-.75h3a.75.75 0 0 1 .75.75.75.75 0 0 1-.75.75h0z"/></svg>