<svg width="24" height="24" viewBox="0 0 24 24" fill="none" xmlns="http://www.w3.org/2000/svg">
<g >
<g id="sliders-v">
<path  d="M16.5 19.75C16.3019 19.7474 16.1126 19.6676 15.9725 19.5275C15.8324 19.3874 15.7526 19.1981 15.75 19V12C15.75 11.8011 15.829 11.6103 15.9697 11.4697C16.1103 11.329 16.3011 11.25 16.5 11.25C16.6989 11.25 16.8897 11.329 17.0303 11.4697C17.171 11.6103 17.25 11.8011 17.25 12V19C17.2474 19.1981 17.1676 19.3874 17.0275 19.5275C16.8874 19.6676 16.6981 19.7474 16.5 19.75V19.75Z" fill="currentColor"/>
<path  d="M16.5 10.75C16.3019 10.7474 16.1126 10.6676 15.9725 10.5275C15.8324 10.3874 15.7526 10.1981 15.75 10V5C15.75 4.80109 15.829 4.61032 15.9697 4.46967C16.1103 4.32902 16.3011 4.25 16.5 4.25C16.6989 4.25 16.8897 4.32902 17.0303 4.46967C17.171 4.61032 17.25 4.80109 17.25 5V10C17.2474 10.1981 17.1676 10.3874 17.0275 10.5275C16.8874 10.6676 16.6981 10.7474 16.5 10.75V10.75Z" fill="currentColor"/>
<path  d="M18 10.75H15C14.8011 10.75 14.6103 10.671 14.4697 10.5303C14.329 10.3897 14.25 10.1989 14.25 10C14.25 9.80109 14.329 9.61032 14.4697 9.46967C14.6103 9.32902 14.8011 9.25 15 9.25H18C18.1989 9.25 18.3897 9.32902 18.5303 9.46967C18.671 9.61032 18.75 9.80109 18.75 10C18.75 10.1989 18.671 10.3897 18.5303 10.5303C18.3897 10.671 18.1989 10.75 18 10.75Z" fill="currentColor"/>
<path  d="M7.5 19.75C7.30189 19.7474 7.11263 19.6676 6.97253 19.5275C6.83244 19.3874 6.75259 19.1981 6.75 19V12C6.75 11.8011 6.82902 11.6103 6.96967 11.4697C7.11032 11.329 7.30109 11.25 7.5 11.25C7.69891 11.25 7.88968 11.329 8.03033 11.4697C8.17098 11.6103 8.25 11.8011 8.25 12V19C8.24741 19.1981 8.16756 19.3874 8.02747 19.5275C7.88737 19.6676 7.69811 19.7474 7.5 19.75V19.75Z" fill="currentColor"/>
<path  d="M7.5 10.75C7.30189 10.7474 7.11263 10.6676 6.97253 10.5275C6.83244 10.3874 6.75259 10.1981 6.75 10V5C6.75 4.80109 6.82902 4.61032 6.96967 4.46967C7.11032 4.32902 7.30109 4.25 7.5 4.25C7.69891 4.25 7.88968 4.32902 8.03033 4.46967C8.17098 4.61032 8.25 4.80109 8.25 5V10C8.24741 10.1981 8.16756 10.3874 8.02747 10.5275C7.88737 10.6676 7.69811 10.7474 7.5 10.75V10.75Z" fill="currentColor"/>
<path  d="M9 10.75H6C5.80109 10.75 5.61032 10.671 5.46967 10.5303C5.32902 10.3897 5.25 10.1989 5.25 10C5.25 9.80109 5.32902 9.61032 5.46967 9.46967C5.61032 9.32902 5.80109 9.25 6 9.25H9C9.19891 9.25 9.38968 9.32902 9.53033 9.46967C9.67098 9.61032 9.75 9.80109 9.75 10C9.75 10.1989 9.67098 10.3897 9.53033 10.5303C9.38968 10.671 9.19891 10.75 9 10.75Z" fill="currentColor"/>
<path  d="M12 19.75C11.8019 19.7474 11.6126 19.6676 11.4725 19.5275C11.3324 19.3874 11.2526 19.1981 11.25 19V16C11.25 15.8011 11.329 15.6103 11.4697 15.4697C11.6103 15.329 11.8011 15.25 12 15.25C12.1989 15.25 12.3897 15.329 12.5303 15.4697C12.671 15.6103 12.75 15.8011 12.75 16V19C12.7474 19.1981 12.6676 19.3874 12.5275 19.5275C12.3874 19.6676 12.1981 19.7474 12 19.75V19.75Z" fill="currentColor"/>
<path  d="M12 14.75C11.8019 14.7474 11.6126 14.6676 11.4725 14.5275C11.3324 14.3874 11.2526 14.1981 11.25 14V5C11.25 4.80109 11.329 4.61032 11.4697 4.46967C11.6103 4.32902 11.8011 4.25 12 4.25C12.1989 4.25 12.3897 4.32902 12.5303 4.46967C12.671 4.61032 12.75 4.80109 12.75 5V14C12.7474 14.1981 12.6676 14.3874 12.5275 14.5275C12.3874 14.6676 12.1981 14.7474 12 14.75V14.75Z" fill="currentColor"/>
<path  d="M13.5 14.75H10.5C10.3011 14.75 10.1103 14.671 9.96967 14.5303C9.82902 14.3897 9.75 14.1989 9.75 14C9.75 13.8011 9.82902 13.6103 9.96967 13.4697C10.1103 13.329 10.3011 13.25 10.5 13.25H13.5C13.6989 13.25 13.8897 13.329 14.0303 13.4697C14.171 13.6103 14.25 13.8011 14.25 14C14.25 14.1989 14.171 14.3897 14.0303 14.5303C13.8897 14.671 13.6989 14.75 13.5 14.75V14.75Z" fill="currentColor"/>
</g>
</g>
</svg>
