<svg width="24" height="24" viewBox="0 0 24 24" fill="none" xmlns="http://www.w3.org/2000/svg">
<g >
<g id="sort-alpha-down">
<path  d="M10.22 16L9 17.19V5C9 4.80109 8.92098 4.61032 8.78033 4.46967C8.63968 4.32902 8.44891 4.25 8.25 4.25C8.05109 4.25 7.86032 4.32902 7.71967 4.46967C7.57902 4.61032 7.5 4.80109 7.5 5V17.19L6.28 16C6.22384 15.9012 6.14598 15.8165 6.05229 15.7522C5.95861 15.688 5.85154 15.6458 5.73918 15.629C5.62682 15.6121 5.5121 15.621 5.40368 15.655C5.29527 15.689 5.19599 15.7472 5.11335 15.8252C5.03071 15.9031 4.96686 15.9988 4.92662 16.1051C4.88638 16.2113 4.87081 16.3253 4.88109 16.4385C4.89136 16.5517 4.9272 16.661 4.98591 16.7583C5.04462 16.8555 5.12467 16.9382 5.22 17L7.72 19.5C7.78936 19.5678 7.87075 19.6221 7.96 19.66C8.05155 19.6996 8.15024 19.7201 8.25 19.7201C8.34976 19.7201 8.44845 19.6996 8.54 19.66C8.62925 19.6221 8.71064 19.5678 8.78 19.5L11.28 17C11.3753 16.9382 11.4554 16.8555 11.5141 16.7583C11.5728 16.661 11.6086 16.5517 11.6189 16.4385C11.6292 16.3253 11.6136 16.2113 11.5734 16.1051C11.5331 15.9988 11.4693 15.9031 11.3867 15.8252C11.304 15.7472 11.2047 15.689 11.0963 15.655C10.9879 15.621 10.8732 15.6121 10.7608 15.629C10.6485 15.6458 10.5414 15.688 10.4477 15.7522C10.354 15.8165 10.2762 15.9012 10.22 16V16Z" fill="currentColor"/>
<path  d="M14 11.21C14.0956 11.2481 14.198 11.2663 14.3009 11.2636C14.4038 11.2609 14.5051 11.2373 14.5986 11.1943C14.6921 11.1513 14.7759 11.0897 14.8449 11.0134C14.9139 10.937 14.9667 10.8474 15 10.75L15.27 9.98001H17.27L17.54 10.75C17.5919 10.8967 17.6881 11.0236 17.8153 11.1132C17.9425 11.2028 18.0944 11.2506 18.25 11.25C18.3327 11.2644 18.4173 11.2644 18.5 11.25C18.5982 11.2179 18.6888 11.1659 18.766 11.0971C18.8432 11.0284 18.9053 10.9444 18.9485 10.8505C18.9917 10.7566 19.015 10.6548 19.017 10.5515C19.019 10.4481 18.9996 10.3455 18.96 10.25L17.25 5.46001C17.1822 5.24809 17.0487 5.06321 16.869 4.93203C16.6893 4.80085 16.4725 4.73016 16.25 4.73016C16.0275 4.73016 15.8107 4.80085 15.631 4.93203C15.4513 5.06321 15.3178 5.24809 15.25 5.46001L13.54 10.23C13.5037 10.3244 13.4868 10.4251 13.4904 10.5262C13.494 10.6273 13.518 10.7266 13.561 10.8181C13.604 10.9097 13.665 10.9916 13.7405 11.0589C13.8159 11.1263 13.9042 11.1777 14 11.21V11.21ZM16.73 8.48001H15.73L16.21 7.13001L16.73 8.48001Z" fill="currentColor"/>
<path  d="M18.67 13.46C18.5831 13.2502 18.4361 13.0709 18.2475 12.9445C18.0589 12.8182 17.837 12.7505 17.61 12.75H14.5C14.3011 12.75 14.1103 12.829 13.9697 12.9697C13.829 13.1103 13.75 13.3011 13.75 13.5C13.75 13.6989 13.829 13.8897 13.9697 14.0303C14.1103 14.171 14.3011 14.25 14.5 14.25H16.89L14.06 17.2C13.893 17.3753 13.782 17.5964 13.741 17.835C13.7001 18.0736 13.731 18.319 13.83 18.54C13.9085 18.7435 14.0452 18.9194 14.223 19.0456C14.4009 19.1719 14.612 19.243 14.83 19.25H18C18.1989 19.25 18.3897 19.171 18.5303 19.0303C18.671 18.8897 18.75 18.6989 18.75 18.5C18.75 18.3011 18.671 18.1103 18.5303 17.9697C18.3897 17.829 18.1989 17.75 18 17.75H15.61L18.42 14.82C18.5897 14.6424 18.7038 14.419 18.7482 14.1774C18.7926 13.9357 18.7655 13.6864 18.67 13.46V13.46Z" fill="currentColor"/>
</g>
</g>
</svg>
