<svg width="24" height="24" viewBox="0 0 24 24" fill="none" xmlns="http://www.w3.org/2000/svg">
<g >
<g id="sort-numeric-up">
<path  d="M10.75 8.24998C10.6493 8.24659 10.5503 8.22267 10.4592 8.17968C10.3681 8.13669 10.2867 8.07554 10.22 7.99998L8.22001 5.99998L6.22 7.99998C6.1683 8.10825 6.09136 8.20254 5.99567 8.27492C5.89998 8.3473 5.78831 8.39567 5.67005 8.41596C5.5518 8.43624 5.4304 8.42787 5.31605 8.39152C5.2017 8.35518 5.09774 8.29193 5.0129 8.20709C4.92806 8.12224 4.86481 8.01828 4.82846 7.90394C4.79212 7.78959 4.78374 7.66819 4.80403 7.54993C4.82432 7.43167 4.87269 7.32001 4.94507 7.22431C5.01745 7.12862 5.11173 7.05169 5.22 6.99998L7.72 4.49998C7.86063 4.35953 8.05125 4.28064 8.25001 4.28064C8.44876 4.28064 8.63938 4.35953 8.78 4.49998L11.28 6.99998C11.4205 7.1406 11.4993 7.33123 11.4993 7.52998C11.4993 7.72873 11.4205 7.91935 11.28 8.05998C11.1353 8.19067 10.9448 8.25895 10.75 8.24998V8.24998Z" fill="currentColor"/>
<path  d="M8.25 19.75C8.05189 19.7474 7.86263 19.6676 7.72253 19.5275C7.58244 19.3874 7.50259 19.1981 7.5 19V5C7.5 4.80109 7.57902 4.61032 7.71967 4.46967C7.86032 4.32902 8.05109 4.25 8.25 4.25C8.44891 4.25 8.63968 4.32902 8.78033 4.46967C8.92098 4.61032 9 4.80109 9 5V19C8.99741 19.1981 8.91756 19.3874 8.77747 19.5275C8.63737 19.6676 8.44811 19.7474 8.25 19.75V19.75Z" fill="currentColor"/>
<path  d="M17 11.25C16.8019 11.2474 16.6126 11.1676 16.4725 11.0275C16.3325 10.8874 16.2526 10.6981 16.25 10.5V6.44002L15.86 6.66002C15.6865 6.7472 15.4863 6.76469 15.3003 6.70891C15.1144 6.65312 14.9568 6.52829 14.86 6.36002C14.7703 6.18703 14.7515 5.98591 14.8074 5.79926C14.8634 5.6126 14.9899 5.45507 15.16 5.36002L15.79 5.00002C15.9613 4.87147 16.1642 4.79153 16.3771 4.76865C16.5901 4.74577 16.8053 4.78079 17 4.87002C17.2249 4.97324 17.4147 5.1399 17.5462 5.34953C17.6777 5.55916 17.745 5.80263 17.74 6.05002V10.5C17.7375 10.6964 17.659 10.8842 17.5211 11.0241C17.3831 11.1639 17.1964 11.2449 17 11.25V11.25Z" fill="currentColor"/>
<path  d="M16.5 17.25C16.055 17.25 15.62 17.118 15.25 16.8708C14.88 16.6236 14.5916 16.2722 14.4213 15.861C14.251 15.4499 14.2064 14.9975 14.2932 14.561C14.3801 14.1246 14.5943 13.7237 14.909 13.409C15.2237 13.0943 15.6246 12.8801 16.061 12.7932C16.4975 12.7064 16.9499 12.751 17.361 12.9213C17.7722 13.0916 18.1236 13.38 18.3708 13.75C18.618 14.12 18.75 14.555 18.75 15C18.75 15.5967 18.5129 16.169 18.091 16.591C17.669 17.0129 17.0967 17.25 16.5 17.25ZM16.5 14.25C16.3517 14.25 16.2067 14.294 16.0833 14.3764C15.96 14.4588 15.8639 14.5759 15.8071 14.713C15.7503 14.85 15.7355 15.0008 15.7644 15.1463C15.7934 15.2918 15.8648 15.4254 15.9697 15.5303C16.0746 15.6352 16.2082 15.7067 16.3537 15.7356C16.4992 15.7645 16.65 15.7497 16.787 15.6929C16.9241 15.6361 17.0412 15.54 17.1236 15.4167C17.206 15.2933 17.25 15.1483 17.25 15C17.2474 14.8019 17.1676 14.6126 17.0275 14.4725C16.8874 14.3324 16.6981 14.2526 16.5 14.25V14.25Z" fill="currentColor"/>
<path  d="M16 19.25H15.5C15.3011 19.25 15.1103 19.171 14.9697 19.0303C14.829 18.8897 14.75 18.6989 14.75 18.5C14.75 18.3011 14.829 18.1103 14.9697 17.9697C15.1103 17.829 15.3011 17.75 15.5 17.75H16C16.3203 17.7435 16.6267 17.6181 16.8596 17.3981C17.0925 17.1781 17.2352 16.8794 17.26 16.56C17.26 16.27 17.26 15.92 17.26 15.5V15C17.26 14.8011 17.339 14.6103 17.4797 14.4697C17.6203 14.329 17.8111 14.25 18.01 14.25C18.2089 14.25 18.3997 14.329 18.5403 14.4697C18.681 14.6103 18.76 14.8011 18.76 15V15.5C18.76 15.95 18.76 16.32 18.76 16.64C18.7169 17.344 18.4078 18.0053 17.8953 18.4899C17.3828 18.9745 16.7053 19.2462 16 19.25Z" fill="currentColor"/>
</g>
</g>
</svg>
