<svg width="24" height="24" viewBox="0 0 24 24" fill="none" xmlns="http://www.w3.org/2000/svg">
<g >
<g id="sort-alpha-alt-up">
<path  d="M8.78004 4.47001C8.71068 4.40222 8.62929 4.34796 8.54004 4.31001C8.44849 4.27038 8.34979 4.24994 8.25004 4.24994C8.15028 4.24994 8.05158 4.27038 7.96004 4.31001C7.87079 4.34796 7.78939 4.40222 7.72004 4.47001L5.22004 7.00001C5.12471 7.06182 5.04466 7.14448 4.98595 7.24175C4.92724 7.33902 4.89139 7.44836 4.88112 7.56151C4.87085 7.67466 4.88642 7.78867 4.92666 7.89492C4.96689 8.00118 5.03074 8.0969 5.11339 8.17486C5.19603 8.25283 5.29531 8.311 5.40372 8.34498C5.51214 8.37897 5.62685 8.38787 5.73922 8.37103C5.85158 8.35419 5.95864 8.31205 6.05233 8.24777C6.14602 8.1835 6.22388 8.09878 6.28004 8.00001L7.50004 6.81001V19C7.50004 19.1989 7.57905 19.3897 7.71971 19.5303C7.86036 19.671 8.05112 19.75 8.25004 19.75C8.44895 19.75 8.63971 19.671 8.78037 19.5303C8.92102 19.3897 9.00004 19.1989 9.00004 19V6.81001L10.22 8.00001C10.3607 8.14046 10.5513 8.21935 10.75 8.21935C10.9488 8.21935 11.1394 8.14046 11.28 8.00001C11.4205 7.85939 11.4994 7.66876 11.4994 7.47001C11.4994 7.27126 11.4205 7.08064 11.28 6.94001L8.78004 4.47001Z" fill="currentColor"/>
<path  d="M19.0001 18.25L17.2901 13.46C17.2222 13.2481 17.0888 13.0632 16.9091 12.932C16.7294 12.8009 16.5126 12.7302 16.2901 12.7302C16.0676 12.7302 15.8508 12.8009 15.6711 12.932C15.4913 13.0632 15.3579 13.2481 15.2901 13.46L13.5801 18.23C13.5138 18.4183 13.525 18.6252 13.6113 18.8053C13.6975 18.9853 13.8518 19.1237 14.0401 19.19C14.2284 19.2563 14.4353 19.2451 14.6154 19.1588C14.7954 19.0726 14.9338 18.9183 15.0001 18.73L15.2701 17.96H17.2701L17.5401 18.73C17.5919 18.8767 17.6881 19.0036 17.8154 19.0932C17.9426 19.1828 18.0945 19.2306 18.2501 19.23C18.3328 19.2444 18.4174 19.2444 18.5001 19.23C18.5995 19.2019 18.692 19.1536 18.7718 19.088C18.8517 19.0225 18.9171 18.9412 18.964 18.8492C19.011 18.7572 19.0384 18.6565 19.0446 18.5534C19.0508 18.4502 19.0357 18.347 19.0001 18.25ZM15.8101 16.48L16.2901 15.13L16.7701 16.48H15.8101Z" fill="currentColor"/>
<path  d="M13.8301 10.54C13.9085 10.7435 14.0453 10.9194 14.2231 11.0456C14.4009 11.1719 14.6121 11.243 14.8301 11.25H18.0001C18.199 11.25 18.3897 11.171 18.5304 11.0303C18.671 10.8897 18.7501 10.6989 18.7501 10.5C18.7501 10.3011 18.671 10.1103 18.5304 9.96967C18.3897 9.82902 18.199 9.75 18.0001 9.75H15.6101L18.4301 6.82C18.5959 6.63998 18.7067 6.41619 18.7492 6.17514C18.7917 5.9341 18.7643 5.68591 18.6701 5.46C18.5832 5.25024 18.4362 5.07088 18.2475 4.94453C18.0589 4.81818 17.8371 4.75049 17.6101 4.75H14.5001C14.3011 4.75 14.1104 4.82902 13.9697 4.96967C13.8291 5.11032 13.7501 5.30109 13.7501 5.5C13.7501 5.69891 13.8291 5.88968 13.9697 6.03033C14.1104 6.17098 14.3011 6.25 14.5001 6.25H16.8901L14.0601 9.2C13.8931 9.37532 13.7821 9.59637 13.7411 9.83499C13.7001 10.0736 13.7311 10.319 13.8301 10.54Z" fill="currentColor"/>
</g>
</g>
</svg>
