<svg xmlns="http://www.w3.org/2000/svg" viewBox="0 0 24 24" fill="currentColor" ><path d="M8.78 4.47a.78.78 0 0 0-.24-.16.73.73 0 0 0-.58 0 .78.78 0 0 0-.24.16L5.22 7a.75.75 0 0 0-.107 1.175A.75.75 0 0 0 6.28 8L7.5 6.81V19A.75.75 0 1 0 9 19V6.81L10.22 8a.75.75 0 0 0 1.06 0 .75.75 0 0 0 0-1.06l-2.5-2.47zM19 18.25l-1.71-4.79a1.05 1.05 0 0 0-2 0l-1.71 4.77c-.066.188-.055.395.031.575s.241.318.429.385a.75.75 0 0 0 .575-.031c.18-.086.318-.241.385-.429l.27-.77h2l.27.77a.75.75 0 0 0 .71.5.73.73 0 0 0 .25 0 .75.75 0 0 0 .5-.98zm-3.19-1.77l.48-1.35.48 1.35h-.96zm-1.98-5.94a1.11 1.11 0 0 0 1 .71H18a.75.75 0 1 0 0-1.5h-2.39l2.82-2.93a1.28 1.28 0 0 0 .24-1.36 1.15 1.15 0 0 0-1.06-.71H14.5a.75.75 0 1 0 0 1.5h2.39L14.06 9.2a1.22 1.22 0 0 0-.23 1.34z"/></svg>