<svg width="24" height="24" viewBox="0 0 24 24" fill="none" xmlns="http://www.w3.org/2000/svg">
<g >
<g id="sort-alpha-up">
<path  d="M8.78001 4.47001C8.71065 4.40222 8.62926 4.34796 8.54001 4.31001C8.44846 4.27038 8.34976 4.24994 8.25001 4.24994C8.15025 4.24994 8.05155 4.27038 7.96001 4.31001C7.87076 4.34796 7.78936 4.40222 7.72001 4.47001L5.22001 7.00001C5.12467 7.06182 5.04463 7.14448 4.98592 7.24175C4.92721 7.33902 4.89136 7.44836 4.88109 7.56151C4.87082 7.67466 4.88639 7.78867 4.92663 7.89492C4.96686 8.00118 5.03071 8.0969 5.11336 8.17486C5.196 8.25283 5.29528 8.311 5.40369 8.34498C5.51211 8.37897 5.62682 8.38787 5.73918 8.37103C5.85155 8.35419 5.95861 8.31205 6.0523 8.24777C6.14599 8.1835 6.22385 8.09878 6.28001 8.00001L7.50001 6.81001V19C7.50001 19.1989 7.57902 19.3897 7.71968 19.5303C7.86033 19.671 8.05109 19.75 8.25001 19.75C8.44892 19.75 8.63968 19.671 8.78034 19.5303C8.92099 19.3897 9.00001 19.1989 9.00001 19V6.81001L10.22 8.00001C10.3606 8.14046 10.5513 8.21935 10.75 8.21935C10.9488 8.21935 11.1394 8.14046 11.28 8.00001C11.4205 7.85939 11.4993 7.66876 11.4993 7.47001C11.4993 7.27126 11.4205 7.08064 11.28 6.94001L8.78001 4.47001Z" fill="currentColor"/>
<path  d="M14 11.21C14.0956 11.2481 14.198 11.2663 14.3009 11.2636C14.4038 11.2609 14.5051 11.2373 14.5986 11.1943C14.6921 11.1513 14.7759 11.0897 14.8449 11.0134C14.9139 10.937 14.9667 10.8474 15 10.75L15.27 9.98001H17.27L17.54 10.75C17.5919 10.8967 17.6881 11.0236 17.8153 11.1132C17.9425 11.2028 18.0944 11.2506 18.25 11.25C18.3327 11.2644 18.4173 11.2644 18.5 11.25C18.5983 11.2179 18.6888 11.1659 18.766 11.0971C18.8432 11.0284 18.9053 10.9444 18.9485 10.8505C18.9917 10.7566 19.015 10.6548 19.017 10.5515C19.019 10.4481 18.9996 10.3455 18.96 10.25L17.25 5.46001C17.1822 5.24809 17.0487 5.06321 16.869 4.93203C16.6893 4.80085 16.4725 4.73016 16.25 4.73016C16.0275 4.73016 15.8107 4.80085 15.631 4.93203C15.4513 5.06321 15.3179 5.24809 15.25 5.46001L13.54 10.23C13.5037 10.3244 13.4868 10.4251 13.4904 10.5262C13.494 10.6273 13.518 10.7266 13.561 10.8181C13.604 10.9097 13.665 10.9916 13.7405 11.0589C13.8159 11.1263 13.9042 11.1777 14 11.21V11.21ZM16.73 8.48001H15.73L16.21 7.13001L16.73 8.48001Z" fill="currentColor"/>
<path  d="M18.67 13.46C18.5831 13.2502 18.4361 13.0709 18.2475 12.9445C18.0589 12.8182 17.837 12.7505 17.61 12.75H14.5C14.3011 12.75 14.1103 12.829 13.9697 12.9697C13.829 13.1103 13.75 13.3011 13.75 13.5C13.75 13.6989 13.829 13.8897 13.9697 14.0303C14.1103 14.171 14.3011 14.25 14.5 14.25H16.89L14.06 17.2C13.893 17.3753 13.782 17.5964 13.741 17.835C13.7001 18.0736 13.731 18.319 13.83 18.54C13.9085 18.7435 14.0452 18.9194 14.223 19.0456C14.4009 19.1719 14.612 19.243 14.83 19.25H18C18.1989 19.25 18.3897 19.171 18.5303 19.0303C18.671 18.8897 18.75 18.6989 18.75 18.5C18.75 18.3011 18.671 18.1103 18.5303 17.9697C18.3897 17.829 18.1989 17.75 18 17.75H15.61L18.42 14.82C18.5897 14.6424 18.7038 14.419 18.7482 14.1774C18.7926 13.9357 18.7655 13.6864 18.67 13.46V13.46Z" fill="currentColor"/>
</g>
</g>
</svg>
