<svg xmlns="http://www.w3.org/2000/svg" viewBox="0 0 24 24" fill="currentColor" ><path d="M8.38 19.75a.75.75 0 0 1-.54-.22L5.34 17a.75.75 0 0 1 0-1.06.77.77 0 0 1 1.07 0l2 2 2-2a.77.77 0 0 1 1.07 0 .75.75 0 0 1 0 1.06l-2.5 2.5a.74.74 0 0 1-.6.25z"/><path d="M8.38 19.75a.76.76 0 0 1-.76-.75V5a.76.76 0 0 1 .76-.75.75.75 0 0 1 .74.75v14a.75.75 0 0 1-.74.75h0zm8.74-8.5a.75.75 0 0 1-.74-.75V6.44l-.38.22c-.175.097-.381.12-.574.065a.75.75 0 0 1-.451-.36.76.76 0 0 1-.065-.574.75.75 0 0 1 .36-.451l.65-.34a1.19 1.19 0 0 1 1.22-.11 1.29 1.29 0 0 1 .74 1.18v4.43a.76.76 0 0 1-.76.75h0zm-.5 6a2.25 2.25 0 0 1-1.578-3.845A2.25 2.25 0 0 1 18.88 15a2.24 2.24 0 0 1-2.26 2.25h0zm0-3a.75.75 0 1 0 0 1.5.75.75 0 1 0 0-1.5z"/><path d="M16.11 19.25h-.49a.75.75 0 0 1-.75-.75.75.75 0 0 1 .75-.75h.49a1.28 1.28 0 0 0 1.25-1.19V15.5 15a.75.75 0 0 1 .74-.75.76.76 0 0 1 .76.75v.5 1.14a2.79 2.79 0 0 1-2.75 2.61h0z"/></svg>