<svg width="24" height="24" viewBox="0 0 24 24" fill="none" xmlns="http://www.w3.org/2000/svg">
<g >
<g id="sort">
<g >
<path  d="M18 10.75H6.00001C5.85221 10.751 5.7075 10.7077 5.58452 10.6257C5.46154 10.5438 5.36593 10.4268 5.31001 10.29C5.25234 10.1529 5.23677 10.0017 5.26526 9.85567C5.29375 9.70966 5.36502 9.57541 5.47001 9.47001L11.47 3.47001C11.6106 3.32956 11.8013 3.25067 12 3.25067C12.1988 3.25067 12.3894 3.32956 12.53 3.47001L18.53 9.47001C18.635 9.57541 18.7063 9.70966 18.7348 9.85567C18.7632 10.0017 18.7477 10.1529 18.69 10.29C18.6341 10.4268 18.5385 10.5438 18.4155 10.6257C18.2925 10.7077 18.1478 10.751 18 10.75ZM7.81001 9.25001H16.19L12 5.06001L7.81001 9.25001Z" fill="currentColor"/>
</g>
<g >
<path  d="M12 20.75C11.9015 20.7505 11.8038 20.7313 11.7128 20.6935C11.6218 20.6557 11.5393 20.6001 11.47 20.53L5.47001 14.53C5.36502 14.4246 5.29375 14.2904 5.26526 14.1444C5.23677 13.9983 5.25234 13.8472 5.31001 13.71C5.36593 13.5732 5.46154 13.4563 5.58452 13.3743C5.7075 13.2923 5.85221 13.249 6.00001 13.25H18C18.1478 13.249 18.2925 13.2923 18.4155 13.3743C18.5385 13.4563 18.6341 13.5732 18.69 13.71C18.7477 13.8472 18.7632 13.9983 18.7348 14.1444C18.7063 14.2904 18.635 14.4246 18.53 14.53L12.53 20.53C12.4608 20.6001 12.3782 20.6557 12.2872 20.6935C12.1962 20.7313 12.0985 20.7505 12 20.75V20.75ZM7.81001 14.75L12 18.94L16.19 14.75H7.81001Z" fill="currentColor"/>
</g>
</g>
</g>
</svg>
