<svg width="24" height="24" viewBox="0 0 24 24" fill="none" xmlns="http://www.w3.org/2000/svg">
<g >
<g id="sort-down">
<g >
<path  d="M12 16.25C11.9015 16.2505 11.8038 16.2312 11.7128 16.1935C11.6218 16.1557 11.5393 16.1001 11.47 16.03L4.47001 9.03C4.36526 8.92511 4.29393 8.79154 4.26505 8.64614C4.23616 8.50074 4.25101 8.35004 4.30773 8.21308C4.36444 8.07611 4.46046 7.95903 4.58368 7.87661C4.7069 7.79419 4.85177 7.75013 5.00001 7.75H19C19.1423 7.75542 19.2802 7.80124 19.3974 7.88212C19.5146 7.96299 19.6064 8.07557 19.662 8.20669C19.7176 8.3378 19.7347 8.48204 19.7113 8.62253C19.6879 8.76301 19.6251 8.89394 19.53 9L12.53 16C12.4633 16.0756 12.3819 16.1367 12.2908 16.1797C12.1997 16.2227 12.1007 16.2466 12 16.25V16.25ZM6.81001 9.25L12 14.44L17.19 9.25H6.81001Z" fill="currentColor"/>
</g>
</g>
</g>
</svg>
