<svg width="24" height="24" viewBox="0 0 24 24" fill="none" xmlns="http://www.w3.org/2000/svg">
<g >
<g id="sort-alt-slash">
<path  d="M6 7.99998L7.25 6.80998V12.5C7.25 12.6989 7.32902 12.8897 7.46967 13.0303C7.61033 13.171 7.80109 13.25 8 13.25C8.19892 13.25 8.38968 13.171 8.53033 13.0303C8.67099 12.8897 8.75 12.6989 8.75 12.5V6.80998L10 7.99998C10.1375 8.12297 10.3155 8.19096 10.5 8.19096C10.6845 8.19096 10.8625 8.12297 11 7.99998C11.123 7.86248 11.191 7.68446 11.191 7.49998C11.191 7.3155 11.123 7.13749 11 6.99998L8.5 4.49998C8.43065 4.43219 8.34926 4.37793 8.26 4.33998C8.16846 4.30035 8.06976 4.27991 7.97 4.27991C7.87025 4.27991 7.77155 4.30035 7.68 4.33998C7.59075 4.37793 7.50936 4.43219 7.44 4.49998L5 6.99998C4.89173 7.05169 4.79745 7.12862 4.72507 7.22432C4.65268 7.32001 4.60432 7.43167 4.58403 7.54993C4.56374 7.66819 4.57212 7.78959 4.60846 7.90394C4.64481 8.01829 4.70805 8.12225 4.7929 8.20709C4.87774 8.29193 4.9817 8.35518 5.09605 8.39152C5.2104 8.42787 5.3318 8.43625 5.45005 8.41596C5.56831 8.39567 5.67997 8.3473 5.77567 8.27492C5.87136 8.20254 5.94829 8.10825 6 7.99998Z" fill="currentColor"/>
<path  d="M18 16L16.78 17.22V11.5C16.78 11.3011 16.701 11.1103 16.5603 10.9697C16.4197 10.829 16.2289 10.75 16.03 10.75C15.8311 10.75 15.6403 10.829 15.4997 10.9697C15.359 11.1103 15.28 11.3011 15.28 11.5V17.19L14 16C13.9483 15.8917 13.8714 15.7974 13.7757 15.7251C13.68 15.6527 13.5683 15.6043 13.4501 15.584C13.3318 15.5637 13.2104 15.5721 13.096 15.6085C12.9817 15.6448 12.8777 15.7081 12.7929 15.7929C12.7081 15.8777 12.6448 15.9817 12.6085 16.096C12.5721 16.2104 12.5637 16.3318 12.584 16.4501C12.6043 16.5683 12.6527 16.68 12.7251 16.7757C12.7974 16.8714 12.8917 16.9483 13 17L15.5 19.5C15.5694 19.5678 15.6508 19.6221 15.74 19.66C15.8316 19.6996 15.9302 19.7201 16.03 19.7201C16.1298 19.7201 16.2285 19.6996 16.32 19.66C16.4093 19.6221 16.4906 19.5678 16.56 19.5L19 17C19.1083 16.9483 19.2026 16.8714 19.2749 16.7757C19.3473 16.68 19.3957 16.5683 19.416 16.4501C19.4363 16.3318 19.4279 16.2104 19.3915 16.096C19.3552 15.9817 19.292 15.8777 19.2071 15.7929C19.1223 15.7081 19.0183 15.6448 18.904 15.6085C18.7896 15.5721 18.6682 15.5637 18.55 15.584C18.4317 15.6043 18.32 15.6527 18.2243 15.7251C18.1286 15.7974 18.0517 15.8917 18 16V16Z" fill="currentColor"/>
<path  d="M19 6C19.0668 5.86005 19.0887 5.70281 19.0624 5.54995C19.0362 5.39709 18.9632 5.25612 18.8536 5.14645C18.7439 5.03678 18.6029 4.9638 18.4501 4.93758C18.2972 4.91135 18.14 4.93316 18 5L16.75 6.19V5C16.75 4.80109 16.671 4.61032 16.5303 4.46967C16.3897 4.32902 16.1989 4.25 16 4.25C15.8011 4.25 15.6103 4.32902 15.4697 4.46967C15.329 4.61032 15.25 4.80109 15.25 5V7.69L5 18C4.87702 18.1375 4.80902 18.3155 4.80902 18.5C4.80902 18.6845 4.87702 18.8625 5 19C5.13751 19.123 5.31552 19.191 5.5 19.191C5.68449 19.191 5.8625 19.123 6 19L7.22 17.78V19C7.22 19.1989 7.29902 19.3897 7.43967 19.5303C7.58033 19.671 7.77109 19.75 7.97 19.75C8.16892 19.75 8.35968 19.671 8.50033 19.5303C8.64099 19.3897 8.72 19.1989 8.72 19V16.31L19 6Z" fill="currentColor"/>
</g>
</g>
</svg>
