<svg width="24" height="24" viewBox="0 0 24 24" fill="none" xmlns="http://www.w3.org/2000/svg">
<g >
<g id="sort-numeric-down">
<path  d="M8.38001 19.75C8.27987 19.7512 8.1805 19.7324 8.08775 19.6946C7.99501 19.6568 7.91077 19.6008 7.84001 19.53L5.34001 17C5.19956 16.8593 5.12067 16.6687 5.12067 16.47C5.12067 16.2712 5.19956 16.0806 5.34001 15.94C5.48357 15.8013 5.67539 15.7238 5.87501 15.7238C6.07462 15.7238 6.26644 15.8013 6.41001 15.94L8.41001 17.94L10.41 15.94C10.5536 15.8013 10.7454 15.7238 10.945 15.7238C11.1446 15.7238 11.3364 15.8013 11.48 15.94C11.6205 16.0806 11.6993 16.2712 11.6993 16.47C11.6993 16.6687 11.6205 16.8593 11.48 17L8.98001 19.5C8.90562 19.5846 8.8129 19.6511 8.70893 19.6944C8.60495 19.7377 8.49245 19.7567 8.38001 19.75Z" fill="currentColor"/>
<path  d="M8.38001 19.75C8.18017 19.75 7.98836 19.6713 7.84611 19.5309C7.70387 19.3906 7.62264 19.1998 7.62001 19V5C7.62264 4.80017 7.70387 4.60942 7.84611 4.46905C7.98836 4.32868 8.18017 4.24998 8.38001 4.25C8.57718 4.25263 8.76539 4.33281 8.90389 4.47317C9.04238 4.61354 9.12003 4.80281 9.12001 5V19C9.12003 19.1972 9.04238 19.3865 8.90389 19.5268C8.76539 19.6672 8.57718 19.7474 8.38001 19.75V19.75Z" fill="currentColor"/>
<path  d="M17.12 11.25C16.9228 11.2474 16.7346 11.1672 16.5961 11.0268C16.4576 10.8865 16.38 10.6972 16.38 10.5V6.44002L16 6.66002C15.825 6.75682 15.6186 6.78013 15.4264 6.7248C15.2342 6.66948 15.0718 6.54006 14.975 6.36502C14.8782 6.18998 14.8549 5.98365 14.9102 5.79142C14.9655 5.5992 15.095 5.43682 15.27 5.34002L15.92 5.00002C16.0943 4.8728 16.2999 4.79536 16.5148 4.77599C16.7297 4.75661 16.9458 4.79603 17.14 4.89002C17.3633 4.99527 17.5518 5.1624 17.6829 5.37156C17.8141 5.58073 17.8825 5.82314 17.88 6.07002V10.5C17.8774 10.6998 17.7961 10.8906 17.6539 11.031C17.5117 11.1713 17.3198 11.25 17.12 11.25V11.25Z" fill="currentColor"/>
<path  d="M16.62 17.25C16.1754 17.248 15.7414 17.1144 15.3727 16.8659C15.004 16.6175 14.7172 16.2654 14.5484 15.8541C14.3797 15.4428 14.3365 14.9907 14.4245 14.5549C14.5124 14.1191 14.7275 13.7192 15.0425 13.4055C15.3576 13.0918 15.7585 12.8785 16.1947 12.7925C16.6309 12.7065 17.0828 12.7516 17.4933 12.9222C17.9039 13.0928 18.2547 13.3812 18.5015 13.751C18.7483 14.1208 18.88 14.5554 18.88 15C18.8813 15.2967 18.8237 15.5907 18.7105 15.8649C18.5973 16.1392 18.4307 16.3882 18.2204 16.5975C18.0102 16.8068 17.7604 16.9723 17.4857 17.0843C17.2109 17.1963 16.9167 17.2526 16.62 17.25V17.25ZM16.62 14.25C16.4211 14.25 16.2303 14.329 16.0897 14.4696C15.949 14.6103 15.87 14.8011 15.87 15C15.87 15.1989 15.949 15.3897 16.0897 15.5303C16.2303 15.671 16.4211 15.75 16.62 15.75C16.8189 15.75 17.0097 15.671 17.1503 15.5303C17.291 15.3897 17.37 15.1989 17.37 15C17.37 14.8011 17.291 14.6103 17.1503 14.4696C17.0097 14.329 16.8189 14.25 16.62 14.25Z" fill="currentColor"/>
<path  d="M16.11 19.25H15.62C15.4211 19.25 15.2303 19.171 15.0897 19.0303C14.949 18.8897 14.87 18.6989 14.87 18.5C14.87 18.3011 14.949 18.1103 15.0897 17.9697C15.2303 17.829 15.4211 17.75 15.62 17.75H16.11C16.4293 17.7433 16.7345 17.6175 16.9657 17.3974C17.197 17.1772 17.3376 16.8785 17.36 16.56C17.36 16.27 17.36 15.92 17.36 15.5V15C17.36 14.8028 17.4376 14.6135 17.5761 14.4732C17.7146 14.3328 17.9028 14.2526 18.1 14.25C18.2999 14.25 18.4917 14.3287 18.6339 14.4691C18.7762 14.6094 18.8574 14.8002 18.86 15V15.5C18.86 15.95 18.86 16.32 18.86 16.64C18.8147 17.3415 18.5063 18 17.9965 18.4839C17.4866 18.9678 16.8129 19.2414 16.11 19.25V19.25Z" fill="currentColor"/>
</g>
</g>
</svg>
