<svg width="24" height="24" viewBox="0 0 24 24" fill="none" xmlns="http://www.w3.org/2000/svg">
<g >
<g id="sort-alt">
<path  d="M10.5 8.24998C10.307 8.23523 10.1276 8.14548 9.99999 7.99998L7.99999 5.99998L5.99999 7.99998C5.94828 8.10825 5.87135 8.20254 5.77565 8.27492C5.67996 8.3473 5.5683 8.39567 5.45004 8.41596C5.33178 8.43624 5.21038 8.42787 5.09603 8.39152C4.98168 8.35518 4.87772 8.29193 4.79288 8.20709C4.70804 8.12224 4.64479 8.01828 4.60845 7.90394C4.5721 7.78959 4.56372 7.66819 4.58401 7.54993C4.6043 7.43167 4.65267 7.32001 4.72505 7.22431C4.79743 7.12862 4.89172 7.05169 4.99999 6.99998L7.49999 4.49998C7.64061 4.35953 7.83124 4.28064 8.02999 4.28064C8.22874 4.28064 8.41936 4.35953 8.55999 4.49998L11 6.99998C11.123 7.13749 11.191 7.3155 11.191 7.49998C11.191 7.68446 11.123 7.86247 11 7.99998C10.8724 8.14548 10.6929 8.23523 10.5 8.24998V8.24998Z" fill="currentColor"/>
<path  d="M8 19.75C7.80189 19.7474 7.61263 19.6676 7.47253 19.5275C7.33244 19.3874 7.25259 19.1981 7.25 19V5C7.25 4.80109 7.32902 4.61032 7.46967 4.46967C7.61032 4.32902 7.80109 4.25 8 4.25C8.19891 4.25 8.38968 4.32902 8.53033 4.46967C8.67098 4.61032 8.75 4.80109 8.75 5V19C8.74741 19.1981 8.66756 19.3874 8.52747 19.5275C8.38737 19.6676 8.19811 19.7474 8 19.75V19.75Z" fill="currentColor"/>
<path   d="M16 19.75C15.9014 19.7505 15.8038 19.7313 15.7128 19.6935C15.6218 19.6557 15.5392 19.6001 15.47 19.53L13 17C12.8917 16.9483 12.7974 16.8714 12.7251 16.7757C12.6527 16.68 12.6043 16.5683 12.584 16.4501C12.5637 16.3318 12.5721 16.2104 12.6084 16.0961C12.6448 15.9817 12.708 15.8778 12.7929 15.7929C12.8777 15.7081 12.9817 15.6448 13.096 15.6085C13.2104 15.5721 13.3318 15.5638 13.45 15.584C13.5683 15.6043 13.68 15.6527 13.7757 15.7251C13.8713 15.7975 13.9483 15.8917 14 16L16 18L18 16C18.0517 15.8917 18.1286 15.7975 18.2243 15.7251C18.32 15.6527 18.4317 15.6043 18.5499 15.584C18.6682 15.5638 18.7896 15.5721 18.9039 15.6085C19.0183 15.6448 19.1223 15.7081 19.2071 15.7929C19.2919 15.8778 19.3552 15.9817 19.3915 16.0961C19.4279 16.2104 19.4363 16.3318 19.416 16.4501C19.3957 16.5683 19.3473 16.68 19.2749 16.7757C19.2025 16.8714 19.1083 16.9483 19 17L16.5 19.5C16.3724 19.6455 16.1929 19.7353 16 19.75Z" fill="currentColor"/>
<path   d="M16 19.75C15.8019 19.7474 15.6126 19.6676 15.4725 19.5275C15.3324 19.3874 15.2526 19.1981 15.25 19V5C15.25 4.80109 15.329 4.61032 15.4697 4.46967C15.6103 4.32902 15.8011 4.25 16 4.25C16.1989 4.25 16.3897 4.32902 16.5303 4.46967C16.671 4.61032 16.75 4.80109 16.75 5V19C16.7474 19.1981 16.6676 19.3874 16.5275 19.5275C16.3874 19.6676 16.1981 19.7474 16 19.75V19.75Z" fill="currentColor"/>
</g>
</g>
</svg>
