<svg width="24" height="24" viewBox="0 0 24 24" fill="none" xmlns="http://www.w3.org/2000/svg">
<g >
<g id="sort-amount-down">
<path  d="M6.49998 19.75C6.31135 19.7431 6.13249 19.6644 5.99998 19.53L3.46998 17C3.37464 16.9382 3.2946 16.8555 3.23589 16.7583C3.17718 16.661 3.14133 16.5517 3.13106 16.4385C3.12079 16.3254 3.13636 16.2114 3.1766 16.1051C3.21683 15.9989 3.28068 15.9031 3.36333 15.8252C3.44597 15.7472 3.54525 15.689 3.65366 15.6551C3.76207 15.6211 3.87679 15.6122 3.98915 15.629C4.10152 15.6458 4.20858 15.688 4.30227 15.7523C4.39596 15.8165 4.47382 15.9013 4.52998 16L6.52998 18L8.52998 16C8.58169 15.8917 8.65862 15.7975 8.75431 15.7251C8.85001 15.6527 8.96167 15.6043 9.07993 15.584C9.19818 15.5638 9.31958 15.5721 9.43393 15.6085C9.54828 15.6448 9.65224 15.7081 9.73708 15.7929C9.82192 15.8778 9.88517 15.9817 9.92152 16.0961C9.95786 16.2104 9.96624 16.3318 9.94595 16.4501C9.92566 16.5683 9.8773 16.68 9.80491 16.7757C9.73253 16.8714 9.63825 16.9483 9.52998 17L6.99998 19.53C6.86747 19.6644 6.6886 19.7431 6.49998 19.75V19.75Z" fill="currentColor"/>
<path  d="M6.5 19.75C6.30189 19.7474 6.11263 19.6676 5.97253 19.5275C5.83244 19.3874 5.75259 19.1981 5.75 19V5C5.75 4.80109 5.82902 4.61032 5.96967 4.46967C6.11032 4.32902 6.30109 4.25 6.5 4.25C6.69891 4.25 6.88968 4.32902 7.03033 4.46967C7.17098 4.61032 7.25 4.80109 7.25 5V19C7.24741 19.1981 7.16756 19.3874 7.02747 19.5275C6.88737 19.6676 6.69811 19.7474 6.5 19.75V19.75Z" fill="currentColor"/>
<path   d="M20 8.25H12C11.8011 8.25 11.6103 8.17098 11.4697 8.03033C11.329 7.88968 11.25 7.69891 11.25 7.5C11.25 7.30109 11.329 7.11032 11.4697 6.96967C11.6103 6.82902 11.8011 6.75 12 6.75H20C20.1989 6.75 20.3897 6.82902 20.5303 6.96967C20.671 7.11032 20.75 7.30109 20.75 7.5C20.75 7.69891 20.671 7.88968 20.5303 8.03033C20.3897 8.17098 20.1989 8.25 20 8.25Z" fill="currentColor"/>
<path   d="M16 14.25H12C11.8011 14.25 11.6103 14.171 11.4697 14.0303C11.329 13.8897 11.25 13.6989 11.25 13.5C11.25 13.3011 11.329 13.1103 11.4697 12.9697C11.6103 12.829 11.8011 12.75 12 12.75H16C16.1989 12.75 16.3897 12.829 16.5303 12.9697C16.671 13.1103 16.75 13.3011 16.75 13.5C16.75 13.6989 16.671 13.8897 16.5303 14.0303C16.3897 14.171 16.1989 14.25 16 14.25V14.25Z" fill="currentColor"/>
<path  d="M14 17.25H12C11.8011 17.25 11.6103 17.171 11.4697 17.0303C11.329 16.8897 11.25 16.6989 11.25 16.5C11.25 16.3011 11.329 16.1103 11.4697 15.9697C11.6103 15.829 11.8011 15.75 12 15.75H14C14.1989 15.75 14.3897 15.829 14.5303 15.9697C14.671 16.1103 14.75 16.3011 14.75 16.5C14.75 16.6989 14.671 16.8897 14.5303 17.0303C14.3897 17.171 14.1989 17.25 14 17.25V17.25Z" fill="currentColor"/>
<path  d="M18 11.25H12C11.8011 11.25 11.6103 11.171 11.4697 11.0303C11.329 10.8897 11.25 10.6989 11.25 10.5C11.25 10.3011 11.329 10.1103 11.4697 9.96967C11.6103 9.82902 11.8011 9.75 12 9.75H18C18.1989 9.75 18.3897 9.82902 18.5303 9.96967C18.671 10.1103 18.75 10.3011 18.75 10.5C18.75 10.6989 18.671 10.8897 18.5303 11.0303C18.3897 11.171 18.1989 11.25 18 11.25Z" fill="currentColor"/>
</g>
</g>
</svg>
