<svg width="24" height="24" viewBox="0 0 24 24" fill="none" xmlns="http://www.w3.org/2000/svg">
<g >
<g id="sort-up">
<g >
<path  d="M19 16.25H4.99999C4.85219 16.251 4.70748 16.2077 4.5845 16.1257C4.46152 16.0437 4.36591 15.9268 4.30999 15.79C4.25869 15.6567 4.2465 15.5116 4.27484 15.3717C4.30319 15.2317 4.37089 15.1028 4.46999 15L11.47 7.99998C11.6106 7.85953 11.8012 7.78064 12 7.78064C12.1987 7.78064 12.3894 7.85953 12.53 7.99998L19.53 15C19.635 15.1054 19.7063 15.2396 19.7347 15.3856C19.7632 15.5317 19.7477 15.6828 19.69 15.82C19.6295 15.9512 19.5319 16.0618 19.4093 16.1382C19.2867 16.2146 19.1444 16.2535 19 16.25V16.25ZM6.80999 14.75H17.19L12 9.55998L6.80999 14.75Z" fill="currentColor"/>
</g>
</g>
</g>
</svg>
