<svg xmlns="http://www.w3.org/2000/svg" viewBox="0 0 24 24" fill="currentColor" ><path d="M10.5 8.25A.74.74 0 0 1 10 8L8 6 6 8a.75.75 0 0 1-.55.416.75.75 0 0 1-.657-.209.75.75 0 0 1-.209-.657A.75.75 0 0 1 5 7l2.5-2.5a.75.75 0 0 1 1.06 0L11 7a.75.75 0 0 1 0 1 .74.74 0 0 1-.5.25h0z"/><path d="M8 19.75a.76.76 0 0 1-.75-.75V5a.75.75 0 1 1 1.5 0v14a.76.76 0 0 1-.75.75h0zm8 0a.74.74 0 0 1-.53-.22L13 17a.75.75 0 0 1-.207-1.207A.75.75 0 0 1 14 16l2 2 2-2a.75.75 0 0 1 1.207-.207A.75.75 0 0 1 19 17l-2.5 2.5a.74.74 0 0 1-.5.25z"/><path d="M16 19.75a.76.76 0 0 1-.75-.75V5a.75.75 0 0 1 .75-.75.75.75 0 0 1 .75.75v14a.76.76 0 0 1-.75.75h0z"/></svg>