<svg width="24" height="24" viewBox="0 0 24 24" fill="none" xmlns="http://www.w3.org/2000/svg">
<g >
<g id="sort-amount-up-alt">
<path  d="M8.99999 8.24997C8.89928 8.24658 8.80032 8.22266 8.70919 8.17967C8.61805 8.13668 8.53666 8.07554 8.46999 7.99997L6.46999 5.99997L4.46999 7.99997C4.41828 8.10825 4.34135 8.20253 4.24565 8.27491C4.14996 8.34729 4.0383 8.39566 3.92004 8.41595C3.80178 8.43624 3.68038 8.42786 3.56603 8.39152C3.45169 8.35517 3.34773 8.29192 3.26288 8.20708C3.17804 8.12224 3.11479 8.01828 3.07845 7.90393C3.0421 7.78958 3.03372 7.66818 3.05401 7.54992C3.0743 7.43167 3.12267 7.32 3.19505 7.22431C3.26743 7.12862 3.36172 7.05168 3.46999 6.99997L5.99999 4.46997C6.1375 4.34699 6.31551 4.27899 6.49999 4.27899C6.68447 4.27899 6.86248 4.34699 6.99999 4.46997L9.52999 6.99997C9.65298 7.13748 9.72097 7.31549 9.72097 7.49997C9.72097 7.68446 9.65298 7.86247 9.52999 7.99997C9.46332 8.07554 9.38193 8.13668 9.29079 8.17967C9.19965 8.22266 9.1007 8.24658 8.99999 8.24997V8.24997Z" fill="currentColor"/>
<path  d="M6.5 19.75C6.30189 19.7474 6.11263 19.6676 5.97253 19.5275C5.83244 19.3874 5.75259 19.1981 5.75 19V5C5.75 4.80109 5.82902 4.61032 5.96967 4.46967C6.11032 4.32902 6.30109 4.25 6.5 4.25C6.69891 4.25 6.88968 4.32902 7.03033 4.46967C7.17098 4.61032 7.25 4.80109 7.25 5V19C7.24741 19.1981 7.16756 19.3874 7.02747 19.5275C6.88737 19.6676 6.69811 19.7474 6.5 19.75V19.75Z" fill="currentColor"/>
<path   d="M20 17.25H12C11.8011 17.25 11.6103 17.171 11.4697 17.0303C11.329 16.8897 11.25 16.6989 11.25 16.5C11.25 16.3011 11.329 16.1103 11.4697 15.9697C11.6103 15.829 11.8011 15.75 12 15.75H20C20.1989 15.75 20.3897 15.829 20.5303 15.9697C20.671 16.1103 20.75 16.3011 20.75 16.5C20.75 16.6989 20.671 16.8897 20.5303 17.0303C20.3897 17.171 20.1989 17.25 20 17.25Z" fill="currentColor"/>
<path   d="M16 11.25H12C11.8011 11.25 11.6103 11.171 11.4697 11.0303C11.329 10.8897 11.25 10.6989 11.25 10.5C11.25 10.3011 11.329 10.1103 11.4697 9.96967C11.6103 9.82902 11.8011 9.75 12 9.75H16C16.1989 9.75 16.3897 9.82902 16.5303 9.96967C16.671 10.1103 16.75 10.3011 16.75 10.5C16.75 10.6989 16.671 10.8897 16.5303 11.0303C16.3897 11.171 16.1989 11.25 16 11.25V11.25Z" fill="currentColor"/>
<path  d="M14 8.25H12C11.8011 8.25 11.6103 8.17098 11.4697 8.03033C11.329 7.88968 11.25 7.69891 11.25 7.5C11.25 7.30109 11.329 7.11032 11.4697 6.96967C11.6103 6.82902 11.8011 6.75 12 6.75H14C14.1989 6.75 14.3897 6.82902 14.5303 6.96967C14.671 7.11032 14.75 7.30109 14.75 7.5C14.75 7.69891 14.671 7.88968 14.5303 8.03033C14.3897 8.17098 14.1989 8.25 14 8.25V8.25Z" fill="currentColor"/>
<path  d="M18 14.25H12C11.8011 14.25 11.6103 14.171 11.4697 14.0303C11.329 13.8897 11.25 13.6989 11.25 13.5C11.25 13.3011 11.329 13.1103 11.4697 12.9697C11.6103 12.829 11.8011 12.75 12 12.75H18C18.1989 12.75 18.3897 12.829 18.5303 12.9697C18.671 13.1103 18.75 13.3011 18.75 13.5C18.75 13.6989 18.671 13.8897 18.5303 14.0303C18.3897 14.171 18.1989 14.25 18 14.25Z" fill="currentColor"/>
</g>
</g>
</svg>
