<svg width="24" height="24" viewBox="0 0 24 24" fill="none" xmlns="http://www.w3.org/2000/svg">
<g >
<g id="sort-numeric-alt-down">
<path  d="M8.37995 19.75C8.27981 19.7512 8.18043 19.7324 8.08769 19.6946C7.99495 19.6568 7.91071 19.6008 7.83995 19.53L5.33995 17C5.1995 16.8593 5.12061 16.6687 5.12061 16.47C5.12061 16.2712 5.1995 16.0806 5.33995 15.94C5.48351 15.8013 5.67533 15.7238 5.87495 15.7238C6.07456 15.7238 6.26638 15.8013 6.40995 15.94L8.40995 17.94L10.4099 15.94C10.5535 15.8013 10.7453 15.7238 10.9449 15.7238C11.1446 15.7238 11.3364 15.8013 11.4799 15.94C11.6204 16.0806 11.6993 16.2712 11.6993 16.47C11.6993 16.6687 11.6204 16.8593 11.4799 17L8.97995 19.5C8.90556 19.5846 8.81284 19.6511 8.70886 19.6944C8.60489 19.7377 8.49239 19.7567 8.37995 19.75Z" fill="currentColor"/>
<path  d="M8.38 19.75C8.18015 19.75 7.98834 19.6713 7.8461 19.5309C7.70386 19.3906 7.62262 19.1998 7.62 19V5C7.62262 4.80017 7.70386 4.60942 7.8461 4.46905C7.98834 4.32868 8.18015 4.24998 8.38 4.25C8.57717 4.25263 8.76538 4.33281 8.90387 4.47317C9.04237 4.61354 9.12001 4.80281 9.12 5V19C9.12001 19.1972 9.04237 19.3865 8.90387 19.5268C8.76538 19.6672 8.57717 19.7474 8.38 19.75V19.75Z" fill="currentColor"/>
<path  d="M17.1199 19.25C16.9228 19.2474 16.7346 19.1672 16.5961 19.0268C16.4576 18.8865 16.3799 18.6972 16.3799 18.5V14.44L15.9899 14.66C15.8149 14.7568 15.6086 14.7801 15.4163 14.7248C15.2241 14.6695 15.0617 14.54 14.9649 14.365C14.8681 14.19 14.8448 13.9836 14.9001 13.7914C14.9555 13.5992 15.0849 13.4368 15.2599 13.34L15.9199 12.98C16.0942 12.8528 16.2998 12.7753 16.5147 12.756C16.7296 12.7366 16.9457 12.776 17.1399 12.87C17.3633 12.9753 17.5517 13.1424 17.6829 13.3515C17.814 13.5607 17.8824 13.8031 17.8799 14.05V18.5C17.8773 18.6998 17.7961 18.8906 17.6538 19.0309C17.5116 19.1713 17.3198 19.25 17.1199 19.25V19.25Z" fill="currentColor"/>
<path  d="M16.62 9.24998C16.1754 9.248 15.7414 9.11437 15.3727 8.86593C15.004 8.6175 14.7172 8.26541 14.5484 7.85411C14.3797 7.44281 14.3365 6.99072 14.4245 6.55493C14.5124 6.11913 14.7275 5.71916 15.0425 5.40549C15.3576 5.09182 15.7585 4.87852 16.1947 4.79251C16.6309 4.7065 17.0828 4.75164 17.4933 4.92222C17.9039 5.09281 18.2547 5.3812 18.5015 5.75099C18.7483 6.12078 18.88 6.5554 18.88 6.99998C18.8813 7.29667 18.8237 7.59067 18.7105 7.86491C18.5973 8.13915 18.4307 8.38817 18.2204 8.5975C18.0102 8.80683 17.7604 8.9723 17.4857 9.08431C17.2109 9.19632 16.9167 9.25263 16.62 9.24998V9.24998ZM16.62 6.24998C16.4211 6.24998 16.2303 6.329 16.0897 6.46965C15.949 6.6103 15.87 6.80107 15.87 6.99998C15.87 7.19889 15.949 7.38966 16.0897 7.53031C16.2303 7.67096 16.4211 7.74998 16.62 7.74998C16.8189 7.74998 17.0097 7.67096 17.1503 7.53031C17.291 7.38966 17.37 7.19889 17.37 6.99998C17.37 6.80107 17.291 6.6103 17.1503 6.46965C17.0097 6.329 16.8189 6.24998 16.62 6.24998Z" fill="currentColor"/>
<path  d="M16.11 11.25H15.62C15.4211 11.25 15.2303 11.171 15.0897 11.0303C14.949 10.8897 14.87 10.6989 14.87 10.5C14.87 10.3011 14.949 10.1103 15.0897 9.96967C15.2303 9.82902 15.4211 9.75 15.62 9.75H16.11C16.4292 9.7433 16.7344 9.61752 16.9657 9.39735C17.197 9.17719 17.3376 8.87853 17.36 8.56C17.36 8.27 17.36 7.92 17.36 7.5V7C17.36 6.80281 17.4376 6.61354 17.5761 6.47317C17.7146 6.33281 17.9028 6.25263 18.1 6.25C18.2998 6.24998 18.4916 6.32868 18.6339 6.46905C18.7761 6.60942 18.8574 6.80017 18.86 7V7.5C18.86 7.95 18.86 8.32 18.86 8.64C18.817 9.34229 18.5093 10.0022 17.999 10.4865C17.4886 10.9709 16.8136 11.2437 16.11 11.25V11.25Z" fill="currentColor"/>
</g>
</g>
</svg>
