<svg width="24" height="24" viewBox="0 0 24 24" fill="none" xmlns="http://www.w3.org/2000/svg">
<g >
<g id="sort-alpha-alt-down">
<path  d="M10.22 16L8.99998 17.19V5C8.99998 4.80109 8.92096 4.61032 8.78031 4.46967C8.63965 4.32902 8.44889 4.25 8.24998 4.25C8.05106 4.25 7.8603 4.32902 7.71965 4.46967C7.57899 4.61032 7.49998 4.80109 7.49998 5V17.19L6.27998 16C6.22382 15.9012 6.14596 15.8165 6.05227 15.7522C5.95858 15.688 5.85152 15.6458 5.73915 15.629C5.62679 15.6121 5.51207 15.621 5.40366 15.655C5.29525 15.689 5.19597 15.7472 5.11333 15.8252C5.03068 15.9031 4.96683 15.9988 4.9266 16.1051C4.88636 16.2113 4.87079 16.3253 4.88106 16.4385C4.89133 16.5517 4.92718 16.661 4.98589 16.7583C5.0446 16.8555 5.12464 16.9382 5.21998 17L7.71998 19.5C7.78933 19.5678 7.87072 19.6221 7.95998 19.66C8.05152 19.6996 8.15022 19.7201 8.24998 19.7201C8.34973 19.7201 8.44843 19.6996 8.53998 19.66C8.62923 19.6221 8.71062 19.5678 8.77998 19.5L11.28 17C11.3753 16.9382 11.4554 16.8555 11.5141 16.7583C11.5728 16.661 11.6086 16.5517 11.6189 16.4385C11.6292 16.3253 11.6136 16.2113 11.5734 16.1051C11.5331 15.9988 11.4693 15.9031 11.3866 15.8252C11.304 15.7472 11.2047 15.689 11.0963 15.655C10.9879 15.621 10.8732 15.6121 10.7608 15.629C10.6484 15.6458 10.5414 15.688 10.4477 15.7522C10.354 15.8165 10.2761 15.9012 10.22 16V16Z" fill="currentColor"/>
<path  d="M19 18.25L17.29 13.46C17.2221 13.2481 17.0887 13.0632 16.909 12.932C16.7292 12.8009 16.5125 12.7302 16.29 12.7302C16.0674 12.7302 15.8507 12.8009 15.671 12.932C15.4912 13.0632 15.3578 13.2481 15.29 13.46L13.58 18.23C13.5137 18.4183 13.5249 18.6252 13.6111 18.8053C13.6974 18.9853 13.8517 19.1237 14.04 19.19C14.2283 19.2563 14.4352 19.2451 14.6152 19.1588C14.7953 19.0726 14.9337 18.9183 15 18.73L15.27 17.96H17.27L17.54 18.73C17.5918 18.8767 17.688 19.0036 17.8152 19.0932C17.9424 19.1828 18.0944 19.2306 18.25 19.23C18.3327 19.2444 18.4172 19.2444 18.5 19.23C18.5994 19.2019 18.6919 19.1536 18.7717 19.088C18.8515 19.0225 18.917 18.9412 18.9639 18.8492C19.0109 18.7572 19.0383 18.6565 19.0445 18.5534C19.0507 18.4502 19.0355 18.347 19 18.25ZM15.81 16.48L16.29 15.13L16.77 16.48H15.81Z" fill="currentColor"/>
<path  d="M13.83 10.54C13.9085 10.7435 14.0452 10.9194 14.223 11.0456C14.4009 11.1719 14.612 11.243 14.83 11.25H18C18.1989 11.25 18.3897 11.171 18.5303 11.0303C18.671 10.8897 18.75 10.6989 18.75 10.5C18.75 10.3011 18.671 10.1103 18.5303 9.96967C18.3897 9.82902 18.1989 9.75 18 9.75H15.61L18.43 6.82C18.5958 6.63998 18.7066 6.41619 18.7491 6.17514C18.7917 5.9341 18.7642 5.68591 18.67 5.46C18.5831 5.25024 18.4361 5.07088 18.2475 4.94453C18.0589 4.81818 17.837 4.75049 17.61 4.75H14.5C14.3011 4.75 14.1103 4.82902 13.9697 4.96967C13.829 5.11032 13.75 5.30109 13.75 5.5C13.75 5.69891 13.829 5.88968 13.9697 6.03033C14.1103 6.17098 14.3011 6.25 14.5 6.25H16.89L14.06 9.2C13.893 9.37532 13.782 9.59637 13.741 9.83499C13.7001 10.0736 13.731 10.319 13.83 10.54Z" fill="currentColor"/>
</g>
</g>
</svg>
