<svg width="24" height="24" viewBox="0 0 24 24" fill="none" xmlns="http://www.w3.org/2000/svg">
<path d="M16.77 10.09C16.77 9.71357 16.8443 9.34085 16.9887 8.99321C17.133 8.64556 17.3446 8.32984 17.6112 8.06413C17.8779 7.79842 18.1943 7.58796 18.5425 7.44483C18.8906 7.30169 19.2636 7.22868 19.64 7.23C20.3985 7.23 21.126 7.53132 21.6623 8.06767C22.1987 8.60403 22.5 9.33148 22.5 10.09" stroke="black" stroke-miterlimit="10"/>
<path d="M19.64 5.32C20.6948 5.32 21.55 4.46486 21.55 3.41C21.55 2.35514 20.6948 1.5 19.64 1.5C18.5851 1.5 17.73 2.35514 17.73 3.41C17.73 4.46486 18.5851 5.32 19.64 5.32Z" stroke="black" stroke-miterlimit="10"/>
<path d="M9.14014 10.09C9.14014 9.33146 9.44146 8.60401 9.97781 8.06766C10.5142 7.5313 11.2416 7.22998 12.0001 7.22998C12.7587 7.22998 13.4861 7.5313 14.0225 8.06766C14.5588 8.60401 14.8601 9.33146 14.8601 10.09" stroke="black" stroke-miterlimit="10"/>
<path d="M11.9998 5.32C13.0547 5.32 13.9098 4.46486 13.9098 3.41C13.9098 2.35514 13.0547 1.5 11.9998 1.5C10.945 1.5 10.0898 2.35514 10.0898 3.41C10.0898 4.46486 10.945 5.32 11.9998 5.32Z" stroke="black" stroke-miterlimit="10"/>
<path d="M22.5 12C22.5 14.7848 21.3938 17.4555 19.4246 19.4246C17.4555 21.3938 14.7848 22.5 12 22.5C9.21523 22.5 6.54451 21.3938 4.57538 19.4246C2.60625 17.4555 1.5 14.7848 1.5 12H22.5Z" stroke="black" stroke-miterlimit="10"/>
<path d="M2.4502 16.77H21.5502" stroke="black" stroke-miterlimit="10"/>
<path d="M15.8202 12C15.8202 17.8 14.1102 22.5 12.0002 22.5C9.89018 22.5 8.18018 17.8 8.18018 12" stroke="black" stroke-miterlimit="10"/>
<path d="M1.5 10.09C1.5 9.33148 1.80132 8.60403 2.33767 8.06767C2.87403 7.53132 3.60148 7.23 4.36 7.23C4.73642 7.22868 5.1094 7.30169 5.45755 7.44483C5.80569 7.58796 6.12216 7.79842 6.38879 8.06413C6.65543 8.32984 6.86699 8.64556 7.01134 8.99321C7.1557 9.34085 7.23 9.71357 7.23 10.09" stroke="black" stroke-miterlimit="10"/>
<path d="M4.3602 5.32C5.41506 5.32 6.2702 4.46486 6.2702 3.41C6.2702 2.35514 5.41506 1.5 4.3602 1.5C3.30533 1.5 2.4502 2.35514 2.4502 3.41C2.4502 4.46486 3.30533 5.32 4.3602 5.32Z" stroke="black" stroke-miterlimit="10"/>
</svg>
