<svg width="24" height="24" viewBox="0 0 24 24" fill="none" xmlns="http://www.w3.org/2000/svg">
<g >
<g id="star">
<path  d="M21.12 9.87999C21.0781 9.74713 20.9996 9.62878 20.8935 9.53856C20.7873 9.44834 20.6579 9.38991 20.52 9.36999L15.1 8.57999L12.67 3.66999C12.6008 3.55397 12.5027 3.45789 12.3853 3.39117C12.2678 3.32445 12.1351 3.28937 12 3.28937C11.8649 3.28937 11.7322 3.32445 11.6147 3.39117C11.4973 3.45789 11.3991 3.55397 11.33 3.66999L8.89999 8.57999L3.47999 9.36999C3.34211 9.38991 3.21266 9.44834 3.10652 9.53856C3.00038 9.62878 2.92186 9.74713 2.87999 9.87999C2.83529 10.0124 2.82846 10.1546 2.86027 10.2906C2.89207 10.4267 2.96124 10.5512 3.05999 10.65L6.99999 14.47L6.06999 19.87C6.04642 20.009 6.06199 20.1519 6.11497 20.2826C6.16796 20.4133 6.25625 20.5266 6.36999 20.61C6.48391 20.6912 6.61825 20.7389 6.75785 20.7477C6.89746 20.7565 7.03675 20.7262 7.15999 20.66L12 18.11L16.85 20.66C16.9573 20.7189 17.0776 20.7498 17.2 20.75C17.3573 20.7482 17.5105 20.6994 17.64 20.61C17.7537 20.5266 17.842 20.4133 17.895 20.2826C17.948 20.1519 17.9636 20.009 17.94 19.87L17 14.47L20.93 10.65C21.0305 10.5522 21.1015 10.4283 21.1351 10.2922C21.1687 10.1561 21.1634 10.0133 21.12 9.87999V9.87999Z" fill="currentColor"/>
</g>
</g>
</svg>
