<svg width="24" height="24" viewBox="0 0 24 24" fill="none" xmlns="http://www.w3.org/2000/svg">
<g >
<g id="star-o">
<path  d="M17.2 20.75C17.0776 20.7498 16.9573 20.7189 16.85 20.66L12 18.11L7.14999 20.66C7.02675 20.7262 6.88746 20.7565 6.74786 20.7477C6.60825 20.7389 6.47391 20.6912 6.35999 20.61C6.24625 20.5266 6.15796 20.4133 6.10497 20.2826C6.05199 20.1519 6.03642 20.009 6.05999 19.87L6.99999 14.47L3.05999 10.65C2.96124 10.5512 2.89207 10.4267 2.86027 10.2906C2.82846 10.1546 2.83529 10.0124 2.87999 9.87999C2.92186 9.74713 3.00038 9.62878 3.10652 9.53856C3.21266 9.44834 3.34211 9.38991 3.47999 9.36999L8.89999 8.57999L11.33 3.66999C11.3991 3.55397 11.4973 3.45789 11.6147 3.39117C11.7322 3.32445 11.8649 3.28937 12 3.28937C12.1351 3.28937 12.2678 3.32445 12.3853 3.39117C12.5027 3.45789 12.6008 3.55397 12.67 3.66999L15.1 8.57999L20.52 9.36999C20.6579 9.38991 20.7873 9.44834 20.8935 9.53856C20.9996 9.62878 21.0781 9.74713 21.12 9.87999C21.1647 10.0124 21.1715 10.1546 21.1397 10.2906C21.1079 10.4267 21.0387 10.5512 20.94 10.65L17 14.47L17.93 19.87C17.9536 20.009 17.938 20.1519 17.885 20.2826C17.832 20.4133 17.7437 20.5266 17.63 20.61C17.5034 20.6976 17.3539 20.7462 17.2 20.75ZM12 16.52C12.121 16.5214 12.2403 16.5487 12.35 16.6L16.2 18.6L15.47 14.31C15.4502 14.1897 15.4589 14.0664 15.4953 13.95C15.5318 13.8337 15.5951 13.7275 15.68 13.64L18.8 10.64L14.49 9.99999C14.3708 9.98103 14.2578 9.93395 14.1605 9.86265C14.0631 9.79135 13.9841 9.69789 13.93 9.58999L12 5.68999L10.07 9.59999C10.0159 9.70789 9.9369 9.80135 9.83952 9.87265C9.74214 9.94395 9.62918 9.99103 9.50999 10.01L5.19999 10.64L8.31999 13.64C8.40493 13.7275 8.46817 13.8337 8.50464 13.95C8.54111 14.0664 8.54979 14.1897 8.52999 14.31L7.79999 18.63L11.65 16.63C11.7573 16.5683 11.8767 16.5307 12 16.52V16.52Z" fill="currentColor"/>
</g>
</g>
</svg>
