<svg width="24" height="24" viewBox="0 0 24 24" fill="none" xmlns="http://www.w3.org/2000/svg">
<g >
<g id="step-forward">
<g >
<path  d="M8 19.75C7.90031 19.7494 7.80172 19.7291 7.71 19.69C7.57319 19.6341 7.45625 19.5384 7.37427 19.4155C7.29228 19.2925 7.249 19.1478 7.25 19V4.99998C7.249 4.85218 7.29228 4.70747 7.37427 4.58449C7.45625 4.46151 7.57319 4.3659 7.71 4.30998C7.84714 4.25231 7.99833 4.23673 8.14434 4.26523C8.29036 4.29372 8.4246 4.36499 8.53 4.46998L15.53 11.47C15.6705 11.6106 15.7493 11.8012 15.7493 12C15.7493 12.1987 15.6705 12.3894 15.53 12.53L8.53 19.53C8.38828 19.6689 8.19842 19.7477 8 19.75V19.75ZM8.75 6.80998V17.19L13.94 12L8.75 6.80998Z" fill="currentColor"/>
</g>
<path  d="M16 19.75C15.8019 19.7474 15.6126 19.6676 15.4725 19.5275C15.3324 19.3874 15.2526 19.1981 15.25 19V5C15.25 4.80109 15.329 4.61032 15.4697 4.46967C15.6103 4.32902 15.8011 4.25 16 4.25C16.1989 4.25 16.3897 4.32902 16.5303 4.46967C16.671 4.61032 16.75 4.80109 16.75 5V19C16.7474 19.1981 16.6676 19.3874 16.5275 19.5275C16.3874 19.6676 16.1981 19.7474 16 19.75V19.75Z" fill="currentColor"/>
</g>
</g>
</svg>
