<svg width="24" height="24" viewBox="0 0 24 24" fill="none" xmlns="http://www.w3.org/2000/svg">
<g >
<g id="step-backward-alt">
<g >
<path  d="M8 19.5C7.80189 19.4974 7.61263 19.4176 7.47253 19.2775C7.33244 19.1374 7.25259 18.9481 7.25 18.75V4.75C7.25 4.55109 7.32902 4.36032 7.46967 4.21967C7.61032 4.07902 7.80109 4 8 4C8.19891 4 8.38968 4.07902 8.53033 4.21967C8.67098 4.36032 8.75 4.55109 8.75 4.75V18.75C8.74741 18.9481 8.66756 19.1374 8.52747 19.2775C8.38737 19.4176 8.19811 19.4974 8 19.5V19.5Z" fill="currentColor"/>
</g>
<g >
<path  d="M16 20C15.8016 19.9977 15.6117 19.9189 15.47 19.78L8.47001 12.78C8.32956 12.6394 8.25067 12.4488 8.25067 12.25C8.25067 12.0513 8.32956 11.8606 8.47001 11.72L15.47 4.72001C15.5749 4.61526 15.7085 4.54393 15.8539 4.51505C15.9993 4.48616 16.15 4.50101 16.2869 4.55773C16.4239 4.61444 16.541 4.71046 16.6234 4.83368C16.7058 4.9569 16.7499 5.10177 16.75 5.25001V19.25C16.751 19.3978 16.7077 19.5425 16.6257 19.6655C16.5438 19.7885 16.4268 19.8841 16.29 19.94C16.1983 19.9791 16.0997 19.9995 16 20V20ZM10.06 12.25L15.25 17.44V7.06001L10.06 12.25Z" fill="currentColor"/>
</g>
</g>
</g>
</svg>
