<svg width="24" height="24" viewBox="0 0 24 24" fill="none" xmlns="http://www.w3.org/2000/svg">
<g >
<g id="step-backward">
<g >
<path  d="M16 19.75C15.8015 19.7477 15.6117 19.6689 15.47 19.53L8.46995 12.53C8.3295 12.3894 8.25061 12.1987 8.25061 12C8.25061 11.8012 8.3295 11.6106 8.46995 11.47L15.47 4.46998C15.5754 4.36499 15.7096 4.29372 15.8556 4.26523C16.0016 4.23673 16.1528 4.25231 16.29 4.30998C16.4268 4.3659 16.5437 4.46151 16.6257 4.58449C16.7077 4.70747 16.751 4.85218 16.75 4.99998V19C16.751 19.1478 16.7077 19.2925 16.6257 19.4155C16.5437 19.5384 16.4268 19.6341 16.29 19.69C16.1982 19.7291 16.0996 19.7494 16 19.75ZM10.06 12L15.25 17.19V6.80998L10.06 12Z" fill="currentColor"/>
</g>
<path  d="M8 19.75C7.80189 19.7474 7.61263 19.6676 7.47253 19.5275C7.33244 19.3874 7.25259 19.1981 7.25 19V5C7.25 4.80109 7.32902 4.61032 7.46967 4.46967C7.61032 4.32902 7.80109 4.25 8 4.25C8.19891 4.25 8.38968 4.32902 8.53033 4.46967C8.67098 4.61032 8.75 4.80109 8.75 5V19C8.74741 19.1981 8.66756 19.3874 8.52747 19.5275C8.38737 19.6676 8.19811 19.7474 8 19.75V19.75Z" fill="currentColor"/>
</g>
</g>
</svg>
