<svg width="24" height="24" viewBox="0 0 24 24" fill="none" xmlns="http://www.w3.org/2000/svg">
<g >
<g id="step-forward-alt">
<g >
<path  d="M16 19.5C15.8019 19.4974 15.6126 19.4176 15.4725 19.2775C15.3324 19.1374 15.2526 18.9481 15.25 18.75V4.75C15.25 4.55109 15.329 4.36032 15.4697 4.21967C15.6103 4.07902 15.8011 4 16 4C16.1989 4 16.3897 4.07902 16.5303 4.21967C16.671 4.36032 16.75 4.55109 16.75 4.75V18.75C16.7474 18.9481 16.6676 19.1374 16.5275 19.2775C16.3874 19.4176 16.1981 19.4974 16 19.5V19.5Z" fill="currentColor"/>
</g>
<g >
<path  d="M8 20C7.90031 19.9994 7.80172 19.9791 7.71 19.94C7.57319 19.8841 7.45625 19.7884 7.37427 19.6655C7.29228 19.5425 7.249 19.3978 7.25 19.25V5.24998C7.249 5.10218 7.29228 4.95747 7.37427 4.83449C7.45625 4.71151 7.57319 4.6159 7.71 4.55998C7.84714 4.50231 7.99833 4.48673 8.14434 4.51523C8.29036 4.54372 8.4246 4.61499 8.53 4.71998L15.53 11.72C15.6705 11.8606 15.7493 12.0512 15.7493 12.25C15.7493 12.4487 15.6705 12.6394 15.53 12.78L8.53 19.78C8.38948 19.9207 8.19885 19.9998 8 20V20ZM8.75 7.05998V17.44L13.94 12.25L8.75 7.05998Z" fill="currentColor"/>
</g>
</g>
</g>
</svg>
