<svg xmlns="http://www.w3.org/2000/svg" viewBox="0 0 24 24" fill="currentColor" ><path d="M12 17.75a5.75 5.75 0 0 1-4.066-9.816A5.75 5.75 0 0 1 17.75 12 5.76 5.76 0 0 1 12 17.75h0zm0-10a4.25 4.25 0 0 0-3.005 7.256A4.25 4.25 0 0 0 16.25 12 4.26 4.26 0 0 0 12 7.75h0zM12 5a.76.76 0 0 1-.75-.75v-1.5a.75.75 0 1 1 1.5 0v1.5A.76.76 0 0 1 12 5h0zm0 17a.76.76 0 0 1-.75-.75v-1.5a.75.75 0 1 1 1.5 0v1.5A.76.76 0 0 1 12 22h0zm9.25-9.25h-1.5a.75.75 0 1 1 0-1.5h1.5a.75.75 0 1 1 0 1.5zm-17 0h-1.5a.75.75 0 1 1 0-1.5h1.5a.75.75 0 1 1 0 1.5zm2.25-5.5A.74.74 0 0 1 6 7L4.91 6a.77.77 0 0 1 0-1.09.77.77 0 0 1 1.09 0L7 6a.75.75 0 0 1 0 1 .74.74 0 0 1-.5.25h0zm12.06 12.06a.74.74 0 0 1-.53-.22L17 18a.75.75 0 0 1 1-1l1.09 1a.75.75 0 0 1 0 1.06.74.74 0 0 1-.53.25h0z"/><path d="M17.5 7.25A.74.74 0 0 1 17 7a.75.75 0 0 1 0-1l1-1.09A.77.77 0 1 1 19.09 6L18 7a.74.74 0 0 1-.5.25h0zM5.44 19.31a.74.74 0 0 1-.53-.22.75.75 0 0 1 0-1.06L6 17a.75.75 0 0 1 1 1l-1 1.09a.74.74 0 0 1-.56.22h0z"/></svg>