<svg width="24" height="24" viewBox="0 0 24 24" fill="none" xmlns="http://www.w3.org/2000/svg">
<path d="M3.49986 21.5C4.54368 21.5 5.38986 20.6538 5.38986 19.61C5.38986 18.5662 4.54368 17.72 3.49986 17.72C2.45605 17.72 1.60986 18.5662 1.60986 19.61C1.60986 20.6538 2.45605 21.5 3.49986 21.5Z" stroke="black" stroke-miterlimit="10"/>
<path d="M12.9701 21.5C14.0139 21.5 14.8601 20.6538 14.8601 19.61C14.8601 18.5662 14.0139 17.72 12.9701 17.72C11.9263 17.72 11.0801 18.5662 11.0801 19.61C11.0801 20.6538 11.9263 21.5 12.9701 21.5Z" stroke="black" stroke-miterlimit="10"/>
<path d="M14.8699 11.08V19.61C14.8888 19.3496 14.8538 19.0881 14.7672 18.8417C14.6805 18.5954 14.544 18.3696 14.3662 18.1784C14.1884 17.9872 13.9731 17.8347 13.7337 17.7304C13.4943 17.6261 13.236 17.5723 12.9749 17.5723C12.7137 17.5723 12.4554 17.6261 12.216 17.7304C11.9767 17.8347 11.7613 17.9872 11.5835 18.1784C11.4057 18.3696 11.2692 18.5954 11.1825 18.8417C11.0959 19.0881 11.0609 19.3496 11.0799 19.61H5.38986C5.38986 19.1088 5.19074 18.628 4.8363 18.2736C4.48185 17.9192 4.00112 17.72 3.49986 17.72C2.9986 17.72 2.51788 17.9192 2.16343 18.2736C1.80899 18.628 1.60986 19.1088 1.60986 19.61V13.92H10.1299C10.1312 13.5449 10.2065 13.1737 10.3516 12.8278C10.4966 12.4819 10.7086 12.168 10.9752 11.9041C11.2418 11.6403 11.5579 11.4317 11.9054 11.2903C12.2528 11.1488 12.6248 11.0774 12.9999 11.08H14.8699Z" stroke="black" stroke-miterlimit="10"/>
<path d="M14.8699 11.08H12.9999C12.2475 11.0826 11.5266 11.3827 10.9946 11.9147C10.4626 12.4468 10.1625 13.1676 10.1599 13.92H1.60986V3.5H7.28986C9.3002 3.5 11.2282 4.2986 12.6497 5.72013C14.0713 7.14166 14.8699 9.06966 14.8699 11.08Z" stroke="black" stroke-miterlimit="10"/>
<path d="M4.4502 10.13V13.92" stroke="black" stroke-miterlimit="10"/>
<path d="M11.5002 11.5L9.66016 9.65997" stroke="black" stroke-miterlimit="10"/>
<path d="M11.08 8.23999L8.70996 10.61" stroke="black" stroke-miterlimit="10"/>
<path d="M18.6601 13.92H14.8701V19.6H18.6601V13.92Z" stroke="black" stroke-miterlimit="10"/>
<path d="M18.6602 19.61V13.92V3.5" stroke="black" stroke-miterlimit="10"/>
<path d="M23.3902 19.61H18.6602" stroke="black" stroke-miterlimit="10"/>
</svg>
