<svg width="24" height="24" viewBox="0 0 24 24" fill="none" xmlns="http://www.w3.org/2000/svg">
<g >
<g id="table">
<path  d="M18 4.25H6C5.27065 4.25 4.57118 4.53973 4.05546 5.05546C3.53973 5.57118 3.25 6.27065 3.25 7V17C3.25 17.7293 3.53973 18.4288 4.05546 18.9445C4.57118 19.4603 5.27065 19.75 6 19.75H18C18.7293 19.75 19.4288 19.4603 19.9445 18.9445C20.4603 18.4288 20.75 17.7293 20.75 17V7C20.75 6.27065 20.4603 5.57118 19.9445 5.05546C19.4288 4.53973 18.7293 4.25 18 4.25ZM19.25 7V11.25H12.75V5.75H18C18.3315 5.75 18.6495 5.8817 18.8839 6.11612C19.1183 6.35054 19.25 6.66848 19.25 7V7ZM6 5.75H11.25V11.25H4.75V7C4.75 6.66848 4.8817 6.35054 5.11612 6.11612C5.35054 5.8817 5.66848 5.75 6 5.75V5.75ZM4.75 17V12.75H11.25V18.25H6C5.66848 18.25 5.35054 18.1183 5.11612 17.8839C4.8817 17.6495 4.75 17.3315 4.75 17V17ZM18 18.25H12.75V12.75H19.25V17C19.25 17.3315 19.1183 17.6495 18.8839 17.8839C18.6495 18.1183 18.3315 18.25 18 18.25Z" fill="currentColor"/>
</g>
</g>
</svg>
