<svg width="24" height="24" viewBox="0 0 24 24" fill="none" xmlns="http://www.w3.org/2000/svg">
<g >
<g id="tag">
<path  d="M19.32 10.72L12.84 4.24001C12.7721 4.16672 12.6902 4.10773 12.5992 4.06652C12.5082 4.02531 12.4099 4.00269 12.31 4.00001H4.77001C4.66852 3.99866 4.56778 4.01766 4.47376 4.05588C4.37973 4.0941 4.29431 4.15077 4.22254 4.22254C4.15077 4.29431 4.0941 4.37973 4.05588 4.47376C4.01766 4.56778 3.99866 4.66852 4.00001 4.77001V12.31C4.0018 12.5115 4.0805 12.7046 4.22001 12.85L10.7 19.32C11.1236 19.742 11.6971 19.9789 12.295 19.9789C12.8929 19.9789 13.4664 19.742 13.89 19.32L19.3 13.91C19.7246 13.4891 19.9652 12.917 19.9689 12.3191C19.9727 11.7212 19.7393 11.1462 19.32 10.72V10.72ZM18.26 12.85L12.85 18.26C12.7064 18.3987 12.5146 18.4762 12.315 18.4762C12.1154 18.4762 11.9236 18.3987 11.78 18.26L5.52001 12V5.52001H12L18.26 11.78C18.3987 11.9236 18.4762 12.1154 18.4762 12.315C18.4762 12.5146 18.3987 12.7064 18.26 12.85V12.85Z" fill="currentColor"/>
<path  d="M8.5 9.75C9.19036 9.75 9.75 9.19036 9.75 8.5C9.75 7.80964 9.19036 7.25 8.5 7.25C7.80964 7.25 7.25 7.80964 7.25 8.5C7.25 9.19036 7.80964 9.75 8.5 9.75Z" fill="currentColor"/>
</g>
</g>
</svg>
