<svg width="24" height="24" viewBox="0 0 24 24" fill="none" xmlns="http://www.w3.org/2000/svg">
<g >
<g id="tags">
<path  d="M21.07 10.3L15.07 4.30002C14.9295 4.15932 14.7388 4.08019 14.54 4.08002H3C2.80189 4.08261 2.61263 4.16246 2.47253 4.30255C2.33244 4.44265 2.25259 4.63191 2.25 4.83002V12.71C2.25018 12.9089 2.32931 13.0995 2.47 13.24L8.47 19.24C8.68619 19.4571 8.94341 19.629 9.22668 19.7458C9.50995 19.8625 9.81362 19.9218 10.12 19.92C10.7348 19.9176 11.3239 19.6733 11.76 19.24L12 19C12.0406 19.0824 12.0909 19.1597 12.15 19.23C12.5867 19.6654 13.1783 19.9099 13.795 19.9099C14.4117 19.9099 15.0032 19.6654 15.44 19.23L21.09 13.57C21.5167 13.1315 21.7537 12.5427 21.75 11.9309C21.7463 11.3191 21.502 10.7333 21.07 10.3V10.3ZM10.7 18.17C10.6244 18.249 10.5336 18.3118 10.433 18.3547C10.3325 18.3976 10.2243 18.4198 10.115 18.4198C10.0057 18.4198 9.8975 18.3976 9.79696 18.3547C9.69642 18.3118 9.60561 18.249 9.53 18.17L3.75 12.4V5.58002H10.57L16.35 11.36C16.5045 11.5155 16.5912 11.7258 16.5912 11.945C16.5912 12.1642 16.5045 12.3745 16.35 12.53L10.7 18.17ZM20 12.52L14.35 18.17C14.2737 18.2477 14.1826 18.3094 14.0822 18.3516C13.9817 18.3937 13.8739 18.4154 13.765 18.4154C13.6561 18.4154 13.5483 18.3937 13.4478 18.3516C13.3474 18.3094 13.2563 18.2477 13.18 18.17C13.134 18.1002 13.0724 18.042 13 18L17.44 13.55C17.8724 13.1137 18.1149 12.5243 18.1149 11.91C18.1149 11.2958 17.8724 10.7063 17.44 10.27L12.69 5.58002H14.23L20 11.36C20.0762 11.4362 20.1366 11.5266 20.1779 11.6261C20.2191 11.7256 20.2403 11.8323 20.2403 11.94C20.2403 12.0477 20.2191 12.1544 20.1779 12.2539C20.1366 12.3534 20.0762 12.4439 20 12.52Z" fill="currentColor"/>
<path  d="M7 9.75C7.69036 9.75 8.25 9.19036 8.25 8.5C8.25 7.80964 7.69036 7.25 7 7.25C6.30964 7.25 5.75 7.80964 5.75 8.5C5.75 9.19036 6.30964 9.75 7 9.75Z" fill="currentColor"/>
</g>
</g>
</svg>
