<svg width="24" height="24" viewBox="0 0 24 24" fill="none" xmlns="http://www.w3.org/2000/svg">
<path d="M15.8199 12.9299H8.16992V22.4999H15.8199V12.9299Z" stroke="black" stroke-miterlimit="10"/>
<path d="M22.5301 16.76H15.8301V22.5H22.5301V16.76Z" stroke="black" stroke-miterlimit="10"/>
<path d="M8.17998 18.6699H1.47998V22.4999H8.17998V18.6699Z" stroke="black" stroke-miterlimit="10"/>
<path d="M11.9998 5.27996C13.0547 5.27996 13.9098 4.42482 13.9098 3.36996C13.9098 2.3151 13.0547 1.45996 11.9998 1.45996C10.945 1.45996 10.0898 2.3151 10.0898 3.36996C10.0898 4.42482 10.945 5.27996 11.9998 5.27996Z" stroke="black" stroke-miterlimit="10"/>
<path d="M9.12988 11.02V7.19995H14.8699V11.02" stroke="black" stroke-miterlimit="10"/>
<path d="M14.8701 7.2H15.8301L17.7401 5.28V0.5" stroke="black" stroke-miterlimit="10"/>
<path d="M9.12977 7.2H8.16977L6.25977 5.28V0.5" stroke="black" stroke-miterlimit="10"/>
</svg>
