<svg width="24" height="24" viewBox="0 0 24 24" fill="none" xmlns="http://www.w3.org/2000/svg">
<path d="M10.09 20.59C14.8341 20.59 18.68 16.7441 18.68 12C18.68 7.25585 14.8341 3.40997 10.09 3.40997C5.34587 3.40997 1.5 7.25585 1.5 12C1.5 16.7441 5.34587 20.59 10.09 20.59Z" stroke="black" stroke-miterlimit="10"/>
<path d="M10.0898 16.77C12.7242 16.77 14.8598 14.6344 14.8598 12C14.8598 9.36558 12.7242 7.22998 10.0898 7.22998C7.45543 7.22998 5.31982 9.36558 5.31982 12C5.31982 14.6344 7.45543 16.77 10.0898 16.77Z" stroke="black" stroke-miterlimit="10"/>
<path d="M10.0898 12H20.5898" stroke="black" stroke-miterlimit="10"/>
<path d="M22.4998 10.09L20.5898 12" stroke="black" stroke-miterlimit="10"/>
<path d="M22.4998 13.91L20.5898 12" stroke="black" stroke-miterlimit="10"/>
<path d="M10.0901 12.95C10.6148 12.95 11.0401 12.5247 11.0401 12C11.0401 11.4753 10.6148 11.05 10.0901 11.05C9.56547 11.05 9.14014 11.4753 9.14014 12C9.14014 12.5247 9.56547 12.95 10.0901 12.95Z" stroke="black" stroke-miterlimit="10"/>
</svg>
