<svg width="24" height="24" viewBox="0 0 24 24" fill="none" xmlns="http://www.w3.org/2000/svg">
<g >
<g id="th-large">
<path  d="M9 11.25H6C5.40326 11.25 4.83097 11.0129 4.40901 10.591C3.98705 10.169 3.75 9.59674 3.75 9V6C3.75 5.40326 3.98705 4.83097 4.40901 4.40901C4.83097 3.98705 5.40326 3.75 6 3.75H9C9.59674 3.75 10.169 3.98705 10.591 4.40901C11.0129 4.83097 11.25 5.40326 11.25 6V9C11.25 9.59674 11.0129 10.169 10.591 10.591C10.169 11.0129 9.59674 11.25 9 11.25ZM6 5.25C5.80189 5.25259 5.61263 5.33244 5.47253 5.47253C5.33244 5.61263 5.25259 5.80189 5.25 6V9C5.25259 9.19811 5.33244 9.38737 5.47253 9.52747C5.61263 9.66756 5.80189 9.74741 6 9.75H9C9.19811 9.74741 9.38737 9.66756 9.52747 9.52747C9.66756 9.38737 9.74741 9.19811 9.75 9V6C9.74741 5.80189 9.66756 5.61263 9.52747 5.47253C9.38737 5.33244 9.19811 5.25259 9 5.25H6Z" fill="currentColor"/>
<path  d="M9 20.25H6C5.40326 20.25 4.83097 20.0129 4.40901 19.591C3.98705 19.169 3.75 18.5967 3.75 18V15C3.75 14.4033 3.98705 13.831 4.40901 13.409C4.83097 12.9871 5.40326 12.75 6 12.75H9C9.59674 12.75 10.169 12.9871 10.591 13.409C11.0129 13.831 11.25 14.4033 11.25 15V18C11.25 18.5967 11.0129 19.169 10.591 19.591C10.169 20.0129 9.59674 20.25 9 20.25ZM6 14.25C5.80189 14.2526 5.61263 14.3324 5.47253 14.4725C5.33244 14.6126 5.25259 14.8019 5.25 15V18C5.25259 18.1981 5.33244 18.3874 5.47253 18.5275C5.61263 18.6676 5.80189 18.7474 6 18.75H9C9.19811 18.7474 9.38737 18.6676 9.52747 18.5275C9.66756 18.3874 9.74741 18.1981 9.75 18V15C9.74741 14.8019 9.66756 14.6126 9.52747 14.4725C9.38737 14.3324 9.19811 14.2526 9 14.25H6Z" fill="currentColor"/>
<path   d="M18 11.25H15C14.4033 11.25 13.831 11.0129 13.409 10.591C12.9871 10.169 12.75 9.59674 12.75 9V6C12.75 5.40326 12.9871 4.83097 13.409 4.40901C13.831 3.98705 14.4033 3.75 15 3.75H18C18.5967 3.75 19.169 3.98705 19.591 4.40901C20.0129 4.83097 20.25 5.40326 20.25 6V9C20.25 9.59674 20.0129 10.169 19.591 10.591C19.169 11.0129 18.5967 11.25 18 11.25ZM15 5.25C14.8019 5.25259 14.6126 5.33244 14.4725 5.47253C14.3324 5.61263 14.2526 5.80189 14.25 6V9C14.2526 9.19811 14.3324 9.38737 14.4725 9.52747C14.6126 9.66756 14.8019 9.74741 15 9.75H18C18.1981 9.74741 18.3874 9.66756 18.5275 9.52747C18.6676 9.38737 18.7474 9.19811 18.75 9V6C18.7474 5.80189 18.6676 5.61263 18.5275 5.47253C18.3874 5.33244 18.1981 5.25259 18 5.25H15Z" fill="currentColor"/>
<path   d="M18 20.25H15C14.4033 20.25 13.831 20.0129 13.409 19.591C12.9871 19.169 12.75 18.5967 12.75 18V15C12.75 14.4033 12.9871 13.831 13.409 13.409C13.831 12.9871 14.4033 12.75 15 12.75H18C18.5967 12.75 19.169 12.9871 19.591 13.409C20.0129 13.831 20.25 14.4033 20.25 15V18C20.25 18.5967 20.0129 19.169 19.591 19.591C19.169 20.0129 18.5967 20.25 18 20.25ZM15 14.25C14.8019 14.2526 14.6126 14.3324 14.4725 14.4725C14.3324 14.6126 14.2526 14.8019 14.25 15V18C14.2526 18.1981 14.3324 18.3874 14.4725 18.5275C14.6126 18.6676 14.8019 18.7474 15 18.75H18C18.1981 18.7474 18.3874 18.6676 18.5275 18.5275C18.6676 18.3874 18.7474 18.1981 18.75 18V15C18.7474 14.8019 18.6676 14.6126 18.5275 14.4725C18.3874 14.3324 18.1981 14.2526 18 14.25H15Z" fill="currentColor"/>
</g>
</g>
</svg>
