<svg width="24" height="24" viewBox="0 0 24 24" fill="none" xmlns="http://www.w3.org/2000/svg">
<g >
<g id="thumbs-up">
<path  d="M17.25 20.75H5.63C5.00223 20.75 4.39988 20.502 3.95412 20.06C3.50835 19.618 3.25528 19.0177 3.25 18.39V12.75C3.25264 12.1205 3.50456 11.5177 3.95061 11.0735C4.39666 10.6294 5.00051 10.38 5.63 10.38H7.63L10.36 4.28999C10.5465 3.87374 10.8881 3.54673 11.3121 3.37863C11.7361 3.21052 12.209 3.2146 12.63 3.38999C13.1927 3.63927 13.6704 4.04744 14.0043 4.56439C14.3383 5.08133 14.5141 5.68455 14.51 6.29999V8.76999H18.51C18.5663 8.76048 18.6237 8.76048 18.68 8.76999C19.3139 8.89217 19.8783 9.24935 20.26 9.76999C20.6206 10.251 20.7785 10.854 20.7 11.45L19.6 18.74C19.5119 19.3 19.2267 19.8102 18.7959 20.1786C18.3651 20.5471 17.8169 20.7497 17.25 20.75V20.75ZM8.82 19.25H17.25C17.4584 19.2527 17.6609 19.1805 17.8205 19.0465C17.9802 18.9125 18.0865 18.7257 18.12 18.52L19.24 11.26C19.2538 11.1606 19.2467 11.0595 19.2192 10.9631C19.1916 10.8667 19.1442 10.777 19.08 10.7C18.9176 10.4852 18.6833 10.3361 18.42 10.28H13.75C13.6503 10.2814 13.5513 10.2626 13.459 10.2248C13.3667 10.1869 13.2831 10.1308 13.213 10.0598C13.143 9.98885 13.088 9.90444 13.0514 9.81167C13.0148 9.7189 12.9973 9.61968 13 9.51999V6.29999C13.0013 5.97508 12.9073 5.65693 12.7295 5.38496C12.5518 5.11299 12.2981 4.89916 12 4.76999C11.9416 4.74674 11.8764 4.74734 11.8184 4.77165C11.7605 4.79596 11.7144 4.84204 11.69 4.89999L8.82 11.29V19.25ZM5.63 11.88C5.51491 11.8787 5.4007 11.9002 5.29399 11.9433C5.18728 11.9864 5.09019 12.0503 5.00834 12.1312C4.92649 12.2122 4.86151 12.3085 4.81717 12.4147C4.77282 12.5209 4.74999 12.6349 4.75 12.75V18.39C4.75131 18.5042 4.7751 18.6171 4.82004 18.7222C4.86497 18.8272 4.93015 18.9224 5.01187 19.0023C5.09359 19.0821 5.19024 19.1451 5.2963 19.1876C5.40235 19.2301 5.51575 19.2513 5.63 19.25H7.32V11.88H5.63Z" fill="currentColor"/>
</g>
</g>
</svg>
