<svg width="24" height="24" viewBox="0 0 24 24" fill="none" xmlns="http://www.w3.org/2000/svg">
<g >
<g id="thumbs-down">
<path  d="M12.09 20.75C11.859 20.7539 11.6301 20.706 11.42 20.61C10.848 20.3683 10.3598 19.9633 10.0166 19.4458C9.67331 18.9283 9.49016 18.321 9.49001 17.7V15.23H5.49001C5.43374 15.2395 5.37627 15.2395 5.32001 15.23C4.68609 15.1078 4.12174 14.7506 3.74001 14.23C3.37845 13.7495 3.22041 13.1461 3.30001 12.55L4.40001 5.26001C4.49029 4.70183 4.77635 4.19402 5.20695 3.82755C5.63756 3.46107 6.18457 3.25988 6.75001 3.26001H18.37C18.9978 3.25999 19.6001 3.50799 20.0459 3.95001C20.4917 4.39203 20.7447 4.99227 20.75 5.62001V11.26C20.7474 11.8895 20.4954 12.4923 20.0494 12.9365C19.6033 13.3806 18.9995 13.63 18.37 13.63H16.42L13.69 19.72C13.5491 20.0262 13.3236 20.2858 13.0402 20.4683C12.7568 20.6508 12.4271 20.7485 12.09 20.75V20.75ZM5.58001 13.75H10.25C10.348 13.75 10.4451 13.7695 10.5355 13.8073C10.626 13.8451 10.708 13.9005 10.7768 13.9703C10.8457 14.0401 10.9 14.1228 10.9366 14.2138C10.9732 14.3047 10.9913 14.402 10.99 14.5V17.7C10.9887 18.0249 11.0827 18.3431 11.2605 18.615C11.4382 18.887 11.6919 19.1008 11.99 19.23C12.0484 19.2533 12.1136 19.2527 12.1716 19.2283C12.2295 19.204 12.2757 19.158 12.3 19.1L15.17 12.71V4.71001H6.75001C6.54159 4.7073 6.33913 4.7795 6.17946 4.91347C6.01979 5.04745 5.91353 5.23429 5.88001 5.44001L4.76001 12.74C4.7462 12.8393 4.7533 12.9405 4.78086 13.0369C4.80841 13.1333 4.85581 13.223 4.92001 13.3C5.08237 13.5148 5.31668 13.6639 5.58001 13.72V13.75ZM16.69 12.15H18.37C18.4851 12.1513 18.5993 12.1298 18.706 12.0867C18.8127 12.0435 18.9098 11.9797 18.9917 11.8988C19.0735 11.8178 19.1385 11.7215 19.1828 11.6153C19.2272 11.5091 19.25 11.3951 19.25 11.28V5.61001C19.2487 5.49576 19.2249 5.38288 19.18 5.27783C19.135 5.17277 19.0699 5.0776 18.9881 4.99774C18.9064 4.91788 18.8098 4.8549 18.7037 4.81239C18.5977 4.76989 18.4843 4.74869 18.37 4.75001H16.69V12.15Z" fill="currentColor"/>
</g>
</g>
</svg>
