<svg width="24" height="24" viewBox="0 0 24 24" fill="none" xmlns="http://www.w3.org/2000/svg">
<g >
<g id="ticket">
<path  d="M19 18.75H5C4.53668 18.7474 4.09309 18.5622 3.76546 18.2345C3.43784 17.9069 3.25263 17.4633 3.25 17V14.5C3.25259 14.3019 3.33244 14.1126 3.47253 13.9725C3.61263 13.8324 3.80189 13.7526 4 13.75C4.46413 13.75 4.90925 13.5656 5.23744 13.2374C5.56563 12.9092 5.75 12.4641 5.75 12C5.75 11.5359 5.56563 11.0908 5.23744 10.7626C4.90925 10.4344 4.46413 10.25 4 10.25C3.80189 10.2474 3.61263 10.1676 3.47253 10.0275C3.33244 9.88737 3.25259 9.69811 3.25 9.5V7C3.25263 6.53668 3.43784 6.09309 3.76546 5.76546C4.09309 5.43784 4.53668 5.25263 5 5.25H19C19.4633 5.25263 19.9069 5.43784 20.2345 5.76546C20.5622 6.09309 20.7474 6.53668 20.75 7V9.5C20.7474 9.69811 20.6676 9.88737 20.5275 10.0275C20.3874 10.1676 20.1981 10.2474 20 10.25C19.5359 10.25 19.0908 10.4344 18.7626 10.7626C18.4344 11.0908 18.25 11.5359 18.25 12C18.25 12.4641 18.4344 12.9092 18.7626 13.2374C19.0908 13.5656 19.5359 13.75 20 13.75C20.1981 13.7526 20.3874 13.8324 20.5275 13.9725C20.6676 14.1126 20.7474 14.3019 20.75 14.5V17C20.7474 17.4633 20.5622 17.9069 20.2345 18.2345C19.9069 18.5622 19.4633 18.7474 19 18.75V18.75ZM4.75 15.16V17C4.75 17.0663 4.77634 17.1299 4.82322 17.1768C4.87011 17.2237 4.9337 17.25 5 17.25H19C19.0663 17.25 19.1299 17.2237 19.1768 17.1768C19.2237 17.1299 19.25 17.0663 19.25 17V15.16C18.5403 14.9894 17.9088 14.5849 17.457 14.0117C17.0052 13.4385 16.7595 12.7299 16.7595 12C16.7595 11.2701 17.0052 10.5615 17.457 9.98829C17.9088 9.41505 18.5403 9.01057 19.25 8.84V7C19.25 6.9337 19.2237 6.87011 19.1768 6.82322C19.1299 6.77634 19.0663 6.75 19 6.75H5C4.9337 6.75 4.87011 6.77634 4.82322 6.82322C4.77634 6.87011 4.75 6.9337 4.75 7V8.84C5.45965 9.01057 6.09123 9.41505 6.54301 9.98829C6.99479 10.5615 7.24046 11.2701 7.24046 12C7.24046 12.7299 6.99479 13.4385 6.54301 14.0117C6.09123 14.5849 5.45965 14.9894 4.75 15.16V15.16Z" fill="currentColor"/>
</g>
</g>
</svg>
