<svg width="24" height="24" viewBox="0 0 24 24" fill="none" xmlns="http://www.w3.org/2000/svg">
<path d="M13.06 12L17.48 7.58002C17.5537 7.51136 17.6128 7.42856 17.6538 7.33656C17.6948 7.24456 17.7168 7.14525 17.7186 7.04454C17.7204 6.94384 17.7018 6.84381 17.6641 6.75042C17.6264 6.65703 17.5703 6.5722 17.499 6.50098C17.4278 6.42976 17.343 6.37362 17.2496 6.3359C17.1562 6.29818 17.0562 6.27965 16.9555 6.28143C16.8548 6.2832 16.7555 6.30525 16.6635 6.34624C16.5715 6.38723 16.4887 6.44633 16.42 6.52002L12 10.94L7.58 6.52002C7.43782 6.38754 7.24978 6.31542 7.05548 6.31884C6.86118 6.32227 6.67579 6.40098 6.53838 6.5384C6.40096 6.67581 6.32225 6.8612 6.31882 7.0555C6.3154 7.2498 6.38752 7.43784 6.52 7.58002L10.94 12L6.52 16.42C6.37955 16.5606 6.30066 16.7513 6.30066 16.95C6.30066 17.1488 6.37955 17.3394 6.52 17.48C6.66062 17.6205 6.85125 17.6994 7.05 17.6994C7.24875 17.6994 7.43937 17.6205 7.58 17.48L12 13.06L16.42 17.48C16.5606 17.6205 16.7512 17.6994 16.95 17.6994C17.1488 17.6994 17.3394 17.6205 17.48 17.48C17.6204 17.3394 17.6993 17.1488 17.6993 16.95C17.6993 16.7513 17.6204 16.5606 17.48 16.42L13.06 12Z" fill="currentColor"/>
</svg>
