<svg width="24" height="24" viewBox="0 0 24 24" fill="none" xmlns="http://www.w3.org/2000/svg">
<g >
<g id="trash">
<path  d="M20 8.70001H4C3.90151 8.70001 3.80398 8.68061 3.71299 8.64292C3.62199 8.60523 3.53931 8.54999 3.46967 8.48034C3.40003 8.4107 3.34478 8.32802 3.30709 8.23703C3.2694 8.14603 3.25 8.0485 3.25 7.95001C3.25 7.85152 3.2694 7.75399 3.30709 7.663C3.34478 7.57201 3.40003 7.48933 3.46967 7.41968C3.53931 7.35004 3.62199 7.29479 3.71299 7.2571C3.80398 7.21941 3.90151 7.20001 4 7.20001H20C20.1989 7.20001 20.3897 7.27903 20.5303 7.41968C20.671 7.56033 20.75 7.7511 20.75 7.95001C20.75 8.14892 20.671 8.33969 20.5303 8.48034C20.3897 8.621 20.1989 8.70001 20 8.70001V8.70001Z" fill="currentColor"/>
<path  d="M16.44 20.75H7.56C7.24309 20.7717 6.92503 20.7302 6.62427 20.628C6.3235 20.5259 6.04601 20.365 5.80788 20.1548C5.56975 19.9446 5.37572 19.6892 5.23704 19.4034C5.09836 19.1176 5.01779 18.8071 5 18.49V7.99998C5 7.80107 5.07902 7.61031 5.21967 7.46965C5.36032 7.329 5.55109 7.24998 5.75 7.24998C5.94891 7.24998 6.13968 7.329 6.28033 7.46965C6.42098 7.61031 6.5 7.80107 6.5 7.99998V18.49C6.5 18.9 6.97 19.25 7.5 19.25H16.38C16.94 19.25 17.38 18.9 17.38 18.49V7.99998C17.38 7.78516 17.4653 7.57913 17.6172 7.42723C17.7691 7.27532 17.9752 7.18998 18.19 7.18998C18.4048 7.18998 18.6109 7.27532 18.7628 7.42723C18.9147 7.57913 19 7.78516 19 7.99998V18.49C18.9822 18.8071 18.9016 19.1176 18.763 19.4034C18.6243 19.6892 18.4303 19.9446 18.1921 20.1548C17.954 20.365 17.6765 20.5259 17.3757 20.628C17.075 20.7302 16.7569 20.7717 16.44 20.75ZM16.56 7.74998C16.4611 7.75133 16.363 7.73285 16.2714 7.69563C16.1798 7.65842 16.0966 7.60323 16.0267 7.53331C15.9568 7.4634 15.9016 7.38018 15.8644 7.28858C15.8271 7.19698 15.8087 7.09885 15.81 6.99998V5.50998C15.81 5.09998 15.33 4.74998 14.81 4.74998H9.22C8.67 4.74998 8.22 5.09998 8.22 5.50998V6.99998C8.22 7.1989 8.14098 7.38966 8.00033 7.53031C7.85968 7.67097 7.66891 7.74998 7.47 7.74998C7.27109 7.74998 7.08032 7.67097 6.93967 7.53031C6.79902 7.38966 6.72 7.1989 6.72 6.99998V5.50998C6.75872 4.8813 7.04203 4.29275 7.50929 3.87035C7.97655 3.44795 8.5906 3.22527 9.22 3.24998H14.78C15.4145 3.21717 16.0362 3.4362 16.51 3.85944C16.9838 4.28267 17.2713 4.87586 17.31 5.50998V6.99998C17.3113 7.09931 17.2929 7.19792 17.2558 7.29007C17.2187 7.38222 17.1637 7.46608 17.0939 7.53679C17.0241 7.6075 16.941 7.66364 16.8493 7.70195C16.7577 7.74027 16.6593 7.75999 16.56 7.75998V7.74998Z" fill="currentColor"/>
<path  d="M10.22 17C10.0219 16.9974 9.8326 16.9175 9.6925 16.7774C9.55241 16.6373 9.47256 16.4481 9.46997 16.25V11.72C9.46997 11.5211 9.54899 11.3303 9.68964 11.1896C9.83029 11.049 10.0211 10.97 10.22 10.97C10.4189 10.97 10.6096 11.049 10.7503 11.1896C10.891 11.3303 10.97 11.5211 10.97 11.72V16.24C10.9713 16.3393 10.9529 16.4379 10.9158 16.5301C10.8787 16.6222 10.8236 16.7061 10.7539 16.7768C10.6841 16.8475 10.601 16.9036 10.5093 16.9419C10.4177 16.9803 10.3193 17 10.22 17V17Z" fill="currentColor"/>
<path  d="M13.78 17C13.5811 17 13.3904 16.921 13.2497 16.7803C13.109 16.6396 13.03 16.4489 13.03 16.25V11.72C13.03 11.5211 13.109 11.3303 13.2497 11.1896C13.3904 11.049 13.5811 10.97 13.78 10.97C13.9789 10.97 14.1697 11.049 14.3104 11.1896C14.451 11.3303 14.53 11.5211 14.53 11.72V16.24C14.53 16.4398 14.4513 16.6316 14.311 16.7739C14.1706 16.9161 13.9799 16.9973 13.78 17Z" fill="currentColor"/>
</g>
</g>
</svg>
