<svg xmlns="http://www.w3.org/2000/svg" viewBox="0 0 24 24" fill="none" ><path d="M19.83 8v.52a11.41 11.41 0 0 1-3.342 8.138A11.41 11.41 0 0 1 8.35 20a11.41 11.41 0 0 1-6.2-1.81h1a8.09 8.09 0 0 0 5-1.73 4 4 0 0 1-3.78-2.8 4.81 4.81 0 0 0 .77.06 4.66 4.66 0 0 0 1.06-.13A4 4 0 0 1 3 9.67h0a4.13 4.13 0 0 0 1.82.51A4.06 4.06 0 0 1 3 6.77a4 4 0 0 1 .54-2A11.47 11.47 0 0 0 11.85 9a4.72 4.72 0 0 1-.1-.92 4 4 0 0 1 2.526-3.846A4 4 0 0 1 18.75 5.31a7.93 7.93 0 0 0 2.56-1 4 4 0 0 1-1.78 2.22 7.94 7.94 0 0 0 2.33-.62 8.91 8.91 0 0 1-2 2.09h-.03z" fill="currentColor"/></svg>