<svg width="24" height="24" viewBox="0 0 24 24" fill="none" xmlns="http://www.w3.org/2000/svg">
<g >
<g id="twitter">
<path  d="M19.83 8.00001C19.83 8.17001 19.83 8.35001 19.83 8.52001C19.8393 10.0302 19.5487 11.5272 18.9751 12.9242C18.4015 14.3212 17.5562 15.5904 16.4883 16.6583C15.4205 17.7262 14.1512 18.5714 12.7542 19.1451C11.3572 19.7187 9.8602 20.0093 8.35002 20C6.15217 20.0064 3.99923 19.3779 2.15002 18.19C2.48002 18.19 2.79002 18.19 3.15002 18.19C4.96348 18.19 6.72436 17.5808 8.15002 16.46C7.30496 16.4524 6.48401 16.1774 5.80492 15.6744C5.12584 15.1714 4.62352 14.4662 4.37002 13.66C4.62467 13.7006 4.88216 13.7207 5.14002 13.72C5.49717 13.7174 5.85284 13.6738 6.20002 13.59C5.29653 13.4056 4.48451 12.9147 3.90138 12.2003C3.31825 11.486 2.99984 10.5921 3.00002 9.67001V9.67001C3.55911 9.97841 4.18209 10.153 4.82002 10.18C4.25714 9.80767 3.79596 9.30089 3.47818 8.7055C3.16041 8.1101 2.99607 7.44489 3.00002 6.77001C3.00127 6.06749 3.18752 5.37769 3.54002 4.77001C4.55175 6.01766 5.81426 7.03889 7.24578 7.76757C8.6773 8.49625 10.2459 8.91613 11.85 9.00001C11.7866 8.69737 11.7531 8.38922 11.75 8.08001C11.724 7.25689 11.9526 6.44578 12.4048 5.75746C12.8569 5.06913 13.5105 4.53714 14.2762 4.23411C15.042 3.93109 15.8826 3.87181 16.6833 4.06437C17.484 4.25693 18.2058 4.69195 18.75 5.31001C19.6551 5.12822 20.5214 4.78981 21.31 4.31001C21.0089 5.24317 20.3754 6.0332 19.53 6.53001C20.3337 6.44316 21.1194 6.23408 21.86 5.91001C21.3117 6.71097 20.6361 7.41694 19.86 8.00001H19.83Z" fill="currentColor"/>
</g>
</g>
</svg>
