<svg width="24" height="24" viewBox="0 0 24 24" fill="none" xmlns="http://www.w3.org/2000/svg">
<path d="M19.64 11.05H18.64V5.31996H13V4.31996C13 3.56144 12.6987 2.83399 12.1623 2.29764C11.626 1.76128 10.8985 1.45996 10.14 1.45996C9.38148 1.45996 8.65403 1.76128 8.11767 2.29764C7.58132 2.83399 7.28 3.56144 7.28 4.31996V5.31996H1.5V11.05H2.5C3.25852 11.05 3.98597 11.3513 4.52233 11.8876C5.05868 12.424 5.36 13.1514 5.36 13.91C5.36 14.6685 5.05868 15.3959 4.52233 15.9323C3.98597 16.4686 3.25852 16.77 2.5 16.77H1.5V22.5H7.23V21.55C7.23 20.7914 7.53132 20.064 8.06767 19.5276C8.60403 18.9913 9.33148 18.69 10.09 18.69C10.8485 18.69 11.576 18.9913 12.1123 19.5276C12.6487 20.064 12.95 20.7914 12.95 21.55V22.5H18.68V16.77H19.68C20.4385 16.77 21.166 16.4686 21.7023 15.9323C22.2387 15.3959 22.54 14.6685 22.54 13.91C22.54 13.1514 22.2387 12.424 21.7023 11.8876C21.166 11.3513 20.4385 11.05 19.68 11.05H19.64Z" stroke="black" stroke-miterlimit="10"/>
<path d="M15 13.0024C14.9994 13.7187 14.7426 14.4111 14.276 14.9545C13.8093 15.4979 13.1637 15.8564 12.4557 15.9652C11.7478 16.074 11.0243 15.9259 10.416 15.5477C9.80771 15.1695 9.35482 14.5862 9.13918 13.9032C8.92355 13.2201 8.95941 12.4825 9.24027 11.8236C9.52114 11.1647 10.0285 10.6281 10.6706 10.3107C11.3127 9.99325 12.0471 9.91604 12.7412 10.093" stroke="black" stroke-miterlimit="10"/>
<path d="M12.1062 8.59612L13.465 10.1061L11.955 11.4648" stroke="black" stroke-miterlimit="10"/>
</svg>
