<svg viewBox="0 0 24 24" fill="none" xmlns="http://www.w3.org/2000/svg">
<g >
<g id="upload">
<path  d="M18.22 20.75H5.78C5.43322 20.7359 5.09262 20.6535 4.77771 20.5075C4.4628 20.3616 4.17975 20.155 3.94476 19.8996C3.70977 19.6442 3.52745 19.3449 3.40824 19.019C3.28903 18.693 3.23525 18.3468 3.25 18V15C3.25 14.8011 3.32902 14.6103 3.46967 14.4697C3.61033 14.329 3.80109 14.25 4 14.25C4.19892 14.25 4.38968 14.329 4.53033 14.4697C4.67099 14.6103 4.75 14.8011 4.75 15V18C4.72419 18.2969 4.81365 18.5924 4.99984 18.8251C5.18602 19.0579 5.45465 19.21 5.75 19.25H18.22C18.5154 19.21 18.784 19.0579 18.9702 18.8251C19.1564 18.5924 19.2458 18.2969 19.22 18V15C19.22 14.8011 19.299 14.6103 19.4397 14.4697C19.5803 14.329 19.7711 14.25 19.97 14.25C20.1689 14.25 20.3597 14.329 20.5003 14.4697C20.641 14.6103 20.72 14.8011 20.72 15V18C20.75 18.6954 20.5041 19.3744 20.0359 19.8894C19.5677 20.4045 18.9151 20.7137 18.22 20.75Z" fill="currentColor"/>
<path  d="M16 8.75001C15.9015 8.75048 15.8038 8.73126 15.7128 8.69348C15.6218 8.6557 15.5392 8.60012 15.47 8.53001L12 5.06001L8.53 8.53001C8.38782 8.66249 8.19978 8.73462 8.00548 8.73119C7.81118 8.72776 7.62579 8.64905 7.48838 8.51163C7.35096 8.37422 7.27225 8.18884 7.26882 7.99453C7.2654 7.80023 7.33752 7.61219 7.47 7.47001L11.47 3.47001C11.6106 3.32956 11.8012 3.25067 12 3.25067C12.1987 3.25067 12.3894 3.32956 12.53 3.47001L16.53 7.47001C16.6705 7.61064 16.7493 7.80126 16.7493 8.00001C16.7493 8.19876 16.6705 8.38939 16.53 8.53001C16.4608 8.60012 16.3782 8.6557 16.2872 8.69348C16.1962 8.73126 16.0985 8.75048 16 8.75001Z" fill="currentColor"/>
<path  d="M12 15.75C11.8019 15.7474 11.6126 15.6676 11.4725 15.5275C11.3324 15.3874 11.2526 15.1981 11.25 15V4C11.25 3.80109 11.329 3.61032 11.4697 3.46967C11.6103 3.32902 11.8011 3.25 12 3.25C12.1989 3.25 12.3897 3.32902 12.5303 3.46967C12.671 3.61032 12.75 3.80109 12.75 4V15C12.7474 15.1981 12.6676 15.3874 12.5275 15.5275C12.3874 15.6676 12.1981 15.7474 12 15.75V15.75Z" fill="currentColor"/>
</g>
</g>
</svg>
