<svg width="24" height="24" viewBox="0 0 24 24" fill="none" xmlns="http://www.w3.org/2000/svg">
<g >
<g id="users">
<path  d="M14 12.25C13.2583 12.25 12.5333 12.0301 11.9166 11.618C11.2999 11.206 10.8193 10.6203 10.5355 9.93506C10.2516 9.24984 10.1774 8.49584 10.3221 7.76841C10.4668 7.04098 10.8239 6.3728 11.3484 5.84835C11.8728 5.3239 12.541 4.96675 13.2684 4.82206C13.9958 4.67736 14.7498 4.75162 15.4351 5.03545C16.1203 5.31928 16.706 5.79993 17.118 6.41661C17.5301 7.0333 17.75 7.75832 17.75 8.5C17.75 9.49456 17.3549 10.4484 16.6517 11.1517C15.9484 11.8549 14.9946 12.25 14 12.25ZM14 6.25C13.555 6.25 13.12 6.38196 12.75 6.62919C12.38 6.87643 12.0916 7.22783 11.9213 7.63896C11.751 8.0501 11.7064 8.5025 11.7932 8.93895C11.8801 9.37541 12.0943 9.77632 12.409 10.091C12.7237 10.4057 13.1246 10.62 13.561 10.7068C13.9975 10.7936 14.4499 10.749 14.861 10.5787C15.2722 10.4084 15.6236 10.12 15.8708 9.75003C16.118 9.38002 16.25 8.94501 16.25 8.5C16.25 7.90326 16.0129 7.33097 15.591 6.90901C15.169 6.48705 14.5967 6.25 14 6.25V6.25Z" fill="currentColor"/>
<path  d="M21 19.25C20.8019 19.2474 20.6126 19.1676 20.4725 19.0275C20.3324 18.8874 20.2526 18.6981 20.25 18.5C20.25 16.55 19.19 15.25 14 15.25C8.81 15.25 7.75 16.55 7.75 18.5C7.75 18.6989 7.67098 18.8897 7.53033 19.0303C7.38968 19.171 7.19891 19.25 7 19.25C6.80109 19.25 6.61032 19.171 6.46967 19.0303C6.32902 18.8897 6.25 18.6989 6.25 18.5C6.25 13.75 11.68 13.75 14 13.75C16.32 13.75 21.75 13.75 21.75 18.5C21.7474 18.6981 21.6676 18.8874 21.5275 19.0275C21.3874 19.1676 21.1981 19.2474 21 19.25V19.25Z" fill="currentColor"/>
<path  d="M8.31999 13.06H7.99999C7.20434 12.9831 6.47184 12.5933 5.96361 11.9763C5.45539 11.3593 5.21308 10.5657 5.28999 9.77001C5.36691 8.97436 5.75674 8.24186 6.37373 7.73363C6.99073 7.22541 7.78434 6.9831 8.57999 7.06001C8.68201 7.0644 8.78206 7.08957 8.87401 7.13399C8.96596 7.1784 9.04787 7.24113 9.11472 7.31831C9.18157 7.3955 9.23196 7.48553 9.26279 7.58288C9.29362 7.68023 9.30425 7.78285 9.29402 7.88445C9.28379 7.98605 9.25292 8.08449 9.20331 8.17374C9.15369 8.26299 9.08637 8.34116 9.00548 8.40348C8.92458 8.46579 8.83181 8.51093 8.73286 8.53613C8.6339 8.56133 8.53084 8.56605 8.42999 8.55001C8.23479 8.53055 8.03766 8.55062 7.85038 8.60904C7.6631 8.66746 7.48952 8.76302 7.33999 8.89001C7.18812 9.01252 7.06216 9.16403 6.96945 9.33572C6.87673 9.50741 6.81913 9.69583 6.79999 9.89001C6.77932 10.0866 6.79797 10.2854 6.85488 10.4747C6.91178 10.6641 7.0058 10.8402 7.13144 10.9928C7.25709 11.1455 7.41186 11.2716 7.58673 11.3638C7.76159 11.456 7.95307 11.5125 8.14999 11.53C8.47553 11.5579 8.80144 11.4808 9.07999 11.31C9.24973 11.2053 9.45414 11.1722 9.64824 11.2182C9.84234 11.2641 10.0102 11.3853 10.115 11.555C10.2198 11.7248 10.2528 11.9292 10.2069 12.1233C10.1609 12.3174 10.0397 12.4853 9.86999 12.59C9.40619 12.8858 8.86998 13.0484 8.31999 13.06V13.06Z" fill="currentColor"/>
<path  d="M3 18.5C2.80189 18.4974 2.61263 18.4176 2.47253 18.2775C2.33244 18.1374 2.25259 17.9481 2.25 17.75C2.25 15.05 2.97 13.25 6.5 13.25C6.69891 13.25 6.88968 13.329 7.03033 13.4697C7.17098 13.6103 7.25 13.8011 7.25 14C7.25 14.1989 7.17098 14.3897 7.03033 14.5303C6.88968 14.671 6.69891 14.75 6.5 14.75C4.15 14.75 3.75 15.5 3.75 17.75C3.74741 17.9481 3.66756 18.1374 3.52747 18.2775C3.38737 18.4176 3.19811 18.4974 3 18.5V18.5Z" fill="currentColor"/>
</g>
</g>
</svg>
