<svg width="24" height="24" viewBox="0 0 24 24" fill="none" xmlns="http://www.w3.org/2000/svg">
<g >
<g id="user-plus">
<path  d="M12 12.75C11.2583 12.75 10.5333 12.5301 9.91661 12.118C9.29993 11.706 8.81928 11.1203 8.53545 10.4351C8.25163 9.74984 8.17736 8.99584 8.32206 8.26841C8.46675 7.54098 8.8239 6.8728 9.34835 6.34835C9.8728 5.8239 10.541 5.46675 11.2684 5.32206C11.9958 5.17736 12.7498 5.25162 13.4351 5.53545C14.1203 5.81928 14.706 6.29993 15.118 6.91661C15.5301 7.5333 15.75 8.25832 15.75 9C15.75 9.99456 15.3549 10.9484 14.6517 11.6517C13.9484 12.3549 12.9946 12.75 12 12.75ZM12 6.75C11.555 6.75 11.12 6.88196 10.75 7.12919C10.38 7.37643 10.0916 7.72783 9.92127 8.13896C9.75098 8.5501 9.70642 9.0025 9.79323 9.43895C9.88005 9.87541 10.0943 10.2763 10.409 10.591C10.7237 10.9057 11.1246 11.12 11.561 11.2068C11.9975 11.2936 12.4499 11.249 12.861 11.0787C13.2722 10.9084 13.6236 10.62 13.8708 10.25C14.118 9.88002 14.25 9.44501 14.25 9C14.25 8.40326 14.0129 7.83097 13.591 7.40901C13.169 6.98705 12.5967 6.75 12 6.75V6.75Z" fill="currentColor"/>
<path  d="M19 19.75C18.8019 19.7474 18.6126 19.6676 18.4725 19.5275C18.3324 19.3874 18.2526 19.1981 18.25 19C18.25 17.05 17.19 15.75 12 15.75C6.81 15.75 5.75 17.05 5.75 19C5.75 19.1989 5.67098 19.3897 5.53033 19.5303C5.38968 19.671 5.19891 19.75 5 19.75C4.80109 19.75 4.61032 19.671 4.46967 19.5303C4.32902 19.3897 4.25 19.1989 4.25 19C4.25 14.25 9.68 14.25 12 14.25C14.32 14.25 19.75 14.25 19.75 19C19.7474 19.1981 19.6676 19.3874 19.5275 19.5275C19.3874 19.6676 19.1981 19.7474 19 19.75Z" fill="currentColor"/>
<path  d="M19 14.5C18.8019 14.4974 18.6126 14.4176 18.4725 14.2775C18.3324 14.1374 18.2526 13.9481 18.25 13.75V10.25C18.25 10.0511 18.329 9.86032 18.4697 9.71967C18.6103 9.57902 18.8011 9.5 19 9.5C19.1989 9.5 19.3897 9.57902 19.5303 9.71967C19.671 9.86032 19.75 10.0511 19.75 10.25V13.75C19.7474 13.9481 19.6676 14.1374 19.5275 14.2775C19.3874 14.4176 19.1981 14.4974 19 14.5Z" fill="currentColor"/>
<path  d="M20.75 12.75H17.25C17.0511 12.75 16.8603 12.671 16.7197 12.5303C16.579 12.3897 16.5 12.1989 16.5 12C16.5 11.8011 16.579 11.6103 16.7197 11.4697C16.8603 11.329 17.0511 11.25 17.25 11.25H20.75C20.9489 11.25 21.1397 11.329 21.2803 11.4697C21.421 11.6103 21.5 11.8011 21.5 12C21.5 12.1989 21.421 12.3897 21.2803 12.5303C21.1397 12.671 20.9489 12.75 20.75 12.75Z" fill="currentColor"/>
</g>
</g>
</svg>
