<svg xmlns="http://www.w3.org/2000/svg" viewBox="0 0 24 24" fill="currentColor" ><path d="M12 12.75a3.75 3.75 0 0 1-2.652-6.402A3.75 3.75 0 0 1 15.75 9 3.75 3.75 0 0 1 12 12.75zm0-6a2.25 2.25 0 0 0-1.591 3.841A2.25 2.25 0 0 0 14.25 9 2.25 2.25 0 0 0 12 6.75h0zm7 13a.76.76 0 0 1-.75-.75c0-1.95-1.06-3.25-6.25-3.25S5.75 17.05 5.75 19a.75.75 0 1 1-1.5 0c0-4.75 5.43-4.75 7.75-4.75s7.75 0 7.75 4.75a.76.76 0 0 1-.75.75zm0-5.25a.76.76 0 0 1-.75-.75v-3.5a.75.75 0 1 1 1.5 0v3.5a.76.76 0 0 1-.75.75z"/><path d="M20.75 12.75h-3.5a.75.75 0 0 1-.75-.75.75.75 0 0 1 .75-.75h3.5a.75.75 0 0 1 .75.75.75.75 0 0 1-.75.75z"/></svg>