<svg width="24" height="24" viewBox="0 0 24 24" fill="none" xmlns="http://www.w3.org/2000/svg">
<path d="M17.25 1.5H3.6L1.5 6.75C1.5337 7.41322 1.82783 8.03633 2.31844 8.48387C2.80905 8.93141 3.45648 9.16721 4.12 9.14C4.78521 9.16992 5.43521 8.93534 5.92801 8.48751C6.4208 8.03969 6.71632 7.41503 6.75 6.75C6.78368 7.41503 7.0792 8.03969 7.57199 8.48751C8.06479 8.93534 8.71479 9.16992 9.38 9.14C10.0435 9.16721 10.691 8.93141 11.1816 8.48387C11.6722 8.03633 11.9663 7.41322 12 6.75C12.0337 7.41322 12.3278 8.03633 12.8184 8.48387C13.309 8.93141 13.9565 9.16721 14.62 9.14C15.2852 9.16992 15.9352 8.93534 16.428 8.48751C16.9208 8.03969 17.2163 7.41503 17.25 6.75C17.2837 7.41503 17.5792 8.03969 18.072 8.48751C18.5648 8.93534 19.2148 9.16992 19.88 9.14C20.5435 9.16721 21.191 8.93141 21.6816 8.48387C22.1722 8.03633 22.4663 7.41322 22.5 6.75L20.4 1.5H17.25Z" stroke="black" stroke-miterlimit="10"/>
<path d="M6.75 7.23L6.9 6.43L7.8 1.5" stroke="black" stroke-miterlimit="10"/>
<path d="M17.2502 7.23L16.2002 1.5" stroke="black" stroke-miterlimit="10"/>
<path d="M12 1.5V7.23" stroke="black" stroke-miterlimit="10"/>
<path d="M20.5902 9.14001V22.5H3.41016V9.14001" stroke="black" stroke-miterlimit="10"/>
<path d="M0.549805 22.5H23.4498" stroke="black" stroke-miterlimit="10"/>
<path d="M15.8202 13.91H8.18018V22.5H15.8202V13.91Z" stroke="black" stroke-miterlimit="10"/>
<path d="M3.41016 17.73H8.18016" stroke="black" stroke-miterlimit="10"/>
<path d="M15.8198 17.73H20.5898" stroke="black" stroke-miterlimit="10"/>
</svg>
