<svg width="24" height="24" viewBox="0 0 24 24" fill="none" xmlns="http://www.w3.org/2000/svg">
<g >
<g id="video">
<path  d="M13 18.75H6C5.27065 18.75 4.57118 18.4603 4.05546 17.9445C3.53973 17.4288 3.25 16.7293 3.25 16V8C3.25 7.27065 3.53973 6.57118 4.05546 6.05546C4.57118 5.53973 5.27065 5.25 6 5.25H13C13.7293 5.25 14.4288 5.53973 14.9445 6.05546C15.4603 6.57118 15.75 7.27065 15.75 8V16C15.75 16.7293 15.4603 17.4288 14.9445 17.9445C14.4288 18.4603 13.7293 18.75 13 18.75ZM6 6.75C5.66848 6.75 5.35054 6.8817 5.11612 7.11612C4.8817 7.35054 4.75 7.66848 4.75 8V16C4.75 16.3315 4.8817 16.6495 5.11612 16.8839C5.35054 17.1183 5.66848 17.25 6 17.25H13C13.3315 17.25 13.6495 17.1183 13.8839 16.8839C14.1183 16.6495 14.25 16.3315 14.25 16V8C14.25 7.66848 14.1183 7.35054 13.8839 7.11612C13.6495 6.8817 13.3315 6.75 13 6.75H6Z" fill="currentColor"/>
<g>
<path  d="M20 16.75C19.8626 16.7479 19.7282 16.71 19.61 16.64L14.61 13.64C14.5002 13.5732 14.4094 13.4792 14.3463 13.3671C14.2833 13.255 14.2501 13.1286 14.25 13V11C14.2501 10.8714 14.2833 10.745 14.3463 10.633C14.4094 10.5209 14.5002 10.4269 14.61 10.36L19.61 7.36002C19.7248 7.2913 19.8562 7.255 19.99 7.255C20.1238 7.255 20.2552 7.2913 20.37 7.36002C20.485 7.42526 20.5807 7.51973 20.6475 7.63388C20.7142 7.74804 20.7496 7.8778 20.75 8.01003V16.01C20.7496 16.1423 20.7142 16.272 20.6475 16.3862C20.5807 16.5003 20.485 16.5948 20.37 16.66C20.2572 16.7232 20.1292 16.7543 20 16.75V16.75ZM15.75 12.58L19.25 14.68V9.32002L15.75 11.42V12.58Z" fill="currentColor"/>
</g>
</g>
</g>
</svg>
