<svg width="24" height="24" viewBox="0 0 24 24" fill="none" xmlns="http://www.w3.org/2000/svg">
<g >
<g id="vimeo">
<path  d="M18.4 4H5.6C5.17565 4 4.76869 4.16857 4.46863 4.46863C4.16857 4.76869 4 5.17565 4 5.6V18.4C4 18.8243 4.16857 19.2313 4.46863 19.5314C4.76869 19.8314 5.17565 20 5.6 20H18.4C18.8243 20 19.2313 19.8314 19.5314 19.5314C19.8314 19.2313 20 18.8243 20 18.4V5.6C20 5.17565 19.8314 4.76869 19.5314 4.46863C19.2313 4.16857 18.8243 4 18.4 4V4ZM17.46 9.31C17.4067 10.4367 16.6233 11.98 15.11 13.94C13.54 15.94 12.2 17 11.11 17C10.43 17 9.87 16.38 9.4 15.13C8.49 11.8 8.1 9.85 7.4 9.85C7.07126 9.98326 6.76448 10.1653 6.49 10.39L5.95 9.69C7.28 8.52 8.55 7.22 9.35 7.15C10.15 7.08 10.76 7.68 11 9C11.74 13.69 12.07 14.4 13.41 12.27C13.7879 11.7504 14.0535 11.1578 14.19 10.53C14.32 9.34 13.27 9.42 12.55 9.73C13.1033 7.86333 14.18 6.95333 15.78 7C16.9667 7.04 17.5267 7.81 17.46 9.31V9.31Z" fill="currentColor"/>
</g>
</g>
</svg>
