<svg width="42" height="24" viewBox="0 0 42 24" fill="none" xmlns="http://www.w3.org/2000/svg">
<path d="M10.6569 7L10.6569 17C10.6569 17.1989 10.5786 17.3897 10.4392 17.5303C10.2997 17.671 10.1106 17.75 9.91342 17.75C9.71624 17.75 9.52712 17.671 9.38769 17.5303C9.24826 17.3897 9.16992 17.1989 9.16992 17L9.16992 7C9.16992 6.80109 9.24825 6.61032 9.38769 6.46967C9.52712 6.32902 9.71623 6.25 9.91342 6.25C10.1106 6.25 10.2997 6.32902 10.4392 6.46967C10.5786 6.61032 10.6569 6.80109 10.6569 7Z" fill="#212121"/>
<path d="M6.69208 4L6.69208 20C6.69208 20.1989 6.61375 20.3897 6.47432 20.5303C6.33488 20.671 6.14577 20.75 5.94858 20.75C5.75139 20.75 5.56228 20.671 5.42285 20.5303C5.28341 20.3897 5.20508 20.1989 5.20508 20L5.20507 4C5.20507 3.80109 5.28341 3.61032 5.42284 3.46967C5.56228 3.32902 5.75139 3.25 5.94858 3.25C6.14577 3.25 6.33488 3.32902 6.47431 3.46967C6.61375 3.61032 6.69208 3.80109 6.69208 4Z" fill="#212121"/>
<path d="M14.6237 4L14.6237 20C14.6237 20.1989 14.5454 20.3897 14.406 20.5303C14.2665 20.671 14.0774 20.75 13.8802 20.75C13.683 20.75 13.4939 20.671 13.3545 20.5303C13.2151 20.3897 13.1367 20.1989 13.1367 20L13.1367 4C13.1367 3.80109 13.215 3.61032 13.3545 3.46967C13.4939 3.32902 13.683 3.25 13.8802 3.25C14.0774 3.25 14.2665 3.32902 14.406 3.46967C14.5454 3.61032 14.6237 3.80109 14.6237 4V4Z" fill="#212121"/>
<path d="M18.5886 7L18.5886 17C18.5886 17.1989 18.5102 17.3897 18.3708 17.5303C18.2314 17.671 18.0423 17.75 17.8451 17.75C17.6479 17.75 17.4588 17.671 17.3193 17.5303C17.1799 17.3897 17.1016 17.1989 17.1016 17L17.1016 7C17.1016 6.80109 17.1799 6.61032 17.3193 6.46967C17.4588 6.32902 17.6479 6.25 17.8451 6.25C18.0423 6.25 18.2314 6.32902 18.3708 6.46967C18.5102 6.61032 18.5886 6.80109 18.5886 7Z" fill="#212121"/>
<path d="M28.5007 7L28.5007 17C28.5007 17.1989 28.4223 17.3897 28.2829 17.5303C28.1435 17.671 27.9544 17.75 27.7572 17.75C27.56 17.75 27.3709 17.671 27.2314 17.5303C27.092 17.3897 27.0137 17.1989 27.0137 17L27.0137 7C27.0137 6.80109 27.092 6.61032 27.2314 6.46967C27.3709 6.32902 27.56 6.25 27.7572 6.25C27.9544 6.25 28.1435 6.32902 28.2829 6.46967C28.4223 6.61032 28.5007 6.80109 28.5007 7Z" fill="#212121"/>
<path d="M24.5358 4L24.5358 20C24.5358 20.1989 24.4575 20.3897 24.3181 20.5303C24.1786 20.671 23.9895 20.75 23.7923 20.75C23.5951 20.75 23.406 20.671 23.2666 20.5303C23.1272 20.3897 23.0488 20.1989 23.0488 20L23.0488 4C23.0488 3.80109 23.1272 3.61032 23.2666 3.46967C23.406 3.32902 23.5951 3.25 23.7923 3.25C23.9895 3.25 24.1786 3.32902 24.3181 3.46967C24.4575 3.61032 24.5358 3.80109 24.5358 4Z" fill="#212121"/>
<path d="M32.4675 4L32.4675 20C32.4675 20.1989 32.3891 20.3897 32.2497 20.5303C32.1103 20.671 31.9212 20.75 31.724 20.75C31.5268 20.75 31.3377 20.671 31.1982 20.5303C31.0588 20.3897 30.9805 20.1989 30.9805 20L30.9805 4C30.9805 3.80109 31.0588 3.61032 31.1982 3.46967C31.3377 3.32902 31.5268 3.25 31.724 3.25C31.9212 3.25 32.1103 3.32902 32.2497 3.46967C32.3891 3.61032 32.4675 3.80109 32.4675 4V4Z" fill="#212121"/>
<path d="M36.4323 7L36.4323 17C36.4323 17.1989 36.354 17.3897 36.2146 17.5303C36.0751 17.671 35.886 17.75 35.6888 17.75C35.4916 17.75 35.3025 17.671 35.1631 17.5303C35.0236 17.3897 34.9453 17.1989 34.9453 17L34.9453 7C34.9453 6.80109 35.0236 6.61032 35.1631 6.46967C35.3025 6.32902 35.4916 6.25 35.6888 6.25C35.886 6.25 36.0751 6.32902 36.2145 6.46967C36.354 6.61032 36.4323 6.80109 36.4323 7Z" fill="#212121"/>
</svg>
