<svg xmlns="http://www.w3.org/2000/svg" xmlns:xlink="http://www.w3.org/1999/xlink" viewBox="0 0 42 24" fill="none" ><g fill="#212121"><use xlink:href="#B"/><path d="M6.692 4v16a.75.75 0 0 1-.218.53.74.74 0 0 1-1.051 0c-.139-.141-.218-.331-.218-.53V4a.75.75 0 0 1 .218-.53.74.74 0 0 1 1.051 0c.139.141.218.331.218.53zm7.932 0v16a.75.75 0 0 1-.218.53.74.74 0 0 1-1.052 0c-.139-.141-.218-.331-.218-.53V4a.75.75 0 0 1 .218-.53.74.74 0 0 1 1.052 0c.139.141.218.331.218.53h0z"/><use xlink:href="#B" x="7.932"/><use xlink:href="#B" x="17.844"/><path d="M24.536 4v16a.75.75 0 0 1-.218.53.74.74 0 0 1-1.052 0c-.139-.141-.218-.331-.218-.53V4a.75.75 0 0 1 .218-.53.74.74 0 0 1 1.052 0c.139.141.218.331.218.53zm7.932 0v16a.75.75 0 0 1-.218.53.74.74 0 0 1-1.051 0c-.139-.141-.218-.331-.218-.53V4a.75.75 0 0 1 .218-.53.74.74 0 0 1 1.051 0c.139.141.218.331.218.53h0zm3.964 3v10a.75.75 0 0 1-.218.53.74.74 0 0 1-1.051 0c-.139-.141-.218-.331-.218-.53V7a.75.75 0 0 1 .218-.53.74.74 0 0 1 1.051 0c.139.141.218.331.218.53z"/></g><defs ><path id="B" d="M10.657 7v10c0 .199-.078.39-.218.53a.74.74 0 0 1-1.052 0c-.139-.141-.218-.331-.218-.53V7c0-.199.078-.39.218-.53a.74.74 0 0 1 1.052 0c.139.141.218.331.218.53z"/></defs></svg>