<svg width="130" height="20" viewBox="0 0 130 20" fill="none" xmlns="http://www.w3.org/2000/svg">
<path d="M7.10352 19.0659L7.10352 7.8371" stroke="black" stroke-width="1.5" stroke-linecap="round"/>
<path d="M68.1328 19.0659V7.8371" stroke="black" stroke-width="1.5" stroke-linecap="round"/>
<path d="M49.8223 19.0659V9.44122" stroke="black" stroke-width="1.5" stroke-linecap="round"/>
<path d="M55.9258 19.0659V15.8577" stroke="black" stroke-width="1.5" stroke-linecap="round"/>
<path d="M13.2051 19.0659V12.6494" stroke="black" stroke-width="1.5" stroke-linecap="round"/>
<path d="M25.4102 19.0659V12.6494" stroke="black" stroke-width="1.5" stroke-linecap="round"/>
<path d="M1 19.0659L1 12.6494" stroke="black" stroke-width="1.5" stroke-linecap="round"/>
<path d="M37.6172 19.0659V1.42063" stroke="black" stroke-width="1.5" stroke-linecap="round"/>
<path d="M19.3086 19.0659V9.44122" stroke="black" stroke-width="1.5" stroke-linecap="round"/>
<path d="M31.5156 19.0659V6.23298" stroke="black" stroke-width="1.5" stroke-linecap="round"/>
<path d="M43.7207 19.0659V6.23298" stroke="black" stroke-width="1.5" stroke-linecap="round"/>
<path d="M62.0273 19.0659V6.23298" stroke="black" stroke-width="1.5" stroke-linecap="round"/>
<path d="M80.3379 19.0659V7.8371" stroke="black" stroke-width="1.5" stroke-linecap="round"/>
<path d="M123.057 19.0659V9.44122" stroke="black" stroke-width="1.5" stroke-linecap="round"/>
<path d="M129.16 19.0659V15.8577" stroke="black" stroke-width="1.5" stroke-linecap="round"/>
<path d="M86.4414 19.0659V12.6494" stroke="black" stroke-width="1.5" stroke-linecap="round"/>
<path d="M98.6445 19.0659V12.6494" stroke="black" stroke-width="1.5" stroke-linecap="round"/>
<path d="M74.2344 19.0659V12.6494" stroke="black" stroke-width="1.5" stroke-linecap="round"/>
<path d="M110.852 19.0659V1.42063" stroke="black" stroke-width="1.5" stroke-linecap="round"/>
<path d="M92.543 19.0659V9.44122" stroke="black" stroke-width="1.5" stroke-linecap="round"/>
<path d="M104.75 19.0659V6.23298" stroke="black" stroke-width="1.5" stroke-linecap="round"/>
<path d="M116.955 19.0659V6.23298" stroke="black" stroke-width="1.5" stroke-linecap="round"/>
</svg>
