<svg xmlns="http://www.w3.org/2000/svg" viewBox="0 0 24 24" fill="currentColor" ><path d="M13 19.75a.81.81 0 0 1-.47-.16l-4.79-3.84H3a.76.76 0 0 1-.75-.75V9A.76.76 0 0 1 3 8.25h4.74l4.79-3.84a.75.75 0 0 1 1.221.59v14a.76.76 0 0 1-.43.68.71.71 0 0 1-.32.07h0zm-9.25-5.5H8a.78.78 0 0 1 .47.16l3.78 3V6.56l-3.78 3a.78.78 0 0 1-.47.19H3.75v4.5zm14.71 3.82a.76.76 0 0 1-.49-.18.74.74 0 0 1-.07-1.06 7.24 7.24 0 0 0 0-9.66.75.75 0 0 1 .061-1.06.75.75 0 0 1 1.06.06 8.7 8.7 0 0 1 0 11.64.72.72 0 0 1-.56.26h0zm-2.35-2.69a.78.78 0 0 1-.45-.15.75.75 0 0 1-.15-1.05 3.6 3.6 0 0 0 0-4.36.75.75 0 1 1 1.2-.9 5.07 5.07 0 0 1 0 6.16.77.77 0 0 1-.6.3h0z"/></svg>