<svg width="24" height="24" viewBox="0 0 24 24" fill="none" xmlns="http://www.w3.org/2000/svg">
<g >
<g id="volume-off">
<path  d="M17 19.75C16.8304 19.7472 16.6661 19.6912 16.53 19.59L11.74 15.75H7C6.80189 15.7474 6.61263 15.6676 6.47253 15.5275C6.33244 15.3874 6.25259 15.1981 6.25 15V9C6.25259 8.80189 6.33244 8.61263 6.47253 8.47253C6.61263 8.33244 6.80189 8.25259 7 8.25H11.74L16.53 4.41C16.6406 4.32106 16.7741 4.26533 16.9151 4.24927C17.0561 4.2332 17.1988 4.25747 17.3265 4.31926C17.4543 4.38104 17.5619 4.4778 17.6369 4.5983C17.7118 4.7188 17.7511 4.85809 17.75 5V19C17.7489 19.1409 17.7092 19.2789 17.6351 19.3988C17.5611 19.5187 17.4555 19.6159 17.33 19.68C17.2264 19.7271 17.1138 19.751 17 19.75V19.75ZM7.75 14.25H12C12.1699 14.2507 12.3349 14.3069 12.47 14.41L16.25 17.41V6.56L12.47 9.56C12.3349 9.6631 12.1699 9.71928 12 9.72H7.75V14.25Z" fill="currentColor"/>
</g>
</g>
</svg>
