<svg width="24" height="24" viewBox="0 0 24 24" fill="none" xmlns="http://www.w3.org/2000/svg">
<g >
<g id="volume-up">
<path  d="M13 19.75C12.8304 19.7472 12.6661 19.6912 12.53 19.59L7.74 15.75H3C2.80189 15.7474 2.61263 15.6676 2.47253 15.5275C2.33244 15.3874 2.25259 15.1981 2.25 15V9C2.25259 8.80189 2.33244 8.61263 2.47253 8.47253C2.61263 8.33244 2.80189 8.25259 3 8.25H7.74L12.53 4.41C12.6406 4.32106 12.7741 4.26533 12.9151 4.24927C13.0561 4.2332 13.1988 4.25747 13.3265 4.31926C13.4543 4.38104 13.5619 4.4778 13.6369 4.5983C13.7118 4.7188 13.7511 4.85809 13.75 5V19C13.7491 19.1422 13.7084 19.2814 13.6324 19.4016C13.5563 19.5218 13.4481 19.6182 13.32 19.68C13.2202 19.728 13.1107 19.7519 13 19.75V19.75ZM3.75 14.25H8C8.16991 14.2507 8.33494 14.3069 8.47 14.41L12.25 17.41V6.56L8.47 9.56C8.33886 9.6739 8.17345 9.74076 8 9.75H3.75V14.25Z" fill="currentColor"/>
<path  d="M18.46 18.07C18.2805 18.0697 18.107 18.006 17.97 17.89C17.8945 17.8258 17.8326 17.7472 17.7881 17.6587C17.7436 17.5702 17.7173 17.4736 17.7107 17.3748C17.7042 17.2759 17.7176 17.1768 17.7501 17.0832C17.7826 16.9896 17.8336 16.9035 17.9 16.83C19.0891 15.5022 19.7466 13.7824 19.7466 12C19.7466 10.2176 19.0891 8.49779 17.9 7.16998C17.8343 7.09644 17.7838 7.01069 17.7513 6.91762C17.7188 6.82455 17.7049 6.72599 17.7105 6.62756C17.716 6.52913 17.7409 6.43276 17.7838 6.34395C17.8266 6.25515 17.8865 6.17564 17.96 6.10998C18.0335 6.04432 18.1193 5.99379 18.2124 5.96127C18.3054 5.92875 18.404 5.91488 18.5024 5.92045C18.6009 5.92602 18.6972 5.95093 18.786 5.99374C18.8748 6.03656 18.9543 6.09644 19.02 6.16998C20.4578 7.76752 21.2533 9.84072 21.2533 11.99C21.2533 14.1392 20.4578 16.2124 19.02 17.81C18.9518 17.8921 18.8661 17.9581 18.7693 18.0031C18.6724 18.048 18.5668 18.0709 18.46 18.07V18.07Z" fill="currentColor"/>
<path  d="M16.11 15.38C15.9481 15.3779 15.7908 15.3255 15.66 15.23C15.5009 15.1107 15.3957 14.933 15.3675 14.7361C15.3394 14.5392 15.3907 14.3391 15.51 14.18C15.9869 13.5533 16.2451 12.7875 16.2451 12C16.2451 11.2125 15.9869 10.4467 15.51 9.82C15.3907 9.66087 15.3394 9.46085 15.3675 9.26393C15.3957 9.06702 15.5009 8.88935 15.66 8.77C15.8191 8.65065 16.0192 8.59941 16.2161 8.62754C16.413 8.65567 16.5907 8.76087 16.71 8.92C17.3863 9.80433 17.7528 10.8867 17.7528 12C17.7528 13.1133 17.3863 14.1957 16.71 15.08C16.6391 15.172 16.5483 15.2468 16.4444 15.2988C16.3405 15.3507 16.2262 15.3785 16.11 15.38V15.38Z" fill="currentColor"/>
</g>
</g>
</svg>
