<svg width="24" height="24" viewBox="0 0 24 24" fill="none" xmlns="http://www.w3.org/2000/svg">
<g >
<g id="volume-down">
<path  d="M15 19.75C14.8304 19.7472 14.6661 19.6912 14.53 19.59L9.74 15.75H5C4.80189 15.7474 4.61263 15.6676 4.47253 15.5275C4.33244 15.3874 4.25259 15.1981 4.25 15V9C4.25259 8.80189 4.33244 8.61263 4.47253 8.47253C4.61263 8.33244 4.80189 8.25259 5 8.25H9.74L14.53 4.41C14.6406 4.32106 14.7741 4.26533 14.9151 4.24927C15.0561 4.2332 15.1988 4.25747 15.3265 4.31926C15.4543 4.38104 15.5619 4.4778 15.6369 4.5983C15.7118 4.7188 15.7511 4.85809 15.75 5V19C15.7491 19.1422 15.7084 19.2814 15.6324 19.4016C15.5563 19.5218 15.4481 19.6182 15.32 19.68C15.2202 19.728 15.1107 19.7519 15 19.75V19.75ZM5.75 14.25H10C10.1699 14.2507 10.3349 14.3069 10.47 14.41L14.25 17.41V6.56L10.47 9.56C10.3349 9.6631 10.1699 9.71928 10 9.72H5.75V14.25Z" fill="currentColor"/>
<path  d="M18.11 15.38C17.9481 15.3779 17.7908 15.3255 17.66 15.23C17.5812 15.1709 17.5148 15.0969 17.4646 15.0121C17.4144 14.9274 17.3815 14.8336 17.3675 14.7361C17.3536 14.6386 17.359 14.5393 17.3834 14.4439C17.4079 14.3484 17.4509 14.2588 17.51 14.18C17.9869 13.5533 18.2451 12.7875 18.2451 12C18.2451 11.2125 17.9869 10.4467 17.51 9.81999C17.4509 9.7412 17.4079 9.65154 17.3834 9.55613C17.359 9.46072 17.3536 9.36143 17.3675 9.26393C17.3815 9.16643 17.4144 9.07262 17.4646 8.98787C17.5148 8.90313 17.5812 8.82909 17.66 8.76999C17.7388 8.7109 17.8284 8.6679 17.9238 8.64346C18.0193 8.61902 18.1185 8.6136 18.2161 8.62753C18.3136 8.64146 18.4074 8.67446 18.4921 8.72464C18.5769 8.77482 18.6509 8.8412 18.71 8.92C19.3863 9.80432 19.7528 10.8867 19.7528 12C19.7528 13.1133 19.3863 14.1957 18.71 15.08C18.6391 15.172 18.5483 15.2468 18.4444 15.2988C18.3405 15.3507 18.2261 15.3785 18.11 15.38V15.38Z" fill="currentColor"/>
</g>
</g>
</svg>
