<svg width="24" height="24" viewBox="0 0 24 24" fill="none" xmlns="http://www.w3.org/2000/svg">
<g >
<g id="wifi">
<path  d="M17.35 12.7901C17.1686 12.7907 16.9936 12.7229 16.86 12.6001C15.5322 11.411 13.8124 10.7534 12.03 10.7534C10.2476 10.7534 8.52781 11.411 7.2 12.6001C7.12651 12.6658 7.04077 12.7164 6.94769 12.749C6.85461 12.7816 6.75602 12.7955 6.65756 12.7899C6.5591 12.7843 6.46271 12.7594 6.3739 12.7165C6.28509 12.6736 6.20561 12.6137 6.14 12.5401C6.01092 12.3892 5.94597 12.1939 5.95905 11.9958C5.97213 11.7977 6.0622 11.6126 6.21 11.4801C7.80754 10.0423 9.88074 9.2467 12.03 9.2467C14.1793 9.2467 16.2525 10.0423 17.85 11.4801C17.9978 11.6126 18.0879 11.7977 18.101 11.9958C18.114 12.1939 18.0491 12.3892 17.92 12.5401C17.8469 12.6181 17.7586 12.6806 17.6607 12.7236C17.5627 12.7665 17.457 12.7892 17.35 12.7901V12.7901Z" fill="currentColor"/>
<path  d="M20 10C19.8111 9.99907 19.6292 9.92777 19.49 9.80002C17.4685 7.87306 14.7828 6.79812 11.99 6.79812C9.1972 6.79812 6.51154 7.87306 4.49001 9.80002C4.42118 9.88186 4.33564 9.94804 4.23914 9.99411C4.14264 10.0402 4.03739 10.0651 3.93048 10.0672C3.82356 10.0692 3.71744 10.0484 3.61923 10.0061C3.52102 9.96375 3.43299 9.90092 3.36106 9.82179C3.28913 9.74267 3.23495 9.64907 3.20215 9.54729C3.16936 9.4455 3.15871 9.33788 3.17092 9.23164C3.18313 9.1254 3.21792 9.023 3.27296 8.93131C3.32799 8.83962 3.402 8.76076 3.49001 8.70002C5.78578 6.52533 8.82776 5.31329 11.99 5.31329C15.1523 5.31329 18.1942 6.52533 20.49 8.70002C20.5994 8.80134 20.6761 8.93298 20.7104 9.07811C20.7446 9.22324 20.7348 9.37527 20.6822 9.5148C20.6296 9.65433 20.5366 9.77502 20.4151 9.86145C20.2936 9.94787 20.1491 9.99612 20 10Z" fill="currentColor"/>
<path  d="M9.38001 15.6401C9.26358 15.6401 9.14874 15.613 9.0446 15.5609C8.94046 15.5088 8.84987 15.4332 8.78001 15.3401C8.71962 15.2618 8.67552 15.1722 8.65033 15.0766C8.62514 14.981 8.61937 14.8813 8.63335 14.7834C8.64734 14.6855 8.68079 14.5915 8.73174 14.5067C8.7827 14.422 8.85011 14.3483 8.93001 14.2901C9.81278 13.6146 10.8934 13.2485 12.005 13.2485C13.1166 13.2485 14.1972 13.6146 15.08 14.2901C15.1588 14.3492 15.2252 14.4232 15.2754 14.508C15.3255 14.5927 15.3585 14.6865 15.3725 14.784C15.3864 14.8815 15.381 14.9808 15.3565 15.0762C15.3321 15.1716 15.2891 15.2613 15.23 15.3401C15.1091 15.497 14.9316 15.6005 14.7355 15.6285C14.5394 15.6566 14.3401 15.6069 14.18 15.4901C13.5549 15.014 12.7908 14.7562 12.005 14.7562C11.2192 14.7562 10.4552 15.014 9.83001 15.4901C9.69922 15.5856 9.54195 15.638 9.38001 15.6401V15.6401Z" fill="currentColor"/>
<path  d="M12 18.75C11.8011 18.75 11.6103 18.671 11.4697 18.5303C11.329 18.3897 11.25 18.1989 11.25 18C11.25 17.8011 11.329 17.6103 11.4697 17.4697C11.6103 17.329 11.8011 17.25 12 17.25C12.1989 17.25 12.3897 17.329 12.5303 17.4697C12.671 17.6103 12.75 17.8011 12.75 18C12.75 18.1989 12.671 18.3897 12.5303 18.5303C12.3897 18.671 12.1989 18.75 12 18.75Z" fill="currentColor"/>
</g>
</g>
</svg>
