<svg width="24" height="24" viewBox="0 0 24 24" fill="none" xmlns="http://www.w3.org/2000/svg">
<g >
<g id="youtube">
<path  d="M19.67 8.14002C19.5811 7.7973 19.4027 7.48433 19.1533 7.23309C18.9038 6.98185 18.5921 6.80134 18.25 6.71001C16.1759 6.4654 14.0882 6.35517 12 6.38001C9.91171 6.35517 7.82402 6.4654 5.74998 6.71001C5.4079 6.80134 5.09619 6.98185 4.84671 7.23309C4.59722 7.48433 4.41891 7.7973 4.32998 8.14002C4.10279 9.41396 3.99233 10.706 3.99998 12C3.99195 13.3007 4.10241 14.5994 4.32998 15.88C4.42352 16.2172 4.60388 16.5239 4.85306 16.7696C5.10223 17.0153 5.4115 17.1913 5.74998 17.28C7.82402 17.5246 9.91171 17.6349 12 17.61C14.0882 17.6349 16.1759 17.5246 18.25 17.28C18.5885 17.1913 18.8977 17.0153 19.1469 16.7696C19.3961 16.5239 19.5764 16.2172 19.67 15.88C19.8976 14.5994 20.008 13.3007 20 12C20.0076 10.706 19.8972 9.41396 19.67 8.14002ZM10.36 14.39V9.63001L14.55 12L10.36 14.38V14.39Z" fill="currentColor"/>
</g>
</g>
</svg>
