<svg width="128" height="128" viewBox="0 0 128 128" fill="none" xmlns="http://www.w3.org/2000/svg">
<path fill-rule="evenodd" clip-rule="evenodd" d="M40.3162 4.5233C42.9239 3.48394 45.616 2.61113 48.3794 1.91798V126.082C45.616 125.389 42.9239 124.516 40.3162 123.477V4.5233ZM128 64C128 99.1787 99.6189 127.728 64.5054 128V92.487C71.879 92.3567 78.9229 89.3708 84.1469 84.1466C89.4899 78.8035 92.4915 71.5566 92.4915 64.0003C92.4915 56.444 89.4899 49.1971 84.1469 43.854C78.9229 38.6298 71.879 35.6439 64.5054 35.5136V0C99.6189 0.271584 128 28.8213 128 64ZM27.2139 11.6203C24.3429 13.6403 21.6456 15.8905 19.1486 18.3439V109.656C21.6456 112.11 24.3429 114.36 27.2139 116.38V11.6203ZM0 64C0 51.9848 3.31079 40.7429 9.06982 31.1369V96.8632C3.31079 87.2571 0 76.0152 0 64Z" fill="#100024"/>
</svg>
