<svg  viewBox="0 0 16 16" fill="none" xmlns="http://www.w3.org/2000/svg">
<path fill-rule="evenodd" clip-rule="evenodd" d="M1.00852 12.6462C0.980515 12.7442 1.02252 12.8002 1.12052 12.8002H1.87653C1.94653 12.8002 2.01653 12.7582 2.04453 12.6882L2.60454 10.9241C2.61854 10.8821 2.63254 10.8821 2.66054 10.8821H6.83262C6.86062 10.8821 6.87462 10.8821 6.88862 10.9241L7.44863 12.6882C7.47663 12.7582 7.54663 12.8002 7.61663 12.8002H8.38665C8.48465 12.8002 8.52665 12.7442 8.49865 12.6462L5.37659 3.112C5.34859 3.042 5.27859 3 5.20859 3H4.27057C4.20057 3 4.13057 3.042 4.10257 3.112L1.00852 12.6462ZM2.94055 10.0701C2.89855 10.0701 2.87055 10.0281 2.88455 10.0001L4.70458 4.28802C4.71858 4.24602 4.77458 4.24602 4.78858 4.28802L6.60861 10.0001C6.62261 10.0281 6.59461 10.0701 6.55261 10.0701H2.94055ZM9.2352 11.0395C9.2352 12.3647 10.4229 12.8822 11.6686 12.8822C12.5956 12.8822 13.4212 12.6298 13.9137 12.0997C13.9426 12.0745 13.9716 12.0997 13.9716 12.1376V12.655C13.9716 12.7308 14.0296 12.7813 14.1165 12.7813H14.8552C14.9421 12.7813 15 12.7308 15 12.655V8.41426C15 7.16474 14.044 6.29387 12.2624 6.29387C10.7706 6.29387 9.71319 6.92494 9.51041 7.8463C9.49592 7.92203 9.55386 7.97251 9.64077 7.98513L10.4374 8.07348C10.5243 8.0861 10.5823 8.04824 10.6112 7.95989C10.7416 7.41717 11.3499 7.07639 12.2769 7.07639C13.4791 7.07639 13.9716 7.64436 13.9716 8.46474V8.94436C13.9716 8.9696 13.9426 8.99484 13.9137 8.99484H12.2335C10.336 8.99484 9.2352 9.77737 9.2352 11.0395ZM11.8569 12.1123C10.9733 12.1123 10.2636 11.7589 10.2636 10.989C10.2636 10.1686 11.1327 9.70164 12.3783 9.70164H13.9137C13.9426 9.70164 13.9716 9.72688 13.9716 9.75212V10.7366C13.9716 11.6201 12.9287 12.1123 11.8569 12.1123Z" fill="currentColor"/>
</svg>
