<svg  viewBox="0 0 16 16" fill="none" xmlns="http://www.w3.org/2000/svg">
<path fill-rule="evenodd" clip-rule="evenodd" d="M1.5 3.47368C1.5 3.21208 1.71208 3 1.97368 3H3.98684C4.24845 3 4.46053 3.21208 4.46053 3.47368C4.46053 3.73529 4.24845 3.94737 3.98684 3.94737H3.45395V7.02632L8.54605 7.02632V3.94737H8.01316C7.75155 3.94737 7.53947 3.73529 7.53947 3.47368C7.53947 3.21208 7.75155 3 8.01316 3H10.0263C10.2879 3 10.5 3.21208 10.5 3.47368C10.5 3.73529 10.2879 3.94737 10.0263 3.94737H9.49342V11.0526H10.0263C10.2879 11.0526 10.5 11.2647 10.5 11.5263C10.5 11.7879 10.2879 12 10.0263 12H8.01316C7.75155 12 7.53947 11.7879 7.53947 11.5263C7.53947 11.2647 7.75155 11.0526 8.01316 11.0526H8.54605V7.97368L3.45395 7.97368V11.0526H3.98684C4.24845 11.0526 4.46053 11.2647 4.46053 11.5263C4.46053 11.7879 4.24845 12 3.98684 12H1.97368C1.71208 12 1.5 11.7879 1.5 11.5263C1.5 11.2647 1.71208 11.0526 1.97368 11.0526H2.50658V3.94737H1.97368C1.71208 3.94737 1.5 3.73529 1.5 3.47368Z" fill="currentColor"/>
<path d="M12 7.17857C12 6.97959 12.12 6.82653 12.28 6.74235L13.224 6.22959C13.52 6.06888 13.68 6 13.912 6C14.256 6 14.44 6.23725 14.44 6.4898V11.4566C14.44 11.7551 14.184 12 13.872 12C13.56 12 13.304 11.7551 13.304 11.4566V7.30102L12.728 7.59949C12.656 7.6301 12.584 7.65306 12.496 7.65306C12.224 7.65306 12 7.43878 12 7.17857Z" fill="currentColor"/>
</svg>
