<svg  viewBox="0 0 16 16" fill="none" xmlns="http://www.w3.org/2000/svg">
<path fill-rule="evenodd" clip-rule="evenodd" d="M1 3.47368C1 3.21208 1.21208 3 1.47368 3H3.48684C3.74845 3 3.96053 3.21208 3.96053 3.47368C3.96053 3.73529 3.74845 3.94737 3.48684 3.94737H2.95395V7.02632L8.04605 7.02632V3.94737H7.51316C7.25155 3.94737 7.03947 3.73529 7.03947 3.47368C7.03947 3.21208 7.25155 3 7.51316 3H9.52632C9.78792 3 10 3.21208 10 3.47368C10 3.73529 9.78792 3.94737 9.52632 3.94737H8.99342V11.0526H9.52632C9.78792 11.0526 10 11.2647 10 11.5263C10 11.7879 9.78792 12 9.52632 12H7.51316C7.25155 12 7.03947 11.7879 7.03947 11.5263C7.03947 11.2647 7.25155 11.0526 7.51316 11.0526H8.04605V7.97368L2.95395 7.97368V11.0526H3.48684C3.74845 11.0526 3.96053 11.2647 3.96053 11.5263C3.96053 11.7879 3.74845 12 3.48684 12H1.47368C1.21208 12 1 11.7879 1 11.5263C1 11.2647 1.21208 11.0526 1.47368 11.0526H2.00658V3.94737H1.47368C1.21208 3.94737 1 3.73529 1 3.47368Z" fill="currentColor"/>
<path d="M11.864 9.056C11.864 8.808 12.064 8.608 12.304 8.608H12.496C13.2 8.608 13.656 8.328 13.656 7.76C13.656 7.288 13.32 7 12.616 7C12.064 7 11.8 7.24 11.576 7.24C11.288 7.24 11.096 7.08 11.096 6.8C11.096 6.6 11.208 6.464 11.392 6.352C11.776 6.096 12.328 6 12.768 6C14.016 6 14.736 6.688 14.736 7.616C14.736 8.304 14.344 8.728 13.824 8.968C14.456 9.192 14.848 9.712 14.848 10.432C14.848 11.464 14.032 12.272 12.624 12.272C12.272 12.272 11.672 12.232 11.288 11.992C11.112 11.888 11 11.736 11 11.52C11 11.2 11.304 11.056 11.584 11.112C11.832 11.168 11.984 11.272 12.48 11.272C13.336 11.272 13.728 10.968 13.728 10.368C13.728 9.712 13.256 9.504 12.504 9.504H12.304C12.064 9.504 11.864 9.304 11.864 9.056Z" fill="currentColor"/>
</svg>
