<svg width="24" height="24" viewBox="0 0 24 24" fill="none" xmlns="http://www.w3.org/2000/svg">
<g id="invoice-upcoming">
<path id="Icon" d="M20 12.4V7.8C20 6.11984 20 5.27976 19.673 4.63803C19.3854 4.07354 18.9265 3.6146 18.362 3.32698C17.7202 3 16.8802 3 15.2 3H8.8C7.11984 3 6.27976 3 5.63803 3.32698C5.07354 3.6146 4.6146 4.07354 4.32698 4.63803C4 5.27976 4 6.11984 4 7.8V21L6.75 19L9.25 21L10.625 20M8 7H15M8 11H12.5" stroke="#0C111D" stroke-width="2" stroke-linecap="round" stroke-linejoin="round"/>
<path id="Icon_2" d="M16.9795 21.9589C15.334 21.9589 14 20.625 14 18.9795C14 17.334 15.334 16 16.9795 16C17.8026 16 18.5478 16.3338 19.087 16.8734C19.6262 17.413 20.29 18.3174 20.29 18.3174M20.29 18.3174V16.3311M20.29 18.3174H18.3037" stroke="#0C111D" stroke-width="2" stroke-linecap="round" stroke-linejoin="round"/>
</g>
</svg>
