<svg width="24" height="24" viewBox="0 0 24 24" fill="none" xmlns="http://www.w3.org/2000/svg">
<g id="list-numbered">
<path id="Union" fill-rule="evenodd" clip-rule="evenodd" d="M5.55 8V4H4.44134L3.35 4.60156V5.52344L4.32008 5H4.34606V8H5.55ZM3.07444 13.2293V14H6V13.1445H4.51117V13.1214L4.86849 12.8131C5.15881 12.5626 5.38275 12.3468 5.54032 12.1657C5.69789 11.9846 5.80707 11.8195 5.86787 11.6705C5.92866 11.5202 5.95906 11.3693 5.95906 11.2177C5.95906 10.9724 5.89764 10.7585 5.77481 10.5761C5.65323 10.3937 5.48015 10.2524 5.25558 10.1522C5.03226 10.0507 4.76799 10 4.46278 10C4.16749 10 3.91005 10.0539 3.69045 10.1618C3.47084 10.2697 3.30087 10.4239 3.18052 10.6243C3.06017 10.8247 3 11.0636 3 11.341H3.98263C3.98263 11.2306 4.00248 11.1368 4.04218 11.0597C4.08189 10.9827 4.13772 10.9242 4.20968 10.8844C4.28288 10.8446 4.36725 10.8247 4.46278 10.8247C4.55831 10.8247 4.64268 10.8446 4.71588 10.8844C4.78908 10.9229 4.84615 10.9782 4.8871 11.0501C4.92928 11.122 4.95037 11.2087 4.95037 11.3102C4.95037 11.4027 4.93176 11.4868 4.89454 11.5626C4.85856 11.6384 4.80645 11.7123 4.73821 11.7842C4.67122 11.8548 4.59057 11.9306 4.49628 12.0116L3.07444 13.2293ZM4.48216 20.1001C4.19475 20.1001 3.93941 20.0475 3.71614 19.9423C3.49405 19.8358 3.31947 19.6895 3.1924 19.5031C3.06532 19.3168 3.00119 19.1026 3 18.8606H3.99761C3.99879 18.9353 4.02017 19.0025 4.06174 19.0621C4.10449 19.1204 4.16269 19.166 4.23632 19.199C4.30995 19.2319 4.39427 19.2484 4.48928 19.2484C4.58073 19.2484 4.66149 19.2313 4.73156 19.1971C4.80163 19.1616 4.85626 19.1128 4.89545 19.0507C4.93464 18.9886 4.95365 18.9176 4.95246 18.8377C4.95365 18.7592 4.93108 18.6895 4.88476 18.6286C4.83963 18.5678 4.7761 18.5202 4.69415 18.486C4.6122 18.4518 4.51779 18.4347 4.4109 18.4347H4.04036V17.7047H4.4109C4.50947 17.7047 4.59617 17.6876 4.67099 17.6533C4.747 17.6191 4.80579 17.5716 4.84735 17.5107C4.89011 17.4499 4.91089 17.3802 4.9097 17.3016C4.91089 17.2256 4.89367 17.1584 4.85804 17.1001C4.82241 17.0418 4.77253 16.9962 4.7084 16.9632C4.64546 16.9303 4.57242 16.9138 4.48928 16.9138C4.39902 16.9138 4.31827 16.9309 4.24701 16.9651C4.17694 16.9993 4.12171 17.0469 4.08133 17.1077C4.04095 17.1685 4.02017 17.2382 4.01898 17.3168H3.07126C3.07245 17.0786 3.13361 16.8682 3.25475 16.6856C3.37707 16.5031 3.54453 16.3599 3.75711 16.256C3.9697 16.1521 4.21375 16.1001 4.48928 16.1001C4.75887 16.1001 4.99699 16.1489 5.20364 16.2465C5.41148 16.3441 5.57359 16.4784 5.68997 16.6495C5.80755 16.8194 5.86574 17.0139 5.86455 17.2332C5.86693 17.4512 5.79686 17.6299 5.65434 17.7693C5.51302 17.9087 5.33369 17.9911 5.11635 18.0164V18.0469C5.41088 18.0811 5.63237 18.1774 5.78083 18.3358C5.92928 18.493 6.00232 18.6907 5.99994 18.929C6.00113 19.1571 5.937 19.3593 5.80755 19.5355C5.67928 19.7116 5.50055 19.8498 5.27134 19.9499C5.04331 20.05 4.78025 20.1001 4.48216 20.1001ZM9 5C8.44772 5 8 5.44772 8 6C8 6.55228 8.44772 7 9 7L21 7C21.5523 7 22 6.55229 22 6C22 5.44772 21.5523 5 21 5L9 5ZM9 11C8.44772 11 8 11.4477 8 12C8 12.5523 8.44772 13 9 13L21 13C21.5523 13 22 12.5523 22 12C22 11.4477 21.5523 11 21 11L9 11ZM9 17C8.44772 17 8 17.4477 8 18C8 18.5523 8.44772 19 9 19L21 19C21.5523 19 22 18.5523 22 18C22 17.4477 21.5523 17 21 17L9 17Z" fill="black"/>
</g>
</svg>
