<svg viewBox="0 0 16 16" fill="none" xmlns="http://www.w3.org/2000/svg">
<g clip-path="url(#clip0_1320_1887)">
<path d="M6.66665 10L4.61648 12.0758C4.3305 12.3654 4.18752 12.5102 4.06461 12.5204C3.95799 12.5292 3.85359 12.4864 3.78395 12.4051C3.70368 12.3115 3.70368 12.108 3.70368 11.7011V10.6611C3.70368 10.296 3.4047 10.0318 3.04345 9.97892V9.97892C2.16914 9.85086 1.4825 9.16421 1.35443 8.28991C1.33331 8.14574 1.33331 7.97372 1.33331 7.62967V4.53337C1.33331 3.41327 1.33331 2.85322 1.5513 2.42539C1.74305 2.04907 2.04901 1.74311 2.42533 1.55136C2.85316 1.33337 3.41321 1.33337 4.53331 1.33337H9.46665C10.5868 1.33337 11.1468 1.33337 11.5746 1.55136C11.951 1.74311 12.2569 2.04907 12.4487 2.42539C12.6666 2.85322 12.6666 3.41327 12.6666 4.53337V7.33337M12.6666 14.6667L11.2157 13.658C11.0117 13.5162 10.9098 13.4453 10.7988 13.395C10.7003 13.3504 10.5967 13.3179 10.4904 13.2983C10.3705 13.2762 10.2463 13.2762 9.99793 13.2762H8.79998C8.05324 13.2762 7.67987 13.2762 7.39466 13.1309C7.14378 13.0031 6.9398 12.7991 6.81197 12.5482C6.66665 12.263 6.66665 11.8896 6.66665 11.1429V9.46671C6.66665 8.71997 6.66665 8.3466 6.81197 8.06139C6.9398 7.8105 7.14378 7.60653 7.39466 7.4787C7.67987 7.33337 8.05324 7.33337 8.79998 7.33337H12.5333C13.28 7.33337 13.6534 7.33337 13.9386 7.4787C14.1895 7.60653 14.3935 7.8105 14.5213 8.06139C14.6666 8.3466 14.6666 8.71997 14.6666 9.46671V11.2762C14.6666 11.8975 14.6666 12.2081 14.5652 12.4531C14.4298 12.7798 14.1703 13.0394 13.8436 13.1747C13.5985 13.2762 13.2879 13.2762 12.6666 13.2762V14.6667Z" stroke="black" stroke-linecap="round" stroke-linejoin="round"/>
</g>
<defs>
<clipPath id="clip0_1320_1887">
<rect width="16" height="16" fill="white"/>
</clipPath>
</defs>
</svg>
