<svg width="24" height="25" viewBox="0 0 24 25" fill="none" xmlns="http://www.w3.org/2000/svg">
<path d="M3 13.2029C3 12.6506 3.44772 12.2029 4 12.2029H6.63636C7.18865 12.2029 7.63636 12.6506 7.63636 13.2029V20.4756C7.63636 21.0279 7.18865 21.4756 6.63636 21.4756H4C3.44771 21.4756 3 21.0279 3 20.4756V13.2029Z" fill="#667085"/>
<path d="M9.18188 8.56665C9.18188 8.01437 9.6296 7.56665 10.1819 7.56665H12.8182C13.3705 7.56665 13.8182 8.01437 13.8182 8.56665V20.4757C13.8182 21.028 13.3705 21.4757 12.8182 21.4757H10.1819C9.6296 21.4757 9.18188 21.028 9.18188 20.4757V8.56665Z" fill="#667085"/>
<path d="M15.3638 3.93017C15.3638 3.37789 15.8115 2.93018 16.3638 2.93018H19.0001C19.5524 2.93018 20.0001 3.37789 20.0001 3.93018V20.4756C20.0001 21.0279 19.5524 21.4756 19.0001 21.4756H16.3638C15.8115 21.4756 15.3638 21.0279 15.3638 20.4756V3.93017Z" fill="#D0D5DD"/>
</svg>
