<svg xmlns="http://www.w3.org/2000/svg" width="250" height="250" fill="none"><path fill="#356AE6" d="M114.684 134.851c3.802 0 7.604-1.462 11.698-4.533 4.826-3.363 9.066-6.142 9.066-6.142l1.463-1.023-1.463-1.024c-.585-.439-64.194-44.6-70.774-48.84-3.071-2.194-6.58-2.632-9.359-1.316-2.632 1.316-4.094 4.094-4.094 7.457v15.062l.585.292c.438.293 44.16 30.708 52.642 36.411 3.509 2.486 6.873 3.656 10.236 3.656Z"/><path fill="#356AE6" d="M199.935 108.384C196.133 105.605 59.702 10.41 53.853 6.316L51.952 5v23.397c0 7.457 3.948 10.236 8.773 13.745 0 0 104.7 72.968 117.715 81.888-13.015 9.066-111.573 77.355-117.86 81.303-7.458 4.972-8.19 8.189-8.19 14.916V245.4S196.718 142.163 199.79 139.823c6.58-4.972 8.042-10.821 8.189-15.062v-2.632c.146-5.264-2.632-9.943-8.043-13.745Z"/></svg>