<svg width="32" height="32" viewBox="0 0 32 32" fill="none" xmlns="http://www.w3.org/2000/svg">
<g clip-path="url(#clip0_7378_2160)">
<path d="M27.7633 18.832L25.7535 16.078L25.5564 15.84C25.2412 15.432 24.7289 15.194 24.1771 15.194L20.9456 15.16L20.7486 15.5L16.8865 20.838L16.6895 21.144L18.3052 23.388C18.6205 23.796 19.1328 24.034 19.6845 24.034H24.2165C24.7683 24.034 25.32 23.796 25.5959 23.388L25.7535 23.184L27.7633 20.396C28.0786 19.886 28.0786 19.308 27.7633 18.832ZM27.1328 20.022L25.123 22.81C25.123 22.81 25.123 22.844 25.0835 22.844C25.0047 22.912 24.9259 22.912 24.8865 22.912C24.8471 22.912 24.7289 22.912 24.65 22.81L22.6402 20.022C22.6008 19.988 22.6008 19.954 22.5614 19.92C22.5614 19.886 22.522 19.852 22.522 19.818C22.4826 19.682 22.4826 19.546 22.522 19.376C22.5614 19.308 22.5614 19.24 22.6402 19.172L24.65 16.418C24.6895 16.35 24.7683 16.316 24.8077 16.316C24.8471 16.316 24.8471 16.316 24.8471 16.316C24.8471 16.316 24.8471 16.316 24.8865 16.316C24.9259 16.316 25.0441 16.316 25.123 16.418L27.1328 19.172C27.3298 19.444 27.3298 19.75 27.1328 20.022Z" fill="black"/>
<path d="M21.8128 12.134C22.1281 11.692 22.1281 11.08 21.8128 10.638L19.803 7.884L19.6453 7.646C19.33 7.238 18.8177 7 18.266 7H13.734C13.1823 7 12.6699 7.238 12.3547 7.646L4.23645 18.866C4.07882 19.07 4 19.342 4 19.58C4 19.852 4.07882 20.09 4.23645 20.328L6.40394 23.32C6.71921 23.762 7.23153 24 7.82266 24H12.3547C12.9064 24 13.4581 23.762 13.734 23.354L13.8916 23.116L15.5074 20.872L20.2759 14.276L21.8128 12.134ZM21.3399 11.42C21.3399 11.556 21.3005 11.692 21.1823 11.828L13.2611 22.776C13.1823 22.878 13.064 22.878 13.0246 22.878C12.9852 22.878 12.867 22.878 12.7882 22.776L10.7783 19.988C10.5813 19.75 10.5813 19.41 10.7783 19.172L18.7389 8.224C18.8177 8.122 18.936 8.122 18.9754 8.122C19.0148 8.122 19.133 8.122 19.2118 8.224L21.2217 10.978C21.3005 11.114 21.3399 11.25 21.3399 11.42Z" fill="black"/>
</g>
<defs>
<clipPath id="clip0_7378_2160">
<rect width="24" height="17" fill="white" transform="translate(4 7)"/>
</clipPath>
</defs>
</svg>
