<svg xmlns="http://www.w3.org/2000/svg" width="250" height="250" fill="none"><g clip-path="url(#a)"><path fill="#212123" d="M221.561 104.436c6.548-6.528 13.812-4.607 13.812 1.725 0 6.183-7.437 12.86-16.407 18.033a60.653 60.653 0 0 1-2.94 1.577c-.346-1.552-.544-3.277-.544-5.198 0-5.297 2.249-12.318 6.079-16.137Zm-34.938 66.665c-8.697 8.672-19.816-2.39-6.844-15.324 2.94-2.931 7.758-6.159 12.774-9.09 2.866 7.07.593 17.885-5.93 24.414Zm-55.421-34.737c-6.671 0-10.995-7.982-9.661-17.836 1.31-9.854 7.783-17.836 14.454-17.836 6.178 0 10.329 6.848 9.859 15.693a125.376 125.376 0 0 0-.445 3.695c-1.754 9.115-7.906 16.284-14.207 16.284Zm-88.11-3.276c-2.175 2.168-4.843 3.326-7.536 3.326-2.52 0-4.695-1.134-6.499-2.932-6.177-6.159-5.633-21.261 2.298-29.193 2.249-2.242 4.967-3.548 7.759-3.548 2.495 0 4.694 1.109 6.498 2.907 5.806 5.789 6.152 20.793-2.52 29.44Zm206.562 3.227s-2.471-3.449-3.237-4.434c-.518-.641-1.161-1.429-2.866-.271-3.755 2.513-7.981 4.804-13.194 4.804-3.978 0-7.462-1.01-10.056-3.203a60.85 60.85 0 0 0 3.385-1.651c6.152-3.325 11.291-7.538 13.762-10.002 11.984-11.948 8.228-29.76-6.374-29.76-13.788 0-24.684 13.402-24.684 28.282 0 2.242.272 5.445 1.235 8.844-.815.395-6.276 3.031-12.823 6.627-6.153-4.606-15.764-2.537-15.764-2.537 8.919-12.614 22.336-32.322 23.473-33.948.815-1.158.691-2.316-.099-4.139-1.013-2.193-2.026-2.587-3.41-2.587h-27.871c-.914 0-1.631.419-1.903 1.454-.247 1.01-.84 4.533-.939 5.74-.123 1.207 1.013 1.946 2.199 1.946h20.187l-18.259 26.04a1.377 1.377 0 0 0-.346.394c-2.644 3.819-6.721 9.165-11.613 9.165-3.039 0-6.795-2.168-6.795-9.263 0-6.948 2.817-21.63 4.868-33.062.222-1.231-.198-2.438-2.175-2.438h-4.942c-1.136 0-1.779.69-1.951 1.65-.297 1.75-.593 3.474-.89 5.124-2.446-4.656-6.35-7.292-12.008-7.292-5.238 0-10.353 1.946-14.529 6.085-10.427 10.397-8.45 27.346-17.444 36.313-3.879 3.868-8.277 2.686-8.277-4.927 0-8.696 3.335-18.378 7.165-27.567.667-1.626-.049-2.981-.766-4.04-1.013-1.479-1.408-2.267-3.237-2.267-2.841 0-7.388 1.798-16.48 1.798-1.927 0-3.78-.073-5.436-.197.099-1.355.123-2.266.148-2.611.05-1.281-.395-2.094-1.754-2.094h-4.645c-1.68 0-2.1.788-2.298 2.094-.79 5.543-2.298 25.892-12.527 36.091-1.186 1.183-1.903 1.552-1.903 1.552 2.545-4.976 3.929-11.504 3.929-16.678 0-14.56-8.648-23.576-19.495-23.576-3.311 0-6.82 1.059-10.106 3.104 1.532-8.87 2.94-17.171 3.434-19.98.42-2.365-.444-3.597-1.062-4.582C30.243 68.714 29.33 68 27.945 68h-16.01c-.915 0-1.607.64-1.83 1.65-.27 1.183-.84 4.287-.913 5.716-.05 1.257.815 1.725 1.828 1.725h11.712c-1.878 11.455-5.436 33.652-6.523 39.22-1.359 7.095-6.424 15.791-14.949 18.871-1.062.394-1.507 1.355-1.112 2.488.396 1.133 1.854 4.09 2.298 4.853.445.789 1.433 1.306 2.372.986 4.423-1.552 8.475-4.065 11.687-7.243a27.026 27.026 0 0 0 2.298-2.636c3.83 8.573 11.613 11.702 19.594 11.702 9.019 0 18.754-3.129 25.573-9.953 7.981-7.933 11.317-21.088 12.725-30.401 1.977.271 4.225.493 6.375.493 5.485 0 10.081-1.158 10.081-1.158s-5.535 14.634-5.535 25.424c0 12.17 5.832 15.619 12.305 15.619 6.647 0 11.317-4.976 14.652-11.135.865 1.922 2.15 4.213 3.904 5.962 3.015 3.006 6.746 5.173 12.132 5.173 6.152 0 11.44-3.547 15.196-8.992.667 2.292 1.705 4.213 3.113 5.617 1.902 1.897 5.386 3.375 9.76 3.375 7.511 0 11.86-5.616 23.547-5.616 1.482 0 2.817.221 4.027.64-5.361 3.252-10.451 6.75-13.565 9.854-9.636 9.608-10.081 22.247-3.755 28.553 7.659 7.637 18.581 3.819 25.4-2.981 7.981-7.957 10.303-23.01 5.683-33.307 5.584-2.932 10.254-5.1 11.366-5.617 3.484 4.754 9.266 8.474 18.803 8.474 6.82 0 13.688-2.414 19.05-6.454.84-.567 1.013-1.749.42-2.587Z"/></g><defs><clipPath id="a"><path fill="#fff" d="M0 68h250v115H0z"/></clipPath></defs></svg>