<svg xmlns="http://www.w3.org/2000/svg" width="250" height="250" fill="none"><g clip-path="url(#a)"><path fill="#009CDE" d="M158.076 64.877C143.215 50.06 129.037 35.932 124.817 20c-4.22 15.932-18.401 30.059-33.26 44.877C69.27 87.098 44 112.282 44 150.054a80.46 80.46 0 0 0 6.152 30.855 80.608 80.608 0 0 0 17.52 26.158 80.833 80.833 0 0 0 26.22 17.478 80.987 80.987 0 0 0 61.855 0 80.832 80.832 0 0 0 26.22-17.478 80.614 80.614 0 0 0 17.52-26.158 80.469 80.469 0 0 0 6.152-30.855c0-37.769-25.268-62.956-47.563-85.177ZM78.351 168.842c-4.956-.168-23.245-31.616 10.684-65.101l22.452 24.466a1.916 1.916 0 0 1 .359 2.237c-.124.24-.297.452-.509.621-5.358 5.481-28.193 28.327-31.031 36.226-.586 1.63-1.442 1.569-1.955 1.551Zm46.468 41.449c-3.65 0-7.264-.718-10.637-2.111a27.807 27.807 0 0 1-9.017-6.011 27.722 27.722 0 0 1-6.026-8.997 27.67 27.67 0 0 1-2.115-10.612 28.854 28.854 0 0 1 6.928-18.316c5.012-6.114 20.864-23.311 20.864-23.311s15.609 17.449 20.826 23.253a27.077 27.077 0 0 1 6.973 18.374 27.698 27.698 0 0 1-8.141 19.609 27.832 27.832 0 0 1-19.655 8.122Zm53.202-44.969c-.6 1.307-1.959 3.489-3.793 3.556-3.269.119-3.619-1.553-6.035-5.121-5.306-7.832-51.606-56.107-60.266-65.444-7.618-8.211-1.073-14 1.963-17.035 3.809-3.806 14.926-14.89 14.926-14.89s33.151 31.378 46.961 52.818c13.809 21.441 9.05 39.994 6.244 46.116Z"/></g><defs><clipPath id="a"><path fill="#fff" d="M44 20h162v211H44z"/></clipPath></defs></svg>