<svg xmlns="http://www.w3.org/2000/svg" width="250" height="250" fill="none"><path fill="#6A58CF" d="M209.664 160.72c-6.16-3.227-12.935.522-15.635 3.275a15.615 15.615 0 0 1-5.781 3.749 15.891 15.891 0 0 1-6.822.949c-2.322-.19-4.548-.902-6.586-2.041-2.037-1.139-3.742-2.752-5.116-4.651a15.236 15.236 0 0 1-.901-1.471c20.847-15.756 34.255-40.815 34.208-69.006-.048-47.65-38.993-86.329-86.561-85.996C69.187 5.86 31 44.349 31 91.76c0 30.849 16.203 57.948 40.508 73.183a19.25 19.25 0 0 1-.426 2.278c-.569 2.278-1.658 4.366-3.127 6.169a15.371 15.371 0 0 1-5.448 4.225c-.522.237-1.043.474-1.611.664-.048 0-.048 0-.095.047-.19.048-.332.095-.521.143-2.18.617-4.501.807-6.775.474-3.79-.569-14.072-.949-16.82 6.075-2.51 6.455 2.748 11.391 8.197 13.099.995.332 1.99.57 3.032.806.758.238 1.516.428 2.274.523 1.848.285 3.743.427 5.638.427 3.506 0 6.965-.522 10.281-1.519.048 0 .048 0 .095-.048.047 0 .047 0 .095-.047.474-.142.995-.285 1.469-.474 4.548-1.566 8.717-4.034 12.318-7.214a20.68 20.68 0 0 0 2.227-2.326c.52-.569.995-1.091 1.516-1.708.237-.285.426-.57.663-.854.047-.048.047-.095.095-.143 1.09-1.424 2.085-2.895 2.937-4.461 0 0 0-.048.048-.048.332-.617 1.279-.237 1.042.428-.047.095-.047.142-.095.237a69.27 69.27 0 0 1-9.475 18.889 72.153 72.153 0 0 1-11.608 12.719c-4.69 3.986-6.444 10.726-3.27 15.994 3.175 5.268 10.045 6.976 14.877 3.18 6.918-5.411 12.982-11.818 18.1-19.032a91.69 91.69 0 0 0 13.028-26.767c.237-.854.568-2.04.853-3.274.189-.855 1.469-.712 1.469.142.047 1.092.047 2.183.047 3.227a69.94 69.94 0 0 1-6.112 27.527c-2.369 5.267-5.401 10.203-8.954 14.712-3.838 4.793-4.217 11.77-.095 16.326 4.122 4.556 11.181 4.936 15.208.285 5.733-6.645 10.471-14.096 14.119-22.164a90.71 90.71 0 0 0 8.054-36.354v-2.847c0-.665.948-.807 1.137-.19.285 1.044.569 2.041.758 2.752a69.371 69.371 0 0 1 1.516 21.452 68.048 68.048 0 0 1-3.6 16.849c-2.037 5.789-.095 12.529 5.306 15.424 5.401 2.895 12.177.901 14.403-4.794 3.222-8.163 5.212-16.801 5.97-25.58.663-7.546.332-15.093-.853-22.496-.332-2.183-.805-4.319-1.279-6.455-.142-.522.521-.949.947-.569 1.706 1.471 3.554 2.753 5.496 3.891a36.31 36.31 0 0 0 15.161 4.699 36.95 36.95 0 0 0 15.73-2.183c5.022-1.899 9.571-4.841 13.313-8.685 1.327-1.376 2.558-2.8 3.648-4.367 3.364-4.508 2.322-10.63-2.747-13.288ZM86.622 104.955c-5.875.807-11.323-3.274-12.129-9.207-.805-5.933 3.27-11.343 9.192-12.15 5.874-.807 11.323 3.275 12.129 9.208.805 5.884-3.27 11.342-9.192 12.149Zm76.611-10.678c-5.875.807-11.324-3.275-12.129-9.207-.806-5.885 3.269-11.343 9.191-12.15 5.875-.807 11.323 3.275 12.129 9.207.806 5.933-3.316 11.343-9.191 12.15Z"/></svg>