<svg xmlns="http://www.w3.org/2000/svg" width="250" height="250" fill="none"><path fill="#09C6FA" d="M158.251 34.504c12.262 0 24.528.04 36.805 0 6.195-.047 11.712 1.618 16.399 5.75 5.145 4.525 8.13 10.213 8.155 17.08.106 24.967.39 49.942-.073 74.898-.419 22.471-8.432 42.307-23.198 59.229-15.433 17.698-34.86 28.24-58.065 31.534-17.984 2.562-35.326.033-51.823-7.592-23.034-10.644-39.305-27.95-48.776-51.508-5.696-14.177-7.675-29.005-6.06-44.273 2.12-20.032 9.766-37.637 22.935-52.815C67.305 52.19 83.095 42.469 101.79 37.524a93.923 93.923 0 0 1 24.415-3.009c10.675.007 21.357.004 32.047-.01Zm-18.243 84.317c-7.193 0-14.387-.022-21.58.022-1.25 0-1.644-.216-1.184-1.563 1.771-5.227 3.44-10.487 5.149-15.74 1.761-5.403 3.52-10.805 5.276-16.208.456-1.402 0-2.537-1.213-3.225-1.214-.688-2.438-.435-3.353.71-.51.64-.969 1.322-1.457 1.988-8.387 11.733-16.768 23.462-25.145 35.187a3357.736 3357.736 0 0 1-10.04 13.968 3.432 3.432 0 0 0-.404 3.704c.623 1.347 1.771 1.86 3.174 1.915.598.022 1.2.018 1.797.018h40.544c2.449 0 2.493 0 1.713 2.416a10361.216 10361.216 0 0 1-9.927 30.381c-.601 1.83-.317 2.965.995 3.697 1.312.732 2.453.417 3.644-1.098.172-.213.328-.436.489-.659 11.904-16.538 23.8-33.075 35.69-49.613.893-1.241 1.337-2.533.583-3.968-.754-1.434-2.037-1.958-3.666-1.951-7.026.044-14.055.019-21.085.019Z"/><path fill="#FBFEFE" d="M140.008 118.821c7.03 0 14.059.025 21.089-.019 1.629 0 2.897.487 3.666 1.951.769 1.465.309 2.727-.583 3.968a72370.329 72370.329 0 0 0-35.691 49.613c-.16.223-.317.446-.488.659-1.203 1.508-2.321 1.83-3.644 1.098s-1.596-1.86-.995-3.697a23403.26 23403.26 0 0 0 9.927-30.381c.779-2.405.728-2.416-1.713-2.416H91.032c-.598 0-1.2 0-1.797-.018-1.403-.055-2.55-.568-3.174-1.915a3.434 3.434 0 0 1 .4-3.704 2635.3 2635.3 0 0 0 10.051-13.964 20939.63 20939.63 0 0 0 25.145-35.187c.477-.667.936-1.347 1.457-1.988.915-1.146 2.114-1.413 3.353-.71 1.239.703 1.669 1.83 1.213 3.225l-5.276 16.208c-1.709 5.249-3.378 10.509-5.15 15.739-.459 1.347-.065 1.571 1.185 1.563 7.182-.047 14.376-.025 21.569-.025Z"/></svg>