<svg xmlns="http://www.w3.org/2000/svg" viewBox="0 0 200 53" fill="none"><path fill="#100024" d="M60.903 27.114c0 5.227 4.147 9.409 9.757 9.409 5.541 0 9.758-4.182 9.758-9.41 0-5.227-4.217-9.409-9.758-9.409-5.61 0-9.757 4.182-9.757 9.41Zm5.053 0c0-3.137 2.09-5.228 4.704-5.228s4.705 2.091 4.705 5.228c0 3.136-2.091 5.227-4.705 5.227-2.613 0-4.704-2.091-4.704-5.227ZM82.172 42.62h4.88v-8.886h.173c.384.523.837.976 1.36 1.394.94.697 2.265 1.394 4.216 1.394 4.53 0 8.19-3.66 8.19-9.41s-3.66-9.409-8.19-9.409c-1.951 0-3.276.697-4.216 1.395a7.348 7.348 0 0 0-1.36 1.393h-.174v-2.265h-4.879v24.394Zm4.88-15.507c0-3.346 1.881-5.228 4.53-5.228 2.474 0 4.356 1.882 4.356 5.228 0 3.345-1.882 5.227-4.356 5.227-2.649 0-4.53-1.882-4.53-5.227Zm14.81 0c0 5.227 4.147 9.409 9.583 9.409 3.834 0 6.099-1.569 7.493-3.137.801-.94 1.359-1.986 1.742-3.136h-5.227a3.94 3.94 0 0 1-.837 1.046c-.662.522-1.603 1.045-3.171 1.045-2.265 0-4.147-1.917-4.53-4.182h13.939v-1.045c0-5.193-3.833-9.41-9.409-9.41-5.436 0-9.583 4.182-9.583 9.41Zm5.227-1.917c.523-1.777 2.091-3.31 4.356-3.31 2.265 0 3.834 1.567 4.182 3.31h-8.538ZM122.757 36h4.879v-9.41c0-2.787 1.917-4.704 4.182-4.704 2.265 0 3.659 1.36 3.659 4.008V36h4.879V25.197c0-4.914-2.614-7.492-6.97-7.492-2.056 0-3.345.766-4.286 1.498-.523.418-.976.906-1.29 1.464h-.174v-2.44h-4.879V36Zm20.225 0h8.886v-4.182h-4.007V11.606h-4.879V36Zm9.768-22.651c0 1.393 1.22 2.613 2.788 2.613 1.568 0 2.788-1.22 2.788-2.614s-1.22-2.613-2.788-2.613c-1.568 0-2.788 1.22-2.788 2.614ZM153.099 36h4.878V18.227h-4.878V36Zm7.666 0h4.879v-9.41c0-2.787 1.917-4.704 4.182-4.704 2.265 0 3.659 1.36 3.659 4.008V36h4.879V25.197c0-4.914-2.614-7.492-6.97-7.492-2.056 0-3.345.766-4.286 1.498-.523.418-.976.906-1.29 1.464h-.174v-2.44h-4.879V36Zm19.179-8.886c0 5.227 4.147 9.409 9.584 9.409 3.833 0 6.098-1.569 7.492-3.137.802-.94 1.359-1.986 1.742-3.136h-5.227a3.956 3.956 0 0 1-.836 1.046c-.662.522-1.603 1.045-3.171 1.045-2.266 0-4.147-1.917-4.531-4.182h13.94v-1.045c0-5.193-3.834-9.41-9.409-9.41-5.437 0-9.584 4.182-9.584 9.41Zm5.228-1.917c.522-1.777 2.09-3.31 4.356-3.31 2.265 0 3.833 1.567 4.181 3.31h-8.537Z"/><mask id="a" width="53" height="53" x="0" y="0" maskUnits="userSpaceOnUse" style="mask-type:alpha"><circle cx="26.136" cy="26.136" r="26.136" fill="#000"/></mask><g mask="url(#a)"><path fill="#100024" fill-rule="evenodd" d="M16.464 1.848A25.934 25.934 0 0 1 19.757.784V51.49a25.946 25.946 0 0 1-3.293-1.064V1.848Zm35.809 24.288c0 14.366-11.59 26.025-25.93 26.136V37.77a11.635 11.635 0 0 0 0-23.267V.001c14.34.11 25.93 11.77 25.93 26.135Zm-41.16-21.39A26.273 26.273 0 0 0 7.82 7.492v37.29a26.27 26.27 0 0 0 3.293 2.744V4.746ZM0 26.136c0-4.906 1.352-9.497 3.704-13.42v26.841A26.015 26.015 0 0 1 0 26.137Z" clip-rule="evenodd"/></g></svg>