<svg xmlns="http://www.w3.org/2000/svg" viewBox="0 0 32 16" fill="none"><path fill="#9E9E9E" d="m3.857 0 3.857 1.838v1.59L3.857 1.592 0 3.429V1.838L3.857 0ZM3.857 4.143a3.857 3.857 0 1 0 0 7.713 3.857 3.857 0 0 0 0-7.713ZM3.857 16 0 14.162v-1.59l3.857 1.837 3.857-1.838v1.591L3.857 16Z"/><path fill="#9E9E9E" fill-rule="evenodd" d="M15.286 4.143a3.857 3.857 0 1 0-.001 7.713 3.857 3.857 0 0 0 0-7.713ZM12.898 8a2.388 2.388 0 1 0 4.775 0 2.388 2.388 0 0 0-4.775 0ZM23.87 8.83a2.382 2.382 0 0 0 1.732-2.281v-.037c-.011-1.311-1.067-2.37-2.366-2.37h-3.093v1.39l1.164 1.913h-1.16v4.412h1.455V8.915h.611l1.79 2.942h1.711L23.87 8.83Zm-.845-1.381h.215c.502 0 .91-.411.91-.918a.914.914 0 0 0-.91-.919H21.9l1.125 1.837Z" clip-rule="evenodd"/><path fill="#9E9E9E" d="M28.15 11.857H26.5l1.936-3.853L26.5 4.143h1.65l1.104 2.219 1.133-2.22H32l-3.85 7.715Z"/></svg>