<svg xmlns="http://www.w3.org/2000/svg" width="250" height="250" fill="none"><ellipse cx="125.002" cy="94.024" fill="#394ECE" rx="89.998" ry="90.024"/><path fill="#5E6FCE" fill-rule="evenodd" d="M183.065 90.152c14.905 0 27.828-10.56 27.614-23.755C199.021 30.194 165.069 4.001 125 4c-49.704.001-89.996 40.306-89.996 90.024 0 43.605 30.994 79.97 72.147 88.253.286-2.597.432-5.236.432-7.909v-64.856c0-10.692 8.666-19.36 19.354-19.36h56.128Z" clip-rule="evenodd"/><path fill="#828FD0" fill-rule="evenodd" d="M107.151 182.277c-41.153-8.283-72.147-44.647-72.147-88.253C35.004 44.306 75.296 4.001 125 4h-.002C75.296 4 35.004 44.305 35 94.024L35.004 246h.968c36.877 0 67.244-27.883 71.179-63.723Z" clip-rule="evenodd"/></svg>