<svg xmlns="http://www.w3.org/2000/svg" width="250" height="250" fill="none"><g fill="#1AB885" clip-path="url(#a)"><path d="M162.425 97.89c.029.098.067.192.114.282l.265-.246a2.761 2.761 0 0 1-.379-.035Zm0 0c.029.098.067.192.114.282l.265-.246a2.761 2.761 0 0 1-.379-.035Zm0 0c.029.098.067.192.114.282l.265-.246a2.761 2.761 0 0 1-.379-.035Zm31.81-30.005-.053-.08v.132l-8.978 8.576-5.847 5.573c.079.15.159.308.247.458l6.173-5.934 8.422-8.118.247-.246-.211-.361Zm-31.81 30.006c.029.097.067.191.114.281l.265-.246a2.761 2.761 0 0 1-.379-.035Zm0 0c.029.097.067.191.114.281l.265-.246a2.761 2.761 0 0 1-.379-.035Zm0 0c.029.097.067.191.114.281l.265-.246a2.761 2.761 0 0 1-.379-.035Zm0 0c.029.097.067.191.114.281l.265-.246a2.761 2.761 0 0 1-.379-.035Z"/><path d="M207.357 116.09a95.03 95.03 0 0 1-10.707 43.755 95.187 95.187 0 0 1-29.663 33.936 95.437 95.437 0 0 1-86.852 11.904L55.91 229l-17.514-10.495 22.858-22.012 16.553-15.936a73.396 73.396 0 0 0 20.442 7.687 74.12 74.12 0 0 0 32.65-.415 74.047 74.047 0 0 0 29.291-14.404 73.901 73.901 0 0 0 20.229-25.589 73.775 73.775 0 0 0 7.228-31.79c0-1.523-.053-3.038-.15-4.526a74.23 74.23 0 0 0-7.937-29.002l6.173-5.934 8.422-8.118.247-.247c.291.493.573 1.004.882 1.515.309.51.556.994.82 1.505.194.361.397.74.591 1.118.194.379.397.731.573 1.11.053.079.08.167.132.246.212.44.424.88.644 1.312l.609 1.312c.423.933.829 1.849 1.226 2.8.229.528.441 1.056.661 1.576.22.52.494 1.233.723 1.858.229.625.485 1.311.706 1.963.079.229.158.458.247.687.247.722.485 1.461.723 2.183a103.528 103.528 0 0 1 2.028 7.423 95.921 95.921 0 0 1 2.39 21.263ZM162.425 97.89c.029.098.067.192.114.282l.265-.246a2.746 2.746 0 0 1-.379-.035Z"/><path d="m162.804 97.926-.265.246a1.586 1.586 0 0 1-.114-.281c.125.02.252.032.379.035ZM221 42.316l-26.766 25.533-.053-.079a28.679 28.679 0 0 0-7.104-17.324 28.762 28.762 0 0 0-16.292-9.266 28.268 28.268 0 0 0-5.292-.493 28.698 28.698 0 0 0-20.46 8.558 73.18 73.18 0 0 0-21.721-6.313 48.402 48.402 0 0 1 17.336-15.997 48.482 48.482 0 0 1 45.786-.34 48.397 48.397 0 0 1 17.572 15.739L221 42.316Z"/><path d="m194.447 68.263-.247.247-8.422 8.117-6.174 5.935c-.088-.15-.167-.308-.247-.458l5.847-5.53L194.182 68v-.229l.053.08.212.413Z"/><path d="m194.2 68.51-8.422 8.117-6.174 5.935c-.088-.15-.167-.308-.247-.458l5.847-5.53L194.182 68c0 .132.018.335.018.51ZM162.769 98.762c-.08-.202-.168-.396-.23-.59a1.585 1.585 0 0 1-.114-.281 52.867 52.867 0 0 0-25.654-27.348c-6.438-3.134-47.622-11.446-47.622-11.446l-11.57-2.113-6.439-1.162-28.167-5.115-11.218-2.034a29.542 29.542 0 0 0-1.764 10.037 29.602 29.602 0 0 0 4.52 15.633 29.668 29.668 0 0 0 12.104 10.895 28.709 28.709 0 0 0 7.196 2.404 28.675 28.675 0 0 1-5.75.572c-.882 0-1.764 0-2.645-.114a29.74 29.74 0 0 1-9.807-2.641 28.499 28.499 0 0 0-.68 6.084 29.532 29.532 0 0 0 7.569 19.703 29.621 29.621 0 0 0 18.8 9.642 52.462 52.462 0 0 0 9.168 26.567 52.584 52.584 0 0 0 21.575 18.046c.309.15.626.3.935.432a52.435 52.435 0 0 0 20.76 4.243c1.128 0 2.231 0 3.351-.096a52.49 52.49 0 0 0 34.993-16.448 52.32 52.32 0 0 0 14.19-35.922v-.062a52.39 52.39 0 0 0-3.501-18.886Zm-28.768 10.231-21.5 21.457.203.211-1.632 1.559a7.784 7.784 0 0 1-11.015-.176l-10.582-10.953a5.024 5.024 0 0 1-1.406-3.576 5.01 5.01 0 0 1 1.538-3.521 5.034 5.034 0 0 1 7.108.132l8.819 9.113 21.359-21.342a5.038 5.038 0 0 1 7.099.026 5.022 5.022 0 0 1 .018 7.088l-.009-.018Z"/><path d="m185.777 76.627-.573-.096v-.018l.573.114Z"/></g><defs><clipPath id="a"><path fill="#fff" d="M30 21h191v208H30z"/></clipPath></defs></svg>