<svg xmlns="http://www.w3.org/2000/svg" width="250" height="250" fill="none"><g clip-path="url(#a)"><path fill="url(#b)" d="M200.641 31H49.359C39.22 31 31 39.22 31 49.36V200.64C31 210.78 39.22 219 49.36 219H200.64C210.78 219 219 210.78 219 200.641V49.359C219 39.22 210.78 31 200.641 31Z"/><path fill="#fff" d="M185.746 55.44h-39.715a8.812 8.812 0 0 0-8.812 8.812v64.625a8.813 8.813 0 0 0 8.812 8.813h39.715a8.813 8.813 0 0 0 8.813-8.813V64.252a8.813 8.813 0 0 0-8.813-8.812ZM103.969 55.44H64.254a8.813 8.813 0 0 0-8.813 8.812v111.625a8.813 8.813 0 0 0 8.813 8.813h39.715a8.813 8.813 0 0 0 8.812-8.813V64.252a8.812 8.812 0 0 0-8.812-8.812Z"/></g><defs><linearGradient id="b" x1="125" x2="125" y1="31" y2="219" gradientUnits="userSpaceOnUse"><stop stop-color="#0091E6"/><stop offset="1" stop-color="#0079BF"/></linearGradient><clipPath id="a"><path fill="#fff" d="M31 31h188v188H31z"/></clipPath></defs></svg>