<svg xmlns="http://www.w3.org/2000/svg" width="250" height="250" fill="none"><path fill="#08CF65" d="M62.947 105.554a30.34 30.34 0 0 1 13.658 2.249 30.368 30.368 0 0 1 11.242 8.082l44.334 43.753 2.429 2.431v1.823c0 1.216-.607 1.216-2.429 3.039l-30.366 29.777-2.43 1.823h-1.822c-.607 0-1.214 0-2.429-1.823L8.288 111.631c-2.43-2.431-1.215-6.077 3.037-6.077h51.621ZM188.66 52.077a30.348 30.348 0 0 0-25.507 10.33l-44.334 43.755-1.822 2.43v1.823c0 .608 0 1.216 1.822 2.431l30.365 30.385 2.43 1.823h1.822c1.214 0 1.822-.608 3.036-1.823l86.239-85.077c2.43-2.43 1.822-6.077-2.429-6.077h-51.622Z"/></svg>