<svg viewBox="0 0 682 474" fill="none" xmlns="http://www.w3.org/2000/svg">
    <path d="M2 10V464.5C2 468.918 5.58171 472.5 9.99999 472.5H672.5C676.918 472.5 680.5 468.918 680.5 464.5V10C680.5 5.58173 676.918 2.00001 672.5 2.00001L458.408 2C455.141 2 452.202 3.98694 450.985 7.01897L439.108 36.5952C437.891 39.6272 434.952 41.6141 431.685 41.6141H272.304C269.089 41.6141 266.187 39.6899 264.935 36.7288L252.321 6.88535C251.069 3.92427 248.167 2 244.952 2H10C5.58172 2 2 5.58172 2 10Z" stroke="#3987A6" stroke-width="3" stroke-dasharray="16 16"/>
</svg>
