<svg width="1440" height="849" viewBox="0 0 1440 849" fill="none" xmlns="http://www.w3.org/2000/svg">
<mask id="mask0_2793_16267" style="mask-type:alpha" maskUnits="userSpaceOnUse" x="0" y="0" width="1440" height="849">
<rect x="1440" y="849" width="1440" height="849" transform="rotate(-180 1440 849)" fill="#D9D9D9"/>
</mask>
<g mask="url(#mask0_2793_16267)">
<rect x="1440" y="849" width="1440" height="849" transform="rotate(-180 1440 849)" fill="white"/>
<g filter="url(#filter0_f_2793_16267)">
<ellipse cx="0.000682834" cy="849" rx="727.273" ry="829.101" transform="rotate(-180 0.000682834 849)" fill="#015B4F"/>
</g>
<g filter="url(#filter1_f_2793_16267)">
<ellipse cx="719.999" cy="5.69642e-05" rx="744.727" ry="849" transform="rotate(-180 719.999 5.69642e-05)" fill="#00483C"/>
</g>
<g filter="url(#filter2_f_2793_16267)">
<ellipse cx="1440" cy="849" rx="744.727" ry="849" transform="rotate(-180 1440 849)" fill="#146C60"/>
</g>
<g filter="url(#filter3_f_2793_16267)">
<ellipse cx="1440" cy="5.69642e-05" rx="744.727" ry="849" transform="rotate(-180 1440 5.69642e-05)" fill="#016153"/>
</g>
<g filter="url(#filter4_f_2793_16267)">
<ellipse cx="-0.00078027" cy="5.69642e-05" rx="744.727" ry="849" transform="rotate(-180 -0.00078027 5.69642e-05)" fill="#022D24"/>
</g>
</g>
<defs>
<filter id="filter0_f_2793_16267" x="-1727.27" y="-980.102" width="3454.55" height="3658.2" filterUnits="userSpaceOnUse" color-interpolation-filters="sRGB">
<feFlood flood-opacity="0" result="BackgroundImageFix"/>
<feBlend mode="normal" in="SourceGraphic" in2="BackgroundImageFix" result="shape"/>
<feGaussianBlur stdDeviation="500" result="effect1_foregroundBlur_2793_16267"/>
</filter>
<filter id="filter1_f_2793_16267" x="-1024.73" y="-1849" width="3489.45" height="3698" filterUnits="userSpaceOnUse" color-interpolation-filters="sRGB">
<feFlood flood-opacity="0" result="BackgroundImageFix"/>
<feBlend mode="normal" in="SourceGraphic" in2="BackgroundImageFix" result="shape"/>
<feGaussianBlur stdDeviation="500" result="effect1_foregroundBlur_2793_16267"/>
</filter>
<filter id="filter2_f_2793_16267" x="-304.727" y="-1000" width="3489.45" height="3698" filterUnits="userSpaceOnUse" color-interpolation-filters="sRGB">
<feFlood flood-opacity="0" result="BackgroundImageFix"/>
<feBlend mode="normal" in="SourceGraphic" in2="BackgroundImageFix" result="shape"/>
<feGaussianBlur stdDeviation="500" result="effect1_foregroundBlur_2793_16267"/>
</filter>
<filter id="filter3_f_2793_16267" x="-304.727" y="-1849" width="3489.45" height="3698" filterUnits="userSpaceOnUse" color-interpolation-filters="sRGB">
<feFlood flood-opacity="0" result="BackgroundImageFix"/>
<feBlend mode="normal" in="SourceGraphic" in2="BackgroundImageFix" result="shape"/>
<feGaussianBlur stdDeviation="500" result="effect1_foregroundBlur_2793_16267"/>
</filter>
<filter id="filter4_f_2793_16267" x="-1544.73" y="-1649" width="3089.45" height="3298" filterUnits="userSpaceOnUse" color-interpolation-filters="sRGB">
<feFlood flood-opacity="0" result="BackgroundImageFix"/>
<feBlend mode="normal" in="SourceGraphic" in2="BackgroundImageFix" result="shape"/>
<feGaussianBlur stdDeviation="400" result="effect1_foregroundBlur_2793_16267"/>
</filter>
</defs>
</svg>
