<svg width="128" height="128" viewBox="0 0 128 128" fill="none" xmlns="http://www.w3.org/2000/svg">
<path d="M91.6606 105.842C91.7593 105.693 91.8552 105.541 91.9538 105.389C92.0908 105.178 92.2278 104.97 92.3621 104.756C92.4552 104.604 92.5484 104.449 92.6416 104.297C92.7758 104.078 92.9101 103.861 93.0416 103.639C93.1348 103.481 93.2225 103.318 93.3156 103.158C93.4417 102.936 93.5705 102.716 93.6938 102.491C93.7869 102.319 93.8773 102.145 93.9705 101.973C94.0883 101.754 94.2062 101.537 94.3212 101.312C94.4171 101.126 94.5076 100.935 94.6035 100.749C94.7103 100.535 94.8172 100.324 94.9213 100.108C95.02 99.9052 95.1131 99.6998 95.2063 99.4944C95.3022 99.289 95.4008 99.0836 95.494 98.8726C95.5926 98.6531 95.6858 98.4308 95.7817 98.2114C95.8694 98.0088 95.9598 97.8062 96.0447 97.6008L96.0694 97.5417C96.2173 97.1872 96.3571 96.8355 96.4914 96.4837C96.5325 96.3768 96.5681 96.2699 96.6092 96.163C96.6996 95.9182 96.79 95.6734 96.875 95.4314C96.9298 95.2767 96.9763 95.1219 97.0284 94.9672C97.0942 94.7702 97.1599 94.5761 97.223 94.3791C97.2695 94.2272 97.3134 94.0752 97.36 93.9205C97.4175 93.7235 97.4805 93.5265 97.5353 93.3296C97.5764 93.1833 97.612 93.037 97.6504 92.8878C97.7052 92.6881 97.76 92.4855 97.8093 92.2857C97.8449 92.1422 97.8751 91.9959 97.9107 91.8524C97.9573 91.6498 98.0066 91.45 98.0505 91.2474C98.0833 91.0927 98.1135 90.9407 98.1436 90.786C98.182 90.5947 98.2231 90.4033 98.2587 90.212C98.2861 90.0601 98.3108 89.9109 98.3354 89.759C98.3683 89.5677 98.4039 89.3735 98.4341 89.1822C98.4587 89.0331 98.4752 88.8839 98.4971 88.7348C98.5245 88.5435 98.5546 88.3521 98.5793 88.1608C98.5985 88.0061 98.6149 87.8513 98.6313 87.6965C98.6533 87.5137 98.6752 87.3308 98.6944 87.1479C98.7108 86.9875 98.7218 86.8271 98.7355 86.6667C98.7492 86.4895 98.7683 86.315 98.7793 86.1378C98.7903 85.9774 98.7985 85.8198 98.8067 85.6594C98.8177 85.485 98.8286 85.3105 98.8368 85.1361C98.8451 84.9757 98.8478 84.8153 98.8506 84.6549C98.856 84.4833 98.8643 84.3117 98.867 84.1428C98.867 83.9853 98.867 83.8277 98.867 83.6673C98.867 83.4957 98.8697 83.3269 98.867 83.1552C98.867 82.9948 98.8615 82.8373 98.856 82.6797C98.8533 82.5137 98.8505 82.3449 98.8451 82.1789C98.8396 82.0185 98.8314 81.8609 98.8232 81.7005C98.8149 81.5373 98.8094 81.3713 98.8012 81.211C98.793 81.0506 98.7793 80.8902 98.7683 80.7298C98.7574 80.5694 98.7464 80.4091 98.7327 80.2515C98.719 80.0911 98.7026 79.9335 98.6861 79.7732C98.6697 79.6156 98.6587 79.458 98.6396 79.3005C98.6231 79.1457 98.6039 78.9938 98.5848 78.839C98.5656 78.6786 98.5491 78.5182 98.5272 78.3607C98.508 78.2059 98.4834 78.0512 98.4615 77.8992C98.4395 77.7445 98.4176 77.5869 98.3957 77.435C98.371 77.2774 98.3436 77.1255 98.319 76.9679C98.2943 76.816 98.2697 76.664 98.245 76.5149C98.2176 76.3601 98.1875 76.2054 98.1573 76.0506C98.1299 75.9043 98.1025 75.7552 98.0751 75.6089C98.045 75.4513 98.0094 75.2966 97.9765 75.139C97.9463 74.9983 97.9189 74.8548 97.886 74.7141C97.8532 74.5594 97.8148 74.4046 97.7792 74.2527C97.7463 74.112 97.7162 73.9713 97.6805 73.8334C97.6449 73.6843 97.6066 73.5352 97.5682 73.386C97.5326 73.2454 97.497 73.1047 97.4613 72.964C97.423 72.8149 97.3819 72.6657 97.3408 72.5194C97.3024 72.3816 97.2668 72.2437 97.2284 72.1086C97.1846 71.9567 97.1407 71.8104 97.0969 71.6584C97.0585 71.5262 97.0202 71.3939 96.9818 71.2645C96.938 71.1154 96.8914 70.9691 96.8448 70.8228C96.8037 70.6933 96.7654 70.5639 96.7243 70.4345C96.6777 70.2882 96.6284 70.1447 96.579 69.9983C96.5379 69.8717 96.4968 69.7451 96.453 69.6185C96.4037 69.4722 96.3516 69.3315 96.3023 69.188C96.2585 69.0642 96.2174 68.9404 96.1735 68.8194C96.1214 68.6787 96.0694 68.538 96.0173 68.3973C95.9735 68.2764 95.9269 68.1526 95.8831 68.0344C95.831 67.8937 95.7762 67.7558 95.7214 67.618C95.6748 67.4998 95.631 67.3816 95.5844 67.2634C95.5296 67.1256 95.4748 66.9905 95.42 66.8554C95.3734 66.7401 95.3268 66.6247 95.2803 66.5094C95.2255 66.3743 95.1679 66.2421 95.1104 66.107C95.0638 65.9944 95.0145 65.8819 94.9679 65.7693C94.9103 65.6371 94.8528 65.5049 94.7925 65.3726C94.7432 65.2629 94.6966 65.156 94.65 65.0462C94.5925 64.9168 94.5322 64.7874 94.4719 64.6579C94.4226 64.551 94.376 64.4441 94.3267 64.34C94.2664 64.2134 94.2089 64.0896 94.1486 63.9658C94.0993 63.8617 94.05 63.7576 94.0006 63.6534C93.9404 63.5296 93.8801 63.4087 93.8198 63.2848C93.7705 63.1864 93.7212 63.0851 93.6718 62.9838C93.6088 62.86 93.5485 62.739 93.4855 62.6152C93.4389 62.5223 93.3896 62.4267 93.343 62.3338C93.28 62.21 93.217 62.0918 93.154 61.9708C93.1074 61.8808 93.0608 61.7908 93.0115 61.7007C92.9485 61.5826 92.8854 61.4672 92.8224 61.3518C92.7758 61.2646 92.7265 61.1746 92.6799 61.0873C92.6169 60.972 92.5539 60.8594 92.4909 60.7469C92.4443 60.6625 92.3977 60.5781 92.3511 60.4965C92.2881 60.3839 92.2251 60.2742 92.1621 60.1645C92.1155 60.0857 92.0716 60.0041 92.0251 59.9225C91.962 59.8127 91.899 59.7086 91.836 59.6017C91.7922 59.5257 91.7456 59.447 91.7017 59.371C91.6387 59.2669 91.5784 59.1628 91.5154 59.0615C91.4716 58.9883 91.425 58.9124 91.3811 58.8392C91.3181 58.7351 91.2578 58.6366 91.1948 58.5353C91.1537 58.4678 91.1099 58.3974 91.0688 58.3271C91.0085 58.2286 90.9482 58.1358 90.8879 58.0401C90.8441 57.9726 90.803 57.9022 90.7592 57.8375C90.6989 57.7447 90.6413 57.6518 90.581 57.5618C90.5399 57.4999 90.4989 57.4352 90.4605 57.3733C90.4002 57.2804 90.3399 57.1904 90.2796 57.1003C90.2413 57.0441 90.2057 56.985 90.1673 56.9315C90.107 56.8415 90.0495 56.7542 89.9919 56.667C89.9563 56.6136 89.9207 56.5601 89.8851 56.5094C89.8275 56.4222 89.77 56.3406 89.7125 56.2562C89.6796 56.2084 89.6467 56.1577 89.6138 56.1127C89.5563 56.0311 89.5042 55.9523 89.4494 55.8736C89.4165 55.8285 89.3864 55.7807 89.3535 55.7357C89.2987 55.6569 89.2439 55.5809 89.1918 55.5078C89.1644 55.4684 89.1343 55.4262 89.1069 55.3868C89.0521 55.3108 89 55.2377 88.948 55.1645C88.9233 55.1307 88.8987 55.0942 88.874 55.0604C88.8219 54.9872 88.7699 54.9197 88.7206 54.8494C88.6986 54.8184 88.6767 54.7875 88.6548 54.7593C88.6027 54.6918 88.5562 54.6271 88.5068 54.5624C88.4876 54.537 88.4685 54.5089 88.4493 54.4836C88.4027 54.4217 88.3561 54.3626 88.3123 54.3035C88.2958 54.281 88.2767 54.2557 88.2575 54.2332C88.2136 54.1769 88.1725 54.1234 88.1314 54.07C88.115 54.0503 88.1013 54.0278 88.0849 54.0109C88.041 53.9546 87.9999 53.904 87.9616 53.8533C87.9533 53.8421 87.9424 53.828 87.9314 53.8167C87.8931 53.7661 87.8574 53.7211 87.8218 53.6789C87.8136 53.6676 87.8054 53.6564 87.7972 53.6451C87.7615 53.6001 87.7286 53.5579 87.6958 53.5213C87.6903 53.5157 87.6875 53.51 87.6821 53.5044C87.6492 53.465 87.6218 53.4284 87.5944 53.3975C87.5944 53.3975 87.5889 53.3919 87.5889 53.3891C87.5341 53.3215 87.493 53.2737 87.4683 53.2427L87.3998 53.178L87.367 53.1049C87.1806 52.7869 82.7801 45.2321 81.6896 36.2677C80.936 30.0803 80.0346 27.1907 79.5962 26.0708C79.5085 26.0877 79.418 26.1018 79.3304 26.1186C79.166 26.1496 79.0016 26.1833 78.8372 26.2199C78.6481 26.2621 78.459 26.3043 78.27 26.3522C78.1028 26.3944 77.9384 26.4366 77.7713 26.4816C77.5822 26.5322 77.3931 26.5885 77.2041 26.6448C77.0369 26.6954 76.8671 26.7461 76.6999 26.8024C76.5109 26.8643 76.3218 26.929 76.13 26.9965C75.9601 27.0556 75.7902 27.1175 75.6203 27.1822C75.4313 27.2554 75.2395 27.3313 75.0504 27.4073C74.8805 27.4777 74.7106 27.5452 74.5407 27.6183C74.3489 27.6999 74.1571 27.7872 73.9653 27.8744C73.7954 27.9532 73.6256 28.0291 73.4529 28.1135C73.2611 28.2064 73.0666 28.3049 72.8748 28.4034C72.7049 28.4906 72.5323 28.5778 72.3624 28.6678C72.1679 28.772 71.9733 28.8789 71.7815 28.9886C71.6116 29.0843 71.439 29.1799 71.2691 29.2784C71.0746 29.3938 70.8773 29.512 70.6827 29.6329C70.5129 29.7371 70.343 29.8412 70.1703 29.9481C69.9731 30.0747 69.773 30.2069 69.5758 30.3364C69.4059 30.4489 69.236 30.5587 69.0688 30.674C68.8661 30.8119 68.6661 30.9582 68.4633 31.1017C68.2962 31.2199 68.129 31.3352 67.9619 31.459C67.7564 31.611 67.5481 31.7686 67.3426 31.9261C67.1782 32.0499 67.0165 32.1737 66.8521 32.3003C66.6384 32.4663 66.4274 32.6436 66.2137 32.8152C66.0548 32.9447 65.8986 33.0685 65.7397 33.2007C65.515 33.3892 65.2903 33.5834 65.0656 33.7775C64.9177 33.9042 64.7724 34.028 64.6245 34.1574C64.3724 34.3797 64.123 34.6104 63.871 34.8411C63.7504 34.9537 63.6271 35.0578 63.5065 35.1731C63.1339 35.522 62.7585 35.8794 62.3831 36.2452C62.2762 36.3493 62.1749 36.4506 62.0707 36.5547C62.0707 36.5547 62.068 36.5575 62.0653 36.5603C61.9694 36.6531 61.8762 36.7516 61.7803 36.8473C65.4136 39.3121 79.914 49.4864 86.66 59.3794C94.3651 70.6821 94.5377 79.2217 93.3266 84.3961C91.7812 90.9942 87.0519 96.495 79.2701 100.741C73.8146 103.718 68.7154 104.84 64.1313 104.84C54.1657 104.84 46.6168 99.5366 43.0602 96.4415L42.7752 96.526C42.7561 96.5316 42.7369 96.5372 42.7204 96.5428C42.7122 96.5428 42.7067 96.5485 42.6985 96.5485C42.3478 96.6666 41.9834 96.7764 41.6135 96.8748L41.26 96.9761C41.0353 97.0268 40.8134 97.0774 40.5887 97.1253C40.4873 97.1478 40.3859 97.1675 40.2845 97.19C40.1612 97.2153 40.0407 97.2406 39.9174 97.2659C39.7886 97.2913 39.6571 97.3166 39.5283 97.3419C39.4351 97.3588 39.3419 97.3785 39.2488 97.3954C39.1008 97.4235 38.9529 97.4488 38.8049 97.477C38.7309 97.491 38.6569 97.5051 38.5829 97.5164C38.4213 97.5445 38.2596 97.5726 38.1007 97.598C38.0404 97.6092 37.9801 97.6177 37.9199 97.6289C37.75 97.6571 37.5801 97.6824 37.4129 97.7077C37.3636 97.7161 37.3116 97.7246 37.2622 97.7302C37.0869 97.7555 36.9115 97.7809 36.7389 97.8062C36.695 97.8118 36.6512 97.8174 36.6101 97.8231C36.432 97.8484 36.2539 97.8709 36.0758 97.8934C36.0374 97.899 35.9991 97.9019 35.9607 97.9075C35.7826 97.93 35.6045 97.9497 35.4264 97.9722C35.3908 97.975 35.3552 97.9806 35.3195 97.9834C35.1442 98.0031 34.9688 98.0228 34.7934 98.0397C34.7578 98.0425 34.7195 98.0482 34.6838 98.051C34.5112 98.0679 34.3413 98.0847 34.1715 98.0988C34.1331 98.1016 34.0947 98.1044 34.0564 98.1073C33.892 98.1213 33.7276 98.1326 33.5659 98.1466C33.5221 98.1494 33.4782 98.1523 33.4371 98.1551C33.2809 98.1663 33.1275 98.1748 32.9768 98.1832C32.9247 98.186 32.8754 98.1889 32.8261 98.1917C32.6836 98.2001 32.5411 98.2057 32.4014 98.2114C32.3411 98.2114 32.2808 98.2142 32.2205 98.217C32.0945 98.2226 31.9657 98.2254 31.8424 98.2282C31.7684 98.2282 31.6972 98.2282 31.6259 98.2311C31.5163 98.2311 31.4067 98.2339 31.2999 98.2339C31.2834 98.2339 31.2697 98.2339 31.2533 98.2339C31.1053 98.2339 30.9574 98.2339 30.8149 98.2311H30.7875C30.4505 98.2114 30.1107 98.186 29.7709 98.1579C29.6586 98.1495 29.5462 98.1354 29.4339 98.1241C29.2065 98.1016 28.9818 98.0819 28.7544 98.0538C28.6201 98.0369 28.4858 98.02 28.3516 98.0031C28.1461 97.9778 27.9433 97.9497 27.7378 97.9215C27.5953 97.9019 27.4528 97.8765 27.3103 97.854C27.1131 97.8231 26.9158 97.7893 26.7158 97.7555C26.5705 97.7302 26.4253 97.7021 26.2801 97.6768C26.0828 97.6402 25.8883 97.6008 25.691 97.5614C25.5457 97.5304 25.4005 97.5023 25.258 97.4685C25.0608 97.4263 24.8607 97.3785 24.6635 97.3335C24.521 97.2997 24.3785 97.266 24.2387 97.2322C24.0332 97.1815 23.8277 97.1281 23.6222 97.0718C23.488 97.0352 23.3537 97.0015 23.2194 96.9621C22.9975 96.9002 22.7728 96.8326 22.5509 96.7679C22.4358 96.7342 22.318 96.7004 22.2029 96.6638C21.9015 96.571 21.6001 96.4725 21.2987 96.3712C21.2603 96.3599 21.2247 96.3487 21.1863 96.3346C20.8465 96.2193 20.5068 96.0983 20.167 95.9745C20.0684 95.9379 19.9697 95.8985 19.8711 95.8619C19.63 95.7719 19.3916 95.679 19.1505 95.5834C19.0244 95.5327 18.8984 95.4792 18.7723 95.4286C18.5586 95.3414 18.3476 95.2542 18.1339 95.1613C17.9996 95.1022 17.8654 95.0431 17.7284 94.984C17.5256 94.894 17.3201 94.804 17.1173 94.7083C16.9776 94.6436 16.8406 94.5789 16.7008 94.5141C16.5008 94.4185 16.3008 94.3228 16.1008 94.2243C15.961 94.1568 15.824 94.0865 15.6843 94.0161C15.5993 93.9739 15.5144 93.9345 15.4322 93.8895C16.6159 96.3712 18.9175 100.735 22.3481 105.285C27.135 111.633 35.1688 119.652 46.2524 121.813C54.1821 123.36 61.6351 123.363 68.4058 121.83H68.4085C75.4696 120.226 81.5032 116.993 86.4189 112.193C86.8299 111.793 87.23 111.382 87.6245 110.96C88.8082 109.694 89.9207 108.332 90.9592 106.872C91.0852 106.697 91.2058 106.515 91.3291 106.337C91.4469 106.166 91.5647 106 91.6826 105.825L91.6606 105.842Z" fill="white"/>
<path d="M95.4952 98.8779C95.402 99.0861 95.3034 99.2915 95.2075 99.4998C95.3034 99.2944 95.402 99.089 95.4952 98.8779Z" fill="white"/>
<path d="M91.6575 105.841C91.5424 106.016 91.4218 106.182 91.304 106.353C91.4218 106.182 91.5397 106.016 91.6575 105.841Z" fill="white"/>
<path d="M94.3236 101.316C94.2085 101.539 94.0907 101.758 93.9729 101.978C94.0907 101.758 94.2085 101.542 94.3236 101.316Z" fill="white"/>
<path d="M95.7703 98.2165C95.8498 98.0336 95.9292 97.8564 96.006 97.6707L96.0334 97.606C95.9484 97.8114 95.858 98.0111 95.7703 98.2165Z" fill="white"/>
<path d="M42.327 95.0112C48.4236 92.946 56.8164 86.8712 59.277 84.9044C66.3245 79.2742 75.0433 65.1522 75.4269 62.9265C75.4735 62.6621 75.5037 62.4088 75.5228 62.1697C75.4763 62.2203 75.4297 62.271 75.3831 62.3216C75.2159 62.5073 75.0488 62.6902 74.8817 62.8731C74.6488 63.1263 74.4186 63.3824 74.1857 63.6328C74.0131 63.8185 73.8404 64.0014 73.6678 64.1843C73.4404 64.4263 73.213 64.6682 72.9855 64.9074C72.8102 65.0903 72.6348 65.2704 72.4594 65.4533C72.2348 65.684 72.0101 65.9147 71.7854 66.1426C71.6073 66.3227 71.4292 66.5 71.2511 66.6772C71.0291 66.8995 70.8072 67.1218 70.5852 67.3384C70.4071 67.5129 70.2263 67.6873 70.0482 67.8618C69.8263 68.0756 69.6043 68.2895 69.3851 68.4977C69.207 68.6665 69.0262 68.8353 68.848 69.0042C68.6261 69.2124 68.4042 69.4178 68.1822 69.6204C68.0041 69.7835 67.8233 69.9467 67.6452 70.1099C67.4232 70.3097 67.2013 70.5067 66.9793 70.7036C66.8012 70.8612 66.6231 71.0188 66.445 71.1763C66.2231 71.3705 66.0011 71.559 65.7792 71.7503C65.6011 71.9023 65.423 72.0542 65.2449 72.2033C65.0229 72.3919 64.7982 72.5747 64.5763 72.7576C64.4009 72.9011 64.2256 73.0474 64.0475 73.1881C63.8228 73.371 63.5981 73.5483 63.3734 73.7255C63.2008 73.8634 63.0254 74.0013 62.8528 74.1335C62.6254 74.3108 62.3952 74.4824 62.1678 74.6569C61.9979 74.7863 61.828 74.9157 61.6581 75.0395C61.4252 75.214 61.1896 75.3828 60.9567 75.5516C60.7923 75.6698 60.6306 75.7908 60.4662 75.9062C60.2196 76.0806 59.9757 76.2494 59.7319 76.4183C59.5812 76.5224 59.4305 76.6293 59.277 76.7334C59.0058 76.9191 58.7318 77.0964 58.4605 77.2736C58.3372 77.3552 58.2139 77.4396 58.0878 77.5184C57.6987 77.7688 57.3124 78.0136 56.9261 78.25C56.8548 78.2978 56.7918 78.3372 56.7233 78.3794C56.6493 78.4272 56.5726 78.4779 56.5013 78.5229C56.4685 78.5454 56.4356 78.5623 56.4027 78.5848C56.3041 78.6467 56.2054 78.7058 56.1123 78.7621C56.0684 78.7874 56.0273 78.8099 55.9862 78.8352C55.9068 78.8803 55.83 78.9253 55.7533 78.9675C55.7067 78.9928 55.6629 79.0181 55.6163 79.0406C55.5725 79.0631 55.5286 79.0885 55.4848 79.111L55.3505 79.2545H55.2163C54.8491 79.4627 54.4792 79.6625 54.112 79.8594C54.0161 79.9101 53.9229 79.9607 53.827 80.0114C53.4873 80.1914 53.1448 80.3659 52.805 80.5375C52.7749 80.5516 52.7475 80.5685 52.7173 80.5825C52.3529 80.7654 51.9885 80.9371 51.6213 81.1087C51.5281 81.1509 51.435 81.1931 51.3446 81.2353C51.0212 81.3845 50.6979 81.528 50.3746 81.6686C50.328 81.6883 50.2814 81.7108 50.2321 81.7305C49.8677 81.8853 49.506 82.0344 49.1443 82.1779C49.0566 82.2145 48.9662 82.2483 48.8785 82.282C48.5661 82.403 48.2538 82.5212 47.9414 82.6337C47.8811 82.6562 47.8181 82.6788 47.7578 82.7013C47.3961 82.8307 47.0372 82.9517 46.6782 83.0699C46.5933 83.098 46.5111 83.1233 46.4261 83.1515C46.1193 83.2499 45.8151 83.3428 45.511 83.4328C45.4397 83.4525 45.3712 83.475 45.3 83.4947C44.941 83.5988 44.5848 83.6945 44.2286 83.7845C44.1492 83.8042 44.0697 83.8239 43.9902 83.8436C43.6888 83.9196 43.3874 83.9899 43.0887 84.0575C43.0093 84.0744 42.9326 84.094 42.8531 84.1109C42.4969 84.1869 42.1407 84.2601 41.7872 84.3248C41.716 84.3388 41.6447 84.3501 41.5735 84.3613C41.2721 84.4148 40.9707 84.4655 40.672 84.5105C40.5898 84.5217 40.5076 84.5358 40.4227 84.5471C40.0692 84.5977 39.7157 84.6427 39.3623 84.6821C39.302 84.6877 39.239 84.6934 39.1787 84.7018C38.8745 84.7328 38.5731 84.7609 38.269 84.7862C38.1813 84.7918 38.0936 84.8003 38.0087 84.8059C37.658 84.8312 37.3072 84.8509 36.9565 84.865C36.9072 84.865 36.8606 84.865 36.8113 84.8678C36.5016 84.8791 36.1893 84.8847 35.8797 84.8847C35.8303 84.8847 35.781 84.8847 35.7317 84.8847C35.6796 84.8847 35.6248 84.8847 35.5728 84.8847C35.4221 84.8847 35.2714 84.8819 35.1207 84.8791C34.9974 84.8791 34.8713 84.8734 34.748 84.8706C34.5973 84.865 34.4439 84.8594 34.2932 84.8537C34.1699 84.8481 34.0466 84.8425 33.926 84.8369C33.7725 84.8284 33.6191 84.8172 33.4657 84.8059C33.3451 84.7975 33.2245 84.789 33.104 84.7778C32.9478 84.7637 32.7943 84.7496 32.6382 84.7328C32.5203 84.7215 32.4025 84.7102 32.2847 84.6962C32.1258 84.6793 31.9668 84.6596 31.8107 84.6399C31.6983 84.6258 31.5832 84.6118 31.4709 84.5977C31.3065 84.5752 31.1393 84.5499 30.9749 84.5245C30.8681 84.5077 30.7612 84.4936 30.6571 84.4767C30.4763 84.4486 30.2981 84.4148 30.12 84.381C30.0296 84.3642 29.9365 84.3501 29.846 84.3332C29.6022 84.2854 29.3556 84.2375 29.1117 84.1841C29.087 84.1785 29.0624 84.1756 29.0377 84.17C22.0752 82.6534 15.8854 78.703 11.3698 73.0953C9.31751 70.5461 7.61045 67.6564 6.33359 64.4966C6.22672 64.2321 6.11986 63.9592 6.013 63.6806C5.99108 63.6244 5.96916 63.5681 5.94724 63.5118C5.84312 63.2389 5.73899 62.9603 5.63761 62.6733C5.61843 62.6227 5.60199 62.572 5.58281 62.5214C5.48691 62.2513 5.39101 61.9727 5.2951 61.6913C5.2814 61.6548 5.27044 61.6182 5.25674 61.5816C5.15536 61.2805 5.05672 60.9738 4.95808 60.6615C4.93616 60.594 4.91698 60.5265 4.89505 60.4589C4.79641 60.1438 4.70051 59.823 4.60735 59.4966C4.59639 59.4601 4.58543 59.4235 4.57721 59.3841C4.48953 59.0774 4.40732 58.7679 4.32238 58.4528C4.30594 58.3909 4.2895 58.3318 4.27306 58.2699C4.18812 57.935 4.10318 57.5974 4.02372 57.2541C4.00728 57.1838 3.99083 57.1106 3.97439 57.0403C3.89219 56.6886 3.81547 56.3312 3.74149 55.9711C3.74149 55.9654 3.74149 55.9598 3.73875 55.957C3.66477 55.594 3.59627 55.2254 3.52776 54.854C3.51406 54.7781 3.50036 54.6993 3.48666 54.6233C3.42364 54.2575 3.36336 53.8889 3.30856 53.5175C3.2976 53.4528 3.28938 53.3853 3.28116 53.3178C3.23184 52.966 3.18526 52.6143 3.14142 52.257C3.13594 52.2063 3.12772 52.1557 3.12224 52.105C3.0784 51.7224 3.04003 51.3341 3.00715 50.943C2.99893 50.8558 2.99345 50.7713 2.98523 50.6841C2.95235 50.2902 2.92495 49.8935 2.90577 49.4939C2.90577 49.4489 2.90303 49.4039 2.90029 49.3589C2.88111 48.9846 2.87015 48.6076 2.86193 48.2278C2.86193 48.1518 2.85919 48.073 2.85645 47.997C2.85097 47.5947 2.85097 47.1895 2.85919 46.7815C2.85919 46.6943 2.86193 46.6099 2.86467 46.5227C2.87563 46.1119 2.88933 45.6982 2.91399 45.2846C2.91399 45.2734 2.91399 45.2621 2.91399 45.248C-0.0315728 53.2727 -3.66215 69.8848 8.33109 85.6444C10.1286 88.0023 12.211 90.0169 14.5264 91.6376C14.6853 91.7276 14.8442 91.8092 15.0004 91.8964C15.1758 91.9921 15.3539 92.0906 15.5292 92.1834C15.6525 92.2482 15.7758 92.3101 15.8964 92.372C16.1129 92.4845 16.3293 92.5971 16.5458 92.704C16.639 92.7518 16.7349 92.794 16.828 92.839C17.0719 92.9572 17.3185 93.0782 17.5624 93.1936C17.6473 93.233 17.7295 93.2695 17.8144 93.3061C18.0693 93.4243 18.3241 93.5397 18.5817 93.6494C18.6639 93.686 18.7461 93.7169 18.831 93.7535C19.0886 93.8632 19.3434 93.973 19.601 94.0743C19.6969 94.1136 19.79 94.1474 19.8859 94.184C20.1298 94.2797 20.3764 94.3781 20.6203 94.4682C20.7381 94.5104 20.8532 94.5498 20.971 94.592C21.1929 94.6736 21.4176 94.7552 21.6396 94.8283C21.7875 94.879 21.9382 94.924 22.0862 94.9746C22.278 95.0365 22.4671 95.1013 22.6589 95.1603C22.8507 95.2194 23.0397 95.2729 23.2315 95.3292C23.3795 95.3714 23.5302 95.4192 23.6782 95.4586C23.9138 95.5233 24.1522 95.5824 24.3878 95.6443C24.492 95.6696 24.5961 95.7006 24.7002 95.7259C24.966 95.7906 25.2318 95.8497 25.4976 95.9088C25.5743 95.9257 25.6483 95.9454 25.725 95.9594C26.0264 96.0241 26.3305 96.0832 26.632 96.1395C26.6703 96.148 26.7087 96.1564 26.747 96.162C28.1116 96.4096 29.4734 96.5728 30.8325 96.6488C31.0051 96.6488 31.1804 96.6516 31.3586 96.6488C32.9697 96.6404 34.8768 96.4772 36.8661 96.1845C38.1923 95.9904 39.5513 95.7372 40.8857 95.4333L41.6968 95.1913C41.8804 95.135 42.064 95.0816 42.2311 95.0309L42.2448 95.0253C42.2448 95.0253 42.2613 95.0197 42.2667 95.0168C42.2695 95.0168 42.2749 95.0168 42.2777 95.014C42.2941 95.0084 42.3078 95.0028 42.3243 95L42.327 95.0112Z" fill="white"/>
<path d="M56.736 78.3765C56.8045 78.3314 56.8675 78.2919 56.9387 78.2468C56.9387 78.2468 56.9223 78.2553 56.9168 78.2609C56.8538 78.3032 56.7962 78.3399 56.736 78.3765Z" fill="white"/>
<path d="M56.5078 78.5176C56.4749 78.5401 56.442 78.5571 56.4091 78.5796C56.442 78.5599 56.4749 78.5401 56.5078 78.5176Z" fill="white"/>
<path d="M55.7655 78.9634C55.7189 78.9888 55.6751 79.0141 55.6285 79.0367C55.6751 79.0113 55.7189 78.9888 55.7655 78.9634Z" fill="white"/>
<path d="M17.8085 93.3084C17.7235 93.2689 17.6413 93.235 17.5564 93.1956C17.6413 93.235 17.7235 93.2717 17.8085 93.3084Z" fill="white"/>
<path d="M16.84 92.8434C16.7469 92.7982 16.651 92.7531 16.5578 92.708C16.651 92.7559 16.7469 92.7982 16.84 92.8434Z" fill="white"/>
<path d="M18.8405 93.755C18.7583 93.7183 18.6761 93.6873 18.5912 93.6506C18.6734 93.6873 18.7556 93.7183 18.8405 93.755Z" fill="white"/>
<path d="M22.1061 94.9804C21.9582 94.9324 21.8074 94.8845 21.6595 94.8337C21.8074 94.8845 21.9582 94.9296 22.1061 94.9804Z" fill="white"/>
<path d="M15.9082 92.3713C15.7849 92.3065 15.6616 92.2472 15.541 92.1824C15.6643 92.2472 15.7876 92.3093 15.9082 92.3713Z" fill="white"/>
<path d="M30.8466 96.6506C31.0192 96.6506 31.1946 96.6534 31.3727 96.6506C31.1946 96.6506 31.0192 96.6506 30.8466 96.6506Z" fill="white"/>
<path d="M19.8929 94.19C19.797 94.1534 19.7039 94.1167 19.608 94.0801C19.7039 94.1196 19.797 94.1534 19.8929 94.19Z" fill="white"/>
<path d="M24.3845 95.65C24.1488 95.5908 23.9104 95.5287 23.6748 95.4639C23.9104 95.5287 24.1488 95.5879 24.3845 95.65Z" fill="white"/>
<path d="M42.2297 95.0385C42.2297 95.0385 42.2297 95.0385 42.2324 95.0385C42.2432 95.0357 42.2567 95.0301 42.2675 95.0273C42.2594 95.0273 42.2513 95.0329 42.2459 95.0357L42.2324 95.0412L42.2297 95.0385Z" fill="white"/>
<path d="M55.2243 77.419C55.29 77.3797 55.3585 77.3403 55.4243 77.3009C55.6572 77.163 55.8874 77.0251 56.1121 76.8873C62.0552 73.2463 68.0943 68.041 74.106 61.3866C74.5061 60.942 74.9089 60.4918 75.3089 60.036C75.3144 60.0275 75.3254 60.0135 75.3336 59.9966C75.3391 59.9853 75.3473 59.9741 75.3528 59.9628C75.3391 59.96 75.3226 59.9544 75.3062 59.9488C74.4102 59.7096 73.4238 60.0416 72.799 60.7957C69.7164 64.5154 58.4247 76.7353 42.6529 77.7623C33.3942 78.3645 25.4809 74.8361 20.9407 68.0804C16.6168 61.6454 16.1456 53.4041 19.6501 45.4723C26.0837 30.9085 39.3867 25.6272 42.683 24.5186C42.7077 24.4792 42.7323 24.4398 42.757 24.3976C43.0063 23.9756 43.2639 23.5591 43.527 23.1483C43.5544 23.1033 43.5845 23.0611 43.6146 23.0161C43.8859 22.5968 44.1627 22.1832 44.4476 21.7781C44.4586 21.7612 44.4695 21.7443 44.4832 21.7274C44.7709 21.3194 45.0669 20.9171 45.3655 20.5203C45.4066 20.4669 45.445 20.4134 45.4861 20.3599C45.7766 19.9801 46.0725 19.6087 46.3711 19.2429C46.4259 19.1782 46.478 19.1107 46.5328 19.0459C46.8315 18.6858 47.1356 18.3313 47.448 17.9824C47.5055 17.9176 47.5603 17.8557 47.6179 17.7938C47.933 17.4421 48.2536 17.096 48.5824 16.7584C48.629 16.7078 48.6783 16.6599 48.7249 16.6121C49.0674 16.2604 49.4126 15.9143 49.7661 15.5738C49.7853 15.557 49.8017 15.5401 49.8209 15.5232C50.1716 15.1884 50.5306 14.8592 50.8922 14.5384C50.9306 14.5046 50.9662 14.4709 51.0046 14.4371C51.3635 14.122 51.728 13.8125 52.0951 13.5114C52.1554 13.4636 52.2157 13.4129 52.2732 13.3651C52.6349 13.0724 52.9993 12.7855 53.3693 12.5069C53.435 12.4562 53.5035 12.4056 53.572 12.355C53.9447 12.0764 54.3201 11.8063 54.7009 11.5418C54.7639 11.4996 54.827 11.4574 54.89 11.4124C55.2818 11.1422 55.6791 10.8778 56.0819 10.6245C56.123 10.5992 56.1614 10.5739 56.2025 10.5514C56.6135 10.2925 57.0272 10.0421 57.4465 9.80011C57.4684 9.78886 57.4876 9.77479 57.5095 9.76353C57.9315 9.52156 58.3562 9.2852 58.7864 9.06011C58.8439 9.02916 58.9014 8.99821 58.9617 8.96726C59.3755 8.7506 59.7947 8.54239 60.2167 8.3398C60.2906 8.30322 60.3646 8.26946 60.4386 8.23569C60.8578 8.03873 61.2771 7.85022 61.7045 7.66732C61.7374 7.65326 61.7703 7.63637 61.8032 7.62231C59.2275 6.902 55.0626 6.04663 49.9469 6.04663C40.8691 6.04663 28.7854 8.73653 17.2032 19.6875C10.7833 25.7566 6.73071 32.6361 5.15791 40.1347C4.97433 41.0153 4.82636 41.8904 4.71402 42.7598C4.60168 43.6265 4.52222 44.4875 4.4729 45.3344C4.40714 46.4655 4.39618 47.5797 4.4318 48.6714C4.6236 54.6759 6.20187 59.9966 7.76919 63.8739C10.4435 70.4917 15.0961 75.8687 20.8694 79.2648C21.3955 79.5743 21.9298 79.867 22.4723 80.1427C23.2861 80.5563 24.1191 80.9305 24.9713 81.2654C26.3906 81.8253 27.8566 82.2727 29.3609 82.5991C37.392 84.3492 45.8642 82.7398 54.542 77.813L54.69 77.6554H54.8187C54.9558 77.5766 55.09 77.4978 55.2243 77.419Z" fill="white"/>
<path d="M55.4288 77.3056C55.6617 77.1675 55.8918 77.0293 56.1165 76.8911C55.8891 77.0293 55.6589 77.1675 55.4288 77.3056Z" fill="white"/>
<path d="M54.8142 77.6578C54.9485 77.5788 55.0827 77.4999 55.217 77.4209C55.0827 77.4999 54.9457 77.5788 54.8115 77.6578H54.8142Z" fill="white"/>
<path d="M7.7492 63.8763C6.18188 59.999 4.60361 54.6755 4.4118 48.6738C4.60361 54.6783 6.18188 59.999 7.7492 63.8763Z" fill="white"/>
<path d="M75.3648 59.968C75.3648 59.968 75.3509 59.9902 75.3453 60.0013C75.3509 59.9902 75.3592 59.9791 75.3648 59.968Z" fill="white"/>
<path d="M74.0945 61.3892C68.0828 68.0408 62.0437 73.2461 56.1005 76.8899C62.0273 73.2602 68.0746 68.052 74.0918 61.392L74.0945 61.3892Z" fill="white"/>
<path d="M108.276 71.0031C104.448 65.0493 98.6145 59.7595 90.9149 55.252C90.9231 55.266 90.9341 55.2801 90.9423 55.2913C90.9779 55.342 91.0135 55.3955 91.0492 55.4461C91.0985 55.5193 91.1505 55.5952 91.2026 55.6712C91.241 55.7275 91.2766 55.7809 91.315 55.84C91.3698 55.9216 91.4218 56.0032 91.4766 56.0848C91.5122 56.1383 91.5479 56.1917 91.5835 56.2452C91.6657 56.369 91.7479 56.4984 91.8328 56.6279C91.8602 56.6701 91.8876 56.7123 91.915 56.7573C91.9863 56.8698 92.0575 56.9824 92.1315 57.0977C92.1699 57.1568 92.2055 57.2159 92.2438 57.275C92.3041 57.3707 92.3644 57.4663 92.4247 57.5648C92.463 57.6267 92.5014 57.6914 92.5425 57.7562C92.6055 57.8574 92.6685 57.9616 92.7316 58.0657C92.7672 58.1247 92.8028 58.1838 92.8412 58.2457C92.9316 58.3977 93.022 58.5496 93.1152 58.7044C93.1371 58.7438 93.159 58.7803 93.1837 58.8197C93.2686 58.9632 93.3536 59.1095 93.4385 59.2587C93.4741 59.3234 93.5125 59.3881 93.5508 59.4528C93.6166 59.5682 93.6824 59.6864 93.7481 59.8045C93.7865 59.8749 93.8276 59.9452 93.8659 60.0156C93.9345 60.1365 94.0002 60.2603 94.0687 60.387C94.1043 60.4517 94.14 60.5192 94.1756 60.5839C94.2715 60.7612 94.3674 60.9413 94.4633 61.1242C94.4742 61.1467 94.4879 61.172 94.4989 61.1945C94.5948 61.3774 94.6907 61.5659 94.7893 61.7516C94.825 61.8191 94.8579 61.8867 94.8935 61.957C94.962 62.0949 95.0332 62.2328 95.1017 62.3734C95.1401 62.4494 95.1784 62.5254 95.2141 62.6042C95.2826 62.7448 95.3511 62.8855 95.4196 63.029C95.4552 63.1022 95.4881 63.1725 95.5237 63.2457C95.6168 63.4426 95.71 63.6396 95.8032 63.8394C95.8114 63.8591 95.8196 63.876 95.8306 63.8957C95.9292 64.1123 96.0306 64.3318 96.1292 64.5512C96.1621 64.6244 96.195 64.6976 96.2279 64.7735C96.2964 64.9283 96.3621 65.083 96.4306 65.2378C96.4663 65.3222 96.5019 65.4066 96.5375 65.4882C96.6033 65.643 96.669 65.8005 96.7348 65.9581C96.7677 66.0369 96.8005 66.1157 96.8334 66.1944C96.9184 66.4027 97.0033 66.6137 97.0883 66.8275C97.0992 66.8529 97.1102 66.881 97.1184 66.9063C97.2116 67.1455 97.3047 67.3846 97.3951 67.6266C97.4225 67.7026 97.4527 67.7786 97.4801 67.8545C97.5431 68.0262 97.6061 68.1978 97.6692 68.3723C97.702 68.4623 97.7322 68.5495 97.7651 68.6396C97.8253 68.8112 97.8856 68.9828 97.9432 69.1545C97.9706 69.2389 98.0007 69.3233 98.0281 69.4077C98.1021 69.63 98.1761 69.8523 98.2473 70.0802C98.2583 70.1139 98.2692 70.1449 98.2802 70.1787C98.3624 70.4347 98.4419 70.6964 98.5186 70.9552C98.5432 71.034 98.5652 71.1128 98.5871 71.1916C98.6419 71.3773 98.6967 71.5658 98.7487 71.7543C98.7761 71.85 98.8008 71.9428 98.8282 72.0385C98.8775 72.2214 98.9268 72.4043 98.9762 72.59C99.0008 72.68 99.0227 72.7701 99.0474 72.8601C99.1077 73.0908 99.1652 73.3244 99.22 73.5579C99.231 73.6001 99.2392 73.6395 99.2502 73.6789C99.3159 73.9518 99.3762 74.2304 99.4392 74.5061C99.4557 74.5877 99.4721 74.6665 99.4913 74.7481C99.5351 74.9479 99.5762 75.1505 99.6146 75.3531C99.6338 75.4515 99.653 75.55 99.6721 75.6485C99.7105 75.8426 99.7461 76.0368 99.779 76.2309C99.7954 76.3266 99.8119 76.4223 99.8283 76.5179C99.8694 76.7571 99.9078 76.9963 99.9461 77.2382C99.9544 77.2861 99.9626 77.3367 99.9681 77.3845C100.012 77.6744 100.053 77.9642 100.089 78.2568C100.1 78.3384 100.108 78.4228 100.119 78.5044C100.146 78.7182 100.171 78.9321 100.193 79.1459C100.204 79.2472 100.215 79.3513 100.226 79.4526C100.245 79.6552 100.264 79.8606 100.283 80.0632C100.291 80.1617 100.3 80.263 100.308 80.3614C100.327 80.6062 100.343 80.8538 100.36 81.1015C100.363 81.1577 100.368 81.2112 100.371 81.2646C100.387 81.5657 100.401 81.8696 100.412 82.1763C100.415 82.2579 100.415 82.3395 100.417 82.4239C100.423 82.649 100.428 82.8741 100.431 83.102C100.431 83.2089 100.431 83.313 100.431 83.4199C100.431 83.631 100.431 83.842 100.428 84.0558C100.428 84.16 100.428 84.2641 100.423 84.3682C100.417 84.6186 100.409 84.869 100.398 85.1194C100.398 85.1813 100.396 85.2432 100.393 85.3051C100.379 85.6175 100.36 85.9326 100.338 86.2477C100.332 86.3293 100.324 86.4109 100.319 86.4925C100.3 86.7289 100.28 86.9624 100.259 87.1987C100.248 87.3085 100.237 87.4154 100.226 87.5251C100.204 87.7418 100.179 87.9613 100.152 88.1807C100.138 88.2877 100.127 88.3946 100.111 88.5015C100.078 88.7547 100.042 89.008 100.004 89.264C99.9927 89.3315 99.9845 89.3991 99.9735 89.4666C99.9242 89.7874 99.8667 90.1109 99.8091 90.4345C99.7954 90.5161 99.7763 90.5977 99.7626 90.6765C99.716 90.9213 99.6667 91.1661 99.6146 91.4109C99.5899 91.5206 99.5653 91.6332 99.5434 91.7429C99.494 91.9652 99.442 92.1903 99.3872 92.4154C99.3598 92.5251 99.3351 92.6348 99.3077 92.7446C99.2447 93.0006 99.1762 93.2538 99.1077 93.5099C99.0885 93.583 99.0693 93.6562 99.0474 93.7294C98.957 94.0586 98.8583 94.385 98.757 94.7142C98.7323 94.7929 98.7049 94.8717 98.6802 94.9505C98.6008 95.2037 98.5186 95.4542 98.4336 95.7074C98.3953 95.8199 98.3569 95.9325 98.3185 96.0422C98.2391 96.2701 98.1569 96.4952 98.0747 96.7231C98.0336 96.8357 97.9925 96.9482 97.9486 97.0608C97.8527 97.3168 97.7514 97.5701 97.6472 97.8261C97.6226 97.888 97.5979 97.9527 97.5732 98.0146L97.5212 98.1441C97.4116 98.4705 97.2938 98.7968 97.1732 99.1204C97.1403 99.2133 97.1102 99.3061 97.0746 99.3962C96.9458 99.731 96.806 100.06 96.6663 100.392C96.6279 100.482 96.5951 100.572 96.5567 100.66C96.4005 101.014 96.2361 101.366 96.0662 101.717C96.0361 101.779 96.0087 101.844 95.9785 101.909C95.7758 102.322 95.562 102.73 95.3401 103.138C95.2798 103.248 95.2141 103.355 95.151 103.465C94.9839 103.76 94.8195 104.056 94.6414 104.348C94.5455 104.506 94.4414 104.661 94.3427 104.818C94.192 105.057 94.0441 105.299 93.8851 105.536C93.7728 105.702 93.655 105.865 93.5399 106.031C93.3837 106.256 93.233 106.481 93.0713 106.703C92.9453 106.875 92.811 107.044 92.6822 107.213C92.5233 107.421 92.3699 107.632 92.2055 107.84C92.1973 107.854 92.1863 107.865 92.1781 107.877C91.8931 108.273 91.6027 108.665 91.3095 109.047C91.2684 109.103 91.2245 109.157 91.1834 109.213C90.893 109.587 90.5971 109.956 90.2957 110.316C90.2409 110.384 90.1833 110.451 90.1285 110.519C89.8271 110.876 89.523 111.225 89.2133 111.568C89.1613 111.627 89.1065 111.686 89.0517 111.743C88.7311 112.094 88.405 112.44 88.0735 112.778C88.0461 112.806 88.0187 112.834 87.9913 112.863C87.657 113.2 87.3172 113.532 86.9747 113.856C86.9473 113.881 86.9226 113.906 86.8952 113.932C86.55 114.255 86.1965 114.57 85.8403 114.88C85.7855 114.928 85.7335 114.976 85.6786 115.021C85.3307 115.322 84.9745 115.612 84.6155 115.899C84.558 115.946 84.4977 115.991 84.4374 116.039C84.073 116.326 83.7031 116.608 83.3277 116.881C83.2866 116.911 83.2427 116.942 83.1989 116.973C82.4125 117.542 81.6042 118.079 80.7739 118.586C80.7246 118.617 80.6753 118.648 80.626 118.676C80.2287 118.915 79.8286 119.146 79.4231 119.371C79.3573 119.407 79.2916 119.444 79.2258 119.48C78.8203 119.703 78.4093 119.917 77.9955 120.125C77.938 120.153 77.8777 120.184 77.8174 120.212C77.3872 120.426 76.9516 120.631 76.5104 120.828C76.4912 120.837 76.4721 120.845 76.4529 120.853C76.0117 121.05 75.5678 121.236 75.1157 121.419C75.0746 121.436 75.0308 121.453 74.9897 121.47C74.5485 121.644 74.0992 121.813 73.6498 121.973C73.5758 121.999 73.5046 122.027 73.4306 122.052C72.9867 122.207 72.5401 122.356 72.088 122.497C72.0551 122.508 72.0222 122.519 71.9866 122.53C78.3106 123.296 88.7859 121.934 97.428 116.793C105.711 111.869 110.871 104.573 112.764 95.1081C112.835 94.7507 112.904 94.3934 112.967 94.0276V94.0135C114.375 85.7525 112.803 78.0064 108.295 70.9918L108.276 71.0031Z" fill="white"/>
<path d="M97.158 99.1274C97.1251 99.2205 97.0949 99.3135 97.0593 99.4038C97.0949 99.3107 97.1251 99.2177 97.158 99.1274Z" fill="white"/>
<path d="M93.0548 106.712C92.9288 106.883 92.7945 107.052 92.6657 107.221C92.7945 107.049 92.9288 106.883 93.0548 106.712Z" fill="white"/>
<path d="M93.8461 105.545C93.7338 105.711 93.6159 105.874 93.5009 106.04C93.6159 105.874 93.7365 105.711 93.8461 105.545Z" fill="white"/>
<path d="M96.6606 100.404C96.6223 100.494 96.5894 100.585 96.551 100.672C96.5894 100.582 96.6223 100.491 96.6606 100.404Z" fill="white"/>
<path d="M96.0577 101.727C96.0276 101.789 96.0002 101.854 95.97 101.919C96.0002 101.857 96.0276 101.792 96.0577 101.727Z" fill="white"/>
<path d="M96.4239 65.2419C96.4595 65.3265 96.4951 65.4111 96.5308 65.4929C96.4951 65.4083 96.4595 65.3237 96.4239 65.2419Z" fill="white"/>
<path d="M97.3861 67.6316C97.4135 67.7077 97.4436 67.7839 97.471 67.86C97.4436 67.7839 97.4162 67.7077 97.3861 67.6316Z" fill="white"/>
<path d="M97.6403 68.3782C97.6732 68.4684 97.7033 68.5558 97.7362 68.6461C97.7033 68.5558 97.6732 68.4656 97.6403 68.3782Z" fill="white"/>
<path d="M97.0775 66.8335C97.0887 66.8589 97.1 66.8871 97.1085 66.9125C97.0972 66.8871 97.0859 66.8589 97.0775 66.8335Z" fill="white"/>
<path d="M99.4377 74.5107C99.4541 74.5925 99.4706 74.6715 99.4897 74.7533C99.4733 74.6715 99.4569 74.5925 99.4377 74.5107Z" fill="white"/>
<path d="M90.9409 55.2917C90.9765 55.3425 91.0122 55.3961 91.0478 55.4468C91.0122 55.3933 90.9765 55.3425 90.9409 55.2917Z" fill="white"/>
<path d="M99.9097 77.2412C99.9182 77.2891 99.9267 77.3399 99.9323 77.3878C99.9238 77.3399 99.9154 77.2891 99.9097 77.2412Z" fill="white"/>
<path d="M98.9475 72.5903C98.9722 72.6806 98.9941 72.7708 99.0188 72.861C98.9968 72.7708 98.9722 72.6806 98.9475 72.5903Z" fill="white"/>
<path d="M99.2017 73.5588C99.213 73.6011 99.2214 73.6406 99.2327 73.6801C99.2214 73.6378 99.213 73.5983 99.2017 73.5588Z" fill="white"/>
<path d="M98.5118 70.9614C98.5364 71.0404 98.5584 71.1193 98.5803 71.1983C98.5584 71.1193 98.5337 71.0404 98.5118 70.9614Z" fill="white"/>
<path d="M95.8066 63.8418C95.815 63.8612 95.8233 63.8779 95.8345 63.8973C95.8261 63.8779 95.8178 63.8612 95.8066 63.8418Z" fill="white"/>
<path d="M93.4282 59.2588C93.4638 59.3236 93.5022 59.3885 93.5406 59.4534C93.5022 59.3885 93.4666 59.3236 93.4282 59.2588Z" fill="white"/>
<path d="M94.7717 61.7581C94.8073 61.8257 94.8402 61.8934 94.8758 61.9639C94.8402 61.8962 94.8073 61.8257 94.7717 61.7581Z" fill="white"/>
<path d="M95.0804 62.3765C95.1187 62.4526 95.1571 62.5287 95.1927 62.6077C95.1544 62.5316 95.116 62.4526 95.0804 62.3765Z" fill="white"/>
<path d="M91.1951 55.6721C91.2334 55.7285 91.2691 55.7821 91.3074 55.8413C91.2691 55.7849 91.2334 55.7285 91.1951 55.6721Z" fill="white"/>
<path d="M94.0637 60.3928C94.0993 60.4577 94.1349 60.5254 94.1705 60.5902C94.1349 60.5225 94.0993 60.4577 94.0637 60.3928Z" fill="white"/>
<path d="M93.1014 58.708C93.1233 58.7475 93.1452 58.7841 93.1699 58.8236C93.148 58.7841 93.126 58.7447 93.1014 58.708Z" fill="white"/>
<path d="M91.8124 56.6289C91.8398 56.6712 91.8672 56.7135 91.8946 56.7586C91.8672 56.7163 91.8398 56.6712 91.8124 56.6289Z" fill="white"/>
<path d="M92.7202 58.064C92.7558 58.1232 92.7914 58.1824 92.8298 58.2444C92.7941 58.1824 92.7585 58.1232 92.7202 58.064Z" fill="white"/>
<path d="M96.1152 64.5513C96.1481 64.6246 96.181 64.6979 96.2139 64.774C96.181 64.7007 96.1481 64.6246 96.1152 64.5513Z" fill="white"/>
<path d="M92.4115 57.5693C92.4499 57.6314 92.4882 57.6962 92.5293 57.7611C92.491 57.6962 92.4499 57.6342 92.4115 57.5693Z" fill="white"/>
<path d="M92.1392 57.0979C92.1775 57.1571 92.2131 57.2163 92.2515 57.2756C92.2131 57.2163 92.1775 57.1543 92.1392 57.0979Z" fill="white"/>
<path d="M100.424 84.062C100.424 84.1663 100.424 84.2707 100.418 84.375C100.418 84.2707 100.421 84.1663 100.424 84.062Z" fill="white"/>
<path d="M97.4951 98.1512L97.5472 98.0271C97.5718 97.9594 97.5965 97.8974 97.6212 97.8325C97.5801 97.934 97.5417 98.0327 97.5006 98.1343C97.5006 98.1399 97.4979 98.1455 97.4951 98.1512Z" fill="white"/>
<path d="M91.2859 109.058C91.5818 108.676 91.8723 108.284 92.1545 107.888C91.8695 108.284 91.5791 108.676 91.2859 109.058Z" fill="white"/>
<path d="M98.409 95.7158C98.3706 95.8286 98.3322 95.9414 98.2939 96.0514C98.3322 95.9386 98.3733 95.8258 98.409 95.7158Z" fill="white"/>
<path d="M99.3901 92.4185C99.3627 92.5284 99.338 92.6384 99.3106 92.7484C99.338 92.6384 99.3654 92.5284 99.3901 92.4185Z" fill="white"/>
<path d="M99.7929 90.4443C99.7792 90.5261 99.76 90.6079 99.7463 90.6869C99.7628 90.6051 99.7792 90.5233 99.7929 90.4443Z" fill="white"/>
<path d="M99.5997 91.4175C99.5751 91.5275 99.5504 91.6403 99.5285 91.7502C99.5532 91.6403 99.5778 91.5275 99.5997 91.4175Z" fill="white"/>
<path d="M99.0986 93.5154C99.0794 93.5887 99.0602 93.662 99.0383 93.7353C99.0574 93.662 99.0766 93.5887 99.0986 93.5154Z" fill="white"/>
<path d="M100.151 88.1877C100.137 88.2949 100.126 88.4021 100.109 88.5092C100.123 88.4021 100.137 88.2949 100.151 88.1877Z" fill="white"/>
<path d="M100.255 80.0718C100.263 80.1705 100.272 80.272 100.28 80.3707C100.272 80.2692 100.263 80.1705 100.255 80.0718Z" fill="white"/>
<path d="M79.394 119.378C79.7996 119.153 80.2024 118.922 80.5969 118.683C80.1996 118.922 79.7996 119.153 79.394 119.378Z" fill="white"/>
<path d="M75.073 121.423C75.5224 121.243 75.969 121.055 76.4101 120.858C75.969 121.055 75.5251 121.24 75.073 121.423Z" fill="white"/>
<path d="M73.6024 121.977C74.0545 121.817 74.5012 121.648 74.9423 121.474C74.5012 121.648 74.0518 121.817 73.6024 121.977Z" fill="white"/>
<path d="M100.182 79.1523C100.193 79.2539 100.204 79.3582 100.215 79.4597C100.204 79.3554 100.193 79.2539 100.182 79.1523Z" fill="white"/>
<path d="M76.4891 120.832C76.9303 120.635 77.366 120.427 77.7961 120.216C77.366 120.43 76.9303 120.635 76.4891 120.832Z" fill="white"/>
<path d="M86.9467 113.865C87.292 113.542 87.629 113.21 87.9633 112.872C87.629 113.21 87.2892 113.542 86.9467 113.865Z" fill="white"/>
<path d="M84.5865 115.911C84.9454 115.624 85.2989 115.331 85.6496 115.033C85.3016 115.331 84.9454 115.624 84.5865 115.911Z" fill="white"/>
<path d="M100.4 82.1882C100.403 82.27 100.403 82.3518 100.406 82.4364C100.406 82.3546 100.403 82.27 100.4 82.1882Z" fill="white"/>
<path d="M100.345 81.1125C100.348 81.1689 100.354 81.2225 100.357 81.2761C100.354 81.2197 100.348 81.1661 100.345 81.1125Z" fill="white"/>
<path d="M47.7816 61.6703C47.7816 61.6703 47.7816 61.659 47.7789 61.6562C47.7789 61.6478 47.7761 61.6393 47.7734 61.6309C47.7515 61.5268 47.7296 61.4199 47.7076 61.3101C47.6994 61.2736 47.6939 61.2398 47.6857 61.2032C47.6693 61.116 47.6528 61.026 47.6337 60.9331C47.6254 60.8965 47.62 60.8571 47.6117 60.8206C47.5926 60.7136 47.5734 60.6039 47.5542 60.4942C47.5515 60.4745 47.546 60.452 47.5432 60.4323C47.5213 60.3 47.4994 60.165 47.4775 60.0271C47.472 59.9933 47.4665 59.9596 47.461 59.9258C47.4446 59.8189 47.4282 59.712 47.4117 59.605C47.4062 59.56 47.398 59.515 47.3925 59.47C47.3788 59.3659 47.3624 59.259 47.3487 59.1492C47.3432 59.107 47.3377 59.0648 47.3323 59.0226C47.3131 58.8735 47.2939 58.7215 47.2775 58.5668C47.2775 58.5668 47.2775 58.564 47.2775 58.5612C47.261 58.412 47.2446 58.2573 47.2281 58.1053C47.2226 58.0575 47.2199 58.0097 47.2144 57.9618C47.2035 57.8493 47.1925 57.7339 47.1815 57.6158C47.1761 57.5623 47.1733 57.5116 47.1678 57.4582C47.1569 57.3316 47.1459 57.205 47.1377 57.0755C47.135 57.0361 47.1322 56.9967 47.1295 56.9573C47.1185 56.7913 47.1076 56.6225 47.0966 56.4509C47.0966 56.4115 47.0939 56.3721 47.0911 56.3327C47.0829 56.1976 47.0774 56.0626 47.0719 55.9275C47.0719 55.8684 47.0665 55.8122 47.0665 55.7531C47.061 55.6293 47.0582 55.5027 47.0555 55.3789C47.0555 55.3226 47.0528 55.2635 47.05 55.2044C47.0473 55.0412 47.0445 54.878 47.0418 54.7148C47.0418 54.6951 47.0418 54.6782 47.0418 54.6585C47.0418 54.4757 47.0418 54.29 47.0418 54.1043C47.0418 54.048 47.0418 53.9917 47.0418 53.9382C47.0418 53.8032 47.0473 53.6681 47.05 53.5303C47.05 53.4655 47.0528 53.4008 47.0555 53.3361C47.061 53.1954 47.0637 53.0547 47.0719 52.9141C47.0719 52.8578 47.0774 52.8043 47.0774 52.748C47.0856 52.5539 47.0966 52.3598 47.1103 52.1628C47.1103 52.1262 47.1158 52.0868 47.1185 52.0474C47.1295 51.887 47.1404 51.7239 47.1541 51.5635C47.1596 51.4959 47.1651 51.4284 47.1706 51.3609C47.1815 51.2202 47.1952 51.0795 47.2089 50.9388C47.2144 50.8713 47.2226 50.8038 47.2281 50.7334C47.2446 50.5674 47.2637 50.4014 47.2829 50.2354C47.2884 50.196 47.2911 50.1538 47.2966 50.1144C47.3213 49.909 47.3487 49.7036 47.3788 49.4954C47.3871 49.4335 47.398 49.3744 47.4062 49.3125C47.4282 49.1606 47.4501 49.0114 47.4747 48.8567C47.4857 48.7835 47.4994 48.7076 47.5104 48.6344C47.535 48.4853 47.5624 48.3333 47.5898 48.1842C47.6008 48.1167 47.6145 48.052 47.6254 47.9844C47.6665 47.7706 47.7076 47.5568 47.7515 47.3429C47.757 47.3176 47.7624 47.2895 47.7679 47.2641C47.809 47.0728 47.8501 46.8815 47.894 46.6901C47.9104 46.6198 47.9268 46.5466 47.9433 46.4763C47.9789 46.3244 48.0173 46.1724 48.0529 46.0177C48.0721 45.9417 48.0912 45.8657 48.1104 45.7898C48.1543 45.6237 48.1981 45.4549 48.2447 45.2861C48.2611 45.2298 48.2748 45.1736 48.2913 45.1201C48.3543 44.9006 48.4173 44.6783 48.4858 44.4561C48.5023 44.397 48.5214 44.3407 48.5406 44.2816C48.5927 44.1128 48.6447 43.9468 48.6995 43.778C48.7242 43.6992 48.7516 43.6232 48.7763 43.5444C48.8283 43.3868 48.8831 43.2321 48.9379 43.0745C48.9653 43.0014 48.99 42.9254 49.0174 42.8522C49.0941 42.644 49.1708 42.433 49.2503 42.222C49.2558 42.2051 49.264 42.1882 49.2695 42.1685C49.3572 41.9434 49.4476 41.7155 49.5407 41.4904C49.5709 41.4173 49.601 41.3469 49.6312 41.2738C49.6997 41.1134 49.7682 40.953 49.8367 40.7926C49.8723 40.7138 49.9079 40.6322 49.9435 40.5535C50.0175 40.3846 50.097 40.2186 50.1737 40.0498C50.2038 39.9851 50.234 39.9204 50.2641 39.8585C50.3737 39.6306 50.4861 39.4026 50.6011 39.1719C50.6258 39.1213 50.6532 39.0734 50.6779 39.0228C50.771 38.8399 50.8669 38.6598 50.9628 38.4769C51.0039 38.3982 51.0478 38.3194 51.0889 38.2434C51.1766 38.083 51.2642 37.9226 51.3574 37.7623C51.4012 37.6863 51.4451 37.6075 51.4889 37.5315C51.6013 37.3402 51.7136 37.1461 51.8314 36.9547C51.8561 36.9153 51.878 36.8759 51.9027 36.8365C52.0424 36.6058 52.1876 36.3779 52.3356 36.15C52.3794 36.0825 52.4233 36.0149 52.4671 35.9474C52.5767 35.7814 52.6863 35.6154 52.7987 35.4494C52.8535 35.3706 52.9055 35.2918 52.9603 35.213C53.0754 35.047 53.1905 34.8838 53.3083 34.7178C53.3576 34.6503 53.407 34.58 53.4563 34.5124C53.6234 34.2845 53.7933 34.0538 53.9687 33.8259C53.9906 33.7949 54.0153 33.764 54.0399 33.7358C54.1934 33.5361 54.3495 33.3391 54.5112 33.1393C54.5715 33.0662 54.6318 32.9902 54.6921 32.9171C54.8236 32.7567 54.9551 32.5963 55.0921 32.4387C55.1579 32.3628 55.2209 32.2868 55.2866 32.2108C55.4401 32.0307 55.599 31.8535 55.7579 31.6734C55.8018 31.6256 55.8456 31.5749 55.8895 31.5271C56.095 31.302 56.3032 31.0769 56.5169 30.8518C56.5717 30.7955 56.6265 30.7364 56.6813 30.6802C56.843 30.5113 57.0101 30.3425 57.1773 30.1737C57.2513 30.0977 57.328 30.0246 57.4047 29.9486C57.5664 29.791 57.728 29.6307 57.8952 29.4731C57.9664 29.4056 58.0377 29.3352 58.1116 29.2677C58.3473 29.0454 58.5857 28.8231 58.8323 28.6036C61.2463 26.4343 67.858 21.1895 77.0537 19.3353C77.3496 19.2762 77.6455 19.2199 77.9415 19.1693C78.0374 19.1524 78.136 19.1384 78.2319 19.1215C78.4319 19.0877 78.6292 19.0568 78.8292 19.0258C78.9443 19.0089 79.0594 18.9949 79.1772 18.978C79.3581 18.9526 79.5389 18.9273 79.7198 18.9076C79.8431 18.8936 79.9664 18.8795 80.0897 18.8654C80.2623 18.8457 80.4377 18.8288 80.6103 18.812C80.7363 18.8007 80.8624 18.7895 80.9884 18.7782C81.161 18.7641 81.3309 18.7501 81.5035 18.7388C81.6296 18.7304 81.7529 18.7219 81.8789 18.7163C82.0543 18.705 82.2269 18.6994 82.4023 18.691C82.5228 18.6853 82.6461 18.6797 82.7667 18.6769C82.9475 18.6713 83.1284 18.6685 83.3092 18.6656C83.4243 18.6656 83.5367 18.6628 83.6517 18.66C83.6846 18.66 83.7175 18.66 83.7531 18.66C83.8052 18.66 83.8572 18.6628 83.912 18.6628C84.282 18.6628 84.6519 18.6741 85.0218 18.6882C85.1067 18.691 85.1889 18.6938 85.2739 18.6966C85.6903 18.7163 86.1041 18.7444 86.5206 18.7782C86.611 18.7866 86.7014 18.7951 86.7918 18.8035C87.1645 18.8373 87.5371 18.8795 87.907 18.9245C87.9728 18.9329 88.0386 18.9386 88.1043 18.947C88.5181 19.0033 88.9346 19.068 89.3483 19.1383C89.447 19.1552 89.5456 19.1721 89.6443 19.1918C90.0388 19.2622 90.4306 19.3381 90.8225 19.4253C90.8554 19.4338 90.8882 19.4394 90.9184 19.445C91.3349 19.5379 91.7486 19.6392 92.1651 19.7461C92.2665 19.7714 92.3679 19.7996 92.4693 19.8277C92.883 19.9403 93.2968 20.0556 93.7105 20.185C93.7434 20.1963 93.779 20.2076 93.8119 20.2188C94.201 20.3398 94.5873 20.4692 94.9764 20.6043C95.075 20.6381 95.1737 20.6746 95.2751 20.7084C95.6833 20.8547 96.0916 21.0066 96.4971 21.1698C96.5656 21.1952 96.6314 21.2261 96.6972 21.2514C97.0589 21.3978 97.4205 21.5497 97.7822 21.7101C97.8726 21.7495 97.9658 21.7889 98.0562 21.8311C98.4618 22.0111 98.8646 22.2025 99.2673 22.3994C99.3523 22.4416 99.4372 22.4838 99.5222 22.526C99.8784 22.7033 100.235 22.8862 100.591 23.0747C100.668 23.1141 100.744 23.1535 100.821 23.1957C101.224 23.4124 101.627 23.6403 102.027 23.871C102.12 23.9245 102.213 23.9807 102.306 24.0342C102.676 24.2508 103.043 24.4759 103.41 24.7067C103.46 24.7376 103.509 24.7686 103.558 24.7995C103.961 25.0556 104.364 25.3201 104.767 25.5902C104.863 25.6549 104.958 25.7196 105.054 25.7843C105.463 26.0629 105.871 26.3471 106.276 26.6425C116.976 34.4139 123.377 44.7177 124.783 56.4452C124.824 56.7941 124.862 57.143 124.895 57.4919C124.906 57.6073 124.914 57.7227 124.923 57.8352C124.942 58.0716 124.964 58.3079 124.98 58.5471C124.988 58.685 124.996 58.8228 125.005 58.9579C125.018 59.1745 125.029 59.394 125.04 59.6135C125.046 59.7598 125.051 59.9033 125.057 60.0496C125.065 60.2634 125.07 60.4773 125.073 60.6883C125.076 60.8374 125.079 60.9838 125.079 61.1329C125.079 61.3467 125.079 61.5634 125.079 61.78C125.079 61.9263 125.079 62.0698 125.076 62.2162C125.073 62.4413 125.065 62.6664 125.06 62.8914C125.054 63.0293 125.051 63.1672 125.046 63.3051C125.035 63.5555 125.021 63.8059 125.007 64.0563C125.002 64.1689 124.996 64.2842 124.988 64.3968C124.942 65.1283 124.879 65.8627 124.796 66.6027C124.783 66.7181 124.769 66.8334 124.755 66.946C124.725 67.202 124.695 67.4581 124.662 67.7141C124.643 67.852 124.624 67.9927 124.605 68.1306C124.572 68.3641 124.539 68.5976 124.501 68.834C124.479 68.9831 124.454 69.1294 124.429 69.2786C124.391 69.5065 124.353 69.7344 124.311 69.9623C124.284 70.1114 124.257 70.2634 124.229 70.4125C124.185 70.6432 124.142 70.8739 124.095 71.1018C124.065 71.251 124.037 71.3973 124.005 71.5464C123.955 71.7856 123.903 72.0247 123.848 72.2639C123.818 72.4018 123.788 72.5424 123.755 72.6803C123.695 72.9476 123.629 73.2149 123.563 73.4822C123.536 73.5948 123.509 73.7073 123.481 73.8199C123.289 74.5824 123.081 75.3449 122.857 76.113C122.821 76.2312 122.785 76.3494 122.75 76.4676C122.67 76.7321 122.591 76.9965 122.506 77.2638C122.459 77.4073 122.413 77.5508 122.366 77.6972C122.289 77.9363 122.21 78.1783 122.128 78.4203C122.076 78.575 122.024 78.727 121.969 78.8817C121.889 79.1153 121.807 79.3488 121.725 79.5795C121.667 79.7371 121.613 79.8947 121.555 80.0522C121.47 80.2858 121.382 80.5193 121.295 80.75C121.234 80.9048 121.177 81.0623 121.117 81.2171C121.023 81.4563 120.928 81.6954 120.832 81.9374C120.771 82.0865 120.714 82.2357 120.654 82.3848C120.547 82.6465 120.437 82.9081 120.327 83.1698C120.273 83.2964 120.221 83.423 120.169 83.5497C120.004 83.9379 119.834 84.3234 119.659 84.7117C119.645 84.7455 119.629 84.7764 119.612 84.8102C119.453 85.1647 119.289 85.5221 119.122 85.8766C119.056 86.0173 118.988 86.158 118.922 86.2987C118.804 86.5491 118.683 86.7967 118.563 87.0471C118.483 87.2103 118.401 87.3707 118.322 87.5339C118.209 87.7618 118.094 87.9897 117.979 88.2176C117.892 88.3892 117.804 88.5609 117.713 88.7325C117.598 88.952 117.483 89.1714 117.368 89.3909C117.275 89.5654 117.182 89.7426 117.086 89.9171C117.037 90.0099 116.987 90.1028 116.935 90.1984C125.473 79.3516 127.701 67.8914 127.969 59.7542C128.304 49.6614 125.786 42.3317 125.761 42.2586C125.731 42.1601 123.341 34.7066 117.434 26.6678C112.009 19.2818 102.407 9.87001 87.4823 6.95782C79.2211 5.34839 71.4749 5.79858 64.4576 8.29715C55.8949 11.3472 48.5845 17.4951 43.8688 25.6099C41.4987 29.6869 39.9094 34.0566 39.2765 38.2462C38.575 42.8607 38.8518 51.7829 47.7789 61.6787L47.7816 61.6703Z" fill="white"/>
<path d="M58.6867 37.7987C58.8922 37.5736 59.1005 37.3513 59.3087 37.1318L59.2594 37.1009L59.9882 36.42C60.0896 36.3018 60.1965 36.192 60.3006 36.0823C60.3362 36.0457 60.3664 36.0092 60.402 35.9726C60.5527 35.8206 60.7089 35.6743 60.8596 35.5308L60.9801 35.4155C60.9801 35.4155 61.0021 35.393 61.013 35.3845C61.1007 35.2973 61.1966 35.2016 61.2952 35.1031C67.622 28.9017 73.8913 25.3002 79.9331 24.3998L80.4811 24.3182L80.4866 24.3267C88.3314 23.3672 95.9844 26.9124 103.24 34.8752C115.842 48.7046 111.63 65.1563 109.778 70.463C109.797 70.4939 109.816 70.5249 109.835 70.5558C110.052 70.9019 110.26 71.248 110.463 71.5969C110.485 71.6363 110.507 71.6757 110.531 71.7151C110.726 72.0555 110.915 72.396 111.099 72.7392C111.118 72.7758 111.14 72.8124 111.159 72.849C111.345 73.2007 111.521 73.5524 111.693 73.9069C111.726 73.9745 111.759 74.042 111.792 74.1095C111.959 74.4612 112.121 74.8129 112.274 75.1675C112.299 75.2209 112.321 75.2744 112.343 75.3307C112.491 75.6739 112.633 76.02 112.767 76.3689C112.781 76.4027 112.795 76.4365 112.808 76.4702C112.948 76.8304 113.08 77.1933 113.206 77.5563C113.23 77.6295 113.258 77.7026 113.282 77.7758C113.403 78.1331 113.518 78.4905 113.628 78.8506C113.647 78.9153 113.666 78.98 113.685 79.0448C113.789 79.4021 113.891 79.7594 113.981 80.1168C113.987 80.1421 113.995 80.1674 114 80.1927C114.093 80.5642 114.181 80.9384 114.261 81.3098C114.277 81.3858 114.293 81.4617 114.31 81.5377C114.387 81.9035 114.455 82.2693 114.521 82.635C114.535 82.7082 114.546 82.7785 114.557 82.8517C114.62 83.2287 114.677 83.6086 114.726 83.9884C114.726 83.9969 114.726 84.0053 114.729 84.0138C114.778 84.3992 114.82 84.7875 114.855 85.1758C114.861 85.249 114.869 85.3221 114.874 85.3953C114.907 85.7695 114.932 86.1465 114.951 86.5264C114.954 86.5996 114.957 86.6755 114.962 86.7487C114.978 87.1398 114.992 87.5309 114.995 87.9248C114.995 87.9417 114.995 87.9586 114.995 87.9755C114.998 88.3637 114.995 88.752 114.984 89.1403C114.984 89.205 114.981 89.2726 114.978 89.3373C114.965 89.7256 114.946 90.1167 114.921 90.505C114.921 90.5359 114.921 90.5669 114.915 90.595C114.962 90.5106 115.011 90.4262 115.058 90.3418C115.154 90.1701 115.25 89.9957 115.346 89.8241C115.466 89.6074 115.584 89.3907 115.702 89.1741C115.795 89.0025 115.885 88.8308 115.976 88.662C116.094 88.4425 116.206 88.2231 116.321 88.0036C116.409 87.8348 116.496 87.6688 116.581 87.4999C116.697 87.2777 116.809 87.0526 116.918 86.8303C117.001 86.6671 117.083 86.5039 117.162 86.3407C117.275 86.11 117.387 85.8764 117.497 85.6457C117.571 85.491 117.645 85.339 117.716 85.1843C117.834 84.931 117.951 84.6778 118.067 84.4246C118.127 84.2923 118.187 84.1629 118.247 84.0306C118.395 83.7043 118.538 83.3779 118.678 83.0487C118.702 82.9924 118.727 82.9361 118.752 82.877C118.916 82.4915 119.078 82.1061 119.234 81.7206C119.272 81.6277 119.308 81.5349 119.343 81.4448C119.461 81.155 119.576 80.8652 119.689 80.5754C119.741 80.4404 119.79 80.3053 119.842 80.1702C119.935 79.9226 120.028 79.6778 120.119 79.4302C120.174 79.2811 120.226 79.132 120.278 78.9829C120.36 78.7521 120.442 78.5186 120.522 78.2879C120.576 78.1331 120.628 77.9755 120.681 77.8208C120.755 77.5957 120.831 77.3706 120.902 77.1483C120.955 76.9908 121.004 76.8332 121.053 76.6756C121.122 76.4533 121.19 76.2311 121.259 76.0116C121.305 75.854 121.355 75.6936 121.401 75.5361C121.467 75.3166 121.527 75.0943 121.59 74.8748C121.634 74.7173 121.678 74.5597 121.719 74.405C121.779 74.1827 121.837 73.9604 121.894 73.7381C121.933 73.5862 121.974 73.4314 122.012 73.2795C122.07 73.0516 122.125 72.8208 122.177 72.5929C122.21 72.4494 122.245 72.3031 122.278 72.1596C122.333 71.9176 122.385 71.6728 122.437 71.4309C122.464 71.3014 122.494 71.172 122.519 71.0426C122.577 70.7584 122.631 70.477 122.684 70.1928C122.7 70.1056 122.719 70.0184 122.733 69.9312C122.801 69.5598 122.864 69.1883 122.925 68.8198C122.933 68.7691 122.938 68.7185 122.947 68.6678C122.996 68.3527 123.042 68.0375 123.086 67.7224C123.103 67.6014 123.116 67.4776 123.133 67.3566C123.163 67.1147 123.196 66.8727 123.223 66.6307C123.24 66.49 123.253 66.3493 123.267 66.2086C123.289 65.9864 123.314 65.7641 123.333 65.5446C123.347 65.3955 123.358 65.2464 123.371 65.0972C123.388 64.8862 123.404 64.6752 123.421 64.4641C123.432 64.3122 123.44 64.1574 123.448 64.0055C123.459 63.8001 123.47 63.5919 123.478 63.3865C123.484 63.2317 123.492 63.0798 123.495 62.925C123.5 62.7196 123.506 62.5171 123.511 62.3145C123.514 62.1597 123.517 62.0078 123.517 61.8558C123.517 61.6532 123.517 61.4507 123.517 61.2481C123.517 61.0961 123.517 60.9442 123.511 60.7951C123.508 60.5897 123.503 60.3843 123.495 60.1789C123.489 60.0326 123.486 59.8862 123.481 59.7427C123.473 59.5289 123.459 59.3179 123.448 59.104C123.44 58.969 123.434 58.8311 123.423 58.696C123.407 58.4625 123.388 58.2318 123.369 58.0011C123.358 57.8857 123.352 57.7732 123.341 57.6578C123.308 57.3145 123.273 56.9712 123.232 56.6308C121.881 45.3619 115.702 35.438 105.369 27.9338C96.2913 21.3413 86.8627 18.9722 77.3438 20.8911C68.5153 22.6694 62.1666 27.7087 59.8457 29.7937C59.5937 30.0216 59.3471 30.2495 59.1032 30.4774C59.021 30.5562 58.9415 30.6322 58.8621 30.7109C58.7031 30.8629 58.5442 31.0148 58.3908 31.1668C58.2976 31.2596 58.2099 31.3497 58.1195 31.4425C57.9825 31.5804 57.8455 31.7211 57.7112 31.8618C57.6181 31.9602 57.5249 32.0587 57.4345 32.16C57.3085 32.2923 57.1852 32.4273 57.0619 32.5596C56.9687 32.6608 56.8783 32.765 56.7878 32.8691C56.6728 33.0013 56.5549 33.1307 56.4426 33.263C56.3522 33.3671 56.2645 33.474 56.1768 33.5809C56.0672 33.7104 55.9603 33.8398 55.8535 33.9692C55.7658 34.0761 55.6809 34.1859 55.5932 34.2928C55.4918 34.4194 55.3904 34.5488 55.2918 34.6755C55.2068 34.7852 55.1246 34.8949 55.0424 35.0047C54.9465 35.1313 54.8506 35.2607 54.7575 35.3873C54.678 35.4971 54.5985 35.6068 54.5191 35.7165C54.4287 35.8431 54.3382 35.9698 54.2505 36.0964C54.1738 36.2061 54.0998 36.3187 54.0231 36.4284C53.9382 36.555 53.8532 36.6816 53.771 36.8082C53.6971 36.9208 53.6258 37.0305 53.5546 37.1431C53.4751 37.2697 53.3929 37.3963 53.3162 37.5229C53.2477 37.6355 53.1792 37.7452 53.1107 37.8578C53.034 37.9844 52.96 38.111 52.886 38.2376C52.8202 38.3502 52.7572 38.4599 52.6942 38.5724C52.623 38.6991 52.5517 38.8257 52.4832 38.9523C52.4229 39.0648 52.3626 39.1746 52.3024 39.2871C52.2339 39.4137 52.1681 39.5404 52.1023 39.667C52.0448 39.7795 51.9873 39.8892 51.9325 40.0018C51.8694 40.1284 51.8064 40.255 51.7461 40.3816C51.6913 40.4914 51.6393 40.6039 51.5872 40.7137C51.5269 40.8403 51.4694 40.9669 51.4118 41.0935C51.3625 41.2033 51.3132 41.313 51.2639 41.4227C51.2091 41.5493 51.1543 41.676 51.0995 41.8026C51.0529 41.9123 51.0063 42.0192 50.9625 42.129C50.9104 42.2556 50.8611 42.3822 50.809 42.5088C50.7652 42.6185 50.7214 42.7255 50.6803 42.8352C50.6309 42.9618 50.5843 43.0884 50.5378 43.215C50.4994 43.322 50.4583 43.4289 50.4199 43.5358C50.3734 43.6624 50.3323 43.7919 50.2884 43.9185C50.2528 44.0226 50.2144 44.1295 50.1816 44.2336C50.1405 44.363 50.0994 44.4897 50.0583 44.6191C50.0254 44.7204 49.9925 44.8245 49.9624 44.9258C49.9213 45.058 49.8856 45.1875 49.8473 45.3197C49.8199 45.4182 49.7897 45.5167 49.7623 45.6151C49.724 45.753 49.6883 45.8881 49.6527 46.0231C49.6281 46.1132 49.6034 46.206 49.5787 46.2989C49.5404 46.4508 49.5048 46.6027 49.4691 46.7519C49.45 46.825 49.4308 46.901 49.4143 46.977C49.3623 47.2021 49.313 47.4243 49.2664 47.6466C49.2554 47.6917 49.2472 47.7395 49.239 47.7845C49.2034 47.9618 49.1677 48.1362 49.1349 48.3135C49.1184 48.3979 49.1047 48.4823 49.091 48.5667C49.0664 48.7018 49.0417 48.8368 49.0198 48.9719C49.0033 49.0647 48.9896 49.1576 48.9759 49.2533C48.9568 49.3771 48.9376 49.5009 48.9184 49.6247C48.9047 49.7203 48.891 49.8188 48.88 49.9145C48.8636 50.0327 48.8472 50.1508 48.8335 50.269C48.8198 50.3675 48.8115 50.466 48.7978 50.5644C48.7841 50.677 48.7704 50.7924 48.7595 50.9049C48.7485 51.0034 48.7403 51.1019 48.7321 51.2003C48.7211 51.3101 48.7101 51.4226 48.7019 51.5324C48.6937 51.6308 48.6855 51.7293 48.68 51.825C48.6718 51.9319 48.6636 52.0416 48.6553 52.1486C48.6499 52.247 48.6444 52.3427 48.6389 52.4412C48.6334 52.5481 48.6252 52.6522 48.6225 52.7563C48.617 52.852 48.6142 52.9477 48.6088 53.0433C48.6033 53.1474 48.6005 53.2515 48.5978 53.3528C48.5951 53.4485 48.5923 53.5413 48.5896 53.637C48.5896 53.7383 48.5841 53.8368 48.5841 53.9381C48.5841 54.0309 48.5841 54.1266 48.5841 54.2194C48.5841 54.3179 48.5841 54.4164 48.5841 54.5121C48.5841 54.6049 48.5841 54.6978 48.5841 54.7878C48.5841 54.8835 48.5841 54.9791 48.5896 55.072C48.5896 55.162 48.5923 55.2521 48.5951 55.3421C48.5951 55.4378 48.6005 55.5306 48.6033 55.6235C48.606 55.7107 48.6088 55.7979 48.6142 55.8852C48.617 55.978 48.6225 56.0681 48.6279 56.1609C48.6334 56.2481 48.6362 56.3325 48.6416 56.4169C48.6471 56.507 48.6526 56.597 48.6581 56.6843C48.6636 56.7687 48.669 56.8531 48.6745 56.9347C48.68 57.0219 48.6882 57.1091 48.6937 57.1963C48.6992 57.2779 48.7074 57.3595 48.7129 57.4383C48.7211 57.5227 48.7293 57.61 48.7375 57.6944C48.7458 57.7732 48.7512 57.8519 48.7595 57.9279C48.7677 58.0123 48.7759 58.0939 48.7869 58.1783C48.7951 58.2543 48.8033 58.3303 48.8115 58.4034C48.8198 58.485 48.8307 58.5666 48.8417 58.6482C48.8499 58.7214 48.8581 58.7945 48.8691 58.8649C48.88 58.9437 48.891 59.0224 48.902 59.0984C48.9129 59.1688 48.9211 59.2391 48.9321 59.3094C48.9431 59.3854 48.954 59.4558 48.965 59.5289C48.9759 59.5992 48.9869 59.6696 48.9951 59.7371C49.0061 59.8075 49.017 59.8778 49.028 59.9481C49.039 60.0157 49.0499 60.0832 49.0609 60.1479C49.0718 60.2183 49.0855 60.2858 49.0965 60.3561C49.1075 60.418 49.1184 60.4799 49.1294 60.5418C49.1403 60.6066 49.154 60.6713 49.165 60.736C49.176 60.7979 49.1869 60.8598 49.2006 60.9189C49.2253 61.0399 49.2472 61.1552 49.2719 61.2706C49.2828 61.324 49.2938 61.3775 49.3047 61.431C49.3184 61.4901 49.3294 61.552 49.3431 61.611C49.3541 61.6645 49.3678 61.718 49.3787 61.7714C49.3897 61.8249 49.4034 61.8812 49.4143 61.9318C49.428 61.9881 49.439 62.0415 49.4527 62.0978C49.4637 62.1428 49.4746 62.1879 49.4828 62.2301C49.4965 62.2835 49.5075 62.337 49.5212 62.3876C49.5322 62.4298 49.5431 62.472 49.5513 62.5114C49.5623 62.5593 49.576 62.6071 49.587 62.6549C49.5979 62.6943 49.6061 62.7337 49.6171 62.7731C49.6308 62.8209 49.6418 62.866 49.6527 62.911C49.6609 62.9447 49.6719 62.9785 49.6801 63.0123C49.6911 63.0573 49.7048 63.0995 49.7157 63.1417C49.724 63.1727 49.7322 63.2036 49.7404 63.2317C49.7514 63.2739 49.7623 63.3133 49.776 63.3527C49.7842 63.3781 49.7897 63.4034 49.798 63.4259C49.8089 63.4653 49.8199 63.5019 49.8308 63.5384C49.8363 63.5609 49.8445 63.5806 49.85 63.6031C49.861 63.6369 49.8692 63.6707 49.8802 63.7016C49.8856 63.7185 49.8911 63.7382 49.8966 63.7551C49.9076 63.786 49.9158 63.817 49.924 63.8451C49.9267 63.8592 49.9322 63.8705 49.935 63.8817C49.9432 63.9098 49.9514 63.9352 49.9596 63.9605C49.9596 63.9661 49.9624 63.9689 49.9651 63.9746C50.1459 64.149 50.324 64.3206 50.4994 64.4838C49.2335 59.5514 48.3567 49.0394 58.6785 37.824L58.6867 37.7987Z" fill="white"/>
<path d="M59.9884 36.4202L59.2596 37.1011L59.3089 37.132C59.5309 36.8985 59.7501 36.665 59.972 36.437C59.9775 36.4314 59.983 36.4258 59.9884 36.4202Z" fill="white"/>
<path d="M60.9996 35.3822C60.9996 35.3822 60.9773 35.4044 60.9662 35.4127L60.9717 35.4072C60.9717 35.4072 60.9912 35.3877 60.9996 35.3794V35.3822Z" fill="white"/>
<path d="M80.4867 24.3162L79.9387 24.3979C80.1223 24.3697 80.3059 24.3472 80.4895 24.3246L80.484 24.3162H80.4867Z" fill="white"/>
<path d="M111.682 73.9073C111.51 73.5528 111.334 73.1983 111.148 72.8494C111.334 73.2011 111.51 73.5528 111.682 73.9073Z" fill="white"/>
<path d="M114.5 82.6369C114.437 82.2711 114.366 81.9053 114.289 81.5396C114.366 81.9053 114.434 82.2711 114.5 82.6369Z" fill="white"/>
<path d="M114.277 81.3124C114.195 80.9381 114.11 80.5639 114.017 80.1953C114.11 80.5667 114.197 80.9409 114.277 81.3124Z" fill="white"/>
<path d="M112.753 76.3705C112.619 76.0244 112.476 75.6784 112.328 75.3323C112.476 75.6755 112.619 76.0216 112.753 76.3705Z" fill="white"/>
<path d="M113.636 78.8527C113.529 78.4925 113.414 78.1352 113.29 77.7778C113.411 78.1352 113.526 78.4925 113.636 78.8527Z" fill="white"/>
<path d="M113.986 80.1194C113.893 79.7592 113.794 79.4019 113.69 79.0474C113.794 79.4047 113.895 79.7621 113.986 80.1194Z" fill="white"/>
<path d="M114.924 90.5061C114.949 90.115 114.968 89.7267 114.982 89.3384C114.968 89.7267 114.949 90.1178 114.924 90.5061Z" fill="white"/>
<path d="M114.965 86.5232C114.946 86.1462 114.921 85.7691 114.888 85.3921C114.921 85.7663 114.946 86.1433 114.965 86.5232Z" fill="white"/>
<path d="M114.997 89.1356C115.008 88.7445 115.014 88.3562 115.008 87.9707C115.011 88.359 115.008 88.7473 114.997 89.1356Z" fill="white"/>
<path d="M111.116 72.7417C110.932 72.3984 110.746 72.058 110.549 71.7175C110.743 72.058 110.932 72.3984 111.116 72.7417Z" fill="white"/>
<path d="M110.468 71.5989C110.266 71.25 110.055 70.9011 109.841 70.5579C110.057 70.9039 110.266 71.25 110.468 71.5989Z" fill="white"/>
<path d="M114.924 90.6012C114.974 90.5138 115.02 90.4292 115.07 90.3418C115.023 90.4264 114.974 90.511 114.927 90.5956C114.927 90.5956 114.927 90.5984 114.927 90.6012H114.924Z" fill="white"/>
<path d="M49.6138 62.7515C49.6025 62.7148 49.594 62.6725 49.5827 62.6331C49.594 62.6725 49.6025 62.712 49.6138 62.7515Z" fill="white"/>
<path d="M50.309 43.9072C50.3528 43.7803 50.3966 43.6534 50.4405 43.5237C50.3939 43.6506 50.3528 43.7803 50.309 43.9072Z" fill="white"/>
<path d="M49.6654 62.9912C49.6569 62.9601 49.6456 62.9235 49.6371 62.8896C49.6456 62.9235 49.6569 62.9573 49.6654 62.9912Z" fill="white"/>
<path d="M49.3305 61.586C49.3168 61.5268 49.3059 61.4676 49.2922 61.4055C49.3059 61.4647 49.3168 61.5268 49.3305 61.586Z" fill="white"/>
<path d="M49.4186 61.9117C49.4076 61.8581 49.3939 61.8046 49.3829 61.751C49.3939 61.8046 49.4076 61.861 49.4186 61.9117Z" fill="white"/>
<path d="M49.4866 62.2102C49.4753 62.1679 49.464 62.1228 49.4556 62.0776C49.4669 62.1228 49.4782 62.1679 49.4866 62.2102Z" fill="white"/>
<path d="M49.5593 62.491C49.548 62.4515 49.5367 62.4064 49.5282 62.3669C49.5395 62.4092 49.5508 62.4515 49.5593 62.491Z" fill="white"/>
<path d="M116.304 88.0059C116.189 88.2253 116.074 88.4448 115.959 88.6643C116.077 88.4448 116.189 88.2253 116.304 88.0059Z" fill="white"/>
<path d="M49.1645 60.7134C49.1535 60.6485 49.1398 60.5865 49.1288 60.5188C49.1398 60.5837 49.1535 60.6485 49.1645 60.7134Z" fill="white"/>
<path d="M49.8382 63.579C49.8326 63.5596 49.8243 63.5374 49.8187 63.5151C49.8243 63.5374 49.8326 63.5568 49.8382 63.579Z" fill="white"/>
<path d="M49.908 63.7266C49.9024 63.7099 49.8969 63.6933 49.8913 63.6738C49.8969 63.6905 49.9024 63.7099 49.908 63.7266Z" fill="white"/>
<path d="M48.6205 52.735C48.6261 52.6307 48.6318 52.5235 48.6374 52.4192C48.6318 52.5263 48.6233 52.6307 48.6205 52.735Z" fill="white"/>
<path d="M48.6023 53.3314C48.6051 53.2299 48.6108 53.1256 48.6136 53.0212C48.6079 53.1256 48.6051 53.2299 48.6023 53.3314Z" fill="white"/>
<path d="M49.9387 63.8547C49.9387 63.8547 49.9304 63.8297 49.9276 63.8186C49.9332 63.8325 49.936 63.8436 49.9387 63.8547Z" fill="white"/>
<path d="M48.5841 53.9155C48.5841 53.8168 48.5869 53.7153 48.5898 53.6138C48.5898 53.7153 48.5841 53.814 48.5841 53.9155Z" fill="white"/>
<path d="M48.5898 55.0539C48.5898 54.958 48.5869 54.8649 48.5841 54.769C48.5841 54.8649 48.5841 54.9608 48.5898 55.0539Z" fill="white"/>
<path d="M48.6568 52.1273C48.6653 52.0201 48.6737 51.913 48.6822 51.803C48.6737 51.9101 48.6653 52.0201 48.6568 52.1273Z" fill="white"/>
<path d="M48.6108 55.6016C48.6079 55.5085 48.6051 55.4155 48.6023 55.3196C48.6023 55.4155 48.6079 55.5085 48.6108 55.6016Z" fill="white"/>
<path d="M48.7657 50.8888C48.7766 50.776 48.7903 50.6632 48.804 50.5476C48.7903 50.6604 48.7766 50.776 48.7657 50.8888Z" fill="white"/>
<path d="M48.8894 59.0798C48.8784 59.0008 48.8675 58.9247 48.8565 58.8457C48.8675 58.9247 48.8784 59.0036 48.8894 59.0798Z" fill="white"/>
<path d="M50.8354 42.4993C50.8847 42.3724 50.9368 42.2455 50.9888 42.1187C50.9368 42.2455 50.8874 42.3724 50.8354 42.4993Z" fill="white"/>
<path d="M48.8331 58.6242C48.8218 58.5425 48.8133 58.4635 48.802 58.3789C48.8105 58.4607 48.8218 58.5425 48.8331 58.6242Z" fill="white"/>
<path d="M49.0346 59.93C49.0236 59.8595 49.0127 59.7918 49.0017 59.7185C49.0127 59.789 49.0236 59.8595 49.0346 59.93Z" fill="white"/>
<path d="M48.6164 56.1421C48.6108 56.0518 48.6079 55.9588 48.6023 55.8657C48.6051 55.9588 48.6108 56.049 48.6164 56.1421Z" fill="white"/>
<path d="M48.7939 58.1562C48.7855 58.0745 48.7742 57.9899 48.7657 57.9053C48.7742 57.9899 48.7826 58.0716 48.7939 58.1562Z" fill="white"/>
<path d="M48.6737 56.6634C48.6681 56.5732 48.6624 56.4857 48.6568 56.3955C48.6624 56.4857 48.6681 56.576 48.6737 56.6634Z" fill="white"/>
<path d="M48.6947 57.178C48.6862 57.0906 48.6806 57.006 48.6749 56.9158C48.6806 57.0032 48.689 57.0906 48.6947 57.178Z" fill="white"/>
<path d="M48.962 59.509C48.951 59.4357 48.94 59.3624 48.9291 59.2891C48.94 59.3652 48.951 59.4357 48.962 59.509Z" fill="white"/>
<path d="M57.7345 31.8606C57.8688 31.7196 58.0058 31.5814 58.1428 31.4404C58.0058 31.5786 57.8688 31.7196 57.7345 31.8606Z" fill="white"/>
<path d="M57.0809 32.5572C57.2015 32.4218 57.3275 32.2893 57.4536 32.1567C57.3275 32.2893 57.2042 32.4246 57.0809 32.5572Z" fill="white"/>
<path d="M49.9696 63.9493C49.9696 63.9493 49.9668 63.9407 49.9639 63.9351C49.9639 63.9379 49.9668 63.9436 49.9696 63.9493Z" fill="white"/>
<path d="M123.221 66.6304C123.194 66.8723 123.164 67.1143 123.131 67.3563C123.161 67.1143 123.194 66.8723 123.221 66.6304Z" fill="white"/>
<path d="M122.169 72.5903C122.115 72.8182 122.063 73.0462 122.005 73.2769C122.063 73.049 122.117 72.8182 122.169 72.5903Z" fill="white"/>
<path d="M122.418 71.4282C122.366 71.6702 122.314 71.9122 122.259 72.157C122.314 71.915 122.366 71.6702 122.418 71.4282Z" fill="white"/>
<path d="M50.0729 44.61C50.114 44.4802 50.1524 44.3533 50.1962 44.2236C50.1551 44.3533 50.114 44.4802 50.0729 44.61Z" fill="white"/>
<path d="M59.1143 30.4721C59.3554 30.2442 59.6021 30.0162 59.8569 29.7883C59.6048 30.0162 59.3582 30.2442 59.1143 30.4721Z" fill="white"/>
<path d="M123.529 62.311C123.526 62.5136 123.52 62.719 123.512 62.9216C123.518 62.7162 123.523 62.5136 123.529 62.311Z" fill="white"/>
<path d="M123.47 63.3845C123.462 63.5899 123.451 63.7953 123.439 64.0035C123.451 63.7981 123.462 63.5899 123.47 63.3845Z" fill="white"/>
<path d="M123.416 64.458C123.402 64.669 123.386 64.8801 123.367 65.0911C123.383 64.8801 123.4 64.669 123.416 64.458Z" fill="white"/>
<path d="M123.342 65.543C123.322 65.7653 123.298 65.9847 123.276 66.207C123.298 65.9847 123.322 65.7624 123.342 65.543Z" fill="white"/>
<path d="M123.512 60.1736C123.518 60.379 123.526 60.5844 123.529 60.7898C123.526 60.5844 123.52 60.379 123.512 60.1736Z" fill="white"/>
<path d="M51.1077 41.7923C51.1625 41.6654 51.2146 41.5385 51.2721 41.4116C51.2173 41.5385 51.1625 41.6654 51.1077 41.7923Z" fill="white"/>
<path d="M123.439 59.1001C123.45 59.3111 123.464 59.525 123.472 59.7388C123.464 59.525 123.45 59.3139 123.439 59.1001Z" fill="white"/>
<path d="M49.147 48.2997C49.1799 48.1253 49.2155 47.948 49.2511 47.7708C49.2155 47.948 49.1799 48.1225 49.147 48.2997Z" fill="white"/>
<path d="M118.089 84.4285C117.974 84.6817 117.859 84.9349 117.738 85.1882C117.856 84.9349 117.974 84.6817 118.089 84.4285Z" fill="white"/>
<path d="M49.4738 46.7428C49.5094 46.5905 49.545 46.4411 49.5834 46.2888C49.545 46.4411 49.5094 46.5934 49.4738 46.7428Z" fill="white"/>
<path d="M118.695 83.0518C118.555 83.3781 118.41 83.7045 118.265 84.0337C118.413 83.7073 118.555 83.381 118.695 83.0518Z" fill="white"/>
<path d="M53.3046 37.5174C53.384 37.3905 53.4635 37.2636 53.5429 37.1367C53.4635 37.2636 53.3813 37.3905 53.3046 37.5174Z" fill="white"/>
<path d="M121.577 74.875C121.516 75.0945 121.453 75.3168 121.388 75.5362C121.453 75.3168 121.514 75.0945 121.577 74.875Z" fill="white"/>
<path d="M49.855 45.3069C49.8933 45.1772 49.929 45.0446 49.9701 44.9121C49.929 45.0446 49.8933 45.1744 49.855 45.3069Z" fill="white"/>
<path d="M121.285 76.0137C121.219 76.236 121.15 76.4554 121.079 76.6777C121.148 76.4554 121.216 76.2331 121.285 76.0137Z" fill="white"/>
<path d="M49.6371 46.0139C49.6728 45.8785 49.7084 45.7403 49.7468 45.605C49.7084 45.7432 49.6728 45.8785 49.6371 46.0139Z" fill="white"/>
<path d="M120.542 78.2913C120.463 78.522 120.381 78.7527 120.298 78.9862C120.381 78.7555 120.463 78.522 120.542 78.2913Z" fill="white"/>
<path d="M120.883 77.1501C120.812 77.3752 120.735 77.6003 120.661 77.8226C120.735 77.5975 120.812 77.3724 120.883 77.1501Z" fill="white"/>
</svg>
