<svg width="794" height="128" viewBox="0 0 794 128" fill="none" xmlns="http://www.w3.org/2000/svg">
<path d="M222.194 103.932C216.845 103.932 212.086 102.887 207.928 100.792C203.841 98.6251 200.644 95.5928 198.344 91.7052C196.115 87.7407 195 83.218 195 78.1318V49.0795C195 43.9933 196.115 39.5474 198.344 35.7315C200.65 31.8438 203.841 28.8525 207.928 26.7576C212.091 24.591 216.845 23.5051 222.194 23.5051C227.544 23.5051 232.262 24.55 236.349 26.6449C240.436 28.663 243.591 31.5416 245.821 35.2807C248.126 39.0198 249.277 43.3582 249.277 48.2907V48.4034C249.277 48.7773 249.165 49.0744 248.941 49.2998C248.717 49.5251 248.457 49.6378 248.162 49.6378L239.693 50.0886C238.95 50.0886 238.578 49.7505 238.578 49.0795V48.7415C238.578 43.9575 237.092 40.1057 234.12 37.1861C231.147 34.2666 227.172 32.8119 222.194 32.8119C217.217 32.8119 213.201 34.2717 210.157 37.1861C207.185 40.1006 205.699 43.9523 205.699 48.7415V78.5774C205.699 83.3614 207.185 87.2132 210.157 90.1327C213.206 93.0472 217.217 94.507 222.194 94.507C227.172 94.507 231.147 93.0472 234.12 90.1327C237.092 87.2183 238.578 83.3665 238.578 78.5774V78.352C238.578 77.681 238.95 77.343 239.693 77.343L248.162 77.7937C248.905 77.7937 249.277 78.1676 249.277 78.9155C249.277 83.8531 248.126 88.2273 245.821 92.0381C243.591 95.7772 240.436 98.6917 236.349 100.787C232.262 102.882 227.544 103.926 222.194 103.926V103.932ZM297.257 46.9487C297.257 46.2009 297.629 45.827 298.372 45.827H306.729C307.473 45.827 307.844 46.2009 307.844 46.9487V101.801C307.844 102.549 307.473 102.922 306.729 102.922H298.372C297.629 102.922 297.257 102.549 297.257 101.801V97.6519C297.257 97.5034 297.181 97.4265 297.034 97.4265C296.957 97.3497 296.85 97.3907 296.698 97.5392C293.725 101.652 289.155 103.706 282.986 103.706C279.347 103.706 275.962 102.994 272.842 101.575C269.793 100.157 267.345 98.0617 265.487 95.2958C263.63 92.5299 262.698 89.1647 262.698 85.2002V46.9487C262.698 46.2009 263.07 45.827 263.813 45.827H272.17C272.913 45.827 273.285 46.2009 273.285 46.9487V81.835C273.285 85.7227 274.288 88.7908 276.293 91.0342C278.375 93.2777 281.271 94.3994 284.986 94.3994C288.702 94.3994 291.674 93.2777 293.903 91.0342C296.133 88.7139 297.247 85.6509 297.247 81.835V46.9487H297.257ZM343.411 103.593C338.952 103.593 335.013 102.922 331.598 101.575C328.254 100.228 325.653 98.3946 323.795 96.0794C321.937 93.6874 321.011 91.0701 321.011 88.2273V86.9929C321.011 86.2451 321.383 85.8712 322.126 85.8712H330.152C330.895 85.8712 331.267 86.2451 331.267 86.9929V87.5563C331.267 89.6513 332.382 91.4798 334.611 93.0523C336.917 94.6248 339.813 95.4085 343.304 95.4085C346.796 95.4085 349.361 94.6965 351.443 93.2777C353.524 91.782 354.563 89.9125 354.563 87.669C354.563 85.4256 353.596 83.8941 351.667 82.8441C349.732 81.7223 346.612 80.5647 342.301 79.3662C338.067 78.1676 334.499 76.9742 331.603 75.7756C328.778 74.5054 326.366 72.7485 324.36 70.505C322.426 68.1848 321.464 65.2345 321.464 61.6439C321.464 56.6345 323.398 52.6701 327.261 49.7556C331.201 46.7644 336.402 45.2687 342.866 45.2687C347.177 45.2687 350.964 45.9807 354.237 47.3995C357.581 48.7466 360.146 50.652 361.927 53.1208C363.709 55.5896 364.605 58.3555 364.605 61.4237V61.7617C364.605 62.5095 364.233 62.8834 363.49 62.8834H355.687C354.944 62.8834 354.573 62.5095 354.573 61.7617V61.4237C354.573 59.257 353.494 57.4592 351.341 56.0404C349.259 54.5447 346.399 53.7969 342.76 53.7969C339.492 53.7969 336.815 54.4321 334.733 55.7023C332.728 56.9726 331.725 58.6936 331.725 60.8602C331.725 63.0269 332.692 64.6762 334.621 65.7979C336.626 66.9196 339.823 68.1182 344.205 69.3884C348.516 70.587 352.084 71.7804 354.904 72.979C357.8 74.1007 360.253 75.8217 362.258 78.1369C364.264 80.3804 365.266 83.3358 365.266 86.998C365.266 92.0842 363.261 96.1204 359.245 99.1117C355.306 102.103 350.033 103.599 343.416 103.599L343.411 103.593ZM405.643 53.5664C405.643 54.3143 405.271 54.6882 404.528 54.6882H392.491C392.196 54.6882 392.043 54.8367 392.043 55.1389V84.8673C392.043 88.0071 392.751 90.2864 394.161 91.7103C395.57 93.0574 397.764 93.7284 400.736 93.7284H403.968C404.712 93.7284 405.083 94.1023 405.083 94.8501V101.806C405.083 102.554 404.712 102.928 403.968 102.928C401.592 103.076 399.881 103.153 398.843 103.153C393.194 103.153 388.923 102.144 386.027 100.126C383.202 98.0309 381.793 94.2201 381.793 88.6832V55.144C381.793 54.8469 381.645 54.6933 381.345 54.6933H374.545C373.802 54.6933 373.43 54.3194 373.43 53.5716V46.9539C373.43 46.206 373.802 45.8321 374.545 45.8321H381.345C381.64 45.8321 381.793 45.6836 381.793 45.3814V32.146C381.793 31.3982 382.164 31.0243 382.907 31.0243H390.934C391.677 31.0243 392.048 31.3982 392.048 32.146V45.3814C392.048 45.6785 392.196 45.8321 392.496 45.8321H404.533C405.276 45.8321 405.648 46.206 405.648 46.9539V53.5716L405.643 53.5664ZM440.691 103.819C435.194 103.819 430.399 102.436 426.312 99.67C422.225 96.8273 419.365 92.9038 417.731 87.8944C416.392 83.8582 415.726 79.2945 415.726 74.2083C415.726 69.1221 416.357 64.4098 417.619 60.7475C419.253 55.8099 422.113 51.9632 426.2 49.1922C430.287 46.3495 435.153 44.9307 440.803 44.9307C446.152 44.9307 450.799 46.3495 454.738 49.1922C458.749 51.9581 461.615 55.774 463.32 60.6349C464.658 64.4508 465.325 68.9377 465.325 74.0956C465.325 79.2535 464.658 83.9299 463.32 87.8944C461.686 92.9038 458.861 96.8324 454.85 99.67C450.84 102.436 446.116 103.819 440.696 103.819H440.691ZM440.691 94.507C443.663 94.507 446.264 93.6823 448.493 92.0381C450.723 90.3171 452.321 87.9251 453.288 84.857C454.107 82.0143 454.514 78.5006 454.514 74.3107C454.514 70.1209 454.143 66.6481 453.4 63.8771C452.433 60.809 450.835 58.458 448.605 56.8087C446.376 55.0877 443.663 54.2272 440.467 54.2272C437.27 54.2272 434.782 55.0877 432.552 56.8087C430.323 58.4529 428.725 60.809 427.758 63.8771C426.938 66.4945 426.531 69.9724 426.531 74.3107C426.531 78.6491 426.938 82.1628 427.758 84.857C428.648 87.9251 430.211 90.3171 432.44 92.0381C434.746 93.6823 437.494 94.507 440.691 94.507ZM538.301 45.0382C543.946 45.0382 548.404 46.7592 551.677 50.1961C554.945 53.5613 556.578 58.2736 556.578 64.3279V101.796C556.578 102.543 556.207 102.917 555.464 102.917H547.106C546.363 102.917 545.992 102.543 545.992 101.796V66.5713C545.992 62.8322 544.954 59.8768 542.872 57.7102C540.867 55.4667 538.154 54.345 534.733 54.345C531.313 54.345 528.529 55.4309 526.376 57.5975C524.218 59.7641 523.139 62.6837 523.139 66.3459V101.791C523.139 102.538 522.767 102.912 522.024 102.912H513.667C512.924 102.912 512.552 102.538 512.552 101.791V66.5662C512.552 62.8271 511.514 59.8717 509.432 57.705C507.427 55.4616 504.714 54.3399 501.294 54.3399C497.874 54.3399 495.125 55.4257 493.044 57.5924C491.038 59.759 490.036 62.6786 490.036 66.3408V101.785C490.036 102.533 489.664 102.907 488.921 102.907H480.452C479.708 102.907 479.337 102.533 479.337 101.785V46.9334C479.337 46.1856 479.708 45.8117 480.452 45.8117H488.921C489.664 45.8117 490.036 46.1856 490.036 46.9334V50.7493C490.036 50.8978 490.071 51.0105 490.147 51.0874C490.295 51.1642 490.443 51.1232 490.595 50.9747C493.863 47.0102 498.617 45.028 504.862 45.028C508.649 45.028 511.886 45.7758 514.558 47.2714C517.235 48.6902 519.317 50.821 520.803 53.6637C521.022 53.9608 521.246 53.9608 521.47 53.6637C523.251 50.7493 525.592 48.5776 528.493 47.1587C531.466 45.7399 534.733 45.028 538.301 45.028V45.0382ZM616.693 67.2474C616.993 70.3155 617.105 73.7524 617.029 77.5684C617.029 78.3162 616.657 78.6901 615.914 78.6901H580.358C580.062 78.6901 579.91 78.8386 579.91 79.1408C579.91 81.6814 580.134 83.6277 580.582 84.9748C581.396 87.9661 583.035 90.3223 585.483 92.0433C588.013 93.6874 591.168 94.5121 594.96 94.5121C600.457 94.5121 604.692 92.2328 607.664 87.669C608.035 86.9212 608.519 86.8085 609.114 87.331L615.466 91.5925C615.991 92.0433 616.103 92.5247 615.802 93.0523C613.721 96.4175 610.748 99.0707 606.885 101.017C603.098 102.963 598.787 103.932 593.957 103.932C588.532 103.932 583.961 102.733 580.246 100.341C576.53 97.949 573.746 94.5428 571.888 90.1327C570.102 85.7227 569.211 80.3752 569.211 74.0905C569.211 68.6304 569.618 64.4815 570.438 61.6388C571.776 56.4809 574.448 52.4037 578.464 49.4125C582.475 46.4212 587.341 44.9255 593.067 44.9255C600.569 44.9255 606.178 46.8309 609.893 50.6469C613.609 54.386 615.879 59.9178 616.693 67.2474ZM593.067 54.2374C589.87 54.2374 587.229 55.0621 585.152 56.7062C583.07 58.2787 581.655 60.4095 580.912 63.0986C580.393 64.7427 580.062 66.8377 579.91 69.3782C579.91 69.6753 580.062 69.8289 580.358 69.8289H605.883C606.178 69.8289 606.33 69.6804 606.33 69.3782C606.178 66.9094 605.959 65.0757 605.659 63.8822C604.915 60.9678 603.429 58.6475 601.2 56.9265C599.047 55.1338 596.334 54.2323 593.067 54.2323V54.2374ZM655.39 45.2636C657.767 45.2636 659.92 45.7502 661.854 46.7234C662.373 46.9487 662.557 47.3944 662.409 48.0705L660.628 56.4809C660.551 57.1519 660.108 57.3772 659.289 57.1519C658.027 56.6294 656.54 56.3682 654.83 56.3682L653.268 56.4809C649.776 56.6294 646.88 57.8638 644.575 60.1841C642.345 62.4276 641.231 65.383 641.231 69.0453V101.801C641.231 102.549 640.859 102.922 640.116 102.922H631.647C630.904 102.922 630.532 102.549 630.532 101.801V46.9487C630.532 46.2009 630.904 45.827 631.647 45.827H640.116C640.859 45.827 641.231 46.2009 641.231 46.9487V52.8954C641.231 53.1208 641.271 53.2694 641.343 53.3462C641.49 53.3462 641.602 53.2694 641.679 53.1208C645.022 47.8861 649.593 45.2687 655.39 45.2687V45.2636ZM698.648 103.819C693.517 103.819 688.987 102.774 685.048 100.679C681.185 98.5124 678.177 95.5211 676.019 91.7052C673.937 87.8176 672.899 83.3665 672.899 78.3571V48.9668C672.899 43.9575 673.937 39.5423 676.019 35.7315C678.177 31.8438 681.185 28.8525 685.048 26.7576C688.987 24.591 693.517 23.5051 698.648 23.5051C703.778 23.5051 708.308 24.591 712.247 26.7576C716.182 28.8525 719.23 31.8438 721.383 35.7315C723.541 39.5474 724.621 43.9575 724.621 48.9668V78.3571C724.621 83.3665 723.541 87.8176 721.383 91.7052C719.23 95.5211 716.182 98.5124 712.247 100.679C708.308 102.774 703.773 103.819 698.648 103.819ZM698.648 98.6609C704.664 98.6609 709.494 96.8273 713.138 93.165C716.854 89.5027 718.711 84.6419 718.711 78.5825V48.8593C718.711 42.8767 716.854 38.0517 713.138 34.3895C709.494 30.6504 704.664 28.7808 698.648 28.7808C692.632 28.7808 687.908 30.6504 684.269 34.3895C680.625 38.0517 678.808 42.8767 678.808 48.8593V78.5825C678.808 84.6419 680.625 89.5027 684.269 93.165C687.908 96.8273 692.703 98.6609 698.648 98.6609ZM766.315 103.819C758.141 103.819 751.672 101.985 746.918 98.3229C742.165 94.5838 739.783 89.6103 739.783 83.4024V79.6991C739.783 78.9513 740.154 78.5774 740.897 78.5774H744.353C745.096 78.5774 745.468 78.9513 745.468 79.6991V83.0643C745.468 87.6998 747.366 91.4389 751.153 94.2816C754.945 97.1243 760.147 98.5431 766.758 98.5431C772.927 98.5431 777.645 97.2729 780.918 94.7272C784.185 92.1099 785.819 88.5193 785.819 83.9607C785.819 81.1948 785.076 78.8028 783.59 76.7796C782.18 74.6846 779.951 72.7434 776.902 70.9455C773.93 69.1528 769.695 67.0938 764.198 64.7786C758.401 62.3098 754.014 60.2558 751.041 58.6065C748.145 56.9623 745.804 54.9033 744.022 52.4396C742.236 49.899 741.345 46.6465 741.345 42.6821C741.345 36.551 743.427 31.8387 747.585 28.5503C751.825 25.1852 757.658 23.5051 765.089 23.5051C773.187 23.5051 779.539 25.3747 784.15 29.1138C788.756 32.8529 791.057 37.8622 791.057 44.147V46.7285C791.057 47.4763 790.685 47.8502 789.942 47.8502H786.267C785.524 47.8502 785.152 47.4763 785.152 46.7285V44.485C785.152 39.7728 783.366 35.9978 779.803 33.1551C776.235 30.2406 771.217 28.7808 764.753 28.7808C759.103 28.7808 754.757 29.9794 751.713 32.3714C748.664 34.6917 747.143 38.0569 747.143 42.467C747.143 45.4582 747.85 47.8861 749.26 49.7608C750.67 51.6303 752.68 53.2745 755.281 54.6984C757.953 56.0455 762.04 57.8382 767.542 60.0817C773.039 62.3251 777.462 64.4918 780.806 66.5867C784.221 68.6048 786.898 70.9968 788.827 73.7678C790.761 76.5337 791.728 79.863 791.728 83.7507C791.728 89.81 789.499 94.6709 785.041 98.3331C780.582 101.995 774.337 103.829 766.315 103.829V103.819Z" fill="white"/>
<path d="M94.6606 105.842C94.7593 105.693 94.8552 105.541 94.9538 105.389C95.0908 105.178 95.2278 104.97 95.3621 104.756C95.4552 104.604 95.5484 104.449 95.6416 104.297C95.7758 104.078 95.9101 103.861 96.0416 103.639C96.1348 103.481 96.2225 103.318 96.3156 103.158C96.4417 102.936 96.5705 102.716 96.6938 102.491C96.7869 102.319 96.8773 102.145 96.9705 101.973C97.0883 101.754 97.2062 101.537 97.3212 101.312C97.4171 101.126 97.5076 100.935 97.6035 100.749C97.7103 100.535 97.8172 100.324 97.9213 100.108C98.02 99.9052 98.1131 99.6998 98.2063 99.4944C98.3022 99.289 98.4008 99.0836 98.494 98.8726C98.5926 98.6531 98.6858 98.4308 98.7817 98.2114C98.8694 98.0088 98.9598 97.8062 99.0447 97.6008L99.0694 97.5417C99.2173 97.1872 99.3571 96.8355 99.4914 96.4837C99.5325 96.3768 99.5681 96.2699 99.6092 96.163C99.6996 95.9182 99.79 95.6734 99.875 95.4314C99.9298 95.2767 99.9763 95.1219 100.028 94.9672C100.094 94.7702 100.16 94.5761 100.223 94.3791C100.27 94.2272 100.313 94.0752 100.36 93.9205C100.418 93.7235 100.481 93.5265 100.535 93.3296C100.576 93.1833 100.612 93.037 100.65 92.8878C100.705 92.6881 100.76 92.4855 100.809 92.2857C100.845 92.1422 100.875 91.9959 100.911 91.8524C100.957 91.6498 101.007 91.45 101.05 91.2474C101.083 91.0927 101.113 90.9407 101.144 90.786C101.182 90.5947 101.223 90.4033 101.259 90.212C101.286 90.0601 101.311 89.9109 101.335 89.759C101.368 89.5677 101.404 89.3735 101.434 89.1822C101.459 89.0331 101.475 88.8839 101.497 88.7348C101.524 88.5435 101.555 88.3521 101.579 88.1608C101.598 88.0061 101.615 87.8513 101.631 87.6965C101.653 87.5137 101.675 87.3308 101.694 87.1479C101.711 86.9875 101.722 86.8271 101.735 86.6667C101.749 86.4895 101.768 86.315 101.779 86.1378C101.79 85.9774 101.798 85.8198 101.807 85.6594C101.818 85.485 101.829 85.3105 101.837 85.1361C101.845 84.9757 101.848 84.8153 101.851 84.6549C101.856 84.4833 101.864 84.3117 101.867 84.1428C101.867 83.9853 101.867 83.8277 101.867 83.6673C101.867 83.4957 101.87 83.3269 101.867 83.1552C101.867 82.9948 101.862 82.8373 101.856 82.6797C101.853 82.5137 101.851 82.3449 101.845 82.1789C101.84 82.0185 101.831 81.8609 101.823 81.7005C101.815 81.5373 101.809 81.3713 101.801 81.211C101.793 81.0506 101.779 80.8902 101.768 80.7298C101.757 80.5694 101.746 80.4091 101.733 80.2515C101.719 80.0911 101.703 79.9335 101.686 79.7732C101.67 79.6156 101.659 79.458 101.64 79.3005C101.623 79.1457 101.604 78.9938 101.585 78.839C101.566 78.6786 101.549 78.5182 101.527 78.3607C101.508 78.2059 101.483 78.0512 101.461 77.8992C101.44 77.7445 101.418 77.5869 101.396 77.435C101.371 77.2774 101.344 77.1255 101.319 76.9679C101.294 76.816 101.27 76.664 101.245 76.5149C101.218 76.3601 101.187 76.2054 101.157 76.0506C101.13 75.9043 101.103 75.7552 101.075 75.6089C101.045 75.4513 101.009 75.2966 100.976 75.139C100.946 74.9983 100.919 74.8548 100.886 74.7141C100.853 74.5594 100.815 74.4046 100.779 74.2527C100.746 74.112 100.716 73.9713 100.681 73.8334C100.645 73.6843 100.607 73.5352 100.568 73.386C100.533 73.2454 100.497 73.1047 100.461 72.964C100.423 72.8149 100.382 72.6657 100.341 72.5194C100.302 72.3816 100.267 72.2437 100.228 72.1086C100.185 71.9567 100.141 71.8104 100.097 71.6584C100.059 71.5262 100.02 71.3939 99.9818 71.2645C99.938 71.1154 99.8914 70.9691 99.8448 70.8228C99.8037 70.6933 99.7654 70.5639 99.7243 70.4345C99.6777 70.2882 99.6284 70.1447 99.579 69.9983C99.5379 69.8717 99.4968 69.7451 99.453 69.6185C99.4037 69.4722 99.3516 69.3315 99.3023 69.188C99.2585 69.0642 99.2174 68.9404 99.1735 68.8194C99.1214 68.6787 99.0694 68.538 99.0173 68.3973C98.9735 68.2764 98.9269 68.1526 98.8831 68.0344C98.831 67.8937 98.7762 67.7558 98.7214 67.618C98.6748 67.4998 98.631 67.3816 98.5844 67.2634C98.5296 67.1256 98.4748 66.9905 98.42 66.8554C98.3734 66.7401 98.3268 66.6247 98.2803 66.5094C98.2255 66.3743 98.1679 66.2421 98.1104 66.107C98.0638 65.9944 98.0145 65.8819 97.9679 65.7693C97.9103 65.6371 97.8528 65.5049 97.7925 65.3726C97.7432 65.2629 97.6966 65.156 97.65 65.0462C97.5925 64.9168 97.5322 64.7874 97.4719 64.6579C97.4226 64.551 97.376 64.4441 97.3267 64.34C97.2664 64.2134 97.2089 64.0896 97.1486 63.9658C97.0993 63.8617 97.05 63.7576 97.0006 63.6534C96.9404 63.5296 96.8801 63.4087 96.8198 63.2848C96.7705 63.1864 96.7212 63.0851 96.6718 62.9838C96.6088 62.86 96.5485 62.739 96.4855 62.6152C96.4389 62.5223 96.3896 62.4267 96.343 62.3338C96.28 62.21 96.217 62.0918 96.154 61.9708C96.1074 61.8808 96.0608 61.7908 96.0115 61.7007C95.9485 61.5826 95.8854 61.4672 95.8224 61.3518C95.7758 61.2646 95.7265 61.1746 95.6799 61.0873C95.6169 60.972 95.5539 60.8594 95.4909 60.7469C95.4443 60.6625 95.3977 60.5781 95.3511 60.4965C95.2881 60.3839 95.2251 60.2742 95.1621 60.1645C95.1155 60.0857 95.0716 60.0041 95.0251 59.9225C94.962 59.8127 94.899 59.7086 94.836 59.6017C94.7922 59.5257 94.7456 59.447 94.7017 59.371C94.6387 59.2669 94.5784 59.1628 94.5154 59.0615C94.4716 58.9883 94.425 58.9124 94.3811 58.8392C94.3181 58.7351 94.2578 58.6366 94.1948 58.5353C94.1537 58.4678 94.1099 58.3974 94.0688 58.3271C94.0085 58.2286 93.9482 58.1358 93.8879 58.0401C93.8441 57.9726 93.803 57.9022 93.7592 57.8375C93.6989 57.7447 93.6413 57.6518 93.581 57.5618C93.5399 57.4999 93.4989 57.4352 93.4605 57.3733C93.4002 57.2804 93.3399 57.1904 93.2796 57.1003C93.2413 57.0441 93.2057 56.985 93.1673 56.9315C93.107 56.8415 93.0495 56.7542 92.9919 56.667C92.9563 56.6136 92.9207 56.5601 92.8851 56.5094C92.8275 56.4222 92.77 56.3406 92.7125 56.2562C92.6796 56.2084 92.6467 56.1577 92.6138 56.1127C92.5563 56.0311 92.5042 55.9523 92.4494 55.8736C92.4165 55.8285 92.3864 55.7807 92.3535 55.7357C92.2987 55.6569 92.2439 55.5809 92.1918 55.5078C92.1644 55.4684 92.1343 55.4262 92.1069 55.3868C92.0521 55.3108 92 55.2377 91.948 55.1645C91.9233 55.1307 91.8987 55.0942 91.874 55.0604C91.8219 54.9872 91.7699 54.9197 91.7206 54.8494C91.6986 54.8184 91.6767 54.7875 91.6548 54.7593C91.6027 54.6918 91.5562 54.6271 91.5068 54.5624C91.4876 54.537 91.4685 54.5089 91.4493 54.4836C91.4027 54.4217 91.3561 54.3626 91.3123 54.3035C91.2958 54.281 91.2767 54.2557 91.2575 54.2332C91.2136 54.1769 91.1725 54.1234 91.1314 54.07C91.115 54.0503 91.1013 54.0278 91.0849 54.0109C91.041 53.9546 90.9999 53.904 90.9616 53.8533C90.9533 53.8421 90.9424 53.828 90.9314 53.8167C90.8931 53.7661 90.8574 53.7211 90.8218 53.6789C90.8136 53.6676 90.8054 53.6564 90.7972 53.6451C90.7615 53.6001 90.7286 53.5579 90.6958 53.5213C90.6903 53.5157 90.6875 53.51 90.6821 53.5044C90.6492 53.465 90.6218 53.4284 90.5944 53.3975C90.5944 53.3975 90.5889 53.3919 90.5889 53.3891C90.5341 53.3215 90.493 53.2737 90.4683 53.2427L90.3998 53.178L90.367 53.1049C90.1806 52.7869 85.7801 45.2321 84.6896 36.2677C83.936 30.0803 83.0346 27.1907 82.5962 26.0708C82.5085 26.0877 82.418 26.1018 82.3304 26.1186C82.166 26.1496 82.0016 26.1833 81.8372 26.2199C81.6481 26.2621 81.459 26.3043 81.27 26.3522C81.1028 26.3944 80.9384 26.4366 80.7713 26.4816C80.5822 26.5322 80.3931 26.5885 80.2041 26.6448C80.0369 26.6954 79.8671 26.7461 79.6999 26.8024C79.5109 26.8643 79.3218 26.929 79.13 26.9965C78.9601 27.0556 78.7902 27.1175 78.6203 27.1822C78.4313 27.2554 78.2395 27.3313 78.0504 27.4073C77.8805 27.4777 77.7106 27.5452 77.5407 27.6183C77.3489 27.6999 77.1571 27.7872 76.9653 27.8744C76.7954 27.9532 76.6256 28.0291 76.4529 28.1135C76.2611 28.2064 76.0666 28.3049 75.8748 28.4034C75.7049 28.4906 75.5323 28.5778 75.3624 28.6678C75.1679 28.772 74.9733 28.8789 74.7815 28.9886C74.6116 29.0843 74.439 29.1799 74.2691 29.2784C74.0746 29.3938 73.8773 29.512 73.6827 29.6329C73.5129 29.7371 73.343 29.8412 73.1703 29.9481C72.9731 30.0747 72.773 30.2069 72.5758 30.3364C72.4059 30.4489 72.236 30.5587 72.0688 30.674C71.8661 30.8119 71.6661 30.9582 71.4633 31.1017C71.2962 31.2199 71.129 31.3352 70.9619 31.459C70.7564 31.611 70.5481 31.7686 70.3426 31.9261C70.1782 32.0499 70.0165 32.1737 69.8521 32.3003C69.6384 32.4663 69.4274 32.6436 69.2137 32.8152C69.0548 32.9447 68.8986 33.0685 68.7397 33.2007C68.515 33.3892 68.2903 33.5834 68.0656 33.7775C67.9177 33.9042 67.7724 34.028 67.6245 34.1574C67.3724 34.3797 67.123 34.6104 66.871 34.8411C66.7504 34.9537 66.6271 35.0578 66.5065 35.1731C66.1339 35.522 65.7585 35.8794 65.3831 36.2452C65.2762 36.3493 65.1749 36.4506 65.0707 36.5547C65.0707 36.5547 65.068 36.5575 65.0653 36.5603C64.9694 36.6531 64.8762 36.7516 64.7803 36.8473C68.4136 39.3121 82.914 49.4864 89.66 59.3794C97.3651 70.6821 97.5377 79.2217 96.3266 84.3961C94.7812 90.9942 90.0519 96.495 82.2701 100.741C76.8146 103.718 71.7154 104.84 67.1313 104.84C57.1657 104.84 49.6168 99.5366 46.0602 96.4415L45.7752 96.526C45.7561 96.5316 45.7369 96.5372 45.7204 96.5428C45.7122 96.5428 45.7067 96.5485 45.6985 96.5485C45.3478 96.6666 44.9834 96.7764 44.6135 96.8748L44.26 96.9761C44.0353 97.0268 43.8134 97.0774 43.5887 97.1253C43.4873 97.1478 43.3859 97.1675 43.2845 97.19C43.1612 97.2153 43.0407 97.2406 42.9174 97.2659C42.7886 97.2913 42.6571 97.3166 42.5283 97.3419C42.4351 97.3588 42.3419 97.3785 42.2488 97.3954C42.1008 97.4235 41.9529 97.4488 41.8049 97.477C41.7309 97.491 41.6569 97.5051 41.5829 97.5164C41.4213 97.5445 41.2596 97.5726 41.1007 97.598C41.0404 97.6092 40.9801 97.6177 40.9199 97.6289C40.75 97.6571 40.5801 97.6824 40.4129 97.7077C40.3636 97.7161 40.3116 97.7246 40.2622 97.7302C40.0869 97.7555 39.9115 97.7809 39.7389 97.8062C39.695 97.8118 39.6512 97.8174 39.6101 97.8231C39.432 97.8484 39.2539 97.8709 39.0758 97.8934C39.0374 97.899 38.9991 97.9019 38.9607 97.9075C38.7826 97.93 38.6045 97.9497 38.4264 97.9722C38.3908 97.975 38.3552 97.9806 38.3195 97.9834C38.1442 98.0031 37.9688 98.0228 37.7934 98.0397C37.7578 98.0425 37.7195 98.0482 37.6838 98.051C37.5112 98.0679 37.3413 98.0847 37.1715 98.0988C37.1331 98.1016 37.0947 98.1044 37.0564 98.1073C36.892 98.1213 36.7276 98.1326 36.5659 98.1466C36.5221 98.1494 36.4782 98.1523 36.4371 98.1551C36.2809 98.1663 36.1275 98.1748 35.9768 98.1832C35.9247 98.186 35.8754 98.1889 35.8261 98.1917C35.6836 98.2001 35.5411 98.2057 35.4014 98.2114C35.3411 98.2114 35.2808 98.2142 35.2205 98.217C35.0945 98.2226 34.9657 98.2254 34.8424 98.2282C34.7684 98.2282 34.6972 98.2282 34.6259 98.2311C34.5163 98.2311 34.4067 98.2339 34.2999 98.2339C34.2834 98.2339 34.2697 98.2339 34.2533 98.2339C34.1053 98.2339 33.9574 98.2339 33.8149 98.2311H33.7875C33.4505 98.2114 33.1107 98.186 32.7709 98.1579C32.6586 98.1495 32.5462 98.1354 32.4339 98.1241C32.2065 98.1016 31.9818 98.0819 31.7544 98.0538C31.6201 98.0369 31.4858 98.02 31.3516 98.0031C31.1461 97.9778 30.9433 97.9497 30.7378 97.9215C30.5953 97.9019 30.4528 97.8765 30.3103 97.854C30.1131 97.8231 29.9158 97.7893 29.7158 97.7555C29.5705 97.7302 29.4253 97.7021 29.2801 97.6768C29.0828 97.6402 28.8883 97.6008 28.691 97.5614C28.5457 97.5304 28.4005 97.5023 28.258 97.4685C28.0608 97.4263 27.8607 97.3785 27.6635 97.3335C27.521 97.2997 27.3785 97.266 27.2387 97.2322C27.0332 97.1815 26.8277 97.1281 26.6222 97.0718C26.488 97.0352 26.3537 97.0015 26.2194 96.9621C25.9975 96.9002 25.7728 96.8326 25.5509 96.7679C25.4358 96.7342 25.318 96.7004 25.2029 96.6638C24.9015 96.571 24.6001 96.4725 24.2987 96.3712C24.2603 96.3599 24.2247 96.3487 24.1863 96.3346C23.8465 96.2193 23.5068 96.0983 23.167 95.9745C23.0684 95.9379 22.9697 95.8985 22.8711 95.8619C22.63 95.7719 22.3916 95.679 22.1505 95.5834C22.0244 95.5327 21.8984 95.4792 21.7723 95.4286C21.5586 95.3414 21.3476 95.2542 21.1339 95.1613C20.9996 95.1022 20.8654 95.0431 20.7284 94.984C20.5256 94.894 20.3201 94.804 20.1173 94.7083C19.9776 94.6436 19.8406 94.5789 19.7008 94.5141C19.5008 94.4185 19.3008 94.3228 19.1008 94.2243C18.961 94.1568 18.824 94.0865 18.6843 94.0161C18.5993 93.9739 18.5144 93.9345 18.4322 93.8895C19.6159 96.3712 21.9175 100.735 25.3481 105.285C30.135 111.633 38.1688 119.652 49.2524 121.813C57.1821 123.36 64.6351 123.363 71.4058 121.83H71.4085C78.4696 120.226 84.5032 116.993 89.4189 112.193C89.8299 111.793 90.23 111.382 90.6245 110.96C91.8082 109.694 92.9207 108.332 93.9592 106.872C94.0852 106.697 94.2058 106.515 94.3291 106.337C94.4469 106.166 94.5647 106 94.6826 105.825L94.6606 105.842Z" fill="white"/>
<path d="M98.4952 98.8779C98.402 99.0861 98.3034 99.2915 98.2075 99.4998C98.3034 99.2944 98.402 99.089 98.4952 98.8779Z" fill="white"/>
<path d="M94.6575 105.841C94.5424 106.016 94.4218 106.182 94.304 106.353C94.4218 106.182 94.5397 106.016 94.6575 105.841Z" fill="white"/>
<path d="M97.3236 101.316C97.2085 101.539 97.0907 101.758 96.9729 101.978C97.0907 101.758 97.2085 101.542 97.3236 101.316Z" fill="white"/>
<path d="M98.7703 98.2165C98.8498 98.0336 98.9292 97.8564 99.006 97.6707L99.0334 97.606C98.9484 97.8114 98.858 98.0111 98.7703 98.2165Z" fill="white"/>
<path d="M45.327 95.0112C51.4236 92.946 59.8164 86.8712 62.277 84.9044C69.3245 79.2742 78.0433 65.1522 78.4269 62.9265C78.4735 62.6621 78.5037 62.4088 78.5228 62.1697C78.4763 62.2203 78.4297 62.271 78.3831 62.3216C78.2159 62.5073 78.0488 62.6902 77.8817 62.8731C77.6488 63.1263 77.4186 63.3824 77.1857 63.6328C77.0131 63.8185 76.8404 64.0014 76.6678 64.1843C76.4404 64.4263 76.213 64.6682 75.9855 64.9074C75.8102 65.0903 75.6348 65.2704 75.4594 65.4533C75.2348 65.684 75.0101 65.9147 74.7854 66.1426C74.6073 66.3227 74.4292 66.5 74.2511 66.6772C74.0291 66.8995 73.8072 67.1218 73.5852 67.3384C73.4071 67.5129 73.2263 67.6873 73.0482 67.8618C72.8263 68.0756 72.6043 68.2895 72.3851 68.4977C72.207 68.6665 72.0262 68.8353 71.848 69.0042C71.6261 69.2124 71.4042 69.4178 71.1822 69.6204C71.0041 69.7835 70.8233 69.9467 70.6452 70.1099C70.4232 70.3097 70.2013 70.5067 69.9793 70.7036C69.8012 70.8612 69.6231 71.0188 69.445 71.1763C69.2231 71.3705 69.0011 71.559 68.7792 71.7503C68.6011 71.9023 68.423 72.0542 68.2449 72.2033C68.0229 72.3919 67.7982 72.5747 67.5763 72.7576C67.4009 72.9011 67.2256 73.0474 67.0475 73.1881C66.8228 73.371 66.5981 73.5483 66.3734 73.7255C66.2008 73.8634 66.0254 74.0013 65.8528 74.1335C65.6254 74.3108 65.3952 74.4824 65.1678 74.6569C64.9979 74.7863 64.828 74.9157 64.6581 75.0395C64.4252 75.214 64.1896 75.3828 63.9567 75.5516C63.7923 75.6698 63.6306 75.7908 63.4662 75.9062C63.2196 76.0806 62.9757 76.2494 62.7319 76.4183C62.5812 76.5224 62.4305 76.6293 62.277 76.7334C62.0058 76.9191 61.7318 77.0964 61.4605 77.2736C61.3372 77.3552 61.2139 77.4396 61.0878 77.5184C60.6987 77.7688 60.3124 78.0136 59.9261 78.25C59.8548 78.2978 59.7918 78.3372 59.7233 78.3794C59.6493 78.4272 59.5726 78.4779 59.5013 78.5229C59.4685 78.5454 59.4356 78.5623 59.4027 78.5848C59.3041 78.6467 59.2054 78.7058 59.1123 78.7621C59.0684 78.7874 59.0273 78.8099 58.9862 78.8352C58.9068 78.8803 58.83 78.9253 58.7533 78.9675C58.7067 78.9928 58.6629 79.0181 58.6163 79.0406C58.5725 79.0631 58.5286 79.0885 58.4848 79.111L58.3505 79.2545H58.2163C57.8491 79.4627 57.4792 79.6625 57.112 79.8594C57.0161 79.9101 56.9229 79.9607 56.827 80.0114C56.4873 80.1914 56.1448 80.3659 55.805 80.5375C55.7749 80.5516 55.7475 80.5685 55.7173 80.5825C55.3529 80.7654 54.9885 80.9371 54.6213 81.1087C54.5281 81.1509 54.435 81.1931 54.3446 81.2353C54.0212 81.3845 53.6979 81.528 53.3746 81.6686C53.328 81.6883 53.2814 81.7108 53.2321 81.7305C52.8677 81.8853 52.506 82.0344 52.1443 82.1779C52.0566 82.2145 51.9662 82.2483 51.8785 82.282C51.5661 82.403 51.2538 82.5212 50.9414 82.6337C50.8811 82.6562 50.8181 82.6788 50.7578 82.7013C50.3961 82.8307 50.0372 82.9517 49.6782 83.0699C49.5933 83.098 49.5111 83.1233 49.4261 83.1515C49.1193 83.2499 48.8151 83.3428 48.511 83.4328C48.4397 83.4525 48.3712 83.475 48.3 83.4947C47.941 83.5988 47.5848 83.6945 47.2286 83.7845C47.1492 83.8042 47.0697 83.8239 46.9902 83.8436C46.6888 83.9196 46.3874 83.9899 46.0887 84.0575C46.0093 84.0744 45.9326 84.094 45.8531 84.1109C45.4969 84.1869 45.1407 84.2601 44.7872 84.3248C44.716 84.3388 44.6447 84.3501 44.5735 84.3613C44.2721 84.4148 43.9707 84.4655 43.672 84.5105C43.5898 84.5217 43.5076 84.5358 43.4227 84.5471C43.0692 84.5977 42.7157 84.6427 42.3623 84.6821C42.302 84.6877 42.239 84.6934 42.1787 84.7018C41.8745 84.7328 41.5731 84.7609 41.269 84.7862C41.1813 84.7918 41.0936 84.8003 41.0087 84.8059C40.658 84.8312 40.3072 84.8509 39.9565 84.865C39.9072 84.865 39.8606 84.865 39.8113 84.8678C39.5016 84.8791 39.1893 84.8847 38.8797 84.8847C38.8303 84.8847 38.781 84.8847 38.7317 84.8847C38.6796 84.8847 38.6248 84.8847 38.5728 84.8847C38.4221 84.8847 38.2714 84.8819 38.1207 84.8791C37.9974 84.8791 37.8713 84.8734 37.748 84.8706C37.5973 84.865 37.4439 84.8594 37.2932 84.8537C37.1699 84.8481 37.0466 84.8425 36.926 84.8369C36.7725 84.8284 36.6191 84.8172 36.4657 84.8059C36.3451 84.7975 36.2245 84.789 36.104 84.7778C35.9478 84.7637 35.7943 84.7496 35.6382 84.7328C35.5203 84.7215 35.4025 84.7102 35.2847 84.6962C35.1258 84.6793 34.9668 84.6596 34.8107 84.6399C34.6983 84.6258 34.5832 84.6118 34.4709 84.5977C34.3065 84.5752 34.1393 84.5499 33.9749 84.5245C33.8681 84.5077 33.7612 84.4936 33.6571 84.4767C33.4763 84.4486 33.2981 84.4148 33.12 84.381C33.0296 84.3642 32.9365 84.3501 32.846 84.3332C32.6022 84.2854 32.3556 84.2375 32.1117 84.1841C32.087 84.1785 32.0624 84.1756 32.0377 84.17C25.0752 82.6534 18.8854 78.703 14.3698 73.0953C12.3175 70.5461 10.6105 67.6564 9.33359 64.4966C9.22672 64.2321 9.11986 63.9592 9.013 63.6806C8.99108 63.6244 8.96916 63.5681 8.94724 63.5118C8.84312 63.2389 8.73899 62.9603 8.63761 62.6733C8.61843 62.6227 8.60199 62.572 8.58281 62.5214C8.48691 62.2513 8.39101 61.9727 8.2951 61.6913C8.2814 61.6548 8.27044 61.6182 8.25674 61.5816C8.15536 61.2805 8.05672 60.9738 7.95808 60.6615C7.93616 60.594 7.91698 60.5265 7.89505 60.4589C7.79641 60.1438 7.70051 59.823 7.60735 59.4966C7.59639 59.4601 7.58543 59.4235 7.57721 59.3841C7.48953 59.0774 7.40732 58.7679 7.32238 58.4528C7.30594 58.3909 7.2895 58.3318 7.27306 58.2699C7.18812 57.935 7.10318 57.5974 7.02372 57.2541C7.00728 57.1838 6.99083 57.1106 6.97439 57.0403C6.89219 56.6886 6.81547 56.3312 6.74149 55.9711C6.74149 55.9654 6.74149 55.9598 6.73875 55.957C6.66477 55.594 6.59627 55.2254 6.52776 54.854C6.51406 54.7781 6.50036 54.6993 6.48666 54.6233C6.42364 54.2575 6.36336 53.8889 6.30856 53.5175C6.2976 53.4528 6.28938 53.3853 6.28116 53.3178C6.23184 52.966 6.18526 52.6143 6.14142 52.257C6.13594 52.2063 6.12772 52.1557 6.12224 52.105C6.0784 51.7224 6.04003 51.3341 6.00715 50.943C5.99893 50.8558 5.99345 50.7713 5.98523 50.6841C5.95235 50.2902 5.92495 49.8935 5.90577 49.4939C5.90577 49.4489 5.90303 49.4039 5.90029 49.3589C5.88111 48.9846 5.87015 48.6076 5.86193 48.2278C5.86193 48.1518 5.85919 48.073 5.85645 47.997C5.85097 47.5947 5.85097 47.1895 5.85919 46.7815C5.85919 46.6943 5.86193 46.6099 5.86467 46.5227C5.87563 46.1119 5.88933 45.6982 5.91399 45.2846C5.91399 45.2734 5.91399 45.2621 5.91399 45.248C2.96843 53.2727 -0.662153 69.8848 11.3311 85.6444C13.1286 88.0023 15.211 90.0169 17.5264 91.6376C17.6853 91.7276 17.8442 91.8092 18.0004 91.8964C18.1758 91.9921 18.3539 92.0906 18.5292 92.1834C18.6525 92.2482 18.7758 92.3101 18.8964 92.372C19.1129 92.4845 19.3293 92.5971 19.5458 92.704C19.639 92.7518 19.7349 92.794 19.828 92.839C20.0719 92.9572 20.3185 93.0782 20.5624 93.1936C20.6473 93.233 20.7295 93.2695 20.8144 93.3061C21.0693 93.4243 21.3241 93.5397 21.5817 93.6494C21.6639 93.686 21.7461 93.7169 21.831 93.7535C22.0886 93.8632 22.3434 93.973 22.601 94.0743C22.6969 94.1136 22.79 94.1474 22.8859 94.184C23.1298 94.2797 23.3764 94.3781 23.6203 94.4682C23.7381 94.5104 23.8532 94.5498 23.971 94.592C24.1929 94.6736 24.4176 94.7552 24.6396 94.8283C24.7875 94.879 24.9382 94.924 25.0862 94.9746C25.278 95.0365 25.4671 95.1013 25.6589 95.1603C25.8507 95.2194 26.0397 95.2729 26.2315 95.3292C26.3795 95.3714 26.5302 95.4192 26.6782 95.4586C26.9138 95.5233 27.1522 95.5824 27.3878 95.6443C27.492 95.6696 27.5961 95.7006 27.7002 95.7259C27.966 95.7906 28.2318 95.8497 28.4976 95.9088C28.5743 95.9257 28.6483 95.9454 28.725 95.9594C29.0264 96.0241 29.3305 96.0832 29.632 96.1395C29.6703 96.148 29.7087 96.1564 29.747 96.162C31.1116 96.4096 32.4734 96.5728 33.8325 96.6488C34.0051 96.6488 34.1804 96.6516 34.3586 96.6488C35.9697 96.6404 37.8768 96.4772 39.8661 96.1845C41.1923 95.9904 42.5513 95.7372 43.8857 95.4333L44.6968 95.1913C44.8804 95.135 45.064 95.0816 45.2311 95.0309L45.2448 95.0253C45.2448 95.0253 45.2613 95.0197 45.2667 95.0168C45.2695 95.0168 45.2749 95.0168 45.2777 95.014C45.2941 95.0084 45.3078 95.0028 45.3243 95L45.327 95.0112Z" fill="white"/>
<path d="M59.736 78.3765C59.8045 78.3314 59.8675 78.2919 59.9387 78.2468C59.9387 78.2468 59.9223 78.2553 59.9168 78.2609C59.8538 78.3032 59.7962 78.3399 59.736 78.3765Z" fill="white"/>
<path d="M59.5078 78.5176C59.4749 78.5401 59.442 78.5571 59.4091 78.5796C59.442 78.5599 59.4749 78.5401 59.5078 78.5176Z" fill="white"/>
<path d="M58.766 78.9634C58.7192 78.9888 58.6752 79.0141 58.6285 79.0367C58.6752 79.0113 58.7192 78.9888 58.766 78.9634Z" fill="white"/>
<path d="M20.8085 93.3084C20.7235 93.2689 20.6413 93.235 20.5564 93.1956C20.6413 93.235 20.7235 93.2717 20.8085 93.3084Z" fill="white"/>
<path d="M19.84 92.8434C19.7469 92.7982 19.651 92.7531 19.5578 92.708C19.651 92.7559 19.7469 92.7982 19.84 92.8434Z" fill="white"/>
<path d="M21.8405 93.755C21.7583 93.7183 21.6761 93.6873 21.5912 93.6506C21.6734 93.6873 21.7556 93.7183 21.8405 93.755Z" fill="white"/>
<path d="M25.1061 94.9804C24.9582 94.9324 24.8074 94.8845 24.6595 94.8337C24.8074 94.8845 24.9582 94.9296 25.1061 94.9804Z" fill="white"/>
<path d="M18.9082 92.3713C18.7849 92.3065 18.6616 92.2472 18.541 92.1824C18.6643 92.2472 18.7876 92.3093 18.9082 92.3713Z" fill="white"/>
<path d="M33.8466 96.6506C34.0192 96.6506 34.1946 96.6534 34.3727 96.6506C34.1946 96.6506 34.0192 96.6506 33.8466 96.6506Z" fill="white"/>
<path d="M22.8929 94.19C22.797 94.1534 22.7039 94.1167 22.608 94.0801C22.7039 94.1196 22.797 94.1534 22.8929 94.19Z" fill="white"/>
<path d="M27.3845 95.65C27.1488 95.5908 26.9104 95.5287 26.6748 95.4639C26.9104 95.5287 27.1488 95.5879 27.3845 95.65Z" fill="white"/>
<path d="M45.2297 95.0385C45.2297 95.0385 45.2297 95.0385 45.2324 95.0385C45.2432 95.0357 45.2567 95.0301 45.2675 95.0273C45.2594 95.0273 45.2513 95.0329 45.2459 95.0357L45.2324 95.0412L45.2297 95.0385Z" fill="white"/>
<path d="M58.2243 77.419C58.29 77.3797 58.3585 77.3403 58.4243 77.3009C58.6572 77.163 58.8874 77.0251 59.1121 76.8873C65.0552 73.2463 71.0943 68.041 77.106 61.3866C77.5061 60.942 77.9089 60.4918 78.3089 60.036C78.3144 60.0275 78.3254 60.0135 78.3336 59.9966C78.3391 59.9853 78.3473 59.9741 78.3528 59.9628C78.3391 59.96 78.3226 59.9544 78.3062 59.9488C77.4102 59.7096 76.4238 60.0416 75.799 60.7957C72.7164 64.5154 61.4247 76.7353 45.6529 77.7623C36.3942 78.3645 28.4809 74.8361 23.9407 68.0804C19.6168 61.6454 19.1456 53.4041 22.6501 45.4723C29.0837 30.9085 42.3867 25.6272 45.683 24.5186C45.7077 24.4792 45.7323 24.4398 45.757 24.3976C46.0063 23.9756 46.2639 23.5591 46.527 23.1483C46.5544 23.1033 46.5845 23.0611 46.6146 23.0161C46.8859 22.5968 47.1627 22.1832 47.4476 21.7781C47.4586 21.7612 47.4695 21.7443 47.4832 21.7274C47.7709 21.3194 48.0669 20.9171 48.3655 20.5203C48.4066 20.4669 48.445 20.4134 48.4861 20.3599C48.7766 19.9801 49.0725 19.6087 49.3711 19.2429C49.4259 19.1782 49.478 19.1107 49.5328 19.0459C49.8315 18.6858 50.1356 18.3313 50.448 17.9824C50.5055 17.9176 50.5603 17.8557 50.6179 17.7938C50.933 17.4421 51.2536 17.096 51.5824 16.7584C51.629 16.7078 51.6783 16.6599 51.7249 16.6121C52.0674 16.2604 52.4126 15.9143 52.7661 15.5738C52.7853 15.557 52.8017 15.5401 52.8209 15.5232C53.1716 15.1884 53.5306 14.8592 53.8922 14.5384C53.9306 14.5046 53.9662 14.4709 54.0046 14.4371C54.3635 14.122 54.728 13.8125 55.0951 13.5114C55.1554 13.4636 55.2157 13.4129 55.2732 13.3651C55.6349 13.0724 55.9993 12.7855 56.3693 12.5069C56.435 12.4562 56.5035 12.4056 56.572 12.355C56.9447 12.0764 57.3201 11.8063 57.7009 11.5418C57.7639 11.4996 57.827 11.4574 57.89 11.4124C58.2818 11.1422 58.6791 10.8778 59.0819 10.6245C59.123 10.5992 59.1614 10.5739 59.2025 10.5514C59.6135 10.2925 60.0272 10.0421 60.4465 9.80011C60.4684 9.78886 60.4876 9.77479 60.5095 9.76353C60.9315 9.52156 61.3562 9.2852 61.7864 9.06011C61.8439 9.02916 61.9014 8.99821 61.9617 8.96726C62.3755 8.7506 62.7947 8.54239 63.2167 8.3398C63.2906 8.30322 63.3646 8.26946 63.4386 8.23569C63.8578 8.03873 64.2771 7.85022 64.7045 7.66732C64.7374 7.65326 64.7703 7.63637 64.8032 7.62231C62.2275 6.902 58.0626 6.04663 52.9469 6.04663C43.8691 6.04663 31.7854 8.73653 20.2032 19.6875C13.7833 25.7566 9.73071 32.6361 8.15791 40.1347C7.97433 41.0153 7.82636 41.8904 7.71402 42.7598C7.60168 43.6265 7.52222 44.4875 7.4729 45.3344C7.40714 46.4655 7.39618 47.5797 7.4318 48.6714C7.6236 54.6759 9.20187 59.9966 10.7692 63.8739C13.4435 70.4917 18.0961 75.8687 23.8694 79.2648C24.3955 79.5743 24.9298 79.867 25.4723 80.1427C26.2861 80.5563 27.1191 80.9305 27.9713 81.2654C29.3906 81.8253 30.8566 82.2727 32.3609 82.5991C40.392 84.3492 48.8642 82.7398 57.542 77.813L57.69 77.6554H57.8187C57.9558 77.5766 58.09 77.4978 58.2243 77.419Z" fill="white"/>
<path d="M58.4288 77.3056C58.6617 77.1675 58.8918 77.0293 59.1165 76.8911C58.8891 77.0293 58.6589 77.1675 58.4288 77.3056Z" fill="white"/>
<path d="M57.8142 77.6578C57.9485 77.5788 58.0827 77.4999 58.217 77.4209C58.0827 77.4999 57.9457 77.5788 57.8115 77.6578H57.8142Z" fill="white"/>
<path d="M10.7492 63.8763C9.18188 59.999 7.60361 54.6755 7.4118 48.6738C7.60361 54.6783 9.18188 59.999 10.7492 63.8763Z" fill="white"/>
<path d="M78.3648 59.968C78.3648 59.968 78.3509 59.9902 78.3453 60.0013C78.3509 59.9902 78.3592 59.9791 78.3648 59.968Z" fill="white"/>
<path d="M77.0945 61.3892C71.0828 68.0408 65.0437 73.2461 59.1005 76.8899C65.0273 73.2602 71.0746 68.052 77.0918 61.392L77.0945 61.3892Z" fill="white"/>
<path d="M111.276 71.0031C107.448 65.0493 101.614 59.7595 93.9149 55.252C93.9231 55.266 93.9341 55.2801 93.9423 55.2913C93.9779 55.342 94.0135 55.3955 94.0492 55.4461C94.0985 55.5193 94.1505 55.5952 94.2026 55.6712C94.241 55.7275 94.2766 55.7809 94.315 55.84C94.3698 55.9216 94.4218 56.0032 94.4766 56.0848C94.5122 56.1383 94.5479 56.1917 94.5835 56.2452C94.6657 56.369 94.7479 56.4984 94.8328 56.6279C94.8602 56.6701 94.8876 56.7123 94.915 56.7573C94.9863 56.8698 95.0575 56.9824 95.1315 57.0977C95.1699 57.1568 95.2055 57.2159 95.2438 57.275C95.3041 57.3707 95.3644 57.4663 95.4247 57.5648C95.463 57.6267 95.5014 57.6914 95.5425 57.7562C95.6055 57.8574 95.6685 57.9616 95.7316 58.0657C95.7672 58.1247 95.8028 58.1838 95.8412 58.2457C95.9316 58.3977 96.022 58.5496 96.1152 58.7044C96.1371 58.7438 96.159 58.7803 96.1837 58.8197C96.2686 58.9632 96.3536 59.1095 96.4385 59.2587C96.4741 59.3234 96.5125 59.3881 96.5508 59.4528C96.6166 59.5682 96.6824 59.6864 96.7481 59.8045C96.7865 59.8749 96.8276 59.9452 96.8659 60.0156C96.9345 60.1365 97.0002 60.2603 97.0687 60.387C97.1043 60.4517 97.14 60.5192 97.1756 60.5839C97.2715 60.7612 97.3674 60.9413 97.4633 61.1242C97.4742 61.1467 97.4879 61.172 97.4989 61.1945C97.5948 61.3774 97.6907 61.5659 97.7893 61.7516C97.825 61.8191 97.8579 61.8867 97.8935 61.957C97.962 62.0949 98.0332 62.2328 98.1017 62.3734C98.1401 62.4494 98.1784 62.5254 98.2141 62.6042C98.2826 62.7448 98.3511 62.8855 98.4196 63.029C98.4552 63.1022 98.4881 63.1725 98.5237 63.2457C98.6168 63.4426 98.71 63.6396 98.8032 63.8394C98.8114 63.8591 98.8196 63.876 98.8306 63.8957C98.9292 64.1123 99.0306 64.3318 99.1292 64.5512C99.1621 64.6244 99.195 64.6976 99.2279 64.7735C99.2964 64.9283 99.3621 65.083 99.4306 65.2378C99.4663 65.3222 99.5019 65.4066 99.5375 65.4882C99.6033 65.643 99.669 65.8005 99.7348 65.9581C99.7677 66.0369 99.8005 66.1157 99.8334 66.1944C99.9184 66.4027 100.003 66.6137 100.088 66.8275C100.099 66.8529 100.11 66.881 100.118 66.9063C100.212 67.1455 100.305 67.3846 100.395 67.6266C100.423 67.7026 100.453 67.7786 100.48 67.8545C100.543 68.0262 100.606 68.1978 100.669 68.3723C100.702 68.4623 100.732 68.5495 100.765 68.6396C100.825 68.8112 100.886 68.9828 100.943 69.1545C100.971 69.2389 101.001 69.3233 101.028 69.4077C101.102 69.63 101.176 69.8523 101.247 70.0802C101.258 70.1139 101.269 70.1449 101.28 70.1787C101.362 70.4347 101.442 70.6964 101.519 70.9552C101.543 71.034 101.565 71.1128 101.587 71.1916C101.642 71.3773 101.697 71.5658 101.749 71.7543C101.776 71.85 101.801 71.9428 101.828 72.0385C101.878 72.2214 101.927 72.4043 101.976 72.59C102.001 72.68 102.023 72.7701 102.047 72.8601C102.108 73.0908 102.165 73.3244 102.22 73.5579C102.231 73.6001 102.239 73.6395 102.25 73.6789C102.316 73.9518 102.376 74.2304 102.439 74.5061C102.456 74.5877 102.472 74.6665 102.491 74.7481C102.535 74.9479 102.576 75.1505 102.615 75.3531C102.634 75.4515 102.653 75.55 102.672 75.6485C102.71 75.8426 102.746 76.0368 102.779 76.2309C102.795 76.3266 102.812 76.4223 102.828 76.5179C102.869 76.7571 102.908 76.9963 102.946 77.2382C102.954 77.2861 102.963 77.3367 102.968 77.3845C103.012 77.6744 103.053 77.9642 103.089 78.2568C103.1 78.3384 103.108 78.4228 103.119 78.5044C103.146 78.7182 103.171 78.9321 103.193 79.1459C103.204 79.2472 103.215 79.3513 103.226 79.4526C103.245 79.6552 103.264 79.8606 103.283 80.0632C103.291 80.1617 103.3 80.263 103.308 80.3614C103.327 80.6062 103.343 80.8538 103.36 81.1015C103.363 81.1577 103.368 81.2112 103.371 81.2646C103.387 81.5657 103.401 81.8696 103.412 82.1763C103.415 82.2579 103.415 82.3395 103.417 82.4239C103.423 82.649 103.428 82.8741 103.431 83.102C103.431 83.2089 103.431 83.313 103.431 83.4199C103.431 83.631 103.431 83.842 103.428 84.0558C103.428 84.16 103.428 84.2641 103.423 84.3682C103.417 84.6186 103.409 84.869 103.398 85.1194C103.398 85.1813 103.396 85.2432 103.393 85.3051C103.379 85.6175 103.36 85.9326 103.338 86.2477C103.332 86.3293 103.324 86.4109 103.319 86.4925C103.3 86.7289 103.28 86.9624 103.259 87.1987C103.248 87.3085 103.237 87.4154 103.226 87.5251C103.204 87.7418 103.179 87.9613 103.152 88.1807C103.138 88.2877 103.127 88.3946 103.111 88.5015C103.078 88.7547 103.042 89.008 103.004 89.264C102.993 89.3315 102.985 89.3991 102.974 89.4666C102.924 89.7874 102.867 90.1109 102.809 90.4345C102.795 90.5161 102.776 90.5977 102.763 90.6765C102.716 90.9213 102.667 91.1661 102.615 91.4109C102.59 91.5206 102.565 91.6332 102.543 91.7429C102.494 91.9652 102.442 92.1903 102.387 92.4154C102.36 92.5251 102.335 92.6348 102.308 92.7446C102.245 93.0006 102.176 93.2538 102.108 93.5099C102.089 93.583 102.069 93.6562 102.047 93.7294C101.957 94.0586 101.858 94.385 101.757 94.7142C101.732 94.7929 101.705 94.8717 101.68 94.9505C101.601 95.2037 101.519 95.4542 101.434 95.7074C101.395 95.8199 101.357 95.9325 101.319 96.0422C101.239 96.2701 101.157 96.4952 101.075 96.7231C101.034 96.8357 100.992 96.9482 100.949 97.0608C100.853 97.3168 100.751 97.5701 100.647 97.8261C100.623 97.888 100.598 97.9527 100.573 98.0146L100.521 98.1441C100.412 98.4705 100.294 98.7968 100.173 99.1204C100.14 99.2133 100.11 99.3061 100.075 99.3962C99.9458 99.731 99.806 100.06 99.6663 100.392C99.6279 100.482 99.5951 100.572 99.5567 100.66C99.4005 101.014 99.2361 101.366 99.0662 101.717C99.0361 101.779 99.0087 101.844 98.9785 101.909C98.7758 102.322 98.562 102.73 98.3401 103.138C98.2798 103.248 98.2141 103.355 98.151 103.465C97.9839 103.76 97.8195 104.056 97.6414 104.348C97.5455 104.506 97.4414 104.661 97.3427 104.818C97.192 105.057 97.0441 105.299 96.8851 105.536C96.7728 105.702 96.655 105.865 96.5399 106.031C96.3837 106.256 96.233 106.481 96.0713 106.703C95.9453 106.875 95.811 107.044 95.6822 107.213C95.5233 107.421 95.3699 107.632 95.2055 107.84C95.1973 107.854 95.1863 107.865 95.1781 107.877C94.8931 108.273 94.6027 108.665 94.3095 109.047C94.2684 109.103 94.2245 109.157 94.1834 109.213C93.893 109.587 93.5971 109.956 93.2957 110.316C93.2409 110.384 93.1833 110.451 93.1285 110.519C92.8271 110.876 92.523 111.225 92.2133 111.568C92.1613 111.627 92.1065 111.686 92.0517 111.743C91.7311 112.094 91.405 112.44 91.0735 112.778C91.0461 112.806 91.0187 112.834 90.9913 112.863C90.657 113.2 90.3172 113.532 89.9747 113.856C89.9473 113.881 89.9226 113.906 89.8952 113.932C89.55 114.255 89.1965 114.57 88.8403 114.88C88.7855 114.928 88.7335 114.976 88.6786 115.021C88.3307 115.322 87.9745 115.612 87.6155 115.899C87.558 115.946 87.4977 115.991 87.4374 116.039C87.073 116.326 86.7031 116.608 86.3277 116.881C86.2866 116.911 86.2427 116.942 86.1989 116.973C85.4125 117.542 84.6042 118.079 83.7739 118.586C83.7246 118.617 83.6753 118.648 83.626 118.676C83.2287 118.915 82.8286 119.146 82.4231 119.371C82.3573 119.407 82.2916 119.444 82.2258 119.48C81.8203 119.703 81.4093 119.917 80.9955 120.125C80.938 120.153 80.8777 120.184 80.8174 120.212C80.3872 120.426 79.9516 120.631 79.5104 120.828C79.4912 120.837 79.4721 120.845 79.4529 120.853C79.0117 121.05 78.5678 121.236 78.1157 121.419C78.0746 121.436 78.0308 121.453 77.9897 121.47C77.5485 121.644 77.0992 121.813 76.6498 121.973C76.5758 121.999 76.5046 122.027 76.4306 122.052C75.9867 122.207 75.5401 122.356 75.088 122.497C75.0551 122.508 75.0222 122.519 74.9866 122.53C81.3106 123.296 91.7859 121.934 100.428 116.793C108.711 111.869 113.871 104.573 115.764 95.1081C115.835 94.7507 115.904 94.3934 115.967 94.0276V94.0135C117.375 85.7525 115.803 78.0064 111.295 70.9918L111.276 71.0031Z" fill="white"/>
<path d="M100.158 99.1274C100.125 99.2205 100.095 99.3135 100.059 99.4038C100.095 99.3107 100.125 99.2177 100.158 99.1274Z" fill="white"/>
<path d="M96.0548 106.712C95.9288 106.883 95.7945 107.052 95.6657 107.221C95.7945 107.049 95.9288 106.883 96.0548 106.712Z" fill="white"/>
<path d="M96.8461 105.545C96.7338 105.711 96.6159 105.874 96.5009 106.04C96.6159 105.874 96.7365 105.711 96.8461 105.545Z" fill="white"/>
<path d="M99.6606 100.404C99.6223 100.494 99.5894 100.585 99.551 100.672C99.5894 100.582 99.6223 100.491 99.6606 100.404Z" fill="white"/>
<path d="M99.0577 101.727C99.0276 101.789 99.0002 101.854 98.97 101.919C99.0002 101.857 99.0276 101.792 99.0577 101.727Z" fill="white"/>
<path d="M99.4239 65.2419C99.4595 65.3265 99.4951 65.4111 99.5308 65.4929C99.4951 65.4083 99.4595 65.3237 99.4239 65.2419Z" fill="white"/>
<path d="M100.386 67.6316C100.414 67.7077 100.444 67.7839 100.471 67.86C100.444 67.7839 100.416 67.7077 100.386 67.6316Z" fill="white"/>
<path d="M100.64 68.3782C100.673 68.4684 100.703 68.5558 100.736 68.6461C100.703 68.5558 100.673 68.4656 100.64 68.3782Z" fill="white"/>
<path d="M100.077 66.8335C100.089 66.8589 100.1 66.8871 100.108 66.9125C100.097 66.8871 100.086 66.8589 100.077 66.8335Z" fill="white"/>
<path d="M102.438 74.5107C102.454 74.5925 102.47 74.6715 102.489 74.7533C102.473 74.6715 102.457 74.5925 102.438 74.5107Z" fill="white"/>
<path d="M93.9409 55.2917C93.9765 55.3425 94.0122 55.3961 94.0478 55.4468C94.0122 55.3933 93.9765 55.3425 93.9409 55.2917Z" fill="white"/>
<path d="M102.91 77.2412C102.918 77.2891 102.926 77.3399 102.932 77.3878C102.924 77.3399 102.915 77.2891 102.91 77.2412Z" fill="white"/>
<path d="M101.948 72.5903C101.972 72.6806 101.994 72.7708 102.019 72.861C101.997 72.7708 101.972 72.6806 101.948 72.5903Z" fill="white"/>
<path d="M102.202 73.5588C102.213 73.6011 102.221 73.6406 102.232 73.6801C102.221 73.6378 102.213 73.5983 102.202 73.5588Z" fill="white"/>
<path d="M101.512 70.9614C101.537 71.0404 101.559 71.1193 101.581 71.1983C101.559 71.1193 101.534 71.0404 101.512 70.9614Z" fill="white"/>
<path d="M98.8066 63.8418C98.815 63.8612 98.8233 63.8779 98.8345 63.8973C98.8261 63.8779 98.8178 63.8612 98.8066 63.8418Z" fill="white"/>
<path d="M96.4282 59.2588C96.4638 59.3236 96.5022 59.3885 96.5406 59.4534C96.5022 59.3885 96.4666 59.3236 96.4282 59.2588Z" fill="white"/>
<path d="M97.7717 61.7581C97.8073 61.8257 97.8402 61.8934 97.8758 61.9639C97.8402 61.8962 97.8073 61.8257 97.7717 61.7581Z" fill="white"/>
<path d="M98.0804 62.3765C98.1187 62.4526 98.1571 62.5287 98.1927 62.6077C98.1544 62.5316 98.116 62.4526 98.0804 62.3765Z" fill="white"/>
<path d="M94.1951 55.6721C94.2334 55.7285 94.2691 55.7821 94.3074 55.8413C94.2691 55.7849 94.2334 55.7285 94.1951 55.6721Z" fill="white"/>
<path d="M97.0637 60.3928C97.0993 60.4577 97.1349 60.5254 97.1705 60.5902C97.1349 60.5225 97.0993 60.4577 97.0637 60.3928Z" fill="white"/>
<path d="M96.1014 58.708C96.1234 58.7475 96.1454 58.7841 96.1701 58.8236C96.1481 58.7841 96.1261 58.7447 96.1014 58.708Z" fill="white"/>
<path d="M94.8124 56.6289C94.8398 56.6712 94.8672 56.7135 94.8946 56.7586C94.8672 56.7163 94.8398 56.6712 94.8124 56.6289Z" fill="white"/>
<path d="M95.7202 58.064C95.7558 58.1232 95.7914 58.1824 95.8298 58.2444C95.7941 58.1824 95.7585 58.1232 95.7202 58.064Z" fill="white"/>
<path d="M99.1152 64.5513C99.1481 64.6246 99.181 64.6979 99.2139 64.774C99.181 64.7007 99.1481 64.6246 99.1152 64.5513Z" fill="white"/>
<path d="M95.4115 57.5693C95.45 57.6314 95.4885 57.6962 95.5298 57.7611C95.4913 57.6962 95.45 57.6342 95.4115 57.5693Z" fill="white"/>
<path d="M95.1392 57.0979C95.1775 57.1571 95.2131 57.2163 95.2515 57.2756C95.2131 57.2163 95.1775 57.1543 95.1392 57.0979Z" fill="white"/>
<path d="M103.424 84.062C103.424 84.1663 103.424 84.2707 103.418 84.375C103.418 84.2707 103.421 84.1663 103.424 84.062Z" fill="white"/>
<path d="M100.495 98.1512L100.547 98.0271C100.572 97.9594 100.597 97.8974 100.622 97.8325C100.58 97.934 100.542 98.0327 100.501 98.1343C100.501 98.1399 100.498 98.1455 100.495 98.1512Z" fill="white"/>
<path d="M94.2859 109.058C94.5818 108.676 94.8723 108.284 95.1545 107.888C94.8695 108.284 94.5791 108.676 94.2859 109.058Z" fill="white"/>
<path d="M101.409 95.7158C101.371 95.8286 101.332 95.9414 101.294 96.0514C101.332 95.9386 101.373 95.8258 101.409 95.7158Z" fill="white"/>
<path d="M102.39 92.4185C102.363 92.5284 102.338 92.6384 102.311 92.7484C102.338 92.6384 102.365 92.5284 102.39 92.4185Z" fill="white"/>
<path d="M102.792 90.4443C102.779 90.5261 102.76 90.6079 102.746 90.6869C102.763 90.6051 102.779 90.5233 102.792 90.4443Z" fill="white"/>
<path d="M102.6 91.4175C102.575 91.5275 102.551 91.6403 102.529 91.7502C102.553 91.6403 102.578 91.5275 102.6 91.4175Z" fill="white"/>
<path d="M102.099 93.5154C102.08 93.5887 102.06 93.662 102.038 93.7353C102.058 93.662 102.077 93.5887 102.099 93.5154Z" fill="white"/>
<path d="M103.15 88.1877C103.136 88.2949 103.126 88.4021 103.109 88.5092C103.123 88.4021 103.136 88.2949 103.15 88.1877Z" fill="white"/>
<path d="M103.255 80.0718C103.263 80.1705 103.271 80.272 103.28 80.3707C103.271 80.2692 103.263 80.1705 103.255 80.0718Z" fill="white"/>
<path d="M82.394 119.378C82.7996 119.153 83.2024 118.922 83.5969 118.683C83.1996 118.922 82.7996 119.153 82.394 119.378Z" fill="white"/>
<path d="M78.073 121.423C78.5224 121.243 78.969 121.055 79.4101 120.858C78.969 121.055 78.5251 121.24 78.073 121.423Z" fill="white"/>
<path d="M76.6024 121.977C77.0545 121.817 77.5012 121.648 77.9423 121.474C77.5012 121.648 77.0518 121.817 76.6024 121.977Z" fill="white"/>
<path d="M103.182 79.1523C103.193 79.2539 103.204 79.3582 103.215 79.4597C103.204 79.3554 103.193 79.2539 103.182 79.1523Z" fill="white"/>
<path d="M79.4891 120.832C79.9303 120.635 80.366 120.427 80.7961 120.216C80.366 120.43 79.9303 120.635 79.4891 120.832Z" fill="white"/>
<path d="M89.9467 113.865C90.292 113.542 90.629 113.21 90.9633 112.872C90.629 113.21 90.2892 113.542 89.9467 113.865Z" fill="white"/>
<path d="M87.5865 115.911C87.9454 115.624 88.2989 115.331 88.6496 115.033C88.3016 115.331 87.9454 115.624 87.5865 115.911Z" fill="white"/>
<path d="M103.4 82.1882C103.403 82.27 103.403 82.3518 103.406 82.4364C103.406 82.3546 103.403 82.27 103.4 82.1882Z" fill="white"/>
<path d="M103.345 81.1125C103.348 81.1689 103.354 81.2225 103.357 81.2761C103.354 81.2197 103.348 81.1661 103.345 81.1125Z" fill="white"/>
<path d="M50.7816 61.6703C50.7816 61.6703 50.7816 61.659 50.7789 61.6562C50.7789 61.6478 50.7761 61.6393 50.7734 61.6309C50.7515 61.5268 50.7296 61.4199 50.7076 61.3101C50.6994 61.2736 50.6939 61.2398 50.6857 61.2032C50.6693 61.116 50.6528 61.026 50.6337 60.9331C50.6254 60.8965 50.62 60.8571 50.6117 60.8206C50.5926 60.7136 50.5734 60.6039 50.5542 60.4942C50.5515 60.4745 50.546 60.452 50.5432 60.4323C50.5213 60.3 50.4994 60.165 50.4775 60.0271C50.472 59.9933 50.4665 59.9596 50.461 59.9258C50.4446 59.8189 50.4282 59.712 50.4117 59.605C50.4062 59.56 50.398 59.515 50.3925 59.47C50.3788 59.3659 50.3624 59.259 50.3487 59.1492C50.3432 59.107 50.3377 59.0648 50.3323 59.0226C50.3131 58.8735 50.2939 58.7215 50.2775 58.5668C50.2775 58.5668 50.2775 58.564 50.2775 58.5612C50.261 58.412 50.2446 58.2573 50.2281 58.1053C50.2226 58.0575 50.2199 58.0097 50.2144 57.9618C50.2035 57.8493 50.1925 57.7339 50.1815 57.6158C50.1761 57.5623 50.1733 57.5116 50.1678 57.4582C50.1569 57.3316 50.1459 57.205 50.1377 57.0755C50.135 57.0361 50.1322 56.9967 50.1295 56.9573C50.1185 56.7913 50.1076 56.6225 50.0966 56.4509C50.0966 56.4115 50.0939 56.3721 50.0911 56.3327C50.0829 56.1976 50.0774 56.0626 50.0719 55.9275C50.0719 55.8684 50.0665 55.8122 50.0665 55.7531C50.061 55.6293 50.0582 55.5027 50.0555 55.3789C50.0555 55.3226 50.0528 55.2635 50.05 55.2044C50.0473 55.0412 50.0445 54.878 50.0418 54.7148C50.0418 54.6951 50.0418 54.6782 50.0418 54.6585C50.0418 54.4757 50.0418 54.29 50.0418 54.1043C50.0418 54.048 50.0418 53.9917 50.0418 53.9382C50.0418 53.8032 50.0473 53.6681 50.05 53.5303C50.05 53.4655 50.0528 53.4008 50.0555 53.3361C50.061 53.1954 50.0637 53.0547 50.0719 52.9141C50.0719 52.8578 50.0774 52.8043 50.0774 52.748C50.0856 52.5539 50.0966 52.3598 50.1103 52.1628C50.1103 52.1262 50.1158 52.0868 50.1185 52.0474C50.1295 51.887 50.1404 51.7239 50.1541 51.5635C50.1596 51.4959 50.1651 51.4284 50.1706 51.3609C50.1815 51.2202 50.1952 51.0795 50.2089 50.9388C50.2144 50.8713 50.2226 50.8038 50.2281 50.7334C50.2446 50.5674 50.2637 50.4014 50.2829 50.2354C50.2884 50.196 50.2911 50.1538 50.2966 50.1144C50.3213 49.909 50.3487 49.7036 50.3788 49.4954C50.3871 49.4335 50.398 49.3744 50.4062 49.3125C50.4282 49.1606 50.4501 49.0114 50.4747 48.8567C50.4857 48.7835 50.4994 48.7076 50.5104 48.6344C50.535 48.4853 50.5624 48.3333 50.5898 48.1842C50.6008 48.1167 50.6145 48.052 50.6254 47.9844C50.6665 47.7706 50.7076 47.5568 50.7515 47.3429C50.757 47.3176 50.7624 47.2895 50.7679 47.2641C50.809 47.0728 50.8501 46.8815 50.894 46.6901C50.9104 46.6198 50.9268 46.5466 50.9433 46.4763C50.9789 46.3244 51.0173 46.1724 51.0529 46.0177C51.0721 45.9417 51.0912 45.8657 51.1104 45.7898C51.1543 45.6237 51.1981 45.4549 51.2447 45.2861C51.2611 45.2298 51.2748 45.1736 51.2913 45.1201C51.3543 44.9006 51.4173 44.6783 51.4858 44.4561C51.5023 44.397 51.5214 44.3407 51.5406 44.2816C51.5927 44.1128 51.6447 43.9468 51.6995 43.778C51.7242 43.6992 51.7516 43.6232 51.7763 43.5444C51.8283 43.3868 51.8831 43.2321 51.9379 43.0745C51.9653 43.0014 51.99 42.9254 52.0174 42.8522C52.0941 42.644 52.1708 42.433 52.2503 42.222C52.2558 42.2051 52.264 42.1882 52.2695 42.1685C52.3572 41.9434 52.4476 41.7155 52.5407 41.4904C52.5709 41.4173 52.601 41.3469 52.6312 41.2738C52.6997 41.1134 52.7682 40.953 52.8367 40.7926C52.8723 40.7138 52.9079 40.6322 52.9435 40.5535C53.0175 40.3846 53.097 40.2186 53.1737 40.0498C53.2038 39.9851 53.234 39.9204 53.2641 39.8585C53.3737 39.6306 53.4861 39.4026 53.6011 39.1719C53.6258 39.1213 53.6532 39.0734 53.6779 39.0228C53.771 38.8399 53.8669 38.6598 53.9628 38.4769C54.0039 38.3982 54.0478 38.3194 54.0889 38.2434C54.1766 38.083 54.2642 37.9226 54.3574 37.7623C54.4012 37.6863 54.4451 37.6075 54.4889 37.5315C54.6013 37.3402 54.7136 37.1461 54.8314 36.9547C54.8561 36.9153 54.878 36.8759 54.9027 36.8365C55.0424 36.6058 55.1876 36.3779 55.3356 36.15C55.3794 36.0825 55.4233 36.0149 55.4671 35.9474C55.5767 35.7814 55.6863 35.6154 55.7987 35.4494C55.8535 35.3706 55.9055 35.2918 55.9603 35.213C56.0754 35.047 56.1905 34.8838 56.3083 34.7178C56.3576 34.6503 56.407 34.58 56.4563 34.5124C56.6234 34.2845 56.7933 34.0538 56.9687 33.8259C56.9906 33.7949 57.0153 33.764 57.0399 33.7358C57.1934 33.5361 57.3495 33.3391 57.5112 33.1393C57.5715 33.0662 57.6318 32.9902 57.6921 32.9171C57.8236 32.7567 57.9551 32.5963 58.0921 32.4387C58.1579 32.3628 58.2209 32.2868 58.2866 32.2108C58.4401 32.0307 58.599 31.8535 58.7579 31.6734C58.8018 31.6256 58.8456 31.5749 58.8895 31.5271C59.095 31.302 59.3032 31.0769 59.5169 30.8518C59.5717 30.7955 59.6265 30.7364 59.6813 30.6802C59.843 30.5113 60.0101 30.3425 60.1773 30.1737C60.2513 30.0977 60.328 30.0246 60.4047 29.9486C60.5664 29.791 60.728 29.6307 60.8952 29.4731C60.9664 29.4056 61.0377 29.3352 61.1116 29.2677C61.3473 29.0454 61.5857 28.8231 61.8323 28.6036C64.2463 26.4343 70.858 21.1895 80.0537 19.3353C80.3496 19.2762 80.6455 19.2199 80.9415 19.1693C81.0374 19.1524 81.136 19.1384 81.2319 19.1215C81.4319 19.0877 81.6292 19.0568 81.8292 19.0258C81.9443 19.0089 82.0594 18.9949 82.1772 18.978C82.3581 18.9526 82.5389 18.9273 82.7198 18.9076C82.8431 18.8936 82.9664 18.8795 83.0897 18.8654C83.2623 18.8457 83.4377 18.8288 83.6103 18.812C83.7363 18.8007 83.8624 18.7895 83.9884 18.7782C84.161 18.7641 84.3309 18.7501 84.5035 18.7388C84.6296 18.7304 84.7529 18.7219 84.8789 18.7163C85.0543 18.705 85.2269 18.6994 85.4023 18.691C85.5228 18.6853 85.6461 18.6797 85.7667 18.6769C85.9475 18.6713 86.1284 18.6685 86.3092 18.6656C86.4243 18.6656 86.5367 18.6628 86.6517 18.66C86.6846 18.66 86.7175 18.66 86.7531 18.66C86.8052 18.66 86.8572 18.6628 86.912 18.6628C87.282 18.6628 87.6519 18.6741 88.0218 18.6882C88.1067 18.691 88.1889 18.6938 88.2739 18.6966C88.6903 18.7163 89.1041 18.7444 89.5206 18.7782C89.611 18.7866 89.7014 18.7951 89.7918 18.8035C90.1645 18.8373 90.5371 18.8795 90.907 18.9245C90.9728 18.9329 91.0386 18.9386 91.1043 18.947C91.5181 19.0033 91.9346 19.068 92.3483 19.1383C92.447 19.1552 92.5456 19.1721 92.6443 19.1918C93.0388 19.2622 93.4306 19.3381 93.8225 19.4253C93.8554 19.4338 93.8882 19.4394 93.9184 19.445C94.3349 19.5379 94.7486 19.6392 95.1651 19.7461C95.2665 19.7714 95.3679 19.7996 95.4693 19.8277C95.883 19.9403 96.2968 20.0556 96.7105 20.185C96.7434 20.1963 96.779 20.2076 96.8119 20.2188C97.201 20.3398 97.5873 20.4692 97.9764 20.6043C98.075 20.6381 98.1737 20.6746 98.2751 20.7084C98.6833 20.8547 99.0916 21.0066 99.4971 21.1698C99.5656 21.1952 99.6314 21.2261 99.6972 21.2514C100.059 21.3978 100.421 21.5497 100.782 21.7101C100.873 21.7495 100.966 21.7889 101.056 21.8311C101.462 22.0111 101.865 22.2025 102.267 22.3994C102.352 22.4416 102.437 22.4838 102.522 22.526C102.878 22.7033 103.235 22.8862 103.591 23.0747C103.668 23.1141 103.744 23.1535 103.821 23.1957C104.224 23.4124 104.627 23.6403 105.027 23.871C105.12 23.9245 105.213 23.9807 105.306 24.0342C105.676 24.2508 106.043 24.4759 106.41 24.7067C106.46 24.7376 106.509 24.7686 106.558 24.7995C106.961 25.0556 107.364 25.3201 107.767 25.5902C107.863 25.6549 107.958 25.7196 108.054 25.7843C108.463 26.0629 108.871 26.3471 109.276 26.6425C119.976 34.4139 126.377 44.7177 127.783 56.4452C127.824 56.7941 127.862 57.143 127.895 57.4919C127.906 57.6073 127.914 57.7227 127.923 57.8352C127.942 58.0716 127.964 58.3079 127.98 58.5471C127.988 58.685 127.996 58.8228 128.005 58.9579C128.018 59.1745 128.029 59.394 128.04 59.6135C128.046 59.7598 128.051 59.9033 128.057 60.0496C128.065 60.2634 128.07 60.4773 128.073 60.6883C128.076 60.8374 128.079 60.9838 128.079 61.1329C128.079 61.3467 128.079 61.5634 128.079 61.78C128.079 61.9263 128.079 62.0698 128.076 62.2162C128.073 62.4413 128.065 62.6664 128.06 62.8914C128.054 63.0293 128.051 63.1672 128.046 63.3051C128.035 63.5555 128.021 63.8059 128.007 64.0563C128.002 64.1689 127.996 64.2842 127.988 64.3968C127.942 65.1283 127.879 65.8627 127.796 66.6027C127.783 66.7181 127.769 66.8334 127.755 66.946C127.725 67.202 127.695 67.4581 127.662 67.7141C127.643 67.852 127.624 67.9927 127.605 68.1306C127.572 68.3641 127.539 68.5976 127.501 68.834C127.479 68.9831 127.454 69.1294 127.429 69.2786C127.391 69.5065 127.353 69.7344 127.311 69.9623C127.284 70.1114 127.257 70.2634 127.229 70.4125C127.185 70.6432 127.142 70.8739 127.095 71.1018C127.065 71.251 127.037 71.3973 127.005 71.5464C126.955 71.7856 126.903 72.0247 126.848 72.2639C126.818 72.4018 126.788 72.5424 126.755 72.6803C126.695 72.9476 126.629 73.2149 126.563 73.4822C126.536 73.5948 126.509 73.7073 126.481 73.8199C126.289 74.5824 126.081 75.3449 125.857 76.113C125.821 76.2312 125.785 76.3494 125.75 76.4676C125.67 76.7321 125.591 76.9965 125.506 77.2638C125.459 77.4073 125.413 77.5508 125.366 77.6972C125.289 77.9363 125.21 78.1783 125.128 78.4203C125.076 78.575 125.024 78.727 124.969 78.8817C124.889 79.1153 124.807 79.3488 124.725 79.5795C124.667 79.7371 124.613 79.8947 124.555 80.0522C124.47 80.2858 124.382 80.5193 124.295 80.75C124.234 80.9048 124.177 81.0623 124.117 81.2171C124.023 81.4563 123.928 81.6954 123.832 81.9374C123.771 82.0865 123.714 82.2357 123.654 82.3848C123.547 82.6465 123.437 82.9081 123.327 83.1698C123.273 83.2964 123.221 83.423 123.169 83.5497C123.004 83.9379 122.834 84.3234 122.659 84.7117C122.645 84.7455 122.629 84.7764 122.612 84.8102C122.453 85.1647 122.289 85.5221 122.122 85.8766C122.056 86.0173 121.988 86.158 121.922 86.2987C121.804 86.5491 121.683 86.7967 121.563 87.0471C121.483 87.2103 121.401 87.3707 121.322 87.5339C121.209 87.7618 121.094 87.9897 120.979 88.2176C120.892 88.3892 120.804 88.5609 120.713 88.7325C120.598 88.952 120.483 89.1714 120.368 89.3909C120.275 89.5654 120.182 89.7426 120.086 89.9171C120.037 90.0099 119.987 90.1028 119.935 90.1984C128.473 79.3516 130.701 67.8914 130.969 59.7542C131.304 49.6614 128.786 42.3317 128.761 42.2586C128.731 42.1601 126.341 34.7066 120.434 26.6678C115.009 19.2818 105.407 9.87001 90.4823 6.95782C82.2211 5.34839 74.4749 5.79858 67.4576 8.29715C58.8949 11.3472 51.5845 17.4951 46.8688 25.6099C44.4987 29.6869 42.9094 34.0566 42.2765 38.2462C41.575 42.8607 41.8518 51.7829 50.7789 61.6787L50.7816 61.6703Z" fill="white"/>
<path d="M61.6867 37.7987C61.8922 37.5736 62.1005 37.3513 62.3087 37.1318L62.2594 37.1009L62.9882 36.42C63.0896 36.3018 63.1965 36.192 63.3006 36.0823C63.3362 36.0457 63.3664 36.0092 63.402 35.9726C63.5527 35.8206 63.7089 35.6743 63.8596 35.5308L63.9801 35.4155C63.9801 35.4155 64.0021 35.393 64.013 35.3845C64.1007 35.2973 64.1966 35.2016 64.2952 35.1031C70.622 28.9017 76.8913 25.3002 82.9331 24.3998L83.4811 24.3182L83.4866 24.3267C91.3314 23.3672 98.9844 26.9124 106.24 34.8752C118.842 48.7046 114.63 65.1563 112.778 70.463C112.797 70.4939 112.816 70.5249 112.835 70.5558C113.052 70.9019 113.26 71.248 113.463 71.5969C113.485 71.6363 113.507 71.6757 113.531 71.7151C113.726 72.0555 113.915 72.396 114.099 72.7392C114.118 72.7758 114.14 72.8124 114.159 72.849C114.345 73.2007 114.521 73.5524 114.693 73.9069C114.726 73.9745 114.759 74.042 114.792 74.1095C114.959 74.4612 115.121 74.8129 115.274 75.1675C115.299 75.2209 115.321 75.2744 115.343 75.3307C115.491 75.6739 115.633 76.02 115.767 76.3689C115.781 76.4027 115.795 76.4365 115.808 76.4702C115.948 76.8304 116.08 77.1933 116.206 77.5563C116.23 77.6295 116.258 77.7026 116.282 77.7758C116.403 78.1331 116.518 78.4905 116.628 78.8506C116.647 78.9153 116.666 78.98 116.685 79.0448C116.789 79.4021 116.891 79.7594 116.981 80.1168C116.987 80.1421 116.995 80.1674 117 80.1927C117.093 80.5642 117.181 80.9384 117.261 81.3098C117.277 81.3858 117.293 81.4617 117.31 81.5377C117.387 81.9035 117.455 82.2693 117.521 82.635C117.535 82.7082 117.546 82.7785 117.557 82.8517C117.62 83.2287 117.677 83.6086 117.726 83.9884C117.726 83.9969 117.726 84.0053 117.729 84.0138C117.778 84.3992 117.82 84.7875 117.855 85.1758C117.861 85.249 117.869 85.3221 117.874 85.3953C117.907 85.7695 117.932 86.1465 117.951 86.5264C117.954 86.5996 117.957 86.6755 117.962 86.7487C117.978 87.1398 117.992 87.5309 117.995 87.9248C117.995 87.9417 117.995 87.9586 117.995 87.9755C117.998 88.3637 117.995 88.752 117.984 89.1403C117.984 89.205 117.981 89.2726 117.978 89.3373C117.965 89.7256 117.946 90.1167 117.921 90.505C117.921 90.5359 117.921 90.5669 117.915 90.595C117.962 90.5106 118.011 90.4262 118.058 90.3418C118.154 90.1701 118.25 89.9957 118.346 89.8241C118.466 89.6074 118.584 89.3907 118.702 89.1741C118.795 89.0025 118.885 88.8308 118.976 88.662C119.094 88.4425 119.206 88.2231 119.321 88.0036C119.409 87.8348 119.496 87.6688 119.581 87.4999C119.697 87.2777 119.809 87.0526 119.918 86.8303C120.001 86.6671 120.083 86.5039 120.162 86.3407C120.275 86.11 120.387 85.8764 120.497 85.6457C120.571 85.491 120.645 85.339 120.716 85.1843C120.834 84.931 120.951 84.6778 121.067 84.4246C121.127 84.2923 121.187 84.1629 121.247 84.0306C121.395 83.7043 121.538 83.3779 121.678 83.0487C121.702 82.9924 121.727 82.9361 121.752 82.877C121.916 82.4915 122.078 82.1061 122.234 81.7206C122.272 81.6277 122.308 81.5349 122.343 81.4448C122.461 81.155 122.576 80.8652 122.689 80.5754C122.741 80.4404 122.79 80.3053 122.842 80.1702C122.935 79.9226 123.028 79.6778 123.119 79.4302C123.174 79.2811 123.226 79.132 123.278 78.9829C123.36 78.7521 123.442 78.5186 123.522 78.2879C123.576 78.1331 123.628 77.9755 123.681 77.8208C123.755 77.5957 123.831 77.3706 123.902 77.1483C123.955 76.9908 124.004 76.8332 124.053 76.6756C124.122 76.4533 124.19 76.2311 124.259 76.0116C124.305 75.854 124.355 75.6936 124.401 75.5361C124.467 75.3166 124.527 75.0943 124.59 74.8748C124.634 74.7173 124.678 74.5597 124.719 74.405C124.779 74.1827 124.837 73.9604 124.894 73.7381C124.933 73.5862 124.974 73.4314 125.012 73.2795C125.07 73.0516 125.125 72.8208 125.177 72.5929C125.21 72.4494 125.245 72.3031 125.278 72.1596C125.333 71.9176 125.385 71.6728 125.437 71.4309C125.464 71.3014 125.494 71.172 125.519 71.0426C125.577 70.7584 125.631 70.477 125.684 70.1928C125.7 70.1056 125.719 70.0184 125.733 69.9312C125.801 69.5598 125.864 69.1883 125.925 68.8198C125.933 68.7691 125.938 68.7185 125.947 68.6678C125.996 68.3527 126.042 68.0375 126.086 67.7224C126.103 67.6014 126.116 67.4776 126.133 67.3566C126.163 67.1147 126.196 66.8727 126.223 66.6307C126.24 66.49 126.253 66.3493 126.267 66.2086C126.289 65.9864 126.314 65.7641 126.333 65.5446C126.347 65.3955 126.358 65.2464 126.371 65.0972C126.388 64.8862 126.404 64.6752 126.421 64.4641C126.432 64.3122 126.44 64.1574 126.448 64.0055C126.459 63.8001 126.47 63.5919 126.478 63.3865C126.484 63.2317 126.492 63.0798 126.495 62.925C126.5 62.7196 126.506 62.5171 126.511 62.3145C126.514 62.1597 126.517 62.0078 126.517 61.8558C126.517 61.6532 126.517 61.4507 126.517 61.2481C126.517 61.0961 126.517 60.9442 126.511 60.7951C126.508 60.5897 126.503 60.3843 126.495 60.1789C126.489 60.0326 126.486 59.8862 126.481 59.7427C126.473 59.5289 126.459 59.3179 126.448 59.104C126.44 58.969 126.434 58.8311 126.423 58.696C126.407 58.4625 126.388 58.2318 126.369 58.0011C126.358 57.8857 126.352 57.7732 126.341 57.6578C126.308 57.3145 126.273 56.9712 126.232 56.6308C124.881 45.3619 118.702 35.438 108.369 27.9338C99.2913 21.3413 89.8627 18.9722 80.3438 20.8911C71.5153 22.6694 65.1666 27.7087 62.8457 29.7937C62.5937 30.0216 62.3471 30.2495 62.1032 30.4774C62.021 30.5562 61.9415 30.6322 61.8621 30.7109C61.7031 30.8629 61.5442 31.0148 61.3908 31.1668C61.2976 31.2596 61.2099 31.3497 61.1195 31.4425C60.9825 31.5804 60.8455 31.7211 60.7112 31.8618C60.6181 31.9602 60.5249 32.0587 60.4345 32.16C60.3085 32.2923 60.1852 32.4273 60.0619 32.5596C59.9687 32.6608 59.8783 32.765 59.7878 32.8691C59.6728 33.0013 59.5549 33.1307 59.4426 33.263C59.3522 33.3671 59.2645 33.474 59.1768 33.5809C59.0672 33.7104 58.9603 33.8398 58.8535 33.9692C58.7658 34.0761 58.6809 34.1859 58.5932 34.2928C58.4918 34.4194 58.3904 34.5488 58.2918 34.6755C58.2068 34.7852 58.1246 34.8949 58.0424 35.0047C57.9465 35.1313 57.8506 35.2607 57.7575 35.3873C57.678 35.4971 57.5985 35.6068 57.5191 35.7165C57.4287 35.8431 57.3382 35.9698 57.2505 36.0964C57.1738 36.2061 57.0998 36.3187 57.0231 36.4284C56.9382 36.555 56.8532 36.6816 56.771 36.8082C56.6971 36.9208 56.6258 37.0305 56.5546 37.1431C56.4751 37.2697 56.3929 37.3963 56.3162 37.5229C56.2477 37.6355 56.1792 37.7452 56.1107 37.8578C56.034 37.9844 55.96 38.111 55.886 38.2376C55.8202 38.3502 55.7572 38.4599 55.6942 38.5724C55.623 38.6991 55.5517 38.8257 55.4832 38.9523C55.4229 39.0648 55.3626 39.1746 55.3024 39.2871C55.2339 39.4137 55.1681 39.5404 55.1023 39.667C55.0448 39.7795 54.9873 39.8892 54.9325 40.0018C54.8694 40.1284 54.8064 40.255 54.7461 40.3816C54.6913 40.4914 54.6393 40.6039 54.5872 40.7137C54.5269 40.8403 54.4694 40.9669 54.4118 41.0935C54.3625 41.2033 54.3132 41.313 54.2639 41.4227C54.2091 41.5493 54.1543 41.676 54.0995 41.8026C54.0529 41.9123 54.0063 42.0192 53.9625 42.129C53.9104 42.2556 53.8611 42.3822 53.809 42.5088C53.7652 42.6185 53.7214 42.7255 53.6803 42.8352C53.6309 42.9618 53.5843 43.0884 53.5378 43.215C53.4994 43.322 53.4583 43.4289 53.4199 43.5358C53.3734 43.6624 53.3323 43.7919 53.2884 43.9185C53.2528 44.0226 53.2144 44.1295 53.1816 44.2336C53.1405 44.363 53.0994 44.4897 53.0583 44.6191C53.0254 44.7204 52.9925 44.8245 52.9624 44.9258C52.9213 45.058 52.8856 45.1875 52.8473 45.3197C52.8199 45.4182 52.7897 45.5167 52.7623 45.6151C52.724 45.753 52.6883 45.8881 52.6527 46.0231C52.6281 46.1132 52.6034 46.206 52.5787 46.2989C52.5404 46.4508 52.5048 46.6027 52.4691 46.7519C52.45 46.825 52.4308 46.901 52.4143 46.977C52.3623 47.2021 52.313 47.4243 52.2664 47.6466C52.2554 47.6917 52.2472 47.7395 52.239 47.7845C52.2034 47.9618 52.1677 48.1362 52.1349 48.3135C52.1184 48.3979 52.1047 48.4823 52.091 48.5667C52.0664 48.7018 52.0417 48.8368 52.0198 48.9719C52.0033 49.0647 51.9896 49.1576 51.9759 49.2533C51.9568 49.3771 51.9376 49.5009 51.9184 49.6247C51.9047 49.7203 51.891 49.8188 51.88 49.9145C51.8636 50.0327 51.8472 50.1508 51.8335 50.269C51.8198 50.3675 51.8115 50.466 51.7978 50.5644C51.7841 50.677 51.7704 50.7924 51.7595 50.9049C51.7485 51.0034 51.7403 51.1019 51.7321 51.2003C51.7211 51.3101 51.7101 51.4226 51.7019 51.5324C51.6937 51.6308 51.6855 51.7293 51.68 51.825C51.6718 51.9319 51.6636 52.0416 51.6553 52.1486C51.6499 52.247 51.6444 52.3427 51.6389 52.4412C51.6334 52.5481 51.6252 52.6522 51.6225 52.7563C51.617 52.852 51.6142 52.9477 51.6088 53.0433C51.6033 53.1474 51.6005 53.2515 51.5978 53.3528C51.5951 53.4485 51.5923 53.5413 51.5896 53.637C51.5896 53.7383 51.5841 53.8368 51.5841 53.9381C51.5841 54.0309 51.5841 54.1266 51.5841 54.2194C51.5841 54.3179 51.5841 54.4164 51.5841 54.5121C51.5841 54.6049 51.5841 54.6978 51.5841 54.7878C51.5841 54.8835 51.5841 54.9791 51.5896 55.072C51.5896 55.162 51.5923 55.2521 51.5951 55.3421C51.5951 55.4378 51.6005 55.5306 51.6033 55.6235C51.606 55.7107 51.6088 55.7979 51.6142 55.8852C51.617 55.978 51.6225 56.0681 51.6279 56.1609C51.6334 56.2481 51.6362 56.3325 51.6416 56.4169C51.6471 56.507 51.6526 56.597 51.6581 56.6843C51.6636 56.7687 51.669 56.8531 51.6745 56.9347C51.68 57.0219 51.6882 57.1091 51.6937 57.1963C51.6992 57.2779 51.7074 57.3595 51.7129 57.4383C51.7211 57.5227 51.7293 57.61 51.7375 57.6944C51.7458 57.7732 51.7512 57.8519 51.7595 57.9279C51.7677 58.0123 51.7759 58.0939 51.7869 58.1783C51.7951 58.2543 51.8033 58.3303 51.8115 58.4034C51.8198 58.485 51.8307 58.5666 51.8417 58.6482C51.8499 58.7214 51.8581 58.7945 51.8691 58.8649C51.88 58.9437 51.891 59.0224 51.902 59.0984C51.9129 59.1688 51.9211 59.2391 51.9321 59.3094C51.9431 59.3854 51.954 59.4558 51.965 59.5289C51.9759 59.5992 51.9869 59.6696 51.9951 59.7371C52.0061 59.8075 52.017 59.8778 52.028 59.9481C52.039 60.0157 52.0499 60.0832 52.0609 60.1479C52.0718 60.2183 52.0855 60.2858 52.0965 60.3561C52.1075 60.418 52.1184 60.4799 52.1294 60.5418C52.1403 60.6066 52.154 60.6713 52.165 60.736C52.176 60.7979 52.1869 60.8598 52.2006 60.9189C52.2253 61.0399 52.2472 61.1552 52.2719 61.2706C52.2828 61.324 52.2938 61.3775 52.3047 61.431C52.3184 61.4901 52.3294 61.552 52.3431 61.611C52.3541 61.6645 52.3678 61.718 52.3787 61.7714C52.3897 61.8249 52.4034 61.8812 52.4143 61.9318C52.428 61.9881 52.439 62.0415 52.4527 62.0978C52.4637 62.1428 52.4746 62.1879 52.4828 62.2301C52.4965 62.2835 52.5075 62.337 52.5212 62.3876C52.5322 62.4298 52.5431 62.472 52.5513 62.5114C52.5623 62.5593 52.576 62.6071 52.587 62.6549C52.5979 62.6943 52.6061 62.7337 52.6171 62.7731C52.6308 62.8209 52.6418 62.866 52.6527 62.911C52.6609 62.9447 52.6719 62.9785 52.6801 63.0123C52.6911 63.0573 52.7048 63.0995 52.7157 63.1417C52.724 63.1727 52.7322 63.2036 52.7404 63.2317C52.7514 63.2739 52.7623 63.3133 52.776 63.3527C52.7842 63.3781 52.7897 63.4034 52.798 63.4259C52.8089 63.4653 52.8199 63.5019 52.8308 63.5384C52.8363 63.5609 52.8445 63.5806 52.85 63.6031C52.861 63.6369 52.8692 63.6707 52.8802 63.7016C52.8856 63.7185 52.8911 63.7382 52.8966 63.7551C52.9076 63.786 52.9158 63.817 52.924 63.8451C52.9267 63.8592 52.9322 63.8705 52.935 63.8817C52.9432 63.9098 52.9514 63.9352 52.9596 63.9605C52.9596 63.9661 52.9624 63.9689 52.9651 63.9746C53.1459 64.149 53.324 64.3206 53.4994 64.4838C52.2335 59.5514 51.3567 49.0394 61.6785 37.824L61.6867 37.7987Z" fill="white"/>
<path d="M62.9884 36.4202L62.2596 37.1011L62.3089 37.132C62.5309 36.8985 62.7501 36.665 62.972 36.437C62.9775 36.4314 62.983 36.4258 62.9884 36.4202Z" fill="white"/>
<path d="M63.9996 35.3822C63.9996 35.3822 63.9773 35.4044 63.9662 35.4127L63.9717 35.4072C63.9717 35.4072 63.9912 35.3877 63.9996 35.3794V35.3822Z" fill="white"/>
<path d="M83.4867 24.3162L82.9387 24.3979C83.1223 24.3697 83.3059 24.3472 83.4895 24.3246L83.484 24.3162H83.4867Z" fill="white"/>
<path d="M114.682 73.9073C114.51 73.5528 114.334 73.1983 114.148 72.8494C114.334 73.2011 114.51 73.5528 114.682 73.9073Z" fill="white"/>
<path d="M117.5 82.6369C117.437 82.2711 117.366 81.9053 117.289 81.5396C117.366 81.9053 117.434 82.2711 117.5 82.6369Z" fill="white"/>
<path d="M117.277 81.3124C117.195 80.9381 117.11 80.5639 117.017 80.1953C117.11 80.5667 117.197 80.9409 117.277 81.3124Z" fill="white"/>
<path d="M115.753 76.3705C115.619 76.0244 115.476 75.6784 115.328 75.3323C115.476 75.6755 115.619 76.0216 115.753 76.3705Z" fill="white"/>
<path d="M116.636 78.8527C116.529 78.4925 116.414 78.1352 116.29 77.7778C116.411 78.1352 116.526 78.4925 116.636 78.8527Z" fill="white"/>
<path d="M116.986 80.1194C116.893 79.7592 116.794 79.4019 116.69 79.0474C116.794 79.4047 116.895 79.7621 116.986 80.1194Z" fill="white"/>
<path d="M117.924 90.5061C117.949 90.115 117.968 89.7267 117.981 89.3384C117.968 89.7267 117.949 90.1178 117.924 90.5061Z" fill="white"/>
<path d="M117.965 86.5232C117.946 86.1462 117.921 85.7691 117.888 85.3921C117.921 85.7663 117.946 86.1433 117.965 86.5232Z" fill="white"/>
<path d="M117.997 89.1356C118.008 88.7445 118.014 88.3562 118.008 87.9707C118.011 88.359 118.008 88.7473 117.997 89.1356Z" fill="white"/>
<path d="M114.116 72.7417C113.932 72.3984 113.746 72.058 113.549 71.7175C113.743 72.058 113.932 72.3984 114.116 72.7417Z" fill="white"/>
<path d="M113.468 71.5989C113.266 71.25 113.055 70.9011 112.841 70.5579C113.057 70.9039 113.266 71.25 113.468 71.5989Z" fill="white"/>
<path d="M117.924 90.6012C117.974 90.5138 118.021 90.4292 118.07 90.3418C118.023 90.4264 117.974 90.511 117.927 90.5956C117.927 90.5956 117.927 90.5984 117.927 90.6012H117.924Z" fill="white"/>
<path d="M52.6133 62.7515C52.6022 62.7148 52.5938 62.6725 52.5827 62.6331C52.5938 62.6725 52.6022 62.712 52.6133 62.7515Z" fill="white"/>
<path d="M53.309 43.9072C53.353 43.7803 53.397 43.6534 53.441 43.5237C53.3942 43.6506 53.353 43.7803 53.309 43.9072Z" fill="white"/>
<path d="M52.665 62.9912C52.6566 62.9601 52.6455 62.9235 52.6371 62.8896C52.6455 62.9235 52.6566 62.9573 52.665 62.9912Z" fill="white"/>
<path d="M52.33 61.586C52.3165 61.5268 52.3057 61.4676 52.2922 61.4055C52.3057 61.4647 52.3165 61.5268 52.33 61.586Z" fill="white"/>
<path d="M52.4181 61.9117C52.4073 61.8581 52.3937 61.8046 52.3829 61.751C52.3937 61.8046 52.4073 61.861 52.4181 61.9117Z" fill="white"/>
<path d="M52.4862 62.2102C52.4751 62.1679 52.4639 62.1228 52.4556 62.0776C52.4667 62.1228 52.4778 62.1679 52.4862 62.2102Z" fill="white"/>
<path d="M52.5588 62.491C52.5477 62.4515 52.5366 62.4064 52.5282 62.3669C52.5393 62.4092 52.5505 62.4515 52.5588 62.491Z" fill="white"/>
<path d="M119.304 88.0059C119.189 88.2253 119.074 88.4448 118.959 88.6643C119.077 88.4448 119.189 88.2253 119.304 88.0059Z" fill="white"/>
<path d="M52.164 60.7134C52.1532 60.6485 52.1397 60.5865 52.1288 60.5188C52.1397 60.5837 52.1532 60.6485 52.164 60.7134Z" fill="white"/>
<path d="M52.8382 63.579C52.8326 63.5596 52.8243 63.5374 52.8187 63.5151C52.8243 63.5374 52.8326 63.5568 52.8382 63.579Z" fill="white"/>
<path d="M52.908 63.7266C52.9024 63.7099 52.8969 63.6933 52.8913 63.6738C52.8969 63.6905 52.9024 63.7099 52.908 63.7266Z" fill="white"/>
<path d="M51.6205 52.735C51.6261 52.6307 51.6316 52.5235 51.6372 52.4192C51.6316 52.5263 51.6233 52.6307 51.6205 52.735Z" fill="white"/>
<path d="M51.6023 53.3314C51.6051 53.2299 51.6106 53.1256 51.6134 53.0212C51.6079 53.1256 51.6051 53.2299 51.6023 53.3314Z" fill="white"/>
<path d="M52.9387 63.8547C52.9387 63.8547 52.9304 63.8297 52.9276 63.8186C52.9332 63.8325 52.936 63.8436 52.9387 63.8547Z" fill="white"/>
<path d="M51.5841 53.9155C51.5841 53.8168 51.5869 53.7153 51.5897 53.6138C51.5897 53.7153 51.5841 53.814 51.5841 53.9155Z" fill="white"/>
<path d="M51.5897 55.0539C51.5897 54.958 51.5869 54.8649 51.5841 54.769C51.5841 54.8649 51.5841 54.9608 51.5897 55.0539Z" fill="white"/>
<path d="M51.6568 52.1273C51.6652 52.0201 51.6735 51.913 51.6819 51.803C51.6735 51.9101 51.6652 52.0201 51.6568 52.1273Z" fill="white"/>
<path d="M51.6107 55.6016C51.6079 55.5085 51.6051 55.4155 51.6023 55.3196C51.6023 55.4155 51.6079 55.5085 51.6107 55.6016Z" fill="white"/>
<path d="M51.7657 50.8888C51.7765 50.776 51.79 50.6632 51.8035 50.5476C51.79 50.6604 51.7765 50.776 51.7657 50.8888Z" fill="white"/>
<path d="M51.8889 59.0798C51.8781 59.0008 51.8673 58.9247 51.8565 58.8457C51.8673 58.9247 51.8781 59.0036 51.8889 59.0798Z" fill="white"/>
<path d="M53.8354 42.4993C53.8849 42.3724 53.9371 42.2455 53.9894 42.1187C53.9371 42.2455 53.8876 42.3724 53.8354 42.4993Z" fill="white"/>
<path d="M51.8326 58.6242C51.8215 58.5425 51.8131 58.4635 51.802 58.3789C51.8104 58.4607 51.8215 58.5425 51.8326 58.6242Z" fill="white"/>
<path d="M52.0341 59.93C52.0233 59.8595 52.0125 59.7918 52.0017 59.7185C52.0125 59.789 52.0233 59.8595 52.0341 59.93Z" fill="white"/>
<path d="M51.6162 56.1421C51.6107 56.0518 51.6079 55.9588 51.6023 55.8657C51.6051 55.9588 51.6107 56.049 51.6162 56.1421Z" fill="white"/>
<path d="M51.7935 58.1562C51.7852 58.0745 51.774 57.9899 51.7657 57.9053C51.774 57.9899 51.7824 58.0716 51.7935 58.1562Z" fill="white"/>
<path d="M51.6735 56.6634C51.6679 56.5732 51.6624 56.4857 51.6568 56.3955C51.6624 56.4857 51.6679 56.576 51.6735 56.6634Z" fill="white"/>
<path d="M51.6944 57.178C51.6861 57.0906 51.6805 57.006 51.6749 56.9158C51.6805 57.0032 51.6889 57.0906 51.6944 57.178Z" fill="white"/>
<path d="M51.9615 59.509C51.9507 59.4357 51.9399 59.3624 51.9291 59.2891C51.9399 59.3652 51.9507 59.4357 51.9615 59.509Z" fill="white"/>
<path d="M60.7345 31.8606C60.8688 31.7196 61.0058 31.5814 61.1428 31.4404C61.0058 31.5786 60.8688 31.7196 60.7345 31.8606Z" fill="white"/>
<path d="M60.0809 32.5572C60.2015 32.4218 60.3275 32.2893 60.4536 32.1567C60.3275 32.2893 60.2042 32.4246 60.0809 32.5572Z" fill="white"/>
<path d="M52.9696 63.9493C52.9696 63.9493 52.9668 63.9407 52.9639 63.9351C52.9639 63.9379 52.9668 63.9436 52.9696 63.9493Z" fill="white"/>
<path d="M126.221 66.6304C126.194 66.8723 126.164 67.1143 126.131 67.3563C126.161 67.1143 126.194 66.8723 126.221 66.6304Z" fill="white"/>
<path d="M125.17 72.5903C125.115 72.8182 125.063 73.0462 125.005 73.2769C125.063 73.049 125.118 72.8182 125.17 72.5903Z" fill="white"/>
<path d="M125.419 71.4282C125.366 71.6702 125.314 71.9122 125.259 72.157C125.314 71.915 125.366 71.6702 125.419 71.4282Z" fill="white"/>
<path d="M53.0729 44.61C53.1142 44.4802 53.1527 44.3533 53.1967 44.2236C53.1554 44.3533 53.1142 44.4802 53.0729 44.61Z" fill="white"/>
<path d="M62.1143 30.4721C62.3554 30.2442 62.6021 30.0162 62.8569 29.7883C62.6048 30.0162 62.3582 30.2442 62.1143 30.4721Z" fill="white"/>
<path d="M126.529 62.311C126.526 62.5136 126.52 62.719 126.512 62.9216C126.517 62.7162 126.523 62.5136 126.529 62.311Z" fill="white"/>
<path d="M126.47 63.3845C126.462 63.5899 126.45 63.7953 126.439 64.0035C126.45 63.7981 126.462 63.5899 126.47 63.3845Z" fill="white"/>
<path d="M126.415 64.458C126.402 64.669 126.386 64.8801 126.367 65.0911C126.383 64.8801 126.399 64.669 126.415 64.458Z" fill="white"/>
<path d="M126.342 65.543C126.323 65.7653 126.298 65.9847 126.276 66.207C126.298 65.9847 126.323 65.7624 126.342 65.543Z" fill="white"/>
<path d="M126.512 60.1736C126.517 60.379 126.526 60.5844 126.529 60.7898C126.526 60.5844 126.52 60.379 126.512 60.1736Z" fill="white"/>
<path d="M54.1077 41.7923C54.1627 41.6654 54.215 41.5385 54.2727 41.4116C54.2177 41.5385 54.1627 41.6654 54.1077 41.7923Z" fill="white"/>
<path d="M126.439 59.1001C126.45 59.3111 126.464 59.525 126.472 59.7388C126.464 59.525 126.45 59.3139 126.439 59.1001Z" fill="white"/>
<path d="M52.147 48.2997C52.1799 48.1253 52.2155 47.948 52.2511 47.7708C52.2155 47.948 52.1799 48.1225 52.147 48.2997Z" fill="white"/>
<path d="M121.089 84.4285C120.974 84.6817 120.859 84.9349 120.738 85.1882C120.856 84.9349 120.974 84.6817 121.089 84.4285Z" fill="white"/>
<path d="M52.4738 46.7428C52.5094 46.5905 52.545 46.4411 52.5834 46.2888C52.545 46.4411 52.5094 46.5934 52.4738 46.7428Z" fill="white"/>
<path d="M121.695 83.0518C121.555 83.3781 121.41 83.7045 121.265 84.0337C121.413 83.7073 121.555 83.381 121.695 83.0518Z" fill="white"/>
<path d="M56.3046 37.5174C56.384 37.3905 56.4635 37.2636 56.5429 37.1367C56.4635 37.2636 56.3813 37.3905 56.3046 37.5174Z" fill="white"/>
<path d="M124.577 74.875C124.517 75.0945 124.454 75.3168 124.388 75.5362C124.454 75.3168 124.514 75.0945 124.577 74.875Z" fill="white"/>
<path d="M52.855 45.3069C52.8933 45.1772 52.929 45.0446 52.9701 44.9121C52.929 45.0446 52.8933 45.1744 52.855 45.3069Z" fill="white"/>
<path d="M124.285 76.0137C124.219 76.236 124.15 76.4554 124.079 76.6777C124.148 76.4554 124.216 76.2331 124.285 76.0137Z" fill="white"/>
<path d="M52.6371 46.0139C52.6728 45.8785 52.7084 45.7403 52.7468 45.605C52.7084 45.7432 52.6728 45.8785 52.6371 46.0139Z" fill="white"/>
<path d="M123.542 78.2913C123.463 78.522 123.381 78.7527 123.298 78.9862C123.381 78.7555 123.463 78.522 123.542 78.2913Z" fill="white"/>
<path d="M123.883 77.1501C123.812 77.3752 123.735 77.6003 123.661 77.8226C123.735 77.5975 123.812 77.3724 123.883 77.1501Z" fill="white"/>
</svg>
