<svg width="250" height="250" viewBox="0 0 250 250" fill="none" xmlns="http://www.w3.org/2000/svg">
<path d="M114.684 134.851C118.486 134.851 122.288 133.389 126.382 130.318C131.208 126.955 135.448 124.176 135.448 124.176L136.911 123.153L135.448 122.129C134.863 121.69 71.2539 77.5294 64.6736 73.2888C61.6028 71.0953 58.0933 70.6566 55.315 71.9727C52.6829 73.2888 51.2206 76.0671 51.2206 79.4304V94.4919L51.8055 94.7844C52.2442 95.0768 95.9666 125.492 104.448 131.195C107.957 133.681 111.321 134.851 114.684 134.851Z" fill="#356AE6"/>
<path d="M199.935 108.384C196.133 105.605 59.7019 10.4105 53.8527 6.31605L51.9518 5V28.3966C51.9518 35.8542 55.8999 38.6326 60.7255 42.1421C60.7255 42.1421 165.425 115.11 178.44 124.03C165.425 133.096 66.8671 201.385 60.5792 205.333C53.1216 210.305 52.3904 213.522 52.3904 220.249V245.4C52.3904 245.4 196.718 142.163 199.789 139.823C206.369 134.851 207.831 129.002 207.978 124.761V122.129C208.124 116.865 205.346 112.186 199.935 108.384Z" fill="#356AE6"/>
</svg>
