<svg xmlns="http://www.w3.org/2000/svg" width="250" height="250" fill="none"><path fill="#000" d="M234.364 192.087c6.221 12.453-6.221 29.575-21.774 20.236 0 0-59.101-38.915-102.649-56.037l-26.44 49.81c-1.555 4.67-12.442 12.453-21.774 6.227-73.099-42.028-59.101-124.526 32.661-96.508l37.327-71.602c7.776-12.452 23.329-9.34 27.995 0l74.654 147.874ZM80.39 145.39c-59.1-17.122-27.995 23.349-15.552 31.132L80.39 145.39Zm101.094 10.896-37.327-70.045-20.219 42.027c13.998 4.67 45.104 21.792 57.546 28.018Z"/></svg>