<svg width="250" height="250" viewBox="0 0 250 250" fill="none" xmlns="http://www.w3.org/2000/svg">
<path d="M234.364 192.087C240.585 204.54 228.143 221.662 212.59 212.323C212.59 212.323 153.489 173.408 109.941 156.286L83.5009 206.096C81.9457 210.766 71.0586 218.549 61.7269 212.323C-11.3717 170.295 2.62594 87.7972 94.388 115.815L131.715 44.2133C139.491 31.7607 155.044 34.8739 159.71 44.2133L234.364 192.087ZM80.3904 145.39C21.2894 128.268 52.3952 168.739 64.8375 176.522L80.3904 145.39ZM181.484 156.286L144.157 86.2406L123.938 128.268C137.936 132.938 169.042 150.06 181.484 156.286Z" fill="black"/>
</svg>
