<svg width="250" height="250" viewBox="0 0 250 250" fill="none" xmlns="http://www.w3.org/2000/svg">
<path d="M27.6163 149.438L23.2558 168.7C23.2558 169.275 22.6744 169.562 22.093 169.562H1.16279C0.872093 169.562 0.290698 169.275 0.290698 168.987C0 168.7 0 168.412 0 168.125L27.6163 85.325C27.6163 85.325 28.1977 83.8875 29.9419 83.3125C36.0465 82.1625 45.6395 80.725 52.3256 79.575C53.7791 79.2875 54.3605 80.725 54.3605 80.725L81.3953 168.7C81.3953 168.988 81.3953 169.275 81.1047 169.562C80.8139 169.85 80.5233 169.85 80.2326 169.85H68.0233C64.8256 169.85 58.4302 170.138 56.1046 170.138C55.5233 170.138 54.9419 169.85 54.9419 169.275L50.5814 149.725L27.6163 149.438ZM47.093 132.475C45.3488 125.575 42.7326 113.212 40.1163 102.575C38.3721 110.05 34.3023 125.288 32.2674 132.475H47.093ZM109.012 112.062C123.837 102 136.337 104.3 142.442 110.337C149.709 117.812 145.64 127.588 147.965 168.7C147.965 168.988 147.965 169.275 147.674 169.562C147.384 169.85 147.093 169.85 146.802 169.85C144.477 169.85 140.116 169.562 138.081 169.562C134.593 169.562 127.326 169.85 124.419 169.85C124.128 169.85 123.837 169.85 123.547 169.562C123.256 169.275 123.256 168.988 123.256 168.7C123.547 128.45 123.837 122.987 116.57 122.987C113.953 122.987 111.919 124.138 109.593 125C109.593 145.7 109.884 151.738 110.756 168.412C110.756 168.7 110.756 168.987 110.465 168.987C110.174 169.275 109.884 169.275 109.884 169.275L86.6279 169.562C86.3372 169.562 86.0465 169.562 86.0465 169.275C85.7558 168.987 85.7558 168.7 85.7558 168.7C86.3372 108.613 85.7558 96.25 84.0116 83.6C83.1395 83.025 84.3023 83.025 84.3023 83.025C94.7674 81.5875 95.6395 81.3 107.558 79C107.558 79 108.721 79 108.721 80.4375C109.012 89.35 109.012 112.062 109.012 112.062ZM188.663 163.525C184.302 166.688 175.872 171 168.895 171C158.14 171 151.453 163.237 151.453 151.737C151.453 133.912 172.674 128.737 187.791 126.725C188.081 123.85 188.081 120.688 180.523 120.688C172.965 120.688 166.57 122.988 159.884 125.575C159.593 125.863 159.012 125.575 158.721 125.575C158.43 125.288 158.14 125 158.14 124.425L158.721 110.625C158.721 110.05 159.012 109.763 159.593 109.475C173.256 105.45 196.512 102.288 206.105 111.2C212.209 116.662 211.919 123.562 211.628 135.062C211.337 151.738 211.628 156.338 212.5 168.7C212.5 168.988 212.5 169.275 212.209 169.562C211.919 169.85 211.628 169.85 211.337 169.85L189.826 170.138C189.535 170.138 189.244 170.138 188.953 169.85C188.663 169.562 188.663 169.275 188.663 168.987V163.525ZM188.081 139.663C182.558 140.237 174.128 140.812 174.128 148C174.128 154.325 181.105 156.338 188.081 152.025V139.663ZM227.035 139.95C226.453 139.95 225.872 139.375 225.872 138.8C224.419 107.462 224.128 104.013 222.384 84.4625C222.384 83.8875 222.674 83.3125 223.547 83.025L246.802 79.2875C247.093 79.2875 247.674 79.2875 247.965 79.575C248.256 79.8625 248.256 80.15 248.256 80.725C246.802 94.8125 245.349 121.55 245.058 138.513C245.058 139.088 244.477 139.663 243.895 139.663L227.035 139.95ZM222.977 166.641C222.965 166.544 222.965 166.449 222.965 166.354C222.965 162.453 223.064 158.453 223.09 154.989C223.088 153.713 223.046 152.436 222.965 151.162C222.965 150.964 222.965 150.766 223.058 150.57C223.041 149.91 223.01 149.251 222.965 148.592C222.965 148.305 222.965 148.011 223.259 147.721C223.555 147.428 223.849 147.428 224.142 147.428C230.029 148.012 240.334 147.721 245.044 147.138C245.337 147.138 245.631 147.138 245.927 147.428C246.221 147.721 246.221 148.011 246.221 148.302C246.221 149.072 246.218 149.837 246.209 150.59C246.218 150.685 246.222 150.78 246.221 150.875V168.7C246.221 168.988 246.221 169.275 245.93 169.562C245.64 169.85 245.349 169.85 245.058 169.85C236.628 169.562 231.395 169.562 224.128 170.138C223.837 170.138 223.547 170.138 223.256 169.85C222.965 169.562 222.965 169.275 222.965 168.987C222.965 168.211 222.968 167.426 222.977 166.641Z" fill="#0073CF"/>
</svg>
