<svg width="250" height="250" viewBox="0 0 250 250" fill="none" xmlns="http://www.w3.org/2000/svg">
<g clip-path="url(#clip0_1789_6823)">
<path d="M114.347 39.3001L37.2431 71.7403C32.9554 73.5446 32.9998 79.7383 37.3144 81.4772L114.74 112.697C121.543 115.44 129.118 115.44 135.921 112.697L213.348 81.476C217.661 79.7383 217.708 73.5457 213.418 71.7415L136.316 39.299C129.282 36.3393 121.38 36.3393 114.346 39.299" fill="#FCB400"/>
<path d="M132.2 129.743V207.735C132.2 211.443 135.879 213.985 139.27 212.618L225.546 178.567C226.508 178.179 227.333 177.506 227.915 176.636C228.497 175.765 228.807 174.737 228.807 173.684V95.6939C228.807 91.9843 225.128 89.4443 221.737 90.8112L135.462 124.862C134.5 125.25 133.675 125.923 133.093 126.794C132.511 127.664 132.201 128.692 132.2 129.745" fill="#18BFFF"/>
<path d="M112.054 133.768L86.4489 146.339L83.8491 147.616L29.7992 173.949C26.3742 175.63 22 173.091 22 169.221V96.0208C22 94.6206 22.706 93.4118 23.6529 92.5026C24.0413 92.1093 24.482 91.7732 24.9621 91.5042C26.2526 90.7161 28.0949 90.5057 29.6613 91.1357L111.623 124.157C115.79 125.838 116.117 131.774 112.054 133.769" fill="#F82B60"/>
<path d="M112.054 133.768L86.4489 146.338L23.6529 92.5014C24.0414 92.1085 24.4821 91.7728 24.9621 91.5042C26.2526 90.7161 28.0949 90.5057 29.6613 91.1357L111.623 124.157C115.79 125.838 116.117 131.774 112.054 133.769" fill="black" fill-opacity="0.25"/>
</g>
<defs>
<clipPath id="clip0_1789_6823">
<rect width="207" height="176" fill="white" transform="translate(22 37)"/>
</clipPath>
</defs>
</svg>
