<svg width="250" height="250" viewBox="0 0 250 250" fill="none" xmlns="http://www.w3.org/2000/svg">
<path d="M57.1105 60.9434L44.0708 67.4645V181.916L57.1105 188.399L57.1889 188.305V61.0331L57.1105 60.9434Z" fill="#8C3123"/>
<path d="M126.897 171.787L57.1108 188.399V60.9434L126.897 77.193V171.787Z" fill="#E05243"/>
<path d="M95.3965 145.78L124.998 149.548L125.183 149.119L125.35 100.581L124.998 100.202L95.3965 103.915V145.78Z" fill="#8C3123"/>
<path d="M124.998 171.974L192.884 188.434L192.991 188.264L192.989 61.0572L192.881 60.9434L124.998 77.3795V171.974Z" fill="#8C3123"/>
<path d="M154.607 145.78L124.998 149.548V100.202L154.607 103.915V145.78Z" fill="#E05243"/>
<path d="M154.607 83.67L124.998 89.0663L95.3965 83.67L124.96 75.921L154.607 83.67Z" fill="#5E1F18"/>
<path d="M154.607 165.971L124.998 160.539L95.3965 165.971L124.961 174.224L154.607 165.971Z" fill="#F2B0A9"/>
<path d="M95.3965 83.6699L124.998 76.3446L125.237 76.2706V27.1979L124.998 27L95.3965 41.8031V83.6699Z" fill="#8C3123"/>
<path d="M154.607 83.6699L124.998 76.3446V27L154.607 41.8031V83.6699Z" fill="#E05243"/>
<path d="M124.998 222.638L95.3936 207.84V165.974L124.998 173.297L125.433 173.792L125.315 221.784L124.998 222.638Z" fill="#8C3123"/>
<path d="M124.998 222.638L154.604 207.84V165.974L124.998 173.297V222.638ZM192.884 60.9434L205.929 67.4645V181.916L192.884 188.434V60.9434Z" fill="#E05243"/>
</svg>
