<svg width="250" height="250" viewBox="0 0 250 250" fill="none" xmlns="http://www.w3.org/2000/svg">
<g clip-path="url(#clip0_1789_6825)">
<path d="M45.2336 89.692L39.9956 91.0662V113.198H45.2336V89.692Z" fill="#456327"/>
<path d="M64.3103 113.958L45.2336 113.198V89.692L64.3103 91.5027V113.958Z" fill="#689E2F"/>
<path d="M125 28.3071V221.693L210.004 181.082V68.4328L125 28.3071Z" fill="#689E2F"/>
<path d="M71.3913 68.4329L57.2131 73.2344V110.951H71.3913V68.4329Z" fill="#456327"/>
<path d="M101.009 72.5069L71.3914 68.4329V110.951H101.009V72.5069Z" fill="#689E2F"/>
<path d="M45.2336 137.384H39.9956V159.289L45.2336 160.195V137.384Z" fill="#456327"/>
<path d="M64.3103 136.705L45.2336 137.384V160.195L64.3103 158.837V136.705Z" fill="#689E2F"/>
<path d="M71.3913 140.261L57.2131 138.806V176.523L71.3913 181.567V140.261Z" fill="#456327"/>
<path d="M101.009 177.315L71.3914 181.567V140.261L101.009 138.806V177.315Z" fill="#689E2F"/>
<path d="M57.2131 138.806L86.2161 137.384L101.009 138.434L71.3913 140.261L57.2131 138.806Z" fill="#B5CC9A"/>
<path d="M57.2131 110.951L80.5578 112.309H94.6228L92.2948 110.951H71.3913H57.2131Z" fill="#28381B"/>
<path d="M89.1746 44.8941L125 28.3071V221.693L89.1746 204.637V44.8941Z" fill="#456327"/>
</g>
<defs>
<clipPath id="clip0_1789_6825">
<rect width="194" height="194" fill="white" transform="translate(28 28)"/>
</clipPath>
</defs>
</svg>
