<svg width="250" height="250" viewBox="0 0 250 250" fill="none" xmlns="http://www.w3.org/2000/svg">
<g clip-path="url(#clip0_1789_6826)">
<path d="M125.5 176.625L200.68 194.461V54.1416L125.5 71.9784V176.625Z" fill="#205B97"/>
<path d="M200.68 54.1416L215 61.2763V187.327L200.68 194.461V54.1416ZM125.5 176.625L50.3201 194.461V54.1416L125.5 71.9784V176.625Z" fill="#5193CE"/>
<path d="M50.32 54.1416L36 61.2763V187.327L50.32 194.461V54.1416Z" fill="#205B97"/>
<path d="M144.597 223L173.237 208.731V40.2694L144.597 26L135.841 119.547L144.597 223Z" fill="#5193CE"/>
<path d="M106.403 223L77.7629 208.731V40.2694L106.403 26L115.159 119.547L106.403 223Z" fill="#205B97"/>
<path d="M106.403 26H144.985V222.602H106.403V26Z" fill="#2E73B7"/>
</g>
<defs>
<clipPath id="clip0_1789_6826">
<rect width="179" height="197" fill="white" transform="translate(36 26)"/>
</clipPath>
</defs>
</svg>
