<svg width="250" height="250" viewBox="0 0 250 250" fill="none" xmlns="http://www.w3.org/2000/svg">
<path d="M113.247 69.7158C113.061 69.3997 112.802 69.1337 112.493 68.9401C112.184 68.7465 111.833 68.6312 111.47 68.6038C110.978 68.6277 110.504 68.7943 110.104 69.0838C105.077 73.2318 98.1936 90.8318 92.553 114.02L97.5444 114.084C107.409 114.196 117.589 114.32 127.659 114.484C124.999 103.86 122.514 94.7558 120.194 87.4118C118.538 81.2699 116.208 75.3343 113.247 69.7158Z" fill="#007FD2"/>
<path d="M124.45 25C72.2869 25 30 69.464 30 124.312C30 179.16 72.2869 223.616 124.45 223.616C176.613 223.616 218.9 179.156 218.9 124.312C218.9 69.468 176.609 25 124.45 25ZM192.347 126.108L192.323 126.132C192.224 126.212 192.121 126.3 192.011 126.376L191.908 126.456L191.686 126.592C191.618 126.637 191.548 126.678 191.476 126.716C190.766 127.112 189.968 127.32 189.157 127.32H144.396C144.76 128.876 145.152 130.648 145.583 132.576C148.034 143.716 154.545 173.308 161.464 173.308H161.82C167.231 173.308 169.986 165.092 176.031 147.092L176.106 146.868C177.08 143.976 178.172 140.716 179.364 137.268L179.665 136.384C179.836 135.907 180.167 135.505 180.601 135.249C181.035 134.993 181.544 134.899 182.04 134.984C182.541 135.089 182.991 135.365 183.315 135.765C183.638 136.166 183.816 136.667 183.817 137.184C183.817 137.405 183.786 137.624 183.726 137.836L183.472 138.72C182.843 140.864 182.174 143.784 181.398 147.16C177.796 162.864 172.35 186.584 158.385 186.584H158.282C149.261 186.508 143.873 171.34 141.554 164.86C137.239 152.752 133.966 139.84 130.831 127.344H89.664L81.114 156.096L80.9833 155.992C80.5002 156.816 79.7594 157.454 78.8778 157.805C77.9963 158.156 77.0241 158.201 76.1146 157.932C75.1975 157.637 74.3977 157.054 73.8316 156.267C73.2656 155.481 72.9629 154.532 72.9677 153.56V153.404L73.4862 150.152C74.6737 142.764 76.079 135.084 77.6979 127.328H60.3406L60.2773 127.26C58.7264 126.959 57.3253 126.128 56.3094 124.906C55.2935 123.684 54.7248 122.147 54.6988 120.551C54.6728 118.955 55.1911 117.399 56.1666 116.145C57.1421 114.89 58.5154 114.012 60.0556 113.66C60.7297 113.584 61.4082 113.555 62.0863 113.572H62.9333C68.4473 113.672 74.3135 113.76 80.7062 113.844C89.7708 75.068 100.3 55.36 111.969 55.32C124.481 55.32 133.764 85.284 141.19 114.592L141.221 114.712C156.492 115.036 172.765 115.512 188.583 116.712L189.248 116.776C189.501 116.783 189.753 116.806 190.004 116.844H190.217C191.167 117.056 192.038 117.538 192.726 118.234C193.413 118.929 193.891 119.808 194.101 120.768C194.324 121.735 194.279 122.745 193.969 123.688C193.66 124.63 193.098 125.468 192.347 126.108Z" fill="#007FD2"/>
</svg>
