<svg width="250" height="250" viewBox="0 0 250 250" fill="none" xmlns="http://www.w3.org/2000/svg">
<g clip-path="url(#clip0_1789_6891)">
<path d="M167.675 137.813C158.317 137.813 149.928 141.949 144.183 148.46L129.463 138.064C131.025 133.772 131.922 129.163 131.922 124.339C131.922 119.599 131.056 115.067 129.545 110.839L144.233 100.552C149.977 107.031 158.345 111.144 167.675 111.144C184.946 111.144 199 97.1263 199 79.8936C199 62.6608 184.946 48.6429 167.675 48.6429C150.403 48.6429 136.35 62.6608 136.35 79.8936C136.35 82.978 136.817 85.9523 137.655 88.7692L122.957 99.0607C116.818 91.462 107.978 86.1565 97.9056 84.537V66.8653C112.095 63.8922 122.786 51.315 122.786 36.2866C122.786 19.0539 108.733 5.03601 91.4612 5.03601C74.1898 5.03601 60.1361 19.0539 60.1361 36.2866C60.1361 51.1137 70.5505 63.5358 84.4561 66.7212V84.6223C65.4786 87.9456 51 104.468 51 124.339C51 144.307 65.6219 160.89 84.7365 164.1V183.003C70.6886 186.083 60.1361 198.581 60.1361 213.509C60.1361 230.742 74.1898 244.76 91.4612 244.76C108.733 244.76 122.786 230.742 122.786 213.509C122.786 198.581 112.234 186.083 98.186 183.003V164.1C107.861 162.474 116.614 157.395 122.814 149.81L137.633 160.274C136.811 163.066 136.35 166.01 136.35 169.064C136.35 186.296 150.403 200.314 167.675 200.314C184.946 200.314 199 186.296 199 169.064C199 151.831 184.946 137.813 167.675 137.813ZM167.675 64.7418C176.05 64.7418 182.862 71.5405 182.862 79.8936C182.862 88.2466 176.05 95.0448 167.675 95.0448C159.3 95.0448 152.488 88.2466 152.488 79.8936C152.488 71.5405 159.3 64.7418 167.675 64.7418ZM76.2733 36.2866C76.2733 27.9336 83.0859 21.1354 91.4612 21.1354C99.8365 21.1354 106.649 27.9336 106.649 36.2866C106.649 44.6397 99.8365 51.4379 91.4612 51.4379C83.0859 51.4379 76.2733 44.6397 76.2733 36.2866ZM106.649 213.509C106.649 221.862 99.8365 228.66 91.4612 228.66C83.0859 228.66 76.2733 221.862 76.2733 213.509C76.2733 205.156 83.0859 198.358 91.4612 198.358C99.8365 198.358 106.649 205.156 106.649 213.509ZM91.4601 145.47C79.7791 145.47 70.2764 135.992 70.2764 124.339C70.2764 112.686 79.7791 103.206 91.4601 103.206C103.141 103.206 112.643 112.686 112.643 124.339C112.643 135.992 103.141 145.47 91.4601 145.47ZM167.675 184.216C159.3 184.216 152.488 177.417 152.488 169.064C152.488 160.711 159.3 153.913 167.675 153.913C176.05 153.913 182.862 160.711 182.862 169.064C182.862 177.417 176.05 184.216 167.675 184.216Z" fill="black"/>
</g>
<defs>
<clipPath id="clip0_1789_6891">
<rect width="148" height="240" fill="white" transform="translate(51 5)"/>
</clipPath>
</defs>
</svg>
