<svg width="250" height="250" viewBox="0 0 250 250" fill="none" xmlns="http://www.w3.org/2000/svg">
<path d="M53.4135 45.9593C49.82 46.4449 46.3582 47.6299 43.2264 49.4465C40.0946 51.263 37.3544 53.6754 35.1626 56.5455C32.9708 59.4156 31.3706 62.687 30.4536 66.1723C29.5366 69.6576 29.3208 73.2883 29.8186 76.8566L46.1326 192.572L114.763 37.4432L53.4135 45.9593Z" fill="#97D700"/>
<path d="M218.966 142.374L212.547 53.4055C212.01 46.1713 208.608 39.4434 203.088 34.695C197.567 29.9466 190.377 27.5649 183.092 28.0714C182.466 28.0934 181.842 28.1602 181.225 28.2711L154.758 31.8943L212.949 161.489C217.321 156.105 219.472 149.273 218.966 142.374Z" fill="#71C5E8"/>
<path d="M71.1636 220.716C75.8745 221.253 80.6449 220.565 85.0075 218.719L184.931 176.838L137.324 71.0223L71.1636 220.716Z" fill="#FF9013"/>
</svg>
