<svg width="250" height="250" viewBox="0 0 250 250" fill="none" xmlns="http://www.w3.org/2000/svg">
<g clip-path="url(#clip0_2108_3963)">
<path fill-rule="evenodd" clip-rule="evenodd" d="M119.091 191.224H138.476L85.5439 59.3171H59.9244L7 191.224H26.4754C28.3981 191.286 30.2807 190.671 31.7882 189.486C33.132 188.521 34.1659 187.192 34.7658 185.658L44.8323 158.745H100.644L110.71 185.658C111.326 187.235 112.354 188.62 113.688 189.673C115.116 190.7 116.922 191.224 119.091 191.224ZM94.2122 141.412H51.2636L67.6631 97.7207C68.4642 95.7132 69.2729 93.3687 70.0815 90.6946C70.9506 88.0205 71.8197 85.1292 72.6888 82.0282C73.5579 85.1292 74.427 88.0205 75.2961 90.6946C76.2257 93.3088 77.0721 95.5859 77.8127 97.5334L94.2122 141.412ZM241.521 78.8372V59.3171H156.545V191.224H181.795V137.495H232.202V117.877H181.795V78.8372H241.521Z" fill="url(#paint0_linear_2108_3963)"/>
</g>
<defs>
<linearGradient id="paint0_linear_2108_3963" x1="358.91" y1="57.8565" x2="360.899" y2="203.284" gradientUnits="userSpaceOnUse">
<stop stop-color="#24374C"/>
<stop offset="1" stop-color="#1C242C"/>
</linearGradient>
<clipPath id="clip0_2108_3963">
<rect width="235" height="133" fill="white" transform="translate(7 59)"/>
</clipPath>
</defs>
</svg>
