<svg width="250" height="250" viewBox="0 0 250 250" fill="none" xmlns="http://www.w3.org/2000/svg">
<g clip-path="url(#clip0_1789_7002)">
<path d="M30 73.1818C30 49.3332 49.3332 30 73.1818 30H176.818C200.667 30 220 49.3332 220 73.1818V176.818C220 200.667 200.667 220 176.818 220H73.1818C49.3332 220 30 200.667 30 176.818V73.1818Z" fill="url(#paint0_linear_1789_7002)"/>
<path d="M91.787 168.325L91.8047 168.331L85.3946 179.433C83.0548 183.486 77.8723 184.875 73.8196 182.535C69.7671 180.195 68.3784 175.013 70.7182 170.96L75.4403 162.781L75.8935 161.996C76.7028 160.833 78.7 158.825 82.695 159.202C82.695 159.202 92.0961 160.223 92.7764 165.109C92.7766 165.109 92.8693 166.717 91.787 168.325ZM182.705 139.967H162.715C161.354 139.876 160.76 139.39 160.526 139.108L160.512 139.082L139.114 102.02L139.086 102.038L137.803 100.198C135.7 96.9823 132.36 105.208 132.36 105.208C128.373 114.374 132.926 124.795 134.513 127.945L164.234 179.422C166.573 183.474 171.756 184.863 175.808 182.523C179.861 180.184 181.25 175.001 178.91 170.948L171.478 158.076C171.334 157.765 171.083 156.917 172.608 156.914H182.705C187.384 156.914 191.178 153.12 191.178 148.441C191.178 143.761 187.384 139.967 182.705 139.967ZM143.879 151.487C143.879 151.487 144.946 156.914 140.818 156.914H136.689V156.914H66.9236C62.2439 156.914 58.4502 153.12 58.4502 148.441C58.4502 143.761 62.2439 139.967 66.9236 139.967H85.921C88.9881 139.79 89.7152 138.019 89.7152 138.019L89.7319 138.028L114.53 95.0762L114.522 95.0747C114.975 94.2449 114.598 93.461 114.533 93.3369L106.343 79.1524C104.003 75.0997 105.392 69.9173 109.445 67.5776C113.497 65.2377 118.679 66.6263 121.019 70.679L124.818 77.2578L128.609 70.6907C130.949 66.638 136.131 65.2493 140.184 67.5893C144.236 69.9292 145.625 75.1115 143.285 79.1641L108.778 138.932C108.627 139.296 108.581 139.867 109.704 139.967H130.33L130.334 140.168C130.334 140.168 142.256 140.354 143.879 151.487Z" fill="white"/>
</g>
<defs>
<linearGradient id="paint0_linear_1789_7002" x1="125" y1="220" x2="125" y2="30" gradientUnits="userSpaceOnUse">
<stop stop-color="#1D76F2"/>
<stop offset="1" stop-color="#1AC2FB"/>
</linearGradient>
<clipPath id="clip0_1789_7002">
<rect width="190" height="190" fill="white" transform="translate(30 30)"/>
</clipPath>
</defs>
</svg>
