<svg width="250" height="250" viewBox="0 0 250 250" fill="none" xmlns="http://www.w3.org/2000/svg">
<g clip-path="url(#clip0_1789_6830)">
<path d="M182.636 130.118C158.13 130.118 138.267 150.236 138.267 175.052C138.267 199.871 158.13 219.993 182.636 219.993C207.138 219.993 227 199.871 227 175.052C227 150.236 207.138 130.118 182.636 130.118ZM67.3665 130.12C42.8645 130.122 23 150.236 23 175.054C23 199.871 42.8645 219.991 67.3665 219.991C91.8704 219.991 111.735 199.871 111.735 175.054C111.735 150.235 91.8704 130.12 67.3643 130.12H67.3665ZM169.367 73.9473C169.367 98.764 149.504 118.888 125.002 118.888C100.496 118.888 80.6336 98.764 80.6336 73.9473C80.6336 49.1305 100.496 29.0109 125.002 29.0109C149.504 29.0109 169.364 49.1305 169.364 73.9473H169.367Z" fill="url(#paint0_radial_1789_6830)"/>
</g>
<defs>
<radialGradient id="paint0_radial_1789_6830" cx="0" cy="0" r="1" gradientUnits="userSpaceOnUse" gradientTransform="translate(125.028 133.506) scale(135.252 126.621)">
<stop stop-color="#FFB900"/>
<stop offset="0.6" stop-color="#F95D8F"/>
<stop offset="0.999" stop-color="#F95353"/>
</radialGradient>
<clipPath id="clip0_1789_6830">
<rect width="204" height="191" fill="white" transform="translate(23 29)"/>
</clipPath>
</defs>
</svg>
