<svg width="250" height="250" viewBox="0 0 250 250" fill="none" xmlns="http://www.w3.org/2000/svg">
<path fill-rule="evenodd" clip-rule="evenodd" d="M119.812 29.0664C116.032 29.3609 110.957 29.9859 108.102 30.5082C69.201 37.627 38.3873 67.8396 30.6892 106.411C29.1937 113.904 28.9998 116.091 29 125.452C29.0002 134.034 29.0853 135.263 30.1088 141.48C34.3763 167.404 49.7222 191.073 71.7494 205.705C120.911 238.363 187.231 220.152 212.784 166.978C217.412 157.347 220.071 148.131 221.67 136.177C222.168 132.453 222.084 117.815 221.541 113.762C215.522 68.8268 180.908 34.6471 136.236 29.527C133.035 29.1601 122.427 28.8625 119.812 29.0664ZM119.45 98.9387C119.45 109.478 119.516 118.1 119.595 118.1C119.675 118.1 120.517 117.382 121.467 116.504C126.681 111.683 131.711 109.591 139.635 108.949C149.719 108.132 158.823 111.638 165.908 119.069C183.02 137.013 174.473 166.743 150.453 172.828C133.714 177.07 116.69 168.564 111.593 153.413C109.841 148.202 109.949 150.703 109.856 113.34L109.772 79.777H114.611H119.45V98.9387ZM84.067 83.0564C90.0261 86.9861 94.4636 91.9693 97.1269 97.7217C98.5635 100.825 105.004 120.787 104.674 121.116C104.502 121.288 93.7779 119.412 92.1602 118.927C83.656 116.376 79.8631 113.66 72.4983 104.844C68.2161 99.7181 63.7296 95.2524 57.2886 89.7044C56.779 89.2655 56.4177 88.8507 56.4858 88.7825C56.5542 88.7145 57.9188 88.8808 59.5189 89.152C64.4063 89.9804 71.5532 92.5153 78.2705 95.8031C84.9351 99.0652 88.7188 102.004 95.892 109.489C97.8792 111.562 99.5443 113.22 99.5921 113.172C99.6402 113.124 98.2164 110.147 96.4284 106.557C91.397 96.4534 86.9156 89.2995 81.7122 83.0646C80.55 81.6717 79.5989 80.462 79.5989 80.3759C79.5989 80.1773 80.7326 80.8575 84.067 83.0564ZM139.255 118.117C128.74 119.163 120.961 126.632 119.094 137.474C116.961 149.865 124.041 161.154 135.994 164.421C138.84 165.199 144.968 165.199 148.069 164.422C159.192 161.632 166.073 151.364 164.851 139.376C163.452 125.648 152.767 116.774 139.255 118.117ZM198.187 199.199C198.187 200.047 198.191 200.05 199.274 200.05H200.36V203.183V206.317H201.326H202.293V203.183V200.05H203.515H204.738L204.663 199.266L204.587 198.483L201.387 198.416L198.187 198.349V199.199ZM205.835 198.523C205.746 198.612 205.674 200.401 205.674 202.5V206.317H206.519H207.365V204.013C207.365 201.355 207.464 201.332 208.735 203.681C209.968 205.96 210.473 205.937 211.781 203.545C213.125 201.086 213.161 201.094 213.161 203.858V206.317H213.886H214.61V202.34V198.363H214.026C212.974 198.363 212.682 198.635 211.539 200.684C210.917 201.798 210.306 202.675 210.18 202.633C210.053 202.591 209.461 201.695 208.864 200.641C208.266 199.587 207.658 198.644 207.511 198.547C207.176 198.325 206.05 198.309 205.835 198.523Z" fill="#73C41D"/>
</svg>
