<svg width="250" height="250" viewBox="0 0 250 250" fill="none" xmlns="http://www.w3.org/2000/svg">
<g clip-path="url(#clip0_1789_6837)">
<path d="M129.633 137.737H153.727C160.579 137.737 164.914 133.967 164.914 127.909C164.914 122.197 160.579 118.081 153.727 118.081H129.633C128.835 118.081 128.152 118.764 128.152 119.455V136.363C128.26 137.161 128.828 137.737 129.633 137.737ZM129.633 176.696H154.525C162.175 176.696 166.741 172.81 166.741 165.954C166.741 160.011 162.405 155.212 154.525 155.212H129.633C128.835 155.212 128.152 155.896 128.152 156.587V175.214C128.26 176.127 128.828 176.696 129.633 176.696Z" fill="#34313F"/>
<path d="M217.783 29.4223L146.53 100.491H158.178C176.332 100.491 187.067 111.916 187.067 124.369C187.067 134.197 180.445 141.392 173.363 144.594C172.22 145.054 172.22 146.651 173.478 147.104C181.696 150.306 187.52 158.875 187.52 168.925C187.52 183.091 178.044 194.401 159.659 194.401H109.192C108.394 194.401 107.712 193.718 107.712 193.027V139.211L29.4914 217.144C28.4632 218.173 29.1461 220 30.6347 220H218.696C219.379 220 219.954 219.432 219.954 218.741V30.4512C220.292 29.192 218.696 28.5086 217.783 29.4223Z" fill="#34313F"/>
</g>
<defs>
<clipPath id="clip0_1789_6837">
<rect width="191" height="191" fill="white" transform="translate(29 29)"/>
</clipPath>
</defs>
</svg>
