<svg width="250" height="250" viewBox="0 0 250 250" fill="none" xmlns="http://www.w3.org/2000/svg">
<path d="M69.2776 203.278L28.8824 133.309C27.3294 130.619 26.5117 127.567 26.5117 124.461C26.5117 121.355 27.3294 118.303 28.8824 115.613L69.2776 45.6457C70.8309 42.9553 73.0651 40.7211 75.7555 39.1679C78.446 37.6147 81.498 36.7971 84.6046 36.7972H165.395C168.501 36.7973 171.553 37.6151 174.243 39.1683C176.933 40.7215 179.167 42.9555 180.72 45.6457L221.115 115.613C222.669 118.303 223.487 121.355 223.487 124.462C223.487 127.568 222.669 130.62 221.115 133.31L180.72 203.278C179.167 205.968 176.933 208.201 174.243 209.754C171.553 211.307 168.501 212.125 165.395 212.125H84.6046C81.4979 212.125 78.4459 211.307 75.7554 209.754C73.0649 208.201 70.8308 205.967 69.2776 203.276V203.278Z" fill="url(#paint0_linear_1789_7026)"/>
<path opacity="0.07" fill-rule="evenodd" clip-rule="evenodd" d="M207.621 156.686L180.721 203.278C179.168 205.968 176.934 208.201 174.244 209.754C171.554 211.307 168.502 212.125 165.396 212.125H162.201L100.282 150.206L93.1465 124.462L102.021 101.341L125.001 92.7998L150.585 99.6462L207.621 156.686Z" fill="black"/>
<path d="M125.001 88.7659C105.288 88.7659 89.3066 104.747 89.3066 124.461C89.3066 144.174 105.288 160.155 125.001 160.155C144.713 160.155 160.693 144.174 160.693 124.461C160.693 104.747 144.712 88.7659 125.001 88.7659ZM125.001 151.544C110.043 151.544 97.9166 139.418 97.9166 124.46C97.9166 109.502 110.043 97.3774 125.001 97.3774C139.958 97.3774 152.085 109.504 152.085 124.461C152.085 139.419 139.958 151.545 125.001 151.545" fill="white"/>
<path d="M108.059 123.083V134.178C109.7 136.996 112.016 139.362 114.799 141.064V123.083H108.059ZM121.424 113.729V143.6C122.57 143.811 123.743 143.939 124.948 143.939C126.046 143.939 127.117 143.823 128.168 143.648V113.729H121.424ZM135.413 127.693V140.869C138.24 139.071 140.561 136.582 142.157 133.636V127.695L135.413 127.693ZM150.687 146.447L146.989 150.148C146.676 150.462 146.5 150.887 146.5 151.331C146.5 151.774 146.676 152.199 146.989 152.513L161.015 166.535C161.329 166.849 161.755 167.025 162.198 167.025C162.642 167.025 163.067 166.849 163.381 166.535L167.079 162.839C167.39 162.524 167.564 162.1 167.564 161.657C167.564 161.215 167.39 160.79 167.079 160.475L153.05 146.447C152.736 146.135 152.311 145.96 151.868 145.96C151.426 145.96 151.001 146.135 150.687 146.447Z" fill="white"/>
<defs>
<linearGradient id="paint0_linear_1789_7026" x1="125" y1="36.7988" x2="125" y2="211.852" gradientUnits="userSpaceOnUse">
<stop stop-color="#4387FD"/>
<stop offset="1" stop-color="#4683EA"/>
</linearGradient>
</defs>
</svg>
