<svg width="250" height="250" viewBox="0 0 250 250" fill="none" xmlns="http://www.w3.org/2000/svg">
<g clip-path="url(#clip0_1789_6839)">
<path d="M122.986 91.9104C122.954 92.1697 122.954 92.464 122.954 92.753C122.954 93.8765 123.174 94.9567 123.571 95.9505L123.926 96.6959L125.33 100.358L132.623 119.325L138.983 135.888C140.797 139.231 143.703 141.856 147.208 143.255L148.296 143.663C148.339 143.676 148.41 143.676 148.469 143.692L165.901 149.804V149.818L172.566 152.151L173.022 152.308C173.037 152.308 173.064 152.324 173.08 152.324C174.394 152.661 175.681 153.115 176.91 153.669C179.753 154.919 182.33 156.701 184.531 158.875C185.419 159.74 186.234 160.671 186.989 161.665C187.632 162.5 188.22 163.377 188.748 164.29C191.074 168.228 192.409 172.857 192.409 177.785C192.409 178.666 192.367 179.516 192.279 180.381C192.25 180.761 192.205 181.129 192.15 181.493V181.523C192.091 181.909 192.02 182.309 191.948 182.701C191.874 183.081 191.805 183.459 191.72 183.838C191.707 183.881 191.691 183.927 191.675 183.97C191.596 184.353 191.495 184.731 191.392 185.112C191.299 185.471 191.183 185.841 191.053 186.19C190.939 186.571 190.805 186.946 190.653 187.313C190.523 187.691 190.369 188.075 190.197 188.437C189.726 189.547 189.164 190.613 188.534 191.632C187.721 192.969 186.793 194.23 185.76 195.399C193.94 186.433 199.378 174.855 200.732 162.043C200.96 159.942 201.076 157.811 201.076 155.667C201.076 154.298 201.018 152.942 200.931 151.581C199.9 136.217 193.04 122.476 182.568 112.67C179.681 109.945 176.526 107.52 173.133 105.462L166.722 102.122L134.239 85.1264C133.24 84.6899 132.165 84.4657 131.078 84.4674C126.872 84.4674 123.399 87.7379 122.986 91.9104Z" fill="#7F7F7F"/>
<path d="M122.986 91.9104C122.954 92.1697 122.954 92.464 122.954 92.753C122.954 93.8765 123.174 94.9567 123.571 95.9505L123.926 96.6959L125.33 100.358L132.623 119.325L138.983 135.888C140.797 139.231 143.703 141.856 147.208 143.255L148.296 143.663C148.339 143.676 148.41 143.676 148.469 143.692L165.901 149.804V149.818L172.566 152.151L173.022 152.308C173.037 152.308 173.064 152.324 173.08 152.324C174.394 152.661 175.681 153.115 176.91 153.669C179.753 154.919 182.33 156.701 184.531 158.875C185.419 159.74 186.234 160.671 186.989 161.665C187.632 162.5 188.22 163.377 188.748 164.29C191.074 168.228 192.409 172.857 192.409 177.785C192.409 178.666 192.367 179.516 192.279 180.381C192.25 180.761 192.205 181.129 192.15 181.493V181.523C192.091 181.909 192.02 182.309 191.948 182.701C191.874 183.081 191.805 183.459 191.72 183.838C191.707 183.881 191.691 183.927 191.675 183.97C191.596 184.353 191.495 184.731 191.392 185.112C191.299 185.471 191.183 185.841 191.053 186.19C190.939 186.571 190.805 186.946 190.653 187.313C190.523 187.691 190.369 188.075 190.197 188.437C189.726 189.547 189.164 190.613 188.534 191.632C187.721 192.969 186.793 194.23 185.76 195.399C193.94 186.433 199.378 174.855 200.732 162.043C200.96 159.942 201.076 157.811 201.076 155.667C201.076 154.298 201.018 152.942 200.931 151.581C199.9 136.217 193.04 122.476 182.568 112.67C179.681 109.945 176.526 107.52 173.133 105.462L166.722 102.122L134.239 85.1264C133.24 84.6899 132.165 84.4657 131.078 84.4674C126.872 84.4674 123.399 87.7379 122.986 91.9104Z" fill="url(#paint0_linear_1789_6839)"/>
<path d="M65.146 17C60.5237 17.0837 56.8125 20.9402 56.8125 25.6556V176.638C56.831 177.691 56.8893 178.731 56.9635 179.787C57.0297 180.343 57.1012 180.921 57.2019 181.483C59.3131 193.6 69.6545 202.796 82.1416 202.796C86.5203 202.796 90.6261 201.659 94.2181 199.682C94.2393 199.666 94.2764 199.644 94.2949 199.644L95.5876 198.848L100.827 195.704L107.492 191.672L107.508 57.5231C107.508 48.6083 103.132 40.7494 96.4326 36.08C96.2737 35.9828 96.12 35.8802 95.9796 35.7641L70.0466 18.4746C68.7327 17.5887 67.1486 17.0324 65.4507 17H65.146Z" fill="#7F7F7F"/>
<path d="M65.146 17C60.5237 17.0837 56.8125 20.9402 56.8125 25.6556V176.638C56.831 177.691 56.8893 178.731 56.9635 179.787C57.0297 180.343 57.1012 180.921 57.2019 181.483C59.3131 193.6 69.6545 202.796 82.1416 202.796C86.5203 202.796 90.6261 201.659 94.2181 199.682C94.2393 199.666 94.2764 199.644 94.2949 199.644L95.5876 198.848L100.827 195.704L107.492 191.672L107.508 57.5231C107.508 48.6083 103.132 40.7494 96.4326 36.08C96.2737 35.9828 96.12 35.8802 95.9796 35.7641L70.0466 18.4746C68.7327 17.5887 67.1486 17.0324 65.4507 17H65.146Z" fill="url(#paint1_linear_1789_6839)"/>
<path d="M167.975 154.933L108.35 190.965L107.492 191.491V191.683L100.827 195.707L95.5901 198.859L94.3054 199.65L94.2179 199.693C90.6339 201.678 86.5254 202.801 82.1494 202.801C69.665 202.801 59.3103 193.611 57.207 181.488C58.2057 190.357 61.1698 198.613 65.6412 205.805C74.8489 220.623 90.4194 230.931 108.432 232.722H119.446C129.189 231.685 137.324 227.707 145.875 222.335L159.024 214.136C164.947 210.266 181.024 200.746 185.76 195.404C186.79 194.235 187.72 192.982 188.533 191.64C189.164 190.619 189.725 189.552 190.197 188.442C190.356 188.064 190.507 187.697 190.652 187.321C190.79 186.949 190.92 186.573 191.052 186.193C191.299 185.463 191.495 184.731 191.683 183.978C191.778 183.549 191.866 183.125 191.953 182.703C192.239 181.113 192.395 179.479 192.395 177.785C192.395 172.857 191.06 168.228 188.748 164.296C188.218 163.377 187.635 162.5 186.989 161.671C186.234 160.671 185.418 159.745 184.531 158.881C182.329 156.707 179.76 154.924 176.91 153.671C175.681 153.118 174.399 152.661 173.079 152.329C173.063 152.329 173.037 152.313 173.021 152.313L172.565 152.156L167.975 154.933Z" fill="#7F7F7F"/>
<path d="M167.975 154.933L108.35 190.965L107.492 191.491V191.683L100.827 195.707L95.5901 198.859L94.3054 199.65L94.2179 199.693C90.6339 201.678 86.5254 202.801 82.1494 202.801C69.665 202.801 59.3103 193.611 57.207 181.488C58.2057 190.357 61.1698 198.613 65.6412 205.805C74.8489 220.623 90.4194 230.931 108.432 232.722H119.446C129.189 231.685 137.324 227.707 145.875 222.335L159.024 214.136C164.947 210.266 181.024 200.746 185.76 195.404C186.79 194.235 187.72 192.982 188.533 191.64C189.164 190.619 189.725 189.552 190.197 188.442C190.356 188.064 190.507 187.697 190.652 187.321C190.79 186.949 190.92 186.573 191.052 186.193C191.299 185.463 191.495 184.731 191.683 183.978C191.778 183.549 191.866 183.125 191.953 182.703C192.239 181.113 192.395 179.479 192.395 177.785C192.395 172.857 191.06 168.228 188.748 164.296C188.218 163.377 187.635 162.5 186.989 161.671C186.234 160.671 185.418 159.745 184.531 158.881C182.329 156.707 179.76 154.924 176.91 153.671C175.681 153.118 174.399 152.661 173.079 152.329C173.063 152.329 173.037 152.313 173.021 152.313L172.565 152.156L167.975 154.933Z" fill="url(#paint2_linear_1789_6839)"/>
<path opacity="0.15" d="M192.395 177.785C192.395 179.479 192.239 181.115 191.95 182.706C191.866 183.127 191.778 183.549 191.68 183.975C191.495 184.731 191.299 185.463 191.052 186.195C190.923 186.573 190.79 186.951 190.652 187.319C190.509 187.697 190.356 188.064 190.194 188.442C189.722 189.549 189.168 190.617 188.536 191.637C187.724 192.975 186.795 194.235 185.76 195.402C181.024 200.746 164.947 210.266 159.024 214.136L145.875 222.335C136.235 228.39 127.128 232.676 115.643 232.97C115.099 232.986 114.567 233 114.04 233C113.298 233 112.567 232.987 111.833 232.957C92.3849 232.201 75.4238 221.547 65.6412 205.805C61.0638 198.453 58.1802 190.139 57.207 181.488C59.3103 193.611 69.665 202.801 82.1494 202.801C86.5254 202.801 90.6339 201.675 94.2179 199.693L94.3054 199.647L95.5901 198.858L100.827 195.707L107.492 191.683V191.491L108.35 190.965L167.975 154.93L172.565 152.156L173.021 152.313C173.034 152.313 173.063 152.329 173.079 152.329C174.399 152.661 175.683 153.118 176.91 153.671C179.76 154.924 182.327 156.707 184.531 158.881C185.418 159.746 186.24 160.679 186.989 161.671C187.635 162.5 188.218 163.377 188.748 164.296C191.06 168.228 192.395 172.857 192.395 177.785Z" fill="#7F7F7F"/>
<path opacity="0.15" d="M192.395 177.785C192.395 179.479 192.239 181.115 191.95 182.706C191.866 183.127 191.778 183.549 191.68 183.975C191.495 184.731 191.299 185.463 191.052 186.195C190.923 186.573 190.79 186.951 190.652 187.319C190.509 187.697 190.356 188.064 190.194 188.442C189.722 189.549 189.168 190.617 188.536 191.637C187.724 192.975 186.795 194.235 185.76 195.402C181.024 200.746 164.947 210.266 159.024 214.136L145.875 222.335C136.235 228.39 127.128 232.676 115.643 232.97C115.099 232.986 114.567 233 114.04 233C113.298 233 112.567 232.987 111.833 232.957C92.3849 232.201 75.4238 221.547 65.6412 205.805C61.0638 198.453 58.1802 190.139 57.207 181.488C59.3103 193.611 69.665 202.801 82.1494 202.801C86.5254 202.801 90.6339 201.675 94.2179 199.693L94.3054 199.647L95.5901 198.858L100.827 195.707L107.492 191.683V191.491L108.35 190.965L167.975 154.93L172.565 152.156L173.021 152.313C173.034 152.313 173.063 152.329 173.079 152.329C174.399 152.661 175.683 153.118 176.91 153.671C179.76 154.924 182.327 156.707 184.531 158.881C185.418 159.746 186.24 160.679 186.989 161.671C187.635 162.5 188.218 163.377 188.748 164.296C191.06 168.228 192.395 172.857 192.395 177.785Z" fill="url(#paint3_linear_1789_6839)"/>
</g>
<defs>
<linearGradient id="paint0_linear_1789_6839" x1="132.631" y1="93.7168" x2="201.811" y2="169.34" gradientUnits="userSpaceOnUse">
<stop stop-color="#37BDFF"/>
<stop offset="0.25" stop-color="#26C6F4"/>
<stop offset="0.5" stop-color="#15D0E9"/>
<stop offset="0.75" stop-color="#3BD6DF"/>
<stop offset="1" stop-color="#62DCD4"/>
</linearGradient>
<linearGradient id="paint1_linear_1789_6839" x1="85.6379" y1="199.531" x2="83.3739" y2="28.7676" gradientUnits="userSpaceOnUse">
<stop stop-color="#1B48EF"/>
<stop offset="0.5" stop-color="#2080F1"/>
<stop offset="1" stop-color="#26B8F4"/>
</linearGradient>
<linearGradient id="paint2_linear_1789_6839" x1="124.801" y1="192.439" x2="288.719" y2="192.439" gradientUnits="userSpaceOnUse">
<stop stop-color="#39D2FF"/>
<stop offset="0.5" stop-color="#248FFA"/>
<stop offset="1" stop-color="#104CF5"/>
</linearGradient>
<linearGradient id="paint3_linear_1789_6839" x1="124.801" y1="192.439" x2="288.719" y2="192.439" gradientUnits="userSpaceOnUse">
<stop stop-color="white"/>
<stop offset="1"/>
</linearGradient>
<clipPath id="clip0_1789_6839">
<rect width="160" height="216" fill="white" transform="translate(45 17)"/>
</clipPath>
</defs>
</svg>
