<svg width="250" height="250" viewBox="0 0 250 250" fill="none" xmlns="http://www.w3.org/2000/svg">
<path fill-rule="evenodd" clip-rule="evenodd" d="M37.2305 227.366V197.426H60.97V52.9564H37.2305V23H132.195C175.786 23 202.356 43.084 202.356 77.9632C202.356 100.861 188.895 114.961 171.888 121.654C196.332 128.353 213.702 145.613 213.702 169.223C213.702 206.563 184.644 227.359 137.161 227.359H37.2305V227.366ZM93.5708 52.9564V108.631H129.005C155.586 108.631 169.403 98.7557 169.403 80.7872C169.403 62.4628 155.233 52.9464 128.656 52.9464H93.5708V52.9564ZM93.5708 197.426H133.972C165.162 197.426 180.752 187.204 180.752 167.47C180.752 148.088 164.088 137.523 131.49 137.523H93.5708V197.426Z" fill="black"/>
</svg>
