<svg width="250" height="250" viewBox="0 0 250 250" fill="none" xmlns="http://www.w3.org/2000/svg">
<g clip-path="url(#clip0_2152_3833)">
<mask id="mask0_2152_3833" style="mask-type:alpha" maskUnits="userSpaceOnUse" x="25" y="30" width="200" height="190">
<path d="M125 220C180.228 220 225 177.467 225 125C225 72.5329 180.228 30 125 30C69.7715 30 25 72.5329 25 125C25 177.467 69.7715 220 125 220Z" fill="#C4C4C4"/>
</mask>
<g mask="url(#mask0_2152_3833)">
<path d="M221.799 125C221.799 177.467 179.771 218.986 124.543 218.986C123.266 218.986 120.929 219.032 119.664 218.986C80.5646 217.595 50.7622 195.236 34.6037 164.39C34.581 164.342 33.5852 163.57 33.5626 163.521C28.0584 151.748 25 138.713 25 125C25 72.5333 69.7716 30.0004 125 30.0004C167.073 37.6756 221.799 72.5333 221.799 125Z" fill="#262626"/>
<path fill-rule="evenodd" clip-rule="evenodd" d="M197.071 154.991C201.397 145.527 203.629 135.318 203.629 125H224.36C224.36 138.017 221.545 150.896 216.087 162.835C210.63 174.775 202.648 185.523 192.637 194.41C182.626 203.298 170.799 210.136 157.889 214.501C146.064 218.499 133.562 220.343 121.037 219.948L118.997 200.132C129.833 200.83 140.706 199.406 150.938 195.946C161.171 192.486 170.546 187.066 178.482 180.021C186.418 172.976 192.745 164.456 197.071 154.991Z" fill="url(#paint0_linear_2152_3833)"/>
<path fill-rule="evenodd" clip-rule="evenodd" d="M132.834 50.1266C126.526 49.4823 120.184 49.5621 113.941 50.3484C103.036 51.7221 91.5029 47.0277 87.1952 36.8046C102.369 31.0339 118.8 28.8845 135.05 30.5444C151.301 32.2043 166.876 37.6229 180.412 46.326C193.947 55.0292 205.031 66.7515 212.693 80.4666C220.354 94.1825 224.36 109.473 224.36 125H203.629C203.629 112.692 200.453 100.571 194.38 89.6993C188.307 78.8273 179.521 69.5353 168.791 62.6365C158.062 55.7376 145.716 51.4424 132.834 50.1266Z" fill="url(#paint1_linear_2152_3833)"/>
<path d="M203.659 124.421H224.085C224.085 124.614 224.086 125.386 224.085 125.579H203.659C203.661 125.386 203.657 125 203.659 124.421Z" fill="#F8D742"/>
<path d="M124.847 219.999C174.267 219.999 214.329 181.94 214.329 134.992C214.329 88.0437 174.267 49.9846 124.847 49.9846C75.4279 49.9846 35.3655 88.0437 35.3655 134.992C35.3655 181.94 75.4279 219.999 124.847 219.999Z" fill="url(#paint2_linear_2152_3833)" fill-opacity="0.25"/>
<path fill-rule="evenodd" clip-rule="evenodd" d="M33.5681 163.533C38.45 160.011 46.1685 156.58 61.7025 157.976L62.1372 157.523C59.1725 153.292 57.8042 148.225 58.2572 143.154C58.7102 138.084 60.9576 133.31 64.6299 129.62C68.3022 125.929 73.1811 123.541 78.4646 122.846C83.7483 122.152 89.1221 123.194 93.7026 125.8C94.2487 124.845 96.2707 122.173 102.651 118.661C110.527 114.3 112.64 114.02 120.941 114.387C121.234 114.448 121.537 114.448 121.831 114.387C123.329 113.453 124.716 112.366 125.966 111.145C128.08 109.031 129.911 106.675 131.416 104.131C134.692 98.7273 136.639 92.683 137.108 86.456C137.391 81.6898 136.582 74.8786 131.041 69.4468C128.537 66.9802 125.543 65.0125 122.235 63.6581H122.084C121.729 63.5157 121.429 63.2727 121.225 62.9619C121.021 62.6512 120.921 62.2879 120.941 61.9214C120.928 61.6647 120.971 61.4083 121.068 61.1686C121.165 60.9288 121.314 60.7111 121.504 60.5294C121.694 60.3477 121.923 60.206 122.174 60.1134C122.425 60.0209 122.694 59.9794 122.963 59.9918H123.206C127.511 60.4578 131.683 61.7021 135.5 63.6581C139.573 65.811 143.076 68.8239 145.743 72.4666C148.485 76.1506 150.478 80.2941 151.617 84.6806C153.807 93.3692 153.896 102.419 151.88 111.145C150.927 115.585 149.385 119.891 147.289 123.958C145.33 127.945 142.779 131.642 139.717 134.937C139.651 135.014 139.609 135.108 139.595 135.206C139.581 135.305 139.595 135.405 139.635 135.496C139.679 135.574 139.745 135.639 139.825 135.682C139.906 135.725 139.998 135.744 140.09 135.738C140.853 135.691 141.606 135.559 142.335 135.342L142.72 135.255C144.913 134.609 147.127 132.843 149.484 129.843C149.519 129.793 149.572 129.756 149.632 129.737C149.692 129.717 149.757 129.717 149.817 129.737C149.989 129.795 150.161 129.968 150.07 131.3C150.07 133.798 148.26 153.027 140.373 164.334C136.293 169.881 131.192 174.677 125.319 178.488C123.273 179.813 121.633 181.634 120.567 183.763C119.501 185.892 119.047 188.254 119.252 190.606V190.866C119.697 196.761 120.547 208.377 121.103 219.752C121.113 219.771 121.118 219.793 121.118 219.814C121.118 219.836 121.113 219.857 121.103 219.877C121.097 219.884 121.09 219.891 121.083 219.897C121.071 219.907 121.058 219.915 121.044 219.921C121.04 219.923 121.035 219.925 121.031 219.926C81.9448 218.477 48.6191 195.716 33.5681 163.533ZM114.187 123.562C115.26 123.562 116.288 123.969 117.047 124.692C117.805 125.416 118.231 126.398 118.231 127.421C118.241 127.93 118.143 128.436 117.943 128.909C117.743 129.381 117.446 129.81 117.068 130.17C116.691 130.531 116.241 130.815 115.746 131.005C115.251 131.196 114.721 131.29 114.187 131.28C113.114 131.28 112.085 130.874 111.327 130.15C110.569 129.426 110.143 128.445 110.143 127.421C110.143 126.398 110.569 125.416 111.327 124.692C112.085 123.969 113.114 123.562 114.187 123.562Z" fill="white"/>
</g>
</g>
<defs>
<linearGradient id="paint0_linear_2152_3833" x1="213.752" y1="125.045" x2="137.588" y2="225.439" gradientUnits="userSpaceOnUse">
<stop stop-color="#F8D742"/>
<stop offset="0.115385" stop-color="#FFCB41"/>
<stop offset="0.264506" stop-color="#FFB040"/>
<stop offset="0.397168" stop-color="#FF9C3E"/>
<stop offset="0.536394" stop-color="#E36F27"/>
<stop offset="0.731934" stop-color="#CE4018"/>
<stop offset="1" stop-color="#AB2203"/>
</linearGradient>
<linearGradient id="paint1_linear_2152_3833" x1="204" y1="125" x2="91.7137" y2="33.9338" gradientUnits="userSpaceOnUse">
<stop offset="0.0244707" stop-color="#F8D742"/>
<stop offset="0.186819" stop-color="#94D750"/>
<stop offset="0.340767" stop-color="#25D75A"/>
<stop offset="0.483766" stop-color="#1DD971"/>
<stop offset="0.638107" stop-color="#1BE5B7"/>
<stop offset="0.807161" stop-color="#0A9BB7"/>
<stop offset="1" stop-color="#005F98"/>
</linearGradient>
<linearGradient id="paint2_linear_2152_3833" x1="124.847" y1="55.175" x2="124.847" y2="220" gradientUnits="userSpaceOnUse">
<stop stop-color="#262626"/>
<stop offset="1" stop-color="#262626" stop-opacity="0"/>
</linearGradient>
<clipPath id="clip0_2152_3833">
<rect width="200" height="190" fill="white" transform="translate(25 30)"/>
</clipPath>
</defs>
</svg>
