<svg width="250" height="250" viewBox="0 0 250 250" fill="none" xmlns="http://www.w3.org/2000/svg">
<path fill-rule="evenodd" clip-rule="evenodd" d="M110.243 109.374C106.023 109.376 102.519 110.747 99.7845 113.537C97.0479 116.328 95.6967 119.908 95.6967 124.276C95.6967 128.644 97.065 132.223 99.7845 135.015C102.521 137.807 106.027 139.177 110.252 139.177C114.476 139.177 117.983 137.807 120.788 135.015C123.576 132.223 124.944 128.644 124.944 124.276C124.944 119.908 123.576 116.328 120.788 113.537C117.983 110.728 114.476 109.374 110.252 109.374C110.249 109.374 110.246 109.374 110.243 109.374ZM159.647 35.0385L214.823 90.2252C219.971 95.4322 222.041 102.986 220.125 110.162L212.514 138.475C209.726 138.544 205.553 138.544 204.065 138.475C202.303 138.338 200.935 137.876 200.029 137.036C199.122 136.18 198.66 134.81 198.66 132.994V110.933H210.616V97.7787H198.66V79.8114L185.012 87.6903V132.823C185.012 140.102 186.961 145.189 190.793 147.981C194.419 150.636 200.542 151.561 209.179 150.773L204.259 169.121C203.892 168.109 203.359 167.219 202.662 166.45C201.204 164.853 199.236 164.069 196.819 164.069C194.029 164.069 191.915 165.108 190.535 167.127C189.312 165.078 187.374 164.069 184.77 164.069C182.098 164.069 180.121 165.039 178.858 166.94V164.666H173.387V185.936H178.858V173.978C178.858 172.41 179.23 171.224 179.935 170.4C180.64 169.587 181.609 169.175 182.832 169.175C183.987 169.175 184.839 169.548 185.475 170.253C186.111 170.959 186.405 171.969 186.405 173.233V185.936H191.876V173.978C191.876 172.41 192.209 171.224 192.914 170.4C193.579 169.587 194.548 169.175 195.811 169.175C196.966 169.175 197.817 169.548 198.453 170.253C199.09 170.959 199.383 171.969 199.383 173.233V185.936H199.74C197.667 192.838 192.242 198.145 185.337 199.982L109.995 220.227C102.914 222.112 95.3718 220.09 90.1723 214.884L35.0475 159.68C29.8309 154.473 27.8297 146.919 29.7111 139.828L30.3611 137.413C31.5925 139.897 33.2858 142.106 35.2698 144.179C40.6061 149.574 47.2423 152.246 55.2297 152.246C60.4292 152.246 65.1155 150.944 69.3401 148.478C73.5647 145.943 76.8144 142.62 79.1576 138.458L67.3219 131.692C66.2786 133.902 64.6538 135.598 62.5158 136.831C60.3779 138.133 57.9149 138.715 55.1784 138.715C51.0735 138.715 47.7041 137.362 45.0359 134.621C42.3678 131.898 40.9995 128.438 40.9995 124.276C40.9995 120.045 42.3678 116.585 45.0359 113.862C47.7041 111.139 51.0906 109.768 55.1784 109.768C57.9149 109.768 60.3265 110.351 62.4645 111.652C64.6024 112.954 66.2273 114.65 67.2706 116.859L79.0379 110.025C76.8315 105.863 73.6502 102.54 69.4256 100.074C65.1327 97.5903 60.4463 96.3571 55.3152 96.3571C49.5855 96.3571 44.6597 97.7102 40.2983 100.451L49.9276 64.4475C51.8774 57.2879 57.4018 51.7555 64.4827 49.8715L139.824 29.6946C146.905 27.8105 154.448 29.8145 159.647 35.0385ZM131.17 150.773H138.575V97.7787H124.927V104.03C120.839 98.8921 115.109 96.2886 107.703 96.2886C100.691 96.2886 94.6363 99.0291 89.5737 104.424C84.5623 109.82 82.031 116.465 82.031 124.276C82.031 132.086 84.5623 138.663 89.5737 144.127C94.5679 149.591 100.623 152.263 107.703 152.263C111.415 152.263 114.733 151.612 117.589 150.311C120.446 149.009 122.84 147.125 124.927 144.521C124.927 147.981 127.732 150.773 131.17 150.773ZM166.01 114.513C169.328 112.303 173.039 111.464 177.195 111.978V96.7339C173.552 96.7339 170.303 97.5732 167.378 99.2689C164.453 100.965 162.366 103.5 161.067 106.891V97.7787H147.418V150.773H161.067V125.441C161.067 120.371 162.76 116.722 166.01 114.513ZM128.414 183.28C130.577 185.446 133.249 186.524 136.45 186.524C138.534 186.524 140.394 186.044 142.097 185.005C143.771 184.005 145.112 182.662 146.042 180.986L141.285 178.271C140.874 179.124 140.198 179.839 139.347 180.32C138.495 180.8 137.526 181.065 136.41 181.065C134.776 181.065 133.396 180.506 132.319 179.428C131.243 178.31 130.724 176.928 130.724 175.252C130.724 173.547 131.243 172.126 132.319 171.047C133.396 169.969 134.776 169.41 136.41 169.41C137.487 169.41 138.446 169.675 139.308 170.195C140.169 170.714 140.834 171.39 141.246 172.282L145.973 169.528C145.082 167.852 143.82 166.519 142.107 165.509C140.394 164.5 138.534 164.02 136.45 164.02C133.21 164.02 130.567 165.107 128.414 167.264C126.29 169.42 125.213 172.106 125.213 175.272C125.213 178.438 126.261 181.123 128.414 183.28ZM166.732 167.342C164.54 165.186 161.858 164.098 158.736 164.098C155.613 164.098 152.932 165.176 150.778 167.342C148.625 169.508 147.539 172.184 147.539 175.311C147.539 178.438 148.615 181.123 150.778 183.28C152.932 185.436 155.613 186.524 158.736 186.524C161.897 186.524 164.54 185.446 166.732 183.28C168.925 181.123 170.001 178.438 170.001 175.311C170.001 172.184 168.925 169.508 166.732 167.342ZM162.866 179.526C161.75 180.643 160.37 181.202 158.736 181.202C157.101 181.202 155.721 180.643 154.644 179.526C153.568 178.408 153.01 177.026 153.01 175.321C153.01 173.615 153.568 172.233 154.644 171.116C155.721 169.999 157.101 169.44 158.736 169.44C160.37 169.44 161.75 169.999 162.866 171.116C163.982 172.233 164.54 173.615 164.54 175.321C164.54 177.026 163.982 178.408 162.866 179.526ZM119.869 186.269C121.864 186.269 123.481 184.65 123.481 182.653C123.481 180.655 121.864 179.036 119.869 179.036C117.875 179.036 116.258 180.655 116.258 182.653C116.258 184.65 117.875 186.269 119.869 186.269Z" fill="#0A8AEE"/>
</svg>
