<svg width="250" height="250" viewBox="0 0 250 250" fill="none" xmlns="http://www.w3.org/2000/svg">
<g clip-path="url(#clip0_2108_3974)">
<path fill-rule="evenodd" clip-rule="evenodd" d="M153.222 94.2623L198.037 49.0283L210.865 61.9667L166.05 107.201L153.222 94.2623ZM135.064 140.488C126.294 140.488 119.188 133.289 119.188 124.4C119.188 115.52 126.294 108.312 135.064 108.312C143.834 108.312 150.939 115.52 150.939 124.4C150.939 133.289 143.834 140.488 135.064 140.488ZM211.074 187.21L198.246 200.158L153.432 154.923L166.259 141.975L211.074 187.21Z" fill="#222222"/>
<path fill-rule="evenodd" clip-rule="evenodd" d="M135.526 193.974C144.559 193.974 153.166 192.155 161.054 188.923L182.942 211.026C168.905 218.932 152.747 223.478 135.526 223.478C81.6683 223.478 38 179.401 38 125.039C38 70.6682 81.6683 26.5912 135.526 26.5912C152.574 26.5912 168.587 31.0265 182.524 38.7859L160.999 60.5213C153.12 57.3074 144.541 55.4892 135.526 55.4892C97.8074 55.4892 67.2305 86.4901 67.2305 124.736C67.2305 162.973 97.8074 193.974 135.526 193.974Z" fill="#03A9F4"/>
</g>
<defs>
<clipPath id="clip0_2108_3974">
<rect width="174" height="198" fill="white" transform="translate(38 26)"/>
</clipPath>
</defs>
</svg>
