<svg xmlns="http://www.w3.org/2000/svg" width="250" height="250" fill="none"><g clip-path="url(#a)"><path fill="#2F577E" d="M220.7 128.9v-8.1c0-6.9-2.7-13.2-7.8-19.2-2.7-3-6.3-6.3-10.5-9-2.1-1.5-4.5-3-7.2-4.5-2.1-.9-3.9-2.1-6-3-5.7-2.4-11.7-4.5-18.3-6.3.9 2.7 1.5 5.7 2.1 8.4l1.8 9c3.3 1.2 6.9 2.4 9.9 3.9 1.5.6 3 1.2 4.5 2.1.6.3 1.5.6 2.1.9 2.7 1.5 4.8 3 6.9 4.5 7.8 5.1 12.6 11.1 14.1 17.1-1.5 6.3-6.3 12.3-14.1 17.4.9 2.4 1.8 4.5 2.4 6.6.9 2.7 1.5 5.7 1.8 8.4 4.2-2.7 7.8-6 10.5-9 5.1-6 7.8-12.3 7.8-19.2ZM103.7 175.7c-3.3-2.7-6.6-5.4-9.6-8.4.6 2.4 1.2 5.1 2.1 7.5 2.4.3 5.1.6 7.5.9ZM121.1 168.8l3.6 2.7c2.7 1.5 5.1 3.3 7.5 4.5.3.3.6.6.9.6 4.2 0 8.7-.3 12.9-.9 2.4-.3 5.1-.6 7.5-.9l9-1.8c2.7-.6 5.7-1.2 8.4-2.1 6.6-1.8 12.6-3.9 18.3-6.3-.6-2.7-1.2-5.4-2.1-8.1-.3-.6-.3-1.5-.6-2.4l-1.8-4.5c-3 1.5-6.6 2.7-9.9 3.9-2.4.9-5.1 1.5-7.5 2.1-.3.3-.6.3-.9.3-3 .9-5.7 1.5-8.7 1.8l-4.5.9c-4.5.9-9 1.2-13.8 1.8-4.8.3-9.6.6-14.7.6-4.8 0-9.6-.3-14.4-.6 3.3 3 7.2 5.7 10.8 8.4ZM62.6 93.2c0 .6.3 1.5.6 2.4l1.8 4.5c3-1.5 6.6-2.7 9.9-3.9 2.4-.9 5.1-1.5 7.5-2.1.3-.3.6-.3.9-.3 3-.6 5.7-1.5 8.7-1.8l4.5-.9c4.5-.6 9-1.2 13.8-1.8 4.8-.3 9.6-.3 14.4-.3 5.1 0 9.9 0 14.7.3-3.3-3-7.2-5.7-10.8-8.4-1.2-.9-2.4-1.8-3.9-2.7-2.4-1.5-4.8-3.3-7.2-4.5-.3-.3-.6-.6-.9-.6-4.5 0-8.7.6-12.9.9-2.4.3-5.1.6-7.5.9l-9 1.8c-2.7.6-5.7 1.2-8.4 2.1-6.6 1.8-12.6 3.9-18.3 6.3.6 2.7 1.2 5.4 2.1 8.1ZM146 74c3.3 2.7 6.6 5.4 9.6 8.4-.6-2.4-1.2-5.1-2.1-7.5-2.4-.3-5.1-.6-7.5-.9ZM37.4 124.7c1.5-6 6.3-12 14.1-17.1-.9-2.4-1.8-4.5-2.4-6.6-.9-2.7-1.5-5.7-2.1-8.4-3.9 2.7-7.5 6-10.2 9-5.1 6-7.8 12.3-7.8 19.2v8.1c0 6.9 2.7 13.2 7.8 19.2 2.7 3 6.3 6 10.2 9 2.4 1.5 4.8 3 7.5 4.5 2.1.9 3.9 2.1 6 3 5.7 2.4 11.7 4.5 18.3 6.3-.9-2.7-1.5-5.7-2.1-8.4l-1.8-9c-3.3-1.2-6.9-2.4-9.9-3.9-1.5-.6-3-1.2-4.5-2.1-.6-.3-1.5-.6-2.1-.9-2.7-1.5-4.8-3-6.9-4.5-7.8-5.1-12.6-11.1-14.1-17.4Z"/><path fill="#F4B563" d="M146 175.7c-4.2.3-8.7.9-12.9.9 2.1 1.5 4.5 2.7 6.6 3.6l6.3-4.5ZM195.5 59.9l-5.7-5.7c-4.8-4.8-11.4-7.5-19.2-8.1-4.2-.3-8.7.3-13.5 1.2-2.7.3-5.7 1.2-8.4 1.8-2.1.6-4.2 1.5-6.6 2.4-5.4 2.1-11.4 4.8-17.4 8.1 2.7 1.5 5.1 3 7.8 4.8 2.4 1.5 4.8 3.3 7.2 5.1 3.3-1.8 6.6-3.3 9.9-4.5l4.5-1.8c.9-.3 1.8-.3 2.4-.6 2.7-.9 5.4-1.5 8.1-2.1 9-1.5 16.8-.6 22.2 2.4"/><path fill="#F4B563" d="M186.8 62.9c3 5.4 3.9 13.2 2.4 22.2 2.1.9 3.9 2.1 6 3 2.7 1.5 5.1 3 7.2 4.5.9-4.8 1.5-9.3 1.2-13.5-.6-7.8-3.3-14.4-8.1-19.2-.9-1.2-1.8-1.8-3-2.7M153.2 158.6l4.5-.9c3-.3 5.7-.9 8.7-1.8.3 0 .6 0 .9-.3 3-3 5.7-6.3 8.4-9.6 1.5-2.1 3.3-4.2 4.5-6.3l5.4-7.2c1.5-2.7 3-5.1 4.5-7.5 3.3-6 6-12 8.1-17.4-2.1-1.5-4.2-3-6.9-4.5-.6-.3-1.5-.6-2.1-.9-1.5-.9-3-1.5-4.5-2.1-1.2 3.3-2.7 6.6-4.5 9.9-.9 2.1-2.1 4.5-3.6 6.6 0 .3-.3.6-.6.9-1.2 2.4-3 4.8-4.5 7.5l-2.7 3.6c-2.7 3.6-5.4 7.5-8.4 10.8-3.3 3.9-6.6 7.5-10.2 10.8-3.3 3.6-6.9 6.9-10.8 10.2 4.8-.6 9.3-.9 13.8-1.8ZM103.7 74c4.2-.6 8.4-.9 12.9-.9-2.1-1.5-4.5-2.7-6.6-3.6-2.1 1.2-4.2 3-6.3 4.5ZM62.9 186.8c-3-5.4-3.9-13.2-2.4-22.2-2.1-.9-3.9-2.1-6-3-2.7-1.5-5.1-3-7.5-4.5-.6 4.8-1.2 9.3-.9 13.5.6 7.8 3.3 14.4 8.1 19.2l5.7 5.7c4.8 4.8 11.4 7.5 19.2 8.1 4.2.3 8.7-.3 13.5-.9 2.7-.6 5.7-1.2 8.4-2.1 2.1-.6 4.2-1.5 6.6-2.4 5.4-2.1 11.4-4.8 17.1-8.1-2.4-1.5-4.8-3-7.5-4.5-2.4-1.8-4.8-3.3-7.2-5.1-3.3 1.5-6.6 3-9.9 4.2l-4.5 1.8c-.9.3-1.8.6-2.4.6-2.7.9-5.4 1.5-8.1 2.1-9 1.5-16.8.6-22.2-2.4ZM58.4 146.6c.6.3 1.5.6 2.1.9 1.5.9 3 1.5 4.5 2.1 1.2-3.3 2.7-6.6 4.5-9.9.9-2.1 2.1-4.5 3.6-6.6 0-.3.3-.6.6-.9 1.2-2.4 3-4.8 4.5-7.5l2.7-3.6c2.7-3.6 5.4-7.5 8.4-10.8 3.3-3.9 6.6-7.5 10.2-10.8 3.3-3.6 6.9-6.9 10.8-10.2-4.8.6-9.3.9-13.8 1.8L92 92c-3 .3-5.7 1.2-8.7 1.8-.3 0-.6 0-.9.3-3 3-5.7 6.3-8.4 9.6-1.5 2.1-3.3 4.2-4.8 6.3-1.5 2.4-3.3 4.8-5.1 7.2-1.5 2.7-3 5.1-4.5 7.5-3.3 6-6 12-8.1 17.4 2.1 1.5 4.2 3 6.9 4.5Z"/><path fill="#5CAFCD" d="M74 146c-.6-4.2-.9-8.7-.9-12.9-1.5 2.1-2.7 4.5-3.6 6.6 1.2 2.1 3 4.2 4.5 6.3ZM62.9 62.9c5.4-3 13.2-3.9 22.2-2.4.9-2.1 2.1-3.9 3-6 1.5-2.7 3-5.1 4.5-7.2-4.8-.9-9.3-1.5-13.5-1.2-7.8.6-14.4 3.3-19.2 8.1-1.2.9-1.8 1.8-2.7 3 .9-1.2 1.5-2.1 2.7-3l-5.7 5.7c-4.8 4.8-7.5 11.4-8.1 19.2-.3 4.2.3 8.7.9 13.5.6 2.7 1.2 5.7 2.1 8.4.6 2.1 1.5 4.2 2.4 6.6 2.1 5.4 4.8 11.4 8.1 17.4 1.5-2.7 3-5.1 4.5-7.8 1.8-2.4 3.6-4.8 5.1-7.2-1.5-3.3-3-6.6-4.2-9.9l-1.8-4.5c-.3-.9-.6-1.8-.6-2.4-.9-2.7-1.5-5.4-2.1-8.1-1.5-9-.6-16.8 2.4-22.2ZM175.7 103.7c.3 4.2.9 8.7.9 12.9 1.5-2.1 2.7-4.5 3.6-6.6-1.2-2.1-3-4.2-4.5-6.3ZM158.6 96.5l-.9-4.5c-.3-3-1.2-5.7-1.8-8.7 0-.3 0-.6-.3-.9-3-3-6.3-5.7-9.6-8.4-2.1-1.5-4.2-3.3-6.3-4.5l-7.2-5.4c-2.7-1.5-5.1-3-7.8-4.5-5.7-3.3-11.7-6-17.1-8.1-1.5 2.1-3 4.2-4.5 6.9-.3.6-.6 1.5-.9 2.1-.9 1.5-1.5 3-2.1 4.5 3.3 1.2 6.6 2.7 9.9 4.5 2.1.9 4.5 2.1 6.6 3.6.3 0 .6.3.9.6 2.4 1.2 4.8 3 7.2 4.5 1.5.9 2.7 1.8 3.9 2.7 3.6 2.7 7.5 5.4 10.8 8.4 3.9 3.3 7.5 6.6 10.8 10.2 3.6 3.3 6.9 6.9 10.2 10.8-.6-4.8-1.2-9.3-1.8-13.8ZM91.1 153.2l.9 4.5c.3 3 1.2 5.7 1.8 8.7 0 .3 0 .6.3.9 3 3 6.3 5.7 9.6 8.4 2.1 1.5 4.2 3.3 6.3 4.5l7.2 5.4c2.7 1.5 5.1 3 7.5 4.5 6 3.3 12 6 17.4 8.1 1.5-2.1 3-4.2 4.5-6.9.3-.6.6-1.5.9-2.1.9-1.5 1.5-3 2.1-4.5-3.3-1.2-6.6-2.7-9.9-4.5-2.1-.9-4.5-2.1-6.6-3.6-.3 0-.6-.3-.9-.6-2.4-1.2-4.8-3-7.5-4.5l-3.6-2.7c-3.6-2.7-7.5-5.4-10.8-8.4-3.9-3.3-7.5-6.6-10.8-10.2-3.6-3.3-6.9-6.9-10.2-10.8.6 4.8.9 9.3 1.8 13.8ZM189.8 195.5l5.7-5.7c4.8-4.8 7.5-11.4 8.1-19.2.3-4.2-.3-8.7-1.2-13.5-.3-2.7-.9-5.7-1.8-8.4-.6-2.1-1.5-4.2-2.4-6.6-2.1-5.4-4.8-11.4-8.1-17.1-1.5 2.4-3 4.8-4.5 7.5l-5.4 7.2c1.8 3.3 3.3 6.6 4.5 9.9l1.8 4.5c.3.9.3 1.8.6 2.4.9 2.7 1.5 5.4 2.1 8.1 1.5 9 .6 16.8-2.4 22.2-5.4 3-13.2 3.9-22.2 2.4-.9 2.1-2.1 3.9-3 6-1.5 2.7-3 5.1-4.5 7.2 4.8.9 9.3 1.5 13.5 1.2 7.8-.6 14.4-3.3 19.2-8.1Z"/><path fill="#47B178" d="M80.9 121.1c-.9 1.2-1.8 2.4-2.7 3.9-1.5 2.4-3.3 4.8-4.5 7.2-.3.3-.6.6-.6.9 0 4.2.3 8.7.9 12.9.3 2.4.6 5.1.9 7.5l1.8 9c.6 2.7 1.2 5.7 2.1 8.4 1.8 6.6 3.9 12.6 6.3 18.3 2.7-.6 5.4-1.2 8.1-2.1.6-.3 1.5-.3 2.4-.6l4.5-1.8c-1.5-3-2.7-6.6-3.9-9.9-.9-2.4-1.5-5.1-2.1-7.5-.3-.3-.3-.6-.3-.9-.6-3-1.5-5.7-1.8-8.7l-.9-4.5c-.9-4.5-1.2-9-1.8-13.8-.3-4.8-.6-9.6-.6-14.4 0-5.1.3-9.9.6-14.7-3 3.3-5.7 7.2-8.4 10.8ZM175.7 146c-2.7 3.3-5.4 6.6-8.4 9.6 2.4-.6 5.1-1.2 7.5-2.1.3-2.4.6-5.1.9-7.5ZM74 103.7c2.7-3.3 5.4-6.3 8.4-9.6-2.4.6-5.1 1.2-7.5 2.1-.3 2.4-.6 5.1-.9 7.5ZM168.8 128.6l2.7-3.6c1.5-2.7 3.3-5.1 4.5-7.5.3-.3.6-.6.6-.9 0-4.2-.6-8.7-.9-12.9-.3-2.4-.6-5.1-.9-7.5l-1.8-9c-.6-2.7-1.2-5.7-2.1-8.4-1.8-6.6-3.9-12.6-6.3-18.3-2.7.6-5.4 1.2-8.1 2.1-.6.3-1.5.3-2.4.6l-4.5 1.8c1.5 3 2.7 6.6 3.9 9.9.9 2.4 1.5 5.1 2.1 7.5.3.3.3.6.3.9.6 3 1.5 5.7 1.8 8.7l.9 4.5c.6 4.5 1.2 9 1.8 13.8.3 4.8.3 9.6.3 14.7 0 4.8 0 9.6-.3 14.4 3-3.3 5.7-7.2 8.4-10.8ZM157.1 47c-3-3.9-6-7.5-9-10.2-6-5.1-12.3-7.8-19.2-7.8h-8.1c-6.9 0-13.2 2.7-19.2 7.8-3 2.7-6.3 6.3-9 10.2-1.5 2.4-3 4.8-4.5 7.5-.9 2.1-2.1 3.9-3 6-2.4 5.7-4.5 11.7-6.3 18.3 2.7-.9 5.7-1.5 8.4-2.1l9-1.8c1.2-3.3 2.4-6.9 3.9-9.9.6-1.5 1.2-3 2.1-4.5.3-.6.6-1.5.9-2.1 1.5-2.7 3-4.8 4.5-6.9 5.1-7.8 11.1-12.6 17.1-14.1 6.3 1.5 12.3 6.3 17.4 14.1 2.4-.9 4.5-1.8 6.6-2.4M120.8 220.7h8.1c6.9 0 13.2-2.7 19.2-7.8 3-2.7 6-6.3 9-10.5 1.5-2.1 3-4.5 4.5-7.2.9-2.1 2.1-3.9 3-6 2.4-5.7 4.5-11.7 6.3-18.3l-8.4 2.1-9 1.8c-1.2 3.3-2.4 6.9-3.9 9.9-.6 1.5-1.2 3-2.1 4.5-.3.6-.6 1.5-.9 2.1-1.5 2.7-3 4.8-4.5 6.9-5.1 7.8-11.1 12.6-17.4 14.1-6-1.5-12-6.3-17.1-14.1-2.4.9-4.5 1.8-6.6 2.4l-8.4 1.8c2.7 4.2 6 7.8 9 10.5 6 5.1 12.3 7.8 19.2 7.8Z"/></g><defs><clipPath id="a"><path fill="#fff" d="M29 29h192v192H29z"/></clipPath></defs></svg>