<svg width="250" height="250" viewBox="0 0 250 250" fill="none" xmlns="http://www.w3.org/2000/svg">
<g clip-path="url(#clip0_1789_7037)">
<path d="M220.7 128.9V120.8C220.7 113.9 218 107.6 212.9 101.6C210.2 98.6 206.6 95.3 202.4 92.6C200.3 91.1 197.9 89.6 195.2 88.1C193.1 87.2 191.3 86 189.2 85.1C183.5 82.7 177.5 80.6 170.9 78.8C171.8 81.5 172.4 84.5 173 87.2C173.6 90.2 174.2 93.2 174.8 96.2C178.1 97.4 181.7 98.6 184.7 100.1C186.2 100.7 187.7 101.3 189.2 102.2C189.8 102.5 190.7 102.8 191.3 103.1C194 104.6 196.1 106.1 198.2 107.6C206 112.7 210.8 118.7 212.3 124.7C210.8 131 206 137 198.2 142.1C199.1 144.5 200 146.6 200.6 148.7C201.5 151.4 202.1 154.4 202.4 157.1C206.6 154.4 210.2 151.1 212.9 148.1C218 142.1 220.7 135.8 220.7 128.9Z" fill="#2F577E"/>
<path d="M103.7 175.7C100.4 173 97.0996 170.3 94.0996 167.3C94.6996 169.7 95.2996 172.4 96.1996 174.8C98.5996 175.1 101.3 175.4 103.7 175.7Z" fill="#2F577E"/>
<path d="M121.1 168.8C122.3 169.7 123.5 170.6 124.7 171.5C127.4 173 129.8 174.8 132.2 176C132.5 176.3 132.8 176.6 133.1 176.6C137.3 176.6 141.8 176.3 146 175.7C148.4 175.4 151.1 175.1 153.5 174.8C156.5 174.2 159.5 173.6 162.5 173C165.2 172.4 168.2 171.8 170.9 170.9C177.5 169.1 183.5 167 189.2 164.6C188.6 161.9 188 159.2 187.1 156.5C186.8 155.9 186.8 155 186.5 154.1C185.9 152.6 185.3 151.1 184.7 149.6C181.7 151.1 178.1 152.3 174.8 153.5C172.4 154.4 169.7 155 167.3 155.6C167 155.9 166.7 155.9 166.4 155.9C163.4 156.8 160.7 157.4 157.7 157.7C156.2 158 154.7 158.3 153.2 158.6C148.7 159.5 144.2 159.8 139.4 160.4C134.6 160.7 129.8 161 124.7 161C119.9 161 115.1 160.7 110.3 160.4C113.6 163.4 117.5 166.1 121.1 168.8Z" fill="#2F577E"/>
<path d="M62.6 93.2C62.6 93.8 62.9 94.7 63.2 95.6C63.8 97.1 64.4 98.6 65 100.1C68 98.6 71.6 97.4 74.9 96.2C77.3 95.3 80 94.7 82.4 94.1C82.7 93.8 83 93.8 83.3 93.8C86.3 93.2 89 92.3 92 92C93.5 91.7 95 91.4 96.5 91.1C101 90.5 105.5 89.9 110.3 89.3C115.1 89 119.9 89 124.7 89C129.8 89 134.6 89 139.4 89.3C136.1 86.3 132.2 83.6 128.6 80.9C127.4 80 126.2 79.1 124.7 78.2C122.3 76.7 119.9 74.9 117.5 73.7C117.2 73.4 116.9 73.1 116.6 73.1C112.1 73.1 107.9 73.7 103.7 74C101.3 74.3 98.6 74.6 96.2 74.9C93.2 75.5 90.2 76.1 87.2 76.7C84.5 77.3 81.5 77.9 78.8 78.8C72.2 80.6 66.2 82.7 60.5 85.1C61.1 87.8 61.7 90.5 62.6 93.2Z" fill="#2F577E"/>
<path d="M146 74C149.3 76.7 152.6 79.4 155.6 82.4C155 80 154.4 77.3 153.5 74.9C151.1 74.6 148.4 74.3 146 74Z" fill="#2F577E"/>
<path d="M37.4 124.7C38.9 118.7 43.7 112.7 51.5 107.6C50.6 105.2 49.7 103.1 49.1 101C48.2 98.3 47.6 95.3 47 92.6C43.1 95.3 39.5 98.6 36.8 101.6C31.7 107.6 29 113.9 29 120.8V128.9C29 135.8 31.7 142.1 36.8 148.1C39.5 151.1 43.1 154.1 47 157.1C49.4 158.6 51.8 160.1 54.5 161.6C56.6 162.5 58.4 163.7 60.5 164.6C66.2 167 72.2 169.1 78.8 170.9C77.9 168.2 77.3 165.2 76.7 162.5C76.1 159.5 75.5 156.5 74.9 153.5C71.6 152.3 68 151.1 65 149.6C63.5 149 62 148.4 60.5 147.5C59.9 147.2 59 146.9 58.4 146.6C55.7 145.1 53.6 143.6 51.5 142.1C43.7 137 38.9 131 37.4 124.7Z" fill="#2F577E"/>
<path d="M146 175.7C141.8 176 137.3 176.6 133.1 176.6C135.2 178.1 137.6 179.3 139.7 180.2C141.8 178.7 143.9 177.2 146 175.7Z" fill="#F4B563"/>
<path d="M195.5 59.9L189.8 54.2C185 49.4 178.4 46.7 170.6 46.1C166.4 45.8 161.9 46.4 157.1 47.3C154.4 47.6 151.4 48.5 148.7 49.1C146.6 49.7 144.5 50.6 142.1 51.5C136.7 53.6 130.7 56.3 124.7 59.6C127.4 61.1 129.8 62.6 132.5 64.4C134.9 65.9 137.3 67.7 139.7 69.5C143 67.7 146.3 66.2 149.6 65C151.1 64.4 152.6 63.8 154.1 63.2C155 62.9 155.9 62.9 156.5 62.6C159.2 61.7 161.9 61.1 164.6 60.5C173.6 59 181.4 59.9 186.8 62.9" fill="#F4B563"/>
<path d="M186.8 62.9C189.8 68.3 190.7 76.1 189.2 85.1C191.3 86 193.1 87.2 195.2 88.1C197.9 89.6 200.3 91.1 202.4 92.6C203.3 87.8 203.9 83.3 203.6 79.1C203 71.3 200.3 64.7 195.5 59.9C194.6 58.7 193.7 58.1 192.5 57.2" fill="#F4B563"/>
<path d="M153.2 158.6C154.7 158.3 156.2 158 157.7 157.7C160.7 157.4 163.4 156.8 166.4 155.9C166.7 155.9 167 155.9 167.3 155.6C170.3 152.6 173 149.3 175.7 146C177.2 143.9 179 141.8 180.2 139.7C182 137.3 183.8 134.9 185.6 132.5C187.1 129.8 188.6 127.4 190.1 125C193.4 119 196.1 113 198.2 107.6C196.1 106.1 194 104.6 191.3 103.1C190.7 102.8 189.8 102.5 189.2 102.2C187.7 101.3 186.2 100.7 184.7 100.1C183.5 103.4 182 106.7 180.2 110C179.3 112.1 178.1 114.5 176.6 116.6C176.6 116.9 176.3 117.2 176 117.5C174.8 119.9 173 122.3 171.5 125C170.6 126.2 169.7 127.4 168.8 128.6C166.1 132.2 163.4 136.1 160.4 139.4C157.1 143.3 153.8 146.9 150.2 150.2C146.9 153.8 143.3 157.1 139.4 160.4C144.2 159.8 148.7 159.5 153.2 158.6Z" fill="#F4B563"/>
<path d="M103.7 74C107.9 73.4 112.1 73.1 116.6 73.1C114.5 71.6 112.1 70.4 110 69.5C107.9 70.7 105.8 72.5 103.7 74Z" fill="#F4B563"/>
<path d="M62.9003 186.8C59.9003 181.4 59.0003 173.6 60.5003 164.6C58.4003 163.7 56.6003 162.5 54.5003 161.6C51.8003 160.1 49.4003 158.6 47.0003 157.1C46.4003 161.9 45.8003 166.4 46.1003 170.6C46.7003 178.4 49.4003 185 54.2003 189.8L59.9003 195.5C64.7003 200.3 71.3003 203 79.1003 203.6C83.3003 203.9 87.8003 203.3 92.6003 202.7C95.3003 202.1 98.3003 201.5 101 200.6C103.1 200 105.2 199.1 107.6 198.2C113 196.1 119 193.4 124.7 190.1C122.3 188.6 119.9 187.1 117.2 185.6C114.8 183.8 112.4 182.3 110 180.5C106.7 182 103.4 183.5 100.1 184.7C98.6003 185.3 97.1003 185.9 95.6003 186.5C94.7003 186.8 93.8003 187.1 93.2003 187.1C90.5003 188 87.8003 188.6 85.1003 189.2C76.1003 190.7 68.3003 189.8 62.9003 186.8Z" fill="#F4B563"/>
<path d="M58.4 146.6C59 146.9 59.9 147.2 60.5 147.5C62 148.4 63.5 149 65 149.6C66.2 146.3 67.7 143 69.5 139.7C70.4 137.6 71.6 135.2 73.1 133.1C73.1 132.8 73.4 132.5 73.7 132.2C74.9 129.8 76.7 127.4 78.2 124.7C79.1 123.5 80 122.3 80.9 121.1C83.6 117.5 86.3 113.6 89.3 110.3C92.6 106.4 95.9 102.8 99.5 99.5C102.8 95.9 106.4 92.6 110.3 89.3C105.5 89.9 101 90.2 96.5 91.1C95 91.4 93.5 91.7 92 92C89 92.3 86.3 93.2 83.3 93.8C83 93.8 82.7 93.8 82.4 94.1C79.4 97.1 76.7 100.4 74 103.7C72.5 105.8 70.7 107.9 69.2 110C67.7 112.4 65.9 114.8 64.1 117.2C62.6 119.9 61.1 122.3 59.6 124.7C56.3 130.7 53.6 136.7 51.5 142.1C53.6 143.6 55.7 145.1 58.4 146.6Z" fill="#F4B563"/>
<path d="M74 146C73.4 141.8 73.1 137.3 73.1 133.1C71.6 135.2 70.4 137.6 69.5 139.7C70.7 141.8 72.5 143.9 74 146Z" fill="#5CAFCD"/>
<path d="M62.9003 62.9C68.3003 59.9 76.1003 59 85.1003 60.5C86.0003 58.4 87.2003 56.6 88.1003 54.5C89.6003 51.8 91.1003 49.4 92.6003 47.3C87.8003 46.4 83.3003 45.8 79.1003 46.1C71.3003 46.7 64.7003 49.4 59.9003 54.2C58.7003 55.1 58.1003 56 57.2003 57.2C58.1003 56 58.7003 55.1 59.9003 54.2L54.2003 59.9C49.4003 64.7 46.7003 71.3 46.1003 79.1C45.8003 83.3 46.4003 87.8 47.0003 92.6C47.6003 95.3 48.2003 98.3 49.1003 101C49.7003 103.1 50.6003 105.2 51.5003 107.6C53.6003 113 56.3003 119 59.6003 125C61.1003 122.3 62.6003 119.9 64.1003 117.2C65.9003 114.8 67.7003 112.4 69.2003 110C67.7003 106.7 66.2003 103.4 65.0003 100.1C64.4003 98.6 63.8003 97.1 63.2003 95.6C62.9003 94.7 62.6003 93.8 62.6003 93.2C61.7003 90.5 61.1003 87.8 60.5003 85.1C59.0003 76.1 59.9003 68.3 62.9003 62.9Z" fill="#5CAFCD"/>
<path d="M175.7 103.7C176 107.9 176.6 112.4 176.6 116.6C178.1 114.5 179.3 112.1 180.2 110C179 107.9 177.2 105.8 175.7 103.7Z" fill="#5CAFCD"/>
<path d="M158.6 96.5C158.3 95 158 93.5 157.7 92C157.4 89 156.5 86.3 155.9 83.3C155.9 83 155.9 82.7 155.6 82.4C152.6 79.4 149.3 76.7 146 74C143.9 72.5 141.8 70.7 139.7 69.5C137.3 67.7 134.9 65.9 132.5 64.1C129.8 62.6 127.4 61.1 124.7 59.6C119 56.3 113 53.6 107.6 51.5C106.1 53.6 104.6 55.7 103.1 58.4C102.8 59 102.5 59.9 102.2 60.5C101.3 62 100.7 63.5 100.1 65C103.4 66.2 106.7 67.7 110 69.5C112.1 70.4 114.5 71.6 116.6 73.1C116.9 73.1 117.2 73.4 117.5 73.7C119.9 74.9 122.3 76.7 124.7 78.2C126.2 79.1 127.4 80 128.6 80.9C132.2 83.6 136.1 86.3 139.4 89.3C143.3 92.6 146.9 95.9 150.2 99.5C153.8 102.8 157.1 106.4 160.4 110.3C159.8 105.5 159.2 101 158.6 96.5Z" fill="#5CAFCD"/>
<path d="M91.0998 153.2C91.3998 154.7 91.6998 156.2 91.9998 157.7C92.2998 160.7 93.1998 163.4 93.7998 166.4C93.7998 166.7 93.7998 167 94.0998 167.3C97.0998 170.3 100.4 173 103.7 175.7C105.8 177.2 107.9 179 110 180.2C112.4 182 114.8 183.8 117.2 185.6C119.9 187.1 122.3 188.6 124.7 190.1C130.7 193.4 136.7 196.1 142.1 198.2C143.6 196.1 145.1 194 146.6 191.3C146.9 190.7 147.2 189.8 147.5 189.2C148.4 187.7 149 186.2 149.6 184.7C146.3 183.5 143 182 139.7 180.2C137.6 179.3 135.2 178.1 133.1 176.6C132.8 176.6 132.5 176.3 132.2 176C129.8 174.8 127.4 173 124.7 171.5C123.5 170.6 122.3 169.7 121.1 168.8C117.5 166.1 113.6 163.4 110.3 160.4C106.4 157.1 102.8 153.8 99.4998 150.2C95.8998 146.9 92.5998 143.3 89.2998 139.4C89.8998 144.2 90.1998 148.7 91.0998 153.2Z" fill="#5CAFCD"/>
<path d="M189.8 195.5L195.5 189.8C200.3 185 203 178.4 203.6 170.6C203.9 166.4 203.3 161.9 202.4 157.1C202.1 154.4 201.5 151.4 200.6 148.7C200 146.6 199.1 144.5 198.2 142.1C196.1 136.7 193.4 130.7 190.1 125C188.6 127.4 187.1 129.8 185.6 132.5C183.8 134.9 182 137.3 180.2 139.7C182 143 183.5 146.3 184.7 149.6C185.3 151.1 185.9 152.6 186.5 154.1C186.8 155 186.8 155.9 187.1 156.5C188 159.2 188.6 161.9 189.2 164.6C190.7 173.6 189.8 181.4 186.8 186.8C181.4 189.8 173.6 190.7 164.6 189.2C163.7 191.3 162.5 193.1 161.6 195.2C160.1 197.9 158.6 200.3 157.1 202.4C161.9 203.3 166.4 203.9 170.6 203.6C178.4 203 185 200.3 189.8 195.5Z" fill="#5CAFCD"/>
<path d="M80.8996 121.1C79.9996 122.3 79.0996 123.5 78.1996 125C76.6996 127.4 74.8996 129.8 73.6996 132.2C73.3996 132.5 73.0996 132.8 73.0996 133.1C73.0996 137.3 73.3996 141.8 73.9996 146C74.2996 148.4 74.5996 151.1 74.8996 153.5C75.4996 156.5 76.0996 159.5 76.6996 162.5C77.2996 165.2 77.8996 168.2 78.7996 170.9C80.5996 177.5 82.6996 183.5 85.0996 189.2C87.7996 188.6 90.4996 188 93.1996 187.1C93.7996 186.8 94.6996 186.8 95.5996 186.5C97.0996 185.9 98.5996 185.3 100.1 184.7C98.5996 181.7 97.3996 178.1 96.1996 174.8C95.2996 172.4 94.6996 169.7 94.0996 167.3C93.7996 167 93.7996 166.7 93.7996 166.4C93.1996 163.4 92.2996 160.7 91.9996 157.7C91.6996 156.2 91.3996 154.7 91.0996 153.2C90.1996 148.7 89.8996 144.2 89.2996 139.4C88.9996 134.6 88.6996 129.8 88.6996 125C88.6996 119.9 88.9996 115.1 89.2996 110.3C86.2996 113.6 83.5996 117.5 80.8996 121.1Z" fill="#47B178"/>
<path d="M175.7 146C173 149.3 170.3 152.6 167.3 155.6C169.7 155 172.4 154.4 174.8 153.5C175.1 151.1 175.4 148.4 175.7 146Z" fill="#47B178"/>
<path d="M74 103.7C76.7 100.4 79.4 97.4 82.4 94.1C80 94.7 77.3 95.3 74.9 96.2C74.6 98.6 74.3 101.3 74 103.7Z" fill="#47B178"/>
<path d="M168.8 128.6C169.7 127.4 170.6 126.2 171.5 125C173 122.3 174.8 119.9 176 117.5C176.3 117.2 176.6 116.9 176.6 116.6C176.6 112.4 176 107.9 175.7 103.7C175.4 101.3 175.1 98.6 174.8 96.2C174.2 93.2 173.6 90.2 173 87.2C172.4 84.5 171.8 81.5 170.9 78.8C169.1 72.2 167 66.2 164.6 60.5C161.9 61.1 159.2 61.7 156.5 62.6C155.9 62.9 155 62.9 154.1 63.2C152.6 63.8 151.1 64.4 149.6 65C151.1 68 152.3 71.6 153.5 74.9C154.4 77.3 155 80 155.6 82.4C155.9 82.7 155.9 83 155.9 83.3C156.5 86.3 157.4 89 157.7 92C158 93.5 158.3 95 158.6 96.5C159.2 101 159.8 105.5 160.4 110.3C160.7 115.1 160.7 119.9 160.7 125C160.7 129.8 160.7 134.6 160.4 139.4C163.4 136.1 166.1 132.2 168.8 128.6Z" fill="#47B178"/>
<path d="M157.1 47C154.1 43.1 151.1 39.5 148.1 36.8C142.1 31.7 135.8 29 128.9 29H120.8C113.9 29 107.6 31.7 101.6 36.8C98.5998 39.5 95.2998 43.1 92.5998 47C91.0998 49.4 89.5998 51.8 88.0998 54.5C87.1998 56.6 85.9998 58.4 85.0998 60.5C82.6998 66.2 80.5998 72.2 78.7998 78.8C81.4998 77.9 84.4998 77.3 87.1998 76.7C90.1998 76.1 93.1998 75.5 96.1998 74.9C97.3998 71.6 98.5998 68 100.1 65C100.7 63.5 101.3 62 102.2 60.5C102.5 59.9 102.8 59 103.1 58.4C104.6 55.7 106.1 53.6 107.6 51.5C112.7 43.7 118.7 38.9 124.7 37.4C131 38.9 137 43.7 142.1 51.5C144.5 50.6 146.6 49.7 148.7 49.1" fill="#47B178"/>
<path d="M120.8 220.7H128.9C135.8 220.7 142.1 218 148.1 212.9C151.1 210.2 154.1 206.6 157.1 202.4C158.6 200.3 160.1 197.9 161.6 195.2C162.5 193.1 163.7 191.3 164.6 189.2C167 183.5 169.1 177.5 170.9 170.9L162.5 173C159.5 173.6 156.5 174.2 153.5 174.8C152.3 178.1 151.1 181.7 149.6 184.7C149 186.2 148.4 187.7 147.5 189.2C147.2 189.8 146.9 190.7 146.6 191.3C145.1 194 143.6 196.1 142.1 198.2C137 206 131 210.8 124.7 212.3C118.7 210.8 112.7 206 107.6 198.2C105.2 199.1 103.1 200 101 200.6L92.5996 202.4C95.2996 206.6 98.5996 210.2 101.6 212.9C107.6 218 113.9 220.7 120.8 220.7Z" fill="#47B178"/>
</g>
<defs>
<clipPath id="clip0_1789_7037">
<rect width="192" height="192" fill="white" transform="translate(29 29)"/>
</clipPath>
</defs>
</svg>
