<svg width="250" height="250" viewBox="0 0 250 250" fill="none" xmlns="http://www.w3.org/2000/svg">
<path d="M173.845 80.2308C184.727 80.2308 194.859 84.3346 202.364 91.05C207.242 95.1538 214.747 91.7962 214.747 85.0808V43.2962C214.747 35.0885 207.993 28 199.362 28H47.3853C38.7545 28 32 34.7154 32 43.2962V207.077C32 215.284 38.7545 222 47.3853 222H199.737C207.993 222 215.123 215.284 215.123 206.704V164.92C215.123 158.577 207.617 154.846 202.739 158.95C194.859 165.666 185.103 169.77 174.22 169.77C149.454 169.77 129.565 149.623 129.565 125C129.565 100.377 149.454 80.2308 173.845 80.2308Z" fill="#EE5A29"/>
</svg>
