<svg width="250" height="250" viewBox="0 0 250 250" fill="none" xmlns="http://www.w3.org/2000/svg">
<g clip-path="url(#clip0_2152_3877)">
<path d="M195.959 143.92C194.439 144.963 192.665 145.578 190.824 145.701C188.982 145.824 187.142 145.451 185.496 144.62C181.631 142.447 179.549 137.351 179.549 130.408V109.127C179.549 98.911 175.484 91.6426 168.684 89.6694C157.192 86.3224 148.611 100.335 145.299 105.605L124.975 138.35V98.3865C124.749 89.1698 121.738 83.6498 116.042 82.0013C112.279 80.9023 106.633 81.3519 101.138 89.6944L55.6973 162.304C49.6513 150.789 46.5163 137.98 46.564 124.988C46.564 81.227 81.6921 45.6341 124.975 45.6341C168.258 45.6341 203.511 81.227 203.511 124.988V125.212C203.511 125.212 203.511 125.362 203.511 125.437C203.938 133.904 201.178 140.648 195.984 143.92H195.959ZM221.05 125.012V124.588C220.699 71.261 177.742 28 124.975 28C72.2075 28 29 71.5108 29 124.988C29 178.464 72.057 222 124.975 222C149.245 221.999 172.592 212.738 190.213 196.123C191.923 194.519 192.93 192.309 193.014 189.971C193.099 187.634 192.254 185.357 190.664 183.635C189.904 182.797 188.984 182.117 187.958 181.634C186.932 181.152 185.821 180.876 184.687 180.823C183.554 180.769 182.421 180.939 181.354 181.323C180.287 181.707 179.307 182.298 178.47 183.06C170.884 190.223 161.922 195.787 152.122 199.417C142.322 203.046 131.886 204.667 121.442 204.182C110.997 203.697 100.758 201.115 91.3404 196.593C81.9227 192.071 73.5202 185.7 66.6372 177.865L107.536 112.424V142.622C107.536 157.134 113.182 161.829 117.924 163.203C122.666 164.577 129.918 163.628 137.521 151.339L160.103 114.947C160.806 113.773 161.483 112.774 162.085 111.899V130.408C162.085 143.97 167.555 154.811 177.14 160.156C181.499 162.498 186.41 163.629 191.359 163.432C196.308 163.234 201.112 161.714 205.268 159.032C215.806 152.213 221.552 139.874 220.95 125.012H221.05Z" fill="#17181B"/>
</g>
<defs>
<clipPath id="clip0_2152_3877">
<rect width="192" height="194" fill="white" transform="translate(29 28)"/>
</clipPath>
</defs>
</svg>
