<svg width="250" height="250" viewBox="0 0 250 250" fill="none" xmlns="http://www.w3.org/2000/svg">
<path fill-rule="evenodd" clip-rule="evenodd" d="M121 25.3145C117.883 27.3205 60.72 55.1395 39.181 65.1315C34.606 67.2535 29.768 70.0845 28.431 71.4215C25.402 74.4505 25.248 78.9465 28.085 81.5385C29.231 82.5865 39.019 87.9435 49.835 93.4435C62.866 100.071 69.611 104.042 69.828 105.216C70.088 106.625 66.252 108.872 51.102 116.181C40.623 121.237 31.805 126.009 31.507 126.785C30.582 129.197 32.785 130.733 49.14 139.077C60.402 144.823 65 147.671 65 148.901C65 150.155 60.518 152.767 48.75 158.371C29.473 167.55 26 169.918 26 173.884C26 175.445 26.787 177.66 27.75 178.806C28.712 179.952 49.975 191.25 75 203.912C116.729 225.026 120.926 226.934 125.635 226.939C130.416 226.944 133.684 225.39 173.135 204.358C196.436 191.936 217.161 180.843 219.191 179.707C221.221 178.571 223.439 176.298 224.119 174.656C226.288 169.42 224.171 167.461 205.493 157.426C192.771 150.59 188.5 147.824 188.5 146.417C188.5 145.028 192.337 142.437 203.201 136.491C211.287 132.065 218.389 127.957 218.984 127.361C220.596 125.747 219.349 123.58 215.725 121.695C198.901 112.949 185.239 105.46 184.036 104.325C181.607 102.034 182.512 101.414 207.5 88.2295C215.2 84.1665 222.052 80.2975 222.728 79.6295C223.403 78.9625 224.245 76.9675 224.6 75.1955C225.504 70.6745 222.214 67.9325 206.37 59.9995C199.291 56.4555 180.477 46.6675 164.559 38.2495C137.03 23.6905 135.347 22.9465 130.059 23.0025C126.068 23.0445 123.513 23.6965 121 25.3145ZM156.414 47.8975C202.359 71.6885 203.5 72.3285 203.5 74.3235C203.5 76.4905 200.562 78.1895 156.898 101.286C140.617 109.898 126.442 116.929 125.398 116.912C122.07 116.855 47.544 78.6025 47.199 76.7735C46.964 75.5265 49.497 73.8805 57.192 70.2775C62.861 67.6225 81 58.8475 97.5 50.7765C114 42.7055 128.811 36.0665 130.414 36.0225C132.292 35.9715 141.533 40.1925 156.414 47.8975ZM181.929 158.867C184.443 160.462 190.455 163.716 195.288 166.097C208.304 172.511 209.388 171.229 176.019 188.885C166.933 193.692 152.255 201.521 143.401 206.284C134.547 211.047 126.672 214.947 125.901 214.951C124.013 214.96 50.958 178.126 48.783 176.068C47.839 175.175 47.39 173.922 47.786 173.284C48.182 172.646 55.765 168.69 64.637 164.493L80.767 156.862L101.965 167.403C113.623 173.201 124.254 177.944 125.588 177.944C127.627 177.944 136.024 173.74 168 156.708C172.307 154.414 175.756 154.948 181.929 158.867Z" fill="#6C4CFF"/>
</svg>
