<svg width="250" height="250" viewBox="0 0 250 250" fill="none" xmlns="http://www.w3.org/2000/svg">
<g clip-path="url(#clip0_2108_4006)">
<path d="M35.5447 180.7C34.0025 181.433 33 182.976 33 184.712C33 186.448 34.0025 187.991 35.5447 188.724L121.14 228.843C122.296 229.382 123.53 229.653 124.764 229.653V140.156C123.492 140.156 122.219 140.427 121.024 140.966L35.5447 180.7Z" fill="#F27923"/>
<path d="M124.775 140.121V229.617C126.086 229.657 127.436 229.347 128.67 228.807L214.033 188.843C215.575 188.11 216.578 186.567 216.578 184.831C216.578 183.134 215.575 181.553 214.033 180.819L128.515 140.97C127.32 140.43 126.048 140.121 124.775 140.121Z" fill="#F5A730"/>
<path d="M33 63.5841C33 65.3201 34.0025 66.8631 35.5447 67.596L121.14 107.676C122.296 108.217 123.53 108.487 124.764 108.525C125.843 108.525 126.923 108.371 127.964 107.985C128.774 107.599 128.619 107.676 130.355 106.866C139.184 102.777 133.323 105.478 213.984 67.7118C215.525 66.9789 216.528 65.4358 216.528 63.6999C216.528 62.0025 215.525 60.4209 213.984 59.688L128.504 19.839C126.152 18.7203 123.414 18.7203 121.062 19.839L35.5447 59.5722C34.0025 60.3052 33 61.8868 33 63.5841H33Z" fill="#20AD92"/>
<path d="M124.764 113.537V140.117C123.492 140.117 122.219 140.386 121.024 140.927L35.5447 180.698C34.0025 181.431 33 182.974 33 184.71V66.5518V63.5814C33 65.3174 34.0025 66.8604 35.5447 67.5933L121.14 107.674C122.296 108.214 123.53 108.484 124.764 108.522C125.843 108.522 126.923 108.368 127.964 107.982L127.81 108.059C125.149 109.255 124.764 110.49 124.764 113.537Z" fill="#D0D1D1"/>
</g>
<defs>
<clipPath id="clip0_2108_4006">
<rect width="184" height="211" fill="white" transform="translate(33 19)"/>
</clipPath>
</defs>
</svg>
