<svg width="250" height="250" viewBox="0 0 250 250" fill="none" xmlns="http://www.w3.org/2000/svg">
<g clip-path="url(#clip0_2152_3880)">
<path d="M167.597 79.2703V20L108.265 79.2703H58.8661L19.3469 39.5603V168.604C19.3399 176.421 20.868 184.161 23.8439 191.385C26.8198 198.608 31.1852 205.172 36.6904 210.701C42.1956 216.23 48.7328 220.617 55.9283 223.609C63.1239 226.602 70.8366 228.143 78.6257 228.143H167.757V79.2703H167.597Z" fill="#ED1C24"/>
<path d="M125.141 99.5808H61.9635C48.3371 99.5808 37.2908 110.666 37.2908 124.339V126.161C37.2908 139.835 48.3371 150.92 61.9635 150.92H125.141C138.767 150.92 149.814 139.835 149.814 126.161V124.339C149.814 110.666 138.767 99.5808 125.141 99.5808Z" fill="white"/>
<path d="M122.044 145.078C132.956 145.078 141.803 136.201 141.803 125.25C141.803 114.299 132.956 105.422 122.044 105.422C111.131 105.422 102.284 114.299 102.284 125.25C102.284 136.201 111.131 145.078 122.044 145.078Z" fill="black"/>
<path d="M64.6871 109.656C67.8558 109.656 70.9534 110.599 73.5881 112.365C76.2228 114.132 78.2762 116.643 79.4889 119.58C80.7015 122.518 81.0187 125.75 80.4006 128.869C79.7824 131.988 78.2565 134.852 76.0159 137.101C73.7753 139.349 70.9205 140.88 67.8127 141.501C64.7049 142.121 61.4835 141.803 58.556 140.586C55.6285 139.369 53.1264 137.308 51.3659 134.664C49.6055 132.021 48.6658 128.912 48.6658 125.733C48.6658 121.469 50.3538 117.379 53.3584 114.364C56.3629 111.349 60.438 109.656 64.6871 109.656ZM64.6871 105.69C60.7685 105.679 56.9348 106.835 53.6707 109.011C50.4066 111.187 47.8588 114.285 46.3495 117.914C44.8401 121.543 44.437 125.539 45.1912 129.398C45.9453 133.257 47.8228 136.804 50.5862 139.592C53.3496 142.38 56.8748 144.283 60.7161 145.061C64.5573 145.839 68.5421 145.456 72.1665 143.961C75.7909 142.466 78.8921 139.926 81.0779 136.662C83.2638 133.398 84.4361 129.558 84.4467 125.625C84.4327 120.366 82.3481 115.325 78.647 111.601C74.9459 107.877 69.9282 105.772 64.6871 105.744V105.69Z" fill="#ED1C24"/>
<path d="M102.444 166.032C102.065 165.662 101.557 165.455 101.029 165.455C100.5 165.455 99.9924 165.662 99.6135 166.032L93.5788 172.088L87.4907 166.032C87.3294 165.828 87.1296 165.658 86.9028 165.531C86.6759 165.404 86.4265 165.324 86.1686 165.294C85.9107 165.264 85.6495 165.286 85.3999 165.357C85.1503 165.429 84.9171 165.549 84.7137 165.71C84.5103 165.872 84.3407 166.073 84.2145 166.3C84.0884 166.528 84.0081 166.778 83.9784 167.037C83.9486 167.296 83.9699 167.558 84.0411 167.809C84.1123 168.059 84.232 168.293 84.3933 168.497C84.4713 168.63 84.5815 168.74 84.7137 168.819L91.6029 175.732V189.236C91.6029 189.762 91.811 190.267 92.1816 190.638C92.5522 191.01 93.0548 191.219 93.5788 191.219C94.0945 191.193 94.5822 190.976 94.9474 190.61C95.3125 190.243 95.5289 189.754 95.5548 189.236V175.732L102.444 168.819C102.809 168.448 103.014 167.947 103.014 167.425C103.014 166.904 102.809 166.403 102.444 166.032Z" fill="white"/>
<path d="M12.5113 173.642H52.4043C52.7967 173.628 53.1693 173.466 53.4469 173.187C53.7245 172.909 53.8863 172.535 53.8996 172.141C53.9006 171.761 53.7578 171.395 53.5001 171.116C53.2424 170.838 52.8889 170.668 52.5111 170.641H12.5113C12.3202 170.626 12.1281 170.651 11.9471 170.714C11.7661 170.778 11.6002 170.878 11.4597 171.009C11.3192 171.14 11.2073 171.298 11.1309 171.475C11.0546 171.651 11.0155 171.842 11.016 172.034C11.0013 172.24 11.0291 172.447 11.0977 172.641C11.1662 172.836 11.274 173.014 11.4144 173.165C11.5547 173.316 11.7246 173.436 11.9133 173.518C12.1021 173.6 12.3057 173.642 12.5113 173.642Z" fill="white"/>
<path d="M60.0945 177.822H4.87453C4.48728 177.836 4.12052 178 3.85154 178.28C3.58256 178.56 3.43237 178.933 3.43262 179.322C3.4459 179.702 3.60208 180.062 3.86967 180.331C4.13725 180.599 4.49634 180.756 4.87453 180.769H60.0945C60.4869 180.756 60.8595 180.593 61.1371 180.315C61.4147 180.036 61.5765 179.662 61.5899 179.269C61.576 178.88 61.4124 178.512 61.1334 178.242C60.8545 177.972 60.482 177.822 60.0945 177.822Z" fill="white"/>
<path d="M52.4042 185.003H12.5112C12.3201 184.988 12.128 185.013 11.947 185.076C11.766 185.14 11.6 185.24 11.4596 185.371C11.3191 185.502 11.2072 185.661 11.1308 185.837C11.0544 186.013 11.0153 186.204 11.0159 186.396C11.0159 186.593 11.0546 186.788 11.1297 186.97C11.2048 187.152 11.315 187.318 11.4538 187.457C11.5927 187.596 11.7575 187.707 11.939 187.782C12.1204 187.858 12.3148 187.897 12.5112 187.897H52.4042C52.7965 187.883 53.1692 187.721 53.4468 187.442C53.7244 187.164 53.8862 186.79 53.8995 186.396C53.9005 186.016 53.7577 185.65 53.4999 185.371C53.2422 185.093 52.8888 184.923 52.511 184.896L52.4042 185.003Z" fill="white"/>
<path d="M134.807 172.141H174.914C175.31 172.141 175.691 171.983 175.971 171.702C176.251 171.42 176.409 171.039 176.409 170.641C176.409 170.243 176.251 169.861 175.971 169.58C175.691 169.298 175.31 169.14 174.914 169.14H134.807C134.411 169.14 134.03 169.298 133.75 169.58C133.469 169.861 133.312 170.243 133.312 170.641C133.312 171.039 133.469 171.42 133.75 171.702C134.03 171.983 134.411 172.141 134.807 172.141Z" fill="white"/>
<path d="M182.497 176.321H127.17C126.969 176.314 126.769 176.348 126.582 176.42C126.394 176.492 126.223 176.601 126.078 176.741C125.934 176.881 125.819 177.049 125.74 177.235C125.662 177.421 125.621 177.62 125.622 177.822C125.635 178.216 125.797 178.589 126.074 178.868C126.352 179.147 126.725 179.309 127.117 179.322H182.497C182.894 179.322 183.274 179.164 183.554 178.883C183.835 178.601 183.992 178.22 183.992 177.822C183.992 177.424 183.835 177.042 183.554 176.761C183.274 176.479 182.894 176.321 182.497 176.321Z" fill="white"/>
<path d="M174.914 183.502H134.807C134.411 183.502 134.03 183.66 133.75 183.942C133.469 184.223 133.312 184.605 133.312 185.003C133.312 185.401 133.469 185.782 133.75 186.064C134.03 186.345 134.411 186.503 134.807 186.503H174.914C175.31 186.503 175.691 186.345 175.971 186.064C176.251 185.782 176.409 185.401 176.409 185.003C176.409 184.605 176.251 184.223 175.971 183.942C175.691 183.66 175.31 183.502 174.914 183.502Z" fill="white"/>
<path d="M240.494 118.605C238.81 114.301 235.694 110.713 231.675 108.451C227.656 106.188 222.981 105.39 218.443 106.191C213.904 106.992 209.781 109.343 206.773 112.846C203.764 116.349 202.056 120.788 201.936 125.411C201.981 128.136 202.543 130.828 203.592 133.342C207.102 143.194 208.194 153.75 206.776 164.116C205.358 174.481 201.472 184.351 195.447 192.89C189.421 201.428 181.434 208.384 172.161 213.168C162.888 217.952 152.603 220.423 142.177 220.372C136.396 220.427 130.633 219.725 125.034 218.282C139.545 226.366 156.176 229.792 172.686 228.099C189.197 226.407 204.794 219.676 217.375 208.814C229.957 197.953 238.918 183.482 243.052 167.353C247.185 151.223 246.293 134.21 240.494 118.605Z" fill="#ED1C24"/>
</g>
<defs>
<clipPath id="clip0_2152_3880">
<rect width="250" height="250" fill="white"/>
</clipPath>
</defs>
</svg>
