<svg width="250" height="250" viewBox="0 0 250 250" fill="none" xmlns="http://www.w3.org/2000/svg">
<path d="M35.342 174.02C33.3514 177.274 31.0968 181.087 29.3173 184.107C28.9252 184.78 28.6764 185.529 28.5633 186.301C28.4559 187.076 28.4969 187.865 28.6839 188.624C28.8649 189.389 29.1967 190.1 29.6491 190.736C30.1015 191.371 30.6746 191.916 31.3306 192.34L71.3168 217.077C72.003 217.508 72.7797 217.796 73.5865 217.924C74.3858 218.053 75.2152 218.023 76.0069 217.826C76.7987 217.629 77.5451 217.281 78.2011 216.797C78.8572 216.312 79.4076 215.7 79.8223 214.996C81.4359 212.302 83.4794 208.813 85.6736 205.09C101.523 179.006 117.584 182.2 146.275 195.889L185.937 214.761C186.68 215.119 187.486 215.322 188.309 215.36C189.132 215.398 189.953 215.269 190.725 214.981C191.494 214.693 192.203 214.254 192.799 213.687C193.402 213.119 193.877 212.438 194.209 211.681L213.248 168.602C213.572 167.875 213.753 167.096 213.776 166.301C213.806 165.514 213.678 164.72 213.406 163.978C213.135 163.237 212.728 162.548 212.2 161.958C211.672 161.367 211.039 160.891 210.322 160.535C201.96 156.585 185.319 148.814 170.404 141.489C116.152 115.223 70.3743 116.956 35.342 174.02Z" fill="url(#paint0_linear_1789_6848)"/>
<path d="M214.629 76.0935C216.642 72.8396 218.897 69.0333 220.653 66.014C221.053 65.3254 221.317 64.5612 221.43 63.7666C221.543 62.9796 221.498 62.1699 221.302 61.3981C221.102 60.6243 220.753 59.897 220.276 59.2566C219.8 58.6142 219.204 58.0718 218.52 57.6599L178.594 32.923C177.9 32.4916 177.131 32.2041 176.324 32.0755C175.517 31.9468 174.695 31.9846 173.903 32.1738C173.112 32.3706 172.365 32.7187 171.709 33.203C171.053 33.6872 170.503 34.3002 170.081 35.0039C168.505 37.6978 166.423 41.1863 164.229 44.9093C148.319 71.1143 132.409 67.921 103.688 54.232L64.0637 35.352C63.3248 34.9964 62.5255 34.7845 61.7112 34.7391C60.8968 34.6861 60.0749 34.8072 59.3058 35.0796C58.5367 35.352 57.8279 35.7758 57.2247 36.3282C56.6139 36.8806 56.1313 37.5465 55.7845 38.2881L36.7452 81.4888C36.0908 82.9541 36.0287 84.6171 36.5717 86.1275C36.8432 86.8766 37.2579 87.5652 37.7857 88.1555C38.3136 88.7457 38.9545 89.23 39.6708 89.5781C48.0632 93.5357 64.7047 101.3 79.5892 108.632C133.699 134.89 179.619 133.165 214.629 76.0935Z" fill="url(#paint1_linear_1789_6848)"/>
<defs>
<linearGradient id="paint0_linear_1789_6848" x1="211.966" y1="229.886" x2="90.9571" y2="160.588" gradientUnits="userSpaceOnUse">
<stop stop-color="#0052CC"/>
<stop offset="0.92" stop-color="#2380FB"/>
<stop offset="1" stop-color="#2684FF"/>
</linearGradient>
<linearGradient id="paint1_linear_1789_6848" x1="37.9991" y1="20.2026" x2="159.038" y2="89.5012" gradientUnits="userSpaceOnUse">
<stop stop-color="#0052CC"/>
<stop offset="0.92" stop-color="#2380FB"/>
<stop offset="1" stop-color="#2684FF"/>
</linearGradient>
</defs>
</svg>
