<svg width="250" height="250" viewBox="0 0 250 250" fill="none" xmlns="http://www.w3.org/2000/svg">
<path d="M119.403 181.736C155.896 181.736 184.102 154.026 184.102 119.842C184.102 87.8176 157.604 68.2635 140.052 68.2635C115.611 68.2635 96.0215 85.5023 93.2305 111.094C92.7132 115.833 88.9774 119.807 84.2363 119.773C76.3545 119.716 64.8963 119.649 57.6429 119.674C54.5202 119.685 51.9383 117.138 52.0927 114.002C53.1874 91.8065 60.5707 71.0534 74.6504 55.1116C90.2954 37.3975 113.079 27 140.052 27C185.37 27 228.153 68.3881 228.153 119.842C228.153 176.815 181.189 223 120.367 223C76.9916 223 33.3055 194.508 18.0532 154.676C17.9966 154.528 17.9874 154.374 18.015 154.214C18.2179 153.035 18.6213 151.958 19.0185 150.898C19.596 149.357 20.1606 147.85 20.0781 146.113L19.8145 140.565C19.6846 137.828 21.2232 135.282 23.712 134.118L25.9169 133.086C28.431 131.91 30.2181 129.593 30.7128 126.87C31.4518 122.8 35.0059 119.842 39.1543 119.842C45.6321 119.842 51.2655 124.172 53.3816 130.328C63.5665 159.959 79.7578 181.736 119.403 181.736Z" fill="#E86A6C"/>
</svg>
