<svg width="250" height="250" viewBox="0 0 250 250" fill="none" xmlns="http://www.w3.org/2000/svg">
<g clip-path="url(#clip0_2108_4013)">
<path d="M149.281 179.603C177.11 176.528 203.345 161.781 217.791 137.167C210.95 198.047 144.013 236.527 89.3758 212.901C84.3411 210.731 80.0075 207.119 77.0335 202.475C64.755 183.3 60.7187 158.9 66.5181 136.758C83.0878 165.2 116.78 182.634 149.281 179.603Z" fill="#F3B01C"/>
<path d="M65.5023 118.894C54.2221 144.819 53.7335 175.173 67.5628 200.153C18.8947 163.737 19.4258 85.8096 66.968 49.7589C71.3653 46.4268 76.5911 44.4491 82.0719 44.1481C104.611 42.9658 127.511 51.6291 143.571 67.7735C110.941 68.096 79.1616 88.8837 65.5023 118.894Z" fill="#8D2676"/>
<path d="M159.306 75.7511C142.843 52.9211 117.075 37.3787 88.8428 36.9058C143.417 12.2701 210.545 52.2117 217.852 111.264C218.532 116.746 217.64 122.335 215.197 127.28C205.001 147.874 186.094 163.846 164.001 169.758C180.188 139.899 178.191 103.418 159.306 75.7511Z" fill="#EE342F"/>
</g>
<defs>
<clipPath id="clip0_2108_4013">
<rect width="188" height="191" fill="white" transform="translate(31 29)"/>
</clipPath>
</defs>
</svg>
