<svg width="250" height="250" viewBox="0 0 250 250" fill="none" xmlns="http://www.w3.org/2000/svg">
<g clip-path="url(#clip0_2152_3903)">
<path d="M220.753 109.327C220.65 109.717 220.461 110.08 220.201 110.389C212.741 119.046 190.518 118.182 190.518 118.182C179.427 118.182 168.579 114.941 159.301 108.857C150.024 102.773 142.721 94.111 138.289 83.9325C135.882 78.2109 131.913 73.2843 126.837 69.7181C123.05 67.0591 118.639 65.4295 114.035 64.9886C114.035 64.9886 85.5192 58.1999 62.1716 89.421C62.0243 89.6152 61.9241 89.8411 61.8791 90.0808C61.8341 90.3205 61.8454 90.5674 61.9122 90.8019C61.979 91.0364 62.0994 91.2522 62.2639 91.4321C62.4285 91.6119 62.6326 91.7509 62.8601 91.8381L68.3941 93.9672C70.4911 94.7739 72.3353 96.1257 73.737 97.8834C75.1385 99.641 76.0469 101.741 76.3684 103.967L78.5036 118.801C81.4754 145.921 100.596 168.207 127.848 168.207C137.678 168.221 147.287 165.281 155.431 159.769C155.431 159.769 160.085 156.305 166.325 152.238C173.132 147.81 180.867 145.013 188.93 144.064C196.991 143.115 205.163 144.04 212.811 146.767L216.793 148.251C217.46 148.491 218.012 148.976 218.336 149.608C218.659 150.24 218.731 150.971 218.536 151.653C212.728 171.887 200.488 189.673 183.675 202.316C166.862 214.958 146.391 221.768 125.364 221.714C73.2659 221.574 29.3683 177.823 29.0023 125.66C28.8358 101.405 37.7729 77.9734 54.0434 60.004C70.314 42.0348 92.7313 30.839 116.856 28.6341C140.979 26.4292 165.051 33.376 184.302 48.0987C203.553 62.8213 216.58 84.2459 220.802 108.129C220.874 108.527 220.858 108.936 220.753 109.327ZM93.9277 81.4638C93.9277 84.577 91.4071 87.1008 88.2978 87.1008C85.1885 87.1008 82.6679 84.577 82.6679 81.4638C82.6679 78.3507 85.1885 75.827 88.2978 75.827C91.4071 75.827 93.9277 78.3507 93.9277 81.4638ZM89.4858 116.629C90.9064 125.408 97.8087 153.278 128.703 158.409C128.798 158.42 128.893 158.398 128.974 158.346C129.054 158.295 129.113 158.217 129.142 158.125C129.171 158.035 129.168 157.936 129.133 157.848C129.097 157.759 129.031 157.686 128.948 157.641C121.792 154.342 103.046 143.504 90.244 116.402C90.2025 116.317 90.1318 116.248 90.0447 116.21C89.9576 116.172 89.8598 116.166 89.7686 116.193C89.6774 116.22 89.5989 116.279 89.5472 116.359C89.4953 116.439 89.4736 116.534 89.4858 116.629Z" fill="url(#paint0_linear_2152_3903)"/>
</g>
<defs>
<linearGradient id="paint0_linear_2152_3903" x1="29" y1="135.035" x2="221" y2="135.035" gradientUnits="userSpaceOnUse">
<stop stop-color="#E86668"/>
<stop offset="1" stop-color="#8933B7"/>
</linearGradient>
<clipPath id="clip0_2152_3903">
<rect width="192" height="194" fill="white" transform="translate(29 28)"/>
</clipPath>
</defs>
</svg>
