<svg width="250" height="250" viewBox="0 0 250 250" fill="none" xmlns="http://www.w3.org/2000/svg">
<path d="M125.131 135.395C133.675 135.395 142.028 132.861 149.132 128.113C156.236 123.366 161.773 116.618 165.042 108.723C168.311 100.829 169.165 92.1423 167.497 83.7623C165.828 75.3823 161.712 67.6853 155.669 61.6449C149.625 55.6045 141.926 51.492 133.546 49.8275C125.165 48.1631 116.479 49.0215 108.586 52.2941C100.693 55.5668 93.9477 61.1067 89.2036 68.2132C84.4595 75.3197 81.9295 83.6734 81.9336 92.2179C81.9336 97.8897 83.0511 103.506 85.2222 108.746C87.3933 113.985 90.5755 118.746 94.587 122.756C98.5985 126.765 103.361 129.945 108.602 132.114C113.842 134.282 119.459 135.397 125.131 135.395Z" fill="#FFCD00"/>
<path d="M125.399 156.983H125.255C110.851 156.979 96.8586 152.179 85.4863 143.339C74.1141 134.499 66.0096 122.124 62.4523 108.166C60.2831 99.531 53.2592 92.2178 44.3553 92.2178H17.2925C17.2925 120.851 28.667 148.312 48.9139 168.559C69.1607 188.805 96.6213 200.18 125.255 200.18H125.399V156.983Z" fill="#00ECBB"/>
<path d="M125.131 156.983H125.255C139.659 156.983 153.653 152.183 165.026 143.343C176.399 134.503 184.503 122.126 188.057 108.166C190.247 99.531 197.271 92.2178 206.175 92.2178H233.237C233.232 120.853 221.853 148.314 201.603 168.56C181.353 188.806 153.89 200.18 125.255 200.18H125.131V156.983Z" fill="#AF64FF"/>
<path d="M201.608 168.552C191.583 178.578 179.681 186.531 166.582 191.957C153.482 197.384 139.443 200.176 125.264 200.176C111.086 200.176 97.0458 197.384 83.9466 191.957C70.8474 186.531 58.9454 178.578 48.92 168.552L79.4535 138.018C91.6059 150.163 108.083 156.985 125.264 156.985C142.445 156.985 158.922 150.163 171.075 138.018L201.608 168.552Z" fill="#7131FF"/>
</svg>
