<svg width="250" height="250" viewBox="0 0 250 250" fill="none" xmlns="http://www.w3.org/2000/svg">
<g clip-path="url(#clip0_1789_7015)">
<path d="M186.448 165.725L170.241 155.005L156.721 177.653L140.996 173.042L127.151 194.234L127.861 200.905L203.14 186.995L198.767 139.827L186.448 165.725ZM116.245 145.389L128.323 143.724C130.277 144.604 131.637 144.94 133.98 145.537C137.63 146.491 141.854 147.406 148.11 144.244C149.566 143.52 152.599 140.739 153.825 139.154L203.31 130.151L208.358 191.421L123.582 206.743L116.245 145.389ZM208.167 123.312L203.283 124.245L193.899 27.0156L34 45.6091L53.699 205.919L72.4152 203.195C70.9205 201.055 68.5932 198.466 64.6188 195.151C59.1066 190.559 61.0562 182.758 64.3072 177.833C68.6091 169.51 90.7742 158.934 89.5184 145.631C89.068 140.794 88.3013 134.497 83.8242 130.183C83.6558 131.974 83.9584 133.699 83.9584 133.699C83.9584 133.699 82.1202 131.347 81.2034 128.139C80.2934 126.91 79.5791 126.517 78.6122 124.874C77.9229 126.775 78.0139 128.979 78.0139 128.979C78.0139 128.979 76.5101 125.415 76.2667 122.408C75.3749 123.754 75.1497 126.312 75.1497 126.312C75.1497 126.312 73.1955 120.695 73.6414 117.67C72.7496 115.037 70.1061 109.813 70.8545 97.9379C75.7344 101.367 86.4768 100.552 90.6627 94.3652C92.0527 92.3165 93.0037 86.7224 89.9688 75.7009C88.0192 68.6331 83.1917 58.109 81.3103 54.1165L81.0851 54.2785C82.077 57.4953 84.1222 64.2391 84.907 67.5084C87.2821 77.4257 87.9191 80.8775 86.8044 85.4494C85.8557 89.4236 83.5807 92.0245 77.8137 94.931C72.0466 97.8466 64.3936 90.7514 63.9091 90.359C58.3058 85.8829 53.972 78.5801 53.4874 75.0325C52.9846 71.1495 55.7192 68.8179 57.0978 65.6422C55.1254 66.208 52.9255 67.2118 52.9255 67.2118C52.9255 67.2118 55.5508 64.4878 58.7881 62.1311C60.128 61.2414 60.9152 60.6756 62.3279 59.4984C60.2827 59.4641 58.622 59.5235 58.622 59.5235C58.622 59.5235 62.0322 57.6755 65.5675 56.3295C62.9809 56.2154 60.5057 56.3112 60.5057 56.3112C60.5057 56.3112 68.1155 52.8982 74.1259 50.3932C78.2596 48.6936 82.2976 49.1955 84.5658 52.4853C87.5437 56.7949 90.6718 59.1356 97.3011 60.5866C101.371 58.7774 102.609 57.8466 107.723 56.4504C112.225 51.486 115.76 50.8427 115.76 50.8427C115.76 50.8427 114.006 52.4556 113.538 54.9903C116.09 52.9735 118.888 51.2898 118.888 51.2898C118.888 51.2898 117.805 52.6313 116.795 54.7622L117.03 55.1112C120.008 53.3203 123.509 51.9081 123.509 51.9081C123.509 51.9081 122.508 53.1766 121.334 54.8192C123.579 54.8009 128.134 54.915 129.901 55.1158C140.337 55.3462 142.502 43.9391 146.506 42.5087C151.52 40.7132 153.761 39.6273 162.306 48.0434C169.638 55.2686 175.367 68.2019 172.523 71.0993C170.139 73.5039 165.434 70.1617 160.22 63.6437C157.465 60.1919 155.381 56.1127 154.405 50.9271C153.582 46.5514 150.376 44.0121 150.376 44.0121C150.376 44.0121 152.237 48.1597 152.237 51.8237C152.237 53.8245 152.487 61.3052 155.686 65.503C155.37 66.1167 155.222 68.5396 154.872 69.0027C151.15 64.4924 143.158 61.2642 141.854 60.3128C146.265 63.938 156.405 72.2651 160.3 80.2455C163.983 87.7924 161.812 94.7097 163.676 96.5006C164.206 97.0139 171.597 106.249 173.019 110.889C175.499 118.977 173.167 127.475 169.92 132.748L160.855 134.164C159.528 133.795 158.634 133.61 157.445 132.919C158.1 131.755 159.403 128.853 159.417 128.256L158.905 127.354C156.084 131.363 151.357 135.255 147.43 137.491C142.291 140.411 136.367 139.961 132.511 138.764C121.566 135.378 111.217 127.961 108.721 126.013C108.721 126.013 108.644 127.569 109.115 127.918C111.875 131.039 118.197 136.685 124.307 140.621L111.281 142.058L117.439 190.146C114.709 190.538 114.284 190.73 111.294 191.156C108.66 181.823 103.621 175.729 98.1133 172.18C93.2562 169.049 86.5564 168.345 80.1432 169.618L79.7315 170.097C84.1904 169.631 89.4547 170.279 94.8623 173.713C100.17 177.078 104.447 185.77 106.021 191.003C108.037 197.693 109.431 204.847 104.005 212.43C100.145 217.821 88.8746 220.801 79.7702 214.356C82.2021 218.278 85.4894 221.485 89.9143 222.09C96.4844 222.984 102.72 221.841 107.013 217.422C110.678 213.644 112.621 205.744 112.109 197.423L117.908 196.579L120.001 211.513L216 199.922L208.167 123.312ZM149.762 82.7551C149.493 83.3688 149.073 83.7703 149.705 85.7665L149.744 85.8806L149.844 86.1384L150.108 86.7361C151.247 89.0723 152.499 91.2761 154.589 92.4009C155.131 92.3096 155.69 92.248 156.271 92.2184C158.234 92.1317 159.474 92.4442 160.261 92.8686C160.331 92.4762 160.347 91.9013 160.304 91.0548C160.152 88.0959 160.889 83.0631 155.217 80.4143C153.077 79.4174 150.074 79.7254 149.073 80.9687C149.255 80.9915 149.418 81.0303 149.546 81.0737C151.059 81.6052 150.033 82.1277 149.762 82.7551ZM165.657 110.365C164.913 109.954 161.437 110.116 158.994 110.408C154.339 110.958 149.314 112.578 148.213 113.44C146.211 114.991 147.121 117.697 148.599 118.808C152.747 121.916 156.382 123.998 160.22 123.492C162.577 123.182 164.654 119.44 166.126 116.045C167.134 113.707 167.134 111.184 165.657 110.365ZM124.448 86.419C125.761 85.1688 117.91 83.5262 111.818 87.6921C107.325 90.7651 107.181 97.3538 111.483 101.089C111.913 101.458 112.268 101.72 112.6 101.935C113.856 101.342 115.287 100.742 116.934 100.206C119.716 99.2999 122.03 98.8322 123.932 98.5835C124.842 97.5637 125.9 95.7682 125.636 92.5172C125.276 88.1073 121.944 88.8077 124.448 86.419Z" fill="#632CA6"/>
</g>
<defs>
<clipPath id="clip0_1789_7015">
<rect width="182" height="196" fill="white" transform="translate(34 27)"/>
</clipPath>
</defs>
</svg>
