<svg width="250" height="250" viewBox="0 0 250 250" fill="none" xmlns="http://www.w3.org/2000/svg">
<g clip-path="url(#clip0_1789_6853)">
<path d="M125 29C71.981 29 29 71.981 29 125C29 178.019 71.981 221 125 221C178.019 221 221 178.019 221 125C221 71.981 178.019 29 125 29ZM90.698 171.043C112.543 188.749 146.741 183.798 166.439 160.223C147.331 157.69 124.77 151.705 106.467 144.568C101.518 154.123 97.7195 161.719 90.698 171.043ZM146.871 74.5062C134.899 77.5752 119.244 104.28 110.036 133.518C132.367 143.647 149.863 147.791 174.036 150.707C174.036 150.707 196.367 100.75 146.871 74.5062ZM138.813 197.288C112.728 202.304 78.9567 188.655 66.41 168.626C66.41 168.626 84.3612 148.722 89.3165 137.086C83.9735 132.941 80.7598 130.556 77.351 127.516C57.68 109.977 58.0295 85.8372 78.1003 68.696C100.478 49.5845 134.54 46.4938 160.821 61.1915C187.358 76.0325 202.495 106.568 197.689 135.564C192.418 167.352 168.567 191.566 138.813 197.288ZM129.604 70.6693C114.562 70.4517 103.191 73.4705 92.6247 80.9398C75.2555 93.2172 76.1 112.804 94.7097 124.49C103.59 104.05 110.777 85.4585 129.604 70.6693Z" fill="#4C4C4B"/>
</g>
<defs>
<clipPath id="clip0_1789_6853">
<rect width="192" height="192" fill="white" transform="translate(29 29)"/>
</clipPath>
</defs>
</svg>
