<svg width="250" height="250" viewBox="0 0 250 250" fill="none" xmlns="http://www.w3.org/2000/svg">
<path fill-rule="evenodd" clip-rule="evenodd" d="M151.491 126.726L131.592 137.896C129.828 138.893 127.671 138.294 126.691 136.599L103.753 97.6061C102.675 95.9108 103.362 93.8162 105.028 92.8191L124.927 81.6497C137.669 74.4696 153.843 78.6579 161.195 91.1238C163.645 95.2126 164.724 99.7003 164.724 104.088C164.724 113.064 160.018 121.84 151.491 126.726ZM207.168 65.0952C185.21 27.6977 136.493 14.9327 98.3623 36.5733L35.6277 72.0761C32.1969 74.0708 31.0206 78.359 32.981 81.7496L87.3837 174.096C88.5601 176.091 89.1481 178.285 89.1481 180.579V218.973C89.1481 220.369 90.7165 221.267 91.9906 220.569L109.047 210.896L120.712 204.313L178.055 171.803C203.541 157.342 217.852 131.014 217.852 104.088C217.852 90.8244 214.421 77.3614 207.168 65.0952Z" fill="#5A41E1"/>
</svg>
