<svg width="250" height="250" viewBox="0 0 250 250" fill="none" xmlns="http://www.w3.org/2000/svg">
<g clip-path="url(#clip0_1789_6883)">
<path d="M121.123 66.7379H140.53C141.449 66.7379 142.266 66.0095 142.266 64.9688V47.2787C142.266 46.3422 141.449 45.5096 140.53 45.5096H121.123C120.204 45.5096 119.387 46.238 119.387 47.2787V64.9688C119.387 65.9053 120.204 66.7379 121.123 66.7379Z" fill="#0091E2"/>
<path d="M86.3947 92.1287H66.9883C66.0691 92.1287 65.3541 91.2961 65.252 90.3596V72.6692C65.252 71.6288 66.0691 70.9001 66.9883 70.9001H86.3947C87.4163 70.9001 88.1313 71.7327 88.1313 72.6692V90.3596C88.1313 91.2961 87.3142 92.1287 86.3947 92.1287Z" fill="#0091E2"/>
<path d="M219.993 101.598C231.841 101.598 237.357 105.864 237.97 106.385L240.115 107.945L239.195 110.651C237.663 114.397 235.518 117.727 232.658 120.433C228.369 124.803 220.606 129.902 208.043 129.902H206C200.995 143.014 194.152 157.791 182.61 171.006C175.767 178.915 167.698 185.679 158.709 190.986C147.781 197.333 135.933 201.704 123.574 203.993C114.687 205.658 105.699 206.491 96.711 206.491C76.7937 206.491 59.1236 202.64 48.2968 195.876C38.6956 189.841 31.2395 179.955 26.2346 166.635C21.8426 154.461 19.6977 141.557 19.902 128.654C19.902 124.803 22.9662 121.682 26.7453 121.682H171.783C173.622 121.578 182.406 120.849 187.819 117.727C183.325 110.443 181.997 101.91 184.142 92.8569C185.266 88.1742 187.206 83.5954 189.76 79.5371L191.803 76.5195L194.969 78.3925C195.003 78.4201 195.092 78.4799 195.229 78.5718C197.154 79.8668 208.601 87.5655 210.699 102.43C213.763 101.91 216.929 101.598 219.993 101.598Z" fill="#0091E2"/>
<path d="M59.6349 117.415H40.2285C39.3093 117.415 38.5943 116.687 38.4922 115.646V97.9557C38.4922 96.9152 39.3093 96.1869 40.2285 96.1869H59.6349C60.6565 96.1869 61.3715 97.0192 61.3715 97.9557V115.646C61.3715 116.687 60.5544 117.415 59.6349 117.415Z" fill="#0091E2"/>
<path d="M66.9883 117.415H86.3947C87.3142 117.415 88.1313 116.687 88.1313 115.646V97.9557C88.1313 97.0192 87.4163 96.1869 86.3947 96.1869H66.9883C66.0691 96.1869 65.252 96.9152 65.252 97.9557V115.646C65.3541 116.687 66.0691 117.415 66.9883 117.415Z" fill="#0091E2"/>
<path d="M113.666 117.415H94.2597C93.2384 117.415 92.5234 116.687 92.5234 115.646V97.9557C92.5234 96.9152 93.3405 96.1869 94.2597 96.1869H113.666C114.688 96.1869 115.403 97.0192 115.403 97.9557V115.646C115.403 116.687 114.586 117.415 113.666 117.415Z" fill="#0091E2"/>
<path d="M121.123 117.415H140.53C141.449 117.415 142.266 116.687 142.266 115.646V97.9557C142.266 97.0192 141.551 96.1869 140.53 96.1869H121.123C120.204 96.1869 119.387 96.9152 119.387 97.9557V115.646C119.387 116.687 120.204 117.415 121.123 117.415Z" fill="#0091E2"/>
<path d="M94.2597 92.1287H113.666C114.586 92.1287 115.403 91.2961 115.403 90.3596V72.6692C115.403 71.7327 114.688 70.9001 113.666 70.9001H94.2597C93.3405 70.9001 92.5234 71.6288 92.5234 72.6692V90.3596C92.5234 91.2961 93.2384 92.1287 94.2597 92.1287Z" fill="#0091E2"/>
<path d="M140.53 92.1287H121.123C120.204 92.1287 119.387 91.2961 119.387 90.3596V72.6692C119.387 71.6288 120.204 70.9001 121.123 70.9001H140.53C141.449 70.9001 142.266 71.7327 142.266 72.6692V90.3596C142.266 91.2961 141.449 92.1287 140.53 92.1287Z" fill="#0091E2"/>
<path d="M167.596 117.415H148.19C147.27 117.415 146.555 116.687 146.453 115.646V97.9557C146.453 96.9152 147.27 96.1869 148.19 96.1869H167.596C168.617 96.1869 169.332 97.0192 169.332 97.9557V115.646C169.332 116.687 168.515 117.415 167.596 117.415Z" fill="#0091E2"/>
</g>
<defs>
<clipPath id="clip0_1789_6883">
<rect width="222" height="162" fill="white" transform="translate(19 45)"/>
</clipPath>
</defs>
</svg>
