<svg width="250" height="250" viewBox="0 0 250 250" fill="none" xmlns="http://www.w3.org/2000/svg">
<g clip-path="url(#clip0_1789_6942)">
<path d="M127.819 17.9162C104.957 17.0757 82.6381 25.021 65.4343 40.125C48.2305 55.2291 37.4434 76.3489 35.282 99.1593C33.1207 121.97 39.7487 144.745 53.8087 162.82C67.8687 180.895 88.2967 192.903 110.909 196.385C111.237 196.435 111.548 196.561 111.818 196.753C112.087 196.946 112.308 197.199 112.463 197.492C112.617 197.786 112.701 198.111 112.707 198.443C112.713 198.775 112.641 199.103 112.498 199.402L99.161 226.927C99.161 226.927 98.8486 227.595 98.5839 228.141C98.4284 228.522 98.3842 228.939 98.4563 229.345C98.5283 229.75 98.7138 230.126 98.9911 230.43C99.2684 230.734 99.6261 230.953 100.023 231.061C100.419 231.169 100.838 231.162 101.231 231.041C129.111 222.404 214.102 178.113 214.102 106.488C214.139 58.994 175.194 19.6289 127.819 17.9162Z" fill="#070707"/>
<path d="M160.285 59.6038C160.677 59.6063 161.068 59.6383 161.455 59.6992C162.921 60.0439 163.573 61.3854 162.81 62.5201C162.641 62.7375 162.466 62.9549 162.281 63.1564L137.212 91.6886C137.212 91.6886 136.746 92.1871 136.561 92.4522C135.645 93.7354 136.561 95.2943 138.334 95.3897H148.568C150.252 95.5647 151.12 97.113 150.231 98.3485C150.011 98.6364 149.776 98.9125 149.527 99.1756L131.049 120.035C130.822 120.28 130.61 120.539 130.414 120.809C129.609 122.056 130.541 123.53 132.225 123.625H138.901C139.338 123.598 139.774 123.698 140.156 123.912C140.538 124.127 140.85 124.447 141.056 124.834C141.23 125.194 141.273 125.603 141.176 125.991C141.079 126.379 140.849 126.72 140.526 126.955C140.367 127.109 139.997 127.406 139.997 127.406L97.2659 159.676C97.0128 159.907 96.7477 160.125 96.4717 160.328C96.2705 160.461 96.0349 160.531 95.794 160.531C95.5532 160.531 95.3176 160.461 95.1163 160.328C94.9312 160.232 94.788 160.07 94.7138 159.875C94.6397 159.679 94.6397 159.463 94.714 159.268C94.8093 158.997 95.0793 158.467 95.0793 158.467L106.859 134.161L107.203 133.45C107.992 131.86 107.203 130.508 105.446 130.269H96.5776C96.2433 130.27 95.9093 130.252 95.577 130.216C94.1263 129.977 93.3586 128.758 93.9092 127.565C94.0363 127.3 94.3487 126.785 94.3487 126.785L108.966 102.251C108.966 102.251 109.131 101.975 109.21 101.827C110.009 100.379 109.041 98.9901 107.198 98.937H97.6047C96.3658 98.937 95.487 98.2795 95.2964 97.2827C95.2435 96.774 95.3812 96.2638 95.6828 95.851L100.13 88.0035L114.732 62.2125L115.092 61.6081C115.839 60.256 117.099 59.6038 118.798 59.6038H160.269H160.285Z" fill="white"/>
</g>
<defs>
<clipPath id="clip0_1789_6942">
<rect width="181" height="215" fill="white" transform="translate(34 17)"/>
</clipPath>
</defs>
</svg>
