<svg width="250" height="250" viewBox="0 0 250 250" fill="none" xmlns="http://www.w3.org/2000/svg">
<g clip-path="url(#clip0_1789_7012)">
<path d="M158.076 64.8772C143.215 50.0585 129.037 35.932 124.817 20C120.597 35.932 106.416 50.0585 91.5575 64.8772C69.2697 87.0983 44 112.282 44 150.054C44 160.643 46.0905 171.127 50.152 180.909C54.2135 190.692 60.1666 199.58 67.6714 207.067C75.1762 214.554 84.0856 220.493 93.8911 224.545C103.697 228.597 114.206 230.683 124.819 230.683C135.433 230.683 145.942 228.597 155.747 224.545C165.553 220.493 174.462 214.554 181.967 207.067C189.472 199.58 195.425 190.692 199.487 180.909C203.548 171.127 205.639 160.643 205.639 150.054C205.639 112.285 180.371 87.0983 158.076 64.8772ZM78.3507 168.842C73.3952 168.674 55.1065 137.226 89.035 103.741L111.487 128.207C111.68 128.397 111.83 128.626 111.928 128.878C112.026 129.13 112.069 129.4 112.055 129.67C112.041 129.939 111.969 130.203 111.846 130.444C111.722 130.684 111.549 130.896 111.337 131.065C105.979 136.546 83.1441 159.392 80.3059 167.291C79.72 168.921 78.8644 168.86 78.3507 168.842ZM124.819 210.291C121.169 210.291 117.555 209.573 114.182 208.18C110.81 206.786 107.746 204.744 105.165 202.169C102.584 199.594 100.536 196.537 99.1393 193.172C97.7424 189.808 97.0235 186.202 97.0235 182.56C97.1262 175.837 99.5762 169.359 103.952 164.244C108.964 158.13 124.816 140.933 124.816 140.933C124.816 140.933 140.425 158.382 145.642 164.186C150.187 169.226 152.675 175.781 152.615 182.56C152.615 189.915 149.687 196.968 144.474 202.169C139.261 207.369 132.191 210.291 124.819 210.291ZM178.021 165.322C177.421 166.629 176.062 168.811 174.228 168.878C170.959 168.997 170.609 167.325 168.193 163.757C162.887 155.925 116.587 107.65 107.927 98.3134C100.309 90.1016 106.854 84.3123 109.89 81.2784C113.699 77.4718 124.816 66.3871 124.816 66.3871C124.816 66.3871 157.967 97.766 171.777 119.206C185.586 140.647 180.827 159.2 178.021 165.322Z" fill="#009CDE"/>
</g>
<defs>
<clipPath id="clip0_1789_7012">
<rect width="162" height="211" fill="white" transform="translate(44 20)"/>
</clipPath>
</defs>
</svg>
