<svg width="250" height="250" viewBox="0 0 250 250" fill="none" xmlns="http://www.w3.org/2000/svg">
<g clip-path="url(#clip0_2152_3915)">
<path d="M183.748 102.102C196.161 94.6213 212.328 98.5478 219.854 110.872C227.389 123.197 223.434 139.249 211.021 146.721C210.69 146.92 210.359 147.111 210.028 147.292L73.087 225.589C60.6742 233.07 44.5071 229.144 36.9723 216.819C29.4375 204.495 33.3922 188.443 45.805 180.962C46.136 180.763 46.467 180.572 46.798 180.391L183.748 102.102Z" fill="#81C995"/>
<path d="M85.3516 46.2662C85.4126 31.8833 73.7141 20.1643 59.2281 20.1037C57.3641 20.0951 55.5087 20.2854 53.6794 20.6659C41.406 23.6584 32.8259 34.6596 33.0002 47.2175V202.73L85.2993 203.673L85.3516 46.2662Z" fill="#34A853"/>
<path d="M184.34 147.387C196.997 153.9 212.572 149.731 220.22 137.778C227.571 125.497 223.504 109.618 211.134 102.319C211.039 102.267 210.951 102.215 210.856 102.154L72.9997 23.7189C60.7263 16.3588 44.7595 20.2681 37.338 32.4541C37.1551 32.7568 36.9722 33.0682 36.7979 33.3795C29.5158 45.7559 33.7144 61.6609 46.1794 68.8999C46.2665 68.9518 46.3536 68.995 46.4407 69.0469L184.34 147.387Z" fill="#5BB974"/>
<path d="M209.95 147.569L85.3081 216.698V157.316L184.21 102.561C197.319 95.3478 213.844 100.053 221.108 113.078C221.788 114.288 222.363 115.551 222.842 116.849C226.552 128.827 221.134 141.74 209.95 147.569Z" fill="#81C995"/>
<path d="M59.2018 229.991C73.6438 229.991 85.3514 218.367 85.3514 204.028C85.3514 189.689 73.6438 178.064 59.2018 178.064C44.7598 178.064 33.0522 189.689 33.0522 204.028C33.0522 218.367 44.7598 229.991 59.2018 229.991Z" fill="#1E8E3E"/>
</g>
<defs>
<clipPath id="clip0_2152_3915">
<rect width="191" height="210" fill="white" transform="translate(33 20)"/>
</clipPath>
</defs>
</svg>
