<svg width="250" height="250" viewBox="0 0 250 250" fill="none" xmlns="http://www.w3.org/2000/svg">
<g clip-path="url(#clip0_2108_4032)">
<path d="M150.674 222.662H153.044L191.731 203.242L192.375 202.328V47.3216L191.731 46.4033L153.044 27H150.645L150.674 222.662Z" fill="#5294CF"/>
<path d="M100.326 222.662H97.9229L59.2683 203.242L58.4839 201.888L58.0859 48.111L59.2683 46.4033L97.9229 27H100.356L100.326 222.662Z" fill="#1F5B98"/>
<path d="M97.9922 27H153.007V222.662H97.9922V27Z" fill="#2D72B8"/>
<path d="M211.981 120.435L210.674 120.144L192.007 118.397L191.73 118.535L153.008 116.981H97.9907L59.2678 118.535V88.8953L59.2273 88.917L59.2678 88.8302L97.9907 79.8237H153.008L191.73 88.8302L205.965 96.4254V91.5423L211.981 90.8818L211.358 89.6623L192.311 75.9905L191.73 76.1797L153.008 64.1356H97.9907L59.2678 76.1797V46.4033L39.0176 70.217V91.0147L39.1743 90.9007L45.0335 91.5423V96.5257L39.0176 99.7574V120.451L39.1743 120.435L45.0335 120.522V129.208L39.9783 129.284L39.0176 129.191V149.893L45.0335 153.141V158.182L39.2696 158.821L39.0176 158.631V179.425L59.2678 203.242V173.468L97.9907 185.512H153.008L191.844 173.433L192.361 173.66L211.158 160.19L211.981 158.848L205.965 158.182V153.242L205.177 152.926L192.311 159.887L191.844 160.864L153.008 169.818V169.829H97.9907V169.818L59.2678 160.826V131.077L97.9907 132.626V132.664H153.008L191.73 131.077L192.612 131.484L210.705 129.92L211.981 129.294L205.965 129.208V120.522L211.981 120.435Z" fill="#1A476F"/>
<path d="M191.73 173.468V203.242L211.981 179.425V158.766L191.847 173.433L191.73 173.468ZM191.73 160.891L191.847 160.864L211.981 149.994V129.208L191.73 131.077V160.891ZM191.847 88.8573L191.73 88.8302V118.535L211.981 120.435V99.659L191.847 88.8573ZM191.847 76.2964L211.981 90.8818V70.2224L191.73 46.4033V76.1797L191.847 76.2204V76.2964Z" fill="#2D72B8"/>
</g>
<defs>
<clipPath id="clip0_2108_4032">
<rect width="173" height="196" fill="white" transform="translate(39 27)"/>
</clipPath>
</defs>
</svg>
