<svg width="250" height="250" viewBox="0 0 250 250" fill="none" xmlns="http://www.w3.org/2000/svg">
<g clip-path="url(#clip0_2108_4084)">
<path d="M168.992 95.9H118.455C118.697 97.1125 119.18 98.325 119.422 99.295C121.115 105.115 122.082 111.178 122.566 117.483C122.808 119.908 122.808 122.575 122.808 125C122.808 127.425 122.808 130.093 122.566 132.518C122.082 138.823 121.115 144.885 119.422 150.705C119.18 151.918 118.697 153.13 118.455 154.1H168.992C184.951 154.1 197.767 141.005 197.767 125C197.767 108.995 184.951 95.9 168.992 95.9Z" fill="#00A9E5"/>
<path d="M122.566 132.518C122.807 130.093 122.807 127.425 122.807 125C122.807 122.575 122.807 119.908 122.566 117.483C122.082 111.178 121.115 105.115 119.422 99.295C119.18 98.0825 118.697 96.87 118.455 95.9H40.3525C37.4508 105.115 36 114.815 36 125C36 135.185 37.4508 144.885 40.3525 154.1H118.455C118.697 152.888 119.18 151.675 119.422 150.705C121.115 144.885 122.082 138.823 122.566 132.518Z" fill="#353535"/>
<path d="M177.697 163.8H114.828C112.894 168.165 110.718 172.288 108.3 176.168C104.673 182.23 100.32 187.565 95.484 192.658C93.7914 194.355 92.0988 195.81 90.4062 197.508C87.0209 200.66 83.1521 203.328 79.2832 205.995C94.5168 216.18 112.894 222 132.48 222C166.091 222 195.591 204.783 213 178.835C204.054 169.62 191.48 163.8 177.697 163.8Z" fill="#00BFB3"/>
<path d="M108.3 176.168C110.718 172.288 112.894 168.165 114.829 163.8H43.9805C51.4764 181.018 63.8083 195.81 79.5255 205.995C83.3944 203.328 87.0214 200.66 90.6485 197.508C92.3411 196.053 94.0337 194.355 95.7264 192.658C100.321 187.808 104.673 182.23 108.3 176.168Z" fill="#019B8F"/>
<path d="M95.4842 57.3425C93.7916 55.645 92.0989 54.19 90.4063 52.4925C87.0211 49.34 83.1522 46.6725 79.2834 44.005C63.808 54.19 51.476 68.9825 43.7383 86.2H114.587C112.652 81.835 110.476 77.7125 108.058 73.8325C104.673 67.77 100.32 62.1925 95.4842 57.3425Z" fill="#F9B110"/>
<path d="M132.48 28C112.894 28 94.5168 33.82 79.2832 44.005C83.1521 46.6725 86.7791 49.34 90.4062 52.4925C92.0988 53.9475 93.7914 55.645 95.484 57.3425C100.32 62.435 104.673 67.77 108.3 73.8325C110.718 77.7125 112.894 81.835 114.828 86.2H177.697C191.48 86.2 204.054 80.38 213 71.165C195.591 45.2175 166.091 28 132.48 28Z" fill="#FED10A"/>
</g>
<defs>
<clipPath id="clip0_2108_4084">
<rect width="177" height="194" fill="white" transform="translate(36 28)"/>
</clipPath>
</defs>
</svg>
