<svg width="250" height="250" viewBox="0 0 250 250" fill="none" xmlns="http://www.w3.org/2000/svg">
<path d="M209.664 160.72C203.504 157.493 196.729 161.242 194.029 163.995C192.418 165.656 190.428 166.937 188.248 167.744C186.069 168.551 183.747 168.883 181.426 168.693C179.104 168.503 176.878 167.791 174.84 166.652C172.803 165.513 171.098 163.9 169.724 162.001C169.392 161.527 169.108 161.052 168.823 160.53C189.67 144.774 203.078 119.715 203.031 91.5241C202.983 43.8749 164.038 5.19548 116.47 5.5277C69.1868 5.85991 31 44.3494 31 91.7615C31 122.61 47.2033 149.709 71.5084 164.944C71.4136 165.703 71.2715 166.463 71.082 167.222C70.5135 169.5 69.4238 171.588 67.9551 173.391C66.4863 175.195 64.6386 176.619 62.5065 177.616C61.9854 177.853 61.4642 178.09 60.8957 178.28C60.8483 178.28 60.8483 178.28 60.8009 178.327C60.6114 178.375 60.4693 178.422 60.2797 178.47C58.1004 179.087 55.7788 179.277 53.5047 178.944C49.7144 178.375 39.4333 177.995 36.6854 185.019C34.1743 191.474 39.4333 196.41 44.8818 198.118C45.8768 198.45 46.8717 198.688 47.914 198.924C48.6721 199.162 49.4301 199.352 50.1882 199.447C52.0359 199.732 53.9311 199.874 55.8262 199.874C59.3322 199.874 62.7908 199.352 66.1073 198.355C66.1547 198.355 66.1547 198.355 66.202 198.307C66.2494 198.307 66.2494 198.307 66.2968 198.26C66.7706 198.118 67.2917 197.975 67.7655 197.786C72.3138 196.22 76.4831 193.752 80.0839 190.572C80.8893 189.86 81.6 189.101 82.3106 188.246C82.8318 187.677 83.3056 187.155 83.8267 186.538C84.0636 186.253 84.2532 185.968 84.49 185.684C84.5374 185.636 84.5374 185.589 84.5848 185.541C85.6745 184.117 86.6696 182.646 87.5222 181.08C87.5222 181.08 87.5222 181.032 87.5698 181.032C87.9015 180.415 88.8487 180.795 88.612 181.46C88.5645 181.555 88.5645 181.602 88.5169 181.697C86.3378 188.436 83.1634 194.795 79.0415 200.586C75.6777 205.284 71.7927 209.556 67.4338 213.305C62.7434 217.291 60.9904 224.031 64.1647 229.299C67.3391 234.567 74.2089 236.275 79.0415 232.479C85.9588 227.068 92.0231 220.661 97.1401 213.447C102.92 205.284 107.326 196.22 110.169 186.68C110.406 185.826 110.737 184.64 111.022 183.406C111.211 182.551 112.491 182.694 112.491 183.548C112.538 184.64 112.538 185.731 112.538 186.775C112.396 196.267 110.311 205.616 106.426 214.302C104.057 219.569 101.025 224.505 97.4718 229.014C93.6339 233.807 93.2551 240.784 97.3767 245.34C101.499 249.896 108.558 250.276 112.585 245.625C118.318 238.98 123.056 231.529 126.704 223.461C131.868 212.024 134.616 199.684 134.758 187.107C134.758 186.158 134.758 185.209 134.758 184.26C134.758 183.595 135.706 183.453 135.895 184.07C136.18 185.114 136.464 186.111 136.653 186.822C138.265 193.847 138.785 201.06 138.169 208.274C137.696 214.017 136.464 219.712 134.569 225.123C132.532 230.912 134.474 237.652 139.875 240.547C145.276 243.442 152.052 241.448 154.278 235.753C157.5 227.59 159.49 218.952 160.248 210.173C160.911 202.627 160.58 195.08 159.395 187.677C159.063 185.494 158.59 183.358 158.116 181.222C157.974 180.7 158.637 180.273 159.063 180.653C160.769 182.124 162.617 183.406 164.559 184.544C169.202 187.202 174.367 188.816 179.72 189.243C185.074 189.67 190.428 188.911 195.45 187.06C200.472 185.161 205.021 182.219 208.763 178.375C210.09 176.999 211.321 175.575 212.411 174.008C215.775 169.5 214.733 163.378 209.664 160.72ZM86.622 104.955C80.7472 105.762 75.2987 101.681 74.4932 95.7483C73.6878 89.8154 77.7623 84.4055 83.6846 83.5982C89.5592 82.7914 95.0079 86.8733 95.8136 92.8056C96.6186 98.6903 92.5446 104.148 86.622 104.955ZM163.233 94.2769C157.358 95.0837 151.909 91.0023 151.104 85.0695C150.298 79.1848 154.373 73.7267 160.295 72.9199C166.17 72.1132 171.618 76.1946 172.424 82.1274C173.23 88.0597 169.108 93.4702 163.233 94.2769Z" fill="#6A58CF"/>
</svg>
