<svg width="250" height="250" viewBox="0 0 250 250" fill="none" xmlns="http://www.w3.org/2000/svg">
<g clip-path="url(#clip0_2108_4128)">
<path d="M125 221C178.019 221 221 178.019 221 125C221 71.9807 178.019 29 125 29C71.9807 29 29 71.9807 29 125C29 178.019 71.9807 221 125 221Z" fill="#202BFF"/>
<path fill-rule="evenodd" clip-rule="evenodd" d="M144.437 110.258C143.506 110.258 142.838 109.79 142.385 109.018C141.732 107.871 142.226 106.436 143.26 105.902L170.944 91.5941H110.716L75.091 110.011C73.8568 110.551 72.5093 110.17 71.8562 109.018C71.4345 107.871 71.779 106.436 72.9619 105.902L109.147 87.2021C109.507 87.1249 109.682 87.0272 110.093 87.0272H180.622C181.579 87.0272 182.613 87.7215 182.89 88.7604C183.024 89.7992 182.628 90.8792 181.574 91.3627L145.389 110.011C145.229 110.206 144.833 110.258 144.437 110.258Z" fill="white"/>
<path fill-rule="evenodd" clip-rule="evenodd" d="M89.5942 110.258H73.9084C72.7204 110.258 71.7793 109.193 71.7793 107.959C71.7793 106.652 72.7204 105.619 73.9084 105.619H89.5942C90.7822 105.619 91.9342 106.652 91.9342 107.959C91.9342 109.193 90.7822 110.258 89.5942 110.258Z" fill="white"/>
<path fill-rule="evenodd" clip-rule="evenodd" d="M162.417 91.592H127.266C126.078 91.592 124.926 90.5583 124.926 89.2623C124.926 88.0588 126.078 87.0303 127.266 87.0303H162.417C163.837 87.0303 164.757 88.0588 164.757 89.2623C164.757 90.5583 163.837 91.592 162.417 91.592Z" fill="white"/>
<path fill-rule="evenodd" clip-rule="evenodd" d="M144.437 122.092H126.206C124.792 122.092 123.871 121.059 123.871 119.752C123.871 118.559 124.792 117.525 126.206 117.525H143.815L179.445 99.1088C180.7 98.5688 182.032 98.9545 182.68 100.101C183.101 101.248 182.829 102.683 181.574 103.218L145.389 121.809C145.235 121.995 144.849 122.092 144.437 122.092Z" fill="white"/>
<path fill-rule="evenodd" clip-rule="evenodd" d="M91.9342 122.092H73.9084C72.7204 122.092 71.7793 121.059 71.7793 119.752C71.7793 118.559 72.7204 117.525 73.9084 117.525H91.9342C93.1222 117.525 94.2742 118.559 94.2742 119.752C94.2742 121.059 93.1222 122.092 91.9342 122.092Z" fill="white"/>
<path fill-rule="evenodd" clip-rule="evenodd" d="M144.437 133.893C143.506 133.893 142.837 133.615 142.385 132.73C141.732 131.697 142.225 130.143 143.259 129.675L179.444 111.022C180.699 110.364 182.031 110.863 182.679 112.015C183.101 113.162 182.828 114.478 181.573 115.131L145.388 133.836C145.229 133.872 144.833 133.893 144.437 133.893Z" fill="white"/>
<path fill-rule="evenodd" clip-rule="evenodd" d="M91.9342 133.893H73.9084C72.7204 133.893 71.7793 132.972 71.7793 131.763C71.7793 130.359 72.7204 129.444 73.9084 129.444H91.9342C93.1222 129.444 94.2742 130.359 94.2742 131.763C94.2742 132.972 93.1222 133.893 91.9342 133.893Z" fill="white"/>
<path fill-rule="evenodd" clip-rule="evenodd" d="M144.005 133.893H126.206C124.792 133.893 123.871 132.972 123.871 131.763C123.871 130.359 124.792 129.444 126.206 129.444H144.005C145.235 129.444 146.345 130.359 146.345 131.763C146.345 132.972 145.235 133.893 144.005 133.893Z" fill="white"/>
<path fill-rule="evenodd" clip-rule="evenodd" d="M144.437 145.911C143.506 145.911 142.837 145.402 142.385 144.517C141.732 143.483 142.225 142.162 143.259 141.519L179.449 122.855C180.709 122.285 182.031 122.773 182.679 123.889C183.101 124.959 182.828 126.389 181.568 127.037L145.383 145.623C145.229 145.818 144.833 145.911 144.437 145.911Z" fill="white"/>
<path fill-rule="evenodd" clip-rule="evenodd" d="M91.9342 145.911H73.9084C72.7204 145.911 71.7793 144.759 71.7793 143.571C71.7793 142.27 72.7204 141.231 73.9084 141.231H91.9342C93.1222 141.231 94.2742 142.27 94.2742 143.571C94.2742 144.759 93.1222 145.911 91.9342 145.911Z" fill="white"/>
<path fill-rule="evenodd" clip-rule="evenodd" d="M144.005 145.911H126.206C124.792 145.911 123.871 144.759 123.871 143.571C123.871 142.27 124.792 141.231 126.206 141.231H144.005C145.235 141.231 146.345 142.27 146.345 143.571C146.345 144.759 145.235 145.911 144.005 145.911Z" fill="white"/>
<path fill-rule="evenodd" clip-rule="evenodd" d="M144.437 157.713C143.506 157.713 142.837 157.204 142.385 156.551C141.732 155.286 142.225 153.964 143.259 153.321L179.444 134.73C180.699 134.082 182.031 134.575 182.679 135.835C183.101 136.869 182.828 138.191 181.573 138.839L145.388 157.425C145.229 157.621 144.833 157.713 144.437 157.713Z" fill="white"/>
<path fill-rule="evenodd" clip-rule="evenodd" d="M91.9342 157.713H73.9084C72.7204 157.713 71.7793 156.793 71.7793 155.373C71.7793 154.18 72.7204 153.033 73.9084 153.033H91.9342C93.1222 153.033 94.2742 154.18 94.2742 155.373C94.2742 156.793 93.1222 157.713 91.9342 157.713Z" fill="white"/>
<path fill-rule="evenodd" clip-rule="evenodd" d="M144.005 157.713H126.206C124.792 157.713 123.871 156.793 123.871 155.373C123.871 154.18 124.792 153.033 126.206 153.033H144.005C145.235 153.033 146.345 154.18 146.345 155.373C146.345 156.793 145.235 157.713 144.005 157.713Z" fill="white"/>
<path fill-rule="evenodd" clip-rule="evenodd" d="M126.206 161.47H91.9337C90.6532 161.47 89.5938 160.55 89.5938 159.13V107.959C89.5938 106.652 90.6532 105.619 91.9337 105.619C93.1217 105.619 94.2737 106.652 94.2737 107.959V156.955H123.871V107.959C123.871 106.652 124.791 105.619 126.206 105.619C127.399 105.619 128.443 106.652 128.443 107.959V159.13C128.443 160.55 127.399 161.47 126.206 161.47Z" fill="white"/>
<path fill-rule="evenodd" clip-rule="evenodd" d="M143.683 110.258H128.224C126.809 110.258 125.889 109.193 125.889 107.959C125.889 106.652 126.809 105.619 128.224 105.619H143.683C145.097 105.619 146.023 106.652 146.023 107.959C146.023 109.193 145.097 110.258 143.683 110.258Z" fill="white"/>
<path fill-rule="evenodd" clip-rule="evenodd" d="M143.683 110.258H128.224C126.809 110.258 125.889 109.193 125.889 107.959C125.889 106.652 126.809 105.619 128.224 105.619H143.683C145.097 105.619 146.023 106.652 146.023 107.959C146.023 109.193 145.097 110.258 143.683 110.258Z" fill="white"/>
<path fill-rule="evenodd" clip-rule="evenodd" d="M117.664 148.914C108.355 148.914 100.949 141.514 100.949 132.205C100.949 123.015 108.355 115.506 117.664 115.506C118.852 115.506 119.998 116.555 119.998 117.841C119.998 119.147 118.852 120.186 117.664 120.186C110.962 120.186 105.403 125.622 105.403 132.205C105.403 138.911 110.962 144.358 117.664 144.358C118.852 144.358 119.998 145.381 119.998 146.574C119.998 147.994 118.852 148.914 117.664 148.914Z" fill="white"/>
<path fill-rule="evenodd" clip-rule="evenodd" d="M113.561 131.351H99.4181C98.2301 131.351 97.0781 130.199 97.0781 129.011C97.0781 127.705 98.2301 126.671 99.4181 126.671H113.561C114.754 126.671 115.844 127.705 115.844 129.011C115.844 130.199 114.754 131.351 113.561 131.351Z" fill="white"/>
<path fill-rule="evenodd" clip-rule="evenodd" d="M113.561 137.97H99.4181C98.2301 137.97 97.0781 136.818 97.0781 135.63C97.0781 134.211 98.2301 133.29 99.4181 133.29H113.561C114.754 133.29 115.844 134.211 115.844 135.63C115.844 136.818 114.754 137.97 113.561 137.97Z" fill="white"/>
</g>
<defs>
<clipPath id="clip0_2108_4128">
<rect width="192" height="192" fill="white" transform="translate(29 29)"/>
</clipPath>
</defs>
</svg>
