<svg width="250" height="250" viewBox="0 0 250 250" fill="none" xmlns="http://www.w3.org/2000/svg">
<path fill-rule="evenodd" clip-rule="evenodd" d="M96.902 218.069V142.91H76.5V111.156H96.2896C96.2896 107.959 96.2993 104.884 96.3087 101.874C96.3271 96.0419 96.3447 90.4559 96.2896 84.7096C96.2896 59.706 115.317 52.4512 132.423 52.4512H161.249H161.263V83.8189C159.612 83.8287 154.703 83.8251 150.208 83.8219C148.109 83.8204 146.1 83.8189 144.555 83.8189C144.534 83.8189 144.501 83.8183 144.458 83.8174C143.248 83.7923 133.746 83.5953 133.746 93.134C133.808 97.1697 133.746 111.067 133.746 111.067H161.375L159.136 142.307H134.392V221.753C183.557 217.029 222 175.605 222 125.201C222 71.6296 178.572 28.2012 125 28.2012C71.4284 28.2012 28 71.6296 28 125.201C28 169.002 57.0315 206.022 96.902 218.069Z" fill="url(#paint0_linear_1789_6932)"/>
<defs>
<linearGradient id="paint0_linear_1789_6932" x1="125" y1="28.2012" x2="125" y2="221.753" gradientUnits="userSpaceOnUse">
<stop stop-color="#53ABF8"/>
<stop offset="1" stop-color="#2C67D9"/>
</linearGradient>
</defs>
</svg>
