<svg width="250" height="250" viewBox="0 0 250 250" fill="none" xmlns="http://www.w3.org/2000/svg">
<g clip-path="url(#clip0_1789_6992)">
<path fill-rule="evenodd" clip-rule="evenodd" d="M61.8081 78.0561C63.0393 77.0332 64.1461 76.6811 64.1461 76.6811C64.0171 79.0403 64.3142 81.0453 64.8506 82.7363C65.2251 83.9525 65.7656 85.112 66.4562 86.1807C68.4976 89.3225 71.1265 90.5526 71.1265 90.5526C71.4401 84.5093 74.5409 82.4677 74.5409 82.4677C74.0266 85.9962 74.0602 95.0364 77.1481 102.21C80.7502 110.563 77.0305 110.189 82.0422 120.666C88.3515 133.839 106.234 133.677 106.234 133.677C95.9808 136.629 84.654 133.056 79.1054 123.881C76.9185 120.252 76.0345 117.273 75.6374 114.678C73.1091 113.828 68.9762 110.25 68.7245 110.027C68.9252 110.072 72.2091 110.82 75.2959 110.832C75.1902 108.578 75.1345 106.579 74.3227 104.565C71.3364 104.202 68.103 102.211 68.103 102.211C67.7735 108.004 64.8006 110.888 61.4362 111.891L60.5832 116.277C63.8325 120.633 72.027 127.046 72.027 127.046C72.027 127.046 65.142 124.899 59.8896 119.811C59.25 123.087 58.6104 126.364 57.9707 129.64C61.3217 132.346 64.8166 134.684 68.1588 136.741C77.9918 142.796 91.4193 145.549 94.8971 145.381C98.2419 144.788 101.693 144.056 105.121 143.24C101.603 142.429 93.2359 140.331 88.5707 137.767C92.0166 137.939 105.379 139.706 118.182 139.785C130.152 136.329 139.504 132.908 139.504 132.908C139.504 132.908 134.578 126.025 138.072 117.985C141.566 109.945 149.052 108.033 152.649 107.522C155.697 105.224 159.769 96.563 160.261 88.6574C160.77 80.4101 154.992 77.5642 151.682 73.2815C148.37 68.9988 146.227 63.4024 141.921 57.8781C145.948 59.8628 148.605 63.4473 148.605 63.4473C149.175 61.9434 152.162 53.4779 149.539 48.3508C146.647 42.7151 140.114 40.1765 140.114 40.1765C140.847 39.3372 142.731 38.4771 142.731 38.4771C133.272 33.7244 124.615 39.9197 124.615 39.9197C124.369 38.5208 124.542 37.0179 124.542 37.0179C119.72 41.0712 118.356 48.6194 118.356 48.6194C128.564 48.5522 132.199 52.4998 132.199 52.4998C121.22 50.6097 108.892 51.6163 99.3379 56.458C89.7838 61.2995 81.2262 71.3698 81.2262 71.3698C82.3846 65.5714 85.422 62.9606 85.422 62.9606C80.3654 59.0017 74.9958 59.6507 74.9958 59.6507C76.0082 60.3831 77.1491 62.2837 77.1491 62.2837C74.9612 62.4115 72.8156 62.9384 70.8175 63.8381C69.9304 64.234 69.0773 64.7016 68.2665 65.2373C66.0627 66.6742 64.2735 68.5085 63.0537 70.448C61.3589 73.1207 60.7384 75.9877 61.5487 78.287C61.6343 78.2071 61.724 78.1288 61.8081 78.0561ZM113.289 75.0762C113.289 75.0762 114.766 70.0665 120.035 67.8079C125.304 65.5487 135.837 67.3495 141.816 73.8125C147.796 80.2761 146.045 87.1531 141.15 89.7865C133.7 93.7898 130.987 89.4009 124.835 87.3041C118.682 85.2079 111.154 83.5302 113.289 75.0762ZM117.624 92.1462C121.243 91.6374 122.462 93.9409 121.103 97.0883C119.744 100.236 117.775 101.732 116.097 102.131C112.758 102.915 108.764 100.024 108.663 97.7874C108.562 95.5509 114.006 92.6494 117.624 92.1462ZM119.598 105.246C122.149 106.784 127.821 105.571 128.19 98.5814C128.19 98.5814 131.456 102.853 127.848 106.56C128.85 107.963 130.455 115.579 124.756 118.542C118.497 121.801 114.162 115.248 113.228 113.421C108.993 112.99 108.221 109.182 108.221 109.182C116.119 112.99 119.599 105.246 119.599 105.246H119.598ZM82.9783 95.2715C83.818 85.5316 91.0665 76.329 99.6525 78.3922C107.97 80.3936 106.504 88.0367 104.72 92.968C102.935 97.8993 103.534 100.583 102.159 104.312C100.783 108.041 97.2191 110.955 92.504 110.663C86.4448 110.289 82.2351 104.681 82.9788 95.2715H82.9783Z" fill="#797979"/>
<path fill-rule="evenodd" clip-rule="evenodd" d="M164.04 105.056C164.04 105.056 162.127 109.515 154.201 111.067C145.347 112.801 139.289 119.19 143.367 124.719C147.539 130.378 157.966 128.885 157.966 128.885C148.597 134.023 141.504 128.086 141.504 128.086C144.821 136.087 156.954 138.669 166.742 130.562C176.53 122.455 177.391 112.184 177.391 112.184C176.223 114.801 173.784 117.624 173.633 117.798C173.767 117.473 176.703 110.283 176.295 104.821C175.876 99.2294 171.524 94.9467 163.844 91.4971C163.503 99.3356 157.803 106.929 157.803 106.929C160.332 106.549 164.04 105.056 164.04 105.056Z" fill="#797979"/>
<path fill-rule="evenodd" clip-rule="evenodd" d="M111.45 98.8835C114.146 101.019 116.188 100.13 117.972 98.1344C119.757 96.1382 119.197 94.4667 116.563 95.2488C113.928 96.0309 112.597 96.8156 111.389 97.5528C111.103 97.7266 110.477 98.1117 111.45 98.8835Z" fill="#797979"/>
<path fill-rule="evenodd" clip-rule="evenodd" d="M150.582 152.487C156.225 155.513 165.275 162.943 168.134 177.631C167.838 177.005 158.45 157.285 137.682 156.53C114.687 163.211 90.6532 167.734 86.4068 167.634C86.3347 171.218 93.2315 213.293 96.1234 227.505C111.991 235.824 135.419 232.363 145.625 229.848C163.317 224.849 175.225 204.257 175.225 204.257C174.347 214.578 167.108 222.814 166.885 223.072C177.327 218.179 191.49 205.766 193.565 201.159C187.419 181.333 181.274 161.507 175.129 141.68C169.225 145.474 160.41 149.153 150.582 152.487Z" fill="#797979"/>
<path fill-rule="evenodd" clip-rule="evenodd" d="M53.8503 111.262C52.8427 110.748 52.0495 110.072 51.5848 109.294C51.5848 109.294 52.6087 109.641 54.0854 109.809C54.9245 109.906 55.7709 109.922 56.6132 109.859C57.6253 109.775 58.6883 109.551 59.7065 109.087C60.7374 108.628 61.6515 107.942 62.3797 107.08C64.4774 104.603 64.875 101.399 64.0864 98.3241C63.7486 97.0193 63.2266 95.769 62.5365 94.6116C61.768 93.3062 60.8043 92.1261 59.6786 91.112C58.9844 90.4784 58.225 89.9195 57.4131 89.4457C56.5163 88.9178 55.5533 88.5116 54.5494 88.2378C46.7629 86.141 37.4668 95.7634 42.2904 108.97C44.4214 114.813 47.8109 119.738 51.7768 123.937L53.8503 111.262Z" fill="#797979"/>
<path fill-rule="evenodd" clip-rule="evenodd" d="M180.071 102.912C180.071 102.912 185.2 116.096 171.842 130.706C163.172 139.931 149.334 142.167 142.062 135.872C142.062 135.872 119.968 144.124 101.647 147.686C83.3333 151.247 69.9878 152.047 73.0917 143.47C71.711 142.883 70.0497 142.005 68.4163 141.078C59.2319 144.286 56.9609 151.56 59.3478 156.805C54.5595 154.194 52.199 145.394 63.666 138.243C62.3957 137.449 61.5622 136.9 61.5622 136.9C61.5622 136.9 51.4719 141.071 47.0418 148.384C42.6118 155.697 46.1081 162.966 55.5274 164.179C64.9467 165.392 91.3715 164.742 129.268 154.677C167.164 144.613 196.105 126.861 200.023 115.679C203.941 104.498 187.901 101.936 180.071 102.912Z" fill="#797979"/>
<path fill-rule="evenodd" clip-rule="evenodd" d="M117.775 82.1326C117.926 82.4754 119.407 83.7401 119.696 84.068C119.986 84.3958 120.619 84.6016 120.619 84.6016C121.699 84.9356 122.778 85.2697 123.858 85.6033C124.938 85.9374 127.354 86.3493 127.471 86.4194C127.588 86.489 130.39 87.1788 130.39 87.1788C130.39 87.1788 135.814 87.0247 135.907 87.0247C136 87.0247 137.749 86.489 137.818 86.4421C137.888 86.3952 139.659 84.7634 139.659 84.7634C139.9 83.474 140.141 82.1852 140.382 80.8957C140.382 79.7079 140.382 78.5196 140.382 77.3317C140.382 76.1434 138.401 73.1619 138.378 73.0686C138.354 72.9753 137.502 71.7818 137.502 71.7818C136.986 71.3724 136.47 70.9631 135.953 70.5537L132.085 69.2277C132.085 69.2277 130.25 68.7121 130.182 68.6962C130.112 68.6807 127.748 68.5059 127.678 68.5688C127.608 68.6312 125.159 68.5688 125.159 68.5688C124.367 68.5353 123.575 68.5013 122.783 68.4678C121.992 68.4343 120.02 69.1864 119.929 69.2277C119.837 69.2695 117.611 70.9991 117.564 71.0687C117.516 71.1383 116.631 73.5047 116.631 73.5047C116.631 73.5047 116.259 75.4252 116.235 75.4953C116.211 75.5654 116.725 79.5955 116.725 79.5955C116.725 79.5955 117.624 81.7897 117.775 82.1326Z" fill="#797979"/>
<path fill-rule="evenodd" clip-rule="evenodd" d="M88.7128 104.148C89.7149 104.521 90.7171 104.894 91.7192 105.267C93.2227 105.267 94.7256 105.267 96.2291 105.267C96.3343 105.267 98.7811 103.764 98.7811 103.764C99.515 103.264 100.249 102.764 100.983 102.264C101.718 101.763 102.172 99.7456 102.207 99.4662C102.242 99.1862 102.522 95.9898 102.522 95.9898C102.522 95.9898 103.294 93.5166 103.364 93.3156C103.435 93.1145 103.676 91.8132 103.84 91.6369C104.005 91.4606 104.378 89.9583 104.378 89.9583L104.861 88.1404C104.838 87.4826 104.815 86.8247 104.792 86.1669C104.815 85.4853 104.838 84.8038 104.861 84.1222C104.442 83.4819 104.023 82.841 103.604 82.2002C103.137 81.6661 102.67 81.1325 102.204 80.5984C101.307 80.4679 100.409 80.337 99.5119 80.2065C99.3954 81.6975 99.2788 83.1885 99.1622 84.6795C97.3679 84.365 95.5735 84.0505 93.7787 83.736C91.2096 84.9857 88.6406 86.2354 86.0716 87.4852L85.4795 88.6998C84.973 90.4589 84.466 92.2174 83.959 93.9765C84.2267 95.8052 84.4949 97.6339 84.7625 99.4625C85.0307 101.291 86.9654 102.887 87.0701 102.957C87.1748 103.027 88.7128 104.148 88.7128 104.148Z" fill="#797979"/>
<path fill-rule="evenodd" clip-rule="evenodd" d="M194.114 195.038C193.123 192.278 192.132 189.518 191.142 186.757C190.012 183.076 188.882 179.395 187.751 175.714L183.521 163.063C182.554 159.58 181.587 156.097 180.619 152.614C179.116 148.153 177.613 143.692 176.11 139.231L148.747 151.136C143.635 152.565 138.522 153.993 133.41 155.422C128.935 156.742 124.46 158.063 119.985 159.383L106.191 162.224C101.22 163.279 96.2478 164.336 91.2763 165.392C89.7068 165.842 88.1378 166.293 86.5684 166.744C99.4331 172.568 113.326 162.177 130.85 168.142C148.374 174.108 159.842 187.152 160.215 196.471C160.215 196.471 164.829 191.252 165.109 185.616C170.19 207.374 158.257 226.478 118.637 233.746C118.637 233.746 134.626 234.911 143.109 232.954C151.592 230.997 158.957 228.434 158.957 228.434C162.181 227.087 165.405 225.74 168.628 224.392C170.982 223.228 173.336 222.063 175.69 220.898C178.219 218.918 180.747 216.937 183.276 214.957C186.049 212.337 188.823 209.716 191.597 207.095C192.937 205.208 194.276 203.321 195.616 201.434L194.114 195.038Z" fill="#4B4B4B"/>
<path fill-rule="evenodd" clip-rule="evenodd" d="M110.248 143.6C111.437 143.017 112.625 142.435 113.814 141.853C110.248 132.522 106.682 123.192 103.116 113.862L76.1053 107.736C76.1053 107.736 71.4438 106.78 67.0366 104.148L65.431 100.338C60.9997 92.4649 52.7756 91.4977 47.7421 97.3219C42.7087 103.146 44.9433 113.023 53.4753 121.13C62.0074 129.237 81.3491 142.609 104.096 144.66L110.248 143.6Z" fill="#4B4B4B"/>
<path fill-rule="evenodd" clip-rule="evenodd" d="M123.929 84.3912C128.519 86.208 135.311 90.3454 139.786 87.7568C144.26 85.1687 144.317 79.3146 138.309 74.21C137.212 73.2815 131.256 68.7137 124.857 69.2726C118.459 69.8314 114.677 74.8643 115.677 78.733C116.677 82.6012 119.666 82.7028 123.929 84.3912ZM122.457 78.2242C122.692 75.384 125.338 73.2764 128.375 73.5238C131.413 73.7718 133.684 76.2656 133.454 79.1037C133.437 79.3506 133.4 79.5955 133.342 79.8363C132.553 78.1365 130.808 76.8708 128.696 76.6991C125.927 76.4754 123.477 78.2035 122.901 80.6638C122.545 79.9023 122.393 79.0619 122.457 78.2242Z" fill="#4B4B4B"/>
<path fill-rule="evenodd" clip-rule="evenodd" d="M92.6966 108.304C99.4475 108.098 100.32 101.561 101.367 96.3898C102.413 91.2177 106.367 85.7781 101.367 81.8862C96.0244 77.7267 86.5549 84.2067 85.6038 93.4877C85.0896 98.4974 85.9509 108.517 92.6966 108.304ZM91.0802 91.9503C92.4393 89.2277 95.6107 88.0538 98.1612 89.3205C98.9127 89.6973 99.5543 90.2619 100.024 90.9589C97.617 90.1815 94.8742 91.3832 93.6312 93.8682C92.6858 95.7634 92.8642 97.9107 93.9159 99.4635C93.6792 99.3893 93.4491 99.296 93.2279 99.1841C90.6769 97.9107 89.7155 94.6735 91.0802 91.9503Z" fill="#4B4B4B"/>
<path fill-rule="evenodd" clip-rule="evenodd" d="M113.65 100.394C115.329 101.023 115.48 101.303 116.621 100.394C117.763 99.4857 119.372 97.9133 119.372 97.9133C119.581 97.4668 119.791 97.0208 120.001 96.5744C120.001 96.2635 120.001 95.9526 120.001 95.6422C120.001 95.5958 119.488 94.326 119.488 94.326C119.488 94.326 118.872 93.9064 118.835 93.9064C118.799 93.9064 117.95 93.8837 117.705 93.9533C117.461 94.0234 116.901 94.0579 116.539 94.2332C116.178 94.4085 113.51 95.782 113.51 95.782C113.51 95.782 111.97 99.7677 113.65 100.394Z" fill="#4B4B4B"/>
<path fill-rule="evenodd" clip-rule="evenodd" d="M67.5272 81.9574C67.8594 80.7695 69.8348 79.011 69.8348 79.011C68.8563 84.8352 72.1423 88.2827 72.1423 88.2827C79.3434 89.3076 82.3736 87.0717 82.3736 87.0717C82.3736 87.0717 96.3117 67.9219 84.7507 64.8466C73.1898 61.7713 67.7021 70.4981 67.7021 70.4981C69.2581 69.8867 72.1423 69.9738 72.1423 69.9738C66.2693 74.1998 67.5272 81.9574 67.5272 81.9574Z" fill="#4B4B4B"/>
<path fill-rule="evenodd" clip-rule="evenodd" d="M142.036 63.7752C143.45 63.2782 144.864 62.7812 146.278 62.2837C150.426 52.5927 143.703 48.306 143.703 48.306C145.106 48.262 146.512 48.3087 147.91 48.4459C141.561 40.7114 132.108 43.6232 132.108 43.6232C132.9 41.8763 134.858 40.106 134.858 40.106C127.307 40.2923 121.644 45.5805 120.898 49.6573L124.045 55.8548L142.036 63.7752Z" fill="#4B4B4B"/>
<path fill-rule="evenodd" clip-rule="evenodd" d="M162.25 106.646C166.2 104.497 164.901 99.5115 162.058 97.1337C162.058 97.1337 157.582 104.565 156.813 106.926C156.045 109.286 158.299 108.795 162.25 106.646Z" fill="#4B4B4B"/>
<path fill-rule="evenodd" clip-rule="evenodd" d="M141.092 145.592C169.42 138.882 192.377 122.295 194.148 114.887C195.919 107.479 183.986 107.525 183.986 107.525C183.008 111.672 179.676 115.295 179.676 115.295C179.676 115.295 176.537 120.148 175.807 121.708C176.452 120.328 177.097 118.948 177.741 117.568C178.014 116.612 178.285 115.658 178.558 114.702C178.767 113.056 178.977 111.41 179.187 109.764C179.023 108.187 178.86 106.611 178.697 105.035C178.169 103.466 177.641 101.897 177.113 100.329C176.002 98.6438 174.891 96.9584 173.78 95.2736C172.832 94.6446 171.884 94.0156 170.936 93.3867C170.509 93.5341 170.082 93.6821 169.655 93.8295C169.227 93.9775 176.46 102.891 171.496 114.354C171.496 114.354 172.172 109.671 171.146 106.898C171.146 106.898 168.327 118.477 158.212 123.788C148.097 129.1 140.707 119.539 147.584 112.56C147.584 112.56 143.669 113.095 143.022 114.58C142.375 116.065 140.546 116.66 139.987 119.269C139.648 120.877 139.507 122.52 139.566 124.161C139.407 125.462 139.402 126.777 139.551 128.078C139.8 130.221 141.851 132.644 141.851 132.644C142.122 132.866 142.394 133.088 142.666 133.31C141.042 133.958 139.419 134.605 137.796 135.253C132.622 137.081 127.448 138.909 122.274 140.737C117.31 141.925 112.347 143.113 107.384 144.301C102.548 145.396 97.7117 146.491 92.8759 147.586C89.9159 147.632 86.9559 147.679 83.9964 147.725C82.1784 147.387 80.3608 147.05 78.5427 146.712C77.8439 145.489 77.1445 144.266 76.4451 143.043C73.7126 141.663 70.9795 140.283 68.247 138.902C67.1928 139.176 66.138 139.45 65.0833 139.724C63.5762 140.656 62.0696 141.589 60.5626 142.522C59.0557 143.454 56.1342 148.578 56.9269 151.978C57.7425 155.518 58.7909 163.766 90.9531 158.547C123.115 153.329 141.092 145.592 141.092 145.592ZM172.033 127.374C172.535 126.715 173.037 126.057 173.539 125.399C172.874 126.385 172.146 127.448 171.428 128.539C169.646 131.245 167.048 132.151 165.127 133.623C166.264 132.751 167.401 131.88 168.538 131.008L172.033 127.374ZM160.218 135.551C161.745 134.987 163.272 134.424 164.799 133.86C163.175 134.993 161.013 135.717 157.989 136.358L160.218 135.551ZM145.047 135.248L151.434 137.179C149.76 137.179 148.385 136.97 147.266 136.61C145.211 135.949 142.682 133.325 142.664 133.307L145.047 135.248Z" fill="#4B4B4B"/>
<path fill-rule="evenodd" clip-rule="evenodd" d="M118.639 99.0924C119.874 98.5098 119.699 97.275 119.711 97.2168C119.724 97.1585 120.014 96.4249 120.142 95.7026C120.271 94.9803 119.571 94.7937 118.687 94.3168C117.803 93.8394 116.077 94.1533 116.077 94.1533C115.805 94.4328 115.533 94.7127 115.261 94.9927C117.895 96.4599 114.632 98.1143 114.398 100.77C115.725 101.271 117.402 99.6749 118.639 99.0924Z" fill="#383838"/>
<path fill-rule="evenodd" clip-rule="evenodd" d="M81.5469 96.879C81.5469 97.0188 82.4557 103.239 82.5614 104.411C82.6666 105.582 84.4135 108.935 84.5203 109.214C84.627 109.494 91.0571 113.687 91.6172 113.932C92.1768 114.176 96.0915 114.246 96.1967 114.176C96.3019 114.106 101.37 111.099 101.475 110.996C101.58 110.894 104.307 103.204 104.307 103.204C103.806 100.595 103.305 97.9854 102.804 95.3762C101.091 95.4118 96.8027 103.309 92.6771 103.658C88.552 104.006 86.3616 100.023 85.1732 94.6188C85.1712 94.6194 81.5469 96.7393 81.5469 96.879Z" fill="#383838"/>
<path fill-rule="evenodd" clip-rule="evenodd" d="M136.863 94.6193C137.003 94.6193 143.436 93.5475 144.881 93.0814C146.326 92.6153 148.563 89.3075 148.563 89.3075C149.309 87.102 150.056 84.8969 150.802 82.6914C151.548 80.4864 149.031 78.0787 148.984 77.9385C148.938 77.7988 142.271 68.6209 138.355 66.8778C134.439 65.1347 135.605 65.9204 135.139 65.7807C134.673 65.6404 132.528 66.7592 132.436 66.8778C132.343 66.9963 132.202 70.1134 132.202 70.1134C138.868 73.6078 140.278 81.1561 136.607 83.6369C132.936 86.1183 129.265 83.987 124.465 85.4192C124.465 85.4192 125.211 88.8884 125.305 89.0307C125.399 89.1724 136.723 94.6193 136.863 94.6193Z" fill="#383838"/>
<path fill-rule="evenodd" clip-rule="evenodd" d="M73.5634 75.7031C72.8181 78.053 72.911 81.6784 73.5748 84.2463C73.5748 84.2463 73.6098 85.4522 73.6098 85.5569C73.6098 85.6615 82.7343 81.5732 82.7343 81.5732C84.5173 79.197 86.3003 76.8208 88.0828 74.4446C89.8658 72.0684 88.8172 69.6221 83.2588 67.9099C77.7004 66.1978 74.6331 69.634 74.6331 69.634C75.4259 69.587 76.5446 69.867 76.5446 69.867C72.2095 72.7675 71.6035 77.1471 71.6035 77.1471C72.0022 76.5414 73.5634 75.7031 73.5634 75.7031Z" fill="#383838"/>
<path fill-rule="evenodd" clip-rule="evenodd" d="M139.824 62.4575C139.824 62.4575 141.886 63.3309 143.6 59.4175C145.312 55.5041 141.213 51.6337 141.213 51.6337C141.846 51.8296 142.467 52.0599 143.075 52.3236C140.104 46.3142 133.914 47.2228 133.914 47.2228C134.378 46.6029 135.628 45.9298 135.628 45.9298C129.195 44.4274 125.257 50.1 125.257 50.1C125.159 50.958 125.062 51.8159 124.965 52.6739C126.13 54.3279 127.296 55.9819 128.461 57.6359L139.824 62.4575Z" fill="#383838"/>
<path fill-rule="evenodd" clip-rule="evenodd" d="M160.635 100.42C159.174 102.423 157.713 104.427 156.253 106.431C156.191 107.207 156.128 107.984 156.066 108.76C157.752 108.092 159.438 107.424 161.124 106.756C163.245 103.984 162.079 101.513 160.635 100.42Z" fill="#383838"/>
<path fill-rule="evenodd" clip-rule="evenodd" d="M143.582 127.997C142.835 127.589 142.089 127.181 141.343 126.774C140.952 126.978 140.562 127.181 140.172 127.385C140.172 127.921 140.172 128.457 140.172 128.993C140.172 129.046 140.871 130.653 140.871 130.653C141.598 131.643 142.326 132.633 143.053 133.623C144.26 134.299 145.466 134.974 146.672 135.65C148.257 136.011 149.841 136.372 151.426 136.733C152.481 136.838 153.535 136.943 154.59 137.047C155.644 137.152 158.732 136.331 158.803 136.279C158.873 136.226 162.299 135.144 162.368 135.055C162.438 134.968 164.617 134.316 168.581 132.848C172.546 131.381 175.574 128.096 176.645 126.535C180.537 124.532 185.234 118.44 178.941 116.727C178.941 116.727 177.589 115.958 178.045 113.513C178.501 111.067 176.985 109.04 175.516 113.827C174.047 118.615 168.792 123.81 168.792 123.81C169.445 122.459 169.713 117.878 169.713 117.878C166.777 122.177 161.101 129.747 153.457 129.701C151.057 129.459 148.656 129.216 146.255 128.974L143.582 127.997Z" fill="#383838"/>
<path fill-rule="evenodd" clip-rule="evenodd" d="M153.702 138.358C149.985 137.065 146.267 135.772 142.55 134.479C142.014 134.332 141.478 134.185 140.941 134.037C137.353 135.474 133.763 136.909 130.174 138.346C126.873 139.324 123.571 140.303 120.269 141.281C119.371 141.507 118.473 141.733 117.575 141.96C118.956 141.516 120.336 141.072 121.717 140.628C123.815 139.964 125.912 139.301 128.01 138.636L141.919 133.431C141.243 132.208 140.567 130.985 139.891 129.762C139.507 127.852 139.122 125.941 138.738 124.031C138.447 123.681 138.155 123.332 137.864 122.982C138.229 122.07 138.594 121.158 138.959 120.245C128.006 120.773 117.053 121.301 106.1 121.829C95.1474 122.357 77.7134 115.027 73.0983 111.439C73.0983 111.439 69.2295 110.391 67.8782 109.668C67.8782 109.668 69.311 112.674 71.2168 114.106C71.2168 114.106 66.1999 111.905 63.3679 109.546C63.863 108.393 64.3586 107.24 64.8538 106.087C64.7661 105.72 64.6789 105.353 64.5918 104.986C64.5046 104.619 62.9124 97.0884 54.897 98.766C46.8817 100.444 48.7205 111.625 54.2673 115.399C54.2673 115.399 57.1344 115.027 60.6302 118.428C64.126 121.829 65.9379 123.21 65.9379 123.21C67.0334 123.902 68.1284 124.596 69.2239 125.289C73.5501 128.207 81.6167 132.243 88.0494 134.584C88.0494 134.584 82.2573 134.968 78.4824 134.36C78.4824 134.36 90.2981 139.02 99.4803 140.231C108.663 141.442 112.555 143.073 112.555 143.073C113.125 142.98 113.695 142.886 114.265 142.793L111.11 143.591C108.026 144.407 104.942 145.222 101.858 146.038C99.0068 146.527 96.1557 147.016 93.3045 147.506C90.0263 147.793 86.7476 148.08 83.4694 148.367C80.8745 146.395 78.2797 144.423 75.6854 142.45C73.7817 142.092 71.8785 141.735 69.9753 141.377C65.5707 144.22 63.0305 151.605 72.2592 154.633C81.4883 157.661 115.561 153.422 142.969 139.444C142.969 139.441 151.323 140.21 153.702 138.358Z" fill="#383838"/>
<path fill-rule="evenodd" clip-rule="evenodd" d="M193.193 193.162C192.572 190.942 191.95 188.721 191.328 186.5L188.066 177.275C187.079 174.06 186.093 170.845 185.106 167.63C184.376 165.27 183.645 162.909 182.915 160.548L180.654 152.65C179.808 149.909 178.961 147.167 178.114 144.425C177.259 142.756 176.405 141.086 175.55 139.417C173.989 140.116 172.428 140.814 170.867 141.513C168.551 142.67 166.236 143.826 163.921 144.982C160.394 146.45 156.868 147.919 153.341 149.386C150.14 150.295 146.94 151.203 143.739 152.112C140.539 153.02 150.871 154.954 152.828 157.225C154.786 159.496 158.491 160.824 159.785 162.991C161.079 165.158 162.826 166.451 163.491 168.128C164.155 169.805 165.17 170.568 165.903 172.74C168.944 178.856 171.636 186.032 171.776 189.06C171.776 189.06 173.501 183.142 173.548 176.247C173.548 176.247 181.867 201.756 169.726 214.499C157.932 226.939 163.805 226.543 167.511 224.819C171.217 223.095 177.975 218.855 177.975 218.855C180.275 217.046 182.574 215.237 184.873 213.428C186.862 211.579 188.851 209.732 190.84 207.883C192.386 205.965 193.932 204.047 195.478 202.129C195.533 201.779 195.586 201.43 195.64 201.08L193.193 193.162Z" fill="#383838"/>
<path fill-rule="evenodd" clip-rule="evenodd" d="M115.702 203.879C112.623 179.697 92.8387 169.983 85.0078 170.297C88.0844 189.567 91.1604 208.838 94.237 228.108C94.4159 228.325 94.5944 228.543 94.7733 228.76C98.6576 230.111 102.542 231.462 106.427 232.813C131.41 226.01 120.876 195.958 118.032 192.37C118.545 199.265 115.702 203.879 115.702 203.879Z" fill="#A7A5A5"/>
<path fill-rule="evenodd" clip-rule="evenodd" d="M202.102 109.197C201.583 108.364 201.065 107.531 200.546 106.699C199.695 105.889 198.844 105.079 197.994 104.27C196.794 103.746 195.593 103.221 194.393 102.698C192.337 102.336 190.28 101.975 188.223 101.614C188.031 101.829 187.839 102.045 187.646 102.26C197.994 104.357 200.369 114.49 192.75 126.162C193.816 125.702 194.883 125.242 195.949 124.782C196.636 124.001 197.324 123.221 198.011 122.441C198.699 121.66 200.598 119.191 200.616 119.14C200.633 119.088 201.98 115.645 201.98 115.645C202.078 114.643 202.177 113.641 202.276 112.639L202.102 109.197Z" fill="#A7A5A5"/>
<path fill-rule="evenodd" clip-rule="evenodd" d="M53.4751 159.989C45.6444 153.652 49.9793 145.661 59.9079 136.576C59.9079 136.576 55.0379 138.51 48.698 143.472C42.358 148.435 42.8713 152.697 42.8713 152.697C43.0344 154.506 43.1975 156.316 43.3606 158.125C43.5236 159.934 45.6209 162.132 45.9943 162.505C46.3676 162.878 51.1441 164.967 51.1441 164.967C52.9388 165.256 54.7334 165.545 56.528 165.834C58.3226 166.123 64.2884 167.116 64.3817 167.116C66.091 167.116 67.7997 167.116 69.509 167.116C73.3004 166.347 77.0913 165.578 80.8827 164.809C84.6735 164.039 61.3057 166.326 53.4751 159.989Z" fill="#A7A5A5"/>
<path fill-rule="evenodd" clip-rule="evenodd" d="M54.1544 124.902C41.5187 112.812 40.1602 100.081 44.4553 94.3894C48.7504 88.6982 54.7802 88.2801 58.3224 89.3988C57.7903 88.6997 57.2581 88.0011 56.726 87.302C55.6251 87.034 54.5242 86.7659 53.4233 86.4983C52.2988 86.4983 51.1742 86.4983 50.0496 86.4983C48.931 86.8525 47.8124 87.2067 46.6937 87.5614C45.4002 88.6502 44.1065 89.7391 42.8129 90.8284C42.0964 92.0983 41.3799 93.3681 40.6633 94.6379C40.1682 96.0062 39.6729 97.375 39.1777 98.7438C39.1777 99.8213 39.1777 100.899 39.1777 101.976C39.3699 103.677 39.5621 105.377 39.7543 107.077C40.2786 108.534 40.8029 109.99 41.3272 111.446C42.2304 113.286 43.1335 115.127 44.0366 116.967C45.3418 119.046 46.647 121.126 47.9521 123.204C49.0416 124.398 50.1311 125.592 51.2206 126.785C53.1841 128.44 55.1476 130.094 57.1111 131.748L63.4387 135.947C65.2563 136.989 67.0743 138.032 68.8919 139.074C70.9261 140.093 72.9597 141.113 74.9934 142.132C77.8719 143.11 80.7499 144.089 83.6279 145.067L93.3305 146.29C81.0516 142.523 66.7907 136.995 54.1544 124.902Z" fill="#A7A5A5"/>
<path fill-rule="evenodd" clip-rule="evenodd" d="M62.0268 80.6179C62.1975 80.2374 62.3687 79.8569 62.5394 79.4764C62.8582 80.7808 63.1764 82.0857 63.4951 83.3905C64.0857 84.5397 64.6762 85.6889 65.2668 86.8381C65.8574 87.9877 67.597 89.6808 67.6672 89.82C67.7368 89.9592 71.7691 92.4762 71.7691 92.4762C71.8 91.591 71.831 90.7052 71.8619 89.82C70.0789 88.8766 64.8702 83.3204 65.7093 75.4231C65.7093 75.4231 64.1713 75.4463 62.9108 76.2382C62.9108 76.2382 63.6463 65.5683 76.5915 62.0976C76.3862 61.8279 76.1809 61.5578 75.9757 61.2882C75.7704 61.018 81.3912 60.4207 86.029 63.519C86.3008 63.3401 86.5726 63.1617 86.8449 62.9828C86.6897 62.5322 86.5345 62.0821 86.3792 61.6315C85.4312 61.018 84.4832 60.4046 83.5353 59.7912C82.2226 59.3797 80.9095 58.9683 79.5969 58.5568C78.5406 58.4557 77.4838 58.3546 76.4275 58.2535C75.464 58.3623 74.5006 58.4711 73.5371 58.5798C73.2885 58.7972 73.0404 59.0147 72.7918 59.2322C72.8852 59.5739 72.9785 59.9156 73.0714 60.2572L71.4658 61.8419C70.3471 62.1682 69.2284 62.4946 68.1097 62.8204C66.7888 63.9 65.4685 64.979 64.1476 66.0586C63.4874 67.1072 62.8272 68.1554 62.1665 69.204C61.6461 70.3227 61.1257 71.442 60.6055 72.5608C60.3646 73.9352 60.1237 75.3097 59.8828 76.6842C60.0771 77.7473 60.2713 78.8103 60.4655 79.8734L62.0268 80.6179Z" fill="#A7A5A5"/>
<path fill-rule="evenodd" clip-rule="evenodd" d="M85.4259 89.0632C85.3212 89.9526 85.2165 90.8414 85.1113 91.7307C85.1113 92.2586 85.1113 92.7866 85.1113 93.3145C88.1182 87.3392 91.3691 81.2938 101.717 81.6202C101.313 81.0417 100.909 80.4638 100.505 79.8853C99.8762 79.7765 99.247 79.6677 98.6177 79.5595C98.0777 79.4739 97.5377 79.3883 96.9977 79.3027C96.0033 79.493 95.0089 79.6832 94.0145 79.8735C93.4007 80.2039 92.7875 80.5339 92.1737 80.8638C91.5017 81.4423 90.8302 82.0202 90.1586 82.5987C89.4825 83.305 88.8068 84.0118 88.1311 84.7181C87.7036 85.2734 87.2765 85.8286 86.8489 86.3839L85.4259 89.0632Z" fill="#A7A5A5"/>
<path fill-rule="evenodd" clip-rule="evenodd" d="M124.045 68.7607C124.045 68.7607 122.169 67.9621 119.162 69.6052C116.155 71.2477 114.88 74.4447 114.88 74.4447C114.565 75.1773 114.251 75.9099 113.936 76.6425C114.122 77.5344 114.309 78.4268 114.496 79.3193C114.682 80.2117 115.737 81.5733 115.807 81.6434C115.876 81.714 117.59 82.9864 117.59 82.9864C118.534 83.47 119.477 83.9536 120.421 84.4367C121.319 84.53 122.216 84.6233 123.113 84.7166C115.655 80.6623 115.702 72.5232 124.045 68.7607Z" fill="#A7A5A5"/>
<path fill-rule="evenodd" clip-rule="evenodd" d="M148.161 43.5886C148.161 43.5886 146.71 41.929 146.657 41.8764C146.605 41.8238 143.966 39.6226 143.966 39.6226C144.49 39.3021 145.015 38.9817 145.539 38.6613C146.063 38.3408 144.245 37.5422 144.193 37.4907C144.14 37.4392 141.938 36.1981 141.938 36.1981L138.285 35.4316H132.795C131.851 35.6121 130.906 35.7927 129.963 35.9732C129.025 36.1597 128.087 36.3463 127.149 36.5327C126.211 36.7193 125.681 36.3403 125.681 36.201C125.681 36.0616 125.558 35.0477 125.558 35.0477L124.371 35.3756C124.371 35.3756 122.378 36.3889 121.224 38.3636C120.071 40.3382 118.935 42.1024 118.935 42.1024C118.434 43.2148 117.933 44.3272 117.432 45.4395C117.106 46.9247 116.78 48.4099 116.453 49.8952C117.45 49.8194 118.446 49.7437 119.442 49.668C120.438 49.5923 120.98 43.3083 123.917 40.233C124.045 40.9201 124.173 41.6072 124.301 42.2944C124.429 42.9815 131.538 35.4803 140.31 38.3809C139.716 39.0973 139.122 39.8137 138.528 40.5301C137.933 41.2465 147.584 42.9485 150.707 50.4496C150.733 49.6421 150.758 48.8345 150.783 48.0268C150.334 47.1357 149.886 46.2445 149.437 45.3534L148.161 43.5886Z" fill="#A7A5A5"/>
<path fill-rule="evenodd" clip-rule="evenodd" d="M168.278 100.35C167.09 100.607 167.319 106.197 163.547 109.715C161.796 111.35 161.373 111.261 160.78 112.534C159.787 114.664 161.986 117.252 166.076 112.534C170.166 107.817 169.467 100.094 168.278 100.35Z" fill="#A7A5A5"/>
<path fill-rule="evenodd" clip-rule="evenodd" d="M157.321 114.613C156.458 114.613 155.68 115.133 155.35 115.929C155.02 116.726 155.202 117.643 155.813 118.253C156.423 118.862 157.34 119.045 158.137 118.714C158.934 118.384 159.453 117.607 159.453 116.744C159.453 116.179 159.228 115.637 158.829 115.237C158.428 114.838 157.886 114.613 157.321 114.613Z" fill="#A7A5A5"/>
<path fill-rule="evenodd" clip-rule="evenodd" d="M147.433 64.2021C146.706 63.2251 145.978 62.2486 145.25 61.2717C144.97 60.8917 144.707 60.5393 144.473 60.2209C142.269 57.5491 134.88 52.6839 128.319 51.3477C126.479 50.9974 124.638 50.6471 122.798 50.2969H116.96C116.96 50.2969 108.916 50.9309 108.816 50.9616C108.715 50.9924 100.706 53.5506 100.6 53.6166C100.493 53.6827 94.0272 57.5642 94.0272 57.5642C95.0175 59.4521 96.0072 61.3402 96.9975 63.2277L103.351 66.8742C103.351 66.8742 107.171 73.6512 107.266 73.9301C107.36 74.2095 109.593 82.5069 109.593 82.876C109.593 83.2457 108.105 90.4237 107.634 92.0735C107.162 93.7228 105.212 107.991 103.467 111.625C101.722 115.26 94.0922 121.762 90.4565 123.367C86.8209 124.972 87.5925 129.774 87.6374 129.841C87.6822 129.909 91.323 131.826 91.323 131.826C92.6506 132.3 93.9782 132.773 95.3058 133.247C96.393 133.261 97.4797 133.276 98.567 133.291C104.804 134.163 115.498 133.66 124.596 131.552C126.703 130.236 128.81 128.92 130.916 127.605C131.879 125.191 132.841 122.778 133.803 120.364C134.317 117.614 134.832 114.863 135.347 112.112C136.441 109.201 137.536 106.29 138.63 103.379C139.725 100.468 142.685 97.2286 142.898 96.6692C143.111 96.1103 146.461 87.5836 146.461 87.5836L147.791 72.6969L147.433 64.2021ZM113.157 100.898C113.089 100.864 112.547 100.58 112.469 100.535C112.391 100.49 111.696 100.154 111.54 99.8914C111.384 99.6285 110.875 99.0304 110.824 98.9748C110.773 98.9186 109.912 98.203 109.912 98.203C109.912 98.203 110.036 97.2971 110.058 97.2466C110.08 97.1966 110.824 96.3913 110.824 96.3913C110.865 96.2274 110.906 96.0634 110.947 95.8995C110.997 95.8995 112.424 95.553 112.469 95.519C112.514 95.485 115.156 94.1605 115.156 94.1605C115.794 94.0656 116.431 93.9708 117.069 93.8754C117.483 93.8347 117.897 93.7934 118.311 93.7527C118.503 93.8048 118.695 93.8568 118.887 93.9094C118.974 93.9929 119.061 94.0765 119.149 94.1605C119.364 94.3451 119.578 94.5291 119.792 94.7137C119.762 94.8462 119.762 94.9844 119.792 95.1169C119.849 95.3406 119.792 95.9 119.792 95.9C119.81 96.0933 119.817 96.2872 119.815 96.4815C119.809 96.6718 119.412 97.6003 119.373 97.6663C119.333 97.7328 118.674 98.6118 118.641 98.7345C118.607 98.8577 117.958 99.5006 117.818 99.6403C117.678 99.7806 116.946 100.306 116.873 100.373C116.799 100.44 115.67 100.848 115.67 100.848C115.67 100.848 114.395 101.004 114.339 101.004C114.283 101.004 113.218 100.924 113.157 100.898ZM126.346 114.63C125.977 115.771 124.562 116.52 124.528 116.57C124.495 116.619 122.274 117.57 122.224 117.587C122.173 117.604 120.333 117.587 120.299 117.587C120.265 117.587 117.485 116.536 117.485 116.536C117.485 116.536 115.842 115.189 115.806 115.122C115.771 115.055 114.475 112.097 114.475 112.097C114.703 111.748 114.93 111.4 115.158 111.051C116.375 110.311 117.593 109.571 118.81 108.832C119.125 108.547 119.44 108.261 119.755 107.976C121.847 107.848 123.939 107.719 126.031 107.591C128.123 107.462 126.73 109.34 126.92 110.543C127.11 111.745 126.715 113.493 126.346 114.628V114.63ZM144.183 84.0912C144.015 85.3486 143.344 86.3498 142.27 87.2613C141.197 88.1728 139.099 89.52 137.052 89.8664C135.005 90.2129 131.967 89.47 129.265 87.9377C126.558 86.3947 123.672 85.3265 123.65 85.2311C123.65 85.2311 119.175 84.1355 118.034 83.6493C116.893 83.1632 115.562 81.2953 114.675 79.9425C113.789 78.5897 113.882 77.4988 114.234 75.8887C114.586 74.2781 116.958 71.3492 116.958 71.3492C117.882 70.5867 118.807 69.8247 119.732 69.0622C120.881 68.8385 122.029 68.6147 123.178 68.391C124.421 68.2899 125.665 68.1894 126.909 68.0889C127.693 68.2193 128.478 68.3497 129.263 68.4802C130.529 68.7766 131.795 69.0725 133.061 69.369C134.327 69.6649 136.49 71.0909 136.557 71.1136C136.624 71.1358 139.678 73.3723 139.678 73.3723C139.678 73.3723 141.289 75.0999 141.334 75.2118C141.379 75.3236 143.387 78.2422 143.32 78.3149C143.253 78.3876 144.248 81.2948 144.271 81.4124C144.294 81.5299 144.345 82.8312 144.183 84.0891V84.0912Z" fill="#C6CACD"/>
<path fill-rule="evenodd" clip-rule="evenodd" d="M68.5422 31.8298C68.3848 32.0688 68.2275 32.3077 68.0702 32.5466C66.3574 42.8287 64.6445 53.1108 62.9316 63.3932C63.4912 63.4834 64.0509 63.5736 64.611 63.6644C65.3857 63.7051 66.1603 63.7458 66.9355 63.7871C68.2208 63.2457 69.5061 62.7049 70.7914 62.1641C72.0762 61.6233 71.1421 54.5992 72.9138 46.6784C74.6855 38.7575 75.5705 33.1201 75.5705 33.1201C75.5705 33.1201 72.0385 30.9911 68.5422 31.8298Z" fill="#C6CACD"/>
<path fill-rule="evenodd" clip-rule="evenodd" d="M61.5323 81.1901L60.3043 82.5053L58.7891 88.1661L63.9167 91.8003L65.1751 87.7707L62.4947 81.0375L61.5323 81.1901Z" fill="#C6CACD"/>
<path fill-rule="evenodd" clip-rule="evenodd" d="M53.5445 120.148L51.9883 132.033L53.1425 133.222H55.9212L60.3725 111.533L55.5019 111.183L53.5445 120.148Z" fill="#C6CACD"/>
<path fill-rule="evenodd" clip-rule="evenodd" d="M161.613 84.0892C160.821 80.3622 158.957 78.6846 158.957 78.6846C158.957 78.6846 156.438 75.9357 154.482 73.7456C152.526 71.5555 151.033 69.0406 151.033 69.0406C151.033 69.0406 148.771 66.0056 146.71 63.236C146.598 63.369 146.486 63.502 146.374 63.6356C136.539 54.9691 125.958 55.2013 125.958 55.2013C132.437 59.4421 131.692 65.0332 131.692 65.0332C142.366 70.2512 143.577 77.0828 143.577 77.0828C143.577 77.0828 142.761 77.1008 143.227 77.9623C143.693 78.8238 143.693 80.7814 144.206 82.5286C144.719 84.2763 143.577 84.2758 143.204 86.023C142.831 87.7708 142.039 87.0944 140.99 88.2368C139.942 89.3788 137.938 89.2375 135.723 89.867C133.509 90.4965 128.614 88.0497 128.614 88.0497C130.944 90.3795 131.413 97.042 128.34 99.0104C128.34 99.0104 128.393 99.5873 128.533 100.426C128.673 101.264 127.781 103.239 127.189 104.951C126.597 106.663 126.542 106.733 126.542 106.733C126.542 106.733 126.728 109.739 127.125 111.695C127.521 113.652 126.706 115.307 126.706 115.307C131.879 123.367 124.605 131.553 124.605 131.553C130.108 130.28 135.029 128.42 138.032 125.93C137.985 125.65 137.939 125.371 137.892 125.091C139.213 121.457 140.534 117.823 141.855 114.188C142.881 113.567 143.907 112.945 144.933 112.324C145.788 111.983 146.642 111.642 147.497 111.3C148.802 110.85 150.107 110.399 151.412 109.948C152.481 109.523 153.473 108.925 154.349 108.178C155.748 106.967 156.166 106.22 157.332 103.938C158.498 101.656 159.71 100.117 160.502 97.4617C161.294 94.806 161.341 93.7806 161.621 91.2178C161.901 88.6549 162.406 87.8167 161.613 84.0892Z" fill="#A1A5A8"/>
<path fill-rule="evenodd" clip-rule="evenodd" d="M67.5977 62.9364C68.6307 62.4822 69.6638 62.0275 70.6969 61.5733C70.7866 60.4046 70.8759 59.236 70.9651 58.0673C71.0043 57.6207 71.043 57.1743 71.0817 56.7277C71.1203 56.2812 71.7578 53.4085 71.7697 53.3615C71.7816 53.3146 72.9353 48.2697 72.9353 48.2697C73.0668 47.0932 73.1989 45.9166 73.3309 44.7401C73.692 43.4433 74.0535 42.1465 74.4145 40.8497C74.5894 39.4907 74.7642 38.1318 74.9391 36.7728C75.083 35.775 75.2269 34.7771 75.3708 33.7793C75.4208 33.3173 75.4714 32.8553 75.5219 32.3933C74.477 32.1642 73.432 31.9352 72.3871 31.7062C73.7508 35.3756 68.297 57.3455 67.5977 62.9364Z" fill="#A1A5A8"/>
<path fill-rule="evenodd" clip-rule="evenodd" d="M62.2129 90.6825L63.6122 91.8709L65.1734 87.8635L63.4487 86.0229L62.2129 90.6825Z" fill="#A1A5A8"/>
<path fill-rule="evenodd" clip-rule="evenodd" d="M58.1936 118.405L60.3039 111.742C58.9715 111.668 57.6391 111.593 56.3066 111.519C57.4597 112.536 58.3688 114.561 58.1936 118.405Z" fill="#A1A5A8"/>
<path fill-rule="evenodd" clip-rule="evenodd" d="M111.82 95.9706C113.009 95.1432 114.199 94.3152 115.389 93.4877C122.834 89.1885 120.199 86.572 117.895 84.3242C111.882 75.004 115.35 74.7241 113.977 68.2497C111.269 54.6412 94.0251 57.5653 94.0251 57.5653C91.7093 59.8762 89.3936 62.1873 87.0778 64.498C82.8382 68.2471 75.9527 78.252 73.329 85.2414C73.1892 86.4323 73.0499 87.6233 72.9102 88.8142C73.0494 90.7449 73.1892 92.6757 73.329 94.6065C73.5513 95.7489 73.773 96.8914 73.9948 98.0334C74.2166 99.1758 75.6339 103.166 75.6742 103.413C75.7144 103.659 76.7537 106.174 76.7537 106.174C76.9997 107.678 77.2457 109.182 77.4917 110.687C77.794 112.77 78.0957 114.853 78.3979 116.937C78.7002 119.021 79.3768 119 81.7566 123.719C84.1363 128.438 88.6472 129.31 88.6472 129.31C102.485 134.197 118.886 128.164 116.542 116.344C116.542 116.344 116.189 115.54 115.317 113.51C114.445 111.481 115.003 110.432 115.003 110.432C120.144 105.02 114.897 101.732 114.897 101.732C114.897 101.732 115.093 101.386 113.885 101.14C112.677 100.895 110.915 99.53 110.059 98.4675C109.203 97.4044 111.82 95.9706 111.82 95.9706ZM104.706 88.3718C104.706 88.4559 104.112 91.2017 104.112 91.2017C103.816 92.0411 103.519 92.8804 103.223 93.7197C102.878 94.8374 102.534 95.9557 102.189 97.0739C102.038 97.9483 101.886 98.8222 101.735 99.6965C101.502 100.778 101.269 101.86 101.036 102.942C100.401 104.17 99.7646 105.398 99.1292 106.627C98.2323 107.325 97.3353 108.024 96.4389 108.723C95.7916 108.921 95.1444 109.118 94.4976 109.316C94.447 109.338 92.0534 109.316 92.0534 109.316C92.0534 109.316 90.2523 108.846 90.1626 108.796C90.0728 108.746 88.4347 107.884 88.4347 107.884C87.7766 107.198 87.1185 106.513 86.4604 105.827C86.005 104.994 85.5501 104.161 85.0952 103.328C84.845 102.709 84.5954 102.09 84.3452 101.472C84.0956 100.852 84.3622 98.5025 84.3452 98.2788C84.3287 98.055 84.1157 94.4379 84.1157 94.393C84.1157 94.3482 84.9554 91.1667 84.9884 91.078C85.0214 90.9888 85.727 88.2146 85.727 88.1589C85.727 88.1027 87.6451 84.598 87.7183 84.5078C87.7921 84.4175 90.3864 82.1321 90.4612 82.0816C90.5365 82.031 94.3093 79.6327 94.3093 79.6327C94.3093 79.6327 95.8473 79.4038 95.9371 79.3862C96.0268 79.3687 98.2921 79.3862 98.2921 79.3862C99.1663 79.6193 100.041 79.8523 100.915 80.0853C101.488 80.5101 102.06 80.9355 102.633 81.3603C103.168 82.1249 103.703 82.8899 104.238 83.6545C104.425 84.4938 104.611 85.3332 104.798 86.1725C104.984 87.0118 104.706 88.2827 104.706 88.3718Z" fill="#F6FBFD"/>
<path fill-rule="evenodd" clip-rule="evenodd" d="M67.7839 32.2785C67.2243 36.5029 66.6647 40.7272 66.1046 44.9516C64.9704 51.5385 63.8362 58.1254 62.7021 64.7124C61.5679 71.2992 63.5758 65.8833 63.6284 65.9008C63.681 65.9183 64.7822 66.0054 64.7822 66.0054C65.4635 65.1847 66.1453 64.3639 66.8267 63.5437C65.4882 61.782 67.5962 55.5761 68.506 49.9852C69.4163 44.3942 71.8621 34.2252 70.2539 31.6742L67.7839 32.2785Z" fill="#F6FBFD"/>
<path fill-rule="evenodd" clip-rule="evenodd" d="M59.7508 82.3599L59.1211 87.6887L61.423 89.2374L62.7511 84.2293L62.0404 80.8566L59.7508 82.3599Z" fill="#F6FBFD"/>
<path fill-rule="evenodd" clip-rule="evenodd" d="M55.3152 112.371L53.4741 120.455C53.2256 122.489 52.977 124.524 52.7285 126.559C52.48 128.593 51.4702 128.679 52.5885 130.519C53.707 132.359 55.1523 128.644 55.6416 125.324C56.1308 122.004 56.7835 116.147 55.8514 112.278L55.3152 112.371Z" fill="#F6FBFD"/>
<path fill-rule="evenodd" clip-rule="evenodd" d="M96.1349 173.698C91.626 173.72 87.9739 173.396 85.541 172.753C85.7014 174.043 85.8613 175.333 86.0217 176.622C86.0274 176.661 86.0331 176.7 86.0387 176.74C86.833 181.718 87.6273 186.696 88.4216 191.674C96.548 192.479 104.608 192.461 112.411 191.808C108.499 182.912 102.086 177.025 96.1349 173.698Z" fill="#DF6064"/>
<path fill-rule="evenodd" clip-rule="evenodd" d="M120.226 109.462C120.226 109.462 118.727 111.569 116.143 112.789C119.023 119.437 127.934 116.557 125.317 108.723C123.023 110.211 120.226 109.462 120.226 109.462Z" fill="#AA282A"/>
<path fill-rule="evenodd" clip-rule="evenodd" d="M68.393 49.9679C68.3595 50.1917 68.3203 50.4155 68.2754 50.6393C68.801 50.712 69.5137 50.9863 69.9501 51.2324C70.2301 49.8459 70.5159 48.4118 70.7898 46.9967C70.3091 46.807 69.5911 46.6347 69.048 46.5491C68.8133 47.7918 68.5555 48.9556 68.393 49.9679Z" fill="#AA282A"/>
<path fill-rule="evenodd" clip-rule="evenodd" d="M165.902 172.743C165.17 170.574 164.157 169.807 163.491 168.13C162.827 166.453 161.081 165.162 159.782 162.992C159.268 162.131 158.379 161.404 157.367 160.698C149.631 164.076 141.107 166.76 132.666 168.795C141.33 172.06 148.39 177.042 153.188 182.348C158.368 180.318 163.116 178.082 167.328 175.75C166.87 174.733 166.389 173.726 165.902 172.743Z" fill="#AA282A"/>
<path fill-rule="evenodd" clip-rule="evenodd" d="M178.488 147.451C173.051 152.685 165.656 157.091 157.367 160.697C158.379 161.401 159.27 162.128 159.783 162.991C161.081 165.16 162.826 166.451 163.492 168.128C164.158 169.805 165.171 170.572 165.903 172.741C166.389 173.726 166.87 174.732 167.329 175.75C174.119 171.992 179.506 167.983 183.03 164.181L178.488 147.451Z" fill="#771C1C"/>
<path fill-rule="evenodd" clip-rule="evenodd" d="M70.6971 46.9581C70.4227 48.3726 70.1375 49.7928 69.8574 51.1793C70.4691 51.5254 71.0272 51.959 71.5135 52.4662C71.8039 51.1375 72.0948 49.8088 72.3857 48.48C72.1294 47.7471 71.4914 47.272 70.6971 46.9581Z" fill="#771C1C"/>
<path fill-rule="evenodd" clip-rule="evenodd" d="M123.356 117.426C123.356 117.426 125.198 116.871 126.188 115.225C127.178 113.579 126.934 113.465 127.182 112.065C127.429 110.664 126.188 109.284 126.188 109.284C123.077 111.591 121.503 114.735 123.356 117.426Z" fill="#771C1C"/>
<path fill-rule="evenodd" clip-rule="evenodd" d="M132.667 168.795C119.075 172.065 105.695 173.654 96.1367 173.698C102.088 177.025 108.503 182.912 112.413 191.808C127.37 190.561 141.393 186.983 153.189 182.348C148.391 177.042 141.331 172.06 132.667 168.795Z" fill="#D63D3D"/>
<path fill-rule="evenodd" clip-rule="evenodd" d="M65.8418 46.4668L65.5664 48.0716C65.5664 49.3388 65.5664 50.6059 65.5664 51.8731C66.4623 50.7663 67.4696 50.5145 68.3913 50.6545C68.4361 50.4306 68.4753 50.2068 68.5089 49.983C68.6708 48.9708 68.889 47.8008 69.1247 46.5609C67.7775 46.3549 66.4061 46.4221 65.8418 46.4668Z" fill="#D63D3D"/>
<path fill-rule="evenodd" clip-rule="evenodd" d="M118.988 116.914C119.252 116.914 119.517 116.914 119.781 116.914C119.338 114.445 121.82 109.878 124.511 108.621C122.917 108.391 121.323 108.162 119.729 107.933C117.986 109.401 116.244 110.868 114.502 112.336C115.244 113.396 115.985 114.456 116.727 115.516L118.988 116.914Z" fill="#D63D3D"/>
<path fill-rule="evenodd" clip-rule="evenodd" d="M201.129 121.483C208.333 111.978 204.697 97.0435 178.548 98.6536C178.548 98.6536 174.073 89.9928 164.252 87.3036C164.006 81.9475 160.884 78.1226 157.947 75.6093C155.011 73.0959 153.221 69.2581 151.627 67.7037C151.627 67.7037 154.636 61.8218 154.122 54.6428C153.607 47.4639 150.475 43.3094 147.433 40.6543C148.269 40.5815 149.106 40.5088 149.943 40.4361C146.28 35.9743 140.48 31.987 128.034 34.4367C128.429 33.4153 128.825 32.394 129.22 31.3726C122.334 32.2785 117.345 37.9193 114.408 48.7279C108.116 48.4258 94.4849 53.3626 87.9347 60.0496C84.8865 57.6621 77.542 55.7669 72.0496 57.1199C73.617 49.0929 75.1844 41.066 76.7518 33.039C75.1746 30.07 69.5254 28.1525 66.7006 32.0827C64.752 44.0067 62.8039 55.9307 60.8555 67.8548C60.3565 68.5224 59.897 69.219 59.4795 69.9402C57.1581 73.9549 57.6882 77.8968 58.7803 80.5638C58.4801 82.3976 58.1799 84.2314 57.8797 86.0647C52.3424 83.6592 43.4208 84.0355 38.946 94.1105C34.6173 103.85 40.1775 118.276 50.877 128.943C50.7129 129.95 50.549 130.957 50.3849 131.965C50.5747 133.999 54.3593 136.426 56.9622 134.167C57.2085 134.352 57.4604 134.531 57.7123 134.71C57.7123 134.71 48.1251 139.909 42.7664 147.132C37.4078 154.354 38.9908 166.002 53.1591 167.913C67.3277 169.826 81.7806 168.377 81.7806 168.377C85.0717 188.712 88.3623 209.047 91.6528 229.382C94.9434 249.718 102.197 237.009 120.235 237.78C138.274 238.552 180.925 231.555 197.705 201.643L178.71 139.338C178.71 139.338 193.93 130.988 201.129 121.483ZM176.216 104.821C176.624 110.283 173.687 117.473 173.554 117.798C173.705 117.625 176.143 114.801 177.312 112.184C177.312 112.184 176.451 122.456 166.662 130.562C156.873 138.669 144.741 136.087 141.424 128.086C141.424 128.086 148.517 134.023 157.886 128.886C157.886 128.886 147.46 130.378 143.287 124.72C139.209 119.19 145.268 112.801 154.122 111.067C162.047 109.513 163.961 105.056 163.961 105.056C163.961 105.056 160.252 106.549 157.724 106.93C157.724 106.93 163.423 99.3367 163.765 91.4982C171.444 94.9473 175.796 99.23 176.216 104.821ZM69.1525 32.6624C69.1525 32.6624 71.9098 31.4767 74.3582 33.6181C72.7696 41.7551 71.181 49.8922 69.5925 58.0292C69.0648 58.2974 68.5676 58.6218 68.1101 58.9966C68.5341 59.0717 68.9441 59.2132 69.3243 59.4157C69.218 59.9581 69.1112 60.5005 69.005 61.0428C68.351 61.3557 66.242 62.4518 63.9489 64.498L69.1525 32.6624ZM62.9772 70.447C64.1965 68.507 65.9862 66.6731 68.1901 65.2363C69.0004 64.7006 69.854 64.2325 70.7411 63.8371C72.7397 62.9374 74.8858 62.411 77.0742 62.2837C79.2626 62.1569 75.9333 60.3815 74.9208 59.6507C74.9208 59.6507 80.2905 59.0017 85.3471 62.9606C85.3471 62.9606 82.3097 65.5714 81.1513 71.3699C81.1513 71.3699 89.71 61.3052 99.263 56.458C108.816 51.6107 121.143 50.6097 132.123 52.4975C132.123 52.4975 128.487 48.55 118.279 48.6171C118.279 48.6171 119.644 41.069 124.465 37.0156C124.465 37.0156 124.292 38.5197 124.538 39.9174C124.538 39.9174 133.197 33.7222 142.655 38.4749C142.655 38.4749 140.77 39.336 140.037 40.1742C140.037 40.1742 146.57 42.7129 149.462 48.3485C152.086 53.4756 149.098 61.9409 148.529 63.4447C148.529 63.4447 145.872 59.8605 141.844 57.8759C146.151 63.4004 148.299 68.9911 151.605 73.2795C154.911 77.5679 160.694 80.4081 160.185 88.6549C159.693 96.5609 155.62 105.221 152.572 107.52C148.976 108.028 141.491 109.946 137.996 117.983C134.5 126.02 139.428 132.903 139.428 132.903C139.428 132.903 130.075 136.325 118.106 139.781C105.302 139.703 91.9401 137.934 88.4943 137.763C93.1594 140.328 101.527 142.425 105.045 143.236C101.616 144.052 98.1654 144.784 94.8207 145.377C91.3413 145.545 77.9118 142.794 68.0782 136.739C64.7386 134.682 61.2432 132.345 57.8903 129.638L59.8115 119.81C65.063 124.898 71.949 127.045 71.949 127.045C71.949 127.045 63.7545 120.633 60.5051 116.277C60.7903 114.814 61.0756 113.352 61.3608 111.888C64.7272 110.887 67.698 108.002 68.0276 102.208C68.0276 102.208 71.261 104.199 74.2473 104.562C75.0591 106.577 75.1148 108.576 75.221 110.829C72.1336 110.818 68.8503 110.068 68.6491 110.024C68.9003 110.248 73.0337 113.825 75.5625 114.675C75.9591 117.27 76.8431 120.25 79.03 123.878C84.5786 133.055 95.9053 136.626 106.158 133.675C106.158 133.675 88.2761 133.836 81.9667 120.664C76.955 110.186 80.6747 110.56 77.0726 102.207C73.9847 95.0339 73.9512 85.9936 74.4659 82.4651C74.4659 82.4651 71.3615 84.5057 71.0511 90.5496C71.0511 90.5496 68.4201 89.3189 66.3808 86.1782C65.6902 85.1089 65.1496 83.9499 64.7757 82.7337C64.2383 81.0448 63.9422 79.0377 64.0707 76.678C64.0707 76.678 62.9628 77.0307 61.7327 78.0535C61.6486 78.1262 61.5589 78.2046 61.4753 78.2829C60.6618 75.9877 61.2824 73.1196 62.9767 70.447H62.9772ZM65.1043 92.7329C65.2368 92.0529 65.3688 91.3724 65.5014 90.6924C66.9012 92.4648 68.7904 94.1363 71.3187 95.2215C71.3187 95.2215 71.7381 98.0225 72.5659 99.5826C72.5659 99.5826 69.478 98.6092 67.2406 96.9827C67.239 96.9811 66.5737 95.0591 65.1022 92.7329H65.1043ZM60.8141 83.6813C60.8141 83.6813 61.2113 82.9766 61.7095 82.5064C61.7095 82.5064 62.1515 85.08 63.7457 88.0141C63.5982 88.7668 63.4512 89.52 63.3037 90.2727C62.3934 89.1849 61.3546 88.2105 60.2106 87.3712L60.8141 83.6813ZM42.2106 108.972C37.3887 95.7675 46.6849 86.1431 54.4696 88.2404C55.4735 88.5147 56.4366 88.9209 57.3334 89.4483C58.1453 89.9226 58.9046 90.481 59.5988 91.1146C60.7245 92.1287 61.6883 93.3088 62.4568 94.6142C63.1469 95.7721 63.6689 97.0218 64.0062 98.3267C64.7953 101.404 64.3982 104.606 62.3 107.083C61.5718 107.944 60.6577 108.631 59.6268 109.09C58.6086 109.554 57.5455 109.778 56.5335 109.862C55.6911 109.925 54.8447 109.908 54.0056 109.811C52.5289 109.644 51.5051 109.297 51.5051 109.297C51.9697 110.074 52.7634 110.752 53.7705 111.265C53.0788 115.49 52.3871 119.715 51.6955 123.941C47.7294 119.738 44.34 114.813 42.2089 108.97L42.2106 108.972ZM55.9368 128.005C55.633 129.561 55.3292 131.117 55.0254 132.673C55.0254 132.677 55.0254 132.681 55.0254 132.685C54.2418 132.686 53.4919 132.367 52.9498 131.801C52.9928 131.538 53.0357 131.276 53.0786 131.013C53.3452 129.384 53.6118 127.755 53.8785 126.126C54.6435 121.446 55.4085 116.766 56.1735 112.086C57.1034 112.282 58.0551 112.354 59.0038 112.3L55.9368 128.005ZM55.4503 164.185C46.031 162.972 42.5348 155.703 46.9648 148.39C51.3948 141.077 61.4851 136.906 61.4851 136.906C61.4851 136.906 62.3186 137.454 63.5889 138.249C52.1219 145.401 54.4825 154.2 59.2708 156.811C56.8822 151.567 59.1532 144.293 68.3391 141.083C69.9726 142.011 71.6339 142.889 73.0146 143.476C69.9107 152.053 83.2587 151.254 101.57 147.692C119.893 144.13 141.985 135.878 141.985 135.878C149.257 142.174 163.095 139.937 171.765 130.712C185.122 116.102 179.993 102.918 179.993 102.918C187.824 101.94 203.861 104.5 199.945 115.683C196.029 126.866 167.086 144.617 129.19 154.683C91.2934 164.749 64.8624 165.395 55.4486 164.182L55.4503 164.185ZM193.49 201.158C191.413 205.763 177.25 218.177 166.805 223.068C167.029 222.811 174.266 214.575 175.146 204.253C175.146 204.253 163.238 224.845 145.546 229.844C135.338 232.362 111.913 235.821 96.0441 227.501C93.1527 213.289 86.2553 171.216 86.328 167.63C90.5744 167.731 114.609 163.21 137.604 156.527C158.371 157.282 167.757 177.001 168.055 177.627C165.197 162.941 156.146 155.509 150.503 152.487C160.33 149.155 169.144 145.476 175.052 141.68L193.49 201.158Z" fill="black"/>
<path fill-rule="evenodd" clip-rule="evenodd" d="M113.229 113.421C114.163 115.248 118.498 121.801 124.757 118.542C130.456 115.576 128.851 107.963 127.85 106.56C131.457 102.853 128.191 98.5814 128.191 98.5814C127.822 105.571 122.15 106.784 119.599 105.246C119.599 105.246 116.121 112.99 108.223 109.182C108.22 109.182 108.994 112.99 113.229 113.421ZM120.226 109.462C120.226 109.462 123.025 110.211 125.316 108.723C127.933 116.557 119.023 119.437 116.142 112.789C118.727 111.569 120.226 109.462 120.226 109.462H120.226Z" fill="black"/>
<path fill-rule="evenodd" clip-rule="evenodd" d="M116.098 102.132C117.777 101.735 119.737 100.236 121.104 97.0883C122.472 93.9404 121.244 91.6374 117.625 92.1462C114.005 92.6546 108.556 95.5458 108.664 97.7874C108.771 100.029 112.758 102.912 116.098 102.132ZM111.388 97.5528C112.596 96.8146 113.928 96.0263 116.562 95.2488C119.196 94.4709 119.756 96.1438 117.972 98.1344C116.188 100.124 114.146 101.019 111.45 98.8835C110.476 98.1117 111.103 97.7266 111.388 97.5528Z" fill="black"/>
<path fill-rule="evenodd" clip-rule="evenodd" d="M124.836 87.3042C130.988 89.4009 133.701 93.7899 141.151 89.7866C146.046 87.1531 147.791 80.2818 141.818 73.8126C135.844 67.3439 125.304 65.5441 120.036 67.8079C114.768 70.0717 113.29 75.0762 113.29 75.0762C111.155 83.5303 118.683 85.2074 124.836 87.3042ZM124.858 69.2726C131.256 68.7132 137.213 73.2816 138.31 74.2101C144.317 79.3146 144.261 85.177 139.786 87.7568C135.312 90.3372 128.522 86.2081 123.93 84.3913C119.667 82.7028 116.681 82.5966 115.679 78.7325C114.678 74.869 118.465 69.832 124.858 69.2726Z" fill="black"/>
<path fill-rule="evenodd" clip-rule="evenodd" d="M92.5053 110.663C97.2205 110.955 100.784 108.034 102.16 104.312C103.536 100.59 102.943 97.8936 104.721 92.968C106.499 88.0424 107.971 80.3936 99.6539 78.3922C91.0679 76.329 83.8188 85.5316 82.9796 95.2715C82.2359 104.681 86.4456 110.289 92.5053 110.663ZM85.6028 93.4856C86.5544 84.2046 96.0234 77.7246 101.366 81.8841C106.366 85.7755 102.417 91.2156 101.366 96.3872C100.314 101.559 99.4465 108.095 92.6957 108.302C85.9448 108.509 85.0886 98.4973 85.6059 93.4877L85.6028 93.4856Z" fill="black"/>
<path fill-rule="evenodd" clip-rule="evenodd" d="M93.2266 99.1851C93.4479 99.297 93.6779 99.3903 93.9146 99.465C92.863 97.9106 92.683 95.7634 93.6299 93.8692C94.8709 91.3868 97.6173 90.185 100.023 90.9599C99.553 90.2629 98.9114 89.6989 98.1599 89.3215C95.6095 88.0527 92.438 89.2266 91.079 91.9513C89.7199 94.6766 90.6756 97.9106 93.2266 99.1851Z" fill="#040002"/>
<path fill-rule="evenodd" clip-rule="evenodd" d="M128.695 76.6977C130.808 76.8714 132.554 78.1345 133.341 79.8348C133.399 79.5941 133.436 79.3492 133.453 79.1022C133.682 76.262 131.406 73.7626 128.374 73.5224C125.342 73.2821 122.691 75.384 122.456 78.2227C122.391 79.0594 122.543 79.8993 122.898 80.6602C123.476 78.2021 125.926 76.4739 128.695 76.6977Z" fill="#040002"/>
<path fill-rule="evenodd" clip-rule="evenodd" d="M50.1864 175.996C50.1864 175.996 48.3951 182.448 43.1719 186.686C48.3967 190.925 50.1864 197.377 50.1864 197.377C50.1864 197.377 51.9821 190.925 57.2059 186.686C51.9821 182.448 50.1864 175.996 50.1864 175.996Z" fill="black"/>
<path fill-rule="evenodd" clip-rule="evenodd" d="M34.5014 128.377C34.5014 128.377 33.1019 133.424 29.0156 136.74C33.1019 140.055 34.5014 145.102 34.5014 145.102C34.5014 145.102 35.9058 140.055 39.9921 136.74C35.9058 133.424 34.5014 128.377 34.5014 128.377Z" fill="#040002"/>
<path fill-rule="evenodd" clip-rule="evenodd" d="M34.5014 128.377C34.5014 128.377 33.1019 133.424 29.0156 136.74C33.1019 140.055 34.5014 145.102 34.5014 145.102C34.5014 145.102 35.9058 140.055 39.9921 136.74C35.9058 133.424 34.5014 128.377 34.5014 128.377Z" fill="black"/>
<path fill-rule="evenodd" clip-rule="evenodd" d="M104.823 28.7171C104.823 28.7171 106.479 22.7686 111.3 18.8597C106.481 14.9507 104.826 9 104.826 9C104.826 9 103.172 14.9524 98.3535 18.8597C103.172 22.7686 104.823 28.7171 104.823 28.7171Z" fill="#040002"/>
<path fill-rule="evenodd" clip-rule="evenodd" d="M104.823 28.7171C104.823 28.7171 106.479 22.7686 111.3 18.8597C106.481 14.9507 104.826 9 104.826 9C104.826 9 103.172 14.9524 98.3535 18.8597C103.172 22.7686 104.823 28.7171 104.823 28.7171Z" fill="black"/>
<path fill-rule="evenodd" clip-rule="evenodd" d="M173.855 68.9535C173.855 68.9535 175.354 63.567 179.716 60.0285C175.354 56.49 173.855 51.1033 173.855 51.1033C173.855 51.1033 172.361 56.49 168 60.0285C172.361 63.567 173.855 68.9535 173.855 68.9535Z" fill="#040002"/>
<path fill-rule="evenodd" clip-rule="evenodd" d="M173.855 68.9535C173.855 68.9535 175.354 63.567 179.716 60.0285C175.354 56.49 173.855 51.1033 173.855 51.1033C173.855 51.1033 172.361 56.49 168 60.0285C172.361 63.567 173.855 68.9535 173.855 68.9535Z" fill="black"/>
<path fill-rule="evenodd" clip-rule="evenodd" d="M217.846 110.344C217.846 110.344 216.791 114.149 213.711 116.645C216.79 119.144 217.846 122.948 217.846 122.948C217.846 122.948 218.904 119.143 221.983 116.645C218.904 114.147 217.846 110.344 217.846 110.344Z" fill="#040002"/>
<path fill-rule="evenodd" clip-rule="evenodd" d="M217.846 110.344C217.846 110.344 216.791 114.149 213.711 116.645C216.79 119.144 217.846 122.948 217.846 122.948C217.846 122.948 218.904 119.143 221.983 116.645C218.904 114.147 217.846 110.344 217.846 110.344Z" fill="black"/>
<path fill-rule="evenodd" clip-rule="evenodd" d="M207.422 130.291C207.422 130.291 205.771 136.241 200.953 140.151C205.771 144.06 207.422 150.011 207.422 150.011C207.422 150.011 209.077 144.06 213.897 140.151C209.077 136.241 207.422 130.291 207.422 130.291Z" fill="black"/>
<path fill-rule="evenodd" clip-rule="evenodd" d="M87.7186 40.9386C87.7186 40.9386 89.1231 36.0857 93.209 32.8974C89.1231 29.708 87.7186 24.8557 87.7186 24.8557C87.7186 24.8557 86.3188 29.7086 82.2324 32.8974C86.3183 36.0857 87.7186 40.9386 87.7186 40.9386Z" fill="black"/>
</g>
<defs>
<clipPath id="clip0_1789_6992">
<rect width="193" height="232" fill="white" transform="translate(29 9)"/>
</clipPath>
</defs>
</svg>
