<svg width="250" height="250" viewBox="0 0 250 250" fill="none" xmlns="http://www.w3.org/2000/svg">
<path fill-rule="evenodd" clip-rule="evenodd" d="M249.255 126.52C255.633 74.7231 220.462 34 167.236 34H127.591C124.99 34 122.408 35.047 120.348 36.7463C118.277 38.4369 116.727 40.7789 116.177 43.365C115.068 48.5383 118.386 52.7428 123.586 52.7428H163.231C209.197 52.7428 238.646 89.9617 228.873 135.708L226.046 148.921L226.183 148.668C225.359 153.64 228.636 157.612 233.701 157.612C238.411 157.612 243.052 154.174 244.72 149.699L245.35 146.735L247.705 135.708C248.372 132.608 248.882 129.55 249.255 126.52Z" fill="#84BF41"/>
<path fill-rule="evenodd" clip-rule="evenodd" d="M159.23 71.4748H83.0012C77.8099 71.4748 72.6964 75.6676 71.5966 80.8399C70.4987 85.9585 73.7365 90.1219 78.8391 90.2079H155.225C180.436 90.2079 196.589 110.621 191.229 135.708L182.585 176.164C181.485 181.338 184.803 185.53 190.003 185.53C195.194 185.53 200.308 181.338 201.417 176.164L210.052 135.708C217.618 100.291 194.813 71.4748 159.23 71.4748Z" fill="#84BF41"/>
<path fill-rule="evenodd" clip-rule="evenodd" d="M138.132 187.32C137.267 191.362 133.107 194.78 129.045 194.78H30.146C26.0834 194.78 23.3955 191.362 24.2583 187.32L34.867 137.621C35.7298 133.579 39.8919 130.168 43.9436 130.168H142.851C146.905 130.168 149.603 133.579 148.739 137.621L138.132 187.32ZM151.231 108.94H44.631C37.242 108.94 29.8711 111.952 23.9635 116.803C18.056 121.657 13.6008 128.341 12.0308 135.708L0.599147 189.233C-2.54095 203.953 6.977 216 21.7658 216H128.366C135.766 216 143.126 212.99 149.034 208.134C154.95 203.284 159.405 196.588 160.975 189.233L172.409 135.708C175.549 120.988 166.02 108.94 151.231 108.94Z" fill="#84BF41"/>
</svg>
