<svg xmlns="http://www.w3.org/2000/svg" width="250" height="250" fill="none"><path fill="#84BF41" fill-rule="evenodd" d="M249.255 126.52C255.633 74.723 220.462 34 167.236 34h-39.645c-2.601 0-5.183 1.047-7.243 2.746-2.071 1.69-3.621 4.033-4.171 6.619-1.109 5.173 2.209 9.378 7.409 9.378h39.645c45.966 0 75.415 37.219 65.642 82.965l-2.827 13.213.137-.253c-.824 4.972 2.453 8.944 7.518 8.944 4.71 0 9.351-3.438 11.019-7.913l.63-2.964 2.355-11.027c.667-3.1 1.177-6.158 1.55-9.188Z" clip-rule="evenodd"/><path fill="#84BF41" fill-rule="evenodd" d="M159.23 71.475H83.001c-5.191 0-10.305 4.193-11.404 9.365-1.098 5.118 2.14 9.282 7.242 9.368h76.386c25.211 0 41.364 20.413 36.004 45.5l-8.644 40.456c-1.1 5.174 2.218 9.366 7.418 9.366 5.191 0 10.305-4.192 11.414-9.366l8.635-40.456c7.566-35.417-15.239-64.233-50.822-64.233Z" clip-rule="evenodd"/><path fill="#84BF41" fill-rule="evenodd" d="M138.132 187.32c-.865 4.042-5.025 7.46-9.087 7.46H30.146c-4.063 0-6.75-3.418-5.888-7.46l10.609-49.699c.863-4.042 5.025-7.453 9.077-7.453h98.907c4.054 0 6.752 3.411 5.888 7.453l-10.607 49.699Zm13.099-78.38h-106.6c-7.389 0-14.76 3.012-20.668 7.863-5.907 4.854-10.362 11.538-11.932 18.905L.599 189.233C-2.54 203.953 6.977 216 21.766 216h106.6c7.4 0 14.76-3.01 20.668-7.866 5.916-4.85 10.371-11.546 11.941-18.901l11.434-53.525c3.14-14.72-6.389-26.768-21.178-26.768Z" clip-rule="evenodd"/></svg>