<svg width="250" height="250" viewBox="0 0 250 250" fill="none" xmlns="http://www.w3.org/2000/svg">
<path d="M173.595 64.9338C161.432 69.0617 155.575 76.4656 151.585 87.9972C150.555 91.0766 147.981 94.4841 145.085 96.7773L155.06 107.654L123.396 85.1144L36 23C36 23 42.307 64.6717 44.4951 80.0039C46.0396 90.8146 48.6783 95.6631 57.0447 100.578L60.3913 102.412L74.8072 110.144L66.2478 105.623L105.763 127.572L105.506 128.162L62.9655 108.113C65.2181 115.975 69.5942 131.11 71.4606 137.794C73.4557 145.001 75.7082 147.622 82.5944 150.178L95.2729 154.895L103.124 151.75L93.1491 158.499L43.2723 222.906C76.4161 191.587 104.475 180.448 125.006 171.341C151.199 159.809 166.966 152.405 177.263 125.803C184.6 107.13 190.327 83.2146 197.601 73.9757L213.111 53.7952C213.111 53.7952 180.995 62.444 173.595 64.9338Z" fill="#3A1AB6"/>
</svg>
