<svg width="250" height="250" viewBox="0 0 250 250" fill="none" xmlns="http://www.w3.org/2000/svg">
<path d="M34.4531 116.094L65.625 116.141L31.4844 31.4844C31.4844 31.4844 92.8431 31.4844 125 31.4844C176.647 31.4844 218.516 73.3528 218.516 125C218.516 176.647 176.647 218.516 125 218.516C115.034 218.516 74.7968 218.516 74.7968 218.516L34.4531 116.094Z" fill="#F72A30"/>
<path d="M126.52 94.9212V114.994C126.52 115.602 127.054 116.094 127.706 116.094H154.966C155.619 116.094 156.153 116.586 156.153 117.193V137.296C156.153 137.904 155.619 138.396 154.966 138.396H127.691C127.039 138.396 126.505 138.887 126.505 139.495V181.791C126.505 182.399 125.971 182.891 125.319 182.891H103.921C103.268 182.891 102.734 182.399 102.734 181.791V72.6618C102.734 72.0543 103.268 71.5625 103.921 71.5625H160.923C161.576 71.5625 162.109 72.0543 162.109 72.6618V92.7224C162.109 93.33 161.576 93.8217 160.923 93.8217H127.706C127.039 93.8217 126.52 94.3137 126.52 94.9212Z" fill="white"/>
<path d="M126.52 94.9212V114.994C126.52 115.602 127.054 116.094 127.706 116.094H154.966C155.619 116.094 156.153 116.586 156.153 117.193V137.296C156.153 137.904 155.619 138.396 154.966 138.396H127.691C127.039 138.396 126.505 138.887 126.505 139.495V181.791C126.505 182.399 125.971 182.891 125.319 182.891H103.921C103.268 182.891 102.734 182.399 102.734 181.791V72.6618C102.734 72.0543 103.268 71.5625 103.921 71.5625H160.923C161.576 71.5625 162.109 72.0543 162.109 72.6618V92.7224C162.109 93.33 161.576 93.8217 160.923 93.8217H127.706C127.039 93.8217 126.52 94.3137 126.52 94.9212Z" fill="url(#paint0_linear_1789_6948)"/>
<defs>
<linearGradient id="paint0_linear_1789_6948" x1="132.422" y1="71.5625" x2="132.422" y2="182.891" gradientUnits="userSpaceOnUse">
<stop stop-color="white"/>
<stop offset="1" stop-color="white" stop-opacity="0"/>
</linearGradient>
</defs>
</svg>
