<svg width="250" height="250" viewBox="0 0 250 250" fill="none" xmlns="http://www.w3.org/2000/svg">
<path d="M158.251 34.5041C170.513 34.5041 182.779 34.5444 195.056 34.5041C201.251 34.4565 206.768 36.122 211.455 40.2545C216.6 44.7788 219.585 50.467 219.61 57.3338C219.716 82.3012 220 107.276 219.537 132.232C219.118 154.703 211.105 174.539 196.339 191.461C180.906 209.159 161.479 219.701 138.274 222.995C120.29 225.557 102.948 223.028 86.4509 215.403C63.4165 204.759 47.1455 187.453 37.6745 163.895C31.9788 149.718 30 134.89 31.6144 119.622C33.7352 99.5903 41.3806 81.9852 54.5504 66.8069C67.3047 52.191 83.0946 42.4691 101.789 37.5239C109.762 35.4547 117.97 34.4432 126.204 34.5151C136.879 34.5224 147.561 34.5187 158.251 34.5041ZM140.008 118.821C132.815 118.821 125.621 118.799 118.428 118.843C117.178 118.843 116.784 118.627 117.244 117.28C119.015 112.053 120.684 106.793 122.393 101.54C124.154 96.1374 125.913 90.7347 127.669 85.332C128.125 83.9301 127.669 82.7954 126.456 82.1072C125.242 81.4191 124.018 81.6716 123.103 82.8173C122.593 83.4579 122.134 84.1387 121.646 84.8049C113.259 96.5376 104.878 108.267 96.5013 119.992C93.1657 124.658 89.8192 129.314 86.4618 133.96C86.0453 134.472 85.7854 135.095 85.7136 135.752C85.6418 136.409 85.7612 137.074 86.0573 137.664C86.6804 139.011 87.8283 139.524 89.2313 139.579C89.8289 139.601 90.4302 139.597 91.0279 139.597H131.572C134.021 139.597 134.065 139.597 133.285 142.013C129.991 152.147 126.682 162.274 123.358 172.394C122.757 174.224 123.041 175.359 124.353 176.091C125.665 176.823 126.806 176.508 127.997 174.993C128.169 174.78 128.325 174.557 128.486 174.334C140.39 157.796 152.286 141.259 164.176 124.721C165.069 123.48 165.513 122.188 164.759 120.753C164.005 119.319 162.722 118.795 161.093 118.802C154.067 118.846 147.038 118.821 140.008 118.821Z" fill="#09C6FA"/>
<path d="M140.008 118.821C147.038 118.821 154.067 118.846 161.097 118.802C162.726 118.802 163.994 119.289 164.763 120.753C165.532 122.218 165.072 123.48 164.18 124.721C152.276 141.254 140.379 157.791 128.489 174.334C128.329 174.557 128.172 174.78 128.001 174.993C126.798 176.501 125.68 176.823 124.357 176.091C123.034 175.359 122.761 174.231 123.362 172.394C126.678 162.269 129.987 152.142 133.289 142.013C134.068 139.608 134.017 139.597 131.576 139.597H91.0315C90.4339 139.597 89.8326 139.597 89.235 139.579C87.832 139.524 86.6841 139.011 86.0609 137.664C85.7644 137.074 85.6444 136.41 85.7155 135.753C85.7866 135.095 86.0459 134.473 86.4618 133.96C89.8217 129.324 93.1718 124.669 96.5122 119.996C104.901 108.283 113.282 96.5535 121.657 84.8086C122.134 84.1424 122.593 83.4616 123.114 82.821C124.029 81.6753 125.228 81.4081 126.467 82.1109C127.706 82.8137 128.136 83.9411 127.68 85.3357L122.404 101.544C120.695 106.793 119.026 112.053 117.254 117.283C116.795 118.63 117.189 118.854 118.439 118.846C125.621 118.799 132.815 118.821 140.008 118.821Z" fill="#FBFEFE"/>
</svg>
