<svg width="250" height="250" viewBox="0 0 250 250" fill="none" xmlns="http://www.w3.org/2000/svg">
<g clip-path="url(#clip0_1789_6864)">
<path d="M125.232 29.0989H196.838C200.004 29.0715 203.143 29.6749 206.074 30.8738C209.004 32.0728 211.666 33.8433 213.905 36.082C216.144 38.3208 217.914 40.983 219.113 43.9134C220.312 46.8437 220.916 49.9834 220.888 53.1494V124.755C220.882 149.949 210.871 174.11 193.055 191.926C175.24 209.741 151.079 219.752 125.884 219.759H125.344C112.86 219.773 100.495 217.326 88.9562 212.56C77.4176 207.793 66.9313 200.8 58.0966 191.979C49.2624 183.157 42.2545 172.68 37.4736 161.147C32.6927 149.614 30.2327 137.251 30.2344 124.767C30.2344 72.1197 72.6972 29.6569 125.238 29.1165L125.232 29.0989Z" fill="#25C16F"/>
<path d="M125.233 71.562C113.655 71.562 102.551 76.1614 94.3644 84.3483C86.1775 92.5352 81.5781 103.639 81.5781 115.217V144.9C81.6648 148.723 83.2223 152.366 85.9264 155.07C88.6306 157.774 92.2732 159.332 96.0965 159.418H108.448V125.354H91.768V115.822C92.7841 97.8678 107.637 83.831 125.621 83.831C143.604 83.831 158.51 97.9265 159.474 115.822V125.354H142.577V159.418H153.736V159.959C153.68 163.504 152.246 166.888 149.74 169.394C147.233 171.901 143.849 173.334 140.304 173.391H126.972C125.891 173.391 124.699 173.931 124.699 175.017C124.757 176.192 125.738 177.237 126.972 177.29H140.404C144.991 177.261 149.383 175.426 152.627 172.182C155.871 168.938 157.706 164.546 157.735 159.959V158.878C160.92 158.151 163.762 156.359 165.791 153.798C167.82 151.237 168.915 148.061 168.894 144.794V115.763C169.499 91.1665 150 71.562 125.233 71.562Z" fill="white"/>
</g>
<defs>
<clipPath id="clip0_1789_6864">
<rect width="191" height="191" fill="white" transform="translate(30 29)"/>
</clipPath>
</defs>
</svg>
