<svg width="250" height="250" viewBox="0 0 250 250" fill="none" xmlns="http://www.w3.org/2000/svg">
<path d="M210.192 75.9571L191.03 97.9331C178.285 112.554 168.947 129.846 163.697 148.55C158.446 167.254 157.415 186.899 160.679 206.053C175.598 198.366 188.115 186.691 196.852 172.315C205.588 157.939 210.204 141.42 210.192 124.577V75.9571Z" fill="#CF8A29"/>
<path d="M210.192 124.577V66.7646C210.25 64.799 209.53 62.8905 208.19 61.457C206.849 60.0235 204.998 59.1817 203.042 59.1161H188.027L168.722 72.079C148.214 85.865 132.018 105.21 122.014 127.868C112.01 150.527 108.608 175.57 112.202 200.093L114.669 200.488C113.847 200.488 113.06 200.308 112.238 200.236C113.009 205.554 114.108 210.819 115.527 216H119.102C143.245 215.991 166.398 206.358 183.476 189.217C200.555 172.076 210.163 148.828 210.192 124.577ZM222.347 35.9551L203.721 48.4872H206.688C210.29 48.3565 213.755 47.0685 216.573 44.8127C219.392 42.5568 221.415 39.4522 222.347 35.9551Z" fill="#CF8A29"/>
<path d="M210.192 66.7646C210.25 64.799 209.53 62.8905 208.189 61.457C206.849 60.0234 204.998 59.1817 203.042 59.1161H119.209C101.866 71.7503 87.8778 88.4686 78.4717 107.803C69.0656 127.137 64.5299 148.495 65.2629 170.001C70.7404 178.432 78.0076 185.542 86.5433 190.819C95.079 196.096 104.672 199.41 114.633 200.523C96.2369 199.417 78.8796 191.588 65.8349 178.512C66.6265 186.34 68.1222 194.08 70.3036 201.637C84.054 210.455 99.9128 215.395 116.218 215.941C132.523 216.486 148.674 212.616 162.978 204.737C177.282 196.857 189.212 185.258 197.519 171.155C205.826 157.051 210.203 140.964 210.192 124.577V66.7646ZM206.688 48.4512C210.776 48.3032 214.671 46.6654 217.645 43.8437C220.618 41.0221 222.468 37.2095 222.847 33.1183H177.874L153.493 41.485C147.822 43.4352 142.292 45.7748 136.941 48.4872H206.688V48.4512Z" fill="#CF8A29"/>
<path d="M210.192 124.577V66.7646C210.249 64.799 209.53 62.8905 208.189 61.457C206.849 60.0234 204.998 59.1817 203.042 59.1161H123.892C76.0235 59.1161 49.5688 97.179 53.7873 136.463C57.541 172.371 82.3869 196.466 114.562 200.523C94.8005 199.475 76.2325 190.7 62.829 176.078C49.4256 161.455 42.2508 142.144 42.8393 122.277C43.4278 102.409 51.7328 83.5611 65.9781 69.7646C80.2233 55.9681 99.2778 48.3183 119.066 48.4513H206.688C210.776 48.3032 214.671 46.6654 217.645 43.8437C220.618 41.0221 222.468 37.2095 222.847 33.1183H119.173C101.173 33.1183 83.577 38.4793 68.6098 48.5234C53.6427 58.5675 41.9766 72.8437 35.0866 89.5469C28.1966 106.25 26.392 124.63 29.9011 142.364C33.4102 160.097 42.0753 176.387 54.8009 189.174C67.5264 201.961 83.741 210.671 101.395 214.203C119.048 217.735 137.348 215.929 153.98 209.015C170.612 202.101 184.829 190.389 194.835 175.359C204.84 160.329 210.185 142.657 210.192 124.577Z" fill="#CF8A29"/>
<path d="M210.192 66.7646C210.25 64.799 209.53 62.8905 208.19 61.457C206.849 60.0235 204.998 59.1817 203.042 59.1161H123.892C76.0235 59.1161 49.5688 97.179 53.7873 136.463C54.5817 146.694 57.5794 156.629 62.573 165.582C67.5666 174.535 74.4369 182.291 82.7087 188.315C106.911 191.986 131.653 188.756 154.116 178.991C176.579 169.227 195.86 153.322 209.763 133.087C210.013 130.287 210.156 127.45 210.156 124.577V66.7646H210.192Z" fill="#F6B81A"/>
<path d="M119.137 33.1184C102.606 33.1093 86.3843 37.6247 72.2154 46.1793C58.0465 54.7339 46.4659 67.0045 38.7176 81.6727C30.9694 96.341 27.3463 112.852 28.2378 129.433C29.1293 146.014 34.5015 162.038 43.7774 175.783L44.8856 176.501C54.8364 181.42 65.3727 185.04 76.238 187.273C62.9195 178.084 52.8784 164.855 47.5841 149.522C42.2897 134.188 42.02 117.555 46.8144 102.056C51.6088 86.5579 61.2157 73.0073 74.2292 63.3877C87.2427 53.768 102.98 48.5842 119.137 48.5949H206.688C210.776 48.4469 214.671 46.809 217.645 43.9874C220.618 41.1657 222.468 37.3532 222.847 33.262H119.173L119.137 33.1184Z" fill="#F6B81A"/>
<path d="M210.192 66.7646C210.249 64.799 209.53 62.8905 208.189 61.457C206.849 60.0235 204.998 59.1817 203.042 59.1161H123.892C76.0592 59.1161 49.7475 97.1072 53.7872 136.319C77.9228 143.949 103.746 144.365 128.113 137.518C152.48 130.671 174.339 116.855 191.03 97.7536L210.192 75.9571V66.7646Z" fill="#F6B81A"/>
<path d="M43.3841 124.577C43.4031 104.399 51.3891 85.0529 65.5905 70.7817C79.7919 56.5105 99.049 48.4798 119.138 48.4513H206.688C210.776 48.3032 214.671 46.6654 217.645 43.8437C220.618 41.0221 222.468 37.2095 222.847 33.1183H119.173C95.03 33.1374 71.881 42.7793 54.8091 59.927C37.7373 77.0747 28.138 100.327 28.1191 124.577L28.1191 125.08C33.1834 127.996 38.4387 130.563 43.8489 132.764C43.5483 130.046 43.3931 127.313 43.3841 124.577Z" fill="#F6B81A"/>
<path d="M187.884 59.1161H123.892C96.2221 59.1161 75.7733 71.8277 64.1904 90.141C81.8649 94.6702 100.291 95.4123 118.269 92.319C136.248 89.2257 153.377 82.3663 168.543 72.1868L187.884 59.1161Z" fill="#F6B81A"/>
<path d="M222.847 33.1183H119.173C102.778 33.1226 86.687 37.5717 72.5991 45.9963C58.5111 54.4209 46.9481 66.5087 39.1299 80.9843C43.776 83.2409 48.5509 85.2194 53.4298 86.9092C60.0484 75.2485 69.6188 65.5529 81.1708 58.8053C92.7229 52.0577 105.846 48.498 119.209 48.4872H203.721L222.311 35.991C222.572 35.0509 222.752 34.0897 222.847 33.1183Z" fill="#F6B81A"/>
<path d="M76.81 43.6396C102.005 50.704 128.739 49.9404 153.493 41.4491L177.874 33.1184H119.137C104.385 33.1057 89.8538 36.7177 76.81 43.6396Z" fill="#F6B81A"/>
<path d="M98.0452 129.102C98.2665 121.28 101.227 113.787 106.406 107.941C111.585 102.096 118.65 98.2722 126.359 97.1431L134.188 89.2432L127.038 82.0615C115.229 83.0832 104.211 88.4433 96.091 97.1158C87.9713 105.788 83.321 117.164 83.0304 129.066L90.5021 121.525L98.0452 129.102Z" fill="#FBF4D8"/>
<path d="M130.113 163.251C122.327 163.009 114.876 160.017 109.07 154.803C103.263 149.588 99.4736 142.483 98.367 134.739L90.5379 126.839L83.3879 134.021C84.3611 145.887 89.6602 156.974 98.2695 165.158C106.879 173.342 118.192 178.045 130.041 178.368L122.569 170.827L130.113 163.251Z" fill="#FBF4D8"/>
<path d="M171.582 138.581L163.967 131.005C163.746 138.827 160.786 146.319 155.607 152.165C150.428 158.01 143.363 161.834 135.654 162.963L127.825 170.863L134.975 178.045C146.796 177.04 157.832 171.687 165.967 163.013C174.101 154.339 178.761 142.953 179.054 131.041L171.582 138.581Z" fill="#FBF4D8"/>
<path d="M131.793 96.8199C139.578 97.0616 147.029 100.053 152.836 105.268C158.642 110.483 162.432 117.587 163.538 125.331L171.368 133.231L178.518 126.049C177.539 114.214 172.257 103.155 163.678 94.9819C155.1 86.8091 143.826 82.0947 132.007 81.7384L139.479 89.2792L131.793 96.8199ZM125.608 129.425C125.533 129.828 125.425 130.224 125.286 130.61L124.643 131.472C122.697 132.66 120.606 133.589 118.422 134.237C117.369 134.607 116.431 135.251 115.706 136.104C114.015 138.631 112.938 141.521 112.56 144.542C112.56 146.697 113.525 146.912 113.525 146.912C118.945 148.855 124.644 149.898 130.399 150C136.466 150.169 142.515 149.27 148.273 147.343C148.544 147.23 148.787 147.06 148.984 146.842C149.182 146.625 149.33 146.367 149.417 146.086C149.811 144.484 149.788 142.806 149.349 141.215C148.911 139.624 148.073 138.173 146.915 137.001C145.914 134.775 139.765 132.836 139.765 132.836C138.498 132.573 137.368 131.859 136.583 130.825C136.459 130.389 136.364 129.945 136.297 129.497C136.283 129.281 136.283 129.065 136.297 128.85C137.043 127.883 137.634 126.805 138.049 125.654C138.521 124.916 138.826 124.082 138.943 123.213C139.114 122.854 139.203 122.461 139.203 122.064C139.203 121.666 139.114 121.273 138.943 120.915C139.624 118.847 139.483 116.596 138.55 114.631C138.285 113.787 137.822 113.02 137.2 112.395C136.577 111.77 135.814 111.305 134.975 111.04C132.876 110.054 130.506 109.813 128.254 110.357C126.734 110.783 125.367 111.634 124.31 112.81C123.253 113.986 122.55 115.439 122.283 117C122.071 118.474 122.218 119.977 122.712 121.381C122.625 122.142 122.698 122.913 122.927 123.644C122.938 123.918 123.015 124.186 123.152 124.424C123.289 124.662 123.482 124.862 123.713 125.008C124.061 126.294 124.63 127.509 125.394 128.599C125.442 128.92 125.442 129.247 125.394 129.568L125.608 129.425Z" fill="#FBF4D8"/>
</svg>
