<svg width="250" height="250" viewBox="0 0 250 250" fill="none" xmlns="http://www.w3.org/2000/svg">
<g clip-path="url(#clip0_2152_3932)">
<path d="M125.115 28H197.952C204.391 28 210.567 30.5579 215.12 35.1111C219.673 39.6643 222.231 45.8397 222.231 52.2789V125.115C222.231 150.872 211.999 175.574 193.787 193.787C175.574 211.999 150.872 222.231 125.115 222.231C99.3589 222.231 74.6572 211.999 56.4445 193.787C38.2318 175.574 28 150.872 28 125.115C28 99.3589 38.2318 74.6572 56.4445 56.4445C74.6572 38.2318 99.3589 28 125.115 28V28Z" fill="#EC4D89"/>
<path d="M161.534 140.001C156.188 140.047 150.874 139.173 145.824 137.42C144.795 136.874 143.61 136.696 142.466 136.916C141.323 137.136 140.288 137.74 139.535 138.628L130.306 147.829C118.496 141.434 108.793 131.75 102.375 119.952L112.042 110.724L112.262 110.477C112.863 109.637 113.271 108.674 113.456 107.658C113.641 106.642 113.599 105.597 113.333 104.599C111.567 99.4811 110.64 94.1112 110.587 88.6972C110.622 87.8907 110.489 87.0858 110.196 86.3336C109.903 85.5813 109.458 84.8981 108.887 84.3273C108.316 83.7566 107.633 83.3107 106.881 83.0181C106.128 82.7254 105.323 82.5924 104.517 82.6274H88.6973C87.8909 82.5924 87.086 82.7254 86.3337 83.0181C85.5814 83.3107 84.8982 83.7566 84.3275 84.3273C83.7567 84.8981 83.3108 85.5813 83.0182 86.3336C82.7256 87.0858 82.5925 87.8907 82.6276 88.6972C82.6494 109.618 90.9697 129.675 105.763 144.468C120.556 159.261 140.613 167.582 161.534 167.603C162.34 167.639 163.145 167.505 163.897 167.213C164.65 166.92 165.333 166.474 165.904 165.904C166.474 165.333 166.92 164.65 167.213 163.897C167.506 163.145 167.639 162.34 167.604 161.534V146.099C167.647 145.289 167.52 144.479 167.23 143.722C166.941 142.964 166.496 142.276 165.924 141.701C165.352 141.126 164.665 140.678 163.909 140.385C163.153 140.093 162.344 139.962 161.534 140.001Z" fill="white"/>
</g>
<defs>
<clipPath id="clip0_2152_3932">
<rect width="195" height="195" fill="white" transform="translate(28 28)"/>
</clipPath>
</defs>
</svg>
