<svg width="250" height="250" viewBox="0 0 250 250" fill="none" xmlns="http://www.w3.org/2000/svg">
<g clip-path="url(#clip0_1789_6866)">
<path d="M124.621 30C70.7134 30 27 73.5524 27 127.279C27 170.26 54.9713 206.723 93.7594 219.587C98.638 220.487 100.43 217.476 100.43 214.907C100.43 212.587 100.338 204.924 100.297 196.795C73.1381 202.68 67.4074 185.318 67.4074 185.318C62.9668 174.073 56.5684 171.084 56.5684 171.084C47.7117 165.046 57.2361 165.17 57.2361 165.17C67.0391 165.857 72.201 175.195 72.201 175.195C80.9077 190.067 95.038 185.767 100.609 183.282C101.485 176.994 104.015 172.703 106.806 170.274C85.124 167.814 62.3298 159.472 62.3298 122.198C62.3298 111.578 66.1433 102.9 72.3885 96.0873C71.3749 93.6368 68.0337 83.743 73.3341 70.3435C73.3341 70.3435 81.5316 67.7289 100.187 80.3151C107.973 78.159 116.325 77.0787 124.621 77.0421C132.917 77.0787 141.275 78.159 149.077 80.3151C167.71 67.7289 175.896 70.3435 175.896 70.3435C181.209 83.743 177.866 93.6368 176.853 96.0873C183.112 102.9 186.899 111.577 186.899 122.198C186.899 159.561 164.062 167.788 142.325 170.196C145.826 173.215 148.946 179.136 148.946 188.211C148.946 201.227 148.832 211.702 148.832 214.907C148.832 217.495 150.589 220.529 155.538 219.574C194.305 206.696 222.241 170.245 222.241 127.279C222.241 73.5524 178.534 30 124.621 30Z" fill="#161614"/>
<path d="M63.5619 168.576C63.3475 169.059 62.5834 169.204 61.889 168.873C61.1808 168.555 60.7827 167.896 61.0124 167.411C61.2229 166.913 61.987 166.774 62.6937 167.109C63.4034 167.425 63.8077 168.091 63.5619 168.576ZM68.3639 172.845C67.8984 173.275 66.9881 173.076 66.3702 172.396C65.7317 171.718 65.6122 170.811 66.0846 170.374C66.5647 169.944 67.4474 170.145 68.0875 170.824C68.726 171.51 68.8501 172.411 68.3631 172.846L68.3639 172.845ZM71.6584 178.308C71.0597 178.722 70.0812 178.334 69.4771 177.469C68.8792 176.604 68.8792 175.567 69.4901 175.151C70.0965 174.735 71.0597 175.109 71.6722 175.967C72.2693 176.847 72.2693 177.884 71.6576 178.309L71.6584 178.308ZM77.2291 184.635C76.6939 185.222 75.5546 185.065 74.7201 184.263C73.8672 183.478 73.6291 182.365 74.1658 181.777C74.7071 181.188 75.8532 181.353 76.6939 182.149C77.5414 182.932 77.8002 184.053 77.2298 184.635H77.2291ZM84.429 186.771C84.1939 187.532 83.096 187.879 81.9905 187.555C80.8864 187.222 80.1637 186.329 80.3865 185.56C80.6162 184.793 81.7187 184.432 82.8326 184.778C83.9351 185.11 84.6594 185.996 84.4297 186.771H84.429ZM92.6242 187.677C92.6518 188.479 91.7139 189.145 90.5532 189.159C89.3856 189.184 88.4416 188.535 88.4294 187.746C88.4294 186.936 89.3458 186.277 90.5126 186.258C91.6733 186.235 92.6242 186.879 92.6242 187.677ZM100.674 187.369C100.813 188.152 100.006 188.956 98.8541 189.17C97.721 189.376 96.6721 188.893 96.5273 188.117C96.3865 187.314 97.2088 186.511 98.3396 186.303C99.4941 186.103 100.527 186.573 100.674 187.369Z" fill="#161614"/>
</g>
<defs>
<clipPath id="clip0_1789_6866">
<rect width="196" height="190" fill="white" transform="translate(27 30)"/>
</clipPath>
</defs>
</svg>
