<svg width="250" height="250" viewBox="0 0 250 250" fill="none" xmlns="http://www.w3.org/2000/svg">
<g clip-path="url(#clip0_1789_6952)">
<path d="M125.062 220.035L163.334 102.723H86.7891L125.061 220.035H125.062Z" fill="#E24329"/>
<path d="M125.062 220.034L86.7887 102.722H33.1523L125.062 220.034Z" fill="#FC6D26"/>
<path d="M33.1508 102.722L21.5207 138.373C21.0036 139.958 21.0035 141.665 21.5205 143.25C22.0375 144.835 23.045 146.216 24.3986 147.196L125.06 220.035L33.15 102.723L33.1508 102.722Z" fill="#FCA326"/>
<path d="M33.1523 102.724H86.7887L63.7389 32.0672C62.5527 28.4314 57.3884 28.4323 56.203 32.0672L33.1523 102.724Z" fill="#E24329"/>
<path d="M125.061 220.034L163.333 102.722H216.971L125.061 220.034H125.061Z" fill="#FC6D26"/>
<path d="M216.97 102.722L228.6 138.373C229.117 139.958 229.117 141.665 228.6 143.25C228.082 144.835 227.075 146.216 225.721 147.196L125.061 220.035L216.97 102.723V102.722Z" fill="#FCA326"/>
<path d="M216.969 102.724H163.332L186.383 32.0672C187.569 28.4314 192.733 28.4323 193.919 32.0672L216.969 102.724Z" fill="#E24329"/>
</g>
<defs>
<clipPath id="clip0_1789_6952">
<rect width="208" height="191" fill="white" transform="translate(21 29)"/>
</clipPath>
</defs>
</svg>
