<svg width="250" height="250" viewBox="0 0 250 250" fill="none" xmlns="http://www.w3.org/2000/svg">
<path d="M163.287 50.6913V197.746C163.287 214.2 174.621 223.369 186.644 223.369C197.767 223.369 210.001 215.571 210.001 197.746V51.8053C210.001 36.7211 198.879 27.2963 186.644 27.2963C174.41 27.2963 163.287 37.6903 163.287 50.6913Z" fill="#F9AB00"/>
<path d="M102.111 125.333V197.746C102.111 214.2 113.445 223.369 125.468 223.369C136.591 223.369 148.825 215.571 148.825 197.746V126.447C148.825 111.362 137.703 101.938 125.468 101.938C113.234 101.938 102.111 112.332 102.111 125.333Z" fill="#E37400"/>
<path d="M64.2965 223.369C77.1962 223.369 87.6535 212.895 87.6535 199.974C87.6535 187.053 77.1962 176.579 64.2965 176.579C51.3968 176.579 40.9395 187.053 40.9395 199.974C40.9395 212.895 51.3968 223.369 64.2965 223.369Z" fill="#E37400"/>
</svg>
