<svg width="250" height="250" viewBox="0 0 250 250" fill="none" xmlns="http://www.w3.org/2000/svg">
<g clip-path="url(#clip0_1789_6983)">
<path d="M200.745 218.706C200.743 221.885 199.49 224.933 197.262 227.181C195.034 229.429 192.013 230.693 188.862 230.695H62.0719C58.9212 230.695 55.8992 229.434 53.6695 227.188C51.4399 224.942 50.1847 221.895 50.1797 218.716V31.4846C50.1784 29.9086 50.4852 28.3478 51.0824 26.8916C51.6796 25.4354 52.5555 24.1122 53.6601 22.9978C54.7646 21.8834 56.0761 20.9997 57.5195 20.3972C58.9629 19.7947 60.5099 19.4852 62.0719 19.4865H143.443L200.745 78.4453V218.706Z" fill="#23A566"/>
<path d="M149.748 76.9073L200.745 126.084V78.1013H155.571C153.599 78.1238 151.655 77.6302 149.928 76.6685L149.748 76.9073Z" fill="#1C8F5A"/>
<path d="M200.746 78.3497H155.449C152.298 78.3472 149.277 77.0833 147.05 74.8355C144.822 72.5878 143.569 69.54 143.566 66.3612V19.1616L200.746 78.3497Z" fill="#8ED1B1"/>
<path fill-rule="evenodd" clip-rule="evenodd" d="M164.491 191.758H86.1406V123.218H164.491V191.758ZM130.187 133.105V145.103H154.862V133.124L130.187 133.105ZM130.187 152.659V164.123H154.862V152.602L130.187 152.659ZM130.187 171.43V182.043H154.862V171.373L130.187 171.43ZM120.501 181.986V171.373H95.8362V181.986H120.501ZM120.501 163.998V152.602H95.8362V164.056L120.501 163.998ZM120.501 145.227V133.105H95.8362V145.103L120.501 145.227Z" fill="white"/>
</g>
<defs>
<clipPath id="clip0_1789_6983">
<rect width="151" height="212" fill="white" transform="translate(50 19)"/>
</clipPath>
</defs>
</svg>
