<svg width="250" height="250" viewBox="0 0 250 250" fill="none" xmlns="http://www.w3.org/2000/svg">
<path d="M178.194 90.7637V65.8668C181.484 64.329 184.269 61.8885 186.226 58.8292C188.183 55.7698 189.231 52.2176 189.248 48.5859V48.0147C189.248 37.4259 180.664 28.8421 170.076 28.8421H169.504C158.915 28.8421 150.332 37.4259 150.332 48.0147V48.5859C150.348 52.2176 151.396 55.7698 153.353 58.8292C155.31 61.8885 158.096 64.329 161.386 65.8668V90.7637C151.93 92.2118 143.025 96.1327 135.571 102.13L67.2899 48.9454C67.7768 47.1878 68.0308 45.3804 68.0595 43.5662C68.0678 39.2933 66.8087 35.1139 64.4415 31.5567C62.0742 27.9995 58.7052 25.2243 54.7605 23.5821C50.8158 21.9399 46.4726 21.5044 42.2804 22.3309C38.0882 23.1573 34.2353 25.2085 31.209 28.225C28.1827 31.2415 26.119 35.0878 25.279 39.2773C24.439 43.4668 24.8603 47.8113 26.4897 51.7613C28.1191 55.7113 30.8834 59.0894 34.4329 61.4681C37.9824 63.8469 42.1577 65.1195 46.4306 65.1251C50.1686 65.1074 53.8366 64.1095 57.0683 62.2309L124.306 114.552C111.944 133.226 112.275 157.563 125.139 175.895L104.688 196.351C103.035 195.823 101.313 195.542 99.5776 195.519C89.7837 195.527 81.8495 203.47 81.8521 213.264C81.8546 223.057 89.7938 230.995 99.5869 230.998C109.381 231 117.323 223.066 117.332 213.272C117.309 211.537 117.028 209.815 116.498 208.162L136.729 187.924C154.805 201.839 179.632 203.038 198.966 190.929C218.299 178.819 228.056 155.957 223.423 133.621C218.791 111.283 200.748 94.1869 178.194 90.7628V90.7637ZM169.808 172.648C166.07 172.748 162.351 172.099 158.868 170.738C155.386 169.377 152.211 167.333 149.532 164.725C146.853 162.117 144.724 158.998 143.27 155.554C141.816 152.109 141.067 148.408 141.067 144.669C141.067 140.93 141.816 137.229 143.27 133.785C144.724 130.34 146.853 127.222 149.532 124.614C152.211 122.006 155.386 119.961 158.868 118.6C162.351 117.24 166.07 116.59 169.808 116.691C184.87 117.218 196.809 129.577 196.818 144.649C196.824 159.719 184.897 172.091 169.836 172.633" fill="#FF7A59"/>
</svg>
