<svg width="250" height="250" viewBox="0 0 250 250" fill="none" xmlns="http://www.w3.org/2000/svg">
<g clip-path="url(#clip0_1789_6911)">
<path d="M78.4326 219.324C67.0738 218.808 60.9033 216.918 56.7992 215.317C51.361 213.199 47.4839 210.679 43.4024 206.603C39.321 202.527 36.7949 198.65 34.6889 193.212C33.0881 189.108 31.1978 182.938 30.6812 171.579C30.1135 159.3 30 155.616 30 124.509C30 93.4008 30.1249 89.7224 30.6755 77.4326C31.1921 66.0738 33.0937 59.9147 34.6832 55.7992C36.8005 50.361 39.3266 46.4839 43.3967 42.3967C47.4725 38.321 51.3496 35.7892 56.7935 33.6832C60.8976 32.0824 67.0681 30.1921 78.4269 29.6755C90.7111 29.1135 94.4008 29 125.497 29C156.605 29 160.283 29.1249 172.573 29.6755C183.932 30.1921 190.091 32.0937 194.207 33.6832C199.645 35.7892 203.522 38.321 207.603 42.3967C211.685 46.4725 214.199 50.3553 216.317 55.7935C217.918 59.8976 219.808 66.0681 220.324 77.4269C220.886 89.7167 221 93.3952 221 124.503C221 155.599 220.886 159.289 220.324 171.579C219.808 182.938 217.906 189.108 216.317 193.212C214.199 198.65 211.679 202.527 207.603 206.603C203.527 210.679 199.645 213.199 194.207 215.317C190.102 216.918 183.932 218.808 172.573 219.324C160.295 219.886 156.605 220 125.497 220C94.4008 220 90.7111 219.892 78.4326 219.324Z" fill="url(#paint0_radial_1789_6911)"/>
<path d="M78.4326 219.324C67.0738 218.808 60.9033 216.918 56.7992 215.317C51.361 213.199 47.4839 210.679 43.4024 206.603C39.321 202.527 36.7949 198.65 34.6889 193.212C33.0881 189.108 31.1978 182.938 30.6812 171.579C30.1135 159.3 30 155.616 30 124.509C30 93.4008 30.1249 89.7224 30.6755 77.4326C31.1921 66.0738 33.0937 59.9147 34.6832 55.7992C36.8005 50.361 39.3266 46.4839 43.3967 42.3967C47.4725 38.321 51.3496 35.7892 56.7935 33.6832C60.8976 32.0824 67.0681 30.1921 78.4269 29.6755C90.7111 29.1135 94.4008 29 125.497 29C156.605 29 160.283 29.1249 172.573 29.6755C183.932 30.1921 190.091 32.0937 194.207 33.6832C199.645 35.7892 203.522 38.321 207.603 42.3967C211.685 46.4725 214.199 50.3553 216.317 55.7935C217.918 59.8976 219.808 66.0681 220.324 77.4269C220.886 89.7167 221 93.3952 221 124.503C221 155.599 220.886 159.289 220.324 171.579C219.808 182.938 217.906 189.108 216.317 193.212C214.199 198.65 211.679 202.527 207.603 206.603C203.527 210.679 199.645 213.199 194.207 215.317C190.102 216.918 183.932 218.808 172.573 219.324C160.295 219.886 156.605 220 125.497 220C94.4008 220 90.7111 219.892 78.4326 219.324Z" fill="url(#paint1_radial_1789_6911)"/>
<path d="M102.051 124.907C102.051 111.845 112.637 101.253 125.699 101.253C138.762 101.253 149.354 111.845 149.354 124.907C149.354 137.97 138.762 148.561 125.699 148.561C112.637 148.561 102.051 137.97 102.051 124.907ZM89.2638 124.907C89.2638 145.031 105.576 161.343 125.699 161.343C145.823 161.343 162.135 145.031 162.135 124.907C162.135 104.784 145.823 88.4714 125.699 88.4714C105.576 88.4714 89.2643 104.783 89.2643 124.907H89.2638ZM155.063 87.0267C155.063 88.7108 155.561 90.3573 156.496 91.7579C157.431 93.1585 158.761 94.2504 160.317 94.8955C161.872 95.5406 163.584 95.7099 165.236 95.382C166.888 95.0542 168.405 94.2438 169.597 93.0535C170.788 91.8631 171.6 90.3462 171.929 88.6946C172.258 87.043 172.09 85.3309 171.446 83.7748C170.802 82.2186 169.711 80.8883 168.312 79.9522C166.912 79.016 165.266 78.5159 163.582 78.5152H163.578C161.321 78.5163 159.156 79.4133 157.56 81.0092C155.963 82.605 155.065 84.7693 155.063 87.0267ZM97.0327 182.665C90.1147 182.35 86.3545 181.198 83.8557 180.224C80.5428 178.935 78.1791 177.398 75.6939 174.917C73.2087 172.435 71.6703 170.073 70.3863 166.761C69.4122 164.263 68.2598 160.502 67.9453 153.584C67.6013 146.104 67.5327 143.857 67.5327 124.908C67.5327 105.959 67.607 103.719 67.9453 96.233C68.2604 89.3149 69.4213 85.561 70.3863 83.0559C71.676 79.7431 73.2121 77.3794 75.6939 74.8942C78.1757 72.4089 80.5371 70.8706 83.8557 69.5865C86.3534 68.6124 90.1147 67.4601 97.0327 67.1456C104.512 66.8016 106.759 66.7329 125.699 66.7329C144.64 66.7329 146.889 66.8062 154.375 67.1468C161.293 67.4618 165.047 68.6227 167.552 69.5877C170.865 70.8717 173.228 72.4135 175.714 74.8953C178.199 77.3771 179.731 79.7442 181.021 83.0571C181.995 85.5548 183.148 89.3161 183.462 96.2341C183.806 103.72 183.875 105.96 183.875 124.909C183.875 143.858 183.806 146.099 183.462 153.585C183.147 160.503 181.989 164.263 181.021 166.762C179.731 170.075 178.195 172.438 175.714 174.918C173.232 177.397 170.865 178.936 167.552 180.225C165.054 181.2 161.293 182.352 154.375 182.666C146.895 183.01 144.648 183.079 125.699 183.079C106.75 183.079 104.51 183.01 97.0327 182.666V182.665ZM96.4452 54.3795C88.8914 54.7235 83.7297 55.9213 79.2219 57.6754C74.5563 59.4868 70.6014 61.9169 66.6522 65.8599C62.703 69.8028 60.2791 73.7583 58.4677 78.4295C56.7137 82.9401 55.5159 88.099 55.1719 95.6529C54.8222 103.219 54.7422 105.637 54.7422 124.907C54.7422 144.177 54.8222 146.596 55.1719 154.161C55.5159 161.716 56.7137 166.874 58.4677 171.385C60.2791 176.05 62.7036 180.013 66.6522 183.954C70.6009 187.896 74.5506 190.322 79.2219 192.139C83.7382 193.893 88.8914 195.091 96.4452 195.435C104.015 195.779 106.43 195.864 125.699 195.864C144.969 195.864 147.388 195.784 154.954 195.435C162.508 195.091 167.666 193.893 172.177 192.139C176.843 190.322 180.797 187.897 184.747 183.954C188.696 180.011 191.115 176.05 192.931 171.385C194.685 166.874 195.889 161.715 196.227 154.161C196.571 146.59 196.651 144.177 196.651 124.907C196.651 105.637 196.571 103.219 196.227 95.6529C195.883 88.0985 194.685 82.9373 192.931 78.4295C191.115 73.7639 188.69 69.8091 184.747 65.8599C180.804 61.9107 176.843 59.4868 172.183 57.6754C167.666 55.9213 162.508 54.7179 154.959 54.3795C147.393 54.0338 144.975 53.9498 125.708 53.9498C106.441 53.9498 104.018 54.0299 96.448 54.3795" fill="white"/>
</g>
<defs>
<radialGradient id="paint0_radial_1789_6911" cx="0" cy="0" r="1" gradientUnits="userSpaceOnUse" gradientTransform="translate(42.3613 215.816) scale(242.499)">
<stop offset="0.09" stop-color="#FA8F21"/>
<stop offset="0.78" stop-color="#D82D7E"/>
</radialGradient>
<radialGradient id="paint1_radial_1789_6911" cx="0" cy="0" r="1" gradientUnits="userSpaceOnUse" gradientTransform="translate(162.299 209.683) scale(213.402)">
<stop offset="0.64" stop-color="#8C3AAA" stop-opacity="0"/>
<stop offset="1" stop-color="#8C3AAA"/>
</radialGradient>
<clipPath id="clip0_1789_6911">
<rect width="191" height="191" fill="white" transform="translate(30 29)"/>
</clipPath>
</defs>
</svg>
