<svg width="250" height="250" viewBox="0 0 250 250" fill="none" xmlns="http://www.w3.org/2000/svg">
<g clip-path="url(#clip0_1789_6881)">
<path d="M197.386 30H53.304C39.8683 30 29.1855 40.5654 29.1855 53.6464V196.146C29.1855 209.435 39.8683 220 53.304 220H197.386C210.613 220 221.295 209.435 221.295 196.354V53.8536C221.295 40.5654 210.613 30 197.386 30ZM150.855 64.8333C150.855 61.2523 153.638 58.5 157.259 58.5C160.88 58.5 163.662 61.2523 163.662 64.8333V149.475C163.662 153.056 160.88 155.808 157.259 155.808C153.638 155.808 150.855 153.056 150.855 149.475V64.8333ZM118.837 61.6667C118.837 58.0857 121.62 55.3333 125.24 55.3333C128.861 55.3333 131.644 58.0857 131.644 61.6667V153.5C131.644 157.081 128.861 159.833 125.24 159.833C121.62 159.833 118.837 157.081 118.837 153.5V61.6667ZM86.8185 64.8333C86.8185 61.2523 89.6014 58.5 93.2221 58.5C96.8429 58.5 99.6258 61.2523 99.6258 64.8333V149.475C99.6258 153.056 96.8429 155.808 93.2221 155.808C89.6014 155.808 86.8185 153.056 86.8185 149.475V64.8333ZM54.8002 77.5C54.8002 73.919 57.5831 71.1667 61.2038 71.1667C64.8246 71.1667 67.6075 73.919 67.6075 77.5V134.5C67.6075 138.081 64.8246 140.833 61.2038 140.833C57.5831 140.833 54.8002 138.081 54.8002 134.5V77.5ZM193.556 174.187C192.479 175.045 168.809 194.667 125.24 194.667C81.6716 194.667 58.002 175.045 56.9248 174.187C54.1419 171.879 53.9324 167.854 56.2964 165.308C58.6304 162.556 62.7 162.349 65.2735 164.687C65.6924 164.687 86.8185 182 125.24 182C164.081 182 184.998 164.687 184.998 164.48C187.781 162.171 191.821 162.586 193.975 165.101C196.519 167.854 196.1 171.879 193.556 174.187ZM195.681 134.5C195.681 138.081 192.898 140.833 189.277 140.833C185.656 140.833 182.873 138.081 182.873 134.5V77.5C182.873 73.919 185.656 71.1667 189.277 71.1667C192.898 71.1667 195.681 73.919 195.681 77.5V134.5Z" fill="#1F8DED"/>
</g>
<defs>
<clipPath id="clip0_1789_6881">
<rect width="193" height="190" fill="white" transform="translate(29 30)"/>
</clipPath>
</defs>
</svg>
