<svg width="250" height="250" viewBox="0 0 250 250" fill="none" xmlns="http://www.w3.org/2000/svg">
<g clip-path="url(#clip0_1789_6887)">
<path d="M218.678 119.462L133.283 34.3191L125.008 26.069L60.7249 90.1621L31.3296 119.462C29.8613 120.933 29.0371 122.924 29.0371 125C29.0371 127.076 29.8613 129.067 31.3296 130.538L90.0581 189.093L125.008 223.931L189.283 159.838L190.284 158.848L218.678 130.582C219.414 129.854 219.998 128.988 220.396 128.034C220.795 127.079 221 126.056 221 125.022C221 123.988 220.795 122.965 220.396 122.01C219.998 121.056 219.414 120.19 218.678 119.462ZM125.008 154.255L95.6661 125L125.008 95.7446L154.341 125L125.008 154.255Z" fill="#2684FF"/>
<path d="M125.008 95.7446C115.78 86.5459 110.578 74.08 110.538 61.0697C110.498 48.0595 115.624 35.5621 124.795 26.3075L60.5918 90.2945L95.533 125.132L125.008 95.7446Z" fill="url(#paint0_linear_1789_6887)"/>
<path d="M154.421 124.921L125.008 154.255C134.271 163.493 139.475 176.021 139.475 189.084C139.475 202.147 134.271 214.675 125.008 223.913L189.389 159.758L154.421 124.921Z" fill="url(#paint1_linear_1789_6887)"/>
</g>
<defs>
<linearGradient id="paint0_linear_1789_6887" x1="119.754" y1="66.1448" x2="78.9014" y2="107.11" gradientUnits="userSpaceOnUse">
<stop offset="0.18" stop-color="#0052CC"/>
<stop offset="1" stop-color="#2684FF"/>
</linearGradient>
<linearGradient id="paint1_linear_1789_6887" x1="7506.27" y1="8615.53" x2="11682.8" y2="11331.2" gradientUnits="userSpaceOnUse">
<stop offset="0.18" stop-color="#0052CC"/>
<stop offset="1" stop-color="#2684FF"/>
</linearGradient>
<clipPath id="clip0_1789_6887">
<rect width="192" height="198" fill="white" transform="translate(29 26)"/>
</clipPath>
</defs>
</svg>
