<svg width="250" height="250" viewBox="0 0 250 250" fill="none" xmlns="http://www.w3.org/2000/svg">
<g clip-path="url(#clip0_1789_6899)">
<path d="M125.017 8.00515C121.276 8.00676 117.605 9.01581 114.398 10.9244C111.19 12.8329 108.567 15.5691 106.808 18.8404C105.05 22.1117 104.222 25.795 104.414 29.4963C104.605 33.1976 105.809 36.7776 107.896 39.8536L116.712 31.1341C116.42 30.2642 116.273 29.3534 116.277 28.4369C116.277 26.7318 116.787 25.0651 117.743 23.6473C118.7 22.2296 120.059 21.1247 121.649 20.4721C123.24 19.8196 124.99 19.6489 126.678 19.9816C128.366 20.3142 129.917 21.1353 131.134 22.3409C132.351 23.5466 133.18 25.0827 133.516 26.755C133.852 28.4274 133.68 30.1607 133.021 31.736C132.362 33.3113 131.247 34.6577 129.815 35.605C128.384 36.5523 126.701 37.0579 124.98 37.0579C124.059 37.0599 123.144 36.9144 122.269 36.6269L113.467 45.3464C116.138 47.1412 119.198 48.2899 122.399 48.6999C125.601 49.11 128.855 48.7701 131.899 47.7075C134.944 46.6449 137.694 44.8893 139.929 42.5819C142.164 40.2745 143.821 37.4798 144.767 34.4225C145.712 31.3652 145.921 28.1308 145.374 24.9793C144.828 21.8279 143.543 18.8474 141.621 16.2777C139.7 13.708 137.197 11.6208 134.313 10.184C131.429 8.74718 128.245 8.00089 125.017 8.00515Z" fill="#34A853"/>
<path d="M116.809 67.5516C116.822 60.6497 114.566 53.9313 110.381 48.413L98.9418 59.7311C100.681 62.8825 101.317 66.5161 100.75 70.0636C100.183 73.6111 98.4456 76.8725 95.8086 79.3377L102.025 94.3875C106.558 91.4957 110.287 87.5239 112.87 82.8356C115.452 78.1474 116.807 72.8924 116.809 67.5516Z" fill="#FBBC04"/>
<path d="M84.845 83.7956H84.5466C81.9889 83.7958 79.4666 83.204 77.1809 82.0672C74.8952 80.9304 72.9093 79.2802 71.3817 77.2483C69.8542 75.2163 68.8272 72.8589 68.3827 70.364C67.9383 67.8691 68.0886 65.3059 68.8218 62.8787C69.5549 60.4516 70.8506 58.2278 72.6055 56.3848C74.3604 54.5418 76.5258 53.1305 78.929 52.2636C81.3323 51.3966 83.9068 51.0981 86.4472 51.3917C88.9876 51.6853 91.4236 52.563 93.5608 53.9546L104.888 42.735C100.879 39.5159 96.1489 37.2966 91.0947 36.2635C86.0406 35.2304 80.81 35.4137 75.8422 36.798C70.8745 38.1824 66.3146 40.7273 62.5456 44.219C58.7766 47.7108 55.9085 52.0474 54.1822 56.8647C52.4559 61.6819 51.9219 66.8392 52.6249 71.9033C53.3279 76.9674 55.2475 81.7904 58.2224 85.9674C61.1973 90.1443 65.1406 93.5532 69.7212 95.9076C74.3018 98.2621 79.386 99.4934 84.5466 99.4982C86.7343 99.4992 88.9168 99.2847 91.0617 98.8577L84.845 83.7956Z" fill="#EA4335"/>
<path d="M125.45 96.8135C118.291 96.8063 111.17 97.8395 104.313 99.8801L113.377 121.814C117.323 120.846 121.373 120.358 125.438 120.361C136.86 120.364 147.928 124.29 156.755 131.47C165.583 138.65 171.624 148.64 173.85 159.737C176.076 170.834 174.349 182.352 168.962 192.329C163.576 202.306 154.864 210.125 144.31 214.453C133.757 218.781 122.015 219.351 111.085 216.065C100.155 212.779 90.7135 205.841 84.3685 196.434C78.0236 187.026 75.168 175.73 76.2883 164.47C77.4085 153.211 82.4354 142.684 90.5123 134.684C93.9876 131.253 97.9552 128.348 102.287 126.063L93.3222 104.191C77.1811 112.021 64.5126 125.46 57.7309 141.947C50.9492 158.433 50.5285 176.815 56.5488 193.59C62.5692 210.364 74.6097 224.358 90.376 232.905C106.142 241.452 124.532 243.954 142.041 239.935C159.55 235.915 174.954 225.656 185.318 211.11C195.681 196.565 200.28 178.752 198.237 161.064C196.195 143.377 187.654 127.052 174.242 115.201C160.83 103.35 143.485 96.8003 125.512 96.8012L125.45 96.8135Z" fill="#4285F4"/>
</g>
<defs>
<clipPath id="clip0_1789_6899">
<rect width="147" height="234" fill="white" transform="translate(52 8)"/>
</clipPath>
</defs>
</svg>
