<svg width="250" height="250" viewBox="0 0 250 250" fill="none" xmlns="http://www.w3.org/2000/svg">
<path d="M219.228 174.636C219.228 174.247 219.228 173.858 219.228 173.469C219.228 173.08 219.228 173.08 219.228 172.691C219.228 172.302 218.842 171.913 218.842 171.135C218.457 170.356 218.071 169.189 217.3 168.411C216.528 167.633 215.757 167.244 214.985 166.466C214.214 166.076 213.442 165.687 212.671 165.687C212.285 165.687 212.285 165.687 211.9 165.687C212.671 161.796 211.514 158.684 210.742 157.127C211.9 155.96 212.671 155.182 213.442 154.404C213.828 153.626 214.214 152.847 214.6 152.069C214.985 151.291 214.985 150.902 214.985 150.124V149.735C214.985 149.346 214.985 149.346 214.985 148.956C214.985 147.789 214.6 146.233 213.828 144.287C213.442 143.509 212.671 142.342 212.285 141.564C211.514 140.786 210.742 140.007 209.585 139.229C209.585 139.229 209.585 139.229 209.2 139.229C206.885 136.116 204.571 133.393 202.257 131.447C201.1 130.28 199.942 129.502 199.171 128.724C198.4 127.946 197.628 127.556 196.857 127.167C195.7 126.389 195.314 126 194.928 125.611C194.157 125.222 193.385 124.833 193 124.444V124.055C193 124.055 193 124.055 193 123.666C193 123.276 193 122.887 193 122.498C193 121.72 193 120.553 193 118.607C193 115.884 193.385 112.382 193.771 107.324C193.771 105.767 193.771 104.211 193.771 102.655C193.771 100.32 193.385 98.3746 193 96.4292C193 96.0401 192.614 95.651 192.614 95.2619C192.614 94.8728 192.614 94.8728 192.228 94.4837C192.228 94.0946 192.228 94.0946 191.842 93.7055C191.842 93.7055 191.842 93.3164 191.457 93.3164C191.457 92.9273 191.071 92.5383 190.685 92.1492V91.7601C190.3 90.9819 189.914 90.2037 189.142 89.8146C188.757 88.6473 188.371 87.091 187.6 85.1455C186.828 83.5892 186.057 81.6437 184.9 79.6983C184.514 78.9201 184.128 78.531 183.357 77.7528C183.742 77.3637 189.528 71.1382 194.157 63.3564C202.642 48.1819 199.942 39.2328 196.085 34.1746C192.228 29.8946 187.214 27.5601 180.657 26.7819C167.542 25.2255 152.5 31.451 148.642 33.3964L141.7 25.6146C140.928 24.8364 140.542 24.4473 139.771 23.6692C139 23.2801 138.228 22.5019 137.457 22.1128C135.914 21.3346 133.985 20.9455 132.057 20.5564C128.2 20.1673 123.571 20.5564 118.942 21.7237C111.614 23.6692 103.514 27.171 95.0281 32.2292C86.5424 37.2873 77.671 43.9019 69.1853 52.0728C58.771 61.8001 49.8996 71.9164 43.7281 81.6437C40.6424 86.3128 37.9424 91.371 36.0138 95.651C34.0853 100.32 32.9281 104.211 32.5424 108.491C32.1567 111.215 32.1567 113.938 32.9281 116.662C33.3138 117.829 33.6996 118.607 34.0853 119.775C34.0853 120.164 34.8567 121.331 35.6281 122.498L43.7281 131.058C43.7281 131.058 43.7281 131.447 43.3424 131.447C43.3424 131.836 42.9567 131.836 42.9567 132.226C42.9567 132.226 42.9567 132.615 42.571 132.615C42.571 133.004 42.1853 133.004 42.1853 133.393C42.1853 133.393 42.1853 133.782 41.7996 133.782C41.7996 134.171 41.4138 134.171 41.4138 134.56C41.4138 134.56 41.4138 134.949 41.0281 134.949C41.0281 135.338 41.0281 135.338 40.6424 135.727V136.116C40.6424 136.506 40.6424 136.506 40.2567 136.895C40.2567 136.895 40.2567 136.895 40.2567 137.284C40.2567 137.284 40.2567 137.284 40.2567 137.673C40.2567 138.062 40.2567 138.062 39.871 138.451V138.84V139.229V139.618V140.007C39.871 140.396 39.871 140.786 39.871 141.175V141.564C39.871 141.953 39.871 141.953 39.871 142.342C39.871 142.731 39.871 143.12 39.871 143.509V143.898V144.287C39.871 144.676 39.871 144.676 39.871 145.066V145.455C39.871 145.455 39.871 145.455 39.871 145.844V146.233V146.622V147.011V147.4V147.789C39.871 148.178 39.871 148.178 39.871 148.567C39.871 148.567 39.871 148.567 39.871 148.956C39.871 149.346 39.871 149.346 39.871 149.735C39.871 149.735 39.871 150.124 39.871 150.513C39.871 150.513 39.871 150.513 39.871 150.902V151.291C39.871 151.291 39.871 151.68 39.871 152.069V152.458C39.871 152.458 39.871 152.458 39.871 152.847V153.236C39.871 153.236 39.871 153.626 40.2567 154.015C40.2567 154.404 40.2567 154.404 40.2567 154.404C40.2567 154.404 40.2567 154.793 40.6424 155.182V155.571C40.6424 155.571 40.6424 155.571 40.6424 155.96V156.349V156.738C40.6424 156.738 40.6424 156.738 40.6424 157.127C40.6424 157.127 40.6424 157.516 41.0281 157.516C41.0281 157.516 41.0281 157.516 41.0281 157.906V158.295C41.0281 158.295 41.0281 158.684 41.4138 158.684C41.4138 158.684 41.4138 158.684 41.4138 159.073C41.4138 159.073 41.4138 159.462 41.7996 159.462C41.7996 159.462 41.7996 159.851 42.1853 159.851C42.1853 159.851 42.1853 159.851 42.1853 160.24C42.1853 160.24 42.1853 160.629 42.571 160.629C42.571 160.629 42.571 161.018 42.9567 161.018C42.9567 161.018 42.9567 161.018 43.3424 161.407C43.3424 161.407 43.3424 161.796 43.7281 161.796C43.7281 161.796 43.7281 162.186 44.1138 162.186C44.1138 162.186 44.1138 162.575 44.4996 162.575L44.8853 162.964C44.8853 162.964 44.8853 162.964 45.271 163.353L45.6567 163.742C45.6567 163.742 45.6567 163.742 46.0424 164.131L46.4281 164.52C46.4281 164.52 46.4281 164.52 46.8138 164.909C46.8138 164.909 46.8138 164.909 47.1996 165.298C47.1996 165.298 47.5853 165.687 47.971 165.687C47.971 165.687 47.971 165.687 48.3567 166.076C48.7424 166.466 48.7424 166.466 49.1281 166.855C49.5138 166.855 49.5138 167.244 49.8996 167.244L50.2853 167.633L50.671 168.022H51.0567C51.4424 168.022 51.8281 168.411 51.8281 168.411C52.2139 168.411 52.5996 168.8 52.9853 168.8C52.9853 168.8 53.371 168.8 53.371 169.189C53.371 169.189 53.371 169.189 53.7567 169.189H54.1424C54.1424 169.189 54.5281 169.189 54.5281 169.578C54.5281 169.578 54.9138 169.578 54.9138 169.967C54.9138 169.967 54.9138 169.967 55.2996 169.967C55.6853 169.967 55.6853 169.967 56.071 170.356C56.4567 170.356 56.8424 170.746 57.2281 170.746C57.6138 170.746 57.9996 170.746 58.3853 171.135C58.771 171.135 59.1567 171.135 59.5424 171.524H59.9281C60.3138 171.524 60.3138 171.524 60.6996 171.524C60.6996 171.524 60.6996 171.524 60.6996 171.913C61.0853 173.469 61.8567 175.026 62.6281 176.582C72.6567 204.207 99.6567 225.607 130.9 229.498C162.142 233.389 195.314 212.378 208.814 184.364C209.585 183.196 209.971 182.029 210.357 181.251C211.514 179.695 212.671 178.527 213.442 176.971C218.842 178.138 219.228 176.193 219.228 174.636Z" fill="#59473C"/>
<path d="M192.612 36.8982C191.069 35.3418 189.526 33.7854 187.598 33.0072C187.212 33.0072 186.826 32.6182 186.441 32.6182L186.055 32.2291C184.512 31.4509 182.583 31.0618 180.655 31.0618C171.783 29.8945 161.369 33.3963 155.198 35.7309C154.812 35.7309 154.426 36.12 154.041 36.12C153.655 36.5091 152.883 36.5091 152.498 36.8982C151.726 37.2872 150.955 37.6763 149.798 38.0654H149.412L147.098 35.3418L146.712 34.1745L146.326 33.7854L140.541 26.7818L140.155 26.0036L138.998 25.2254L137.455 25.6145L135.526 26.0036C134.369 25.6145 133.212 25.2254 131.669 24.8363C128.583 24.4472 124.726 24.8363 120.483 26.0036C116.241 27.1709 111.226 29.1163 105.826 31.84C95.4121 36.8982 83.8406 45.0691 72.6549 55.1854C68.7978 58.6873 65.3263 62.5782 61.8549 66.08C58.7692 69.5818 55.6835 73.0836 52.9835 76.5854C47.5835 83.5891 43.3406 90.5927 40.6406 96.8182C38.7121 101.098 37.9406 104.6 37.5549 108.102C37.1692 110.436 37.1692 112.382 37.5549 114.327C37.5549 114.716 37.9406 115.495 37.9406 115.884C38.3263 117.051 38.7121 117.829 39.4835 118.607L46.4263 126L47.1978 126.778C47.5835 126.389 47.5835 126.389 47.9692 126C47.9692 126 47.9692 126 48.3549 125.611C48.7406 125.222 48.7406 125.222 49.1263 124.833L49.5121 124.444L49.8978 124.055L50.2835 123.665C50.6692 123.665 50.6692 123.276 51.0549 123.276L51.4406 122.887C51.8263 122.887 51.8263 122.498 52.2121 122.498L52.5978 122.109C52.9835 122.109 52.9835 121.72 53.3692 121.72C53.3692 121.72 53.7549 121.72 53.7549 121.331C54.1406 121.331 54.1406 120.942 54.5263 120.942C54.5263 120.942 54.9121 120.942 54.9121 120.553C55.2978 120.553 55.2978 120.164 55.6835 120.164C55.6835 120.164 56.0692 120.164 56.0692 119.775C56.4549 119.775 56.4549 119.385 56.8406 119.385H57.2263C57.2263 119.385 57.6121 119.385 57.6121 118.996C57.6121 118.996 57.9978 118.996 57.9978 118.607C58.3835 118.607 58.7692 118.218 59.1549 118.218H59.5406H59.9263C59.9263 118.218 59.9263 118.218 60.3121 118.218H60.6978C61.0835 118.218 61.0835 118.218 61.4692 118.218C61.8549 118.218 61.8549 118.218 62.2406 118.218C62.6263 118.218 62.6263 118.218 63.0121 118.218H63.3978H63.7835C64.1692 118.218 64.1692 118.218 64.5549 118.218C64.9406 118.218 64.9406 118.218 65.3263 118.218H65.7121C65.7121 118.218 65.7121 118.218 66.0978 118.218C66.0978 118.218 66.0978 118.218 66.4835 118.218C67.2549 118.218 68.4121 118.218 69.1835 118.218C70.3406 118.218 71.4978 118.607 72.6549 118.607C73.0406 118.607 73.0406 118.607 73.4263 118.607V118.218C74.1978 117.051 74.5835 115.884 75.3549 114.716C79.2121 108.491 83.0692 102.655 87.3121 97.9854C88.8549 96.4291 90.0121 94.8727 91.5549 93.3163C97.3406 87.0909 103.512 82.4218 108.912 78.5309C110.069 77.7527 111.226 76.9745 112.383 76.1963C113.926 75.0291 115.469 74.2509 117.012 73.4727C118.169 72.6945 119.326 72.3054 120.483 71.5273C122.412 70.7491 123.955 69.9709 125.112 69.1927C125.498 69.1927 125.883 68.8036 126.269 68.8036C127.041 68.4145 127.426 68.4145 127.812 68.0254C127.426 68.0254 127.041 68.0254 126.269 68.0254C125.883 68.0254 125.498 68.0254 125.112 68.0254H124.726C124.341 68.0254 123.955 68.0254 123.183 68.0254C122.412 68.0254 121.255 68.0254 120.483 68.4145C120.098 68.4145 119.712 68.4145 119.712 68.4145C122.026 67.2473 124.341 66.4691 126.269 65.6909C127.812 65.3018 128.969 64.9127 130.512 64.5236C132.441 64.1345 133.983 64.1345 135.526 63.7454C136.683 63.7454 137.455 63.7454 138.612 63.7454C139.383 63.7454 140.541 63.7454 141.312 63.7454C144.012 64.1345 145.555 64.5236 145.555 64.5236C145.169 64.1345 144.783 63.3563 144.012 62.9673C142.855 62.1891 142.083 61.8 140.926 61.4109C140.541 61.4109 140.155 61.0218 139.769 61.0218C139.383 61.0218 139.383 61.0218 138.998 60.6327C139.383 60.6327 139.769 60.6327 140.541 60.2436C140.926 60.2436 141.312 60.2436 142.083 60.2436C145.941 59.8545 149.412 60.2436 152.112 60.6327C155.198 61.0218 157.126 62.1891 157.126 62.1891C156.741 61.4109 155.969 60.6327 155.198 59.8545C154.812 59.4654 154.041 59.0763 153.655 58.6873C154.812 59.0763 155.583 59.0763 156.741 59.4654C159.055 60.2436 161.369 61.0218 162.912 61.8C163.298 62.1891 164.069 62.1891 164.455 62.5782C164.455 62.5782 164.841 62.5782 164.841 62.9673C166.383 63.7454 167.155 64.5236 167.155 64.5236C166.769 63.7454 166.383 62.5782 165.612 61.8L165.226 61.4109C165.226 61.4109 165.226 61.4109 165.612 61.4109H165.998C166.769 61.8 167.541 62.1891 168.698 62.5782C168.698 62.5782 169.083 62.5782 169.083 62.9673C169.469 63.3563 169.855 63.3563 170.241 63.7454C170.626 64.1345 171.012 64.1345 171.398 64.5236C171.783 64.5236 171.783 64.9127 172.169 64.9127C172.555 65.3018 172.941 65.6909 173.712 66.08C174.098 66.4691 174.483 66.8582 175.255 67.2473C175.255 67.2473 175.255 67.2473 175.641 67.6363C176.026 68.0254 176.412 68.4145 176.412 68.8036C176.798 69.5818 177.569 70.36 177.955 71.1382C178.341 71.9163 179.112 73.0836 179.498 74.2509C179.883 73.8618 180.269 73.4727 180.655 72.6945C186.826 66.4691 201.098 48.1818 192.612 36.8982Z" fill="#141B26"/>
<path d="M214.212 175.415C214.212 175.415 214.212 174.247 213.827 173.08C213.827 173.08 213.827 172.691 213.441 172.691C213.441 172.691 213.055 172.302 212.669 172.302C212.669 172.302 212.284 172.302 212.284 171.913C211.898 171.913 211.512 171.524 210.741 171.524C210.355 171.524 209.969 171.524 209.584 171.524C209.198 171.524 209.198 171.524 208.812 171.524V171.913C208.812 171.913 208.812 171.913 208.812 172.302C208.812 172.691 208.812 173.08 209.198 173.469C209.198 173.469 209.198 173.469 209.198 173.858C208.812 174.247 208.427 175.804 206.884 177.36C206.498 177.749 206.498 178.138 206.112 178.138C201.869 182.418 192.998 188.644 173.712 192.146C167.155 192.924 161.369 192.924 156.355 192.535C149.027 191.756 143.241 189.033 140.541 185.92C140.155 185.531 140.155 185.531 139.769 185.142C139.769 184.753 139.384 184.753 139.384 184.364C139.384 184.364 139.384 184.364 139.384 183.975C138.227 182.029 137.841 179.695 137.841 177.749C137.841 175.026 138.612 172.691 140.155 170.746C141.312 169.189 142.855 168.022 144.398 167.633C144.784 166.855 145.555 166.855 146.712 166.855C146.712 166.855 147.098 166.855 147.484 166.855C148.255 166.855 149.027 167.244 150.184 167.244H150.569C154.041 167.633 159.827 168.411 166.769 167.633C179.112 166.855 195.698 162.964 210.741 149.346C210.741 148.178 210.741 146.233 209.198 144.676C208.812 144.287 208.812 144.287 208.427 143.898C208.427 143.898 208.041 143.509 207.655 143.509C207.269 143.509 207.269 143.12 206.884 143.12C206.498 143.12 206.498 142.731 206.112 142.731L205.727 142.342C201.869 136.506 196.469 133.004 194.541 131.447C193.384 130.669 192.998 130.28 192.998 130.28C188.369 127.556 187.598 126.389 187.984 118.607C187.984 115.884 188.369 112.382 188.755 107.324C188.755 106.546 188.755 106.156 188.755 105.378V104.989C188.755 104.6 188.755 103.822 188.755 103.433C188.755 103.044 188.755 102.655 188.755 102.266V101.876C188.755 101.487 188.755 101.098 188.755 100.709C188.755 100.32 188.755 100.32 188.755 99.931C188.755 99.5419 188.755 99.5419 188.755 99.1528C188.755 98.7638 188.755 98.7638 188.755 98.3747C188.755 97.9856 188.755 97.9856 188.369 97.5965C188.369 97.5965 188.369 97.5965 188.369 97.2074C188.369 97.2074 188.369 97.2074 188.369 96.8183V96.4292C188.369 96.4292 188.369 96.0401 187.984 96.0401V95.651C187.984 95.2619 187.598 94.8728 187.598 94.8728V94.4838C187.598 94.0947 187.212 94.0947 187.212 93.7056L186.827 93.3165V92.9274C186.827 92.5383 186.441 92.5383 186.441 92.1492C186.441 91.7601 186.441 91.371 186.055 90.9819V90.5928V90.2038C186.055 89.8147 185.669 89.4256 185.669 89.0365V88.6474C185.669 88.2583 185.669 88.2583 185.284 87.8692V87.4801C185.284 87.091 184.898 87.091 184.898 86.7019C184.898 86.7019 184.898 86.3128 184.512 86.3128C184.512 85.9238 184.127 85.9238 184.127 85.5347C184.127 85.5347 184.127 85.1456 183.741 85.1456C183.741 84.7565 183.355 84.7565 183.355 84.3674C183.355 84.3674 183.355 83.9783 182.969 83.9783C182.969 83.5892 182.584 83.5892 182.584 83.2001C182.584 83.2001 182.584 82.811 182.198 82.811C182.198 82.811 182.198 82.4219 181.812 82.4219C181.427 82.0328 181.427 82.0328 181.041 81.6438C180.655 81.2547 180.269 80.8656 180.269 80.8656L179.884 80.4765L179.498 80.0874C179.498 80.0874 179.112 79.6983 178.727 79.6983H178.341C175.641 77.7528 174.869 77.3638 173.712 77.3638C173.712 77.3638 173.712 77.3638 173.327 77.3638C172.555 76.9747 171.398 76.9747 170.241 76.5856C169.855 76.5856 169.469 76.5856 169.084 76.5856H168.698C168.698 76.5856 168.698 76.5856 168.312 76.5856C167.541 76.5856 166.384 76.5856 165.612 76.5856C164.455 76.5856 163.298 76.5856 162.141 76.9747C162.527 76.5856 163.298 76.1965 163.684 75.8074C164.455 75.4183 165.612 75.0292 165.612 75.0292C165.227 75.0292 164.455 75.0292 164.069 75.4183H163.684H163.298C163.298 75.4183 163.298 75.4183 162.912 75.4183C160.212 75.8074 157.898 76.9747 156.355 77.3638C155.969 77.3638 155.969 77.3638 155.969 77.7528H155.584C156.741 75.8074 158.284 74.6401 159.441 74.251C159.827 74.251 159.827 74.251 159.827 73.8619H160.212C160.598 73.8619 160.598 73.8619 160.598 73.8619H160.212H159.827H159.441C159.441 73.8619 159.441 73.8619 159.055 73.8619C156.355 74.251 153.655 75.0292 151.341 76.1965C149.798 76.9747 148.641 78.1419 147.484 78.9201C147.098 78.9201 146.712 78.9201 146.712 79.3092C143.627 80.0874 140.155 80.8656 136.298 82.0328C134.755 82.4219 133.598 82.811 132.055 83.5892C130.898 83.9783 129.741 84.3674 128.584 84.7565C127.812 85.1456 127.041 85.5347 126.269 85.9238C120.484 88.6474 114.698 92.1492 110.069 96.8183L109.684 97.2074C109.298 97.5965 108.912 97.9856 108.527 98.3747L108.141 98.7638C107.755 99.1528 107.755 99.1528 107.369 99.5419C106.598 100.709 105.441 101.876 104.669 102.655C103.898 103.433 103.512 104.6 103.127 105.378C101.969 107.324 101.198 109.269 100.427 111.604C100.041 112.771 99.6551 113.938 99.2694 115.106C99.2694 115.495 99.2694 115.884 98.8837 115.884C98.498 117.051 98.498 118.607 98.1123 119.775C98.1123 120.164 98.1123 120.164 98.1123 120.553C98.1123 121.331 98.1123 122.109 97.7266 122.498C97.7266 123.276 97.7266 123.666 97.7266 124.444C97.7266 124.833 97.7266 125.222 97.7266 125.611C97.7266 126 97.7266 126.389 97.7266 126.778C97.7266 126.778 97.7266 126.778 97.7266 127.167C97.7266 127.946 97.7266 128.724 97.7266 129.502C97.7266 130.28 97.7266 131.058 97.7266 131.836C97.7266 132.226 97.7266 132.615 97.7266 133.004C97.7266 133.004 97.7266 133.004 97.7266 133.393V133.782C97.7266 134.56 98.1123 135.727 98.1123 136.506C98.1123 136.895 98.1123 136.895 98.1123 137.284C98.1123 138.062 98.498 138.84 98.498 139.618C98.498 139.618 98.498 138.451 98.498 136.895C98.498 136.506 98.498 136.116 98.498 135.727C98.498 134.949 98.8837 133.782 99.2694 133.004C99.2694 132.615 99.2694 132.615 99.6551 132.226V131.836C99.6551 131.447 100.041 131.058 100.427 130.669C100.427 131.058 100.427 131.447 100.427 131.447C100.427 131.836 100.427 131.836 100.427 132.226C100.427 132.615 100.427 133.393 100.427 133.782C100.427 134.56 100.427 134.949 100.427 135.727C100.427 138.451 100.812 141.953 101.198 145.066C101.198 145.066 101.198 139.618 102.355 139.229C102.355 139.229 103.898 148.956 105.441 152.847C105.441 153.236 105.827 153.626 105.827 154.015V152.847L105.441 147.4V147.011C106.598 149.346 107.755 151.68 109.298 154.015C109.684 154.793 110.069 155.182 110.455 155.96C107.755 158.295 105.441 161.796 103.512 165.687C103.127 166.466 103.127 166.855 102.741 167.633C102.741 168.022 102.355 168.411 102.355 168.8V169.189C102.355 169.578 102.355 169.578 101.969 169.967V170.356C101.969 170.746 101.969 170.746 101.584 171.135V171.524C101.584 171.913 101.584 172.302 101.198 172.691C101.198 173.08 101.198 173.469 100.812 173.858V174.247C100.812 174.636 100.812 175.026 100.812 175.026V175.415C100.812 175.804 100.812 176.193 100.812 176.193V176.582C100.812 176.971 100.812 177.36 100.812 178.138C100.812 178.527 100.812 178.916 100.812 179.306C100.812 179.695 100.812 180.084 100.812 180.473C100.812 180.862 100.812 181.251 100.812 181.64V182.029C100.812 182.418 100.812 182.807 100.812 182.807V183.196C100.812 183.586 100.812 183.586 100.812 183.975V184.364C100.812 184.753 100.812 184.753 101.198 185.142V185.531C101.198 185.92 101.198 185.92 101.584 186.309V186.698C101.584 187.087 101.584 187.087 101.969 187.476V187.866C101.969 188.255 102.355 188.644 102.355 188.644V189.033C102.741 189.811 103.127 190.978 103.512 191.756C103.512 191.756 103.512 192.146 103.898 192.146C103.898 192.535 104.284 192.924 104.284 192.924L104.669 193.313C104.669 193.702 105.055 194.091 105.055 194.091L105.441 194.48C105.441 194.869 105.827 194.869 105.827 195.258L106.212 195.647C106.598 196.036 106.598 196.036 106.984 196.426L107.369 196.815C107.755 197.204 107.755 197.204 108.141 197.593L108.527 197.982C108.912 198.371 108.912 198.76 109.298 198.76L109.684 199.149C110.069 199.538 110.455 199.927 110.841 200.316C110.841 200.316 110.455 199.927 110.069 199.149C110.069 199.149 110.069 198.76 109.684 198.76C109.684 198.76 109.684 198.371 109.298 198.371C109.298 198.371 109.298 197.982 108.912 197.982C108.141 196.426 107.755 194.091 107.755 191.756C108.141 192.146 108.141 192.535 108.527 192.924C108.912 193.702 109.298 194.091 109.684 195.258C109.684 195.647 110.069 195.647 110.069 196.036C110.841 197.204 111.612 198.371 112.384 199.927C113.541 201.484 114.312 203.04 115.469 204.596C115.469 204.596 114.312 201.873 113.927 200.316C113.927 199.927 113.927 199.538 113.927 199.149L114.312 199.538L114.698 199.927C115.084 200.316 115.084 200.706 115.469 201.095C115.469 201.095 115.855 201.484 115.855 201.873C115.855 202.262 116.241 202.262 116.241 202.651C118.169 204.986 120.484 208.098 122.027 209.655C122.412 210.044 123.184 210.433 123.569 210.822L121.255 206.542C126.655 211.211 149.798 217.047 172.169 210.433C174.869 209.655 177.569 208.487 180.269 207.32C181.812 206.542 183.355 205.764 184.898 204.986H185.284C186.441 204.207 187.598 203.818 188.755 203.04C189.527 202.651 190.298 201.873 191.069 201.484C192.227 200.706 193.769 199.538 194.927 198.371C194.927 198.371 194.927 198.371 195.312 197.982C196.469 196.815 197.627 195.647 198.784 194.48C200.327 192.924 201.484 191.367 202.641 189.811C203.027 189.422 203.412 189.033 203.412 188.644C203.412 188.644 203.412 188.255 203.798 188.255C204.184 187.866 204.569 187.087 204.955 186.698C204.955 186.698 204.955 186.309 205.341 186.309C205.341 185.92 205.727 185.531 205.727 185.531C205.727 185.142 206.112 185.142 206.112 184.753C206.112 184.364 206.498 184.364 206.498 183.975C206.884 183.586 206.884 183.196 207.269 182.807C207.269 182.807 207.269 182.418 207.655 182.418C207.655 182.029 208.041 181.64 208.041 181.251C208.041 181.251 208.041 180.862 208.427 180.862C208.812 180.473 208.812 180.084 209.198 179.695C209.969 178.916 210.355 178.527 211.127 177.749C211.127 177.749 211.127 177.749 211.512 177.36C213.827 177.749 214.212 176.582 214.212 175.415Z" fill="#856249"/>
<path d="M79.5981 158.684C79.2124 156.738 79.2124 155.571 78.8267 154.015V153.625C78.441 153.625 78.441 154.015 78.0552 154.404L77.6695 154.793C76.8981 156.349 76.1267 158.295 76.1267 158.295C76.1267 157.516 76.1267 157.127 76.5124 156.349C76.5124 156.349 76.5124 156.349 76.5124 155.96C76.5124 155.182 76.5124 154.404 76.8981 154.015C76.8981 154.015 76.8981 154.015 76.8981 153.625C76.8981 152.847 77.2838 152.069 77.2838 151.291V150.902C77.2838 150.902 77.2838 150.902 77.2838 150.513V150.124C77.2838 149.345 77.6695 148.956 77.6695 148.178C77.6695 147.789 78.0552 147.011 78.0552 146.622C78.0552 146.622 78.0552 146.622 78.0552 146.233C78.0552 146.233 78.0552 146.233 78.0552 145.844V145.455V145.065V144.676V144.287V143.898C78.0552 143.898 78.0552 143.898 78.0552 143.509V143.12L77.6695 143.509L77.2838 143.898C77.2838 144.287 76.8981 144.287 76.8981 144.676C76.8981 144.676 76.8981 145.065 76.5124 145.065C76.5124 145.455 76.1267 145.455 76.1267 145.844C75.741 146.622 75.741 147.011 75.3552 147.789C75.3552 148.178 75.3552 148.178 75.3552 148.178C75.3552 148.567 75.3552 148.956 74.9695 148.956C74.9695 148.567 74.9695 148.567 74.9695 148.178C74.9695 147.789 74.9695 147.4 74.9695 147.011C74.9695 146.622 74.9695 146.233 74.9695 145.844V145.455V145.065V144.676V144.287C74.9695 144.287 74.9695 144.287 74.9695 143.898C74.9695 143.898 74.9695 143.898 74.9695 143.509C74.9695 143.12 74.9695 143.12 75.3552 142.731C75.3552 142.342 75.3552 142.342 75.3552 141.953C75.3552 141.564 75.741 141.175 75.741 140.785V140.396C75.741 140.396 75.741 140.396 75.741 140.007C76.1267 139.229 76.1267 138.84 76.5124 138.062C76.5124 137.673 76.8981 136.895 77.2838 136.505C77.2838 136.116 77.2838 136.116 77.6695 135.727C77.6695 135.338 78.0552 134.949 78.0552 134.56C78.0552 134.56 78.0552 134.171 78.441 134.171V133.782C78.441 133.782 78.441 133.393 78.8267 133.393L81.141 131.836V131.447C81.141 131.058 81.5267 131.058 81.5267 130.669C81.9124 130.28 81.9124 129.891 82.2981 129.502C82.6838 128.724 83.0695 127.945 83.4552 127.556C83.4552 127.167 83.841 127.167 83.841 127.167C83.841 127.167 83.4552 126.778 82.6838 126.389C81.9124 126 80.7552 125.222 79.2124 124.444C78.8267 124.055 78.441 124.055 77.6695 123.665C76.8981 123.276 76.5124 123.276 75.741 122.887H75.3552C74.9695 122.887 74.1981 122.498 73.8124 122.498C73.4267 122.498 73.041 122.109 72.6552 122.109C72.2695 122.109 71.8838 122.109 71.4981 122.109H71.1124H70.7267C70.341 122.109 69.9552 122.109 69.5695 122.109C69.1838 122.109 69.1838 122.109 68.7981 122.109C67.641 122.109 66.8695 122.109 66.0981 122.498C64.5552 122.887 62.6267 123.276 61.0838 123.665C60.6981 124.055 59.9267 124.055 59.541 124.444C59.541 124.444 59.1552 124.444 59.1552 124.833C59.1552 124.833 58.7695 124.833 58.7695 125.222C57.2267 126 55.6838 127.167 54.5267 127.945C53.3695 128.724 52.2124 129.891 51.441 131.058C50.2838 130.669 50.2838 131.058 49.8981 131.447C49.5124 131.836 49.1267 132.225 49.1267 132.615C48.741 133.393 47.9695 134.171 47.5838 134.949C47.5838 135.338 47.1981 135.727 47.1981 135.727C46.4267 137.673 45.6552 140.007 45.2695 141.953C45.2695 142.342 45.2695 142.731 45.2695 143.12C45.2695 143.509 45.2695 143.898 45.2695 144.287C45.2695 144.676 45.2695 145.065 45.2695 145.455C45.2695 145.455 45.2695 145.455 45.2695 145.844C45.2695 146.233 45.2695 146.622 45.2695 147.011C45.2695 147.011 45.2695 147.011 45.2695 147.4C45.2695 147.789 45.2695 147.789 45.2695 148.178V148.567C45.2695 148.956 45.2695 148.956 45.2695 149.345V149.735C45.2695 150.124 45.2695 150.124 45.2695 150.513V150.902V151.291V151.68C45.2695 151.68 45.2695 152.069 45.6552 152.069V152.458C45.6552 152.458 45.6552 152.847 46.041 152.847C46.041 152.847 46.041 153.236 46.4267 153.236C46.4267 153.236 46.4267 153.236 46.4267 153.625C46.4267 153.625 46.4267 153.625 46.4267 154.015C46.4267 154.015 46.4267 154.404 46.8124 154.404L47.1981 154.793C47.1981 154.793 47.1981 155.182 47.5838 155.182L47.9695 155.571C47.9695 155.571 47.9695 155.96 48.3552 155.96C48.3552 156.349 48.741 156.349 48.741 156.349C48.741 156.349 48.741 156.738 49.1267 156.738C49.1267 157.127 49.5124 157.127 49.5124 157.127C49.5124 157.127 49.5124 157.516 49.8981 157.516C49.8981 157.905 50.2838 157.905 50.2838 157.905C50.2838 157.905 50.2838 158.295 50.6695 158.295C50.6695 158.684 51.0552 158.684 51.0552 158.684C51.0552 158.684 51.0552 158.684 51.441 159.073C51.441 159.462 51.8267 159.462 51.8267 159.462C51.8267 159.462 51.8267 159.462 52.2124 159.851C52.5981 159.851 52.5981 160.24 52.9838 160.24C52.9838 160.24 52.9838 160.24 53.3695 160.629C53.7552 160.629 53.7552 161.018 54.141 161.018C54.141 161.018 54.141 161.018 54.5267 161.018C54.9124 161.018 54.9124 161.407 55.2981 161.407C55.2981 161.407 55.2981 161.407 55.6838 161.407C56.0695 161.407 56.0695 161.796 56.4552 161.796C56.841 161.796 56.841 162.185 57.2267 162.185C57.6124 162.185 57.6124 162.575 57.9981 162.575C58.3838 162.575 58.7695 162.964 58.7695 162.964C59.1552 162.964 59.541 163.353 59.541 163.353C59.9267 163.353 60.3124 163.742 60.3124 163.742C60.6981 163.742 61.0838 164.131 61.4695 164.131H61.8552H62.241C62.6267 164.131 63.0124 164.131 63.3981 164.52C63.7838 164.52 64.1695 164.52 64.5552 164.909C65.7124 164.909 66.8695 165.298 68.0267 165.298C68.4124 165.298 68.4124 165.298 68.7981 165.298C69.1838 165.298 69.5695 165.298 69.9552 165.298C70.341 165.298 71.1124 165.298 71.4981 165.298C71.8838 165.298 72.6552 165.298 73.041 164.909C73.8124 164.909 74.5838 164.52 75.3552 164.52C77.6695 163.742 79.2124 162.964 80.3695 162.185C80.3695 162.185 79.5981 158.684 78.8267 155.571C79.5981 159.462 79.5981 159.073 79.5981 158.684Z" fill="#856249"/>
<path d="M133.215 33.3963L132.829 29.8945L134.372 26.0036H135.144C133.986 25.6145 132.829 25.2254 131.286 24.8363C128.201 24.4472 124.344 24.8363 120.101 26.0036C115.858 27.1709 110.844 29.1163 105.444 31.84C95.0292 36.8982 83.4578 45.0691 72.2721 55.1854C68.415 58.6873 64.9435 62.5782 61.4721 66.08C58.3864 69.5818 55.3007 73.0836 52.6007 76.5854C47.2007 83.5891 42.9578 90.5927 40.2578 96.8182C38.3292 101.098 37.5578 104.6 37.1721 108.102C36.7864 110.436 36.7864 112.382 37.1721 114.327C37.1721 114.716 37.5578 115.495 37.5578 115.884C37.9435 117.051 38.3292 117.829 39.1007 118.607L46.4292 126L47.2007 126.778C47.5864 126.389 47.5864 126.389 47.9721 126C47.9721 126 47.9721 126 48.3578 125.611C48.7435 125.222 48.7435 125.222 49.1292 124.833L49.515 124.444L49.9007 124.055L50.2864 123.665C50.6721 123.665 50.6721 123.276 51.0578 123.276L51.4435 122.887C51.8292 122.887 51.8292 122.498 52.215 122.498L52.6007 122.109C52.9864 122.109 52.9864 121.72 53.3721 121.72C53.3721 121.72 53.7578 121.72 53.7578 121.331C54.1435 121.331 54.1435 120.942 54.5292 120.942C54.5292 120.942 54.915 120.942 54.915 120.553C55.3007 120.553 55.3007 120.164 55.6864 120.164C55.6864 120.164 56.0721 120.164 56.0721 119.775C57.615 115.105 59.9292 110.436 63.4007 105.378C67.2578 99.1527 72.2721 92.5382 78.0578 85.9236C81.915 81.6436 85.7721 77.7527 90.015 73.8618C95.8007 68.8036 101.586 64.1345 106.986 60.2436C110.844 57.52 114.701 55.1854 118.172 52.8509C118.558 52.4618 118.944 52.4618 119.329 52.0727C120.486 51.6836 121.258 50.9054 122.415 50.5163C124.344 49.3491 126.658 48.5709 128.586 47.4036L127.044 46.2363V45.8472L118.944 35.7309V29.5054L123.572 28.7272L133.215 33.3963Z" fill="#3578AD"/>
<path d="M214.216 175.415C214.216 175.415 214.216 174.247 213.83 173.08C213.83 173.08 213.83 172.691 213.444 172.691C213.444 172.691 213.058 172.302 212.673 172.302C212.673 172.302 212.287 172.302 212.287 171.913C211.901 171.913 211.516 171.524 210.744 171.524C210.358 171.524 209.973 171.524 209.587 171.524C209.201 171.524 209.201 171.524 208.816 171.524V171.913C208.816 171.913 208.816 171.913 208.816 172.302C208.816 172.691 208.816 173.08 209.201 173.469C209.201 173.469 209.201 173.469 209.201 173.858C208.816 174.247 208.43 175.804 206.887 177.36C206.501 177.749 206.501 178.138 206.116 178.138C201.873 182.418 193.001 188.644 173.716 192.145C167.158 192.924 161.373 192.924 156.358 192.535C149.03 191.756 143.244 189.033 140.544 185.92C140.158 185.531 140.158 185.531 139.773 185.142C139.773 184.753 139.387 184.753 139.387 184.364C139.387 184.364 139.387 184.364 139.387 183.975C138.23 182.029 137.844 179.695 137.844 177.749C137.844 175.025 138.616 172.691 140.158 170.745C141.316 169.189 142.858 168.022 144.401 167.633C144.787 166.855 145.558 166.855 146.716 166.855C146.716 166.855 147.101 166.855 147.487 166.855C148.258 166.855 149.03 167.244 150.187 167.244H150.573C154.044 167.633 159.83 168.411 166.773 167.633C179.116 166.855 195.701 162.964 210.744 149.345C210.744 148.178 210.744 146.233 209.201 144.676C208.816 144.287 208.816 144.287 208.43 143.898C208.43 143.898 208.044 143.509 207.658 143.509C207.273 143.509 207.273 143.12 206.887 143.12C206.501 143.12 206.501 142.731 206.116 142.731L205.73 142.342C201.873 136.505 196.473 133.004 194.544 131.447C193.387 130.669 193.001 130.28 193.001 130.28C188.373 127.556 187.601 126.389 187.987 118.607C187.987 115.884 188.373 112.382 188.758 107.324C188.758 106.546 188.758 106.156 188.758 105.378V104.989C188.758 104.6 188.758 103.822 188.758 103.433C188.758 103.044 188.758 102.655 188.758 102.265V101.876C188.758 101.487 188.758 101.098 188.758 100.709C188.758 100.32 188.758 100.32 188.758 99.931C188.758 99.5419 188.758 99.5419 188.758 99.1528C188.758 98.7637 188.758 98.7637 188.758 98.3746C188.758 97.9855 188.758 97.9855 188.373 97.5964C188.373 97.5964 188.373 97.5964 188.373 97.2073C188.373 97.2073 188.373 97.2073 188.373 96.8182V96.4291C188.373 96.4291 188.373 96.04 187.987 96.04V95.651C187.987 95.2619 187.601 94.8728 187.601 94.8728V94.4837C187.601 94.0946 187.216 94.0946 187.216 93.7055L186.83 93.3164V92.9273C186.83 92.5382 186.444 92.5382 186.444 92.1491C186.058 91.76 186.058 91.76 185.673 91.371C185.287 91.371 185.287 90.9819 184.901 90.9819C184.901 90.9819 184.901 90.9819 184.516 90.9819C184.516 90.9819 184.13 90.9819 184.13 90.5928C184.13 90.5928 184.13 90.5928 183.744 90.5928H183.358H182.973H182.587H182.201H181.816H181.43H181.044C181.044 90.5928 181.044 90.5928 180.658 90.5928H180.273C180.273 90.5928 180.273 90.5928 179.887 90.5928C179.887 90.5928 179.887 90.5928 179.501 90.5928H179.116C178.73 90.5928 178.344 90.9819 177.573 90.9819C177.573 90.9819 177.187 90.9819 177.187 91.371H176.801C176.801 91.371 176.416 91.371 176.416 91.7601H176.03C176.03 91.7601 175.644 91.76 175.644 92.1491H175.258L174.873 92.5382C174.487 92.5382 174.487 92.9273 174.101 92.9273C173.716 92.9273 173.716 93.3164 173.33 93.3164C172.944 93.7055 172.558 93.7055 172.173 94.0946C171.787 94.4837 171.401 94.4837 171.016 94.8728C170.63 95.2619 170.244 95.2619 169.858 95.651C169.473 96.04 169.087 96.04 168.701 96.4291H168.316C167.93 96.8182 167.544 96.8182 167.158 97.2073C166.773 97.2073 166.387 97.5964 166.001 97.5964C165.616 97.5964 165.23 97.9855 164.844 97.9855C164.458 97.9855 164.073 98.3746 163.301 98.3746C162.53 98.3746 161.758 98.3746 160.987 98.3746C159.83 98.3746 158.287 98.3746 157.13 97.9855C156.744 97.9855 156.358 97.9855 155.973 97.5964H155.587C154.43 97.2073 153.273 97.2073 152.116 96.8182C151.73 96.8182 151.344 96.4291 150.573 96.4291C149.801 96.4291 149.03 96.04 148.258 96.04H147.873H147.487H147.101H146.716H146.33C145.944 96.04 145.558 96.04 145.173 96.04H144.787C144.401 96.04 144.401 96.04 144.016 96.04H143.63C143.244 96.04 143.244 96.04 142.858 96.04H142.473C142.473 96.04 142.473 96.04 142.087 96.04H141.701H141.316C140.93 96.04 140.93 96.04 140.544 96.04C140.544 96.04 140.544 96.04 140.158 96.04C140.158 96.04 140.158 96.04 139.773 96.04C139.387 96.04 139.001 96.04 139.001 96.04C139.001 96.04 139.001 96.04 138.616 96.04C138.23 96.04 137.844 96.04 137.458 96.04H137.073C136.687 96.04 136.687 96.04 136.301 96.04H135.916C135.53 96.04 135.53 96.04 135.144 96.04H134.758C134.373 96.04 134.373 96.04 133.987 96.4291H133.601C133.216 96.4291 133.216 96.4291 132.83 96.8182H132.444C132.058 96.8182 131.673 97.2073 131.287 97.2073C128.201 99.1528 125.501 101.487 123.187 104.6C122.416 105.767 121.644 106.545 121.258 107.713C120.487 108.88 120.101 110.047 119.716 111.215C119.716 111.604 119.33 111.993 119.33 112.382C118.944 113.16 118.944 113.549 118.944 114.327C118.944 114.327 118.944 114.327 118.944 114.716C118.944 115.495 118.558 116.273 118.558 116.662C118.558 117.44 118.173 118.218 118.173 118.996C118.173 119.385 118.173 119.775 118.173 120.164C118.173 121.331 118.173 122.498 118.173 123.276V123.665C118.173 124.055 118.173 124.055 118.173 124.444C118.173 125.222 118.173 126 118.558 126.778C118.558 127.167 118.558 127.167 118.944 127.556C118.944 127.945 118.944 127.945 118.944 128.335C119.33 130.28 120.101 131.836 121.258 133.782C124.73 139.618 130.516 143.509 134.373 145.455C135.916 146.233 137.458 146.622 139.387 147.4C139.387 147.4 139.387 147.4 139.001 147.4C138.616 147.4 138.23 147.4 137.844 147.789C137.073 147.789 136.687 148.178 135.916 148.567C135.144 148.956 133.987 149.345 133.216 149.735C130.516 150.902 127.43 152.458 124.73 154.793C124.344 155.182 123.958 155.182 123.573 155.571C123.187 155.96 122.416 156.738 122.03 157.127C122.03 157.127 122.03 157.127 121.644 157.516C121.644 157.905 121.258 157.905 121.258 158.295C121.258 158.295 121.258 158.295 120.873 158.684C120.487 159.073 120.487 159.462 120.101 159.851C119.716 160.24 119.716 160.629 119.33 161.018C117.787 163.742 117.016 167.244 117.016 171.135C117.016 171.135 117.016 171.135 117.016 170.745V170.356V169.967V169.578V169.189V168.8C117.016 168.8 117.016 168.411 117.401 168.411C117.401 168.022 117.401 168.022 117.787 167.633C117.787 167.244 118.173 166.855 118.173 166.855C118.173 166.855 118.173 166.465 118.558 166.465C118.558 166.076 118.944 166.076 118.944 165.687C118.944 165.298 119.33 165.298 119.33 164.909L119.716 164.52C119.716 164.52 120.101 164.131 120.487 164.131C120.487 164.131 117.016 172.302 118.558 178.916C118.558 178.916 118.558 178.916 118.558 178.527V178.138V177.749V177.36V176.971C118.558 176.971 118.558 176.582 118.558 176.193C118.558 175.804 118.558 175.804 118.558 175.415C118.558 175.025 118.558 175.025 118.944 174.636C118.944 174.636 118.944 174.636 118.944 174.247C118.944 174.247 118.944 173.858 119.33 173.858C119.33 173.469 119.716 173.469 119.716 173.08C119.716 173.08 119.716 173.08 119.716 172.691C119.716 172.302 120.101 172.302 120.101 171.913C120.101 171.913 119.716 173.858 120.101 176.193C120.101 176.582 120.101 176.971 120.101 177.36C120.101 177.749 120.101 177.749 120.101 178.138C120.101 175.415 120.873 173.08 121.258 170.745C120.487 173.08 120.101 175.415 120.101 178.138C120.101 179.695 120.101 181.64 120.101 183.196C120.487 186.309 121.258 189.422 122.416 192.535C122.416 192.535 121.258 188.644 122.801 184.753C122.801 185.142 123.187 185.531 123.187 185.92C123.187 187.087 123.573 188.644 123.958 190.589C124.344 193.702 125.501 202.262 131.673 208.487C131.673 208.487 129.358 205.375 129.744 201.873C130.13 202.262 130.13 202.651 130.516 203.04C131.673 204.985 133.601 208.487 135.916 211.211C135.916 211.211 133.987 207.709 134.373 206.931C134.373 206.931 140.158 214.324 142.087 215.102L139.773 211.211C148.258 217.436 159.83 219.771 174.101 215.491C176.416 214.713 179.116 213.935 181.816 212.767C183.358 211.989 184.901 211.211 186.444 210.433H186.83C187.987 209.655 189.144 209.265 190.301 208.487C191.073 208.098 191.844 207.32 192.616 206.931C193.773 206.153 195.316 204.985 196.473 203.818C196.473 203.818 196.473 203.818 196.858 203.429C198.016 202.262 199.173 201.095 200.33 199.927C201.873 198.371 203.03 196.815 204.187 195.258C204.573 194.869 204.958 194.48 204.958 194.091C204.958 194.091 204.958 193.702 205.344 193.702C205.73 193.313 206.116 192.535 206.501 192.145C206.501 192.145 206.501 191.756 206.887 191.756C206.887 191.367 207.273 190.978 207.273 190.978C207.273 190.589 207.658 190.589 207.658 190.2C207.658 189.811 208.044 189.811 208.044 189.422C208.43 189.033 208.43 188.644 208.816 188.255C208.816 188.255 208.816 187.865 209.201 187.865C209.201 187.476 209.587 187.087 209.587 186.698C209.587 186.698 209.587 186.309 209.973 186.309C210.358 185.92 210.358 185.531 210.744 185.142C211.516 184.364 211.901 183.975 212.673 183.196C212.673 183.196 212.673 183.196 213.058 182.807C213.83 177.749 214.216 176.582 214.216 175.415Z" fill="#FCE9C8"/>
<path d="M78.8278 153.626C78.4421 153.626 78.4421 154.015 78.0564 154.404L77.6706 154.793C76.8992 156.349 76.1278 158.295 76.1278 158.295C76.1278 157.517 76.1278 157.127 76.5135 156.349C76.5135 156.349 76.5135 156.349 76.5135 155.96C76.5135 155.182 76.5135 154.404 76.8992 154.015C76.8992 154.015 76.8992 154.015 76.8992 153.626C76.8992 152.847 77.2849 152.069 77.2849 151.291V150.902C77.2849 150.902 77.2849 150.902 77.2849 150.513V150.124C77.2849 149.346 77.6706 148.957 77.6706 148.178C77.6706 147.789 78.0564 147.011 78.0564 146.622C78.0564 146.622 78.0564 146.622 78.0564 146.233C78.0564 146.233 78.0564 146.233 78.0564 145.844V145.455V145.066V144.677V144.287V143.898C78.0564 143.898 78.0564 143.898 78.0564 143.509V143.12L77.6706 143.509L77.2849 143.898C77.2849 144.287 76.8992 144.287 76.8992 144.677C76.8992 144.677 76.8992 145.066 76.5135 145.066C76.5135 145.455 76.1278 145.455 76.1278 145.844C75.7421 146.622 75.7421 147.011 75.3564 147.789C75.3564 148.178 75.3564 148.178 75.3564 148.178C75.3564 148.567 75.3564 148.957 74.9706 148.957C74.9706 148.567 74.9706 148.567 74.9706 148.178C74.9706 147.789 74.9706 147.4 74.9706 147.011C74.9706 146.622 74.9706 146.233 74.9706 145.844V145.455V145.066V144.677V144.287C74.9706 144.287 74.9706 144.287 74.9706 143.898C74.9706 143.898 74.9706 143.898 74.9706 143.509C74.9706 143.12 74.9706 143.12 75.3564 142.731C75.3564 142.342 75.3564 142.342 75.3564 141.953C75.3564 141.564 75.7421 141.175 75.7421 140.786V140.397C75.7421 140.397 75.7421 140.397 75.7421 140.007C76.1278 139.229 76.1278 138.84 76.5135 138.062C76.5135 137.673 76.8992 136.895 77.2849 136.506C77.2849 136.117 77.2849 136.117 77.6706 135.727C77.6706 135.338 78.0564 134.949 78.0564 134.56C78.0564 134.56 78.0564 134.171 78.4421 134.171V133.782C78.4421 133.782 78.4421 133.393 78.8278 133.393H78.4421C77.6706 133.004 76.8992 132.615 76.1278 132.615C75.7421 132.615 74.9706 132.226 74.5849 132.226C74.1992 132.226 73.8135 132.226 73.4278 132.226C73.0421 132.226 73.0421 132.226 72.6564 132.226C72.2706 132.226 71.8849 132.226 71.4992 132.226H71.1135C70.7278 132.226 70.7278 132.226 70.3421 132.226C70.3421 132.226 70.3421 132.226 69.9564 132.226H69.5706C69.1849 132.226 69.1849 132.226 68.7992 132.615H68.4135C68.0278 132.615 67.6421 133.004 67.2564 133.004C67.2564 133.004 66.8706 133.004 66.8706 133.393C66.8706 133.393 66.4849 133.393 66.4849 133.782L66.0992 134.171L65.7135 134.56L65.3278 134.949C65.3278 134.949 64.9421 134.949 64.9421 135.338C64.5564 135.727 64.5564 135.727 64.1706 136.117L63.7849 136.506C63.3992 136.895 63.3992 136.895 63.0135 137.284L62.6278 137.673C62.6278 137.673 62.6278 137.673 62.2421 138.062C61.8564 138.84 61.4706 139.618 61.4706 140.397V140.786C61.4706 141.175 61.0849 141.564 61.0849 141.953V142.342C61.0849 142.731 60.6992 143.12 60.6992 143.509C60.6992 143.898 60.6992 143.898 60.6992 144.287V144.677V145.066V145.455C60.6992 145.844 60.6992 146.233 60.6992 146.622C60.6992 147.011 60.6992 147.4 60.6992 147.789V148.178C60.6992 148.957 61.0849 149.346 61.0849 150.124C61.0849 150.513 61.4706 150.902 61.4706 151.68C61.8564 152.458 62.2421 153.237 62.6278 154.015C63.7849 155.571 64.9421 156.738 66.4849 157.906C67.2564 158.295 68.4135 159.073 69.1849 159.462C69.9564 159.851 71.1135 160.24 72.2706 160.24C72.6564 160.24 72.6564 160.24 73.0421 160.24C73.4278 160.24 73.8135 160.24 74.1992 160.24C74.5849 160.24 74.9706 160.24 75.3564 160.24H75.7421C76.1278 160.24 76.5135 160.24 77.2849 159.851H77.6706C78.0564 159.851 78.8278 159.462 79.2135 159.073C79.2135 159.073 79.5992 159.073 79.5992 158.684C79.2135 157.127 79.2135 155.571 78.8278 153.626C78.8278 154.015 78.8278 153.626 78.8278 153.626Z" fill="#FCE9C8"/>
<path d="M208.814 171.913C208.814 171.524 208.814 171.524 208.814 171.913C208.814 171.524 208.814 171.524 208.814 171.524C208.428 170.357 208.042 169.189 207.271 168.411C206.499 167.633 206.114 166.855 206.114 166.855C206.114 166.466 206.114 166.077 206.499 165.687C206.499 165.298 206.499 164.909 206.885 164.52C207.271 161.407 206.499 159.073 205.728 157.906C205.728 157.517 205.342 157.517 205.342 157.517C204.956 157.906 204.571 158.295 203.799 158.684C194.928 164.909 184.514 168.8 173.714 170.357C165.999 171.524 158.285 171.524 149.799 170.746C149.799 170.746 144.785 171.524 143.628 176.193L143.242 179.306C143.242 183.586 145.556 186.309 147.485 187.866C149.799 188.644 152.499 189.422 155.971 189.811C161.371 190.589 167.542 190.2 174.099 189.422C182.585 188.255 194.542 183.586 203.414 177.749C205.342 176.582 207.271 175.026 208.814 173.469C209.199 172.302 209.199 171.913 208.814 171.913Z" fill="white"/>
<path d="M192.615 130.28C187.986 127.556 187.215 126.389 187.601 118.607C187.601 115.884 187.986 112.382 188.372 107.324C188.372 106.546 188.372 106.156 188.372 105.378V104.989C188.372 104.6 188.372 103.822 188.372 103.433C188.372 103.044 188.372 102.655 188.372 102.266V101.876C188.372 101.487 188.372 101.098 188.372 100.709C188.372 100.32 188.372 100.32 188.372 99.931C188.372 99.5419 188.372 99.5419 188.372 99.1528C188.372 98.7637 188.372 98.7637 188.372 98.3746C187.601 97.2074 186.829 96.4292 186.058 95.651L185.672 95.2619L185.286 94.8728C183.743 94.0946 182.586 93.3165 180.658 93.3165C179.886 93.3165 178.729 93.3165 177.958 93.3165C177.572 93.3165 177.186 93.3165 176.801 93.3165C175.643 93.3165 174.486 93.7056 173.329 94.0946C172.943 94.4837 172.558 94.4837 172.172 94.8728C171.786 95.2619 171.401 95.2619 171.015 95.651C170.629 96.0401 170.243 96.0401 169.858 96.4292C169.472 96.8183 169.086 96.8183 168.701 97.2074H168.315C167.929 97.5965 167.543 97.5965 167.158 97.9856C166.772 97.9856 166.386 98.3746 166.001 98.3746C165.615 98.3746 165.229 98.7637 164.843 98.7637C164.458 98.7637 164.072 99.1528 163.301 99.1528C162.529 99.1528 161.758 99.1528 160.986 99.1528C159.829 99.1528 158.286 99.1528 157.129 98.7637C156.743 98.7637 156.358 98.7637 155.972 98.3746H155.586C154.429 97.9856 153.272 97.9856 152.115 97.5965C151.729 97.5965 151.343 97.2074 150.572 97.2074C149.801 97.2074 149.029 96.8183 148.258 96.8183H147.872C147.101 96.8183 146.715 96.8183 145.943 96.8183C144.015 97.2074 142.086 97.5965 140.158 98.3746H139.772C139.386 98.3746 139.001 98.7637 139.001 98.7637C138.615 98.7637 138.229 99.1528 137.843 99.1528C135.143 100.32 132.443 101.876 130.129 104.211C128.972 104.989 128.201 106.156 127.429 106.935C126.272 108.491 124.729 110.047 123.958 111.604C123.958 111.604 123.958 111.604 123.958 111.993C123.572 112.771 122.801 113.549 122.415 114.716C122.415 115.106 122.029 115.495 122.029 115.495C121.643 116.662 121.258 117.44 120.872 118.607V118.996C120.872 119.386 120.486 120.164 120.486 120.553C120.486 120.942 120.101 121.72 120.101 122.109V122.498C120.101 122.887 120.101 123.276 120.101 123.276C120.101 124.444 119.715 125.611 119.715 126.778C119.715 127.167 119.715 127.556 119.715 127.556C120.101 129.502 120.872 131.058 122.029 133.004C125.501 138.84 131.286 142.731 135.143 144.676C136.686 145.455 138.229 145.844 140.158 146.622C140.543 146.622 140.543 146.233 140.929 146.233C140.929 146.233 140.929 146.233 141.315 146.233C141.701 146.233 141.701 145.844 142.086 145.844C142.086 145.844 142.086 145.844 142.472 145.844C142.858 145.844 142.858 145.455 143.243 145.455C143.243 145.455 143.243 145.455 143.629 145.455C144.015 145.455 144.015 145.066 144.401 145.066C144.401 145.066 144.401 145.066 144.786 145.066C145.172 145.066 145.172 144.676 145.558 144.676H145.943C146.329 144.676 146.329 144.287 146.715 144.287H147.101C147.486 144.287 147.486 143.898 147.872 143.898H148.258C148.643 143.898 149.029 143.509 149.029 143.509C149.029 143.509 149.415 143.509 149.415 143.12C149.801 143.12 150.186 142.731 150.186 142.731C150.186 142.731 150.572 142.731 150.572 142.342C150.958 142.342 151.343 141.953 151.343 141.953C151.343 141.953 151.729 141.953 151.729 141.564C152.115 141.564 152.501 141.175 152.501 141.175C152.501 141.175 152.886 141.175 152.886 140.786C153.272 140.786 153.658 140.396 153.658 140.396C154.043 140.396 154.043 140.396 154.429 140.007C154.815 140.007 155.201 139.618 155.201 139.618C155.586 139.618 155.586 139.618 155.972 139.229C156.358 139.229 156.743 138.84 156.743 138.84C157.129 138.84 157.129 138.84 157.515 138.451C157.901 138.451 157.901 138.062 158.286 138.062C158.672 138.062 158.672 138.062 159.058 137.673C159.443 137.673 159.443 137.673 159.829 137.284C160.215 137.284 160.601 137.284 160.601 136.895C160.986 136.895 160.986 136.895 161.372 136.506C161.758 136.506 162.143 136.116 162.529 136.116H162.915C164.458 132.615 168.315 124.055 175.258 123.276C176.029 123.276 176.801 123.276 177.186 123.276H177.572C177.572 122.887 177.572 122.109 177.572 121.72C177.186 117.829 178.343 115.106 180.272 114.716C181.429 114.716 182.586 116.273 182.586 117.051C182.972 118.218 183.358 119.775 183.358 121.331C183.358 122.887 183.358 124.055 182.972 125.222L183.358 125.611C184.901 127.556 185.286 130.28 185.286 132.226C186.058 132.226 186.443 132.226 187.215 132.226H187.601C187.601 132.226 187.601 132.226 187.986 132.226C188.758 132.226 189.529 132.226 190.301 132.226C192.229 132.226 194.158 131.836 196.086 131.836C193.386 130.28 192.615 130.28 192.615 130.28Z" fill="#EFCFA5"/>
<path d="M210.356 182.029C207.27 184.753 204.184 187.087 201.099 188.644C199.556 189.422 198.013 190.2 196.47 190.978C192.999 192.535 189.913 193.702 186.827 194.091C180.27 195.647 176.027 195.647 176.027 195.647C179.499 197.593 184.127 197.593 186.827 197.204C188.756 196.815 190.299 196.815 190.299 196.815C190.299 197.982 189.913 199.149 189.913 200.316C189.527 201.484 189.142 202.651 188.756 203.818C188.37 204.986 187.599 206.153 186.827 207.32C186.827 207.32 186.827 207.709 186.442 207.709H186.827C187.985 206.931 189.142 206.542 190.299 205.764C191.07 205.375 191.842 204.596 192.613 204.207C193.77 203.429 195.313 202.262 196.47 201.095C196.47 201.095 196.47 201.095 196.856 200.706C198.013 199.538 199.17 198.371 200.327 197.204C201.87 195.647 203.027 194.091 204.185 192.535C204.57 192.146 204.956 191.756 204.956 191.367C204.956 191.367 204.956 190.978 205.342 190.978C205.727 190.589 206.113 189.811 206.499 189.422C206.499 189.422 206.499 189.033 206.885 189.033C206.885 188.644 207.27 188.255 207.27 188.255C207.27 187.866 207.656 187.866 207.656 187.476C207.656 187.087 208.042 187.087 208.042 186.698C208.427 186.309 208.427 185.92 208.813 185.531C208.813 185.531 208.813 185.142 209.199 185.142C209.199 184.753 209.585 184.364 209.585 183.975C209.585 183.975 209.585 183.586 209.97 183.586C210.356 183.196 210.356 182.807 210.742 182.418C210.742 181.64 210.356 181.64 210.356 182.029Z" fill="#EFCFA5"/>
<path d="M133.986 148.178C133.215 148.567 132.057 148.956 131.286 149.345C128.586 150.513 125.5 152.069 122.8 154.404C122.415 154.793 122.029 154.793 121.643 155.182C121.257 155.571 120.486 156.349 120.1 156.738C120.1 156.738 120.1 156.738 119.715 157.127C119.715 157.516 119.329 157.516 119.329 157.905C119.329 157.905 119.329 157.905 118.943 158.295C118.557 158.684 118.557 159.073 118.172 159.462C117.786 159.851 117.786 160.24 117.4 160.629C115.857 163.353 115.086 166.855 115.086 170.745C115.086 170.745 115.086 170.745 115.086 170.356V169.967V169.578V169.189V168.8V168.411C115.086 168.411 115.086 168.022 115.472 168.022C115.472 167.633 115.472 167.633 115.857 167.244C115.857 166.855 116.243 166.465 116.243 166.465C116.243 166.465 116.243 166.076 116.629 166.076C116.629 165.687 117.015 165.687 117.015 165.298C117.015 164.909 117.4 164.909 117.4 164.52L117.786 164.131C117.786 164.131 118.172 163.742 118.557 163.742C118.557 163.742 115.086 171.913 116.629 178.527C116.629 178.527 116.629 178.527 116.629 178.138V177.749V177.36V176.971V176.582C116.629 176.582 116.629 176.193 116.629 175.804C116.629 175.415 116.629 175.415 116.629 175.025C116.629 174.636 116.629 174.636 117.015 174.247C117.015 174.247 117.015 174.247 117.015 173.858C117.015 173.858 117.015 173.469 117.4 173.469C117.4 173.08 117.786 173.08 117.786 172.691C117.786 172.691 117.786 172.691 117.786 172.302C117.786 171.913 118.172 171.913 118.172 171.524C118.172 171.524 117.786 173.469 118.172 175.804C118.172 176.193 118.172 176.582 118.172 176.971C118.172 177.36 118.172 177.36 118.172 177.749C118.172 175.025 118.943 172.691 119.329 170.356C119.329 169.578 119.715 169.189 120.1 168.411C120.1 168.411 120.1 168.411 120.1 168.022C120.486 167.633 120.486 166.855 120.872 166.465V166.076C121.257 165.687 121.257 164.909 121.643 164.52C121.643 164.52 121.643 164.52 121.643 164.131C122.029 162.964 122.8 162.185 123.572 161.018C123.572 161.018 123.572 161.018 123.572 160.629C123.957 160.24 123.957 159.851 124.343 159.462C124.343 159.462 124.343 159.462 124.343 159.073C124.343 159.073 124.343 159.073 124.343 158.684C124.729 158.295 125.115 157.905 125.115 157.516C125.5 157.127 125.886 156.738 126.272 156.349C126.657 155.96 127.043 155.571 127.429 154.793C127.815 154.404 128.2 154.015 128.2 154.015L128.586 153.625C129.357 152.847 130.129 152.458 130.514 151.68C132.443 150.124 133.986 148.956 134.372 148.567C133.986 148.567 133.6 148.567 133.214 148.956C135.529 147.4 134.757 147.789 133.986 148.178Z" fill="#EFCFA5"/>
<path d="M182.2 129.891V129.502C181.815 128.335 180.657 125.611 176.029 126C171.015 126.389 169.472 130.28 169.086 131.836C169.086 132.226 169.086 132.226 169.086 132.226C169.857 131.836 171.015 131.836 171.786 132.615C172.172 133.004 172.557 133.393 172.943 133.782C173.329 134.56 173.329 134.949 173.329 135.727C173.329 135.727 173.329 136.116 172.943 136.116C172.943 136.116 172.943 136.116 173.329 136.116C174.872 136.506 178.343 137.284 180.272 134.56L180.657 134.171C180.272 133.782 179.886 133.393 179.886 132.615C179.886 132.226 179.886 131.836 179.886 131.447C180.657 130.28 181.429 129.502 182.2 129.891Z" fill="#EFCFA5"/>
<path d="M157.901 165.687C154.815 166.465 152.115 166.855 149.801 167.244H150.186C153.658 167.633 159.444 168.411 166.386 167.633C178.729 166.855 195.315 162.964 210.358 149.346C210.358 148.178 210.358 146.233 208.815 144.676C208.429 144.287 208.429 144.287 208.044 143.898C207.658 143.509 207.272 143.509 206.887 143.12C206.501 143.12 206.501 142.731 206.115 142.731C205.344 143.898 204.187 145.455 203.029 146.622C202.644 147.011 202.258 147.4 201.872 147.789C197.629 151.68 192.229 154.793 186.829 157.127C176.801 161.407 166.001 164.131 157.901 165.687Z" fill="#EFCFA5"/>
<path d="M78.8288 143.898L78.4431 144.287L78.0574 144.677C78.0574 145.066 77.6717 145.066 77.6717 145.455C77.6717 145.455 77.6716 145.844 77.2859 145.844C77.2859 146.233 76.9002 146.233 76.9002 146.622C76.5145 147.4 76.5145 147.789 76.1288 148.567C76.1288 148.957 76.1288 148.957 76.1288 148.957C76.1288 149.346 76.1288 149.735 75.7431 149.735C75.7431 149.346 75.7431 149.346 75.7431 148.957C75.7431 148.567 75.7431 148.178 75.7431 147.789C75.7431 147.4 75.7431 147.011 75.7431 146.622V146.233V145.844V145.455V145.066C75.7431 145.066 75.7431 145.066 75.7431 144.677C75.7431 144.677 75.7431 144.677 75.7431 144.287C75.7431 143.898 75.7431 143.898 76.1288 143.509C76.1288 143.12 76.1288 143.12 76.1288 142.731C76.1288 142.342 76.5145 141.953 76.5145 141.564V141.175C76.5145 141.175 76.5145 141.175 76.5145 140.786C76.9002 140.007 76.9002 139.618 77.2859 138.84C77.2859 138.451 77.6716 137.673 78.0574 137.284C78.0574 136.895 78.0574 136.895 78.4431 136.506C78.4431 136.117 78.8288 135.727 78.8288 135.338C78.8288 135.338 78.8288 134.949 79.2145 134.949V134.56C79.2145 134.56 79.2145 134.171 79.6002 134.171H79.2145C78.4431 133.782 77.6716 133.393 76.9002 133.393C76.5145 133.393 75.7431 133.004 75.3574 133.004C74.9717 133.004 74.5859 133.004 74.2002 133.004C73.8145 133.004 73.8145 133.004 73.4288 133.004C73.0431 133.004 72.6574 133.004 72.2716 133.004H71.8859C71.5002 133.004 71.5002 133.004 71.1145 133.004C71.1145 133.004 71.1145 133.004 70.7288 133.004H70.3431C69.9574 133.004 69.9574 133.004 69.5717 133.393H69.1859C68.8002 133.393 68.4145 133.782 68.0288 133.782C68.0288 133.782 67.6431 133.782 67.6431 134.171C67.6431 134.171 67.2574 134.171 67.2574 134.56L66.8717 134.949L66.4859 135.338L66.1002 135.727C66.1002 135.727 65.7145 135.727 65.7145 136.117C65.3288 136.506 65.3288 136.506 64.9431 136.895L64.5574 137.284C64.1717 137.673 64.1717 137.673 63.7859 138.062L63.4002 138.451C63.4002 138.451 63.4002 138.451 63.0145 138.84C61.8574 138.84 61.4717 139.618 61.4717 140.397C61.4717 140.397 61.4717 140.397 61.4717 140.786C61.4717 141.175 61.0859 141.564 61.0859 141.953V142.342C61.0859 142.342 61.0859 142.342 61.0859 142.731C61.0859 143.12 61.0859 143.509 61.4717 143.509C61.4717 143.898 61.8574 143.898 61.8574 144.287C62.2431 145.066 62.6288 145.844 63.0145 146.622V147.011C63.4002 147.4 63.4002 147.789 63.7859 148.178C64.1717 148.957 64.5574 149.346 64.5574 149.346V148.957C64.1717 147.789 64.1717 147.011 64.1717 145.844C64.1717 145.066 64.1717 144.677 64.1717 143.898C64.1717 144.287 64.1717 144.287 64.5574 144.677C64.5574 145.066 64.9431 145.455 64.9431 145.844C65.7145 147.4 66.1002 148.567 66.8717 149.735C67.6431 150.902 68.0288 151.68 68.4145 152.069C68.4145 152.069 68.4145 152.069 68.4145 152.458C68.0288 151.291 68.0288 150.124 68.0288 148.957C68.0288 148.567 68.0288 148.178 68.0288 147.789C68.0288 147.4 68.0288 147.011 68.0288 146.233C68.4145 147.011 68.4145 147.789 68.8002 148.567C69.5717 150.902 70.7288 152.847 71.5002 154.015L71.8859 154.404C71.8859 154.404 71.8859 154.404 72.2716 154.793C72.2716 154.793 72.2716 154.793 72.2716 155.182V154.793C72.2716 154.404 72.2717 153.626 71.8859 153.237C71.8859 152.847 71.8859 152.458 71.8859 152.069C71.8859 151.68 71.8859 151.291 71.8859 150.902V150.513C71.8859 150.124 71.8859 149.735 71.8859 149.346C71.8859 149.735 71.8859 149.735 72.2716 150.124C72.2716 150.513 72.2717 150.513 72.6574 150.902C72.6574 151.291 72.6574 151.291 73.0431 151.68C73.0431 152.069 73.4288 152.458 73.4288 152.847C73.8145 153.237 73.8145 153.626 74.2002 154.015C74.2002 154.404 74.5859 154.404 74.5859 154.793C74.5859 155.182 74.9716 155.182 74.9716 155.571C74.9716 155.96 75.3574 155.96 75.3574 155.96L75.7431 156.349C75.7431 156.349 75.7431 156.349 75.7431 156.738L76.1288 157.127C76.1288 157.127 76.1288 157.127 76.1288 156.738C76.1288 155.96 76.1288 155.182 76.5145 154.793C76.5145 154.793 76.5145 154.793 76.5145 154.404C76.5145 153.626 76.9002 152.847 76.9002 152.069V151.68C76.9002 151.68 76.9002 151.68 76.9002 151.291V150.902C76.9002 150.124 77.2859 149.735 77.2859 148.957C77.2859 148.567 77.6717 147.789 77.6717 147.4C77.6717 147.4 77.6717 147.4 77.6717 147.011C77.6717 147.011 77.6717 147.011 77.6717 146.622V146.233V145.844V145.455V145.066V144.677C77.6717 144.677 77.6717 144.677 77.6717 144.287C78.8288 144.287 78.8288 144.287 78.8288 143.898Z" fill="#EFCFA5"/>
<path d="M179.887 179.305C181.044 178.916 182.201 178.527 182.972 178.138C184.515 177.36 185.287 176.971 185.287 176.971C185.287 176.971 184.13 176.971 182.587 177.36C181.815 177.749 180.658 177.749 179.501 178.138C178.73 178.138 178.344 178.527 177.572 178.527C176.801 178.527 176.03 178.916 175.258 178.916C173.715 179.305 172.172 179.305 170.244 179.695C169.472 179.695 168.315 179.695 167.544 180.084C166.772 180.084 165.615 180.084 164.458 180.084C160.601 180.084 155.972 180.084 151.344 179.305C149.03 178.916 145.944 177.749 143.63 176.582C144.787 171.913 149.801 171.135 149.801 171.135C149.801 171.135 149.801 171.135 149.415 171.135C148.644 171.135 147.872 171.135 147.487 170.745C147.101 170.745 146.715 170.745 146.33 170.745C145.944 170.745 145.944 170.745 145.558 170.745C142.472 170.356 140.93 173.08 140.544 174.247C140.544 174.247 140.544 174.636 140.158 174.636C139.772 175.804 139.387 176.971 139.387 178.138C139.387 180.473 139.772 182.807 141.701 185.142C142.858 186.698 144.787 187.865 147.487 188.644C145.172 187.087 143.244 184.364 143.244 180.084C145.944 181.251 148.644 182.029 150.958 182.418C155.587 183.196 160.215 183.585 164.458 183.196C165.615 183.196 166.387 183.196 167.544 182.807C168.701 182.807 169.472 182.418 170.244 182.418C172.172 182.029 173.715 181.64 175.258 181.64C176.03 181.64 176.801 181.251 177.572 181.251C178.73 179.305 179.501 179.305 179.887 179.305Z" fill="#EFCFA5"/>
<path d="M176.027 122.887C178.342 122.887 180.27 123.665 181.427 124.833C181.813 123.665 181.813 122.498 181.813 120.942C181.813 119.385 181.427 117.829 181.042 116.662C181.042 115.884 179.884 114.327 178.727 114.327C177.184 114.327 176.027 117.44 176.027 121.331C176.027 121.72 176.027 122.109 176.027 122.887Z" fill="#59473C"/>
<path d="M180.27 132.226C180.27 133.004 180.655 133.393 181.041 133.782C181.812 134.171 182.198 133.393 182.584 132.226C182.584 132.226 182.584 132.226 182.584 131.836C182.969 130.669 182.584 129.891 182.198 129.502C181.427 129.113 181.041 129.891 180.655 131.058C180.27 131.447 180.27 131.836 180.27 132.226Z" fill="#59473C"/>
<path d="M169.085 134.171C169.47 134.56 169.856 134.949 170.242 135.338C171.399 136.116 172.556 136.116 172.942 135.338C172.942 135.338 172.942 135.338 173.327 134.949C173.713 134.56 173.327 133.782 172.942 133.004C172.556 132.615 172.17 132.225 171.785 131.836C170.627 131.058 169.47 131.058 169.085 131.447C169.085 131.447 169.085 131.447 168.699 131.836C168.313 133.004 168.699 133.393 169.085 134.171Z" fill="#59473C"/>
<path d="M209.201 173.08C207.658 174.636 205.729 176.193 203.801 177.36C195.315 183.196 183.358 187.865 174.487 189.033C167.929 190.2 161.758 190.2 156.358 189.422C153.272 189.033 150.572 188.254 147.872 187.476C145.172 186.309 143.244 185.142 142.087 183.974C140.544 182.029 139.772 179.305 139.772 176.971C139.772 175.804 140.158 174.636 140.544 173.469C140.544 173.469 140.544 173.08 140.929 173.08C141.315 171.913 143.244 169.578 146.329 169.578C146.329 169.578 146.715 169.578 147.101 169.578C147.487 169.578 147.872 169.578 148.258 169.578C148.644 169.578 149.415 169.578 150.187 169.967C150.187 169.967 150.187 169.967 150.572 169.967C158.672 171.134 166.772 170.745 174.487 169.578C185.287 168.022 195.701 164.131 204.572 157.905C204.958 157.516 205.344 157.127 206.115 156.738L211.129 149.345C196.087 162.964 179.887 166.854 167.158 167.633C160.215 168.022 154.429 167.633 150.958 167.244H150.572C149.415 167.244 148.644 166.854 147.872 166.854C147.487 166.854 147.487 166.854 147.101 166.854C146.329 166.854 145.172 166.854 144.401 167.244C142.858 167.633 141.315 168.8 140.158 170.356C139.001 172.302 137.844 174.636 137.844 177.36C137.844 179.305 138.229 181.64 139.387 183.585C139.387 183.585 139.387 183.585 139.387 183.974C139.387 184.364 139.772 184.364 139.772 184.753C140.158 185.142 140.158 185.142 140.544 185.531C143.244 188.644 148.644 191.367 156.358 192.145C161.372 192.924 167.544 192.924 173.715 191.756C192.615 188.254 201.872 182.029 206.115 177.749C206.501 177.36 206.887 176.971 206.887 176.971C208.044 175.025 208.815 173.858 209.201 173.08C209.201 173.08 209.201 172.691 209.201 173.08Z" fill="#59473C"/>
<path d="M148.643 106.546C147.872 106.157 147.486 106.157 146.715 105.767C146.329 105.767 145.943 105.767 145.557 105.378H145.172C142.857 104.989 140.929 105.378 140.929 105.378C140.543 105.378 140.157 105.767 139.772 105.767C136.686 106.546 134.757 108.102 133.215 110.047C132.057 111.604 131.286 113.16 130.9 114.717V115.106C130.9 115.495 130.515 115.884 130.515 116.273C130.129 117.44 130.129 118.997 130.129 119.775C130.129 120.942 130.129 122.109 130.129 122.109C130.515 120.942 131.286 119.775 131.672 118.997C133.215 116.662 134.757 114.717 136.3 112.771C139.386 109.658 142.472 108.102 144.786 107.324C146.715 106.546 148.643 106.546 148.643 106.546Z" fill="#E1B27E"/>
<path d="M184.512 101.877C184.126 101.487 183.741 101.098 183.355 100.709C182.198 99.9311 180.655 99.542 178.341 99.9311C178.341 99.9311 175.641 100.709 174.098 102.266C174.098 102.266 178.726 100.32 183.355 103.822C183.741 104.211 184.126 104.6 184.512 104.989C184.898 105.378 185.283 105.767 185.669 106.546C186.441 106.157 186.055 104.211 184.512 101.877C184.898 102.266 184.898 102.266 184.512 101.877Z" fill="#E1B27E"/>
<path d="M149.03 135.727C150.958 135.338 152.501 134.56 154.816 134.171C155.201 132.615 155.201 130.669 154.816 128.335C154.43 123.276 152.116 119.775 149.801 119.775C147.487 120.164 146.33 124.444 147.101 129.113C147.487 131.836 148.258 134.171 149.03 135.727Z" fill="#59473C"/>
<path d="M139.001 25.2257L134.373 26.393L135.53 34.5639L123.573 28.7275L118.559 30.2839L133.216 47.0148C133.987 46.2366 134.759 46.2366 135.144 45.8475L135.53 45.4584C136.301 45.0693 136.687 44.6803 137.459 44.2912L131.287 37.2875L141.316 42.3457C141.701 42.3457 142.087 41.9566 142.087 41.9566L141.316 34.953L145.944 40.4003C146.33 40.0112 146.716 40.0112 147.101 40.0112C147.101 40.0112 147.101 40.0112 147.487 40.0112C147.487 40.0112 147.873 40.0112 147.873 39.6221C148.259 39.233 149.03 39.233 149.416 38.8439L139.001 25.2257Z" fill="#FACE55"/>
<path d="M134.755 26.3928H135.527C134.37 26.0037 133.213 25.6146 131.67 25.2255C128.584 24.8364 124.727 25.2255 120.484 26.3928C116.241 27.56 111.227 29.5055 105.827 32.2291C95.4126 37.2873 83.8412 45.4582 72.6555 55.5746C68.7983 59.0764 65.3269 62.9673 61.8555 66.4691L75.3555 83.2001C78.8269 79.3091 83.0698 75.0291 87.3126 71.1382C93.0983 65.691 98.8841 61.0219 104.67 57.131C110.455 53.2401 115.855 49.7382 121.255 47.0146L118.941 36.5091V30.2837L123.57 28.7273L133.213 33.7855L132.827 30.2837L134.755 26.3928Z" fill="#4D94C3"/>
<path d="M134.758 26.3927L133.215 30.2836L133.601 33.7854L135.529 34.5636L134.758 26.3927Z" fill="#141B26"/>
<path d="M131.285 37.2874L141.314 42.3455L137.457 44.6801L131.285 37.2874Z" fill="#141B26"/>
<path d="M141.312 34.1746L142.084 41.1782L145.555 39.2327L141.312 34.1746Z" fill="#141B26"/>
<path d="M179.114 31.84C179.885 31.84 180.271 31.84 181.043 31.84C182.585 31.84 184.128 32.2291 185.671 32.6182C185.671 32.6182 185.671 32.6182 186.057 32.6182L185.671 32.2291C184.128 31.4509 182.2 31.0618 180.271 31.0618C171.4 29.8945 160.985 33.3964 154.814 35.7309C154.428 35.7309 154.043 36.12 153.657 36.12C153.271 36.5091 152.5 36.5091 152.114 36.8982C151.343 37.2873 150.571 37.6764 149.414 38.0654H149.028C148.643 38.4545 147.871 38.4545 147.485 38.8436C147.485 38.8436 147.1 38.8436 147.1 39.2327C147.1 39.2327 147.1 39.2327 146.714 39.2327C146.328 39.2327 145.943 39.6218 145.557 39.6218C145.557 39.6218 145.557 39.6218 145.171 39.6218C145.171 39.6218 145.171 39.6218 144.785 39.6218C144.014 40.0109 143.628 40.4 142.857 40.4C142.471 40.7891 142.085 40.7891 141.7 41.1782C141.314 41.1782 140.928 41.5673 140.928 41.5673C139.771 41.9564 139 42.7345 137.843 43.1236H137.457C137.457 43.1236 137.457 43.1236 137.071 43.1236C137.071 43.1236 137.071 43.1236 136.685 43.1236C135.914 43.5127 135.528 43.9018 134.757 44.2909L134.371 44.68C134.757 46.2364 133.985 46.2364 133.6 46.6254C132.443 47.4036 130.9 48.1818 129.743 48.96C127.428 50.9054 125.5 52.0727 123.571 53.6291C123.185 54.0182 123.185 54.0182 122.8 54.4073C117.4 58.2982 112.385 62.5782 107.757 67.2473C102.743 71.9164 97.7282 76.9745 93.0997 81.6436C90.7854 83.9782 88.4711 86.3127 86.5425 88.2582C83.0711 92.1491 81.1425 94.4836 81.1425 94.4836C81.1425 94.4836 81.5282 94.0945 81.9139 93.7054C81.5282 94.0945 81.1425 94.8727 80.3711 95.2618C88.0854 87.0909 96.5711 78.5309 105.443 70.7491C110.843 66.08 116.628 61.4109 122.8 57.1309C125.5 55.1854 128.2 53.24 130.9 51.6836C131.671 51.2945 132.443 50.5164 133.6 50.1273C133.985 49.7382 134.371 49.7382 134.757 49.3491C135.143 49.3491 135.143 48.96 135.528 48.96C135.914 48.5709 136.3 48.5709 137.071 48.1818C137.457 47.7927 137.843 47.7927 138.614 47.4036C139 46.6254 139 46.6254 139.385 46.2364C139.771 45.8473 140.543 45.4582 141.314 45.0691C141.7 45.0691 142.085 44.68 142.471 44.68C143.628 43.9018 144.785 43.5127 145.943 42.7345C145.943 42.7345 145.943 42.7345 146.328 42.7345C146.328 42.7345 146.714 42.7345 146.714 42.3454C146.328 42.3454 146.714 42.3454 146.714 42.3454C146.714 42.3454 146.714 42.3454 147.1 42.3454C147.1 42.3454 147.485 42.3454 147.485 41.9564C147.871 41.5673 148.643 41.5673 149.028 41.1782C149.028 41.1782 149.028 41.1782 149.414 41.1782C149.414 41.1782 149.8 41.1782 149.8 40.7891C150.185 40.4 150.957 40.4 151.343 40.0109C151.343 40.0109 151.728 40.0109 151.728 39.6218C151.728 39.6218 151.728 39.6218 152.114 39.6218C152.114 39.6218 152.5 39.6218 152.5 39.2327C153.271 38.8436 153.657 38.8436 154.428 38.4545C154.814 38.0654 155.585 38.0654 155.971 37.6764C159.057 36.5091 162.143 35.3418 164.843 34.1745C170.628 32.6182 175.257 31.84 179.114 31.84Z" fill="white"/>
</svg>
