<svg width="250" height="250" viewBox="0 0 250 250" fill="none" xmlns="http://www.w3.org/2000/svg">
<path d="M130.414 93.3353C145.62 93.3353 157.946 80.929 157.946 65.625C157.946 50.321 145.62 37.9147 130.414 37.9147C115.209 37.9147 102.883 50.321 102.883 65.625C102.883 80.929 115.209 93.3353 130.414 93.3353Z" fill="#7B83EB"/>
<path opacity="0.1" d="M128.452 71.5625H103.516L103.64 72.1147L103.651 72.1622L103.781 72.6728C105.593 79.5883 109.989 85.5319 116.051 89.2627C122.114 92.9934 129.374 94.2228 136.315 92.6941V79.4772C136.309 77.38 135.479 75.3705 134.005 73.8876C132.532 72.4046 130.535 71.5688 128.452 71.5625Z" fill="black"/>
<path opacity="0.2" d="M122.552 77.5H105.539C107.772 82.2383 111.295 86.2415 115.698 89.0446C120.102 91.8477 125.206 93.3356 130.416 93.3353V85.4147C130.41 83.3175 129.579 81.308 128.106 79.8251C126.632 78.3421 124.636 77.5063 122.552 77.5Z" fill="black"/>
<path d="M192.358 95.3125C203.761 95.3125 213.005 86.0084 213.005 74.5312C213.005 63.0541 203.761 53.75 192.358 53.75C180.955 53.75 171.711 63.0541 171.711 74.5312C171.711 86.0084 180.955 95.3125 192.358 95.3125Z" fill="#5059C9"/>
<path d="M210.057 101.25H163.683C162.682 101.25 161.721 101.65 161.013 102.363C160.305 103.076 159.907 104.042 159.907 105.05V153.203C159.78 160.172 162.035 166.974 166.295 172.469C170.555 177.965 176.562 181.82 183.31 183.389C187.607 184.297 192.052 184.229 196.32 183.189C200.587 182.15 204.571 180.165 207.981 177.381C211.391 174.596 214.141 171.081 216.031 167.092C217.92 163.102 218.902 158.739 218.905 154.319V110.156C218.905 107.794 217.973 105.529 216.314 103.859C214.654 102.188 212.403 101.25 210.057 101.25Z" fill="#5059C9"/>
<path d="M177.61 110.156V166.562C177.616 177.016 174.193 187.178 167.874 195.474C161.554 203.769 152.691 209.733 142.659 212.44C132.627 215.147 121.989 214.445 112.394 210.444C102.799 206.443 94.7842 199.366 89.5938 190.312C88.4586 188.413 87.4724 186.428 86.6442 184.375C85.8721 182.439 85.2219 180.456 84.6975 178.437C83.7249 174.555 83.2296 170.566 83.2227 166.562V110.156C83.2211 108.986 83.4489 107.827 83.8931 106.746C84.3372 105.665 84.989 104.682 85.811 103.855C86.633 103.028 87.6091 102.372 88.6833 101.925C89.7576 101.478 90.909 101.248 92.0715 101.25H168.761C169.924 101.248 171.075 101.478 172.149 101.925C173.223 102.372 174.2 103.028 175.022 103.855C175.844 104.682 176.495 105.665 176.939 106.746C177.384 107.827 177.611 108.986 177.61 110.156Z" fill="#7B83EB"/>
<path opacity="0.2" d="M122.552 77.5H105.539C107.772 82.2383 111.295 86.2415 115.698 89.0446C120.102 91.8477 125.206 93.3356 130.416 93.3353V85.4147C130.41 83.3175 129.579 81.308 128.106 79.8251C126.632 78.3421 124.636 77.5063 122.552 77.5Z" fill="black"/>
<path opacity="0.1" d="M136.315 101.25V176.478C136.315 178.268 135.707 180.004 134.591 181.397C133.474 182.791 131.918 183.758 130.18 184.137C129.625 184.304 129.048 184.384 128.469 184.375H86.6442C85.8721 182.439 85.2219 180.456 84.6975 178.437C83.7249 174.555 83.2296 170.567 83.2227 166.562V110.156C83.2211 108.986 83.4489 107.827 83.8931 106.746C84.3372 105.665 84.989 104.682 85.811 103.855C86.6329 103.028 87.609 102.372 88.6833 101.925C89.7576 101.478 90.909 101.248 92.0714 101.25H136.315Z" fill="black"/>
<path opacity="0.2" d="M130.416 101.25V182.415C130.425 182.998 130.345 183.579 130.18 184.137C129.803 185.886 128.842 187.453 127.458 188.576C126.073 189.7 124.349 190.312 122.57 190.312H89.5938C88.4586 188.413 87.4724 186.428 86.6442 184.375C85.8721 182.439 85.2219 180.456 84.6975 178.437C83.7249 174.555 83.2296 170.566 83.2227 166.562V110.156C83.2211 108.986 83.4489 107.827 83.8931 106.746C84.3372 105.665 84.989 104.682 85.811 103.855C86.6329 103.028 87.609 102.372 88.6833 101.925C89.7576 101.478 90.909 101.248 92.0714 101.25H130.416Z" fill="black"/>
<path opacity="0.2" d="M130.416 101.25V170.541C130.407 172.632 129.577 174.635 128.108 176.114C126.638 177.593 124.648 178.428 122.57 178.437H84.6975C83.7249 174.555 83.2296 170.567 83.2227 166.562V110.156C83.2211 108.986 83.4489 107.827 83.8931 106.746C84.3372 105.665 84.989 104.682 85.811 103.855C86.6329 103.028 87.609 102.372 88.6833 101.925C89.7576 101.478 90.909 101.248 92.0714 101.25H130.416Z" fill="black"/>
<path opacity="0.2" d="M92.0715 101.25C90.909 101.248 89.7576 101.478 88.6833 101.925C87.6091 102.372 86.633 103.028 85.811 103.855C84.989 104.682 84.3372 105.665 83.8931 106.746C83.4489 107.827 83.2211 108.986 83.2227 110.156V166.562C83.2296 170.567 83.7249 174.555 84.6975 178.437H116.671C118.749 178.428 120.739 177.593 122.209 176.114C123.678 174.635 124.508 172.632 124.517 170.541V101.25H92.0715Z" fill="black"/>
<path d="M37.9925 77.5H116.652C118.738 77.5 120.738 78.3339 122.213 79.8182C123.688 81.3024 124.516 83.3156 124.516 85.4147V164.585C124.516 166.684 123.688 168.698 122.213 170.182C120.738 171.666 118.738 172.5 116.652 172.5H37.9925C35.907 172.5 33.9068 171.666 32.4321 170.182C30.9574 168.698 30.1289 166.684 30.1289 164.585V85.4147C30.1289 83.3156 30.9574 81.3024 32.4321 79.8182C33.9068 78.3339 35.907 77.5 37.9925 77.5Z" fill="#4B53BC"/>
<path d="M100.801 107.039H83.1628V154.658H71.5886V107.039H53.8438V95.3419H100.801V107.039Z" fill="white"/>
</svg>
