<svg width="250" height="250" viewBox="0 0 250 250" fill="none" xmlns="http://www.w3.org/2000/svg">
<path d="M150.271 118.365L108.214 132.199L71.6244 148.467L61.3881 151.189C58.7811 153.688 56.0476 156.218 53.0911 158.779C49.8487 161.597 46.8287 164.16 44.5078 166.017C41.933 168.066 38.1183 171.909 36.1793 174.343C33.2863 177.993 30.9976 181.868 30.0121 184.847C28.2635 190.227 29.1222 195.671 32.4918 200.699C36.8151 207.103 45.4301 213.636 55.4751 218.087C60.5935 220.362 69.2083 223.276 75.693 224.909C86.4693 227.663 107.323 230.641 118.799 231.09C121.119 231.186 124.235 231.186 124.362 231.09C124.616 230.929 126.396 227.503 128.463 223.244C135.52 208.737 140.606 195.126 143.372 183.502C145.025 176.457 146.328 167.074 147.186 155.962C147.409 152.855 147.504 142.448 147.313 138.925C147.027 133.161 146.518 128.485 145.724 123.906C145.597 123.233 145.565 122.625 145.629 122.593C145.755 122.497 146.137 122.369 151.319 120.863L150.27 118.366V118.365H150.271V118.365ZM140.67 124.033C141.052 124.033 142.069 133.864 142.323 140.077C142.387 141.39 142.354 142.255 142.291 142.255C142.037 142.255 136.919 139.213 133.264 136.907C130.084 134.89 124.045 130.854 123.091 130.086C122.773 129.862 122.804 129.83 125.411 128.933C129.83 127.428 140.321 124.033 140.67 124.033ZM119.244 131.143C119.531 131.143 120.261 131.559 122.01 132.648C128.558 136.779 137.46 141.775 141.274 143.44C142.45 143.952 142.577 143.76 139.875 145.618C134.09 149.589 126.873 153.495 118.036 157.434C116.478 158.139 115.175 158.683 115.143 158.683C115.08 158.683 115.27 157.883 115.524 156.922C117.654 148.947 118.862 140.878 118.926 134.409C118.958 131.206 118.958 131.206 119.244 131.111C119.18 131.143 119.212 131.143 119.244 131.143ZM114.826 132.84C115.016 133.032 114.889 140.205 114.635 142.159C114.062 146.834 113.172 151.189 111.711 156.089C111.361 157.274 111.042 158.267 110.98 158.331C110.852 158.491 106.497 154.2 105.066 152.534C102.586 149.652 100.648 146.77 99.2172 143.952C98.486 142.511 97.3418 139.693 97.437 139.597C97.9455 139.245 114.699 132.712 114.826 132.84ZM94.0353 141.07C94.067 141.07 94.0986 141.07 94.1309 141.102C94.1942 141.166 94.4172 141.678 94.6079 142.255C95.6248 145.041 97.9132 149.14 99.8848 151.766C102.046 154.648 104.876 157.722 107.228 159.74C107.991 160.38 108.69 160.988 108.785 161.085C108.976 161.277 109.04 161.245 103.858 163.23C97.8504 165.536 91.3014 167.842 83.799 170.275C82.0068 170.857 80.2163 171.445 78.4274 172.037C78.1408 172.133 78.2364 171.973 79.0629 170.66C82.7821 164.799 88.4404 153.303 91.6195 145.169C92.16 143.76 92.7003 142.351 92.7959 142.031C92.9231 141.582 93.0817 141.422 93.4948 141.198C93.7173 141.134 93.9402 141.07 94.0353 141.07ZM87.6781 143.728C87.7732 143.792 86.1519 147.218 84.5624 150.357C81.4787 156.409 78.1092 162.366 73.5952 169.603C72.8323 170.852 72.1014 172.005 72.0058 172.133C71.8471 172.358 71.7832 172.293 71.2746 171.301C70.1938 169.155 69.3034 166.401 68.8267 163.871C68.3497 161.373 68.4453 157.018 68.9859 154.328C69.3987 152.343 69.3673 152.375 70.3209 151.894C74.3899 149.813 87.5508 143.6 87.6781 143.728ZM142.514 145.97V147.315C142.514 154.456 141.751 164.255 140.638 171.397C140.447 172.646 140.288 173.67 140.257 173.703C140.257 173.703 139.335 173.447 138.254 173.126C133.486 171.621 128.304 169.411 123.631 166.818C120.547 165.12 116.065 162.334 116.192 162.206C116.224 162.174 117.559 161.469 119.117 160.637C125.348 157.37 131.324 153.848 136.506 150.357C138.445 149.044 141.369 146.931 142.005 146.354L142.514 145.97ZM63.6768 155.448C63.8039 155.448 63.7721 155.704 63.5814 156.857C63.4541 157.69 63.2954 159.227 63.2322 160.284C62.9773 164.959 63.7407 168.418 66.0294 173.158C66.6652 174.471 67.1742 175.559 67.1419 175.591C66.9193 175.784 45.8753 181.997 39.2627 183.822C37.2919 184.366 35.5756 184.846 35.4478 184.878C35.2257 184.942 35.1938 184.91 35.2891 184.366C36.0201 179.658 39.5807 173.51 44.5396 168.322C47.8458 164.863 50.4844 162.846 54.9984 160.252C58.2409 158.395 63.2317 155.609 63.6132 155.48C63.6135 155.448 63.6451 155.448 63.6768 155.448ZM113.268 164.383C113.3 164.351 114.062 164.768 114.984 165.312C121.787 169.283 131.26 172.966 139.334 174.855L140.066 175.015L139.048 175.591C134.821 177.961 120.929 183.789 106.719 189.138C104.653 189.906 102.619 190.675 102.237 190.835C101.855 190.995 101.505 191.091 101.505 191.059C101.505 191.027 102.078 189.906 102.809 188.529C106.782 181.036 110.788 171.909 112.822 165.568C113.077 164.96 113.236 164.415 113.268 164.383ZM108.214 166.048C108.246 166.081 107.991 166.753 107.673 167.522C104.908 174.279 101.283 181.645 96.6422 189.906C95.4662 192.02 94.4805 193.718 94.4482 193.718C94.417 193.718 93.463 193.141 92.3187 192.436C85.579 188.273 79.6029 183.149 75.6932 178.186L75.1208 177.481L78.0133 176.68C88.3767 173.831 97.1819 170.756 105.924 166.978C107.164 166.465 108.182 166.048 108.214 166.048ZM139.621 177.097C139.621 177.097 139.653 177.129 139.621 177.097C139.653 177.833 138.032 184.43 136.696 189.201C135.584 193.204 134.63 196.343 132.882 201.883C132.119 204.317 131.452 206.334 131.419 206.334C131.388 206.334 131.197 206.302 131.006 206.239C121.565 204.509 113.109 202.107 105.162 198.905C102.936 198.008 99.7575 196.567 99.5668 196.407C99.5035 196.342 101.411 195.446 103.827 194.389C118.291 188.017 133.295 180.779 138.445 177.673C139.049 177.289 139.526 177.097 139.621 177.097ZM67.1103 179.595C67.1739 179.659 63.1366 185.519 57.4779 193.493C55.5071 196.279 53.2184 199.545 52.3602 200.762C51.5018 201.979 50.1986 203.901 49.4674 205.054L48.1316 207.135L46.7011 205.918C45.0161 204.509 42.0919 201.499 40.7886 199.834C38.0545 196.408 36.2111 192.789 35.4799 189.491C35.1302 187.953 35.1302 187.184 35.4477 187.089C35.9244 186.961 44.4122 184.943 52.3599 183.085C56.7786 182.061 61.8963 180.844 63.7401 180.396C65.5841 179.947 67.0786 179.595 67.1103 179.595ZM71.1791 181.164L72.196 182.317C76.7742 187.473 81.4471 191.284 87.1055 194.614C88.123 195.191 88.8857 195.703 88.8218 195.735C88.5998 195.895 69.1762 202.844 60.18 205.982C55.1258 207.776 50.9612 209.217 50.9298 209.217C50.8981 209.217 50.6118 209.025 50.2934 208.8L49.7216 208.384L50.6433 207.039C53.6313 202.684 57.383 197.912 65.5527 187.985L71.1791 181.164ZM96.5471 199.449C96.5784 199.418 97.9772 199.93 99.6936 200.571C103.827 202.14 107.1 203.132 111.488 204.253C116.892 205.63 124.712 206.975 129.322 207.36C130.021 207.423 130.402 207.488 130.275 207.584C130.052 207.712 125.38 209.281 121.946 210.37C116.478 212.099 99.7893 217.063 86.1837 221.002C83.6723 221.738 81.5105 222.347 81.3834 222.379C81.0659 222.443 80.0165 222.154 80.0165 222.026C80.0165 221.963 80.7793 220.97 81.7014 219.881C86.2787 214.373 90.825 208.224 94.6079 202.396C95.6566 200.794 96.5471 199.481 96.5471 199.449ZM90.9518 199.61C90.9834 199.642 88.7266 203.292 84.7852 209.569C83.1 212.227 81.2244 215.237 80.5567 216.294C79.9209 217.319 78.9673 218.92 78.4271 219.817L77.5051 221.45L77.0284 221.322C75.8836 221.002 67.8412 218.151 65.7112 217.287C63.0725 216.23 60.3388 214.949 58.3041 213.86C55.7613 212.483 52.5826 210.433 52.8366 210.37C52.9001 210.338 57.2554 209.152 62.5003 207.712C76.4241 203.9 84.1486 201.691 89.2035 200.09C90.1256 199.802 90.9201 199.577 90.9518 199.61ZM130.529 208.96H130.561C130.688 209.281 125.539 223.692 123.662 228.239C123.25 229.263 123.091 229.52 122.868 229.487C122.328 229.456 114.858 228.399 110.311 227.726C102.396 226.51 89.1081 224.172 85.7705 223.403L85.0076 223.243L89.7436 222.154C99.9164 219.848 104.812 218.599 109.771 217.062C116.033 215.141 122.233 212.739 128.495 209.793C129.48 209.345 130.307 208.992 130.529 208.96Z" fill="url(#paint0_linear_1789_6920)"/>
<path d="M106.907 19.6026C106.208 19.507 94.9225 23.606 87.6431 26.5839C77.82 30.6194 70.1911 34.4625 65.4861 37.7922C63.738 39.0417 61.5441 41.2511 61.1949 42.1155C61.0678 42.4358 61.0039 42.8201 61.0039 43.2043L65.2639 47.2714L75.4043 50.5378L99.5324 54.8932L127.125 59.6648L127.411 57.2631C127.316 57.2631 127.252 57.2312 127.158 57.2312L123.533 56.6545L122.802 55.3417C119.051 48.6805 114.918 40.4183 112.502 34.8461C110.627 30.5228 108.847 25.5276 107.861 21.9407C107.321 19.7631 107.257 19.6351 106.908 19.6032V19.6024H106.907V19.6026ZM106.398 21.2363H106.431C106.462 21.2679 106.589 22.1652 106.717 23.2214C107.257 27.7053 108.243 32.0279 109.8 36.7036C110.976 40.2263 110.976 40.0344 109.61 39.6178C106.367 38.7214 91.8396 36.1914 81.3174 34.7184C79.6325 34.4941 78.2019 34.27 78.2019 34.2381C78.0748 34.1101 85.7993 30.0427 89.2008 28.4419C93.5558 26.424 105.508 21.3962 106.398 21.2363ZM75.7536 35.5829L76.9939 35.9987C83.7328 38.3048 100.676 41.5714 110.022 42.3398C111.071 42.436 111.962 42.5323 111.993 42.5323C112.025 42.5642 111.135 43.0446 109.99 43.5887C105.477 45.8625 100.517 48.6486 97.0842 50.7943C96.0673 51.4345 95.1449 51.9472 95.0181 51.9472C94.8909 51.9472 94.2236 51.8191 93.5242 51.7229L92.2527 51.5305L89.0741 48.392C83.4792 42.9162 79.0921 38.6892 77.4072 37.0877L75.7536 35.5829ZM74.4825 36.5754L78.9647 42.2118C81.4122 45.3181 83.8918 48.3602 84.4327 49.0324C84.9726 49.7054 85.418 50.25 85.3863 50.2819C85.2591 50.3779 78.9017 49.1287 75.5316 48.3605C72.0666 47.5597 70.6361 47.1754 68.5063 46.5032L66.7578 45.9266V45.4779C66.7894 43.3322 69.4918 40.1301 74.0693 36.8639L74.4825 36.5754ZM112.566 44.2612C112.693 44.2612 112.852 44.5494 113.233 45.414C114.314 47.8156 117.684 54.2848 118.51 55.5335C118.765 55.9503 119.209 55.9821 114.727 55.2455C103.951 53.4838 100.486 52.908 100.486 52.8439C100.486 52.812 100.804 52.5877 101.217 52.3634C104.555 50.5064 107.924 48.1364 110.913 45.6064C111.644 44.9978 112.312 44.4215 112.438 44.3252C112.47 44.2612 112.534 44.2293 112.566 44.2612Z" fill="url(#paint1_linear_1789_6920)"/>
<path d="M61.4209 41.667C61.4209 41.667 60.7219 42.7883 61.3893 44.4536C61.803 45.478 63.0108 46.7268 64.3775 48.008C64.3775 48.008 78.5235 61.9062 80.2402 63.892C88.06 72.9865 91.4617 81.9533 91.7796 94.3147C91.9703 102.257 90.4758 109.238 86.7568 117.34C80.1447 131.879 66.189 147.923 44.668 165.728L47.8156 164.671C49.85 163.134 52.6157 161.501 59.1005 157.914C74.0729 149.652 90.9212 142.062 111.584 134.248C141.338 122.976 190.262 109.782 218.109 105.491L221.002 105.042L220.557 104.338C218.014 100.367 216.265 97.9011 214.167 95.2751C208.064 87.6534 200.657 81.473 191.597 76.349C179.136 69.3361 163.018 63.8601 142.61 59.793C138.764 59.024 130.308 57.5511 123.441 56.4944C108.882 54.2212 99.4722 52.6517 89.1092 50.8584C85.3902 50.2176 79.8266 49.2572 76.1391 48.4568C74.2318 48.04 70.5764 47.1755 67.7153 46.1829C65.4266 45.2857 62.1202 44.3891 61.4209 41.667ZM69.6229 49.6733C69.6543 49.6417 70.1628 49.8332 70.8308 50.0576C72.0388 50.4734 73.5963 50.9539 75.4406 51.4667C76.8358 51.8533 78.2345 52.2268 79.6366 52.5874C81.5439 53.0674 83.1331 53.5159 83.1647 53.5159C83.3877 53.7403 86.5985 64.0832 87.6793 68.0543C88.092 69.5599 88.4105 70.8405 88.3787 70.8405C88.346 70.873 87.9968 70.3282 87.5837 69.5918C83.8643 62.9947 77.9833 56.3018 71.1803 50.9216C70.2907 50.2817 69.6229 49.7052 69.6229 49.6733ZM85.2631 54.0285C85.4221 54.0285 86.1215 54.1246 86.9794 54.3166C92.3836 55.5335 102.079 57.3909 108.278 58.4478C109.327 58.6077 110.154 58.8003 110.154 58.864C110.154 58.9283 109.772 59.1521 109.295 59.4086C108.247 59.9528 104.018 62.4824 102.62 63.4433C99.091 65.8131 95.9125 68.3749 93.6235 70.6806C92.7017 71.6094 91.9066 72.3779 91.9066 72.3779C91.9066 72.3779 91.7164 71.8337 91.5568 71.1608C90.4131 66.7095 88.0285 60.1124 85.8669 55.4692C85.5171 54.7329 85.2308 54.0603 85.2308 53.9965C85.2308 54.0604 85.2308 54.0285 85.2631 54.0285ZM112.792 59.3124C112.983 59.3762 113.301 60.4652 113.936 62.8668C115.113 67.5106 115.653 72.6984 115.463 77.534C115.399 78.879 115.335 80.1277 115.271 80.2882L115.176 80.6081L113.523 80.0639C110.122 78.9751 104.591 77.3416 99.8545 75.9968C97.1519 75.2602 94.959 74.5877 94.959 74.5238C94.959 74.3314 98.901 70.3606 100.586 68.8556C103.796 66.005 112.506 59.2162 112.792 59.3124ZM114.986 59.6323C115.081 59.5368 128.146 61.8099 134.091 62.963C138.51 63.8274 144.931 65.1726 145.312 65.333C145.503 65.3968 144.835 65.781 142.705 66.7416C134.313 70.5528 128.082 73.9789 121.884 78.1424C120.263 79.2312 118.896 80.1277 118.864 80.1277C118.832 80.1277 118.801 79.1993 118.801 78.0783C118.801 71.994 117.593 65.8453 115.367 60.6575C115.145 60.145 114.954 59.6648 114.986 59.6323ZM148.777 66.3577C148.873 66.4537 148.459 69.0479 148.078 70.5847C146.934 75.3564 143.85 82.4341 140.068 89.0947C139.4 90.2796 138.796 91.2404 138.732 91.2723C138.669 91.3042 137.81 90.8236 136.825 90.2473C133.137 88.0697 128.941 86.0202 124.363 84.0985C123.092 83.5544 121.979 83.1057 121.948 83.0422C121.725 82.8498 131.961 76.0287 137.365 72.7623C141.657 70.1365 148.65 66.2294 148.777 66.3577ZM151.193 66.7418C151.479 66.7418 157.265 68.3432 160.285 69.2399C167.755 71.4817 176.338 74.6518 181.933 77.2137L184.253 78.2709L182.633 78.6548C168.964 81.825 157.265 85.4762 145.98 90.0875C145.058 90.4717 144.231 90.792 144.168 90.792C144.104 90.792 144.422 90.0556 144.836 89.1586C148.237 81.8893 150.431 74.2996 150.97 67.8304C151.003 67.2219 151.098 66.7418 151.193 66.7418ZM93.5918 80.0639C93.6869 79.9677 98.1058 81.0247 100.49 81.6966C104.114 82.7218 111.806 85.3154 111.806 85.5078C111.806 85.5397 110.948 86.2763 109.932 87.1733C105.767 90.6639 101.761 94.3461 96.961 99.0218C95.5305 100.399 94.3228 101.52 94.2595 101.52C94.1956 101.52 94.1644 101.327 94.1956 101.071C94.9267 95.6911 94.7682 88.7742 93.7508 81.761C93.6551 80.864 93.56 80.0958 93.5918 80.0639ZM186.448 80.1602C186.51 80.2239 184.413 83.5544 183.078 85.4436C181.171 88.1975 178.372 91.8489 172.046 99.8548C168.709 104.082 164.958 108.853 163.718 110.455C162.446 112.056 161.398 113.4 161.365 113.4C161.334 113.4 160.921 112.824 160.476 112.12C156.915 106.74 152.655 102.032 147.601 97.8051C146.647 97.0042 145.599 96.1396 145.249 95.8834C144.899 95.6273 144.613 95.3711 144.613 95.3392C144.613 95.2434 150.016 92.9051 154.118 91.2402C161.302 88.2938 171.092 84.7713 178.436 82.4975C182.283 81.2808 186.384 80.0958 186.448 80.1602ZM188.895 80.8002C189.022 80.7685 189.785 81.1527 190.707 81.6966C198.432 86.148 205.997 91.8805 211.974 97.773C213.659 99.4385 217.823 103.794 217.759 103.826C217.759 103.826 216.297 103.954 214.581 104.082C201.197 105.107 184.064 107.956 167.597 111.959C166.484 112.215 165.499 112.439 165.435 112.439C165.372 112.439 166.611 111.191 168.169 109.686C177.833 100.303 182.252 94.3785 187.465 83.8103C188.196 82.2415 188.832 80.8965 188.895 80.8002C188.863 80.8002 188.863 80.8002 188.895 80.8002ZM118.101 88.1021C118.546 88.1977 122.679 90.1519 125.794 91.7206C128.655 93.1612 132.947 95.4674 133.169 95.6592C133.201 95.6911 131.675 96.4918 129.8 97.4207C123.823 100.431 118.705 103.281 113.364 106.547C111.839 107.476 110.567 108.245 110.535 108.245C110.408 108.245 110.44 108.116 111.298 106.547C114.159 101.296 116.448 95.0191 117.752 88.9022C117.878 88.422 118.006 88.1021 118.101 88.1021ZM113.968 88.8703C114.064 88.9666 112.983 92.9053 112.316 95.051C111.012 99.1181 108.819 104.21 106.689 108.053C106.18 108.949 105.417 110.262 105.004 110.998L104.209 112.279L102.429 110.551C100.363 108.533 98.6778 107.284 96.5166 106.163C95.6577 105.715 94.9904 105.33 94.9904 105.267C94.9904 105.01 100.426 100.047 104.591 96.4601C107.579 93.866 113.873 88.7744 113.968 88.8703ZM139.241 99.3424L140.799 100.367C144.358 102.705 148.554 105.811 151.766 108.533C153.577 110.038 157.074 113.209 157.774 113.977L158.155 114.394L155.58 115.13C141.021 119.197 129.768 122.815 116.639 127.683C115.176 128.228 113.936 128.676 113.841 128.676C113.651 128.676 113.491 128.836 116.766 125.794C125.158 118.012 132.597 109.429 138.128 101.071L139.241 99.3424ZM132.597 101.008C132.66 101.071 128.305 107.252 125.698 110.743C122.583 114.906 117.052 121.887 113.237 126.434C111.648 128.324 110.281 129.893 110.217 129.925C110.122 129.957 110.09 129.476 110.09 128.74C110.09 124.865 109.105 120.734 107.388 117.211C106.657 115.738 106.53 115.386 106.689 115.226C107.293 114.681 116.543 109.365 122.392 106.195C126.334 104.082 132.501 100.943 132.597 101.008ZM92.4152 110.935C92.5108 110.935 93.242 111.319 94.0687 111.768C96.1031 112.888 97.9151 114.137 99.5362 115.482C99.5995 115.546 98.7733 116.219 97.6925 117.019C94.6725 119.197 90.095 122.688 87.4251 124.833C84.627 127.075 84.5323 127.139 84.8498 126.659C86.9481 123.424 87.9967 121.599 89.1098 119.261C90.095 117.18 91.0802 114.714 91.7796 112.568C92.0338 111.64 92.3519 110.935 92.4152 110.935ZM103.129 119.389C103.287 119.357 103.478 119.645 104.336 120.926C106.148 123.648 107.547 127.299 107.897 130.245L107.96 130.886L103.606 132.583C95.8168 135.625 88.6329 138.636 83.7686 140.877C82.402 141.518 80.0177 142.67 78.4603 143.44C76.9025 144.24 75.631 144.848 75.631 144.816C75.631 144.784 76.6162 144.048 77.8241 143.151C87.3297 136.202 95.5627 128.58 101.73 120.958C102.397 120.158 103.002 119.421 103.065 119.389L103.129 119.389ZM98.2013 120.606C98.3286 120.734 94.7047 124.865 92.2251 127.395C86.0898 133.704 80.018 138.636 72.4838 143.44C71.5302 144.048 70.6721 144.592 70.5765 144.656C70.3538 144.784 70.6398 144.464 73.9461 140.845C76.0444 138.571 77.6336 136.65 79.4456 134.281C80.6535 132.712 80.8762 132.487 82.6249 131.238C87.2979 127.843 98.0741 120.478 98.2013 120.606Z" fill="url(#paint2_radial_1789_6920)"/>
<defs>
<linearGradient id="paint0_linear_1789_6920" x1="60.7701" y1="210.234" x2="76.0356" y2="201.28" gradientUnits="userSpaceOnUse">
<stop stop-color="#909CA9"/>
<stop offset="1" stop-color="#EDEDEE"/>
</linearGradient>
<linearGradient id="paint1_linear_1789_6920" x1="61.1154" y1="39.5711" x2="73.352" y2="39.5711" gradientUnits="userSpaceOnUse">
<stop stop-color="#939FAB"/>
<stop offset="1" stop-color="#DCDEE1"/>
</linearGradient>
<radialGradient id="paint2_radial_1789_6920" cx="0" cy="0" r="1" gradientUnits="userSpaceOnUse" gradientTransform="translate(122.865 96.1062) rotate(-171.395) scale(15.7789 31.7884)">
<stop stop-color="#EE352C"/>
<stop offset="1" stop-color="#A91D22"/>
</radialGradient>
</defs>
</svg>
