<svg width="250" height="250" viewBox="0 0 250 250" fill="none" xmlns="http://www.w3.org/2000/svg">
<path d="M168.624 57.885C167.47 57.885 166.664 58.0267 165.848 58.2339C165.848 58.2339 165.848 58.2884 165.848 58.3647C165.924 58.3647 165.967 58.3647 165.978 58.3647C166.523 59.4549 167.47 60.2072 168.145 61.1557C168.69 62.2459 169.169 63.3252 169.713 64.4154C169.778 64.35 169.844 64.2737 169.844 64.2737C170.802 63.5978 171.27 62.5075 171.27 60.8831C170.867 60.4034 170.802 59.9237 170.453 59.4549C170.051 58.7681 169.169 58.4301 168.624 57.885Z" fill="#5B85A4"/>
<path d="M237.834 116.931C232.401 116.79 228.198 117.335 224.67 118.828C223.657 119.243 222.024 119.243 221.894 120.529C222.438 121.074 222.503 121.957 222.982 122.699C223.788 124.061 225.215 125.893 226.499 126.852C227.926 127.932 229.352 129.022 230.855 129.97C233.49 131.606 236.484 132.554 239.054 134.189C240.556 135.138 242.037 136.359 243.54 137.373C244.28 137.918 244.748 138.801 245.706 139.139C245.706 139.117 245.706 138.954 245.706 138.932C245.227 138.321 245.097 137.438 244.618 136.762C243.943 136.086 243.267 135.465 242.581 134.789C240.611 132.14 238.172 129.839 235.526 127.932C233.359 126.438 228.601 124.399 227.73 121.892C227.73 121.892 227.654 121.815 227.588 121.75C229.08 121.619 230.855 121.074 232.27 120.66C234.578 120.049 236.68 120.191 239.054 119.581C240.142 119.308 241.231 118.959 242.32 118.632C242.32 118.567 242.32 118.076 242.32 118.011C241.09 116.79 240.208 115.154 238.923 114.009C235.46 111.011 231.66 108.101 227.73 105.648C225.617 104.285 222.906 103.413 220.663 102.257C219.857 101.843 218.496 101.646 218.028 100.96C216.798 99.466 216.123 97.5036 215.241 95.7265C213.27 91.998 211.375 87.8552 209.677 83.9086C208.457 81.2593 207.706 78.6101 206.214 76.168C199.224 64.6117 191.635 57.6234 179.962 50.755C177.447 49.3268 174.464 48.7163 171.274 47.975C169.575 47.8987 167.887 47.7678 166.189 47.7024C165.1 47.2227 164.011 45.9363 163.064 45.3257C159.198 42.8727 149.225 37.5743 146.372 44.5735C144.543 48.9889 149.094 53.3388 150.651 55.5847C151.805 57.1437 153.297 58.9099 154.103 60.676C154.582 61.8316 154.723 63.0527 155.191 64.2737C156.28 67.2609 157.293 70.597 158.73 73.3771C159.471 74.8052 160.287 76.3097 161.234 77.5853C161.779 78.3376 162.726 78.6755 162.933 79.9075C161.986 81.2593 161.91 83.298 161.365 84.9988C158.926 92.6739 159.873 102.181 163.336 107.828C164.414 109.518 167.005 113.257 170.457 111.829C173.517 110.608 172.841 106.738 173.713 103.336C173.919 102.519 173.789 101.984 174.192 101.439C174.192 101.45 174.192 101.559 174.192 101.581C175.139 103.478 176.097 105.31 176.968 107.217C179.08 110.543 182.739 114.009 185.799 116.31C187.421 117.542 188.706 119.646 190.742 120.387C190.742 120.376 190.742 120.311 190.742 120.191C190.666 120.191 190.622 120.191 190.611 120.191C190.208 119.581 189.599 119.308 189.054 118.828C187.835 117.607 186.474 116.114 185.526 114.751C182.674 110.946 180.158 106.738 177.926 102.388C176.837 100.273 175.89 97.9724 175.008 95.8683C174.605 95.0506 174.605 93.8296 173.919 93.4262C172.896 94.9089 171.415 96.2062 170.664 98.0378C169.379 100.96 169.237 104.557 168.758 108.297C168.497 108.373 168.628 108.297 168.497 108.428C166.319 107.893 165.579 105.648 164.762 103.751C162.726 98.9209 162.389 91.1803 164.153 85.6093C164.621 84.1811 166.668 79.7003 165.851 78.3376C165.437 77.0402 164.076 76.3097 163.336 75.2849C162.454 73.9876 161.496 72.3632 160.897 70.935C159.264 67.1301 158.447 62.9219 156.694 59.117C155.877 57.3399 154.451 55.5084 153.297 53.884C152.001 52.0524 150.586 50.755 149.562 48.5855C149.225 47.8332 148.756 46.6122 149.29 45.8054C149.421 45.2603 149.704 45.0532 150.248 44.9115C151.119 44.1701 153.634 45.1186 154.516 45.522C157.032 46.5359 159.133 47.4953 161.234 48.9235C162.182 49.5994 163.205 50.8968 164.414 51.2347C164.566 51.2347 165.71 51.2347 165.851 51.2347C168.018 51.7035 170.457 51.3656 172.493 51.9761C176.097 53.1317 179.353 54.8324 182.271 56.664C191.156 62.3113 198.484 70.3244 203.427 79.9075C204.244 81.4665 204.592 82.8947 205.332 84.5191C206.759 87.8552 208.523 91.2457 209.949 94.5055C211.375 97.6998 212.736 100.96 214.773 103.609C215.785 105.037 219.857 105.789 221.687 106.531C223.048 107.141 225.149 107.686 226.369 108.428C228.677 109.856 230.985 111.491 233.152 113.05C234.241 113.868 237.627 115.569 237.834 116.931Z" fill="#2C7493"/>
<path d="M232.974 191.982H234.455V186.258H236.404V185.092H230.949V186.258H232.974V191.982ZM244.298 191.982H245.703V185.092H243.591L241.87 189.791L240.008 185.092H237.972V191.982H239.301V186.738H239.377L241.337 191.982H242.338L244.298 186.738V191.982Z" fill="#F18513"/>
<path d="M226.565 191.993H199.855V135.759H208.838V185.07H226.565V191.993Z" fill="#F18513"/>
<path d="M158.837 180.818C156.561 177.155 155.429 171.279 155.429 163.167C155.429 149.005 159.73 141.919 168.321 141.919C172.818 141.919 176.117 143.62 178.218 146.999C180.494 150.674 181.637 156.495 181.637 164.497C181.637 178.768 177.336 185.909 168.735 185.909C164.249 185.909 160.949 184.22 158.837 180.818ZM192.286 193.421C186.091 190.368 182.65 188.668 181.964 188.33C182.879 187.577 183.75 186.76 184.545 185.822C188.922 180.655 191.121 173.023 191.121 162.917C191.121 144.318 183.826 135.007 169.236 135.007C162.082 135.007 156.507 137.373 152.522 142.093C148.134 147.261 145.945 154.86 145.945 164.912C145.945 174.8 147.883 182.05 151.771 186.651C155.32 190.815 160.666 192.898 167.82 192.898C170.499 192.898 172.948 192.571 175.181 191.916C176.073 192.44 180.549 195.045 188.617 199.744L192.286 193.421Z" fill="#F18513"/>
<path d="M142.612 176.403C142.612 181.167 140.859 185.081 137.375 188.144C133.89 191.197 129.198 192.723 123.318 192.723C117.83 192.723 112.506 190.968 107.355 187.479C107.595 186.989 109.522 183.129 109.762 182.65C114.204 184.863 118.211 185.975 121.826 185.975C125.202 185.975 127.847 185.223 129.764 183.74C131.68 182.235 132.823 180.142 132.823 177.493C132.823 174.157 130.493 171.3 126.225 168.902C122.294 166.743 114.422 162.219 114.422 162.219C110.154 159.101 108.02 155.765 108.02 150.259C108.02 145.702 109.609 142.017 112.8 139.215C115.99 136.413 120.106 135.007 125.147 135.007C130.363 135.007 135.099 136.403 139.367 139.183C139.16 139.662 137.418 143.522 137.2 144.001C133.553 142.453 129.949 141.679 126.399 141.679C123.514 141.679 121.293 142.366 119.746 143.762C118.189 145.146 117.22 146.923 117.22 149.093C117.22 152.418 119.605 155.307 123.993 157.749C127.978 159.908 136.046 164.519 136.046 164.519C140.423 167.626 142.612 170.941 142.612 176.403Z" fill="#F18513"/>
<path d="M101.445 150.51C97.6123 171.3 92.571 186.411 86.2993 195.83C81.4213 203.102 76.0752 206.733 70.2499 206.733C68.6928 206.733 66.7765 206.264 64.5117 205.326C64.5117 204.825 64.5117 200.824 64.5117 200.322C65.6223 200.486 66.918 200.573 68.4206 200.573C71.1318 200.573 73.3313 199.821 74.9972 198.316C76.9898 196.485 77.9806 194.435 77.9806 192.156C77.9806 190.597 77.2076 187.403 75.6614 182.573C74.9645 180.437 71.5347 169.752 65.3392 150.51H74.5726C79.015 164.901 81.4867 172.892 81.9767 174.495C83.6426 179.935 84.3394 183.74 84.0563 185.909C88.1068 175.073 90.9378 163.276 92.5493 150.51C93.1372 150.51 96.0989 150.51 101.445 150.51Z" fill="#2C7493"/>
<path d="M60.6787 191.993C55.0385 191.993 51.9136 191.993 51.2821 191.993C50.9554 176.108 50.0408 161.172 48.5382 147.174C48.5382 147.174 48.5055 147.174 48.4511 147.174L34.1438 191.993H26.9901L12.7699 147.174C12.7155 147.174 12.6828 147.174 12.6828 147.174C11.6266 160.616 10.9624 175.552 10.6902 191.993C9.83006 191.993 2.97039 191.993 2.12109 191.993C2.6764 171.998 4.05922 153.257 6.28045 135.759C7.05352 135.759 10.9407 135.759 17.9201 135.759L31.487 177.079H31.5632L45.2064 135.759C51.9027 135.759 55.6156 135.759 56.356 135.759C58.795 156.245 60.2432 174.996 60.6787 191.993Z" fill="#2C7493"/>
</svg>
