<svg width="250" height="250" viewBox="0 0 250 250" fill="none" xmlns="http://www.w3.org/2000/svg">
<path fill-rule="evenodd" clip-rule="evenodd" d="M64.3521 62.5245C70.3551 67.4017 72.607 67.0296 83.8797 66.2774L190.151 59.8963C192.405 59.8963 190.53 57.6478 189.779 57.2742L172.13 44.515C168.748 41.8894 164.242 38.8827 155.607 39.6348L52.7043 47.1402C48.9515 47.5123 48.202 49.3887 49.6964 50.8927L64.3521 62.5245ZM70.7325 87.2911V199.107C70.7325 205.116 73.7355 207.364 80.4944 206.993L197.286 200.235C204.049 199.863 204.802 195.729 204.802 190.848V79.7823C204.802 74.9086 202.927 72.2803 198.788 72.6555L76.7388 79.7823C72.2345 80.1608 70.7321 82.4139 70.7321 87.2911H70.7325ZM186.029 93.2891C186.778 96.6694 186.029 100.047 182.642 100.427L177.015 101.548V184.098C172.13 186.724 167.624 188.225 163.87 188.225C157.859 188.225 156.353 186.347 151.851 180.722L115.042 122.937V178.846L126.69 181.474C126.69 181.474 126.69 188.225 117.293 188.225L91.3862 189.728C90.6336 188.225 91.3862 184.476 94.014 183.725L100.774 181.851V107.929L91.3881 107.177C90.6352 103.796 92.5101 98.9222 97.7715 98.544L125.563 96.6706L163.87 155.208V103.424L154.103 102.303C153.353 98.1708 156.353 95.1701 160.109 94.798L186.029 93.2891ZM44.0645 37.0096L151.1 29.1273C164.244 27.9999 167.626 28.7552 175.887 34.7562L210.054 58.7705C215.692 62.9001 217.571 64.0243 217.571 68.526V200.235C217.571 208.489 214.563 213.371 204.051 214.118L79.7505 221.624C71.8587 222 68.1027 220.875 63.9698 215.619L38.8088 182.974C34.3007 176.964 32.4258 172.469 32.4258 167.209V50.1379C32.4258 43.3877 35.4337 37.7569 44.0645 37.0096Z" fill="black"/>
</svg>
