<svg width="200" height="53" viewBox="0 0 200 53" fill="none" xmlns="http://www.w3.org/2000/svg">
<path d="M60.9027 27.1136C60.9027 32.3409 65.0496 36.5227 70.6602 36.5227C76.2012 36.5227 80.4178 32.3409 80.4178 27.1136C80.4178 21.8864 76.2012 17.7045 70.6602 17.7045C65.0496 17.7045 60.9027 21.8864 60.9027 27.1136ZM65.9557 27.1136C65.9557 23.9773 68.0466 21.8864 70.6602 21.8864C73.2739 21.8864 75.3648 23.9773 75.3648 27.1136C75.3648 30.25 73.2739 32.3409 70.6602 32.3409C68.0466 32.3409 65.9557 30.25 65.9557 27.1136ZM82.1725 42.6212H87.0513V33.7348H87.2255C87.6089 34.2576 88.0619 34.7106 88.5846 35.1288C89.5255 35.8258 90.8498 36.5227 92.8013 36.5227C97.3316 36.5227 100.991 32.8636 100.991 27.1136C100.991 21.3636 97.3316 17.7045 92.8013 17.7045C90.8498 17.7045 89.5255 18.4015 88.5846 19.0985C88.0619 19.5167 87.6089 19.9697 87.2255 20.4924H87.0513V18.2273H82.1725V42.6212ZM87.0513 27.1136C87.0513 23.7682 88.9331 21.8864 91.5816 21.8864C94.0558 21.8864 95.9376 23.7682 95.9376 27.1136C95.9376 30.4591 94.0558 32.3409 91.5816 32.3409C88.9331 32.3409 87.0513 30.4591 87.0513 27.1136ZM101.862 27.1136C101.862 32.3409 106.009 36.5227 111.445 36.5227C115.279 36.5227 117.544 34.9545 118.938 33.3864C119.739 32.4455 120.297 31.4 120.68 30.25H115.453C115.244 30.6333 114.965 30.9818 114.616 31.2955C113.954 31.8182 113.013 32.3409 111.445 32.3409C109.18 32.3409 107.298 30.4242 106.915 28.1591H120.854V27.1136C120.854 21.9212 117.021 17.7045 111.445 17.7045C106.009 17.7045 101.862 21.8864 101.862 27.1136ZM107.089 25.197C107.612 23.4197 109.18 21.8864 111.445 21.8864C113.71 21.8864 115.279 23.4545 115.627 25.197H107.089ZM122.757 36H127.636V26.5909C127.636 23.803 129.553 21.8864 131.818 21.8864C134.083 21.8864 135.477 23.2455 135.477 25.8939V36H140.356V25.197C140.356 20.2833 137.742 17.7045 133.386 17.7045C131.33 17.7045 130.041 18.4712 129.1 19.203C128.577 19.6212 128.124 20.1091 127.81 20.6667H127.636V18.2273H122.757V36ZM142.982 36H151.868V31.8182H147.861V11.6061H142.982V36ZM152.75 13.3485C152.75 14.7424 153.97 15.9621 155.538 15.9621C157.106 15.9621 158.326 14.7424 158.326 13.3485C158.326 11.9545 157.106 10.7348 155.538 10.7348C153.97 10.7348 152.75 11.9545 152.75 13.3485ZM153.099 36H157.977V18.2273H153.099V36ZM160.765 36H165.644V26.5909C165.644 23.803 167.561 21.8864 169.826 21.8864C172.091 21.8864 173.485 23.2455 173.485 25.8939V36H178.364V25.197C178.364 20.2833 175.75 17.7045 171.394 17.7045C169.338 17.7045 168.049 18.4712 167.108 19.203C166.585 19.6212 166.132 20.1091 165.818 20.6667H165.644V18.2273H160.765V36ZM179.944 27.1136C179.944 32.3409 184.091 36.5227 189.528 36.5227C193.361 36.5227 195.626 34.9545 197.02 33.3864C197.822 32.4455 198.379 31.4 198.762 30.25H193.535C193.326 30.6333 193.047 30.9818 192.699 31.2955C192.037 31.8182 191.096 32.3409 189.528 32.3409C187.262 32.3409 185.381 30.4242 184.997 28.1591H198.937V27.1136C198.937 21.9212 195.103 17.7045 189.528 17.7045C184.091 17.7045 179.944 21.8864 179.944 27.1136ZM185.172 25.197C185.694 23.4197 187.262 21.8864 189.528 21.8864C191.793 21.8864 193.361 23.4545 193.709 25.197H185.172Z" fill="#9E9E9E"/>
<mask id="mask0_502_2" style="mask-type:alpha" maskUnits="userSpaceOnUse" x="0" y="0" width="53" height="53">
<circle cx="26.1364" cy="26.1364" r="26.1364" fill="#9E9E9E"/>
</mask>
<g mask="url(#mask0_502_2)">
<path fill-rule="evenodd" clip-rule="evenodd" d="M16.4638 1.84814C17.5287 1.42368 18.6281 1.06722 19.7566 0.784135V51.4885C18.6281 51.2054 17.5287 50.8489 16.4638 50.4245V1.84814ZM52.2727 26.1363C52.2727 40.5024 40.6821 52.1613 26.3421 52.2719V37.7695C29.3534 37.7162 32.23 36.4969 34.3634 34.3635C36.5453 32.1815 37.7711 29.2222 37.7711 26.1364C37.7711 23.0506 36.5453 20.0913 34.3634 17.9093C32.23 15.7759 29.3534 14.5566 26.3421 14.5033V0.000732422C40.6821 0.111307 52.2727 11.7702 52.2727 26.1363ZM11.113 4.74649C9.94093 5.57125 8.83967 6.48991 7.82019 7.49153V44.7811C8.83967 45.7827 9.94093 46.7014 11.113 47.5261V4.74649ZM0 26.1363C0 21.2295 1.35217 16.6385 3.70422 12.7156V39.557C1.35217 35.6341 0 31.0431 0 26.1363Z" fill="#9E9E9E"/>
</g>
</svg>
