<svg width="19" height="18" viewBox="0 0 19 18" fill="none" xmlns="http://www.w3.org/2000/svg">
<path fill-rule="evenodd" clip-rule="evenodd" d="M5.92198 0.636392C6.31091 0.490229 6.71242 0.367484 7.12457 0.270005V17.7299C6.71242 17.6325 6.31091 17.5097 5.92198 17.3636V0.636392ZM19 8.99997C19 13.9469 14.7669 17.9616 9.52972 17.9997V13.0058C10.6295 12.9874 11.6801 12.5675 12.4592 11.8329C13.2561 11.0816 13.7038 10.0625 13.7038 8.99992C13.7038 7.93735 13.2561 6.91829 12.4592 6.16693C11.6801 5.4323 10.6295 5.01242 9.52972 4.9941V0.000244141C14.7669 0.0383249 19 4.05305 19 8.99997ZM3.9678 1.63443C3.53972 1.91844 3.13751 2.23478 2.76517 2.57969V15.4203C3.13751 15.7652 3.53972 16.0815 3.9678 16.3655V1.63443ZM-0.0908813 8.99997C-0.0908813 7.31033 0.402951 5.72943 1.26195 4.37859V13.6214C0.402951 12.2705 -0.0908813 10.6896 -0.0908813 8.99997Z" fill="black"/>
</svg>
