<svg xmlns="http://www.w3.org/2000/svg" fill="none" viewBox="0 0 19 18"><path fill="#000" fill-rule="evenodd" d="M5.922.636C6.311.49 6.712.367 7.125.27v17.46a9.884 9.884 0 0 1-1.203-.366V.636ZM19 9c0 4.947-4.233 8.962-9.47 9v-4.994a4.38 4.38 0 0 0 2.93-1.173A3.894 3.894 0 0 0 13.703 9a3.894 3.894 0 0 0-1.245-2.833 4.38 4.38 0 0 0-2.93-1.173V0C14.768.038 19 4.053 19 9ZM3.968 1.634c-.428.284-.83.6-1.203.946v12.84c.373.345.775.661 1.203.946V1.634ZM-.091 9c0-1.69.494-3.27 1.353-4.621v9.242A8.576 8.576 0 0 1-.091 9Z" clip-rule="evenodd"/></svg>