<svg width="250" height="250" viewBox="0 0 250 250" fill="none" xmlns="http://www.w3.org/2000/svg">
<path d="M178.68 28H71.3204C47.3952 28 28 47.3952 28 71.3204V178.68C28 202.605 47.3952 222 71.3204 222H178.68C202.605 222 222 202.605 222 178.68V71.3204C222 47.3952 202.605 28 178.68 28Z" fill="#061D27"/>
<g filter="url(#filter0_dddddd_2112_5052)">
<path d="M80.6078 162.504C79.7039 161.91 78.6386 162.985 79.3408 163.808C89.3771 175.562 103.869 183.397 120.206 184.691C120.294 184.698 120.379 184.706 120.466 184.71C120.815 184.736 121.166 184.756 121.518 184.775C121.839 184.793 122.157 184.809 122.478 184.821C122.718 184.832 122.963 184.84 123.208 184.847C123.804 184.862 124.405 184.878 125.008 184.878C125.613 184.878 126.209 184.866 126.809 184.847C127.054 184.84 127.295 184.828 127.54 184.821C127.861 184.809 128.182 184.79 128.499 184.775C128.851 184.756 129.199 184.732 129.55 184.71C129.639 184.702 129.723 184.695 129.81 184.691C146.149 183.397 160.642 175.564 170.678 163.807C171.38 162.983 170.315 161.909 169.412 162.502C157.188 170.532 141.769 175.323 125.012 175.323C108.257 175.323 92.8329 170.533 80.6078 162.504Z" fill="url(#paint0_linear_2112_5052)"/>
<path d="M80.6078 162.504C79.7039 161.91 78.6386 162.985 79.3408 163.808C89.3771 175.562 103.869 183.397 120.206 184.691C120.294 184.698 120.379 184.706 120.466 184.71C120.815 184.736 121.166 184.756 121.518 184.775C121.839 184.793 122.157 184.809 122.478 184.821C122.718 184.832 122.963 184.84 123.208 184.847C123.804 184.862 124.405 184.878 125.008 184.878C125.613 184.878 126.209 184.866 126.809 184.847C127.054 184.84 127.295 184.828 127.54 184.821C127.861 184.809 128.182 184.79 128.499 184.775C128.851 184.756 129.199 184.732 129.55 184.71C129.639 184.702 129.723 184.695 129.81 184.691C146.149 183.397 160.642 175.564 170.678 163.807C171.38 162.983 170.315 161.909 169.412 162.502C157.188 170.532 141.769 175.323 125.012 175.323C108.257 175.323 92.8329 170.533 80.6078 162.504Z" fill="white"/>
<path d="M81.298 99.618C89.6775 85.108 101.535 74.1508 114.601 67.5788C115.567 67.0929 115.168 65.6328 114.104 65.8297C98.9045 68.6434 84.8746 77.277 75.586 90.7789C75.5362 90.8515 75.4866 90.9204 75.4369 90.993C75.2381 91.2836 75.0469 91.5741 74.8557 91.8685C74.6798 92.1361 74.5078 92.4077 74.3358 92.6791C74.2057 92.8855 74.0758 93.0882 73.9458 93.2946C73.6323 93.8031 73.3226 94.3154 73.0205 94.8392C72.7185 95.3592 72.4318 95.8868 72.145 96.4106C72.0303 96.6247 71.9156 96.8389 71.8048 97.0568C71.6556 97.3397 71.5104 97.6264 71.365 97.9132C71.2082 98.2267 71.0477 98.5402 70.8986 98.858C70.8604 98.9342 70.826 99.0143 70.7878 99.0906C63.7387 113.886 63.2758 130.355 68.4375 144.924C68.7987 145.943 70.2621 145.558 70.1999 144.479C69.3593 129.878 72.9184 114.132 81.298 99.618Z" fill="url(#paint1_linear_2112_5052)"/>
<path d="M81.298 99.618C89.6775 85.108 101.535 74.1508 114.601 67.5788C115.567 67.0929 115.168 65.6328 114.104 65.8297C98.9045 68.6434 84.8746 77.277 75.586 90.7789C75.5362 90.8515 75.4866 90.9204 75.4369 90.993C75.2381 91.2836 75.0469 91.5741 74.8557 91.8685C74.6798 92.1361 74.5078 92.4077 74.3358 92.6791C74.2057 92.8855 74.0758 93.0882 73.9458 93.2946C73.6323 93.8031 73.3226 94.3154 73.0205 94.8392C72.7185 95.3592 72.4318 95.8868 72.145 96.4106C72.0303 96.6247 71.9156 96.8389 71.8048 97.0568C71.6556 97.3397 71.5104 97.6264 71.365 97.9132C71.2082 98.2267 71.0477 98.5402 70.8986 98.858C70.8604 98.9342 70.826 99.0143 70.7878 99.0906C63.7387 113.886 63.2758 130.355 68.4375 144.924C68.7987 145.943 70.2621 145.558 70.1999 144.479C69.3593 129.878 72.9184 114.132 81.298 99.618Z" fill="white"/>
<path d="M179.225 99.0906C179.187 99.0143 179.152 98.9333 179.114 98.857C178.961 98.5437 178.805 98.2264 178.647 97.9129C178.502 97.6262 178.357 97.3432 178.208 97.0565C178.097 96.8424 177.982 96.6244 177.868 96.4103C177.584 95.8827 177.294 95.3589 176.992 94.839C176.689 94.3189 176.381 93.8029 176.067 93.2943C175.941 93.0879 175.807 92.8815 175.677 92.6788C175.505 92.4073 175.332 92.1397 175.157 91.8682C174.966 91.5738 174.77 91.2795 174.575 90.9927C174.526 90.9201 174.476 90.8512 174.426 90.7786C165.138 77.2771 151.106 68.6437 135.908 65.8297C134.845 65.6328 134.446 67.0927 135.413 67.5787C148.478 74.1508 160.335 85.1078 168.711 99.618C177.091 114.132 180.65 129.878 179.809 144.478C179.746 145.558 181.21 145.943 181.571 144.924C186.734 130.355 186.274 113.885 179.225 99.0906Z" fill="url(#paint2_linear_2112_5052)"/>
<path d="M179.225 99.0906C179.187 99.0143 179.152 98.9333 179.114 98.857C178.961 98.5437 178.805 98.2264 178.647 97.9129C178.502 97.6262 178.357 97.3432 178.208 97.0565C178.097 96.8424 177.982 96.6244 177.868 96.4103C177.584 95.8827 177.294 95.3589 176.992 94.839C176.689 94.3189 176.381 93.8029 176.067 93.2943C175.941 93.0879 175.807 92.8815 175.677 92.6788C175.505 92.4073 175.332 92.1397 175.157 91.8682C174.966 91.5738 174.77 91.2795 174.575 90.9927C174.526 90.9201 174.476 90.8512 174.426 90.7786C165.138 77.2771 151.106 68.6437 135.908 65.8297C134.845 65.6328 134.446 67.0927 135.413 67.5787C148.478 74.1508 160.335 85.1078 168.711 99.618C177.091 114.132 180.65 129.878 179.809 144.478C179.746 145.558 181.21 145.943 181.571 144.924C186.734 130.355 186.274 113.885 179.225 99.0906Z" fill="white"/>
</g>
<defs>
<filter id="filter0_dddddd_2112_5052" x="43.7331" y="65.8115" width="162.546" height="166.266" filterUnits="userSpaceOnUse" color-interpolation-filters="sRGB">
<feFlood flood-opacity="0" result="BackgroundImageFix"/>
<feColorMatrix in="SourceAlpha" type="matrix" values="0 0 0 0 0 0 0 0 0 0 0 0 0 0 0 0 0 0 127 0" result="hardAlpha"/>
<feOffset dy="0.718364"/>
<feGaussianBlur stdDeviation="0.293876"/>
<feColorMatrix type="matrix" values="0 0 0 0 0 0 0 0 0 0 0 0 0 0 0 0 0 0 0.0253031 0"/>
<feBlend mode="normal" in2="BackgroundImageFix" result="effect1_dropShadow_2112_5052"/>
<feColorMatrix in="SourceAlpha" type="matrix" values="0 0 0 0 0 0 0 0 0 0 0 0 0 0 0 0 0 0 127 0" result="hardAlpha"/>
<feOffset dy="1.72633"/>
<feGaussianBlur stdDeviation="0.706225"/>
<feColorMatrix type="matrix" values="0 0 0 0 0 0 0 0 0 0 0 0 0 0 0 0 0 0 0.0363503 0"/>
<feBlend mode="normal" in2="effect1_dropShadow_2112_5052" result="effect2_dropShadow_2112_5052"/>
<feColorMatrix in="SourceAlpha" type="matrix" values="0 0 0 0 0 0 0 0 0 0 0 0 0 0 0 0 0 0 127 0" result="hardAlpha"/>
<feOffset dy="3.25052"/>
<feGaussianBlur stdDeviation="1.32976"/>
<feColorMatrix type="matrix" values="0 0 0 0 0 0 0 0 0 0 0 0 0 0 0 0 0 0 0.045 0"/>
<feBlend mode="normal" in2="effect2_dropShadow_2112_5052" result="effect3_dropShadow_2112_5052"/>
<feColorMatrix in="SourceAlpha" type="matrix" values="0 0 0 0 0 0 0 0 0 0 0 0 0 0 0 0 0 0 127 0" result="hardAlpha"/>
<feOffset dy="5.79838"/>
<feGaussianBlur stdDeviation="2.37206"/>
<feColorMatrix type="matrix" values="0 0 0 0 0 0 0 0 0 0 0 0 0 0 0 0 0 0 0.0536497 0"/>
<feBlend mode="normal" in2="effect3_dropShadow_2112_5052" result="effect4_dropShadow_2112_5052"/>
<feColorMatrix in="SourceAlpha" type="matrix" values="0 0 0 0 0 0 0 0 0 0 0 0 0 0 0 0 0 0 127 0" result="hardAlpha"/>
<feOffset dy="10.8452"/>
<feGaussianBlur stdDeviation="4.43668"/>
<feColorMatrix type="matrix" values="0 0 0 0 0 0 0 0 0 0 0 0 0 0 0 0 0 0 0.0646969 0"/>
<feBlend mode="normal" in2="effect4_dropShadow_2112_5052" result="effect5_dropShadow_2112_5052"/>
<feColorMatrix in="SourceAlpha" type="matrix" values="0 0 0 0 0 0 0 0 0 0 0 0 0 0 0 0 0 0 127 0" result="hardAlpha"/>
<feOffset dy="25.9594"/>
<feGaussianBlur stdDeviation="10.6198"/>
<feColorMatrix type="matrix" values="0 0 0 0 0 0 0 0 0 0 0 0 0 0 0 0 0 0 0.09 0"/>
<feBlend mode="normal" in2="effect5_dropShadow_2112_5052" result="effect6_dropShadow_2112_5052"/>
<feBlend mode="normal" in="SourceGraphic" in2="effect6_dropShadow_2112_5052" result="shape"/>
</filter>
<linearGradient id="paint0_linear_2112_5052" x1="125.004" y1="65.8115" x2="125.004" y2="184.878" gradientUnits="userSpaceOnUse">
<stop stop-color="white"/>
<stop offset="1" stop-color="white" stop-opacity="0"/>
</linearGradient>
<linearGradient id="paint1_linear_2112_5052" x1="125.005" y1="65.8115" x2="125.005" y2="184.878" gradientUnits="userSpaceOnUse">
<stop stop-color="white"/>
<stop offset="1" stop-color="white" stop-opacity="0"/>
</linearGradient>
<linearGradient id="paint2_linear_2112_5052" x1="125.005" y1="65.8115" x2="125.005" y2="184.878" gradientUnits="userSpaceOnUse">
<stop stop-color="white"/>
<stop offset="1" stop-color="white" stop-opacity="0"/>
</linearGradient>
</defs>
</svg>
