<svg width="250" height="250" viewBox="0 0 250 250" fill="none" xmlns="http://www.w3.org/2000/svg">
<path d="M32.7266 93.3755C50.3725 90.2709 68.1654 88.0707 86.0356 86.7832C86.6627 80.191 86.9763 73.5673 87.9171 67.0065C77.2553 68.2621 66.5935 70.1456 55.6181 72.3431C56.5588 67.9482 57.8132 63.8673 58.7539 59.4725C68.8603 56.6767 79.1216 54.4755 89.485 52.8802C90.4257 46.288 91.3665 39.6958 92.6208 33.1035C77.2957 36.5023 62.446 41.7738 48.4057 48.7993C41.2907 62.9232 36.021 77.9049 32.7266 93.3755V93.3755Z" fill="#B1B3B5"/>
<path d="M30.8449 103.735C28.6187 118.405 28.6187 133.327 30.8449 147.997C37.4302 148.907 44.2976 149.566 50.9142 150.194C49.8704 139.975 49.4515 129.701 49.6599 119.43C54.3636 119.43 59.381 119.117 64.0847 119.117C63.7759 129.904 64.09 140.699 65.0254 151.45C71.6107 152.078 78.4781 152.392 85.0633 152.706C84.154 134.929 84.154 117.117 85.0633 99.3398C67.2205 99.9363 49.0014 101.506 30.8449 103.735Z" fill="#B1B3B5"/>
<path d="M92.9033 218.314C89.8039 200.649 87.606 182.838 86.318 164.949C79.7328 164.289 73.1476 164.007 66.5937 163.034C67.8167 173.707 69.7295 184.38 71.9246 195.367C67.5345 194.425 63.4579 193.17 59.0677 192.228C56.2749 182.111 54.076 171.839 52.4825 161.464C45.8659 160.554 39.2807 159.581 32.7268 158.325C36.1217 173.677 41.3875 188.553 48.4059 202.619C62.5292 209.681 77.4769 214.954 92.9033 218.314V218.314Z" fill="#F9A51A"/>
<path d="M151.888 86.124C134.025 85.2136 116.128 85.2136 98.2651 86.124C98.5787 79.5318 98.8923 72.657 99.5195 66.0647C110.248 65.1188 121.022 64.8043 131.787 65.123C131.787 60.4143 131.474 55.3916 131.474 50.6828C121.213 50.3173 110.939 50.7371 100.742 51.9385C101.401 45.3149 101.997 38.4401 102.969 31.8479C117.728 29.6191 132.738 29.6191 147.498 31.8479C149.348 49.7097 150.916 67.8541 151.888 86.124Z" fill="#B1B3B5"/>
<path d="M157.532 33.1035C160.635 50.768 162.833 68.5799 164.117 86.4693C170.703 87.0971 177.288 87.3797 183.842 88.3528C182.619 77.6796 180.706 67.0065 178.511 56.0194C182.901 56.9612 186.978 58.2168 191.368 59.1586C194.161 69.2758 196.359 79.5479 197.953 89.9224C204.57 90.8327 211.155 91.8059 217.709 93.0615C214.318 77.7187 209.052 62.8526 202.03 48.7993C187.872 41.8187 172.934 36.5497 157.532 33.1035V33.1035Z" fill="#37B34A"/>
<path d="M97.9517 98.3667C97.2827 116.574 97.2827 134.781 97.9517 152.988C104.537 153.302 111.404 153.302 117.99 153.302V118.457H132.446V153.302C139.031 153.302 145.898 152.988 152.484 152.988C153.153 134.781 153.153 116.574 152.484 98.3667C134.338 97.7808 116.16 97.7808 97.9517 98.3667Z" fill="#27A8E0"/>
<path d="M147.184 220.198C149.275 201.991 150.843 183.784 151.888 165.577C145.303 165.89 138.718 166.204 132.132 166.204C132.132 177.819 131.819 189.434 131.505 201.049H118.648C118.335 189.434 117.99 177.819 117.99 166.204C111.404 166.204 104.819 165.89 98.2654 165.577C99.1643 183.784 100.732 201.991 102.969 220.198C117.628 222.364 132.525 222.364 147.184 220.198Z" fill="#27A8E0"/>
<path d="M201.653 202.619C208.808 188.611 214.08 173.717 217.333 158.325C210.747 159.581 204.131 160.554 197.577 161.464C195.983 171.839 193.784 182.111 190.992 192.228C186.602 193.484 182.525 194.425 178.135 195.367C180.33 184.694 182.18 174.021 183.466 163.034L163.71 164.949C162.46 182.841 160.262 200.655 157.125 218.314C172.56 214.949 187.517 209.676 201.653 202.619V202.619Z" fill="#37B34A"/>
<path d="M184.814 100.25C178.229 99.6224 171.33 99.3399 164.745 99.026C165.685 116.802 165.685 134.616 164.745 152.392C171.33 152.046 178.229 151.733 184.814 151.136C186.382 134.21 186.382 117.176 184.814 100.25V100.25Z" fill="#37B34A"/>
<path d="M199.239 101.506C200.807 117.687 200.807 133.982 199.239 150.163C205.824 149.535 212.723 148.907 219.308 147.965C221.503 133.293 221.503 118.376 219.308 103.703C212.723 102.793 205.793 102.165 199.239 101.506Z" fill="#37B34A"/>
</svg>
