<svg width="250" height="250" viewBox="0 0 250 250" fill="none" xmlns="http://www.w3.org/2000/svg">
<path d="M48.3215 207.501H28V105.5C28 95.0269 32.2983 88.6947 35.8934 85.1784C43.8656 77.3578 54.6871 77.1274 56.4513 77.1274H88.4189C99.8315 77.1274 106.394 81.7349 109.992 85.6149C117.104 93.3537 117.182 103.357 117.025 106.015V144.473C117.025 155.573 112.49 162.139 108.74 165.655C101.002 172.924 90.7651 173.082 88.3401 173.003H48.3215V207.501ZM89.1221 152.63C90.2134 152.63 93.2658 152.318 94.9058 150.75C96.1577 149.577 96.7851 147.468 96.7851 144.385V104.918C96.7851 103.827 96.5517 100.932 94.9876 99.2889C93.472 97.7248 90.6105 97.4095 88.4219 97.4095H56.2907C48.3185 97.4095 48.3185 103.427 48.3185 105.461V152.596L89.1221 152.63ZM201.678 42.4984H222V144.582C222 155.055 217.702 161.387 214.107 164.903C206.134 172.724 195.313 172.954 193.549 172.954H161.581C150.168 172.954 143.606 168.347 140.008 164.467C132.896 156.728 132.818 146.725 132.975 144.067V105.661C132.975 94.5601 137.51 87.9944 141.26 84.4782C148.998 77.2093 159.235 77.0516 161.66 77.1304H201.678V42.4984ZM160.878 97.4156C159.787 97.4156 156.734 97.7278 155.094 99.2949C153.842 100.468 153.215 102.578 153.215 105.661V145.127C153.215 146.219 153.448 149.114 155.012 150.756C156.528 152.321 159.39 152.636 161.578 152.636H193.703C201.754 152.557 201.754 146.573 201.754 144.506V97.4156H160.878Z" fill="#25C151"/>
</svg>
