<svg width="250" height="250" viewBox="0 0 250 250" fill="none" xmlns="http://www.w3.org/2000/svg">
<g clip-path="url(#clip0_1789_6918)">
<path d="M87.1929 221.895L90.7827 199.011L82.7862 198.825H44.6016L71.1379 29.9651C71.2169 29.4491 71.478 28.9788 71.8736 28.64C72.2693 28.3011 72.7731 28.1162 73.2932 28.1189H137.678C159.052 28.1189 173.803 32.5827 181.505 41.3932C185.115 45.5264 187.415 49.8455 188.526 54.5986C189.693 59.5859 189.714 65.5446 188.575 72.812L188.492 73.3424V77.9991L192.103 80.0519C194.859 81.4533 197.336 83.349 199.413 85.6454C202.502 89.1793 204.499 93.6706 205.343 98.9955C206.215 104.472 205.927 110.989 204.499 118.366C202.852 126.853 200.188 134.244 196.592 140.293C193.418 145.711 189.151 150.403 184.065 154.07C179.288 157.473 173.611 160.056 167.193 161.709C160.974 163.335 153.884 164.155 146.107 164.155H141.096C137.513 164.155 134.033 165.45 131.301 167.771C128.573 170.117 126.763 173.359 126.194 176.919L125.817 178.979L119.474 219.311L119.186 220.792C119.111 221.261 118.98 221.495 118.788 221.653C118.602 221.806 118.37 221.891 118.129 221.895H87.1929Z" fill="#253B80"/>
<path d="M195.522 73.8795C195.33 75.1126 195.11 76.3732 194.863 77.6682C186.372 121.418 157.324 136.531 120.224 136.531H101.334C96.7966 136.531 92.9734 139.838 92.2664 144.329L82.595 205.885L79.8562 223.334C79.7471 224.026 79.7888 224.734 79.9783 225.408C80.1679 226.083 80.5008 226.708 80.9542 227.241C81.4075 227.774 81.9706 228.202 82.6046 228.495C83.2386 228.789 83.9285 228.941 84.6267 228.941H118.13C122.097 228.941 125.468 226.048 126.092 222.122L126.422 220.413L132.73 180.239L133.135 178.035C133.753 174.095 137.13 171.201 141.097 171.201H146.108C178.568 171.201 203.978 157.975 211.405 119.702C214.508 103.714 212.902 90.3639 204.692 80.9747C202.09 78.0703 198.983 75.6659 195.522 73.8795Z" fill="#179BD7"/>
<path d="M186.639 70.3253C183.928 69.5382 181.17 68.9239 178.382 68.486C172.872 67.6363 167.304 67.2285 161.73 67.2667H111.265C109.345 67.2652 107.487 67.9533 106.028 69.2066C104.569 70.4599 103.605 72.1957 103.31 74.1002L92.5745 142.338L92.2656 144.329C92.6001 142.157 93.6982 140.177 95.3613 138.746C97.0244 137.316 99.1428 136.53 101.333 136.531H120.223C157.323 136.531 186.371 121.411 194.862 77.6685C195.116 76.3734 195.329 75.1128 195.521 73.8798C193.281 72.7006 190.946 71.7121 188.54 70.9246C187.91 70.7146 187.276 70.5148 186.639 70.3253Z" fill="#222D65"/>
<path d="M103.31 74.0997C103.603 72.1947 104.567 70.4581 106.026 69.2054C107.486 67.9528 109.345 67.2672 111.266 67.2732H161.73C167.709 67.2732 173.289 67.6658 178.382 68.4924C181.829 69.036 185.228 69.8491 188.548 70.9241C191.053 71.7576 193.38 72.7427 195.529 73.8793C198.055 57.7118 195.508 46.7039 186.798 36.7361C177.195 25.7626 159.863 21.0646 137.685 21.0646H73.3009C68.7707 21.0646 64.9062 24.3711 64.2061 28.8693L37.3883 199.465C37.2634 200.257 37.3109 201.067 37.5276 201.839C37.7443 202.61 38.1251 203.326 38.6436 203.936C39.1622 204.546 39.8062 205.036 40.5316 205.373C41.2569 205.709 42.0462 205.884 42.8452 205.885H82.5948L92.5751 142.338L103.31 74.0997Z" fill="#253B80"/>
</g>
<defs>
<clipPath id="clip0_1789_6918">
<rect width="176" height="208" fill="white" transform="translate(37 21)"/>
</clipPath>
</defs>
</svg>
