<svg width="250" height="250" viewBox="0 0 250 250" fill="none" xmlns="http://www.w3.org/2000/svg">
<path fill-rule="evenodd" clip-rule="evenodd" d="M103.325 28L44.5304 43.3987L28.3274 102.524L48.5923 123.331L28 143.794L43.2492 203.178L101.789 219.535L122.385 199.068L142.65 219.87L201.444 204.471L217.643 145.342L197.382 124.543L217.975 104.08L202.725 44.6921L144.178 28.3355L123.589 48.7984L103.325 28ZM67.2446 54.772L98.2159 46.6563L111.759 60.5597L92.0079 80.186L67.2446 54.772ZM135.233 60.7456L148.995 47.0726L179.833 55.6895L154.666 80.6952L135.233 60.7456ZM46.8827 97.6702L55.4146 66.5292L80.1698 91.9432L60.4222 111.57L46.8827 97.6662V97.6702ZM166.302 92.6465L191.469 67.6326L199.496 98.9151L185.738 112.592L166.302 92.6465ZM103.648 92.1332L123.399 72.5068L142.828 92.4565L123.08 112.083L103.648 92.1332ZM72.0663 123.517L91.8139 103.89L111.254 123.84L91.4986 143.466L72.0663 123.517ZM134.724 124.03L154.472 104.404L173.904 124.353L154.153 143.98L134.724 124.03ZM46.4704 148.955L60.2363 135.274L79.6646 155.228L54.5052 180.229L46.4704 148.955ZM103.139 155.414L122.89 135.787L142.323 155.737L122.575 175.363L103.139 155.414ZM165.793 155.931L185.544 136.305L199.088 150.204L190.56 181.345L165.793 155.931ZM66.1412 192.185L91.3046 167.171L110.745 187.12L96.9791 200.801L66.1412 192.185ZM134.215 187.31L153.963 167.684L178.722 193.102L147.755 201.214L134.215 187.31Z" fill="#111111"/>
</svg>
