<svg width="250" height="250" viewBox="0 0 250 250" fill="none" xmlns="http://www.w3.org/2000/svg">
<ellipse cx="125.002" cy="94.024" rx="89.9981" ry="90.024" fill="#394ECE"/>
<path fill-rule="evenodd" clip-rule="evenodd" d="M183.065 90.152C197.97 90.152 210.893 79.5924 210.679 66.3971C199.021 30.1944 165.069 4.00085 125 4C75.2964 4.00106 35.0039 44.3058 35.0039 94.024C35.0039 137.629 65.9977 173.994 107.151 182.277C107.437 179.68 107.583 177.041 107.583 174.368V109.512C107.583 98.8198 116.249 90.152 126.937 90.152H183.065Z" fill="#5E6FCE"/>
<path fill-rule="evenodd" clip-rule="evenodd" d="M107.151 182.277C65.9976 173.994 35.0037 137.63 35.0037 94.024C35.0037 44.3057 75.2962 4.001 125 4C124.999 4 124.999 4 124.998 4C75.2965 4 35.0038 44.3051 35 94.024L35.0038 246H35.9715C72.849 246 103.216 218.117 107.151 182.277Z" fill="#828FD0"/>
</svg>
