<svg width="250" height="250" viewBox="0 0 250 250" fill="none" xmlns="http://www.w3.org/2000/svg">
<g clip-path="url(#clip0_1789_7042)">
<path d="M219.262 144.355C218.122 140.904 215.138 138.5 211.279 137.923C209.459 137.652 207.375 137.767 204.909 138.276C200.61 139.163 197.421 139.501 195.093 139.566C203.878 124.73 211.022 107.812 215.134 91.8864C221.784 66.135 218.231 54.4037 214.078 49.0974C203.089 35.0521 187.055 27.5068 167.712 27.276C157.394 27.1498 148.335 29.1875 143.61 30.6529C139.21 29.8764 134.479 29.4429 129.516 29.3627C120.211 29.2143 111.99 31.2431 104.965 35.4129C101.076 34.0974 94.8341 32.243 87.626 31.0597C70.6729 28.2759 57.0093 30.4451 47.015 37.507C34.9129 46.0574 29.3027 60.9133 30.3403 81.662C30.6698 88.2496 34.354 108.293 40.155 127.302C43.4889 138.228 47.0439 147.301 50.7215 154.271C55.9368 164.156 61.5173 169.976 67.7821 172.067C71.2934 173.237 77.6732 174.056 84.3834 168.466C85.2339 169.497 86.3687 170.521 87.8746 171.472C89.7872 172.678 92.1258 173.664 94.4615 174.248C102.879 176.352 110.763 175.826 117.489 172.876C117.531 174.073 117.563 175.216 117.59 176.203C117.634 177.805 117.679 179.375 117.737 180.843C118.136 190.771 118.811 198.491 120.812 203.892C120.922 204.189 121.07 204.642 121.225 205.122C122.224 208.179 123.893 213.297 128.14 217.305C132.537 221.457 137.856 222.73 142.728 222.73C145.171 222.73 147.503 222.409 149.547 221.971C156.836 220.409 165.113 218.029 171.101 209.501C176.763 201.439 179.515 189.296 180.013 170.163C180.077 169.622 180.137 169.106 180.194 168.613L180.312 167.602L181.646 167.72L181.99 167.743C189.413 168.081 198.49 166.507 204.065 163.917C208.47 161.872 222.585 154.418 219.262 144.355Z" fill="black"/>
<path d="M206.57 146.312C184.497 150.866 182.979 143.392 182.979 143.392C206.284 108.803 216.027 64.8985 207.62 54.153C184.683 24.8413 144.98 38.704 144.317 39.0633L144.104 39.1019C139.743 38.1962 134.863 37.6572 129.378 37.5674C119.391 37.4041 111.815 40.1864 106.066 44.547C106.066 44.547 35.2388 15.3622 38.5333 81.2518C39.234 95.2688 58.6199 187.314 81.742 159.512C90.1933 149.345 98.3596 140.75 98.3596 140.75C102.415 143.444 107.27 144.819 112.36 144.326L112.756 143.99C112.633 145.252 112.689 146.487 112.914 147.948C106.957 154.605 108.708 155.773 96.8003 158.225C84.7508 160.709 91.8291 165.131 96.4507 166.287C102.053 167.688 115.015 169.673 123.773 157.41L123.424 158.81C125.757 160.679 127.396 170.971 127.122 180.302C126.847 189.632 126.664 196.038 128.502 201.041C130.342 206.045 132.174 217.302 147.829 213.948C160.908 211.144 167.687 203.878 168.63 191.759C169.299 183.143 170.813 184.417 170.908 176.714L172.123 173.067C173.524 161.388 172.346 157.62 180.404 159.372L182.363 159.544C188.293 159.814 196.057 158.59 200.613 156.472C210.423 151.918 216.242 144.314 206.568 146.312H206.57Z" fill="#336791"/>
<path d="M110.212 87.5203C108.223 87.2434 106.421 87.4995 105.51 88.1899C104.998 88.5782 104.839 89.028 104.796 89.3376C104.682 90.1579 105.256 91.065 105.609 91.5327C106.608 92.8571 108.068 93.7672 109.512 93.9676C109.721 93.9973 109.93 94.0107 110.137 94.0107C112.545 94.0107 114.735 92.1348 114.928 90.7503C115.17 89.0161 112.653 87.8603 110.212 87.521V87.5203ZM176.106 87.5752C175.916 86.216 173.498 85.8285 171.203 86.1477C168.911 86.4669 166.689 87.5017 166.875 88.864C167.023 89.9233 168.936 91.7317 171.2 91.7317C171.391 91.7317 171.584 91.7191 171.778 91.6916C173.29 91.4822 174.398 90.5224 174.925 89.9693C175.727 89.126 176.192 88.1862 176.106 87.5752Z" fill="white"/>
<path d="M213.915 145.795C213.074 143.249 210.365 142.43 205.864 143.36C192.501 146.118 187.715 144.208 186.144 143.05C196.531 127.223 205.076 108.092 209.686 90.2418C211.869 81.7864 213.075 73.9338 213.174 67.5333C213.283 60.5084 212.087 55.3461 209.62 52.1926C199.673 39.4799 185.074 32.6607 167.402 32.4736C155.254 32.337 144.989 35.4467 142.999 36.3212C138.809 35.2789 134.241 34.639 129.267 34.5574C120.147 34.4097 112.264 36.5936 105.737 41.0455C102.902 39.9899 95.5749 37.4741 86.6144 36.0302C71.1235 33.5359 58.8136 35.4259 50.029 41.6505C39.5471 49.0785 34.708 62.3562 35.6454 81.1138C35.9608 87.4246 39.556 106.839 45.2293 125.431C52.6972 149.901 60.8152 163.754 69.3563 166.604C70.3561 166.938 71.5087 167.171 72.7801 167.171C75.8958 167.171 79.7158 165.766 83.6902 160.987C88.5379 155.17 93.5525 149.495 98.7277 143.968C102.085 145.77 105.774 146.777 109.547 146.878C109.554 146.977 109.564 147.075 109.573 147.173C108.923 147.948 108.287 148.734 107.665 149.53C105.051 152.849 104.507 153.54 96.0929 155.273C93.6994 155.768 87.3425 157.078 87.249 161.535C87.1481 166.405 94.7637 168.45 95.6313 168.667C98.655 169.424 101.568 169.797 104.346 169.797C111.102 169.797 117.048 167.576 121.799 163.279C121.653 180.639 122.377 197.746 124.461 202.958C126.168 207.225 130.338 217.653 143.508 217.652C145.441 217.652 147.568 217.427 149.908 216.925C163.654 213.978 169.624 207.901 171.933 194.504C173.168 187.344 175.289 170.247 176.286 161.076C178.391 161.733 181.101 162.034 184.03 162.033C190.14 162.033 197.19 160.735 201.611 158.682C206.578 156.375 215.541 150.714 213.915 145.795ZM181.18 83.8234C181.135 86.5308 180.763 88.9887 180.368 91.5543C179.942 94.3136 179.503 97.1664 179.392 100.629C179.283 104 179.704 107.504 180.111 110.892C180.933 117.737 181.777 124.783 178.511 131.736C177.968 130.775 177.485 129.781 177.063 128.76C176.657 127.776 175.776 126.195 174.555 124.006C169.806 115.487 158.684 95.537 164.377 87.3964C166.073 84.9733 170.377 82.482 181.18 83.8234ZM168.085 37.9559C183.919 38.3055 196.444 44.2302 205.312 55.5644C212.113 64.2581 204.624 103.816 182.942 137.942C182.724 137.665 182.505 137.389 182.285 137.113L182.01 136.77C187.613 127.515 186.517 118.358 185.542 110.24C185.141 106.908 184.763 103.761 184.859 100.805C184.959 97.6727 185.373 94.9854 185.774 92.3872C186.266 89.1854 186.767 85.8723 186.629 81.9668C186.732 81.557 186.773 81.073 186.719 80.4984C186.367 76.7533 182.092 65.5446 173.378 55.3996C168.612 49.8505 161.662 43.6408 152.171 39.4524C156.253 38.6062 161.835 37.817 168.085 37.9559ZM79.4842 157.489C75.1053 162.755 72.0817 161.746 71.0871 161.415C64.6078 159.253 57.0895 145.555 50.461 123.834C44.7253 105.039 41.3736 86.1396 41.1079 80.8399C40.2707 64.0792 44.3327 52.3983 53.1818 46.121C67.5833 35.9062 91.2606 42.0202 100.775 45.121C100.638 45.2561 100.496 45.3823 100.361 45.5197C84.7478 61.2901 85.1182 88.2345 85.1568 89.8818C85.1553 90.5172 85.2087 91.4169 85.2815 92.6544C85.5502 97.1865 86.0504 105.621 84.7145 115.173C83.4735 124.049 86.2092 132.737 92.2187 139.009C92.8355 139.651 93.4837 140.263 94.161 140.841C91.4862 143.707 85.6726 150.043 79.4842 157.489ZM96.1679 135.224C91.3244 130.168 89.1245 123.137 90.1317 115.93C91.5418 105.84 91.0216 97.0521 90.7418 92.3308C90.7024 91.6701 90.6675 91.091 90.6475 90.6345C92.9282 88.6116 103.498 82.9475 111.035 84.6749C114.475 85.4625 116.571 87.8054 117.442 91.8349C121.952 112.697 118.039 121.392 114.895 128.38C114.247 129.819 113.635 131.18 113.112 132.588L112.707 133.676C111.681 136.427 110.727 138.985 110.135 141.414C104.986 141.399 99.9768 139.199 96.1679 135.223V135.224ZM96.9583 163.359C95.4547 162.983 94.1024 162.331 93.309 161.789C93.9718 161.478 95.1511 161.053 97.1966 160.631C107.095 158.594 108.624 157.155 111.962 152.915C112.728 151.943 113.595 150.841 114.797 149.499L114.798 149.498C116.588 147.493 117.406 147.833 118.891 148.449C120.094 148.947 121.266 150.455 121.741 152.115C121.966 152.899 122.218 154.387 121.392 155.545C114.418 165.311 104.256 165.186 96.9583 163.359ZM148.762 211.576C136.653 214.171 132.365 207.991 129.54 200.926C127.716 196.365 126.82 175.798 127.456 153.084C127.464 152.782 127.421 152.49 127.338 152.215C127.263 151.673 127.15 151.137 126.999 150.61C126.054 147.305 123.749 144.541 120.984 143.395C119.886 142.94 117.87 142.105 115.448 142.724C115.964 140.595 116.86 138.191 117.832 135.587L118.239 134.493C118.698 133.258 119.274 131.979 119.882 130.625C123.172 123.314 127.678 113.301 122.788 90.679C120.956 82.2058 114.839 78.068 105.566 79.0293C100.007 79.6047 94.921 81.848 92.3842 83.1345C91.8387 83.4107 91.34 83.6779 90.8739 83.9378C91.5819 75.4007 94.2568 59.4461 104.263 49.3517C110.563 42.9972 118.954 39.8585 129.177 40.0278C149.32 40.3574 162.237 50.6968 169.527 59.3133C175.808 66.7375 179.21 74.2167 180.567 78.2506C170.359 77.2121 163.415 79.2275 159.896 84.2607C152.239 95.2089 164.085 116.458 169.778 126.67C170.822 128.542 171.723 130.159 172.007 130.847C173.861 135.341 176.261 138.342 178.013 140.532C178.551 141.203 179.072 141.854 179.468 142.422C176.376 143.314 170.822 145.374 171.329 155.671C170.92 160.838 168.018 185.028 166.543 193.575C164.596 204.866 160.442 209.071 148.762 211.577V211.576ZM199.308 153.72C196.147 155.188 190.856 156.289 185.829 156.525C180.278 156.785 177.452 155.903 176.787 155.361C176.475 148.944 178.863 148.274 181.39 147.564C181.787 147.452 182.174 147.343 182.548 147.213C182.781 147.402 183.035 147.59 183.314 147.774C187.776 150.72 195.735 151.037 206.971 148.717L207.094 148.693C205.578 150.11 202.985 152.012 199.308 153.72Z" fill="white"/>
</g>
<defs>
<clipPath id="clip0_1789_7042">
<rect width="190" height="196" fill="white" transform="translate(30 27)"/>
</clipPath>
</defs>
</svg>
