<svg width="250" height="250" viewBox="0 0 250 250" fill="none" xmlns="http://www.w3.org/2000/svg">
<path d="M3 154.124L43.5551 194.574H3V154.124ZM3 144.011L53.6939 194.574H94.2488L3 103.562V144.011ZM3 93.4496L104.388 194.574H144.943L3 53V93.4496ZM53.6939 93.4496L155.082 194.574V154.124L53.6939 53V93.4496ZM104.388 53V93.4496L155.082 144.011V103.562L104.388 53Z" fill="#F0BD4E"/>
<path d="M246.329 178.394C235.939 178.394 225.978 174.276 218.638 166.955L162.25 110.713V194.573H246.329V178.394Z" fill="black"/>
<path d="M186.584 178.394C191.064 178.394 194.695 174.772 194.695 170.304C194.695 165.836 191.064 162.214 186.584 162.214C182.104 162.214 178.473 165.836 178.473 170.304C178.473 174.772 182.104 178.394 186.584 178.394Z" fill="white"/>
<path d="M3 194.574H43.5551L3 154.124V194.574Z" fill="#2A4FF2"/>
<path d="M53.6939 103.562L3 53V93.4496L53.6939 144.011V103.562Z" fill="#2A4FF2"/>
<path d="M3 103.562V144.011L53.6939 194.573V154.124L3 103.562Z" fill="#2A4FF2"/>
<path d="M104.385 103.562L53.6914 53V93.4496L104.385 144.011V103.562Z" fill="#E15B28"/>
<path d="M53.6914 194.574H94.2463L53.6914 154.124V194.574Z" fill="#E15B28"/>
<path d="M53.6914 103.562V144.011L104.385 194.573V154.124L53.6914 103.562Z" fill="#E15B28"/>
</svg>
