<svg xmlns="http://www.w3.org/2000/svg" width="250" height="250" fill="none"><path fill="#0095DE" d="M239.726 72.326a22.404 22.404 0 0 0-4.185-8.86 21.097 21.097 0 0 0-8.617-5.818 10.136 10.136 0 0 0-2.09 2.32c1.02.43 2.017.91 2.986 1.443a37.917 37.917 0 0 1 11.901 10.931M226.929 101.707c-10.123.42-10.951 5.642-19.798 8.177-6.928 1.989-19.119-1.989-27.523 4.755-8.083 6.484-3.591 15.977 1.792 21.897 5.383 5.92 9.542 13.118 4.556 23.852a17.632 17.632 0 0 0 7.569-8.298 17.305 17.305 0 0 0 .962-11.118c-2.069-7.921-10.749-13.627-7.252-18.764 3.729-5.466 13.352-1.068 22.733-3.852 8.416-2.493 10.319-8.93 15.753-10.595a23.745 23.745 0 0 1 9.733-.848 23.633 23.633 0 0 1 9.237 3.139 18.79 18.79 0 0 0-7.688-6.635 19.109 19.109 0 0 0-10.07-1.71"/><path fill="#0095DE" d="M234.128 91.797c4.569 3.098.376 10.57 15.524 13.147-3.046-20.409-15.912-25.198-20.109-26.068a31.847 31.847 0 0 0-10.191-11.41 31.546 31.546 0 0 0-16.21-4.92s-3.11 11.722 14.273 20.362a17.014 17.014 0 0 1-10.157 5.794c-8.105.58-16.397-3.51-25.594-9.393-10.921-7.055-20.075-15.296-42.257-15.342-33.538 0-48.98 35.141-88.353 33.91C9.19 96.56 1.444 65.501 1.444 65.501s5.69 45.963 51.867 45.963 59.947-34.636 87.994-35.187c28.645-.576 42.338 20.5 63.872 20.87 16.022.283 20.335-11.162 28.969-5.305"/><path fill="#0095DE" d="M147.534 121.777c-7.02-14.674-33.737-11.464-46.218-8.025 9.166 1.337 29.369 6.191 36.858 14.903 9.36 10.891 1.17 26.941 9.36 37.831 8.191 10.891 22.817 6.306 31.593 10.318 7.02 3.21 11.895 12.801 13.455 17.196.391-5.35-.234-17.655-5.85-24.074-7.02-8.025-18.136-5.159-29.252-14.33-11.116-9.172-1.17-15.477-9.946-33.819Z"/></svg>