<svg width="250" height="250" viewBox="0 0 250 250" fill="none" xmlns="http://www.w3.org/2000/svg">
<path d="M220 125C220 177.464 177.464 220 125 220C72.5362 220 30 177.464 30 125C30 72.5362 72.5362 30 125 30C177.464 30 220 72.5362 220 125Z" fill="#2CA01C"/>
<path d="M120.699 181.07H107.411V100.381H95.5228C81.9889 100.381 70.9727 111.397 70.9727 124.93C70.9727 138.464 81.9889 149.48 95.5228 149.48H98.9902V162.771H95.5228C74.6585 162.771 57.6836 145.793 57.6836 124.93C57.6836 104.068 74.6596 87.0903 95.5228 87.0903H120.699V181.069V181.07ZM154.341 162.771H129.154V68.7909H142.455V149.48H154.341C167.875 149.48 178.88 138.464 178.88 124.93C178.88 111.397 167.875 100.381 154.341 100.381H150.874V87.0903H154.341C175.203 87.0903 192.181 104.068 192.181 124.93C192.181 145.794 175.203 162.771 154.341 162.771Z" fill="white"/>
</svg>
