<svg width="250" height="250" viewBox="0 0 250 250" fill="none" xmlns="http://www.w3.org/2000/svg">
<path fill-rule="evenodd" clip-rule="evenodd" d="M140.608 71.9123L97.0921 94.5722L110.389 102.04L151.746 77.7918L140.608 71.9123ZM184.211 94.5293L165.043 84.5727L123.34 109.25L140.608 119.163L184.211 94.5293ZM136.723 125.944L119.023 116.031V133.927L106.072 126.76V108.864L93.1204 101.267V153.068L136.896 177.53L136.723 125.944ZM188.528 152.896V101.138L144.925 125.944V177.874L188.528 152.896ZM84.918 91.9973L140.608 63.0714L196.298 92.0402V157.445L141.083 188.989L84.9611 157.66L84.918 91.9973Z" fill="#53BAD3"/>
<path fill-rule="evenodd" clip-rule="evenodd" d="M196.039 40.0252C194.269 35.7336 192.586 31.7423 190.859 27.5794L199.061 24.189L212.315 55.8615L178.857 58.6081C178.857 55.7327 178.383 52.8144 178.124 49.8102L192.413 48.6085C180.681 40.4108 167.101 35.2081 152.869 33.459C140.379 31.682 127.654 32.5162 115.507 35.9082C103.36 39.3002 92.0596 45.1753 82.3277 53.1577C72.5682 60.9793 64.5027 70.6843 58.6175 81.6878C52.7323 92.6914 49.1492 104.766 48.0842 117.183C47.0191 129.6 48.4942 142.103 52.4204 153.938C56.3467 165.773 62.6428 176.696 70.9294 186.047C79.216 195.398 89.3214 202.985 100.637 208.349C111.952 213.714 124.242 216.745 136.768 217.26C149.293 217.776 161.793 215.765 173.516 211.349C185.238 206.932 195.94 200.202 204.976 191.564L211.106 197.959C193.238 215.117 169.671 225.181 144.851 226.252C120.031 227.323 95.6756 219.326 76.3794 203.771C57.0832 188.216 44.1811 166.178 40.1074 141.815C36.0338 117.453 41.0703 92.4505 54.2667 71.5261C61.2595 60.0089 70.565 50.0482 81.6026 42.2655C92.6401 34.4828 105.173 29.0451 118.418 26.2919C131.63 23.2408 145.326 22.8808 158.681 25.2337C172.036 27.5866 184.774 32.6036 196.126 39.9823" fill="#53BAD3"/>
</svg>
