<svg width="250" height="250" viewBox="0 0 250 250" fill="none" xmlns="http://www.w3.org/2000/svg">
<g clip-path="url(#clip0_2155_3975)">
<path d="M245.9 148.4C245.9 163.1 239.8 177.2 228.9 187.2C228.2 187.9 227.1 187.9 226.4 187.2C222.4 183.4 217.7 180.4 212.6 178.3C209.5 177.1 204.5 176.4 204.5 172C204.5 171.1 204.8 170.2 205.2 169.4C205.3 169.3 205.3 169.2 205.4 169.1C209.5 163 212.2 156.1 213.3 148.8V148.7C213.6 146.8 213.8 144.9 213.8 142.9V143C213.4 132.1 204.2 123.6 193.3 124C183 124.4 174.7 132.7 174.3 143C174.4 144.9 174.5 146.8 174.8 148.8V148.9C175.9 156.2 178.6 163.1 182.7 169.2C182.8 169.3 182.8 169.4 182.9 169.5C183.4 170.3 183.6 171.1 183.6 172.1C183.6 176.3 179 176.9 176 178.1C175.1 178.5 174.6 179.6 175 180.5C175.1 180.7 175.2 180.9 175.3 181C176.5 182.4 177.7 183.9 178.9 185.4C182.3 189.9 185.3 194.8 187.7 200L187.8 200.1C187.9 200.2 187.9 200.3 187.9 200.4L188 200.6C188 200.7 188 200.8 188 201C188 201.9 187.4 202.6 186.6 202.8C186.5 202.8 186.4 202.8 186.2 202.8C185.7 202.8 185.3 202.6 185 202.3C174.4 191 162.6 182 147.6 177.6C147.3 177.5 146.9 177.3 146.6 177.1C146.4 177 146.2 176.9 146 176.7C142.5 174.3 141.9 169.9 143.8 166.3C146.5 161.1 149.8 156.4 152 150.9C157.7 136.8 161.2 119.4 151.7 106.1C141.6 91.8 121.9 88.4 107.6 98.5C107.4 98.6 107.3 98.7 107.1 98.9C104.4 100.9 102 103.4 100 106.1C90.5004 119.4 94.0004 136.8 99.7004 150.9C101.9 156.4 105.2 161.1 107.9 166.3C109.8 169.9 109.2 174.3 105.7 176.7L105.1 177.1C104.8 177.3 104.4 177.4 104.1 177.6C89.1004 182 77.3004 191 66.7004 202.3C66.4004 202.6 65.9004 202.8 65.4004 202.8C65.3004 202.8 65.2004 202.8 65.0004 202.8C64.2004 202.6 63.6004 201.9 63.6004 201C63.6004 200.9 63.6004 200.8 63.6004 200.6C63.6004 200.5 63.6004 200.5 63.7004 200.4C63.7004 200.3 63.8004 200.2 63.8004 200.1L63.9004 200C66.3004 194.8 69.2004 189.9 72.7004 185.4C73.8004 183.9 75.0004 182.4 76.3004 181C77.0004 180.3 76.9004 179.1 76.2004 178.5C76.0004 178.4 75.9004 178.2 75.7004 178.2C72.7004 177 68.1004 176.4 68.1004 172.2C68.1004 171.3 68.4004 170.4 68.8004 169.6C68.9004 169.5 68.9004 169.4 69.0004 169.3C73.1004 163.2 75.8004 156.3 76.9004 149V148.9C77.2004 147 77.4004 145.1 77.4004 143.1V143C77.0004 132.1 67.9004 123.6 57.0004 124C46.7004 124.4 38.4004 132.7 38.0004 143C38.1004 144.9 38.2004 146.8 38.5004 148.8V148.9C39.6004 156.2 42.3004 163.1 46.4004 169.2C46.5004 169.3 46.5004 169.4 46.6004 169.5C47.1004 170.3 47.3004 171.1 47.3004 172.1C47.3004 176.5 42.2004 177.2 39.2004 178.4C34.1004 180.5 29.4004 183.5 25.4004 187.3C24.7004 188 23.6004 188 22.9004 187.3C1.70037 167.7 0.200367 134.7 19.4004 113.2C27.9004 103.7 39.6004 97.7 52.3004 96.3C53.0004 96.2 53.5004 95.8 53.8004 95.2C71.0004 54.8 117.2 36.2 157 53.6C175.4 61.7 190.1 76.6 197.9 95.2C198.2 95.8 198.7 96.2 199.4 96.3C225.9 99 245.9 121.5 245.9 148.4Z" fill="#1999E3"/>
</g>
<defs>
<clipPath id="clip0_2155_3975">
<rect width="241" height="156" fill="white" transform="translate(5 47)"/>
</clipPath>
</defs>
</svg>
