<svg width="250" height="250" viewBox="0 0 250 250" fill="none" xmlns="http://www.w3.org/2000/svg">
<g clip-path="url(#clip0_1789_6953)">
<path d="M125 28C105.815 28 87.0613 33.689 71.1097 44.3474C55.1582 55.0059 42.7254 70.1553 35.3837 87.8797C28.042 105.604 26.1211 125.108 29.8639 143.924C33.6066 162.74 42.845 180.024 56.4107 193.589C69.9764 207.155 87.2601 216.393 106.076 220.136C124.892 223.879 144.396 221.958 162.12 214.616C179.845 207.275 194.994 194.842 205.653 178.89C216.311 162.939 222 144.185 222 125C222 99.274 211.78 74.6017 193.589 56.4106C175.398 38.2196 150.726 28 125 28ZM146.689 181.18L126.887 149.25C118.67 137.125 113.953 135.238 108.97 135.238H108.834V181.18H86.6047V120.15H121.902C137.799 120.15 144.4 110.589 144.4 98.0562C144.4 89.4343 139.55 79.0608 125.405 79.0608C108.699 79.0608 108.699 92.2639 108.699 92.2639H121.361L97.7846 111.126L75.5578 92.2639H86.7405C89.8389 73.942 102.773 63.2997 125.136 63.2997C150.6 63.2997 166.63 74.4824 166.63 97.9231C166.63 117.046 152.753 128.775 138.744 132.289C141.573 134.445 145.481 139.968 150.869 148.322L171.347 181.06L146.689 181.18Z" fill="#723080"/>
</g>
<defs>
<clipPath id="clip0_1789_6953">
<rect width="194" height="194" fill="white" transform="translate(28 28)"/>
</clipPath>
</defs>
</svg>
