<svg width="250" height="250" viewBox="0 0 250 250" fill="none" xmlns="http://www.w3.org/2000/svg">
<path fill-rule="evenodd" clip-rule="evenodd" d="M211.581 49.4051C203.74 50.1715 196.123 53.4239 189.48 58.1981C172.762 37.8518 148.228 25 120.872 25C70.5017 25 29.6684 68.5493 29.6684 122.274C29.6684 125.526 29.837 128.735 30.1332 131.904C26.9765 141.336 27.3051 150.407 31.24 152.612C32.1645 153.129 33.2134 153.225 34.3269 152.96C46.3767 191.639 80.5593 219.549 120.872 219.549C171.242 219.549 212.075 176 212.075 122.275C212.075 119.955 211.976 117.659 211.826 115.382C223.021 109.269 232.994 98.5785 237.327 85.4108C244.58 63.3683 231.526 47.4602 211.581 49.4051ZM120.223 36.0775C144.489 36.0775 166.231 47.5837 180.93 65.7508C175.82 71.2515 171.827 77.6656 169.559 84.2558C167.804 89.3569 167.142 94.3908 167.509 99.0252L120.865 136.208C119.46 134.299 117.763 132.812 115.822 131.846C116.47 127.091 116.923 122.048 117.001 116.935C117.259 100.431 113.407 84.9332 101.916 78.786C104.599 67.8864 101.536 60.1376 94.7085 60.8041C88.3575 61.4252 80.6904 69.2357 76.1511 78.9858C63.88 84.4156 54.9853 96.2268 49.3257 105.258C47.3897 108.347 45.6292 111.459 44.0661 114.427C42.8538 114.507 41.553 115.066 40.2249 116.032C42.9083 71.3949 77.6972 36.0775 120.223 36.0775ZM111.934 162.338C109.287 169.887 103.281 174.249 98.7489 172.13C94.4173 170.103 93.0433 162.85 95.5087 155.902C97.9674 148.972 103.491 144.481 108.001 145.923C112.718 147.434 114.573 154.814 111.934 162.338ZM92.9156 82.9519C90.7975 88.8157 86.2888 93.392 82.9805 93.1469C79.788 92.9126 78.9044 88.2437 80.9033 82.7485C82.9005 77.266 87.1265 72.7206 90.4365 72.5935C93.8606 72.4664 95.0269 77.1044 92.9156 82.9519ZM35.0369 142.333C33.0346 141.396 32.8796 136.783 34.6385 132.038C36.3905 127.3 39.4741 123.986 41.5666 124.658C43.7239 125.348 44.0321 129.992 42.1881 134.998C40.3373 140.018 37.1022 143.299 35.0369 142.333ZM120.223 207.084C83.5254 207.084 52.5931 180.781 43.0786 144.89C44.5173 142.587 45.8437 139.88 46.9505 136.867C49.7905 129.134 50.2332 121.939 48.6208 117.863C49.7598 115.785 50.9994 113.655 52.3462 111.537C58.4519 101.947 65.0481 95.1699 72.4547 91.9029C71.7736 99.0797 73.9207 104.431 78.6387 105.107C83.7008 105.833 90.2594 101.065 95.3351 93.5301C101.512 98.2099 105.05 107.341 104.608 122.032C104.504 125.461 104.187 128.867 103.755 132.142C96.9764 135.287 90.6017 142.912 87.135 152.619C82.0117 166.967 84.4653 182.428 93.3549 187.41C103.149 192.897 116.78 183.738 122.755 166.58C124.553 161.417 125.353 156.385 125.324 151.798L174.824 114.959C178.047 117.906 182.29 119.944 187.526 120.692C191.607 121.275 195.966 120.97 200.366 119.895C200.376 120.458 200.393 121.015 200.393 121.58C200.391 168.801 164.499 207.084 120.223 207.084ZM216.022 85.0457C212.804 94.6832 202.725 102.003 194.047 101.362C185.854 100.758 181.934 93.1995 184.892 84.5173C187.841 75.8677 196.761 68.611 205.208 68.2932C214.149 67.9573 219.224 75.4482 216.022 85.0457Z" fill="#1F2534"/>
</svg>
