<svg width="250" height="250" viewBox="0 0 250 250" fill="none" xmlns="http://www.w3.org/2000/svg">
<g clip-path="url(#clip0_1789_6961)">
<path d="M70.8889 54.9252C70.8889 39.3692 85.6892 26.8047 104.634 26.8047C128.906 26.8047 143.707 38.1726 151.995 97.4049H157.323L165.019 16.6335C109.962 -2.5123 42.4722 17.8302 41.2882 75.8658C41.2882 138.688 140.154 138.688 140.154 196.126C140.154 212.878 125.354 224.246 108.778 224.246C64.9688 224.246 54.9045 187.151 52.5365 148.261H47.2083L33 221.255C33 221.255 65.5607 240.4 100.49 240.4C142.523 239.802 170.348 208.69 171.531 175.783C171.531 112.961 70.8889 99.7986 70.8889 54.9252Z" fill="#06492E"/>
<path d="M171.434 218.281C171.434 206.314 180.908 196.143 193.338 196.143C206.367 196.143 215.841 206.314 215.841 218.281C215.841 230.247 206.367 240.418 193.937 240.418C180.317 241.016 171.434 230.247 171.434 218.281Z" fill="#B4D625"/>
</g>
<defs>
<clipPath id="clip0_1789_6961">
<rect width="183" height="232" fill="white" transform="translate(33 9)"/>
</clipPath>
</defs>
</svg>
