<svg width="250" height="250" viewBox="0 0 250 250" fill="none" xmlns="http://www.w3.org/2000/svg">
<mask id="mask0_1789_7020" style="mask-type:alpha" maskUnits="userSpaceOnUse" x="5" y="40" width="239" height="170">
<path d="M5 40.479H243.547V210H5" fill="white"/>
</mask>
<g mask="url(#mask0_1789_7020)">
<path fill-rule="evenodd" clip-rule="evenodd" d="M104.267 58.9668C111.959 50.8301 122.669 45.7823 134.516 45.7823C150.265 45.7823 164.001 54.6956 171.318 67.9295C177.678 65.0466 184.714 63.4411 192.118 63.4411C220.52 63.4411 243.547 87.0227 243.547 116.111C243.547 145.203 220.52 168.785 192.118 168.785C188.651 168.785 185.264 168.428 181.986 167.759C175.546 179.423 163.268 187.308 149.174 187.308C143.278 187.308 137.7 185.927 132.728 183.464C126.2 199.061 110.981 210 93.2478 210C74.7783 210 59.0367 198.136 52.9959 181.496C50.3559 182.061 47.618 182.36 44.8132 182.36C22.8243 182.36 5 164.075 5 141.518C5 126.398 13.004 113.199 24.9063 106.137C22.4562 100.41 21.0958 94.0954 21.0958 87.4534C21.0958 61.5119 41.8404 40.4791 67.4264 40.4791C82.4496 40.4791 95.8 47.7294 104.267 58.9668Z" fill="#129CD8"/>
</g>
<path fill-rule="evenodd" clip-rule="evenodd" d="M39.5509 128.388C39.4 128.786 39.6033 128.868 39.6525 128.936C40.1014 129.267 40.5534 129.505 41.0129 129.773C43.4459 131.082 45.7457 131.463 48.1477 131.463C53.0414 131.463 56.0811 128.822 56.0811 124.568V124.487C56.0811 120.553 52.6488 119.122 49.4342 118.09L49.0132 117.955C46.5872 117.154 44.4944 116.463 44.4944 114.84V114.758C44.4944 113.37 45.7179 112.348 47.6143 112.348C49.7215 112.348 52.2214 113.06 53.8305 113.965C53.8305 113.965 54.3072 114.274 54.4789 113.808C54.5736 113.555 55.3872 111.33 55.475 111.088C55.5659 110.829 55.4049 110.633 55.2364 110.53C53.3956 109.394 50.854 108.618 48.2247 108.618L47.7373 108.622C43.2565 108.622 40.1292 111.37 40.1292 115.306V115.388C40.1292 119.535 43.5791 120.884 46.8119 121.821L47.3308 121.984C49.6867 122.717 51.7164 123.351 51.7164 125.031V125.117C51.7164 126.654 50.3945 127.8 48.2702 127.8C47.4426 127.8 44.8095 127.786 41.9662 125.96C41.6228 125.753 41.4264 125.608 41.16 125.444C41.0199 125.355 40.6695 125.202 40.5149 125.668L39.5509 128.388Z" fill="#FEFEFE"/>
<path fill-rule="evenodd" clip-rule="evenodd" d="M111.184 128.388C111.033 128.786 111.236 128.868 111.285 128.936C111.734 129.267 112.186 129.505 112.646 129.773C115.079 131.082 117.379 131.463 119.78 131.463C124.674 131.463 127.714 128.822 127.714 124.568V124.487C127.714 120.553 124.282 119.122 121.067 118.09L120.646 117.955C118.22 117.154 116.127 116.463 116.127 114.84V114.758C116.127 113.37 117.351 112.348 119.247 112.348C121.354 112.348 123.854 113.06 125.463 113.965C125.463 113.965 125.94 114.274 126.112 113.808C126.206 113.555 127.02 111.33 127.108 111.088C127.199 110.829 127.038 110.633 126.869 110.53C125.028 109.394 122.491 108.618 119.858 108.618L119.37 108.622C114.889 108.622 111.762 111.37 111.762 115.306V115.388C111.762 119.535 115.216 120.884 118.445 121.821L118.964 121.984C121.32 122.717 123.353 123.351 123.353 125.031V125.117C123.353 126.654 122.031 127.8 119.903 127.8C119.075 127.8 116.446 127.786 113.599 125.96C113.256 125.753 113.052 125.615 112.793 125.444C112.705 125.387 112.292 125.223 112.151 125.668L111.184 128.388Z" fill="#FEFEFE"/>
<path fill-rule="evenodd" clip-rule="evenodd" d="M160.089 120.054C160.089 122.457 159.647 124.354 158.778 125.693C157.916 127.017 156.615 127.665 154.802 127.665C152.986 127.665 151.693 127.017 150.844 125.693C149.985 124.354 149.551 122.457 149.551 120.054C149.551 117.655 149.985 115.761 150.84 114.438C151.693 113.128 152.986 112.49 154.802 112.49C156.615 112.49 157.916 113.128 158.778 114.438C159.647 115.761 160.089 117.655 160.089 120.054ZM164.174 115.598C163.774 114.221 163.147 113.007 162.316 111.996C161.484 110.981 160.429 110.166 159.178 109.575C157.93 108.984 156.457 108.682 154.802 108.682C153.144 108.682 151.668 108.984 150.42 109.575C149.172 110.166 148.116 110.981 147.286 111.999C146.451 113.01 145.827 114.224 145.428 115.598C145.027 116.968 144.824 118.467 144.824 120.054C144.824 121.642 145.027 123.144 145.428 124.511C145.827 125.885 146.451 127.099 147.286 128.113C148.116 129.127 149.175 129.939 150.424 130.516C151.672 131.092 153.144 131.385 154.802 131.385C156.457 131.385 157.926 131.092 159.178 130.516C160.426 129.939 161.481 129.127 162.316 128.113C163.147 127.103 163.774 125.889 164.174 124.511C164.573 123.14 164.777 121.642 164.777 120.054C164.777 118.467 164.573 116.968 164.174 115.598Z" fill="#FEFEFE"/>
<path fill-rule="evenodd" clip-rule="evenodd" d="M197.716 127.02C197.583 126.618 197.193 126.771 197.193 126.771C196.601 127.003 195.97 127.212 195.293 127.319C194.613 127.429 193.863 127.483 193.057 127.483C191.083 127.483 189.509 126.885 188.383 125.707C187.258 124.525 186.623 122.617 186.63 120.036C186.637 117.691 187.194 115.925 188.198 114.576C189.193 113.238 190.711 112.551 192.731 112.551C194.413 112.551 195.7 112.75 197.046 113.177C197.046 113.177 197.369 113.319 197.52 112.893C197.881 111.881 198.143 111.166 198.526 110.059C198.635 109.742 198.368 109.61 198.27 109.571C197.741 109.361 196.493 109.016 195.546 108.87C194.666 108.735 193.632 108.664 192.481 108.664C190.767 108.664 189.239 108.962 187.931 109.553C186.623 110.141 185.519 110.956 184.639 111.97C183.762 112.985 183.096 114.199 182.654 115.573C182.209 116.943 181.988 118.445 181.988 120.04C181.988 123.478 182.9 126.258 184.705 128.291C186.515 130.337 189.228 131.373 192.769 131.373C194.862 131.373 197.008 130.942 198.554 130.326C198.554 130.326 198.849 130.181 198.719 129.832L197.716 127.02Z" fill="#FEFEFE"/>
<path fill-rule="evenodd" clip-rule="evenodd" d="M204.862 117.751C205.059 116.416 205.42 115.306 205.981 114.44C206.826 113.127 208.116 112.401 209.932 112.401C211.748 112.401 212.944 113.127 213.806 114.44C214.378 115.309 214.627 116.463 214.724 117.755L204.862 117.751ZM218.613 114.818C218.266 113.487 217.407 112.145 216.846 111.533C215.955 110.557 215.082 109.877 214.22 109.5C213.094 109.009 211.741 108.685 210.258 108.685C208.533 108.685 206.966 108.98 205.693 109.585C204.421 110.19 203.351 111.02 202.51 112.052C201.672 113.081 201.041 114.305 200.638 115.697C200.235 117.078 200.031 118.584 200.031 120.175C200.031 121.794 200.241 123.304 200.659 124.656C201.08 126.027 201.753 127.226 202.661 128.227C203.572 129.23 204.74 130.013 206.139 130.565C207.53 131.11 209.22 131.394 211.159 131.387C215.152 131.376 217.256 130.473 218.122 129.985C218.276 129.896 218.42 129.746 218.241 129.312L217.333 126.742C217.196 126.361 216.814 126.5 216.814 126.5C215.822 126.874 214.42 127.543 211.138 127.536C208.992 127.533 207.404 126.892 206.408 125.884C205.388 124.859 204.883 123.35 204.799 121.218L218.623 121.228C218.623 121.228 218.988 121.225 219.027 120.862C219.041 120.713 219.499 117.979 218.613 114.818Z" fill="#FEFEFE"/>
<path fill-rule="evenodd" clip-rule="evenodd" d="M94.1281 117.751C94.3244 116.416 94.6855 115.306 95.2429 114.44C96.0951 113.127 97.3817 112.401 99.1979 112.401C101.014 112.401 102.213 113.127 103.075 114.44C103.643 115.309 103.892 116.463 103.99 117.755L94.1281 117.751ZM107.878 114.818C107.531 113.487 106.672 112.145 106.111 111.533C105.221 110.557 104.351 109.877 103.486 109.5C102.356 109.009 101.007 108.685 99.5274 108.685C97.799 108.685 96.2315 108.98 94.9589 109.585C93.6862 110.19 92.6168 111.02 91.7753 112.052C90.9376 113.081 90.3063 114.305 89.9035 115.697C89.5002 117.078 89.2969 118.584 89.2969 120.175C89.2969 121.794 89.5071 123.304 89.9244 124.656C90.3454 126.027 91.0184 127.226 91.9262 128.227C92.8378 129.23 94.0056 130.013 95.4045 130.565C96.7959 131.11 98.4859 131.394 100.425 131.387C104.418 131.376 106.521 130.473 107.388 129.985C107.542 129.896 107.686 129.746 107.507 129.312L106.598 126.742C106.462 126.361 106.08 126.5 106.08 126.5C105.088 126.874 103.685 127.543 100.404 127.536C98.2617 127.533 96.6697 126.892 95.6741 125.884C94.6539 124.859 94.1489 123.35 94.065 121.218L107.889 121.228C107.889 121.228 108.254 121.225 108.292 120.862C108.306 120.713 108.765 117.979 107.878 114.818Z" fill="#FEFEFE"/>
<path fill-rule="evenodd" clip-rule="evenodd" d="M64.2404 126.943C63.6969 126.505 63.6236 126.395 63.4444 126.11C63.1678 125.68 63.0272 125.067 63.0272 124.284C63.0272 123.053 63.4305 122.163 64.2613 121.568C64.2543 121.568 65.4537 120.514 68.2724 120.554C70.2528 120.579 72.0273 120.878 72.0273 120.878V127.26C72.0273 127.26 70.2705 127.641 68.2933 127.762C65.4815 127.936 64.2297 126.94 64.2404 126.943ZM69.7414 117.08C69.1802 117.037 68.4543 117.016 67.585 117.016C66.4001 117.016 65.2537 117.165 64.1773 117.46C63.0972 117.756 62.1263 118.212 61.2917 118.817C60.4503 119.429 59.7773 120.209 59.2867 121.134C58.7956 122.06 58.5469 123.149 58.5469 124.366C58.5469 125.612 58.7571 126.69 59.1813 127.573C59.6018 128.459 60.2085 129.2 60.9836 129.769C61.7513 130.339 62.7014 130.755 63.7986 131.008C64.8856 131.261 66.116 131.389 67.4625 131.389C68.8823 131.389 70.2919 131.268 71.6625 131.033C73.0191 130.798 74.6812 130.457 75.144 130.346C75.603 130.239 76.1117 130.097 76.1117 130.097C76.4551 130.008 76.4268 129.637 76.4268 129.637L76.4198 116.802C76.4198 113.983 75.6805 111.897 74.2254 110.602C72.7741 109.313 70.6353 108.662 67.8728 108.662C66.835 108.662 65.1697 108.804 64.1666 109.007C64.1666 109.007 61.1484 109.601 59.9073 110.591C59.9073 110.591 59.6334 110.761 59.781 111.15L60.7589 113.819C60.882 114.165 61.2147 114.047 61.2147 114.047C61.2147 114.047 61.3201 114.005 61.4426 113.93C64.1003 112.463 67.4657 112.506 67.4657 112.506C68.9593 112.506 70.1095 112.816 70.8841 113.414C71.6378 114.005 72.0203 114.887 72.0203 116.759V117.354C70.8349 117.179 69.7414 117.08 69.7414 117.08Z" fill="#FEFEFE"/>
<path fill-rule="evenodd" clip-rule="evenodd" d="M181.261 109.846C181.367 109.53 181.146 109.376 181.054 109.341C180.819 109.252 179.641 108.999 178.737 108.939C176.998 108.832 176.034 109.127 175.171 109.523C174.313 109.914 173.363 110.551 172.836 111.274L172.833 109.562C172.833 109.327 172.668 109.138 172.437 109.138H168.892C168.661 109.138 168.496 109.327 168.496 109.562V130.502C168.496 130.737 168.682 130.926 168.917 130.926H172.549C172.781 130.926 172.966 130.737 172.966 130.502V120.041C172.966 118.635 173.12 117.236 173.426 116.357C173.724 115.485 174.13 114.79 174.635 114.292C175.14 113.794 175.715 113.445 176.346 113.25C176.987 113.05 177.699 112.982 178.197 112.982C178.923 112.982 179.715 113.175 179.715 113.175C179.985 113.203 180.132 113.036 180.223 112.793C180.458 112.153 181.135 110.228 181.261 109.846Z" fill="#FEFEFE"/>
<path fill-rule="evenodd" clip-rule="evenodd" d="M147.164 100.142C146.722 100.003 146.322 99.9105 145.797 99.8144C145.264 99.715 144.632 99.665 143.917 99.665C141.417 99.665 139.447 100.384 138.063 101.801C136.688 103.207 135.752 105.349 135.282 108.165L135.114 109.116H131.976C131.976 109.116 131.591 109.101 131.513 109.525L130.998 112.444C130.96 112.721 131.079 112.896 131.447 112.896H134.504L131.401 130.465C131.16 131.878 130.882 133.043 130.574 133.925C130.272 134.797 129.974 135.449 129.61 135.922C129.256 136.378 128.922 136.719 128.344 136.915C127.867 137.075 127.317 137.15 126.717 137.15C126.384 137.15 125.939 137.093 125.609 137.025C125.28 136.961 125.108 136.887 124.863 136.783C124.863 136.783 124.505 136.645 124.361 137.008C124.249 137.307 123.436 139.581 123.337 139.863C123.24 140.14 123.376 140.357 123.551 140.421C123.958 140.567 124.26 140.663 124.813 140.795C125.585 140.98 126.234 140.991 126.84 140.991C128.112 140.991 129.273 140.809 130.234 140.457C131.201 140.101 132.043 139.481 132.79 138.649C133.593 137.744 134.101 136.798 134.584 135.506C135.065 134.228 135.472 132.64 135.801 130.789L138.914 112.896H143.468C143.468 112.896 143.854 112.91 143.931 112.486L144.447 109.567C144.482 109.29 144.366 109.116 143.998 109.116H139.577C139.598 109.016 139.798 107.436 140.306 105.951C140.523 105.314 140.931 104.805 141.277 104.453C141.614 104.107 142.007 103.862 142.434 103.719C142.872 103.577 143.371 103.506 143.917 103.506C144.335 103.506 144.741 103.555 145.053 103.62C145.481 103.712 145.649 103.762 145.762 103.794C146.21 103.936 146.27 103.801 146.361 103.58L147.416 100.633C147.525 100.316 147.262 100.181 147.164 100.142Z" fill="#FEFEFE"/>
<path fill-rule="evenodd" clip-rule="evenodd" d="M85.3969 130.502C85.3969 130.737 85.2321 130.929 85.0005 130.929H81.3334C81.1023 130.929 80.9375 130.737 80.9375 130.502V100.542C80.9375 100.307 81.1023 100.118 81.3334 100.118H85.0005C85.2321 100.118 85.3969 100.307 85.3969 100.542V130.502Z" fill="#FEFEFE"/>
</svg>
