<svg width="250" height="250" viewBox="0 0 250 250" fill="none" xmlns="http://www.w3.org/2000/svg">
<g clip-path="url(#clip0_1789_6970)">
<path d="M220.295 182.018C224.769 189.879 225.202 198.146 221.484 204.68C217.772 211.221 210.508 214.966 201.555 214.966H184.683C184.883 211.783 185.016 208.572 185.016 205.339C185.016 201.717 184.85 198.14 184.605 194.575L195.704 194.564C198.432 194.564 200.638 192.32 200.638 189.553C200.638 188.719 200.434 187.898 200.044 187.163L129.308 62.7521C128.881 61.9824 128.259 61.3418 127.506 60.8961C126.753 60.4504 125.896 60.2158 125.024 60.2164C124.173 60.2167 123.338 60.4395 122.597 60.8633C121.857 61.287 121.238 61.8972 120.8 62.6347L109.569 82.3901C143.702 108.427 166.649 148.765 169.789 194.564C170.034 198.123 170.2 201.7 170.2 205.327C170.2 208.561 170.067 211.766 169.872 214.955H114.77C115.07 211.783 115.242 208.578 115.242 205.327C115.242 201.689 115.031 198.101 114.642 194.564C111.92 169.359 99.7263 147.022 81.7702 131.259L74.0338 144.857C87.5994 157.633 96.8586 175.033 99.376 194.564C99.8323 198.089 100.088 201.678 100.088 205.327C100.088 208.578 99.8764 211.794 99.5152 214.955H48.4364C39.4835 214.955 32.2197 211.204 28.5073 204.663C24.7896 198.129 25.2227 189.868 29.6968 182.001L40.1842 163.814C46.1752 167.075 51.5892 171.32 56.2053 176.377L49.9539 187.152C49.5654 187.887 49.3609 188.708 49.3583 189.542C49.3571 190.198 49.4839 190.849 49.7314 191.456C49.9789 192.063 50.3422 192.615 50.8007 193.08C51.2591 193.545 51.8037 193.913 52.4031 194.165C53.0026 194.417 53.6452 194.546 54.2942 194.547L79.0687 194.558C76.9906 182.541 71.511 171.698 63.664 163.111C59.0398 158.067 53.6384 153.798 47.6251 150.531L75.2898 101.892C81.1637 105.215 86.7436 109.044 91.9675 113.337C115.809 132.912 131.909 161.823 134.827 194.553H149.654C146.63 156.289 127.63 122.548 99.4317 100.211C94.1367 96.0142 88.5334 92.2318 82.6704 88.8967L106.284 47.3832C110.752 39.5157 117.587 35 125.024 35C132.454 35 139.284 39.5157 143.758 47.3832L220.295 182.018Z" fill="#FB2D26"/>
</g>
<defs>
<clipPath id="clip0_1789_6970">
<rect width="198" height="180" fill="white" transform="translate(26 35)"/>
</clipPath>
</defs>
</svg>
