<svg width="250" height="250" viewBox="0 0 250 250" fill="none" xmlns="http://www.w3.org/2000/svg">
<path fill-rule="evenodd" clip-rule="evenodd" d="M99.5201 29.4697C88.9586 29.4775 80.411 38.0314 80.4188 48.5719C80.411 59.1124 88.9664 67.6663 99.528 67.6741H118.637V48.5797C118.645 38.0392 110.09 29.4853 99.5201 29.4697C99.528 29.4697 99.528 29.4697 99.5201 29.4697V29.4697ZM99.5201 80.4192H48.578C38.0164 80.427 29.461 88.9809 29.4688 99.5214C29.4532 110.062 38.0086 118.616 48.5701 118.631H99.5201C110.082 118.624 118.637 110.07 118.629 99.5292C118.637 88.9809 110.082 80.427 99.5201 80.4192Z" fill="#36C5F0"/>
<path fill-rule="evenodd" clip-rule="evenodd" d="M220.532 99.5214C220.54 88.9809 211.984 80.427 201.423 80.4192C190.861 80.427 182.306 88.9809 182.313 99.5214V118.631H201.423C211.984 118.624 220.54 110.07 220.532 99.5214ZM169.582 99.5214V48.5719C169.59 38.0392 161.042 29.4853 150.48 29.4697C139.919 29.4775 131.363 38.0314 131.371 48.5719V99.5214C131.356 110.062 139.911 118.616 150.473 118.631C161.034 118.624 169.59 110.07 169.582 99.5214Z" fill="#2EB67D"/>
<path fill-rule="evenodd" clip-rule="evenodd" d="M150.472 220.53C161.034 220.522 169.589 211.968 169.582 201.428C169.589 190.887 161.034 182.333 150.472 182.325H131.363V201.428C131.355 211.96 139.911 220.514 150.472 220.53ZM150.472 169.572H201.422C211.984 169.565 220.539 161.011 220.532 150.47C220.547 139.93 211.992 131.376 201.43 131.36H150.48C139.919 131.368 131.363 139.922 131.371 150.463C131.363 161.011 139.911 169.565 150.472 169.572Z" fill="#ECB22E"/>
<path fill-rule="evenodd" clip-rule="evenodd" d="M29.4688 150.471C29.4609 161.012 38.0164 169.566 48.5779 169.574C59.1395 169.566 67.6949 161.012 67.6871 150.471V131.369H48.5779C38.0164 131.377 29.4609 139.931 29.4688 150.471ZM80.4188 150.471V201.421C80.4032 211.962 88.9586 220.515 99.5201 220.531C110.082 220.523 118.637 211.969 118.629 201.429V150.487C118.645 139.947 110.09 131.393 99.528 131.377C88.9586 131.377 80.411 139.931 80.4188 150.471C80.4188 150.471 80.4188 150.479 80.4188 150.471Z" fill="#E01E5A"/>
</svg>
