<svg width="250" height="250" viewBox="0 0 250 250" fill="none" xmlns="http://www.w3.org/2000/svg">
<g clip-path="url(#clip0_1789_6971)">
<path d="M67.0533 101.857C67.0533 101.857 77.2794 87.7145 90.4881 87.286C111.366 86.8574 127.984 124.143 130.54 129.715C153.549 78.286 191.471 34.5717 222.149 5.42883H33.3925C33.3925 23.4288 33.3925 203.429 33.3925 218.429C33.3925 230 31.6881 238.572 30.8359 242C39.3577 240.715 70.8881 235.143 103.271 223.572C160.792 203 182.949 180.715 183.375 180.715L184.653 179.429L185.506 181.143C185.506 181.143 192.749 197 199.992 205.572C208.088 215 212.349 215.857 214.906 215.429C218.314 214.572 220.445 209 221.297 200.429C222.149 191.857 223.001 172.572 223.001 149C223.001 106.572 223.001 50.4288 223.001 22.1431C167.184 90.7145 126.279 193.572 126.279 193.572C126.279 193.572 99.4359 101.429 67.0533 101.857Z" fill="#0E2947"/>
</g>
<defs>
<clipPath id="clip0_1789_6971">
<rect width="196" height="240" fill="white" transform="translate(27 5)"/>
</clipPath>
</defs>
</svg>
