<svg width="250" height="250" viewBox="0 0 250 250" fill="none" xmlns="http://www.w3.org/2000/svg">
<path d="M194.196 175.367L153.85 152.06C148.182 148.796 140.934 150.737 137.654 156.405C136.383 158.638 135.885 161.094 136.125 163.481V209.031C136.125 215.541 141.415 220.831 147.942 220.831C154.451 220.831 159.741 215.541 159.741 209.031V182.838L182.344 195.892C188.012 199.172 195.278 197.214 198.541 191.546C201.822 185.878 199.881 178.63 194.196 175.367Z" fill="#29B5E8"/>
<path d="M93.8547 125.42C93.9234 121.212 91.7077 117.296 88.0665 115.184L47.7211 91.8935C45.9692 90.8801 43.9596 90.3477 41.9501 90.3477C37.8108 90.3477 33.9634 92.5633 31.9024 96.1358C28.7077 101.666 30.6142 108.76 36.1447 111.955L59.4005 125.369L36.1447 138.8C33.4653 140.346 31.5417 142.836 30.7516 145.825C29.9444 148.813 30.3566 151.939 31.9024 154.619C33.9634 158.191 37.8108 160.407 41.9329 160.407C43.9596 160.407 45.9692 159.874 47.7211 158.861L88.0665 135.571C91.6734 133.476 93.889 129.594 93.8547 125.42Z" fill="#29B5E8"/>
<path d="M56.8781 75.3877L97.2235 98.6778C101.93 101.409 107.735 100.516 111.445 96.8915C113.798 94.7274 115.258 91.6358 115.258 88.2007V41.5175C115.258 34.9908 109.968 29.7007 103.458 29.7007C96.9315 29.7007 91.6414 34.9908 91.6414 41.5175V68.0881L68.7292 54.8629C63.0613 51.5824 55.8132 53.5232 52.5327 59.1911C49.2521 64.8591 51.2101 72.1072 56.8781 75.3877Z" fill="#29B5E8"/>
<path d="M147.599 127.309C147.599 128.203 147.084 129.439 146.448 130.092L130.458 146.082C129.822 146.718 128.569 147.233 127.676 147.233H123.605C122.712 147.233 121.458 146.718 120.822 146.082L104.815 130.092C104.179 129.439 103.664 128.203 103.664 127.309V123.239C103.664 122.329 104.179 121.092 104.815 120.456L120.822 104.449C121.458 103.813 122.712 103.298 123.605 103.298H127.676C128.569 103.298 129.822 103.813 130.458 104.449L146.448 120.456C147.084 121.092 147.599 122.329 147.599 123.239V127.309ZM133.326 125.351V125.18C133.326 124.527 132.948 123.617 132.485 123.136L127.761 118.43C127.298 117.949 126.387 117.571 125.717 117.571H125.546C124.893 117.571 123.983 117.949 123.502 118.43L118.796 123.136C118.332 123.6 117.954 124.51 117.954 125.18V125.351C117.954 126.021 118.332 126.932 118.796 127.395L123.502 132.119C123.983 132.582 124.893 132.96 125.546 132.96H125.717C126.387 132.96 127.298 132.582 127.761 132.119L132.485 127.395C132.948 126.932 133.326 126.021 133.326 125.351Z" fill="#29B5E8"/>
<path d="M153.849 98.6778L194.195 75.3877C199.863 72.1244 201.821 64.8591 198.54 59.1911C195.26 53.5232 188.012 51.5824 182.344 54.8629L159.741 67.9163V41.5175C159.741 34.9908 154.451 29.7007 147.941 29.7007C141.414 29.7007 136.124 34.9908 136.124 41.5175V87.2732C135.901 89.6434 136.365 92.1167 137.653 94.3495C140.933 100.017 148.181 101.958 153.849 98.6778Z" fill="#29B5E8"/>
<path d="M105.313 150.685C102.634 150.17 99.7655 150.599 97.2235 152.059L56.8781 175.366C51.2101 178.63 49.2521 185.878 52.5327 191.546C55.8132 197.231 63.0613 199.172 68.7292 195.891L91.6414 182.666V209.031C91.6414 215.54 96.9315 220.83 103.458 220.83C109.968 220.83 115.258 215.54 115.258 209.031V162.347C115.258 156.456 110.947 151.578 105.313 150.685Z" fill="#29B5E8"/>
<path d="M219.403 95.9982C216.139 90.3131 208.874 88.3723 203.206 91.6528L162.861 114.943C158.996 117.176 156.867 121.263 156.935 125.42C156.901 129.559 159.031 133.596 162.861 135.794L203.206 159.101C208.874 162.365 216.122 160.424 219.403 154.756C222.683 149.088 220.725 141.84 215.057 138.559L192.214 125.368L215.057 112.178C220.742 108.914 222.683 101.666 219.403 95.9982Z" fill="#29B5E8"/>
</svg>
