<svg width="250" height="250" viewBox="0 0 250 250" fill="none" xmlns="http://www.w3.org/2000/svg">
<g clip-path="url(#clip0_1789_6968)">
<path d="M178.68 29H72.3197C48.3949 29 29 48.3949 29 72.3197V178.68C29 202.605 48.3949 222 72.3197 222H178.68C202.605 222 222 202.605 222 178.68V72.3197C222 48.3949 202.605 29 178.68 29Z" fill="#6772E5"/>
<path fill-rule="evenodd" clip-rule="evenodd" d="M117.912 103.874C117.912 99.2609 121.723 97.1885 127.873 97.1885C138.065 97.4089 148.066 99.995 157.087 104.743V77.4005C147.806 73.7607 137.909 71.9449 127.94 72.0524C104.141 72.0524 88.2305 84.4867 88.2305 105.478C88.2305 137.968 132.887 132.687 132.887 146.725C132.887 152.14 128.141 153.878 121.656 153.878C110.232 153.249 99.1108 149.976 89.1664 144.319V172.329C99.2994 176.708 110.216 178.983 121.255 179.015C145.656 179.015 162.502 166.981 162.502 145.589C162.703 110.759 117.912 117.043 117.912 103.874Z" fill="white"/>
</g>
<defs>
<clipPath id="clip0_1789_6968">
<rect width="193" height="193" fill="white" transform="translate(29 29)"/>
</clipPath>
</defs>
</svg>
