<svg width="250" height="250" viewBox="0 0 250 250" fill="none" xmlns="http://www.w3.org/2000/svg">
<g clip-path="url(#clip0_2152_4061)">
<path d="M162.425 97.8906C162.454 97.988 162.492 98.0824 162.539 98.1724L162.804 97.9259C162.677 97.9228 162.55 97.9111 162.425 97.8906ZM162.425 97.8906C162.454 97.988 162.492 98.0824 162.539 98.1724L162.804 97.9259C162.677 97.9228 162.55 97.9111 162.425 97.8906ZM162.425 97.8906C162.454 97.988 162.492 98.0824 162.539 98.1724L162.804 97.9259C162.677 97.9228 162.55 97.9111 162.425 97.8906ZM194.235 67.8845L194.182 67.8053V67.9374L185.204 76.5131L179.357 82.0864C179.436 82.236 179.516 82.3945 179.604 82.5442L185.777 76.6099L194.199 68.4921L194.446 68.2455L194.235 67.8845ZM162.425 97.8906C162.454 97.988 162.492 98.0824 162.539 98.1724L162.804 97.9259C162.677 97.9228 162.55 97.9111 162.425 97.8906ZM162.425 97.8906C162.454 97.988 162.492 98.0824 162.539 98.1724L162.804 97.9259C162.677 97.9228 162.55 97.9111 162.425 97.8906ZM162.425 97.8906C162.454 97.988 162.492 98.0824 162.539 98.1724L162.804 97.9259C162.677 97.9228 162.55 97.9111 162.425 97.8906ZM162.425 97.8906C162.454 97.988 162.492 98.0824 162.539 98.1724L162.804 97.9259C162.677 97.9228 162.55 97.9111 162.425 97.8906Z" fill="#1AB885"/>
<path d="M207.357 116.09C207.347 131.32 203.675 146.325 196.65 159.845C189.626 173.364 179.453 185.002 166.987 193.781C154.521 202.56 140.127 208.224 125.014 210.295C109.9 212.367 94.5097 210.786 80.1354 205.685L55.9099 229L38.3955 218.505L61.2541 196.493L77.8072 180.557C84.1984 184.124 91.089 186.715 98.2495 188.244C109.028 190.534 120.182 190.393 130.899 187.829C141.615 185.265 151.622 180.344 160.19 173.425C168.757 166.505 175.669 157.763 180.419 147.836C185.169 137.909 187.639 127.048 187.647 116.046C187.647 114.523 187.594 113.008 187.497 111.52C186.858 101.414 184.157 91.5444 179.56 82.5178L185.733 76.5835L194.155 68.4656L194.402 68.2191C194.693 68.7122 194.975 69.2228 195.284 69.7335C195.593 70.2442 195.84 70.7284 196.104 71.2391C196.298 71.6001 196.501 71.9787 196.695 72.3573C196.889 72.7359 197.092 73.0881 197.268 73.4667C197.321 73.5459 197.348 73.634 197.4 73.7132C197.612 74.1534 197.824 74.5937 198.044 75.0251L198.653 76.337C199.076 77.2703 199.482 78.1859 199.879 79.1368C200.108 79.6651 200.32 80.1934 200.54 80.7129C200.76 81.2323 201.034 81.9455 201.263 82.5706C201.492 83.1957 201.748 83.8825 201.969 84.5341C202.048 84.763 202.127 84.9919 202.216 85.2208C202.463 85.9428 202.701 86.6824 202.939 87.4044C203.706 89.8432 204.376 92.3085 204.967 94.8266C206.554 101.803 207.356 108.935 207.357 116.09Z" fill="#1AB885"/>
<path d="M162.425 97.8906C162.454 97.988 162.492 98.0824 162.539 98.1724L162.804 97.9258C162.677 97.9228 162.55 97.9111 162.425 97.8906Z" fill="#1AB885"/>
<path d="M162.804 97.9258L162.539 98.1724C162.492 98.0824 162.454 97.988 162.425 97.8906C162.55 97.9111 162.677 97.9228 162.804 97.9258Z" fill="#1AB885"/>
<path d="M221 42.3159L194.234 67.8493L194.181 67.7701C193.819 61.3651 191.317 55.266 187.077 50.4464C182.836 45.6267 177.1 42.3644 170.785 41.1802C169.04 40.85 167.269 40.6849 165.493 40.6871C161.685 40.6848 157.913 41.4404 154.401 42.9098C150.888 44.3793 147.703 46.533 145.033 49.2452C138.165 46.0283 130.837 43.8985 123.312 42.9323C127.681 36.2539 133.636 30.7583 140.648 26.9352C147.659 23.1121 155.509 21.0804 163.498 21.0211C171.487 20.9618 179.367 22.8768 186.434 26.5955C193.502 30.3141 199.539 35.7207 204.006 42.3336L221 42.3159Z" fill="#1AB885"/>
<path d="M194.447 68.2631L194.2 68.5096L185.778 76.6274L179.604 82.5618C179.516 82.4121 179.437 82.2536 179.357 82.1039L185.204 76.5746L194.182 67.9989V67.77L194.235 67.8493L194.447 68.2631Z" fill="#1AB885"/>
<path d="M194.2 68.5097L185.778 76.6275L179.604 82.5618C179.516 82.4122 179.437 82.2537 179.357 82.104L185.204 76.5747L194.182 67.999C194.182 68.1311 194.2 68.3336 194.2 68.5097Z" fill="#1AB885"/>
<path d="M162.769 98.7622C162.689 98.5597 162.601 98.366 162.539 98.1723C162.492 98.0823 162.454 97.988 162.425 97.8906C157.507 85.9517 148.381 76.2237 136.771 70.5435C130.333 67.4091 89.1485 59.0975 89.1485 59.0975L77.5781 56.9844L71.1403 55.8222L42.9726 50.7067L31.755 48.6729C30.59 51.8916 29.9932 55.2877 29.9912 58.7101C30.0072 64.24 31.5725 69.6552 34.5102 74.3433C37.4479 79.0313 41.6409 82.8053 46.6149 85.2384C48.8964 86.3543 51.3163 87.1626 53.8111 87.642C51.9187 88.0259 49.9922 88.2176 48.0612 88.2143C47.1793 88.2143 46.2974 88.2143 45.4155 88.0999C42.0189 87.7881 38.7016 86.8946 35.6089 85.4585C35.1647 87.4563 34.9371 89.496 34.9298 91.5425C34.9382 98.8161 37.6327 105.831 42.4977 111.246C47.3627 116.66 54.0566 120.093 61.2984 120.888C61.8807 130.411 65.0502 139.595 70.4665 147.455C75.8829 155.315 83.3413 161.554 92.0411 165.501C92.3497 165.651 92.6672 165.801 92.9759 165.933C99.5337 168.745 106.598 170.189 113.736 170.176C114.864 170.176 115.967 170.176 117.087 170.08C130.424 169.247 142.94 163.365 152.08 153.632C161.221 143.9 166.296 131.051 166.27 117.71V117.648C166.277 111.191 165.09 104.789 162.769 98.7622ZM134.001 108.993L112.501 130.45L112.704 130.661L111.072 132.22C110.338 132.932 109.471 133.492 108.519 133.868C107.568 134.245 106.552 134.43 105.528 134.414C104.505 134.398 103.495 134.18 102.556 133.773C101.618 133.366 100.768 132.779 100.057 132.044L89.4748 121.091C89.0167 120.616 88.6568 120.056 88.4156 119.443C88.1744 118.829 88.0565 118.174 88.0688 117.515C88.0811 116.856 88.2232 116.206 88.4872 115.602C88.7511 114.998 89.1317 114.452 89.6071 113.994C90.0825 113.537 90.6434 113.178 91.2579 112.937C91.8724 112.696 92.5284 112.578 93.1885 112.591C93.8485 112.603 94.4997 112.745 95.1048 113.008C95.7099 113.272 96.2571 113.652 96.7151 114.126L105.534 123.239L126.893 101.897C127.84 100.964 129.118 100.444 130.448 100.449C131.779 100.454 133.053 100.984 133.992 101.923C134.932 102.863 135.462 104.135 135.465 105.463C135.468 106.791 134.945 108.067 134.01 109.011L134.001 108.993Z" fill="#1AB885"/>
<path d="M185.777 76.6275L185.204 76.5307V76.5131L185.777 76.6275Z" fill="#1AB885"/>
</g>
<defs>
<clipPath id="clip0_2152_4061">
<rect width="191" height="208" fill="white" transform="translate(30 21)"/>
</clipPath>
</defs>
</svg>
