<svg width="250" height="250" viewBox="0 0 250 250" fill="none" xmlns="http://www.w3.org/2000/svg">
<path fill-rule="evenodd" clip-rule="evenodd" d="M216.497 169.609C214.327 169.609 212.349 168.773 210.861 167.43C211.368 163.027 211.707 158.578 211.763 154.051C213.116 153.136 214.75 152.583 216.497 152.583C221.147 152.583 224.952 156.405 224.952 161.113C224.956 162.227 224.74 163.331 224.317 164.362C223.893 165.393 223.271 166.329 222.486 167.119C221.7 167.908 220.767 168.534 219.739 168.962C218.712 169.389 217.61 169.609 216.497 169.609ZM30.1029 169.609C28.9903 169.609 27.8886 169.389 26.861 168.962C25.8334 168.534 24.9001 167.908 24.1147 167.119C23.3292 166.329 22.707 165.393 22.2838 164.362C21.8606 163.331 21.6447 162.227 21.6484 161.113C21.6484 156.405 25.4529 152.577 30.1029 152.577C31.8502 152.577 33.4847 153.142 34.8375 154.051C34.8938 158.578 35.232 163.027 35.7393 167.43C34.194 168.829 32.186 169.605 30.1029 169.609ZM215.945 132.238C213.567 132.238 211.284 132.565 209.091 133.102C200.671 99.5581 173.312 73.6016 139.133 67.4653C137.611 67.1831 136.23 66.9855 134.68 66.7879C134.934 58.3823 135.328 48.6669 147.604 39.9282L145.66 35C145.66 35 121.739 42.4855 118.966 63.1016C117.771 57.4903 106.617 50.4734 101.093 49.1411L98.348 53.6008C98.348 53.6008 105.67 57.2927 107.451 67.4653C73.2831 73.6129 45.9298 99.5637 37.5091 133.102C35.2653 132.541 32.9622 132.253 30.6496 132.244C14.8565 132.244 2 145.16 2 161.113C2 177.032 14.8565 189.977 30.6496 189.977C34.3527 189.977 37.8811 189.231 41.122 187.956C43.5667 194.1 46.6899 199.951 50.4333 205.399L74.2187 189.254L74.0158 188.983C67.7256 180.843 63.876 168.852 63.2335 156.919C62.5176 143.765 65.7078 130.691 74.0553 123.008C91.2575 108.263 109.987 114.981 121.722 129.122H124.878C136.613 114.981 155.343 108.263 172.551 123.008C180.893 130.691 184.083 143.765 183.373 156.924C182.724 168.852 178.875 180.843 172.585 188.989L172.382 189.248L196.167 205.399C199.91 199.95 203.033 194.099 205.478 187.956C208.81 189.281 212.361 189.966 215.945 189.977C231.744 189.977 244.6 177.032 244.6 161.113C244.6 145.154 231.744 132.238 215.945 132.238Z" fill="#00BF6F"/>
</svg>
