<svg width="250" height="250" viewBox="0 0 250 250" fill="none" xmlns="http://www.w3.org/2000/svg">
<path fill-rule="evenodd" clip-rule="evenodd" d="M57.6959 126.191C70.7889 126.191 81.388 136.829 81.388 149.941C81.388 163.066 70.7889 173.704 57.6959 173.704C44.6154 173.704 34.0039 163.066 34.0039 149.941C34.0039 136.829 44.6154 126.191 57.6959 126.191Z" fill="#994FFA"/>
<path fill-rule="evenodd" clip-rule="evenodd" d="M57.6959 192.365C70.7889 192.365 81.388 203.002 81.388 216.127C81.388 229.24 70.7889 239.877 57.6959 239.877C44.6154 239.877 34.0039 229.24 34.0039 216.127C34.0039 203.002 44.6154 192.365 57.6959 192.365Z" fill="#BF91FC"/>
<path fill-rule="evenodd" clip-rule="evenodd" d="M57.692 60.0125C44.6115 60.0125 34 70.65 34 83.775C34 96.8875 44.6115 107.525 57.692 107.525C70.785 107.525 81.3966 96.8875 81.3966 83.775C81.3966 70.65 70.785 60.0125 57.692 60.0125ZM174.993 0H128.481V186.75C128.481 236.275 151.912 254.712 215.755 247.475V205.188C189.058 206.625 174.993 206.275 174.993 186.75V108H215.755V63.1625H174.993V0Z" fill="#5405BD"/>
</svg>
