<svg width="250" height="250" viewBox="0 0 250 250" fill="none" xmlns="http://www.w3.org/2000/svg">
<path d="M101.679 99.4271V90.0449C98.4375 89.5293 95.1635 89.2467 91.8819 89.1995C60.1115 89.1314 31.9844 109.816 22.4437 140.263C12.9031 170.709 24.1647 203.852 50.2423 222.082C40.6796 211.8 34.2834 198.956 31.8259 185.102C29.3683 171.248 30.9544 156.975 36.3927 144.006C41.831 131.038 50.8891 119.928 62.4735 112.018C74.0579 104.107 87.6736 99.735 101.677 99.4281L101.679 99.4271Z" fill="#25F4EE"/>
<path d="M103.442 205.703C121.205 205.678 135.806 191.619 136.584 173.789V14.6841H165.514C164.924 11.3594 164.642 7.98687 164.673 4.60986L125.102 4.60986V163.562C124.444 181.482 109.808 195.676 91.96 195.705C86.6264 195.66 81.3798 194.342 76.6523 191.86C79.7163 196.125 83.7401 199.602 88.3957 202.008C93.0514 204.413 98.2069 205.679 103.442 205.703ZM219.551 68.6667V59.8233C208.904 59.8275 198.493 56.6709 189.625 50.7499C197.399 59.8296 207.904 66.119 219.551 68.6667Z" fill="#25F4EE"/>
<path d="M189.626 50.7498C180.89 40.7555 176.074 27.9076 176.079 14.6063H165.515C166.88 21.9604 169.721 28.9581 173.867 35.1723C178.012 41.3865 183.374 46.6868 189.626 50.7498ZM91.885 128.957C84.4765 128.994 77.2932 131.519 71.4772 136.13C65.6611 140.741 61.5462 147.173 59.7865 154.403C58.0269 161.634 58.7235 169.248 61.7657 176.035C64.8079 182.822 70.021 188.392 76.5763 191.86C72.9922 186.888 70.846 181.018 70.3745 174.897C69.9031 168.777 71.125 162.644 73.9051 157.178C76.6851 151.711 80.9152 147.123 86.128 143.92C91.3407 140.718 97.3332 139.025 103.443 139.03C106.765 139.073 110.064 139.593 113.239 140.572V100.119C109.996 99.6305 106.723 99.3737 103.443 99.3503H101.682V130.11C98.4895 129.249 95.1891 128.861 91.885 128.957Z" fill="#FE2C55"/>
<path d="M219.55 68.6666V99.427C199.838 99.3884 180.639 93.1198 164.671 81.5091V162.331C164.586 202.66 132.022 235.309 91.8818 235.309C76.9739 235.336 62.4251 230.714 50.2422 222.082C60.1766 232.818 73.0986 240.299 87.3251 243.55C101.552 246.802 116.423 245.675 130.002 240.314C143.582 234.953 155.24 225.608 163.458 213.496C171.675 201.384 176.072 187.066 176.076 172.407V91.8144C192.097 103.349 211.32 109.535 231.031 109.501V69.8942C227.172 69.8827 223.324 69.4713 219.55 68.6666Z" fill="#FE2C55"/>
<path d="M164.673 162.331V81.5091C180.689 93.0538 199.916 99.2417 219.628 99.196V68.4367C207.982 65.9658 197.452 59.7582 189.625 50.7498C183.373 46.6868 178.011 41.3865 173.865 35.1723C169.72 28.9581 166.878 21.9604 165.514 14.6063H136.584V173.791C136.302 180.72 133.879 187.389 129.651 192.871C125.424 198.353 119.601 202.375 112.993 204.379C106.386 206.383 99.3206 206.27 92.78 204.054C86.2394 201.838 80.5483 197.631 76.4975 192.016C69.9411 188.548 64.7269 182.978 61.6839 176.19C58.6409 169.403 57.9439 161.788 59.7037 154.557C61.4634 147.326 65.579 140.893 71.3958 136.282C77.2127 131.672 84.397 129.147 91.8062 129.11C95.1291 129.14 98.4298 129.658 101.603 130.648V99.888C87.5247 100.128 73.8197 104.478 62.1593 112.408C50.4989 120.338 41.3869 131.506 35.9345 144.549C30.482 157.592 28.9245 171.948 31.452 185.865C33.9795 199.782 40.4827 212.659 50.1687 222.927C62.4713 231.275 77.0409 235.6 91.8836 235.309C132.024 235.309 164.588 202.66 164.673 162.331Z" fill="black"/>
</svg>
