<svg width="250" height="250" viewBox="0 0 250 250" fill="none" xmlns="http://www.w3.org/2000/svg">
<g clip-path="url(#clip0_1789_6862)">
<path d="M200.641 31H49.3594C39.2198 31 31 39.2198 31 49.3594V200.641C31 210.78 39.2198 219 49.3594 219H200.641C210.78 219 219 210.78 219 200.641V49.3594C219 39.2198 210.78 31 200.641 31Z" fill="url(#paint0_linear_1789_6862)"/>
<path d="M185.746 55.4399H146.031C141.164 55.4399 137.219 59.3854 137.219 64.2524V128.877C137.219 133.744 141.164 137.69 146.031 137.69H185.746C190.613 137.69 194.559 133.744 194.559 128.877V64.2524C194.559 59.3854 190.613 55.4399 185.746 55.4399Z" fill="white"/>
<path d="M103.969 55.4399H64.2539C59.3869 55.4399 55.4414 59.3854 55.4414 64.2524V175.877C55.4414 180.744 59.3869 184.69 64.2539 184.69H103.969C108.836 184.69 112.781 180.744 112.781 175.877V64.2524C112.781 59.3854 108.836 55.4399 103.969 55.4399Z" fill="white"/>
</g>
<defs>
<linearGradient id="paint0_linear_1789_6862" x1="125" y1="31" x2="125" y2="219" gradientUnits="userSpaceOnUse">
<stop stop-color="#0091E6"/>
<stop offset="1" stop-color="#0079BF"/>
</linearGradient>
<clipPath id="clip0_1789_6862">
<rect width="188" height="188" fill="white" transform="translate(31 31)"/>
</clipPath>
</defs>
</svg>
