<svg width="250" height="250" viewBox="0 0 250 250" fill="none" xmlns="http://www.w3.org/2000/svg">
<path d="M125 221C178.019 221 221 178.019 221 125C221 71.9807 178.019 29 125 29C71.9807 29 29 71.9807 29 125C29 178.019 71.9807 221 125 221Z" fill="#4353FF"/>
<path d="M153.193 113.6L144.493 141.02C144.493 138.92 138.493 93.44 138.493 93.44C124.693 93.44 117.373 103.22 113.533 113.6L102.913 141.08C102.913 139.1 101.413 113.84 101.413 113.84C100.901 108.372 98.4007 103.281 94.3867 99.5326C90.3727 95.784 85.1233 93.6376 79.6328 93.5L90.9128 162.38C105.313 162.38 113.113 152.6 117.133 142.22L126.133 118.82C126.133 119.78 132.133 162.38 132.133 162.38C138.021 162.372 143.754 160.49 148.501 157.005C153.247 153.521 156.761 148.616 158.533 143L178.933 93.44C164.533 93.44 156.973 103.22 153.133 113.6H153.193Z" fill="white"/>
</svg>
