<svg width="250" height="250" viewBox="0 0 250 250" fill="none" xmlns="http://www.w3.org/2000/svg">
<path d="M62.9465 105.554C67.6116 105.241 72.2858 106.011 76.6048 107.803C80.9239 109.595 84.771 112.361 87.8465 115.885L132.181 159.638L134.61 162.069V163.892C134.61 165.108 134.003 165.108 132.181 166.931L101.815 196.708L99.3855 198.531H97.5635C96.9562 198.531 96.3489 198.531 95.1343 196.708L8.28792 111.631C5.85866 109.2 7.07329 105.554 11.3245 105.554H62.9465ZM188.661 52.0769C183.897 51.6677 179.103 52.3901 174.671 54.1853C170.238 55.9805 166.292 58.7978 163.154 62.4077L118.82 106.162L116.998 108.592V110.415C116.998 111.023 116.998 111.631 118.82 112.846L149.185 143.231L151.615 145.054H153.437C154.651 145.054 155.259 144.446 156.473 143.231L242.712 58.1538C245.142 55.7231 244.534 52.0769 240.283 52.0769H188.661Z" fill="#08CF65"/>
</svg>
