<svg width="250" height="250" viewBox="0 0 250 250" fill="none" xmlns="http://www.w3.org/2000/svg">
<g clip-path="url(#clip0_2112_5900)">
<path d="M44.5864 9.70015L45.2668 20.4004L110.586 36.7922C146.648 45.8988 176.586 53.867 177.04 54.3224C177.72 55.0054 169.555 60.014 159.123 65.4779L140.071 75.7228L92.6689 63.6566C66.8132 56.8267 45.04 51.3627 44.8132 51.3627C44.3596 51.3627 44.1328 56.3713 44.1328 62.2906V73.4462L75.4318 81.1868C92.4421 85.2847 107.184 89.3827 108.092 90.0657C108.999 90.7487 94.9369 98.9446 77.0194 108.279L44.1328 125.354V137.192C44.1328 143.794 44.5864 149.258 45.04 149.258C45.4936 149.258 64.772 139.469 87.6792 127.403C110.36 115.336 146.875 96.2126 168.421 85.0571L207.432 64.5673V51.8181V38.8412L127.37 18.8067C83.5967 7.87883 46.6277 -1.00008 45.7204 -1.00008C44.8132 -1.00008 44.1328 3.78087 44.5864 9.70015Z" fill="black"/>
<path d="M167.741 116.475C147.782 127.175 111.72 146.071 87.906 158.593L44.1328 181.587V194.564V207.313L125.782 228.03L207.659 248.748L206.978 237.365L206.298 226.209L140.978 209.59C105.143 200.483 75.205 192.515 74.5246 191.832C73.6173 191.149 81.7823 186.14 92.4421 180.904L111.72 171.114L154.586 181.814C177.947 187.734 199.494 193.198 202.442 193.881C207.205 195.247 207.432 194.564 207.432 184.091V172.936L178.174 165.65C162.298 161.552 147.329 158.365 145.287 158.365C143.246 158.365 141.659 157.682 141.659 156.544C141.659 154.95 198.813 123.76 204.71 122.394C207.659 121.483 208.793 96.668 205.844 97.1233C204.71 97.1233 187.7 106.002 167.741 116.475Z" fill="black"/>
</g>
<defs>
<clipPath id="clip0_2112_5900">
<rect width="250" height="250" fill="white"/>
</clipPath>
</defs>
</svg>
