<svg width="29" height="29" viewBox="0 0 29 29" fill="none" xmlns="http://www.w3.org/2000/svg">
<rect x="1" y="1" width="27" height="27" rx="13.5" fill="white"/>
<path d="M11.0604 9.64285C11.0419 8.80488 10.4419 8.16663 9.46766 8.16663C8.49339 8.16663 7.85645 8.80488 7.85645 9.64285C7.85645 10.4635 8.47456 11.1201 9.43069 11.1201H9.44889C10.4419 11.1201 11.0604 10.4635 11.0604 9.64285Z" fill="#100024"/>
<path d="M10.8728 12.2867H8.02486V20.8331H10.8728V12.2867Z" fill="#100024"/>
<path d="M17.8646 12.0859C19.7387 12.0859 21.1436 13.3077 21.1436 15.9328L21.1435 20.8331H18.2957V16.2607C18.2957 15.1122 17.8836 14.3285 16.8526 14.3285C16.0658 14.3285 15.5971 14.8569 15.3913 15.3672C15.316 15.55 15.2975 15.8048 15.2975 16.0603V20.8333H12.4492C12.4492 20.8333 12.4868 13.0888 12.4492 12.2869H15.2975V13.4974C15.6755 12.9155 16.3525 12.0859 17.8646 12.0859Z" fill="#100024"/>
<rect x="1" y="1" width="27" height="27" rx="13.5" stroke="#D9D9D9"/>
</svg>
