<svg width="29" height="29" viewBox="0 0 29 29" fill="none" xmlns="http://www.w3.org/2000/svg">
<rect x="1" y="1" width="27" height="27" rx="13.5" fill="white"/>
<path fill-rule="evenodd" clip-rule="evenodd" d="M14.3176 12.0026L14.3449 12.4642L13.8889 12.4077C12.2289 12.191 10.7788 11.4561 9.54746 10.2219L8.94549 9.60955L8.79044 10.0618C8.4621 11.0699 8.67187 12.1345 9.35593 12.8505C9.72075 13.2462 9.63867 13.3027 9.00934 13.0672C8.79044 12.9918 8.59891 12.9353 8.58067 12.9636C8.51682 13.0295 8.73572 13.8869 8.90901 14.226C9.14615 14.6971 9.62955 15.1588 10.1585 15.432L10.6055 15.6487L10.0765 15.6581C9.5657 15.6581 9.54746 15.6675 9.60218 15.8654C9.7846 16.4777 10.5051 17.1278 11.3078 17.4105L11.8732 17.6083L11.3807 17.9098C10.6511 18.3432 9.79372 18.5881 8.93637 18.607C8.52594 18.6164 8.18848 18.6541 8.18848 18.6824C8.18848 18.7766 9.3012 19.3042 9.94877 19.5114C11.8915 20.1238 14.199 19.86 15.9319 18.8143C17.1632 18.07 18.3945 16.5908 18.9691 15.1588C19.2792 14.3956 19.5893 13.0013 19.5893 12.3323C19.5893 11.8989 19.6167 11.8424 20.1275 11.3242C20.4285 11.0228 20.7112 10.693 20.7659 10.5988C20.8571 10.4198 20.848 10.4198 20.3828 10.58C19.6076 10.8626 19.4981 10.8249 19.8812 10.4009C20.164 10.0995 20.5014 9.55302 20.5014 9.39286C20.5014 9.36459 20.3646 9.4117 20.2096 9.49649C20.0454 9.59071 19.6806 9.73203 19.4069 9.81682L18.9144 9.97698L18.4675 9.66608C18.2212 9.49649 17.8747 9.30806 17.6922 9.25154C17.2271 9.11964 16.5157 9.13848 16.0961 9.28922C14.956 9.71318 14.2355 10.8061 14.3176 12.0026Z" fill="#100024"/>
<rect x="1" y="1" width="27" height="27" rx="13.5" stroke="#D9D9D9"/>
</svg>
