<svg xmlns="http://www.w3.org/2000/svg" width="48" height="42" viewBox="0 0 48 42" fill="none">
  <path d="M0.568918 25.1348C0.542795 24.8058 0.00492867 23.3158 0 23.124C-0.00492867 22.9322 0.509732 23.1363 0.536993 22.6213C0.554472 22.2912 0.533455 22.0276 0.568918 21.6875C0.636956 21.0351 0.879074 20.2931 1.01999 19.6052C1.37543 17.8701 1.88402 16.0238 2.80165 14.0755C3.25882 13.1049 3.56187 12.9135 4.07977 12.0647C4.78432 10.9101 5.72682 9.14838 6.51551 8.20358C6.58752 8.11732 6.65981 8.03189 6.73238 7.9473C7.27563 7.31395 7.83405 6.72713 8.40242 6.18392C8.9197 5.68954 9.44523 5.23129 9.97508 4.80698C10.4434 4.43199 10.915 4.0835 11.3873 3.76002C11.6471 3.58212 11.907 3.41177 12.1668 3.24874C12.2245 3.21251 12.2822 3.17663 12.3399 3.14111C13.2631 2.57283 14.1819 2.09631 15.0761 1.70025C15.8142 1.37332 16.5355 1.10122 17.2287 0.877604C17.3002 0.854531 17.7778 0.831974 17.8487 0.809926C19.7235 0.227001 21.2316 0 22.4383 0C22.8107 0 21.9956 0.272928 21.9284 0.502697C21.8678 0.710117 24.7586 0.673032 24.8922 0.809926C24.9794 0.899307 22.2424 1.46898 22.4384 1.50809C22.651 1.55051 23.2614 1.47418 23.4583 1.50809C23.7033 1.5503 23.9638 1.38738 23.924 1.50809C23.829 1.79663 23.5759 2.01079 23.2002 2.01079C22.8041 2.01079 22.2548 2.0578 21.6054 2.1495C20.9474 2.24241 20.1867 2.3812 19.3786 2.56342C19.2685 2.58825 19.1576 2.61388 19.0458 2.64032C18.16 2.84991 17.2278 3.10982 16.3189 3.41696C16.2581 3.4375 16.1974 3.45825 16.1369 3.4792C15.3323 3.75772 14.5498 4.07337 13.8384 4.424C13.4736 4.60382 13.1105 4.80968 12.7491 5.04179C12.2988 5.33105 11.1546 5.66108 10.7093 6.03236C10.3785 6.30814 10.7454 6.60668 10.4172 6.92816C9.92048 7.41464 9.4266 7.95366 8.93527 8.54584C8.7288 8.7947 8.60802 9.13799 8.40242 9.40568C8.14045 9.74678 7.79391 10.0182 7.53328 10.39C6.88832 11.3102 6.75729 12.4623 6.11961 13.5728C5.907 13.9431 5.18478 14.1865 4.97288 14.5782C4.54135 15.3758 4.1897 16.2184 3.91354 17.0917C3.62383 18.0079 3.18835 18.1351 3.05977 19.1025C3.02953 19.33 3.23245 20.3813 3.21078 20.6106C3.08107 21.9825 3.10365 23.381 3.26442 24.7602C3.36712 25.6413 3.52623 26.5145 3.73806 27.3679C3.87649 27.9256 4.03745 28.4747 4.21989 29.0121C4.54884 29.9809 4.94764 30.9113 5.41029 31.7835C5.62016 32.1791 5.84316 32.5628 6.07874 32.9327C6.21934 33.1535 5.97018 33.4701 6.11961 33.6807C6.67611 34.4648 7.68731 35.0745 8.35856 35.6915C9.00723 36.2876 9.7066 36.7964 10.4511 37.1996C11.1227 37.5632 11.5256 38.4244 12.2392 38.7076C12.8901 38.966 13.8485 38.6529 14.5293 38.8467C15.443 39.1068 16.3814 39.3097 17.3388 39.4584C18.5482 39.6461 19.7878 39.7472 21.0458 39.7672C21.7935 39.7791 22.5477 39.7623 23.3059 39.7181C24.0337 39.6756 24.7652 39.6078 25.4982 39.5158C28.5322 39.1349 31.5925 38.3382 34.5246 37.1996C34.7733 37.103 34.4307 37.8037 34.6775 37.7022C34.8824 37.618 35.677 36.7322 35.8805 36.6447C36.7598 36.2662 37.6249 35.8572 38.4716 35.4196C38.8643 35.2166 38.9079 35.4124 39.2671 35.1888C39.5035 35.0416 40.0649 34.4807 40.2871 34.3253C40.6048 34.1032 40.9083 33.8728 41.1977 33.6352C41.7799 33.1572 40.8351 34.7137 41.3069 34.1834C41.424 34.0518 43.0081 31.8548 43.1186 31.7205C43.1963 31.6261 43.7823 31.2628 43.8568 31.1672C44.0537 30.9143 43.7295 30.9253 43.9044 30.6645C44.3096 30.0602 44.6565 29.4365 44.9484 28.8019C44.9864 28.7194 46.3704 26.7258 46.4065 26.6429C46.6092 26.1778 45.4359 27.6182 45.582 27.1456C45.647 26.9352 45.7066 26.7243 45.7609 26.5133C45.8195 26.285 45.8719 26.0566 45.9183 25.8284C46.0684 25.0885 46.1543 24.3505 46.1814 23.6267C46.1855 23.5168 46.1882 23.4072 46.1896 23.2979C46.1931 23.0249 46.1882 22.7541 46.1753 22.4863C46.1513 21.9904 46.0995 21.5046 46.0218 21.0333C46.0058 20.9362 46.574 21.7118 46.5558 21.616C46.3904 20.7449 45.5501 19.0554 45.2175 18.3194C45.1673 18.2083 44.4191 17.7033 44.3668 17.5944C43.8517 16.5219 43.9324 15.9507 43.2191 15.0809C43.1342 14.9774 43.0479 14.8752 42.9602 14.7743C42.0456 13.7222 40.9819 12.8169 39.7771 12.0394C39.5344 11.8828 38.5013 10.7031 38.2471 10.5566C38.127 10.4874 38.7901 11.4475 38.6674 11.3805C37.7474 10.878 36.7562 10.4387 35.6974 10.0539C34.98 9.79325 34.4364 9.483 33.6576 9.27089C33.5653 9.24576 33.2678 9.29536 33.1746 9.27089C32.3801 9.06217 31.6276 8.72751 30.5978 8.54584C30.4548 8.52062 30.1274 8.62889 29.9809 8.60447C28.5085 8.35904 26.585 8.01636 24.8922 7.88961C23.5322 7.78777 22.2665 7.52556 20.9085 7.54045C19.8939 7.55157 19.0513 7.94943 18.1005 8.04315C18.0138 8.0517 17.9299 8.05937 17.8487 8.0662C17.7047 8.07833 17.5693 8.08778 17.4423 8.09475C17.3278 8.10102 15.91 8.54351 15.8088 8.54584C15.6285 8.55001 16.7791 8.10987 16.6388 8.1026C16.5009 8.09545 17.3306 7.63432 17.2287 7.61742C17.1572 7.60558 16.1452 8.04029 16.0903 8.02421C15.9624 7.98679 16.5981 7.7412 16.5512 7.68491C16.4878 7.6089 15.7727 7.71561 15.8311 7.61742C15.8998 7.50197 16.0425 7.37603 16.2352 7.25103C16.3115 7.20154 16.4608 7.29951 16.5512 7.25103C16.6455 7.20049 16.6814 7.00357 16.7878 6.95569C16.9454 6.88472 16.7351 7.31179 16.9101 7.25103C17.0339 7.20806 17.5399 6.67407 17.6677 6.63844C17.8116 6.59829 17.9568 6.56339 18.1005 6.53506C18.269 6.50184 18.447 6.46948 18.634 6.43831C19.1164 6.35794 19.6592 6.2856 20.2546 6.22752C22.0341 6.05395 24.2842 6.00777 26.802 6.25526C28.7201 6.4438 30.7936 6.80279 32.9327 7.40575C33.0874 7.44936 33.2425 7.49425 33.3979 7.54045C33.9307 7.69884 34.4671 7.87255 35.0057 8.06273C36.3408 8.53406 37.6897 9.10646 39.0318 9.79702C39.9893 10.2897 40.9434 10.8426 41.8863 11.4618C43.0716 12.2401 44.062 13.1715 44.8767 14.2053C45.5544 15.0653 46.1104 15.9961 46.5558 16.9686C46.7998 17.5014 47.0106 18.0467 47.1899 18.5998C47.5388 19.6758 47.7689 20.781 47.8932 21.8802C47.9749 22.6028 47.8139 23.0507 47.808 23.7581C47.8072 23.8593 48.0025 24.2324 48 24.3331C47.9811 25.0797 47.9156 25.8104 47.808 26.5133C47.7563 26.851 47.8786 27.0247 47.808 27.3482C47.7886 27.437 47.5848 27.6829 47.564 27.7705C47.2429 29.1246 46.7583 30.3325 46.1483 31.2924C45.8227 31.8047 45.4572 32.2951 45.0595 32.7639C44.9408 32.9039 44.8192 33.0419 44.6949 33.178C44.5875 33.2957 44.4781 33.412 44.3668 33.5268C43.6784 34.2371 42.9188 34.8932 42.1191 35.4967C41.7336 35.7877 41.3387 36.0664 40.9379 36.3331C40.5553 36.5877 40.1673 36.8314 39.7771 37.0642C39.3875 37.2967 38.9957 37.5183 38.6047 37.7293C38.0483 38.0295 37.4934 38.3082 36.949 38.5657C36.7423 38.6635 36.537 38.7582 36.3338 38.8499C35.9713 39.0135 35.6151 39.1674 35.2678 39.3119C34.5193 39.6233 34.2954 39.4882 33.6576 39.713C33.5011 39.7682 32.8616 40.2246 32.7049 40.2772C31.7365 40.6022 30.7625 40.8789 29.7882 41.1098C29.6264 41.1482 29.2297 41.3741 29.0679 41.4099C28.7639 41.4772 28.6948 41.3514 28.3911 41.4099C26.9764 41.6827 25.5664 41.8611 24.1773 41.9526C23.527 41.9954 23.0778 41.7183 22.4384 41.7238C21.8889 41.7285 21.1476 42.0206 20.6084 41.9988C18.8299 41.9269 17.1129 41.7133 15.4952 41.3753C12.837 40.8199 10.447 39.9285 8.49312 38.778C8.01495 38.4965 7.5629 38.1994 7.13942 37.8879C6.42509 37.3625 5.79205 36.7961 5.2521 36.1942C5.15604 36.0871 5.04147 35.5956 4.95137 35.4863C4.85426 35.3685 4.77273 35.6239 4.66498 35.4863C4.46229 35.2274 4.24282 34.9337 4.01426 34.6062C3.62379 34.0466 3.20681 33.3884 2.80165 32.6365C2.67821 32.4074 2.54407 32.0426 2.41219 31.6699C2.33208 31.4435 3.13539 31.8734 3.05984 31.6699C3.01235 31.5419 2.08375 30.765 2.03992 30.6645C1.76792 30.0409 1.75093 29.8727 1.52996 29.1564C1.15567 27.9431 0.685208 26.5996 0.568918 25.1348Z" fill="url(#paint0_linear_5861_1986)" fill-opacity="0.85"/>
  <defs>
    <linearGradient id="paint0_linear_5861_1986" x1="6.50289" y1="6.53506" x2="44.3467" y2="35.712" gradientUnits="userSpaceOnUse">
      <stop stop-color="#F04438"/>
      <stop offset="0.208333" stop-color="#FF7B72"/>
      <stop offset="1" stop-color="#F1463A"/>
    </linearGradient>
  </defs>
</svg>